<?xml version="1.0" ?>
<svg xmlns="http://www.w3.org/2000/svg" xmlns:xlink="http://www.w3.org/1999/xlink" id="svg" version="1.2" baseProfile="tiny-ps" viewBox="0, 0, 400,400">
	

	<title>Mantel</title>
	

	<path d="M400 200C400 310.457 310.456 400 200 400C89.5425 400 0 310.457 0 200C0 89.5425 89.5425 0 200 0C310.456 0 400 89.5425 400 200Z" fill="#0088E3"/>
	

	<path d="M110.818 165.829C112.292 170.951 146.876 289.893 149.467 294.038C154.467 303.689 219.837 303.818 216.876 294.038C216.876 294.038 164.303 118.305 161.863 109.773C158.011 96.8577 90.6232 93.5314 98.3207 120.903C98.3207 120.903 109.178 159.793 110.818 165.829" fill="white"/>
	

	<path d="M259.734 79.9836C254.285 61.2411 167.006 59.3836 175.565 91.8061C175.565 91.8061 190.034 146.175 192.181 154.175C194.141 160.952 239.896 318.344 243.324 323.842C249.958 336.595 336.44 336.78 332.529 323.842C332.529 323.842 263.284 90.0773 259.734 79.9836Z" fill="white"/>
	

	<path d="M124.492 268.5C124.492 268.5 102.986 189.455 100.633 180.529C100.031 178.254 95.7385 177.56 94.7297 180.549C92.4885 186.754 64.5735 261.64 67.5647 268.5C71.6335 276.464 126.906 276.38 124.492 268.5Z" fill="white"/>
	

</svg>
