<?xml version="1.0" ?>
<svg xmlns="http://www.w3.org/2000/svg"  id="svg" version="1.1" viewBox="0, 0, 400,400">
	<g id="svgg">
		<path id="path0" d="M266.522 71.417 C 266.426 72.012,266.181 73.700,265.977 75.167 C 260.527 114.380,228.373 146.943,190.593 151.510 C 187.913 151.834,187.931 151.772,188.874 157.671 C 189.338 160.576,189.787 165.129,189.899 168.084 C 190.150 174.648,189.513 174.132,197.087 173.911 C 242.725 172.577,277.479 130.609,271.130 84.500 C 269.693 74.066,267.225 67.057,266.522 71.417 M224.254 95.919 C 216.539 102.894,206.871 107.560,196.443 109.343 C 191.017 110.271,191.969 110.430,174.331 105.642 C 155.631 100.565,155.004 100.516,159.695 104.489 C 168.915 112.301,177.388 123.963,182.630 136.056 C 185.004 141.533,184.660 141.323,189.735 140.391 C 213.689 135.989,230.572 118.312,228.374 99.934 C 227.630 93.713,227.179 93.274,224.254 95.919 M128.556 156.889 C 126.336 159.109,137.568 176.631,147.645 186.669 C 155.936 194.926,170.801 205.000,174.696 205.000 C 176.016 205.000,177.999 193.657,178.000 186.103 C 178.000 183.635,178.435 183.942,172.961 182.535 C 158.113 178.716,145.485 171.720,133.262 160.542 C 128.797 156.459,128.903 156.541,128.556 156.889 M225.000 179.546 C 216.566 182.963,205.702 184.999,195.399 185.094 C 189.649 185.147,190.147 184.583,189.898 191.333 C 188.628 225.815,164.587 258.562,131.750 270.537 C 128.754 271.630,128.333 271.879,128.333 272.558 C 128.333 273.620,129.031 273.577,134.402 272.186 C 176.854 261.193,211.387 229.875,226.817 188.373 C 230.767 177.750,230.664 177.251,225.000 179.546 M161.000 299.323 L 161.000 304.313 159.812 303.507 C 155.811 300.792,149.966 303.408,148.460 308.589 C 145.779 317.810,152.809 325.448,159.706 320.807 L 161.333 319.712 161.333 320.689 C 161.333 321.625,161.397 321.667,162.833 321.667 L 164.333 321.667 164.333 308.000 L 164.333 294.333 162.667 294.333 L 161.000 294.333 161.000 299.323 M216.667 299.167 C 216.667 301.825,216.600 304.000,216.519 304.000 C 216.438 304.000,215.800 303.663,215.102 303.251 C 208.343 299.259,201.360 308.406,204.435 317.224 C 206.171 322.203,212.371 323.783,216.250 320.236 L 217.000 319.550 217.000 320.609 C 217.000 321.640,217.037 321.667,218.500 321.667 L 220.000 321.667 220.000 308.000 L 220.000 294.333 218.333 294.333 L 216.667 294.333 216.667 299.167 M224.981 295.615 C 223.302 296.975,224.291 299.333,226.540 299.333 C 227.926 299.333,228.667 298.577,228.667 297.162 C 228.667 295.234,226.549 294.345,224.981 295.615 M54.667 308.988 L 54.667 321.721 60.583 321.610 C 66.116 321.507,66.607 321.446,68.150 320.667 C 73.331 318.049,73.444 310.159,68.322 308.624 L 67.040 308.240 68.095 307.529 C 69.863 306.338,70.667 304.826,70.667 302.696 C 70.667 298.041,68.224 296.582,60.099 296.386 L 54.667 296.255 54.667 308.988 M177.000 309.000 L 177.000 321.667 178.667 321.667 L 180.333 321.667 180.333 309.000 L 180.333 296.333 178.667 296.333 L 177.000 296.333 177.000 309.000 M283.000 308.962 L 283.000 321.667 284.667 321.667 L 286.333 321.667 286.333 316.694 L 286.333 311.721 290.428 311.611 C 298.093 311.404,301.397 307.644,299.538 301.247 C 298.463 297.550,296.442 296.660,288.583 296.424 L 283.000 296.256 283.000 308.962 M321.877 298.417 C 321.766 298.829,321.674 300.029,321.671 301.083 L 321.667 303.000 320.167 303.000 L 318.667 303.000 318.667 304.333 C 318.667 305.662,318.671 305.667,319.975 305.667 L 321.282 305.667 321.391 312.083 C 321.547 321.250,322.816 323.046,328.390 321.989 C 330.524 321.585,330.450 321.671,330.022 320.080 L 329.666 318.759 328.337 319.114 C 327.180 319.423,326.888 319.380,326.087 318.782 L 325.167 318.095 325.076 311.881 L 324.985 305.667 327.326 305.667 L 329.667 305.667 329.667 304.333 L 329.667 303.000 327.333 303.000 L 325.000 303.000 325.000 300.333 L 325.000 297.667 323.539 297.667 C 322.305 297.667,322.046 297.784,321.877 298.417 M64.700 299.670 C 66.469 300.162,67.167 301.104,67.167 303.000 C 67.167 305.870,65.380 307.000,60.844 307.000 L 58.000 307.000 58.000 303.167 L 58.000 299.333 60.750 299.335 C 62.262 299.336,64.040 299.487,64.700 299.670 M293.395 299.678 C 295.348 300.221,296.333 301.663,296.333 303.981 C 296.333 307.448,294.647 308.685,289.583 308.931 L 286.333 309.089 286.333 304.211 L 286.333 299.333 289.250 299.335 C 290.854 299.336,292.720 299.491,293.395 299.678 M80.998 302.626 C 76.339 304.146,73.760 308.866,74.632 314.278 C 75.680 320.784,81.742 323.998,87.765 321.241 C 89.900 320.263,89.880 320.297,89.095 318.968 C 88.415 317.818,88.461 317.824,86.620 318.659 C 82.653 320.459,78.047 317.834,78.007 313.750 L 78.000 313.000 84.167 313.000 L 90.333 313.000 90.333 311.227 C 90.333 305.283,85.763 301.072,80.998 302.626 M114.399 302.947 C 106.895 305.619,106.620 318.455,114.000 321.598 C 119.865 324.095,125.773 319.454,125.793 312.333 C 125.814 305.268,120.401 300.810,114.399 302.947 M136.669 302.709 C 136.029 302.902,134.913 303.497,134.188 304.029 C 132.832 305.027,132.350 304.911,132.338 303.583 C 132.334 303.115,132.038 303.000,130.833 303.000 L 129.333 303.000 129.333 312.333 L 129.333 321.667 131.167 321.667 L 133.000 321.667 133.000 314.858 L 133.000 308.049 134.250 307.017 C 136.541 305.127,138.835 305.039,140.144 306.791 C 140.781 307.643,140.841 308.246,140.935 314.690 L 141.037 321.667 142.708 321.667 L 144.378 321.667 144.272 313.917 C 144.157 305.467,144.010 304.780,141.995 303.278 C 140.977 302.520,138.256 302.228,136.669 302.709 M192.647 302.631 C 191.288 303.073,190.235 303.684,189.250 304.603 C 188.367 305.427,188.333 305.433,188.333 304.756 C 188.333 303.366,187.979 303.000,186.631 303.000 L 185.333 303.000 185.333 312.333 L 185.333 321.667 187.000 321.667 L 188.667 321.667 188.667 314.862 L 188.667 308.057 190.357 306.816 C 192.509 305.236,194.268 305.117,195.614 306.461 L 196.500 307.347 196.602 314.507 L 196.703 321.667 198.518 321.667 L 200.333 321.667 200.327 315.750 C 200.317 306.859,199.907 304.956,197.641 303.264 C 196.712 302.570,193.921 302.217,192.647 302.631 M236.576 302.762 C 232.135 304.192,230.155 311.663,233.645 313.820 C 233.827 313.933,233.612 314.542,233.150 315.223 C 232.130 316.726,232.047 318.906,232.967 320.042 C 233.600 320.824,233.599 320.827,232.467 322.080 C 230.964 323.744,230.834 326.356,232.176 327.950 C 235.529 331.935,245.849 330.495,247.874 325.761 C 249.700 321.494,247.359 319.321,240.667 319.072 C 235.953 318.897,235.333 318.701,235.333 317.385 C 235.333 315.787,235.963 315.279,237.433 315.688 C 242.621 317.132,247.579 311.331,245.158 306.650 L 244.650 305.667 246.325 305.667 L 248.000 305.667 248.000 304.375 L 248.000 303.084 244.250 302.875 C 242.188 302.760,239.900 302.596,239.167 302.511 C 238.433 302.426,237.268 302.539,236.576 302.762 M255.000 302.846 C 250.623 304.205,248.159 309.509,249.316 315.082 C 251.262 324.459,264.071 324.459,266.018 315.082 C 267.694 307.006,261.993 300.674,255.000 302.846 M307.998 302.626 C 300.154 305.185,299.182 317.791,306.554 321.360 C 308.823 322.458,312.214 322.409,314.765 321.241 C 316.896 320.265,316.855 320.331,316.158 318.983 C 315.563 317.833,315.463 317.815,313.968 318.583 C 310.164 320.539,305.047 317.779,305.007 313.750 L 305.000 313.000 311.209 313.000 L 317.419 313.000 317.266 310.355 C 316.940 304.730,312.613 301.121,307.998 302.626 M336.679 302.705 C 330.626 304.544,331.229 310.516,337.739 313.215 C 342.165 315.049,343.188 316.530,341.320 318.398 C 339.984 319.734,337.196 319.660,335.037 318.231 C 333.338 317.106,333.291 317.109,332.344 318.390 L 331.563 319.447 332.531 320.222 C 335.991 322.992,342.760 322.621,344.618 319.560 C 346.864 315.860,345.327 312.803,340.227 310.826 C 336.946 309.554,336.000 308.847,336.000 307.668 C 336.000 305.394,339.823 304.546,342.258 306.280 L 343.289 307.014 344.204 305.814 C 345.235 304.462,345.223 304.442,342.725 303.282 C 341.001 302.482,338.272 302.222,336.679 302.705 M91.147 303.605 C 91.253 303.938,92.906 308.165,94.820 312.998 L 98.301 321.786 97.606 323.400 C 96.684 325.543,95.326 326.667,93.657 326.667 C 92.450 326.667,92.342 326.748,92.024 327.902 C 91.585 329.489,91.927 329.731,94.387 329.579 C 98.644 329.315,99.371 328.173,104.186 314.181 C 106.123 308.553,107.793 303.726,107.897 303.455 C 108.052 303.051,107.764 302.981,106.294 303.064 L 104.501 303.167 102.183 310.575 L 99.864 317.983 98.317 313.575 C 97.467 311.150,96.266 307.779,95.649 306.083 L 94.527 303.000 92.741 303.000 C 91.167 303.000,90.978 303.072,91.147 303.605 M224.667 312.333 L 224.667 321.667 226.333 321.667 L 228.000 321.667 228.000 312.333 L 228.000 303.000 226.333 303.000 L 224.667 303.000 224.667 312.333 M241.075 305.902 C 244.002 308.550,242.465 313.333,238.688 313.333 C 235.244 313.333,234.080 307.528,237.140 305.611 C 238.344 304.857,240.061 304.984,241.075 305.902 M84.826 305.724 C 85.876 306.202,86.844 307.747,87.141 309.417 L 87.364 310.667 82.640 310.667 L 77.917 310.667 78.122 309.639 C 78.747 306.513,82.171 304.514,84.826 305.724 M118.933 305.802 C 123.695 308.279,123.346 317.401,118.427 319.024 C 115.125 320.114,112.230 316.987,112.240 312.341 C 112.250 307.326,115.590 304.062,118.933 305.802 M159.750 306.519 L 161.000 307.343 161.000 311.942 C 161.000 316.525,160.997 316.545,160.083 317.420 C 155.641 321.675,150.381 317.446,151.669 310.654 C 152.560 305.957,156.127 304.132,159.750 306.519 M214.249 305.846 C 216.635 306.843,216.667 306.924,216.667 312.026 L 216.667 316.615 215.312 317.774 C 211.452 321.078,207.360 318.407,207.341 312.573 C 207.324 307.405,210.524 304.290,214.249 305.846 M260.277 306.293 C 263.209 308.381,263.504 315.140,260.782 317.862 C 257.368 321.277,252.667 318.058,252.667 312.306 C 252.667 306.944,256.707 303.751,260.277 306.293 M312.011 305.839 C 313.113 306.409,313.833 307.603,314.175 309.428 L 314.408 310.667 309.668 310.667 L 304.928 310.667 305.154 309.750 C 306.008 306.284,309.272 304.423,312.011 305.839 M66.027 310.420 C 67.689 311.115,68.667 312.464,68.667 314.062 C 68.667 317.311,66.670 318.653,61.437 318.920 L 58.000 319.096 58.000 314.333 L 58.000 309.571 61.417 309.746 C 63.296 309.842,65.371 310.145,66.027 310.420 M269.110 315.819 C 265.397 317.434,267.686 323.259,271.534 321.989 C 274.285 321.081,274.350 316.652,271.627 315.703 C 270.342 315.255,270.415 315.251,269.110 315.819 M271.848 317.152 C 272.678 317.981,272.892 319.129,272.370 319.952 C 271.941 320.629,271.557 319.818,271.816 318.783 C 272.097 317.666,271.499 317.001,270.209 316.995 C 269.413 316.991,269.285 316.913,269.667 316.667 C 270.455 316.157,270.969 316.272,271.848 317.152 M269.000 318.853 C 269.000 319.781,268.870 320.293,268.667 320.167 C 268.093 319.812,268.288 317.333,268.889 317.333 C 268.950 317.333,269.000 318.017,269.000 318.853 M270.960 321.119 C 270.627 321.289,270.153 321.260,269.784 321.046 C 269.445 320.848,269.354 320.682,269.583 320.677 C 269.813 320.671,270.000 320.343,270.000 319.947 C 270.000 319.235,270.007 319.235,270.759 320.031 C 271.443 320.755,271.463 320.861,270.960 321.119 M244.299 322.802 C 246.393 324.698,243.438 327.642,239.423 327.659 C 235.171 327.677,233.040 325.256,235.125 322.776 L 235.917 321.833 239.757 322.000 C 242.913 322.137,243.722 322.280,244.299 322.802 " stroke="none" fill="#0c54a4" fill-rule="evenodd"/>
		<path id="path1" d="" stroke="none" fill="#0454ac" fill-rule="evenodd"/>
		<path id="path2" d="" stroke="none" fill="#1054a4" fill-rule="evenodd"/>
		<path id="path3" d="" stroke="none" fill="#0c54ac" fill-rule="evenodd"/>
		<path id="path4" d="" stroke="none" fill="#1054a4" fill-rule="evenodd"/>
	</g>
</svg>
