<svg viewBox="0 0 62.64 55.66" fill="none" xmlns="http://www.w3.org/2000/svg">
    <rect fill="lightgrey" height="100%" width="100%" />
    <g transform="translate(-17 -18)">
        <path d="M24.1 22.63C32 32.68 41.46 40.14 52.25 43.61C50.33 41.94 48.62 40.23 47.03 38.17C46.98 38.17 46.93 38.17 46.88 38.17C45.6 38.14 44.59 37.07 44.63 35.79C44.66 34.51 45.73 33.5 47.01 33.54C48.29 33.57 49.3 34.64 49.26 35.92C49.26 36.18 49.2 36.43 49.12 36.66C51.29 39.77 53.52 42.27 56.64 44.79C57.66 45.01 58.7 45.2 59.75 45.34C54.51 40.29 51.12 35.05 48.56 27.93C47.46 27.58 46.68 26.54 46.71 25.33C46.75 23.86 47.97 22.71 49.43 22.75C50.9 22.79 52.05 24.01 52.01 25.47C51.99 26.06 51.79 26.6 51.45 27.03C53.61 34.26 57.43 40.43 62.83 45.66C65.31 45.84 67.84 45.82 70.43 45.58C74.68 45.19 77.2 45.1 79.64 49.19C73.74 48.93 60.52 59.68 54.2 67.29C54.24 67.45 54.27 67.61 54.27 67.78C54.3 68.92 53.4 69.86 52.26 69.88C51.12 69.9 50.18 69.01 50.16 67.87C50.13 66.73 51.03 65.79 52.17 65.77C52.27 65.77 52.36 65.77 52.45 65.78C58.05 59.9 69.01 50.54 76.07 48.15C74.72 46.97 72.54 47.21 70.89 47.44C52.43 49.74 34.07 41.27 20.7 25.24H20.62C18.62 25.24 17 23.62 17 21.62C17 19.62 18.62 18 20.62 18C22.62 18 24.24 19.62 24.24 21.62C24.24 21.97 24.19 22.31 24.1 22.63ZM38.33 69.54C38.52 69.54 38.7 69.56 38.87 69.6C46.72 62.93 54.77 57.26 63.45 51.68C52.35 51.65 37.9 49.18 26.73 42.37C26.45 42.45 26.16 42.5 25.85 42.5C24.15 42.5 22.78 41.12 22.78 39.43C22.78 37.74 24.16 36.36 25.85 36.36C27.54 36.36 28.9 37.72 28.92 39.4C39.91 47.31 56.46 50.74 69.24 49.75C58.93 56.79 50 62.48 40.4 71.34C40.4 71.41 40.42 71.49 40.42 71.56C40.45 72.69 39.55 73.64 38.41 73.66C37.28 73.69 36.33 72.79 36.31 71.65C36.28 70.52 37.18 69.57 38.32 69.55L38.33 69.54ZM36.23 62.25C36.57 62.25 36.89 62.32 37.17 62.45C43.48 58.92 48.19 56.54 51.61 54.82C47.01 54.84 42.93 54.62 38.11 53.82C37.63 54.33 36.94 54.65 36.18 54.65C34.71 54.65 33.53 53.46 33.53 52C33.53 50.54 34.72 49.35 36.18 49.35C37.37 49.35 38.37 50.13 38.71 51.2C45.45 52.93 52.08 53.23 58.58 53.08C51.63 56.65 45.16 60.15 38.33 64.41C38.28 65.48 37.41 66.34 36.32 66.36C35.19 66.39 34.24 65.49 34.22 64.35C34.19 63.22 35.09 62.27 36.23 62.25Z" fill="#3DCC77" />
    </g>
</svg>