<?xml version="1.0" ?>
<!-- Generator: Adobe Illustrator 13.0.2, SVG Export Plug-In . SVG Version: 6.00 Build 14948)  -->
<svg xmlns="http://www.w3.org/2000/svg" xmlns:xlink="http://www.w3.org/1999/xlink" version="1.1" id="Layer_1" x="0px" y="0px" viewBox="0 0 145 40" enable-background="new 0 0 145 40" xml:space="preserve">
	<g>
		<path fill="#2CE0DF" d="M7.496,16.808c-2.54,1.804-4.99,3.737-7.341,5.794c-0.161,0.144-0.203,0.404-0.095,0.589   c2.026,3.419,4.053,6.843,6.078,10.262c0.108,0.186,0.361,0.271,0.562,0.199c2.935-1.072,5.807-2.293,8.61-3.651   C12.343,25.831,9.731,21.416,7.496,16.808z"/>
		<path fill="#2CE0DF" d="M29.298,5.345c-2.935,1.071-5.808,2.292-8.61,3.651c2.966,4.176,5.579,8.588,7.813,13.192   c2.539-1.801,4.989-3.735,7.34-5.795c0.161-0.143,0.204-0.404,0.096-0.587c-2.026-3.421-4.053-6.843-6.079-10.266   C29.752,5.36,29.5,5.271,29.298,5.345z"/>
		<path fill="#A7F501" d="M20.687,8.996c-1.803-2.54-3.735-4.99-5.793-7.341c-0.142-0.16-0.404-0.203-0.587-0.096   C10.886,3.587,7.463,5.612,4.042,7.638C3.859,7.746,3.77,7.999,3.845,8.201c1.071,2.933,2.292,5.806,3.651,8.607   C11.669,13.844,16.083,11.229,20.687,8.996z"/>
		<path fill="#A7F501" d="M15.308,30.003c1.803,2.54,3.737,4.991,5.795,7.342c0.141,0.161,0.403,0.203,0.586,0.097   c3.423-2.025,6.843-4.053,10.264-6.078c0.183-0.107,0.272-0.358,0.2-0.562c-1.073-2.933-2.293-5.807-3.651-8.61   C24.328,25.153,19.915,27.771,15.308,30.003z"/>
		<path fill="#01CC00" d="M20.687,8.996c-4.605,2.235-9.019,4.848-13.192,7.813c2.236,4.606,4.848,9.019,7.813,13.193   c4.606-2.233,9.02-4.85,13.192-7.813C26.268,17.582,23.653,13.171,20.687,8.996z"/>
	</g>
	<g display="none">
		<path display="inline" d="M55.438,26.139h-6.145c-0.381,0-0.703-0.285-0.703-0.596V9.409c0-0.336,0.322-0.593,0.703-0.593h5.822   c3.391,0,5.354,1.705,5.354,4.266c0,1.835-0.994,3.153-3.335,3.801c2.398,0.311,4.183,1.837,4.183,4.342   C61.318,24.352,59.185,26.139,55.438,26.139z M54.414,11.116h-2.721v4.785h2.545c2.019,0,3.074-0.908,3.074-2.458   C57.312,11.84,56.346,11.116,54.414,11.116z M54.474,18.073h-2.78v5.661H55c1.844,0,3.014-0.904,3.014-2.848   C58.014,19.102,56.667,18.073,54.474,18.073z"/>
		<path display="inline" d="M70.106,15.952c-0.117,0.387-0.41,0.566-0.879,0.463c-0.41-0.104-0.936-0.387-1.521-0.387   c-0.965,0-1.873,0.984-1.873,3.439v6.075c0,0.335-0.292,0.595-0.672,0.595h-1.64c-0.379,0-0.7-0.26-0.7-0.595V14.269   c0-0.336,0.321-0.595,0.7-0.595h1.112c0.351,0,0.644,0.207,0.761,0.545l0.321,1.034c0.761-1.087,1.785-1.786,3.132-1.786   c0.41,0,0.789,0.078,1.081,0.183c0.557,0.205,0.733,0.516,0.616,0.878L70.106,15.952z"/>
		<path display="inline" d="M73.941,26.139h-1.608c-0.381,0-0.702-0.261-0.702-0.596V14.269c0-0.336,0.321-0.595,0.702-0.595h1.608   c0.381,0,0.672,0.258,0.672,0.595v11.275C74.613,25.88,74.322,26.139,73.941,26.139z"/>
		<path display="inline" d="M81.869,31.389c-2.982,0-5.911-0.854-5.911-3.695c0-0.336,0.295-0.62,0.676-0.62l1.694,0.05   c0.381,0,0.587,0.234,0.646,0.57c0.265,1.262,1.666,1.527,2.982,1.527c1.812,0,3.072-0.676,3.072-1.71   c0-0.983-0.526-1.475-2.078-1.475h-2.926c-1.668,0-3.275-0.521-3.275-2.147c0-0.88,0.525-1.554,1.229-2.117   c-1.258-0.776-2.021-2.02-2.021-3.676c0-2.92,2.167-4.598,5.384-4.598c0.85,0,1.581,0.179,2.195,0.179h3.568   c0.494,0,0.729,0.258,0.729,0.621v0.75c0,0.414-0.177,0.57-0.557,0.595l-1.521,0.129c0.616,0.674,0.995,1.371,0.995,2.324   c0,2.821-2.052,4.581-5.384,4.581c-0.496,0-0.993-0.052-1.464-0.156c-0.233,0.209-0.381,0.416-0.381,0.697   c0,0.521,0.439,0.619,1.315,0.619h2.517c2.72,0,4.479,1.165,4.479,3.417C87.837,30.354,84.734,31.389,81.869,31.389z    M81.371,15.487c-1.434,0-2.396,0.541-2.396,2.531c0,1.994,0.963,2.613,2.396,2.613c1.404,0,2.369-0.701,2.369-2.613   C83.74,16.083,82.805,15.487,81.371,15.487z"/>
		<path display="inline" d="M98.756,26.139h-1.58c-0.379,0-0.703-0.261-0.703-0.596v-8.3c0-1.01-0.438-1.525-1.549-1.525   c-1.609,0-2.867,1.213-2.867,2.896v6.931c0,0.336-0.322,0.596-0.703,0.596h-1.578c-0.381,0-0.703-0.26-0.703-0.596V8.425   c0-0.335,0.322-0.593,0.703-0.593h1.607c0.383,0,0.674,0.258,0.674,0.593v6.62c1.023-1.008,2.31-1.577,3.803-1.577   c2.193,0,3.601,1.292,3.601,3.234v8.842C99.457,25.88,99.135,26.139,98.756,26.139z"/>
		<path display="inline" d="M107.564,25.984c-0.265,0.102-1.17,0.31-2.162,0.31c-2.049,0-2.93-1.012-2.93-2.815v-7.733h-1.228   c-0.382,0-0.677-0.283-0.677-0.619v-0.829c0-0.336,0.295-0.621,0.677-0.621h1.228v-2.688c0-0.388,0.18-0.698,0.586-0.803   l1.553-0.389c0.496-0.129,0.879,0.026,0.879,0.542v3.336h1.521c0.381,0,0.67,0.285,0.67,0.621v0.828   c0,0.336-0.289,0.619-0.67,0.619h-1.521v7.58c0,0.439,0.291,0.619,0.729,0.619c0.383,0,0.588-0.076,0.852-0.133   c0.382-0.074,0.646,0.104,0.731,0.441l0.231,1.059C108.091,25.623,107.943,25.828,107.564,25.984z"/>
		<path display="inline" d="M115.762,26.294c-1.753,0-2.693-0.599-3.479-1.655l-0.205,0.905c-0.086,0.386-0.438,0.597-0.879,0.597   h-1.021c-0.382,0-0.704-0.261-0.704-0.597V8.425c0-0.335,0.322-0.593,0.704-0.593h1.606c0.383,0,0.675,0.258,0.675,0.593v6.62   c0.702-0.981,1.667-1.577,3.306-1.577c2.926,0,4.916,2.38,4.916,6.364C120.677,24.742,118.512,26.294,115.762,26.294z    M114.941,15.692c-1.576,0-2.572,1.395-2.572,4.238c0,2.82,0.967,4.061,2.604,4.061c1.609,0,2.516-1.032,2.516-4.083   C117.488,17.864,117.05,15.692,114.941,15.692z"/>
		<path display="inline" d="M127.406,26.294c-3.66,0-5.76-2.43-5.76-6.439c0-3.952,2.129-6.386,5.76-6.386   c3.625,0,5.764,2.434,5.764,6.386C133.17,23.864,131.061,26.294,127.406,26.294z M127.406,15.692c-1.609,0-2.69,1.166-2.69,4.16   c0,3.08,1.108,4.162,2.69,4.162c1.578,0,2.721-1.082,2.721-4.162C130.127,16.858,129.014,15.692,127.406,15.692z"/>
		<path display="inline" d="M144.547,26.139h-2.223c-0.41,0-0.731-0.152-0.905-0.468l-2.544-4.289l-2.605,4.289   c-0.177,0.312-0.498,0.468-0.91,0.468H133.2c-0.382,0-0.615-0.312-0.354-0.646l4.242-5.866l-3.744-5.302   c-0.232-0.337-0.029-0.648,0.354-0.648h2.225c0.407,0,0.698,0.13,0.905,0.491l2.135,3.57l2.136-3.57   c0.207-0.361,0.498-0.491,0.907-0.491h2.138c0.383,0,0.614,0.312,0.354,0.648l-3.776,5.197l4.186,5.972   C145.134,25.805,144.928,26.139,144.547,26.139z"/>
		<path display="inline" d="M73.932,11.688h-1.687c-0.364,0-0.648-0.226-0.648-0.511V9.268c0-0.285,0.284-0.51,0.648-0.51h1.687   c0.363,0,0.646,0.245,0.646,0.529v1.89C74.578,11.462,74.295,11.688,73.932,11.688z"/>
	</g>
	<g>
		<path d="M53.756,29.062h-6.064c-0.375,0-0.693-0.286-0.693-0.598V12.248c0-0.339,0.317-0.598,0.693-0.598h5.747   c3.35,0,5.284,1.715,5.284,4.287c0,1.846-0.982,3.172-3.292,3.822c2.368,0.312,4.129,1.846,4.129,4.366   C59.56,27.269,57.453,29.062,53.756,29.062z M52.746,13.963H50.06v4.808h2.512c1.993,0,3.032-0.909,3.032-2.469   C55.604,14.69,54.651,13.963,52.746,13.963z M52.803,20.954H50.06v5.691h3.263c1.819,0,2.974-0.909,2.974-2.859   C56.297,21.994,54.969,20.954,52.803,20.954z"/>
		<path d="M67.992,18.823c-0.115,0.39-0.404,0.572-0.866,0.468c-0.404-0.104-0.924-0.389-1.501-0.389   c-0.953,0-1.849,0.988-1.849,3.457v6.106c0,0.338-0.288,0.598-0.664,0.598h-1.617c-0.375,0-0.693-0.26-0.693-0.598V17.134   c0-0.339,0.317-0.599,0.693-0.599h1.097c0.347,0,0.635,0.208,0.751,0.545l0.318,1.041c0.75-1.092,1.761-1.794,3.089-1.794   c0.404,0,0.78,0.078,1.068,0.182c0.549,0.208,0.723,0.52,0.607,0.884L67.992,18.823z"/>
		<path d="M71.86,29.062h-1.587c-0.375,0-0.692-0.26-0.692-0.598V17.134c0-0.339,0.317-0.599,0.692-0.599h1.587   c0.376,0,0.665,0.26,0.665,0.599v11.331C72.525,28.803,72.236,29.062,71.86,29.062z"/>
		<path d="M79.686,34.338c-2.945,0-5.833-0.856-5.833-3.716c0-0.339,0.289-0.624,0.664-0.624l1.675,0.053   c0.376,0,0.577,0.232,0.636,0.571c0.26,1.272,1.646,1.533,2.945,1.533c1.791,0,3.032-0.676,3.032-1.715   c0-0.988-0.521-1.482-2.051-1.482h-2.888c-1.646,0-3.233-0.519-3.233-2.157c0-0.883,0.52-1.559,1.212-2.13   c-1.241-0.78-1.992-2.026-1.992-3.69c0-2.937,2.138-4.626,5.313-4.626c0.837,0,1.56,0.182,2.166,0.182h3.522   c0.491,0,0.722,0.26,0.722,0.624v0.754c0,0.416-0.173,0.572-0.549,0.598l-1.501,0.13c0.606,0.676,0.982,1.377,0.982,2.339   c0,2.832-2.021,4.6-5.313,4.6c-0.491,0-0.982-0.052-1.443-0.156c-0.231,0.208-0.377,0.416-0.377,0.702   c0,0.52,0.435,0.623,1.301,0.623h2.482c2.686,0,4.418,1.17,4.418,3.432C85.576,33.299,82.516,34.338,79.686,34.338z M79.195,18.355   c-1.415,0-2.368,0.546-2.368,2.547s0.953,2.625,2.368,2.625c1.386,0,2.338-0.701,2.338-2.625   C81.533,18.953,80.61,18.355,79.195,18.355z"/>
		<path d="M96.318,29.062h-1.56c-0.376,0-0.693-0.26-0.693-0.598v-8.342c0-1.014-0.433-1.534-1.53-1.534   c-1.588,0-2.829,1.222-2.829,2.912v6.965c0,0.338-0.319,0.598-0.693,0.598h-1.559c-0.376,0-0.693-0.26-0.693-0.598V11.26   c0-0.338,0.317-0.598,0.693-0.598h1.587c0.376,0,0.665,0.26,0.665,0.598v6.654c1.011-1.015,2.28-1.586,3.754-1.586   c2.166,0,3.551,1.3,3.551,3.249v8.889C97.011,28.803,96.692,29.062,96.318,29.062z"/>
		<path d="M104.519,28.906c-0.26,0.104-1.155,0.312-2.137,0.312c-2.021,0-2.888-1.014-2.888-2.834v-7.77h-1.212   c-0.376,0-0.665-0.286-0.665-0.625v-0.832c0-0.339,0.289-0.624,0.665-0.624h1.212v-2.703c0-0.39,0.174-0.702,0.578-0.806   l1.529-0.389c0.492-0.131,0.867,0.025,0.867,0.545v3.353h1.502c0.375,0,0.663,0.285,0.663,0.624v0.832   c0,0.339-0.288,0.625-0.663,0.625h-1.502v7.614c0,0.441,0.288,0.624,0.722,0.624c0.376,0,0.577-0.078,0.838-0.13   c0.375-0.078,0.635,0.104,0.722,0.441l0.231,1.065C105.039,28.542,104.895,28.751,104.519,28.906z"/>
		<path d="M112.142,29.219c-1.731,0-2.656-0.598-3.436-1.663l-0.202,0.909c-0.087,0.39-0.434,0.598-0.866,0.598h-1.012   c-0.375,0-0.692-0.26-0.692-0.598V11.26c0-0.338,0.317-0.598,0.692-0.598h1.588c0.376,0,0.665,0.26,0.665,0.598v6.654   c0.693-0.988,1.646-1.586,3.263-1.586c2.888,0,4.852,2.393,4.852,6.395C116.993,27.659,114.856,29.219,112.142,29.219z    M111.333,18.562c-1.56,0-2.541,1.404-2.541,4.264c0,2.831,0.953,4.079,2.57,4.079c1.588,0,2.483-1.039,2.483-4.105   C113.846,20.746,113.412,18.562,111.333,18.562z"/>
		<path d="M123.635,29.219c-3.609,0-5.689-2.443-5.689-6.471c0-3.977,2.109-6.421,5.689-6.421c3.581,0,5.688,2.444,5.688,6.421   C129.323,26.775,127.244,29.219,123.635,29.219z M123.635,18.562c-1.589,0-2.657,1.171-2.657,4.186   c0,3.092,1.098,4.183,2.657,4.183s2.686-1.091,2.686-4.183C126.32,19.733,125.223,18.562,123.635,18.562z"/>
		<path d="M140.556,29.062h-2.194c-0.404,0-0.722-0.156-0.896-0.468l-2.512-4.314l-2.57,4.314c-0.173,0.312-0.49,0.468-0.895,0.468   h-2.137c-0.376,0-0.607-0.312-0.347-0.65l4.187-5.897l-3.695-5.329c-0.231-0.338-0.029-0.65,0.346-0.65h2.195   c0.403,0,0.692,0.13,0.895,0.493l2.107,3.588l2.108-3.588c0.202-0.363,0.491-0.493,0.896-0.493h2.107   c0.376,0,0.607,0.312,0.346,0.65l-3.725,5.225l4.13,6.002C141.133,28.725,140.932,29.062,140.556,29.062z"/>
		<path d="M71.852,14.539h-1.664c-0.359,0-0.641-0.226-0.641-0.513v-1.921c0-0.287,0.281-0.512,0.641-0.512h1.664   c0.358,0,0.64,0.246,0.64,0.533v1.9C72.491,14.313,72.21,14.539,71.852,14.539z"/>
	</g>
</svg>
