<?xml version="1.0" ?>
<svg xmlns="http://www.w3.org/2000/svg"  id="svg" version="1.1" viewBox="0, 0, 400,468.72559460418887">
	<g id="svgg">
		<path id="path0" d="M184.895 14.209 C 184.846 14.290,184.664 14.971,184.490 15.723 C 184.316 16.475,184.048 17.529,183.894 18.066 C 183.741 18.604,183.564 19.263,183.502 19.531 C 183.439 19.800,183.117 21.030,182.785 22.266 C 182.453 23.501,182.110 24.819,182.023 25.195 C 181.685 26.647,181.029 29.243,180.765 30.176 C 180.449 31.288,179.945 33.171,179.694 34.180 C 179.600 34.556,179.415 35.259,179.283 35.742 C 179.151 36.226,178.974 36.929,178.890 37.305 C 178.705 38.129,177.998 40.857,177.146 44.043 C 176.801 45.332,176.444 46.754,176.354 47.203 C 175.990 49.002,175.695 49.414,174.770 49.414 C 174.311 49.414,173.274 49.542,172.465 49.698 C 171.657 49.854,170.337 50.078,169.531 50.196 C 168.097 50.406,166.211 50.752,163.672 51.270 C 162.974 51.412,161.875 51.635,161.230 51.764 C 160.060 52.000,158.665 52.324,156.641 52.832 C 156.050 52.980,155.127 53.200,154.590 53.320 C 153.148 53.643,151.375 54.106,150.488 54.393 C 150.059 54.531,149.268 54.750,148.730 54.878 C 148.193 55.007,147.446 55.225,147.070 55.362 C 146.694 55.500,145.903 55.754,145.313 55.928 C 143.222 56.542,137.593 58.407,137.259 58.597 C 137.072 58.703,136.822 58.789,136.702 58.789 C 136.583 58.789,136.208 58.915,135.869 59.069 C 135.531 59.223,134.858 59.480,134.375 59.640 C 133.583 59.903,132.640 60.265,131.543 60.730 C 131.328 60.821,129.922 61.401,128.418 62.019 C 126.914 62.638,125.552 63.209,125.391 63.287 C 125.229 63.366,124.878 63.524,124.609 63.638 C 122.711 64.445,121.624 64.961,117.285 67.113 C 114.600 68.446,111.787 69.870,111.035 70.279 C 107.562 72.168,106.889 72.548,106.253 72.978 C 105.879 73.231,105.462 73.437,105.326 73.438 C 105.190 73.438,105.078 73.515,105.078 73.610 C 105.078 73.705,104.924 73.836,104.736 73.900 C 104.309 74.048,102.982 74.831,101.500 75.811 C 100.875 76.224,100.327 76.563,100.283 76.563 C 100.180 76.563,93.683 80.900,93.555 81.055 C 93.501 81.120,93.125 81.375,92.719 81.621 C 92.314 81.868,91.874 82.174,91.743 82.302 C 91.611 82.430,91.174 82.736,90.771 82.982 C 90.369 83.229,90.039 83.511,90.039 83.610 C 90.039 83.708,89.945 83.789,89.831 83.789 C 89.619 83.789,88.345 84.664,87.988 85.055 C 87.881 85.172,87.485 85.481,87.109 85.741 C 86.464 86.188,82.827 89.038,82.617 89.262 C 82.563 89.319,82.124 89.668,81.641 90.037 C 81.157 90.406,80.584 90.888,80.367 91.106 C 80.151 91.325,79.358 92.003,78.606 92.612 C 77.854 93.221,76.931 94.013,76.554 94.370 C 76.177 94.727,74.993 95.811,73.922 96.777 C 71.819 98.676,66.449 103.998,64.551 106.065 C 63.906 106.766,62.830 107.927,62.158 108.644 C 61.487 109.361,60.938 110.029,60.938 110.129 C 60.938 110.228,60.823 110.354,60.684 110.407 C 60.545 110.460,59.908 111.149,59.268 111.936 C 58.629 112.724,57.853 113.634,57.543 113.960 C 57.234 114.285,56.761 114.880,56.492 115.283 C 56.223 115.686,55.927 116.016,55.833 116.016 C 55.740 116.016,55.664 116.140,55.664 116.292 C 55.664 116.444,55.589 116.598,55.498 116.634 C 55.309 116.708,54.039 118.272,52.747 120.020 C 52.271 120.664,51.828 121.235,51.761 121.289 C 51.695 121.343,51.430 121.694,51.172 122.070 C 50.914 122.446,50.650 122.798,50.585 122.852 C 50.490 122.931,49.527 124.257,46.534 128.429 C 46.453 128.542,46.299 128.777,46.191 128.951 C 45.906 129.415,43.602 132.874,43.418 133.116 C 43.057 133.591,42.755 134.104,42.647 134.424 C 42.584 134.612,42.465 134.766,42.383 134.766 C 42.300 134.766,42.181 134.919,42.118 135.107 C 41.991 135.486,41.573 136.177,41.379 136.328 C 41.310 136.382,41.064 136.777,40.832 137.207 C 40.274 138.238,39.966 138.748,39.828 138.867 C 39.766 138.921,39.582 139.229,39.418 139.551 C 38.836 140.699,38.375 141.490,38.135 141.753 C 38.000 141.900,37.891 142.146,37.891 142.299 C 37.891 142.453,37.822 142.578,37.738 142.578 C 37.654 142.578,37.481 142.820,37.353 143.115 C 37.225 143.411,36.682 144.443,36.145 145.410 C 34.589 148.212,31.034 155.422,29.500 158.887 C 29.310 159.316,28.922 160.176,28.639 160.796 C 28.357 161.417,28.125 161.975,28.125 162.036 C 28.125 162.098,28.005 162.425,27.858 162.763 C 27.711 163.102,27.353 163.994,27.061 164.746 C 26.770 165.498,26.444 166.277,26.337 166.476 C 26.230 166.676,25.979 167.335,25.779 167.941 C 25.579 168.547,25.229 169.526,25.000 170.117 C 24.771 170.708,24.419 171.675,24.217 172.266 C 24.015 172.856,23.635 173.955,23.372 174.707 C 23.110 175.459,22.658 176.865,22.369 177.832 C 22.080 178.799,21.752 179.810,21.640 180.078 C 21.528 180.347,21.276 181.182,21.079 181.934 C 20.881 182.686,20.542 183.916,20.325 184.668 C 20.108 185.420,19.794 186.606,19.627 187.305 C 19.291 188.709,18.898 190.272,18.553 191.581 C 18.338 192.396,18.146 193.339,17.791 195.313 C 17.704 195.796,17.536 196.587,17.418 197.070 C 17.034 198.644,16.556 201.325,15.938 205.371 C 15.257 209.829,15.055 211.342,14.854 213.477 C 14.737 214.712,14.515 217.085,14.360 218.750 C 13.142 231.817,13.764 249.356,15.910 262.500 C 16.059 263.413,16.280 264.819,16.402 265.625 C 16.610 267.006,16.788 267.954,17.475 271.338 C 17.633 272.117,17.858 273.237,17.975 273.828 C 18.237 275.156,18.712 277.154,19.042 278.320 C 19.179 278.804,19.399 279.727,19.531 280.371 C 19.663 281.016,19.897 281.982,20.050 282.520 C 21.767 288.523,22.075 289.553,23.035 292.480 C 23.680 294.448,24.010 295.419,24.232 295.996 C 24.314 296.211,24.425 296.563,24.479 296.777 C 24.533 296.992,24.764 297.651,24.994 298.242 C 25.223 298.833,25.547 299.712,25.713 300.195 C 25.879 300.679,26.128 301.338,26.267 301.660 C 26.405 301.982,26.761 302.861,27.057 303.613 C 27.354 304.365,27.759 305.338,27.958 305.775 C 28.157 306.211,28.320 306.630,28.320 306.704 C 28.320 306.779,28.508 307.257,28.738 307.766 C 29.318 309.053,29.955 310.470,30.472 311.621 C 31.922 314.857,32.247 315.557,32.417 315.820 C 32.587 316.085,32.907 316.735,33.714 318.457 C 34.143 319.371,36.418 323.653,36.879 324.414 C 37.107 324.790,37.414 325.361,37.563 325.684 C 37.711 326.006,38.197 326.864,38.643 327.591 C 39.088 328.318,39.453 328.965,39.453 329.028 C 39.453 329.091,39.717 329.533,40.039 330.011 C 40.361 330.488,40.625 330.921,40.625 330.973 C 40.625 331.025,41.007 331.658,41.473 332.379 C 41.939 333.101,42.769 334.395,43.316 335.254 C 43.864 336.113,44.405 336.923,44.519 337.052 C 44.633 337.182,44.727 337.327,44.727 337.375 C 44.727 337.540,48.542 343.073,49.220 343.889 C 49.328 344.020,49.616 344.415,49.860 344.768 C 50.886 346.255,52.196 347.954,52.361 348.014 C 52.459 348.050,52.539 348.197,52.539 348.340 C 52.539 348.483,52.606 348.630,52.687 348.665 C 52.768 348.701,53.140 349.126,53.512 349.609 C 53.884 350.093,54.238 350.532,54.297 350.586 C 54.356 350.640,54.705 351.079,55.072 351.563 C 55.440 352.046,55.877 352.584,56.044 352.759 C 56.211 352.934,56.479 353.245,56.641 353.450 C 57.036 353.952,58.790 356.057,59.218 356.543 C 62.503 360.269,63.776 361.618,68.164 366.022 C 70.796 368.664,73.784 371.559,74.805 372.456 C 75.825 373.353,76.801 374.226,76.974 374.397 C 77.147 374.568,77.499 374.883,77.757 375.098 C 78.015 375.313,78.750 375.928,79.389 376.465 C 80.029 377.002,80.721 377.573,80.925 377.734 C 81.130 377.896,81.441 378.164,81.616 378.331 C 81.791 378.498,82.329 378.936,82.813 379.305 C 83.296 379.673,83.809 380.087,83.952 380.225 C 84.096 380.362,84.534 380.715,84.925 381.009 C 86.443 382.148,86.488 382.207,86.325 382.876 C 86.014 384.154,84.769 388.763,84.286 390.430 C 84.114 391.021,83.893 391.855,83.793 392.285 C 83.694 392.715,83.487 393.506,83.332 394.043 C 83.178 394.580,82.770 396.074,82.426 397.363 C 82.082 398.652,81.669 400.190,81.508 400.781 C 81.347 401.372,81.000 402.646,80.736 403.613 C 80.473 404.580,80.178 405.679,80.081 406.055 C 79.984 406.431,79.761 407.266,79.586 407.910 C 79.411 408.555,79.191 409.390,79.097 409.766 C 79.003 410.142,78.800 410.889,78.645 411.426 C 78.380 412.345,77.754 414.675,76.623 418.945 C 76.352 419.966,76.004 421.240,75.849 421.777 C 75.694 422.314,75.487 423.105,75.389 423.535 C 75.292 423.965,75.072 424.800,74.901 425.391 C 74.729 425.981,74.510 426.772,74.414 427.148 C 74.136 428.228,73.096 432.022,72.753 433.203 C 72.581 433.794,72.358 434.607,72.256 435.010 C 72.154 435.413,71.987 436.072,71.885 436.475 C 71.783 436.877,71.559 437.690,71.387 438.281 C 71.214 438.872,70.867 440.146,70.614 441.113 C 70.362 442.080,69.960 443.574,69.723 444.434 C 69.020 446.974,68.929 447.322,68.741 448.206 C 68.642 448.670,68.502 449.147,68.428 449.266 C 68.355 449.384,68.227 449.796,68.144 450.180 C 68.061 450.565,67.814 451.494,67.596 452.246 C 67.378 452.998,67.196 453.855,67.193 454.150 L 67.188 454.688 95.188 454.688 L 123.189 454.688 123.485 453.857 C 123.647 453.401,123.924 452.412,124.100 451.660 C 124.275 450.908,124.592 449.678,124.803 448.926 C 125.014 448.174,125.322 446.987,125.487 446.289 C 125.652 445.591,125.910 444.580,126.059 444.043 C 126.694 441.763,126.930 440.858,127.157 439.844 C 127.289 439.253,127.508 438.418,127.644 437.988 C 127.882 437.234,128.371 435.401,128.711 433.984 C 128.868 433.331,129.207 432.029,129.829 429.688 C 129.986 429.097,130.200 428.262,130.305 427.832 C 130.410 427.402,130.592 426.743,130.710 426.367 C 130.828 425.991,130.991 425.376,131.072 425.000 C 131.153 424.624,131.499 423.262,131.840 421.973 C 132.181 420.684,132.525 419.321,132.604 418.945 C 132.682 418.569,132.848 417.954,132.971 417.578 C 133.094 417.202,133.330 416.323,133.496 415.625 C 133.662 414.927,133.972 413.740,134.185 412.988 C 134.397 412.236,134.666 411.204,134.782 410.693 C 134.898 410.183,135.020 409.766,135.052 409.766 C 135.084 409.766,135.713 409.996,136.451 410.278 C 137.189 410.560,138.057 410.861,138.379 410.947 C 138.701 411.033,139.580 411.316,140.332 411.577 C 141.084 411.838,142.095 412.164,142.578 412.301 C 143.470 412.554,144.402 412.839,145.786 413.282 C 146.208 413.416,147.174 413.682,147.935 413.871 C 148.695 414.061,150.151 414.432,151.172 414.696 C 152.192 414.961,153.511 415.283,154.102 415.412 C 154.692 415.541,155.725 415.774,156.396 415.929 C 159.401 416.623,160.136 416.781,161.328 416.994 C 162.026 417.118,163.213 417.341,163.965 417.489 C 164.717 417.638,165.728 417.830,166.211 417.917 C 167.206 418.095,167.278 418.445,166.704 420.313 C 166.555 420.796,166.334 421.587,166.213 422.070 C 165.992 422.950,165.683 424.108,165.157 426.027 C 165.002 426.590,164.775 427.446,164.651 427.930 C 164.528 428.413,164.342 429.086,164.239 429.424 C 164.015 430.160,163.567 431.818,163.088 433.691 C 162.895 434.443,162.543 435.762,162.305 436.621 C 162.066 437.480,161.715 438.799,161.523 439.551 C 161.332 440.303,160.981 441.621,160.742 442.480 C 160.504 443.340,160.152 444.658,159.961 445.410 C 159.770 446.162,159.419 447.480,159.182 448.340 C 158.384 451.234,157.765 453.610,157.669 454.150 L 157.573 454.688 185.689 454.688 L 213.805 454.688 214.045 453.857 C 214.177 453.401,214.401 452.632,214.542 452.148 C 214.684 451.665,214.942 450.742,215.115 450.098 C 216.062 446.587,216.249 445.904,216.531 444.922 C 216.939 443.498,217.177 442.626,217.384 441.797 C 217.477 441.421,217.746 440.454,217.980 439.648 C 218.862 436.617,219.365 434.842,219.529 434.180 C 219.622 433.804,219.922 432.705,220.196 431.738 C 221.438 427.355,221.918 425.635,222.075 425.000 C 222.240 424.332,223.357 420.357,223.571 419.678 C 223.636 419.469,223.873 419.336,224.177 419.336 C 224.452 419.336,225.387 419.212,226.254 419.060 C 227.122 418.908,228.535 418.681,229.395 418.556 C 230.254 418.431,231.396 418.236,231.934 418.124 C 232.471 418.011,233.306 417.855,233.789 417.777 C 234.922 417.594,239.512 416.644,240.527 416.383 C 241.990 416.006,243.455 415.649,244.434 415.430 C 245.488 415.194,247.227 414.749,248.633 414.356 C 249.116 414.221,249.907 414.001,250.391 413.868 C 251.762 413.490,253.176 413.055,253.711 412.846 C 253.979 412.741,254.771 412.497,255.469 412.303 C 256.658 411.974,257.056 411.844,258.789 411.223 C 259.165 411.088,259.912 410.842,260.449 410.677 C 260.986 410.511,261.909 410.189,262.500 409.961 C 263.091 409.732,264.058 409.381,264.648 409.181 C 266.220 408.647,272.512 406.080,274.805 405.037 C 275.503 404.719,276.426 404.300,276.855 404.106 C 279.296 403.004,281.188 402.114,281.445 401.947 C 281.606 401.843,281.940 401.670,282.187 401.563 C 283.349 401.062,286.213 399.576,289.160 397.944 C 289.912 397.528,290.923 396.978,291.406 396.722 C 291.890 396.466,292.518 396.110,292.803 395.931 C 293.089 395.752,293.911 395.254,294.631 394.824 C 295.352 394.395,296.085 393.954,296.262 393.845 C 296.438 393.736,297.021 393.387,297.559 393.069 C 298.096 392.752,298.623 392.420,298.730 392.333 C 298.838 392.245,299.629 391.729,300.488 391.185 C 303.099 389.532,304.375 388.703,304.785 388.392 C 305.000 388.230,306.011 387.509,307.031 386.790 C 309.369 385.144,312.300 382.979,313.589 381.947 C 314.134 381.510,314.871 380.933,315.226 380.664 C 315.582 380.396,316.031 380.044,316.225 379.883 C 316.419 379.722,316.913 379.315,317.322 378.978 C 318.764 377.793,320.802 376.086,320.898 375.983 C 320.952 375.925,321.348 375.580,321.777 375.216 C 326.582 371.144,336.474 361.162,340.154 356.674 C 340.359 356.424,340.706 356.022,340.925 355.781 C 341.144 355.540,341.671 354.910,342.097 354.381 C 342.523 353.851,342.926 353.374,342.994 353.320 C 343.061 353.267,343.423 352.821,343.796 352.329 C 344.484 351.426,345.048 350.726,345.417 350.320 C 345.528 350.198,345.831 349.790,346.091 349.414 C 346.351 349.038,346.619 348.687,346.687 348.633 C 346.755 348.579,347.487 347.612,348.313 346.484 C 349.139 345.356,349.973 344.258,350.166 344.043 C 350.359 343.828,350.683 343.367,350.887 343.018 C 351.090 342.668,351.325 342.383,351.409 342.383 C 351.494 342.383,351.563 342.291,351.563 342.179 C 351.563 342.067,351.654 341.870,351.765 341.740 C 352.298 341.119,353.711 339.048,353.711 338.887 C 353.711 338.786,353.782 338.675,353.868 338.639 C 354.073 338.555,356.836 334.380,356.836 334.155 C 356.836 334.061,356.904 333.984,356.987 333.984 C 357.070 333.984,357.309 333.655,357.519 333.252 C 357.728 332.849,358.090 332.256,358.322 331.934 C 358.554 331.611,358.933 330.996,359.163 330.566 C 359.393 330.137,359.733 329.549,359.918 329.260 C 360.426 328.467,362.314 325.234,362.857 324.228 C 363.121 323.739,363.673 322.725,364.084 321.973 C 366.306 317.914,369.660 310.865,371.614 306.152 C 373.410 301.820,373.320 302.040,373.727 300.977 C 373.912 300.493,374.142 299.945,374.239 299.759 C 374.335 299.572,374.414 299.260,374.414 299.065 C 374.414 298.870,374.496 298.627,374.596 298.525 C 374.783 298.334,375.291 297.032,375.582 295.996 C 375.673 295.674,376.139 294.268,376.617 292.871 C 377.096 291.475,377.642 289.805,377.832 289.160 C 378.021 288.516,378.263 287.769,378.369 287.500 C 378.476 287.231,378.724 286.396,378.921 285.645 C 379.119 284.893,379.458 283.662,379.675 282.910 C 379.892 282.158,380.206 280.972,380.373 280.273 C 380.540 279.575,380.801 278.521,380.952 277.930 C 381.434 276.042,381.783 274.544,382.019 273.340 C 382.241 272.208,382.496 270.951,383.086 268.066 C 383.240 267.314,383.465 266.040,383.586 265.234 C 383.707 264.429,383.930 262.979,384.082 262.012 C 384.558 258.983,384.942 256.037,385.151 253.809 C 385.262 252.627,385.502 250.210,385.685 248.438 C 386.171 243.719,386.171 224.211,385.685 219.531 C 385.501 217.759,385.259 215.298,385.148 214.063 C 384.944 211.791,384.601 209.168,384.087 205.957 C 383.932 204.990,383.708 203.540,383.587 202.734 C 383.365 201.243,383.011 199.351,382.527 197.070 C 382.379 196.372,382.158 195.273,382.035 194.629 C 381.913 193.984,381.686 193.010,381.531 192.463 C 381.376 191.917,381.250 191.281,381.250 191.051 C 381.250 190.821,381.129 190.302,380.982 189.897 C 380.835 189.492,380.611 188.677,380.485 188.086 C 380.275 187.096,380.081 186.365,379.399 183.984 C 379.261 183.501,379.040 182.710,378.909 182.227 C 378.778 181.743,378.561 180.996,378.428 180.566 C 378.294 180.137,377.941 178.994,377.642 178.027 C 377.344 177.061,376.886 175.654,376.625 174.902 C 376.364 174.150,376.017 173.096,375.855 172.559 C 375.692 172.021,375.433 171.333,375.279 171.029 C 375.126 170.725,375.000 170.324,375.000 170.139 C 375.000 169.953,374.871 169.631,374.713 169.422 C 374.556 169.214,374.424 168.888,374.420 168.699 C 374.417 168.509,374.335 168.201,374.239 168.015 C 374.142 167.828,373.912 167.280,373.727 166.797 C 373.320 165.734,373.410 165.954,371.614 161.621 C 369.274 155.977,365.839 148.884,362.768 143.359 C 361.167 140.478,359.683 137.982,359.537 137.923 C 359.448 137.887,359.375 137.779,359.375 137.682 C 359.375 137.508,358.228 135.541,358.016 135.352 C 357.956 135.298,357.733 134.924,357.522 134.521 C 357.311 134.119,357.070 133.789,356.987 133.789 C 356.904 133.789,356.836 133.668,356.836 133.520 C 356.836 133.372,356.712 133.148,356.561 133.023 C 356.410 132.897,356.143 132.513,355.969 132.169 C 355.616 131.471,354.480 129.775,354.014 129.248 C 353.847 129.060,353.711 128.861,353.711 128.806 C 353.711 128.705,352.150 126.482,351.765 126.034 C 351.654 125.904,351.563 125.706,351.563 125.594 C 351.563 125.482,351.495 125.391,351.413 125.391 C 351.331 125.391,351.047 125.039,350.781 124.609 C 350.516 124.180,350.231 123.828,350.149 123.828 C 350.067 123.828,350.000 123.696,350.000 123.535 C 350.000 123.374,349.931 123.242,349.847 123.242 C 349.763 123.242,349.540 122.982,349.352 122.663 C 349.164 122.345,348.900 121.971,348.766 121.833 C 348.631 121.695,348.224 121.165,347.860 120.654 C 347.497 120.144,347.126 119.727,347.037 119.727 C 346.948 119.727,346.875 119.602,346.875 119.450 C 346.875 119.298,346.806 119.144,346.722 119.108 C 346.638 119.072,346.163 118.516,345.667 117.871 C 345.171 117.227,344.603 116.523,344.404 116.307 C 344.205 116.091,343.692 115.475,343.263 114.939 C 342.835 114.403,342.307 113.780,342.092 113.554 C 341.876 113.328,341.304 112.670,340.820 112.092 C 340.337 111.515,339.722 110.803,339.453 110.510 C 339.185 110.217,338.262 109.205,337.403 108.261 C 333.855 104.357,326.526 97.203,322.940 94.141 C 321.871 93.228,320.668 92.183,320.268 91.819 C 319.867 91.454,319.340 91.024,319.096 90.862 C 318.852 90.700,318.564 90.471,318.457 90.352 C 318.350 90.234,317.603 89.613,316.797 88.973 C 315.991 88.332,315.303 87.739,315.267 87.654 C 315.231 87.569,315.130 87.500,315.043 87.500 C 314.211 87.500,313.441 85.952,313.873 85.146 C 313.983 84.940,314.163 84.352,314.273 83.841 C 314.519 82.691,314.733 81.856,315.136 80.469 C 315.307 79.878,315.716 78.384,316.045 77.148 C 316.374 75.913,316.716 74.639,316.805 74.316 C 316.960 73.757,317.424 72.070,318.360 68.652 C 319.152 65.760,319.742 63.579,319.916 62.891 C 320.011 62.515,320.307 61.416,320.573 60.449 C 320.840 59.482,321.292 57.813,321.579 56.738 C 322.436 53.528,322.862 51.950,323.372 50.098 C 323.639 49.131,323.923 48.032,324.005 47.656 C 324.086 47.280,324.250 46.665,324.368 46.289 C 324.486 45.913,324.684 45.210,324.808 44.727 C 325.107 43.555,325.575 41.855,325.824 41.030 C 325.935 40.662,326.181 39.740,326.371 38.980 C 326.560 38.220,326.909 36.895,327.146 36.035 C 327.383 35.176,327.783 33.682,328.036 32.715 C 328.289 31.748,328.636 30.474,328.808 29.883 C 329.211 28.502,329.425 27.667,329.674 26.501 C 329.785 25.983,329.933 25.467,330.003 25.355 C 330.073 25.242,330.197 24.874,330.279 24.538 C 330.505 23.609,331.586 19.562,331.903 18.457 C 332.415 16.673,332.762 15.339,332.881 14.697 L 332.998 14.061 304.553 14.111 L 276.107 14.160 275.967 14.648 C 275.890 14.917,275.678 15.708,275.496 16.406 C 275.313 17.104,275.042 18.115,274.893 18.652 C 274.539 19.927,273.850 22.570,273.646 23.438 C 273.285 24.966,272.628 27.483,272.421 28.125 C 272.299 28.501,272.136 29.116,272.058 29.492 C 271.905 30.230,271.199 32.938,270.504 35.449 C 269.959 37.418,269.764 38.179,269.553 39.160 C 269.460 39.590,269.188 40.645,268.948 41.504 C 268.708 42.363,268.355 43.682,268.164 44.434 C 267.973 45.186,267.620 46.504,267.380 47.363 C 267.140 48.223,266.870 49.277,266.781 49.707 C 266.692 50.137,266.485 50.972,266.322 51.563 C 266.159 52.153,265.974 52.856,265.912 53.125 C 265.850 53.394,265.677 54.053,265.528 54.590 C 265.380 55.127,265.172 55.918,265.067 56.348 C 264.534 58.527,264.397 58.825,263.977 58.717 C 263.650 58.633,258.202 56.852,255.762 56.031 C 254.562 55.627,250.121 54.392,248.828 54.102 C 248.452 54.018,247.354 53.755,246.387 53.519 C 242.731 52.624,240.723 52.174,238.477 51.746 C 237.993 51.654,236.938 51.449,236.133 51.291 C 235.327 51.132,234.120 50.897,233.449 50.768 L 232.230 50.533 232.353 49.730 C 232.420 49.287,232.548 48.783,232.637 48.609 C 232.726 48.435,232.881 47.952,232.981 47.535 C 233.238 46.460,234.299 42.485,234.669 41.211 C 235.022 39.995,235.277 39.008,235.514 37.939 C 235.603 37.537,235.771 36.899,235.887 36.523 C 236.235 35.391,236.680 33.750,236.921 32.715 C 237.045 32.178,237.262 31.343,237.403 30.859 C 237.989 28.847,238.283 27.763,238.571 26.563 C 238.739 25.864,239.055 24.678,239.274 23.926 C 239.493 23.174,239.753 22.207,239.853 21.777 C 240.041 20.963,240.222 20.294,240.696 18.652 C 241.334 16.443,241.797 14.638,241.797 14.359 C 241.797 14.037,185.090 13.887,184.895 14.209 M203.809 189.734 C 205.420 189.886,207.222 190.113,207.813 190.238 C 211.090 190.931,213.875 191.707,215.527 192.386 C 215.850 192.518,216.289 192.693,216.504 192.775 C 218.339 193.470,223.451 196.172,223.600 196.526 C 223.636 196.610,223.756 196.680,223.866 196.680 C 224.052 196.680,227.152 198.872,228.027 199.623 C 229.270 200.689,231.317 202.636,232.238 203.628 C 234.001 205.527,234.262 205.844,235.832 207.983 C 237.004 209.579,238.817 212.519,239.281 213.574 C 239.375 213.789,239.537 214.097,239.641 214.258 C 239.847 214.579,240.561 216.197,241.106 217.578 C 241.297 218.062,241.522 218.633,241.607 218.848 C 241.973 219.774,242.947 223.241,243.143 224.316 C 243.261 224.961,243.503 226.191,243.681 227.051 C 244.196 229.538,244.147 237.827,243.600 240.820 C 242.888 244.712,241.913 248.178,240.826 250.683 C 239.503 253.731,239.214 254.331,238.916 254.650 C 238.782 254.793,238.672 254.995,238.672 255.098 C 238.672 255.401,236.418 258.889,235.108 260.614 C 233.595 262.606,231.037 265.315,228.809 267.285 C 227.805 268.172,224.640 270.508,224.441 270.508 C 224.336 270.508,224.222 270.583,224.186 270.675 C 224.106 270.880,221.551 272.333,219.425 273.382 C 217.869 274.150,214.300 275.530,212.793 275.946 C 210.490 276.582,209.734 276.768,208.398 277.028 C 203.331 278.017,196.389 277.987,191.406 276.954 C 190.425 276.751,189.603 276.545,187.402 275.950 C 185.424 275.416,180.232 273.204,178.620 272.209 C 178.409 272.079,177.662 271.626,176.960 271.201 C 175.803 270.502,172.895 268.462,172.656 268.181 C 172.603 268.118,172.119 267.718,171.582 267.292 C 170.312 266.285,167.525 263.500,166.298 262.013 C 165.767 261.369,165.225 260.729,165.095 260.590 C 164.964 260.451,164.704 260.077,164.516 259.759 C 164.327 259.440,164.105 259.180,164.020 259.180 C 163.936 259.180,163.867 259.055,163.867 258.903 C 163.867 258.751,163.796 258.597,163.709 258.561 C 163.430 258.446,160.885 254.168,160.186 252.637 C 158.689 249.361,157.450 245.662,156.850 242.676 C 156.087 238.884,156.013 238.090,156.015 233.789 C 156.019 226.028,157.397 220.263,160.849 213.574 C 162.357 210.653,165.639 205.740,166.242 205.501 C 166.332 205.465,166.406 205.354,166.406 205.254 C 166.406 204.534,175.243 196.680,176.053 196.680 C 176.097 196.680,176.596 196.368,177.163 195.986 C 178.041 195.396,182.265 193.255,183.496 192.777 C 184.062 192.557,185.343 192.085,186.133 191.806 C 191.377 189.951,197.945 189.181,203.809 189.734 M334.473 399.912 C 332.591 400.214,331.157 400.585,329.322 401.247 C 327.877 401.768,327.715 401.841,326.465 402.523 C 326.035 402.758,325.442 403.042,325.146 403.154 C 324.851 403.267,324.609 403.438,324.609 403.535 C 324.609 403.632,324.516 403.711,324.401 403.711 C 324.018 403.711,320.621 406.361,319.276 407.710 C 316.546 410.447,314.489 413.647,312.934 417.578 C 312.720 418.118,312.292 419.595,311.830 421.387 C 310.894 425.010,311.203 431.570,312.477 435.156 C 312.572 435.425,312.768 436.040,312.912 436.523 C 313.354 438.003,315.542 442.104,316.452 443.157 C 316.588 443.314,316.953 443.797,317.264 444.231 C 317.966 445.211,321.157 448.337,321.906 448.780 C 322.211 448.960,322.461 449.177,322.461 449.261 C 322.461 449.345,322.585 449.414,322.738 449.414 C 322.890 449.414,323.044 449.480,323.079 449.561 C 323.493 450.490,329.268 453.126,332.520 453.870 C 336.894 454.869,339.847 454.871,344.922 453.875 C 349.777 452.922,355.366 449.608,359.198 445.410 C 360.490 443.995,360.941 443.435,361.046 443.115 C 361.108 442.927,361.241 442.773,361.341 442.773 C 361.441 442.773,361.523 442.642,361.523 442.480 C 361.523 442.319,361.591 442.188,361.674 442.188 C 361.757 442.188,361.998 441.858,362.208 441.455 C 362.419 441.052,362.818 440.327,363.094 439.844 C 364.938 436.619,366.211 431.589,366.211 427.524 C 366.211 424.952,365.656 421.564,364.839 419.141 C 360.320 405.743,347.753 397.786,334.473 399.912 M341.992 406.673 C 347.315 407.459,353.229 411.111,355.621 415.088 C 355.798 415.383,356.013 415.625,356.097 415.625 C 356.181 415.625,356.250 415.709,356.250 415.812 C 356.250 415.914,356.495 416.420,356.793 416.935 C 357.331 417.860,358.153 419.769,358.586 421.094 C 359.677 424.436,359.613 430.110,358.446 433.398 C 358.236 433.989,357.913 434.899,357.728 435.421 C 356.845 437.915,353.967 441.610,351.465 443.462 C 351.035 443.780,350.640 444.085,350.586 444.140 C 350.532 444.194,350.181 444.407,349.805 444.614 C 349.429 444.821,349.077 445.041,349.023 445.102 C 348.830 445.325,346.565 446.323,345.508 446.652 C 343.504 447.274,342.693 447.453,340.848 447.676 C 331.812 448.768,321.835 442.565,319.297 434.277 C 317.032 426.881,317.993 420.357,322.187 414.648 C 325.764 409.780,330.370 407.304,337.598 406.365 C 338.336 406.269,340.098 406.393,341.992 406.673 M328.270 412.615 C 328.190 412.695,328.125 418.503,328.125 425.521 L 328.125 438.281 331.543 438.281 L 334.961 438.281 334.961 434.766 L 334.961 431.250 337.483 431.250 L 340.004 431.250 340.476 432.178 C 341.068 433.341,342.307 435.608,342.788 436.406 C 342.989 436.739,343.282 437.297,343.441 437.646 L 343.730 438.281 347.451 438.281 C 349.903 438.281,351.172 438.212,351.172 438.078 C 351.172 437.905,349.732 435.841,349.406 435.547 C 349.346 435.493,349.086 435.142,348.828 434.766 C 348.570 434.390,348.302 434.038,348.232 433.984 C 347.419 433.355,345.581 430.355,345.930 430.225 C 346.779 429.908,348.091 428.783,348.727 427.825 C 350.740 424.792,350.376 418.312,348.057 415.885 C 346.569 414.328,345.100 413.495,342.871 412.943 C 341.596 412.627,328.551 412.334,328.270 412.615 M341.076 418.259 C 344.175 419.553,344.712 423.780,342.020 425.676 C 341.207 426.249,341.164 426.256,338.079 426.334 L 334.961 426.414 334.961 422.295 L 334.961 418.176 337.354 418.115 C 338.669 418.081,339.889 418.034,340.064 418.011 C 340.239 417.988,340.694 418.099,341.076 418.259 " stroke="none" fill="#0484fc" fill-rule="evenodd"/>
		<path id="path1" d="" stroke="none" fill="#0884fc" fill-rule="evenodd"/>
		<path id="path2" d="" stroke="none" fill="#0884fc" fill-rule="evenodd"/>
		<path id="path3" d="" stroke="none" fill="#0884fc" fill-rule="evenodd"/>
		<path id="path4" d="" stroke="none" fill="#0884fc" fill-rule="evenodd"/>
	</g>
</svg>
