<?xml version="1.0" ?>
<svg xmlns="http://www.w3.org/2000/svg" xmlns:xlink="http://www.w3.org/1999/xlink" xmlns:serif="http://www.serif.com/" viewBox="0 0 1200 394" version="1.1" xml:space="preserve" style="fill-rule:evenodd;clip-rule:evenodd;stroke-linejoin:round;stroke-miterlimit:2;">
	<g id="g10" transform="matrix(1.33333,0,0,-1.33333,0,393.627)">
		<g id="g12">
        </g>
		<g transform="matrix(0.582279,1.46414e-32,-2.77229e-32,0.582279,168.338,86.1609)">
			<g transform="matrix(3.125,0,0,-3.125,-956.185,1168.73)">
				<path d="M598.704,332.882C597.889,330.934 596.823,329.239 595.5,327.8C594.18,326.359 592.671,325.124 590.976,324.089C589.281,323.056 587.553,322.132 585.793,321.32C584.03,320.507 582.303,319.735 580.608,319.007C578.913,318.278 577.398,317.499 576.057,316.669C574.72,315.839 573.654,314.889 572.859,313.822C572.062,312.755 571.663,311.493 571.663,310.036C571.663,309.054 571.84,308.122 572.198,307.241C572.552,306.36 573.092,305.607 573.822,304.979C574.551,304.352 575.458,303.86 576.542,303.505C577.625,303.15 578.898,302.971 580.354,302.971C582.217,302.971 583.927,303.199 585.486,303.658C587.045,304.114 588.418,304.622 589.606,305.181C590.79,305.741 591.791,306.258 592.603,306.733C593.418,307.208 594.008,307.443 594.38,307.443C594.755,307.443 595.051,307.342 595.272,307.138C595.491,306.935 595.662,306.614 595.78,306.174C595.898,305.734 595.984,305.174 596.034,304.495C596.084,303.818 596.111,302.988 596.111,302.005C596.111,301.125 596.093,300.387 596.061,299.794C596.025,299.202 595.966,298.711 595.881,298.32C595.798,297.932 595.695,297.617 595.576,297.38C595.455,297.144 595.228,296.856 594.888,296.517C594.552,296.178 593.858,295.753 592.807,295.245C591.755,294.737 590.553,294.279 589.198,293.874C587.843,293.467 586.384,293.145 584.828,292.908C583.268,292.67 581.709,292.552 580.15,292.552C577.135,292.552 574.28,292.941 571.586,293.721C568.892,294.501 566.555,295.677 564.573,297.253C562.59,298.829 561.015,300.811 559.845,303.199C558.677,305.588 558.093,308.358 558.093,311.51C558.093,314.254 558.499,316.61 559.312,318.575C560.126,320.54 561.185,322.242 562.488,323.683C563.793,325.124 565.276,326.359 566.935,327.393C568.595,328.427 570.308,329.35 572.071,330.163C573.831,330.976 575.54,331.748 577.203,332.475C578.862,333.205 580.345,333.984 581.65,334.814C582.955,335.644 584.013,336.592 584.828,337.659C585.64,338.726 586.047,340.006 586.047,341.496C586.047,342.785 585.808,343.953 585.336,345.004C584.86,346.055 584.175,346.935 583.277,347.647C582.38,348.359 581.284,348.909 580,349.3C578.712,349.688 577.253,349.883 575.629,349.883C573.152,349.883 570.978,349.603 569.097,349.044C567.216,348.486 565.598,347.868 564.242,347.189C562.887,346.511 561.777,345.893 560.914,345.334C560.049,344.776 559.379,344.496 558.906,344.496C558.567,344.496 558.271,344.59 558.014,344.776C557.761,344.962 557.56,345.276 557.406,345.716C557.253,346.156 557.143,346.732 557.076,347.444C557.007,348.155 556.974,349.036 556.974,350.087C556.974,351.646 557.067,352.84 557.253,353.671C557.439,354.501 557.755,355.136 558.195,355.575C558.635,356.017 559.355,356.525 560.353,357.101C561.354,357.677 562.598,358.227 564.09,358.753C565.58,359.278 567.3,359.726 569.249,360.099C571.197,360.472 573.305,360.659 575.576,360.659C578.93,360.659 582.081,360.218 585.031,359.338C587.978,358.456 590.553,357.144 592.756,355.398C594.956,353.654 596.701,351.477 597.992,348.867C599.277,346.257 599.92,343.225 599.92,339.768C599.92,337.125 599.516,334.831 598.704,332.882Z" style="fill:rgb(66,96,120);fill-rule:nonzero;"/>
			</g>
			<g transform="matrix(3.125,0,0,-3.125,-956.185,1168.73)">
				<path d="M552.075,351.79C551.988,351.129 551.861,350.595 551.694,350.189C551.523,349.782 551.311,349.486 551.057,349.3C550.804,349.113 550.523,349.02 550.219,349.02L526.533,349.02L526.533,330.468L546.407,330.468C546.712,330.468 546.991,330.384 547.245,330.213C547.499,330.045 547.712,329.766 547.88,329.375C548.05,328.985 548.177,328.469 548.261,327.824C548.347,327.182 548.391,326.368 548.391,325.386C548.391,324.438 548.347,323.632 548.261,322.971C548.177,322.31 548.05,321.785 547.88,321.395C547.712,321.007 547.499,320.719 547.245,320.531C546.991,320.346 546.712,320.253 546.407,320.253L526.533,320.253L526.533,304.191L550.015,304.191C550.321,304.191 550.591,304.098 550.829,303.912C551.066,303.726 551.269,303.428 551.44,303.021C551.607,302.616 551.734,302.082 551.821,301.422C551.904,300.761 551.948,299.955 551.948,299.007C551.948,297.989 551.904,297.152 551.821,296.491C551.734,295.83 551.607,295.289 551.44,294.864C551.269,294.441 551.066,294.145 550.829,293.975C550.591,293.806 550.321,293.721 550.015,293.721L517.182,293.721C516.065,293.721 515.123,294.051 514.361,294.712C513.599,295.372 513.218,296.449 513.218,297.939L513.218,355.27C513.218,356.762 513.599,357.837 514.361,358.499C515.123,359.159 516.065,359.49 517.182,359.49L550.219,359.49C550.523,359.49 550.804,359.397 551.057,359.211C551.311,359.025 551.523,358.726 551.694,358.321C551.861,357.914 551.988,357.381 552.075,356.72C552.158,356.06 552.202,355.237 552.202,354.254C552.202,353.271 552.158,352.451 552.075,351.79Z" style="fill:rgb(66,96,120);fill-rule:nonzero;"/>
			</g>
			<g transform="matrix(3.125,0,0,-3.125,-956.185,1168.73)">
				<path d="M509.198,299.545C509.198,298.529 509.157,297.664 509.071,296.953C508.989,296.242 508.862,295.675 508.69,295.251C508.522,294.828 508.31,294.522 508.055,294.336C507.802,294.15 507.523,294.057 507.217,294.057L490.988,294.057C490.683,294.057 490.404,294.158 490.15,294.36C489.896,294.564 489.683,294.878 489.515,295.301C489.344,295.724 489.217,296.283 489.134,296.979C489.048,297.673 489.007,298.51 489.007,299.495C489.007,300.511 489.048,301.376 489.134,302.087C489.217,302.798 489.344,303.365 489.515,303.789C489.683,304.212 489.896,304.518 490.15,304.704C490.404,304.89 490.683,304.983 490.988,304.983L507.217,304.983C507.523,304.983 507.802,304.882 508.055,304.68C508.31,304.476 508.522,304.162 508.69,303.739C508.862,303.316 508.989,302.757 509.071,302.061C509.157,301.367 509.198,300.53 509.198,299.545Z" style="fill:rgb(0,187,227);fill-rule:nonzero;"/>
			</g>
			<g transform="matrix(3.125,0,0,-3.125,-956.185,1168.73)">
				<path d="M449.448,298.701C450.059,297.481 450.465,296.517 450.668,295.805C450.869,295.093 450.776,294.559 450.388,294.204C449.998,293.848 449.269,293.628 448.203,293.543C447.137,293.458 445.637,293.416 443.704,293.416C442.248,293.416 441.077,293.451 440.197,293.517C439.317,293.585 438.623,293.721 438.114,293.924C437.605,294.128 437.224,294.39 436.97,294.712C436.716,295.033 436.503,295.466 436.335,296.007L429.118,312.068C428.472,313.627 427.812,315.271 427.135,316.998C426.457,318.727 425.796,320.507 425.152,322.336L425.051,322.336C424.34,320.439 423.637,318.626 422.943,316.897C422.246,315.169 421.545,313.526 420.833,311.967L413.514,295.805C413.276,295.33 413.031,294.94 412.777,294.636C412.523,294.331 412.123,294.085 411.583,293.898C411.039,293.712 410.301,293.585 409.371,293.517C408.439,293.451 407.195,293.416 405.636,293.416C403.772,293.416 402.315,293.458 401.265,293.543C400.214,293.628 399.493,293.848 399.105,294.204C398.715,294.559 398.613,295.085 398.799,295.779C398.985,296.474 399.402,297.448 400.046,298.701L418.038,334.534L418.038,357.659C418.038,357.999 418.139,358.303 418.342,358.576C418.546,358.846 418.909,359.066 419.435,359.236C419.96,359.405 420.646,359.54 421.493,359.642C422.341,359.744 423.424,359.794 424.746,359.794C426.035,359.794 427.109,359.744 427.975,359.642C428.839,359.54 429.524,359.405 430.033,359.236C430.541,359.066 430.904,358.846 431.126,358.576C431.346,358.303 431.456,357.999 431.456,357.659L431.456,334.534L449.448,298.701Z" style="fill:rgb(66,96,120);fill-rule:nonzero;"/>
			</g>
			<g transform="matrix(3.125,0,0,-3.125,-956.185,1168.73)">
				<path d="M400.214,339.768C400.214,337.532 399.875,335.516 399.198,333.72C398.519,331.924 397.598,330.358 396.428,329.018C395.259,327.68 393.887,326.589 392.312,325.741C390.736,324.894 389.015,324.301 387.153,323.962C388.609,323.42 389.904,322.709 391.041,321.828C392.175,320.947 393.133,319.93 393.913,318.778C394.691,317.626 395.285,316.347 395.691,314.941C396.097,313.535 396.301,312.035 396.301,310.443C396.301,307.596 395.793,305.122 394.776,303.021C393.76,300.921 392.293,299.184 390.379,297.812C388.465,296.44 386.111,295.416 383.315,294.737C380.52,294.06 377.106,293.721 373.074,293.721L356.556,293.721C355.437,293.721 354.496,294.051 353.735,294.711C352.973,295.372 352.59,296.448 352.59,297.939L352.59,355.27C352.59,356.762 352.973,357.837 353.735,358.499C354.496,359.159 355.437,359.489 356.556,359.489L374.04,359.489C376.683,359.489 379.079,359.329 381.232,359.007C383.382,358.685 385.406,358.185 387.305,357.508C389.203,356.83 390.939,355.965 392.514,354.915C394.091,353.866 395.445,352.61 396.581,351.155C397.715,349.697 398.606,348.02 399.25,346.121C399.893,344.226 400.214,342.107 400.214,339.768ZM382.934,312.068C382.934,313.255 382.747,314.381 382.375,315.449C382.001,316.516 381.434,317.448 380.672,318.245C379.909,319.041 378.952,319.667 377.8,320.126C376.647,320.582 375.107,320.81 373.175,320.81L365.705,320.81L365.705,303.733L372.465,303.733C374.529,303.733 376.183,303.92 377.419,304.292C378.656,304.666 379.681,305.2 380.495,305.894C381.307,306.589 381.917,307.462 382.324,308.511C382.731,309.561 382.934,310.747 382.934,312.068ZM386.339,340.227C386.339,341.684 386.076,342.979 385.551,344.115C385.025,345.25 384.298,346.198 383.365,346.961C382.434,347.723 381.333,348.3 380.062,348.689C378.791,349.079 377.224,349.274 375.362,349.274L365.705,349.274L365.705,330.57L373.633,330.57C376.072,330.57 378.054,330.79 379.58,331.23C381.103,331.67 382.357,332.298 383.341,333.111C384.322,333.923 385.069,334.933 385.577,336.135C386.085,337.338 386.339,338.701 386.339,340.227Z" style="fill:rgb(66,96,120);fill-rule:nonzero;"/>
			</g>
			<g transform="matrix(3.125,0,0,-3.125,-956.185,1168.73)">
				<path d="M485.268,304.647L485.256,304.642L485.256,297.939C485.256,296.449 484.875,295.372 484.114,294.711C483.352,294.051 482.41,293.721 481.292,293.721L455.38,293.721C455.042,293.721 454.754,293.815 454.515,294C454.279,294.186 454.075,294.492 453.907,294.914C453.739,295.338 453.612,295.906 453.526,296.618C453.44,297.328 453.399,298.193 453.399,299.209C453.399,300.194 453.44,301.031 453.526,301.725C453.612,302.421 453.739,302.98 453.907,303.404C454.075,303.827 454.279,304.139 454.515,304.344C454.754,304.546 455.042,304.647 455.38,304.647L471.849,304.647L471.849,357.659C471.849,357.998 471.958,358.303 472.179,358.576C472.399,358.845 472.765,359.066 473.272,359.235C473.78,359.405 474.466,359.539 475.329,359.641C476.195,359.744 477.269,359.793 478.558,359.793C479.846,359.793 480.921,359.744 481.786,359.641C482.648,359.539 483.335,359.405 483.843,359.235C484.352,359.066 484.715,358.845 484.937,358.576C485.157,358.303 485.268,357.998 485.268,357.659L485.268,304.647Z" style="fill:rgb(66,96,120);fill-rule:nonzero;"/>
			</g>
			<g transform="matrix(3.125,0,0,-3.125,-956.185,1168.73)">
				<path d="M333.574,320.767C330.599,294.393 308.218,273.897 280.943,273.897L280.943,273.898C275.133,273.91 269.544,274.858 264.319,276.6C266.395,276.724 268.295,277.289 269.955,278.307C275.738,281.851 277.131,288.095 276.385,295.831C275.464,305.391 261.933,322.311 261.933,322.311C261.933,322.311 269.426,314.746 280.944,309.161C282.147,308.577 283.394,308.015 284.682,307.485C298.288,301.889 314.607,304.5 324.494,311.031C329.041,314.032 331.911,317.25 333.574,320.767Z" style="fill:rgb(0,187,227);fill-rule:nonzero;"/>
			</g>
			<g transform="matrix(3.125,0,0,-3.125,-956.185,1168.73)">
				<path d="M254.196,284.364C250.367,284.541 246.751,286.656 243.605,289.446C234.078,299.008 228.189,312.193 228.189,326.757L228.189,326.861L228.19,326.861C228.207,336.019 230.554,344.631 234.668,352.135C240.204,345.524 247.848,336.206 251.585,330.794C252.454,329.536 253.321,328.216 254.174,326.861L254.175,326.861C259.452,318.486 264.192,308.811 265.477,304.313C266.97,299.091 266.223,283.803 254.196,284.364Z" style="fill:rgb(66,96,120);fill-rule:nonzero;"/>
			</g>
			<g transform="matrix(3.125,0,0,-3.125,-956.185,1168.73)">
				<path d="M280.957,379.618C301.8,379.618 319.919,367.553 328.525,350.028C329.15,347.876 329.674,345.247 329.805,342.259C330.043,336.849 328.383,331.471 324.558,326.86L324.559,326.86C322.388,324.245 319.523,321.876 315.913,319.886C307.883,315.46 296.049,314.532 280.943,320.321L280.943,320.322C277.283,321.724 273.432,323.52 269.395,325.757C268.75,326.114 268.106,326.482 267.462,326.86L267.461,326.86C254.77,334.307 242.388,345.543 235.023,352.772C244.086,368.772 261.25,379.58 280.943,379.618" style="fill:rgb(66,96,120);fill-rule:nonzero;"/>
			</g>
		</g>
	</g>
</svg>
