<svg xmlns="http://www.w3.org/2000/svg" width="163.08" height="47.418" viewBox="0 0 163.08 47.418"><defs><style>.a{fill:#fff;}</style></defs><g transform="translate(-101.185 -336.802)"><path class="a" d="M124.9,336.8a23.709,23.709,0,1,0,23.71,23.709A23.755,23.755,0,0,0,124.9,336.8Zm-7.628,32.327v-2.585h2.191l-1.006-2.766h-5.568l-.9,2.73,2.514.036-.036,2.622-8.081-.072-.017-2.424,1.346-.018a1.611,1.611,0,0,0,1.006-1.005l7.938-17.744,1.508.072,8.261,18.6,1.672.036.017,2.594Zm24.819.072-11.742-.042.018-2.454,3.224-.036-.012-13.6-2.693.9-1.15-2.191,7.507-3.736h2.083l-.054,18.687,2.784.026Z"/><path class="a" d="M134.145,392.395l2.812-.036-1.468-3.17Z" transform="translate(-19.87 -31.582)"/><path class="a" d="M434.967,388.582a5.293,5.293,0,0,0-1.867-1.425,5.769,5.769,0,0,0-2.38-.473,5.907,5.907,0,0,0-4.4,1.827,6.593,6.593,0,0,0,0,9.014,6.307,6.307,0,0,0,6.845,1.332,4.658,4.658,0,0,0,1.81-1.42v1.608h4.11v-1.81h-1.836v-8.423h1.836V387h-4.11Zm-1.008,7.625a4.057,4.057,0,0,1-5.873,0,4.912,4.912,0,0,1-.021-6.359,4.117,4.117,0,0,1,5.894,0,4.885,4.885,0,0,1,0,6.354Z" transform="translate(-194.932 -30.072)"/><path class="a" d="M494.892,393.218a6.5,6.5,0,0,0-3.129-1.166l-2.48-.425a3.451,3.451,0,0,1-1.494-.543,1.206,1.206,0,0,1-.469-1,1.512,1.512,0,0,1,.64-1.271,2.845,2.845,0,0,1,1.722-.473,3.839,3.839,0,0,1,2.139.565,4.539,4.539,0,0,1,1.494,1.81H495.1V387h-1.784v1.03a2.767,2.767,0,0,0-1.372-.977,6.22,6.22,0,0,0-2.235-.373,5.062,5.062,0,0,0-3.256.951,3.435,3.435,0,0,0-.263,4.943,5.455,5.455,0,0,0,2.887,1.205l2.84.5a3.04,3.04,0,0,1,1.407.526,1.19,1.19,0,0,1,.412.973,1.5,1.5,0,0,1-.732,1.288,3.341,3.341,0,0,1-1.9.5,4.864,4.864,0,0,1-2.529-.662,3.778,3.778,0,0,1-1.6-1.775h-1.757v3.914h1.757v-1.206a6.057,6.057,0,0,0,4.132,1.525,5.136,5.136,0,0,0,3.392-1.064,3.463,3.463,0,0,0,1.284-2.8A2.887,2.887,0,0,0,494.892,393.218Z" transform="translate(-231.512 -30.072)"/><path class="a" d="M372.432,377.51l-1.53-.4a7,7,0,0,1-2.783-1.17,2.273,2.273,0,0,1-.745-1.8,2.517,2.517,0,0,1,.916-2.011,3.548,3.548,0,0,1,2.371-.776,4.863,4.863,0,0,1,3.059.951,4.926,4.926,0,0,1,1.726,2.722h1.836v-5.443h-1.836v1.656a4.511,4.511,0,0,0-1.893-1.508,6.8,6.8,0,0,0-2.73-.508,6,6,0,0,0-4.146,1.4,4.72,4.72,0,0,0-1.564,3.7,4.338,4.338,0,0,0,1.284,3.243,9.425,9.425,0,0,0,4.111,2.02l1.976.526a6.822,6.822,0,0,1,2.787,1.293,2.574,2.574,0,0,1,.833,1.994,3.076,3.076,0,0,1-1.034,2.362,3.632,3.632,0,0,1-2.564.951,5.187,5.187,0,0,1-3.484-1.24,6.389,6.389,0,0,1-2.012-3.444h-2.129v6.495h2.129v-2.056a6.09,6.09,0,0,0,2.345,1.766,7.24,7.24,0,0,0,3.01.662,6.47,6.47,0,0,0,4.5-1.6,5.207,5.207,0,0,0,1.77-4.036,4.662,4.662,0,0,0-1.464-3.576A10.731,10.731,0,0,0,372.432,377.51Z" transform="translate(-158.97 -19.548)"/><path class="a" d="M408.056,376.179h-2.13v4.492h-2.182v1.81h2.182V390.5a2.349,2.349,0,0,0,.565,1.806,3.1,3.1,0,0,0,2.042.508c.4,0,.749-.009,1.052-.031s.574-.056.833-.1v-1.915l-.127.013c-.464.075-.74.114-.837.114-.6,0-.982-.1-1.148-.3a3.513,3.513,0,0,1-.25-1.753v-6.363h2.362v-1.81h-2.362Z" transform="translate(-182.399 -23.739)"/><path class="a" d="M467.863,376.179h-2.13v4.492h-2.182v1.81h2.182V390.5a2.349,2.349,0,0,0,.566,1.806,3.1,3.1,0,0,0,2.042.508c.4,0,.75-.009,1.052-.031s.574-.056.832-.1v-1.915l-.127.013c-.465.075-.74.114-.837.114-.6,0-.982-.1-1.148-.3a3.512,3.512,0,0,1-.25-1.753v-6.363h2.362v-1.81h-2.362Z" transform="translate(-218.454 -23.739)"/><path class="a" d="M329.73,376.6a6.143,6.143,0,0,0-2.349.428,5.765,5.765,0,0,0-1.929,1.347V370h-4.124v1.855h1.855V387.19h-1.855v1.817h4.124v-1.461a5.577,5.577,0,0,0,1.848,1.344,5.769,5.769,0,0,0,2.261.413,6.186,6.186,0,0,0,6.366-6.34,6.283,6.283,0,0,0-1.779-4.53A5.909,5.909,0,0,0,329.73,376.6Zm2.644,9.557a3.922,3.922,0,0,1-2.965,1.263,3.825,3.825,0,0,1-2.931-1.274,4.913,4.913,0,0,1-.011-6.37,3.841,3.841,0,0,1,2.942-1.247,3.889,3.889,0,0,1,2.981,1.247,4.451,4.451,0,0,1,1.167,3.187A4.509,4.509,0,0,1,332.374,386.157Z" transform="translate(-132.715 -20.014)"/><path class="a" d="M291.59,386.618a6.388,6.388,0,0,0-4.664,1.707,6.042,6.042,0,0,0-1.752,4.529,6.409,6.409,0,0,0,1.759,4.714,6.244,6.244,0,0,0,4.633,1.779,6.68,6.68,0,0,0,3.68-1.044,6.561,6.561,0,0,0,2.468-2.873H295.6a4.248,4.248,0,0,1-1.591,1.489,4.759,4.759,0,0,1-5.142-.528,3.9,3.9,0,0,1-1.336-2.747H298.01v-.283a6.8,6.8,0,0,0-1.763-4.9A6.167,6.167,0,0,0,291.59,386.618Zm-4.06,5.261a3.982,3.982,0,0,1,1.293-2.537,4.847,4.847,0,0,1,5.537,0,3.98,3.98,0,0,1,1.293,2.537Z" transform="translate(-110.918 -30.032)"/><path class="a" d="M249.906,370h-5.853v1.909h2.024l-3.738,12.614-3.826-12.614H240.7V370h-6.389v1.909h2.169l-3.807,12.614-3.75-12.614h2.039V370h-6.125v1.909h1.637l5.169,17.419h1.664l4.071-13.643,4.082,13.643H243.1l5.169-17.419h1.637Z" transform="translate(-74.545 -20.014)"/></g></svg>