<?xml version="1.0" encoding="UTF-8"?> <svg xmlns="http://www.w3.org/2000/svg" xmlns:xlink="http://www.w3.org/1999/xlink" width="145.866" height="33.217" viewBox="0 0 145.866 33.217"><defs><clipPath id="clip-path"><rect id="Rectangle_1623" data-name="Rectangle 1623" width="145.866" height="33.217" fill="none"></rect></clipPath></defs><g id="Group_2895" data-name="Group 2895" transform="translate(0 0)"><g id="Group_3132" data-name="Group 3132" transform="translate(0 0)" clip-path="url(#clip-path)"><path id="Path_3269" data-name="Path 3269" d="M187.259,44.6a13.952,13.952,0,0,1-10.014-4.079,13.367,13.367,0,0,1-2.809-4.177,12.194,12.194,0,0,1-1-4.837,12.633,12.633,0,0,1,.977-4.86,12.964,12.964,0,0,1,2.785-4.2,13.96,13.96,0,0,1,10.064-4.079,14.309,14.309,0,0,1,5.691,1.1,13.576,13.576,0,0,1,4.373,2.931,13.321,13.321,0,0,1,2.809,4.2,12.507,12.507,0,0,1,1,4.909V43.969h-7.816V31.512a7.41,7.41,0,0,0-.416-2.491,6.363,6.363,0,0,0-1.172-2.052,5.413,5.413,0,0,0-1.881-1.393,6.18,6.18,0,0,0-2.589-.513,5.39,5.39,0,0,0-2.443.562,6.2,6.2,0,0,0-1.93,1.49,6.921,6.921,0,0,0-1.246,2.076,6.447,6.447,0,0,0-.439,2.32,6.253,6.253,0,0,0,.439,2.3,6.368,6.368,0,0,0,1.246,2,6.568,6.568,0,0,0,1.93,1.442,5.385,5.385,0,0,0,2.443.561,10.853,10.853,0,0,0,1.295-.073,4.476,4.476,0,0,0,1.2-.317q.1.2.513,1.172t.9,2.1q.537,1.271,1.27,2.882v.049a14.065,14.065,0,0,1-5.179.977" transform="translate(-107.502 -11.387)" fill="#fff"></path><path id="Path_3270" data-name="Path 3270" d="M108.9,44.6a13.952,13.952,0,0,1-10.014-4.079,13.367,13.367,0,0,1-2.809-4.177,12.194,12.194,0,0,1-1-4.837,12.633,12.633,0,0,1,.977-4.86,12.965,12.965,0,0,1,2.785-4.2A13.96,13.96,0,0,1,108.9,18.371a14.309,14.309,0,0,1,5.691,1.1,13.575,13.575,0,0,1,4.373,2.931,13.321,13.321,0,0,1,2.809,4.2,12.507,12.507,0,0,1,1,4.909V43.969h-7.816V31.512a7.41,7.41,0,0,0-.416-2.491,6.363,6.363,0,0,0-1.172-2.052,5.413,5.413,0,0,0-1.881-1.393,6.18,6.18,0,0,0-2.589-.513,5.39,5.39,0,0,0-2.443.562,6.2,6.2,0,0,0-1.93,1.49,6.921,6.921,0,0,0-1.246,2.076,6.447,6.447,0,0,0-.439,2.32,6.253,6.253,0,0,0,.439,2.3,6.368,6.368,0,0,0,1.246,2,6.568,6.568,0,0,0,1.93,1.442,5.385,5.385,0,0,0,2.443.561,10.852,10.852,0,0,0,1.295-.073,4.476,4.476,0,0,0,1.2-.317q.1.2.513,1.172t.9,2.1q.537,1.271,1.27,2.882v.049a14.065,14.065,0,0,1-5.179.977" transform="translate(-58.931 -11.387)" fill="#fff"></path><path id="Path_3271" data-name="Path 3271" d="M363.395,20.254l7.719-7.883V40.312h-7.719Z" transform="translate(-225.247 -7.668)" fill="#fff"></path><path id="Path_3272" data-name="Path 3272" d="M371.113.316,363.394,8.2V.306h7.719Z" transform="translate(-225.247 -0.19)" fill="#10aa08"></path><path id="Path_3273" data-name="Path 3273" d="M252.5,31.6a11.109,11.109,0,0,1,1.032-4.423,12.243,12.243,0,0,1,2.7-3.772,13.07,13.07,0,0,1,4.068-2.617,12.6,12.6,0,0,1,5.176-.9l.977.023-.171,7.277-.977-.023a4.808,4.808,0,0,0-1.938.345,5.28,5.28,0,0,0-1.612,1.013,4.928,4.928,0,0,0-1.11,1.489,4.241,4.241,0,0,0-.433,1.774L259.9,44.966h-7.721Z" transform="translate(-156.313 -12.321)" fill="#fff"></path><path id="Path_3274" data-name="Path 3274" d="M295.676,7.3h7.775v15.14l6.976-7.406h8.8l-8.654,8.879,8.859,13.258h-8.552l-5.421-7.529-2.005,2.332v5.2h-7.775Z" transform="translate(-183.272 -4.522)" fill="#fff"></path><path id="Path_3275" data-name="Path 3275" d="M15.756,43.5,2.72,51.927l13.035,7.526,13.035-7.526Z" transform="translate(-1.686 -26.96)" fill="#00b8d4"></path><path id="Path_3276" data-name="Path 3276" d="M0,24.369l1.018.588L14.07,0,0,8.123Z" transform="translate(0 0)" fill="#10aa08"></path><path id="Path_3277" data-name="Path 3277" d="M37.01,0,50.061,24.957l1.018-.588V8.123Z" transform="translate(-22.94 0)" fill="#00828e"></path></g></g></svg> 