<?xml version="1.0" encoding="UTF-8" standalone="no"?>
<!-- Created with Inkscape (http://www.inkscape.org/) -->
<svg width="154.82857mm" height="154.82857mm" viewBox="0 0 154.82857 154.82857" version="1.1" id="svg5" inkscape:version="1.1.2 (b8e25be833, 2022-02-05)" sodipodi:docname="Microsoft Account 2015.svg" xmlns:inkscape="http://www.inkscape.org/namespaces/inkscape" xmlns:sodipodi="http://sodipodi.sourceforge.net/DTD/sodipodi-0.dtd" xmlns="http://www.w3.org/2000/svg" xmlns:svg="http://www.w3.org/2000/svg">
  <sodipodi:namedview id="namedview7" pagecolor="#ffffff" bordercolor="#666666" borderopacity="1.0" inkscape:pageshadow="2" inkscape:pageopacity="0.0" inkscape:pagecheckerboard="0" inkscape:document-units="mm" showgrid="false" inkscape:zoom="0.90583672" inkscape:cx="299.72289" inkscape:cy="357.68035" inkscape:window-width="1920" inkscape:window-height="1017" inkscape:window-x="-8" inkscape:window-y="-8" inkscape:window-maximized="1" inkscape:current-layer="layer1"/>
  <defs id="defs2"/>
  <g inkscape:label="Layer 1" inkscape:groupmode="layer" id="layer1" transform="translate(-14.701162,-63.097682)">
    <g id="g841" transform="matrix(4.8383925,0,0,4.8383925,14.701162,63.097682)">
      <circle cx="16" cy="16" r="16" fill="#666666" id="circle826" style="fill:#0078d4;fill-opacity:1"/>
      <path d="M 12.73,13.1 A 3.271,3.271 0 1 1 16,16.3 3.237,3.237 0 0 1 12.73,13.1 Z M 10,22.169 h 1.088 a 4.91,4.91 0 0 1 9.818,0 H 22 a 5.884,5.884 0 0 0 -3.738,-5.434 4.238,4.238 0 0 0 2.1,-3.635 4.366,4.366 0 0 0 -8.73,0 4.238,4.238 0 0 0 2.1,3.635 A 5.878,5.878 0 0 0 10,22.169 Z" fill="#eeeeee" id="path828" style="fill:#ffffff;fill-opacity:1"/>
      <path fill="none" d="M 0,0 H 32 V 32 H 0 Z" id="path830"/>
    </g>
  </g>
</svg>