<svg xmlns="http://www.w3.org/2000/svg" viewBox="0 0 300 300"><path d="M231.586 823.025v101.063h67.344V823.025h-67.344zm38.032 22.782c3.149 0 5.993.191 8.53.625 2.538.433 4.732.932 6.563 1.5 1.832.567 3.343 1.15 4.532 1.75 1.188.599 2.015 1.072 2.53 1.406l-4.343 12.5c-2.057-1.133-4.396-2.104-7.062-2.938-2.666-.833-5.57-1.25-8.72-1.25-7.004 0-12.07 1.998-15.187 6.032-3.116 4.033-4.687 9.561-4.687 16.562 0 3.4.385 6.484 1.156 9.25.77 2.766 1.927 5.157 3.469 7.156 1.542 2 3.468 3.556 5.781 4.657 2.313 1.1 5.01 1.625 8.094 1.625 1.67 0 3.123-.027 4.312-.094a19.558 19.558 0 0 0 3.125-.407v-24.093h15.032V914.4c-1.799.735-4.672 1.51-8.657 2.344-3.984.833-8.904 1.25-14.75 1.25-5.012 0-9.575-.806-13.656-2.406-4.08-1.6-7.546-3.933-10.437-7-2.892-3.067-5.144-6.816-6.72-11.282-1.574-4.465-2.343-9.579-2.343-15.312 0-5.8.858-10.94 2.594-15.406 1.735-4.467 4.105-8.243 7.125-11.344a30.004 30.004 0 0 1 10.656-7.063c4.08-1.6 8.437-2.375 13.063-2.375z" style="fill:#c0cf3a;fill-opacity:1;display:inline" transform="matrix(.50639 0 0 .50639 58.437 -286.735)"/><path d="M305.399 789.432v133.75h67.469v-133.75h-67.47zm27.062 56.656c10.4 0 18.373 1.863 23.907 5.562 5.533 3.7 8.312 9.45 8.312 17.25 0 4.867-1.11 8.81-3.344 11.844-2.234 3.034-5.457 5.423-9.656 7.156a95.429 95.429 0 0 1 4.406 5.938 170.242 170.242 0 0 1 4.532 7c1.5 2.433 2.944 4.96 4.343 7.594 1.4 2.633 2.706 5.217 3.907 7.75h-17.5c-1.266-2.267-2.544-4.542-3.844-6.875a166.013 166.013 0 0 0-4-6.813c-1.367-2.2-2.73-4.283-4.063-6.25a66.982 66.982 0 0 0-4-5.344h-7.687v25.282H312.18V847.9a88.466 88.466 0 0 1 10.531-1.406c3.633-.266 6.884-.406 9.75-.406zm.907 13.312c-1.134 0-2.163.028-3.063.094-.9.066-1.732.12-2.531.188v18.812h4.406c5.868 0 10.06-.721 12.594-2.187 2.533-1.466 3.812-3.966 3.812-7.5 0-3.4-1.308-5.817-3.875-7.25-2.566-1.433-6.343-2.156-11.343-2.156z" style="fill:#008a6e;fill-opacity:1;display:inline" transform="matrix(.50639 0 0 .50639 58.437 -286.735)"/><path d="M378.555 823.182v100.906h67.188V823.182h-67.188zm40.063 22.53c2.933 0 5.6.224 8 .657 2.4.434 4.512.933 6.312 1.5 1.8.568 3.3 1.151 4.5 1.75 1.2.6 2.059 1.073 2.594 1.406l-4.5 12.594c-2.134-1.133-4.605-2.105-7.438-2.906-2.833-.8-6.057-1.188-9.656-1.188-2.4 0-4.762.387-7.062 1.188-2.3.8-4.327 2.108-6.094 3.875-1.767 1.767-3.184 4.044-4.25 6.844-1.066 2.8-1.594 6.187-1.594 10.187 0 3.2.332 6.202 1.031 8.969.7 2.767 1.84 5.125 3.407 7.125 1.566 2 3.623 3.583 6.156 4.75 2.533 1.167 5.586 1.75 9.187 1.75 2.267 0 4.326-.109 6.125-.375 1.8-.267 3.38-.602 4.782-.969 1.4-.367 2.652-.783 3.718-1.25 1.066-.467 2.009-.882 2.875-1.281l4.313 12.5c-2.2 1.333-5.313 2.527-9.313 3.594-4 1.067-8.607 1.593-13.875 1.593-11.267 0-19.85-3.139-25.75-9.406-5.9-6.267-8.875-15.156-8.875-26.687 0-5.736.919-10.845 2.72-15.344 1.8-4.5 4.272-8.306 7.405-11.406 3.134-3.1 6.854-5.463 11.188-7.063 4.333-1.6 9.028-2.406 14.094-2.406z" style="fill:#549e39;fill-opacity:1;display:inline" transform="matrix(.50639 0 0 .50639 58.437 -286.735)"/><text x="-114.733" y="895.496" style="font-size:38.96868515px;font-style:normal;font-weight:400;line-height:125%;letter-spacing:0;word-spacing:0;fill:#008a6e;fill-opacity:1;stroke:none;display:inline;font-family:Sans" transform="matrix(.49333 0 0 .51979 58.437 -286.735)" xml:space="preserve"><tspan x="-114.733" y="895.496" style="font-size:85.73110199px;font-style:normal;font-variant:normal;font-weight:400;font-stretch:normal;fill:#008a6e;fill-opacity:1;font-family:Ubuntu;-inkscape-font-specification:Ubuntu">Adaptive</tspan></text><text x="449.461" y="851.708" style="font-size:40px;font-style:normal;font-weight:400;line-height:125%;letter-spacing:0;word-spacing:0;fill:#008a6e;fill-opacity:1;stroke:none;display:inline;font-family:Sans" transform="matrix(.50639 0 0 .50639 58.437 -286.735)" xml:space="preserve"><tspan x="449.461" y="851.708" style="font-size:17px;font-style:normal;font-variant:normal;font-weight:400;font-stretch:normal;fill:#008a6e;fill-opacity:1;font-family:Ubuntu;-inkscape-font-specification:Ubuntu">TM</tspan></text></svg>