<?xml version="1.0" encoding="UTF-8"?>
<svg width="377" height="369" viewBox="0 0 377 369" xmlns="http://www.w3.org/2000/svg" xmlns:xlink="http://www.w3.org/1999/xlink"><svg data-name="Diagram" viewBox="-1 -1 162.16 44.52" width="162.16" height="44.52" id="adaxes_logo" xmlns="http://www.w3.org/2000/svg"><defs><radialGradient id="aaa" data-name="Gradient 7" cx="22.19" cy="21.4" r="21.4" gradientTransform="translate(-.79) scale(.99)" gradientUnits="userSpaceOnUse"><stop offset="0" stop-color="#00becd"/><stop offset="1" stop-color="#09f"/></radialGradient></defs><path d="M125.43 28.25l-7.81-7.7 7.81-7.79h-3.21L116 18.87l-6.21-6.11h-3.2l7.8 7.79-7.8 7.7h3.2l6.21-6.12 6.2 6.12zm-58.16-4.34c0 .88-.4 2.17-1.5 2.17h-8.21c-1.1 0-1.5-1.48-1.5-2.47a3.41 3.41 0 01.5-1.78 1.23 1.23 0 011-.59h9.71zm-1.6-11.06H54.26l.3.4 1.2 1.75h10.11c1.1 0 1.5 1.28 1.5 2.17v1.87h-9.71a3.26 3.26 0 00-2.9 1.58 5.82 5.82 0 00-.9 3.06c0 2.27 1.3 4.64 3.8 4.64h8.21c2.5 0 3.8-2.17 3.8-4.35V17.2c-.2-2.17-1.5-4.35-4-4.35zm37.53 11.06c0 .88-.4 2.17-1.5 2.17h-8.2c-1.11 0-1.51-1.48-1.51-2.47a3.41 3.41 0 01.5-1.78 1.23 1.23 0 011-.59h9.7zm-1.5-11.06H90.29l.3.4 1.2 1.75h10.11c1.1 0 1.5 1.28 1.5 2.17v1.87h-9.7a3.27 3.27 0 00-2.91 1.58 5 5 0 00-.9 3.06c0 2.27 1.3 4.64 3.81 4.64h8.2c2.51 0 3.81-2.17 3.81-4.35V17.2c-.2-2.17-1.5-4.35-4-4.35zM159.46 15l-1.4-2.27h-10.21a3.62 3.62 0 00-2.85 1.51 4.88 4.88 0 00-.8 3c0 2.17 1.3 4.44 3.71 4.44h8.5c1.11 0 1.41 1.38 1.41 2.27s-.3 2.17-1.41 2.17h-12l1.4 2.27h10.61c2.41 0 3.71-2.27 3.71-4.44s-1.2-4.44-3.61-4.44H148c-1 0-1.41-1.39-1.41-2.27S146.85 15 148 15zm-30.53 2a1.88 1.88 0 011.8-2h8c1.1 0 1.5 1.38 1.5 2.26a3.64 3.64 0 01-.4 1.58 1.25 1.25 0 01-1.1.6h-9.81zm1.5 9.08c-1.4 0-1.5-1.38-1.5-1.88v-2.46h9.71c2.5 0 3.8-2.27 3.8-4.45s-1.3-4.44-3.8-4.44h-8a4.11 4.11 0 00-4 4.25v7.2a3.79 3.79 0 003.8 4.05h11.51l-1.4-2.27zM71.77 12.85v15.4h12a3.88 3.88 0 003.7-3.65v-8.19a3.87 3.87 0 00-3.7-3.65H73.18zM74.08 15h9.71a1.58 1.58 0 011.4 1.48v8.22a1.49 1.49 0 01-1.4 1.38h-9.71V15z" fill="#333"/><path d="M21.26 0a21.26 21.26 0 1021.26 21.26A21.26 21.26 0 0021.26 0zM21 38.69A17.58 17.58 0 014.12 25.48a15.6 15.6 0 015.67-1A16.13 16.13 0 0125.68 38a18.18 18.18 0 01-4.68.69zm-2.67-17.48a2.59 2.59 0 112.58 2.58 2.63 2.63 0 01-2.58-2.58zm-8.45-3.28a15.74 15.74 0 01-5.76-1A17.4 17.4 0 0121 3.82a18.12 18.12 0 014.67.6A16.18 16.18 0 019.88 17.93zm23.25 15.8a16 16 0 01-6-12.52 15.65 15.65 0 016-12.42 17.18 17.18 0 015.27 12.42 17.41 17.41 0 01-5.27 12.52z" fill="url(#aaa)"/></svg><svg width="14" height="14" viewBox="-1 -1 14 14" id="bullet-sm" x="362.45" y="169" xmlns="http://www.w3.org/2000/svg"><circle cx="34.922" cy="25.078" r="19.657" fill="#009bff" transform="matrix(.21692 0 0 .21692 -1.422 .458)"/></svg><svg width="14" height="14" viewBox="-1 -1 14 14" id="bullet-sm-gray" x="314" y="278.52" xmlns="http://www.w3.org/2000/svg"><circle cx="34.922" cy="25.078" r="19.657" fill="#b3b3b3" transform="matrix(.21692 0 0 .21692 -1.422 .458)"/></svg><svg width="26" height="20" fill="none" viewBox="-1 -1 26 20" id="burger" x="330.45" y="211" xmlns="http://www.w3.org/2000/svg"><path fill="#000" d="M10 0h14v2H10zM8 16h16v2H8zM0 8h24v2H0z"/></svg><svg viewBox="-1 -1 22 22" width="22" height="22" id="button-copy" x="294" y="248.52" xmlns="http://www.w3.org/2000/svg"><path d="M15.658 16.88H7.254V6.183h8.404m0-1.528H7.254a1.528 1.528 0 00-1.529 1.528V16.88a1.528 1.528 0 001.529 1.528h8.404a1.528 1.528 0 001.529-1.528V6.183a1.528 1.528 0 00-1.529-1.528m-2.292-3.056H4.197A1.528 1.528 0 002.67 3.127v10.697h1.528V3.127h9.17z" fill="#5f5f5f" fill-opacity=".39"/></svg><svg viewBox="-1 -1 22 22" width="22" height="22" id="button-copy-hover" x="292" y="278.52" xmlns="http://www.w3.org/2000/svg"><path d="M15.658 16.88H7.254V6.183h8.404m0-1.528H7.254a1.528 1.528 0 00-1.529 1.528V16.88a1.528 1.528 0 001.529 1.528h8.404a1.528 1.528 0 001.529-1.528V6.183a1.528 1.528 0 00-1.529-1.528m-2.292-3.056H4.197A1.528 1.528 0 002.67 3.127v10.697h1.528V3.127h9.17z" fill="#5f5f5f"/></svg><svg id="cap" data-name="a1fa4c32-a0c1-471c-b236-5ad33106d845" version="1.1" width="82" height="82" viewBox="-1 -1 82 82" x="162.16" y="41.32" xmlns="http://www.w3.org/2000/svg"><defs id="agdefs4"><style id="agstyle2">.aga67c5aea-9961-45e6-9038-04b71597366b{opacity:.2}.aga90998bf-bceb-4195-91d6-46afafda0ca8{opacity:.4}</style></defs><g id="agg16" transform="matrix(4.88536 0 0 4.88536 -8.894 -8.207)"><g class="aga67c5aea-9961-45e6-9038-04b71597366b" id="agg10"><path d="M5.63 10.8L5 10.5v2a4.64 4.64 0 00.38.59z" id="agpath6"/><path d="M10.26 12.67a.72.72 0 01-.61 0l-3-1.38.42 3.21a6.27 6.27 0 002.85.62 5.62 5.62 0 005-2.43v-2.14z" id="agpath8"/></g><path class="age1fc9ff2-b2aa-4421-b636-7c3c9b9f91f5" d="M6 11l-.5 4.45A.51.51 0 006 16a.45.45 0 00.48-.5z" id="agpath12" opacity=".4" fill="#333" fill-opacity=".993"/><path class="aga90998bf-bceb-4195-91d6-46afafda0ca8" d="M17.89 7.6l-7.4-3.49a1.12 1.12 0 00-1 0L2.11 7.6a.18.18 0 000 .33l3.67 1.72a.44.44 0 01.15-.09L9.12 7.9a.31.31 0 010-.1c0-.32.41-.59.92-.59s.92.27.92.59c0 .32-.41.6-.92.6a1.21 1.21 0 01-.48-.09L6.45 9.89h-.06l3.12 1.46a1.12 1.12 0 001 0l7.4-3.46a.18.18 0 00-.02-.29z" id="agpath14"/></g></svg><svg width="12" height="12" fill="currentColor" class="ahbi ahbi-caret-down-fill" viewBox="-1 -1 12 12" id="caret-down-10" x="120" y="328.52" xmlns="http://www.w3.org/2000/svg"><path d="M4.393 8.202L.51 3.762a.81.81 0 01.61-1.343h7.769a.81.81 0 01.61 1.343L5.613 8.201a.81.81 0 01-1.22 0z"/></svg><svg width="12" height="12" fill="currentColor" class="aibi aibi-caret-down-fill" viewBox="-1 -1 12 12" id="caret-up-10" x="132" y="328.52" xmlns="http://www.w3.org/2000/svg"><path d="M5.612 2.695l3.885 4.44a.81.81 0 01-.61 1.343h-7.77a-.81-.81 0 01-.61-1.344l3.885-4.438a-.81-.81 0 011.22 0z"/></svg><svg width="18" height="18" fill="currentColor" class="ajbi ajbi-check" viewBox="-1 -1 18 18" id="check-ams" x="357.45" y="184" xmlns="http://www.w3.org/2000/svg"><path d="M11.44 6.36a.93.93 0 011.325 1.3l-4.943 6.182a.93.93 0 01-1.338.025l-3.278-3.278a.93.93 0 111.313-1.314l2.594 2.593 4.303-5.482a.33.33 0 01.025-.027z" fill="#b3b3b3"/></svg><svg width="18" height="18" fill="currentColor" class="akbi akbi-check" viewBox="-1 -1 18 18" id="check-ams-blue" x="356.45" y="211" xmlns="http://www.w3.org/2000/svg"><path d="M11.44 6.36a.93.93 0 011.325 1.3l-4.943 6.182a.93.93 0 01-1.338.025l-3.278-3.278a.93.93 0 111.313-1.314l2.594 2.593 4.303-5.482a.33.33 0 01.025-.027z" fill="#009aff"/></svg><svg id="check-black-16" data-name="Layer 1" version="1.1" width="18" height="18" viewBox="-1 -1 18 18" x="356.45" y="257" xmlns="http://www.w3.org/2000/svg"><defs id="aldefs4"><style id="alstyle2">.alcls-1{fill:#000}</style></defs><path class="alcls-1" d="M7.464 15.732L.717 8.3a1.475 1.475 0 01.087-2.053 1.446 1.446 0 012.043.087l4.193 4.578L13.074.984a1.447 1.447 0 112.467 1.514z" id="alpath6" stroke-width=".964"/></svg><svg id="chevron-down-black" data-name="ffa0d3fc-656c-4ca4-b868-0916f195692d" version="1.1" width="18" height="12" viewBox="-1 -1 18 12" x="356.45" y="283" xmlns="http://www.w3.org/2000/svg"><defs id="amdefs4"><style id="amstyle2">.amf64a0bed-966e-4e5a-87c8-8fbfdbbe77d5{fill:#1d1d1b}</style></defs><path class="amf64a0bed-966e-4e5a-87c8-8fbfdbbe77d5" id="ampolygon6" transform="matrix(1.01587 0 0 1.01587 -2.232 -5.12)" d="M13.7 6.25l1.55 1.27-5.01 6.23-4.99-6.22L6.8 6.27l3.44 4.28z"/></svg><svg width="18" height="12" fill="currentColor" class="anbi anbi-chevron-down" viewBox="-1 -1 18 12" id="chevron-down-blue" x="356.45" y="295" xmlns="http://www.w3.org/2000/svg"><path class="anf64a0bed-966e-4e5a-87c8-8fbfdbbe77d5" fill="#009aff" d="M12.892 2.99l-5.09 6.329L2.735 3l1.574-1.28 3.495 4.348L11.318 1.7z"/></svg><svg data-name="ffa0d3fc-656c-4ca4-b868-0916f195692d" width="18" height="12" viewBox="-1 -1 18 12" id="chevron-down-gray" x="330.45" y="309" xmlns="http://www.w3.org/2000/svg"><path class="aof64a0bed-966e-4e5a-87c8-8fbfdbbe77d5" fill="#b3b3b3" d="M11.686 1.23l1.574 1.29-5.09 6.329-5.068-6.32 1.574-1.28 3.495 4.349z"/></svg><svg width="18" height="12" fill="currentColor" class="apbi apbi-chevron-down" viewBox="-1 -1 18 12" id="chevron-down-white" x="348.45" y="309" xmlns="http://www.w3.org/2000/svg"><path class="apf64a0bed-966e-4e5a-87c8-8fbfdbbe77d5" fill="#fff" d="M11.61 1.29l1.575 1.29-5.09 6.33-5.069-6.32 1.575-1.28 3.495 4.348z"/></svg><svg id="chevron-up-black" data-name="ffa0d3fc-656c-4ca4-b868-0916f195692d" version="1.1" width="18" height="12" viewBox="-1 -1 18 12" x="224.16" y="171.32" xmlns="http://www.w3.org/2000/svg"><defs id="aqdefs4"><style id="aqstyle2">.aqf64a0bed-966e-4e5a-87c8-8fbfdbbe77d5{fill:#1d1d1b}</style></defs><path class="aqf64a0bed-966e-4e5a-87c8-8fbfdbbe77d5" id="aqpolygon6" transform="rotate(179.912 9.297 7.599) scale(1.01587)" d="M15.25 7.52l-5.01 6.23-4.99-6.22L6.8 6.27l3.44 4.28 3.46-4.3z"/></svg><svg width="18" height="12" fill="currentColor" class="arbi arbi-chevron-down" viewBox="-1 -1 18 12" id="chevron-up-blue" x="66" y="328.52" xmlns="http://www.w3.org/2000/svg"><path class="arf64a0bed-966e-4e5a-87c8-8fbfdbbe77d5" fill="#009aff" d="M7.823 4.748L4.308 9.116l-1.574-1.29 5.09-6.33 5.068 6.32-1.574 1.28z"/></svg><svg data-name="ffa0d3fc-656c-4ca4-b868-0916f195692d" width="18" height="12" viewBox="-1 -1 18 12" id="chevron-up-gray" x="84" y="328.52" xmlns="http://www.w3.org/2000/svg"><path class="asf64a0bed-966e-4e5a-87c8-8fbfdbbe77d5" fill="#b3b3b3" d="M3.102 7.558l5.09-6.328 5.068 6.318-1.574 1.28L8.19 4.48 4.676 8.85z"/></svg><svg width="18" height="12" fill="currentColor" class="atbi atbi-chevron-down" viewBox="-1 -1 18 12" id="chevron-up-white" x="102" y="328.52" xmlns="http://www.w3.org/2000/svg"><path class="atf64a0bed-966e-4e5a-87c8-8fbfdbbe77d5" fill="#fff" d="M3.026 7.619l5.09-6.329 5.07 6.319-1.576 1.28L8.116 4.54 4.6 8.909z"/></svg><svg viewBox="-1 -1 22 22" width="22" height="22" id="code-copy" x="292" y="300.52" xmlns="http://www.w3.org/2000/svg"><path d="M15.658 16.88H7.254V6.183h8.404m0-1.528H7.254a1.528 1.528 0 00-1.529 1.528V16.88a1.528 1.528 0 001.529 1.528h8.404a1.528 1.528 0 001.529-1.528V6.183a1.528 1.528 0 00-1.529-1.528m-2.292-3.056H4.197A1.528 1.528 0 002.67 3.127v10.697h1.528V3.127h9.17z" fill="#5f5f5f"/></svg><svg width="86.29" height="41.32" viewBox="-1 -1 24.3 12.4" id="copied" x="162.16" xmlns="http://www.w3.org/2000/svg"><path d="M1.126.7a.4.4 0 00-.401.401v6.054a.4.4 0 00.4.401h11.709l3.646 2.227V7.556h4.45a.4.4 0 00.401-.4V1.1a.4.4 0 00-.4-.4z" stroke="#b5b5b5" stroke-width=".344" stroke-linejoin="round" fill="#fff"/></svg><svg width="38" height="26" fill="currentColor" class="awbi awbi-display" viewBox="-1 -1 38 26" id="display" x="330.45" y="92" xmlns="http://www.w3.org/2000/svg"><g fill="#fff"><path class="awa8207a8c-228f-479b-900d-371b0ffa7b75" d="M26.237 12.718v5.318l4.43-2.624z"/><path class="awa8207a8c-228f-479b-900d-371b0ffa7b75" d="M28.01 8.288a7.09 7.09 0 107.089 7.089 7.09 7.09 0 00-7.09-7.09zm0 12.406a5.317 5.317 0 115.316-5.317 5.317 5.317 0 01-5.317 5.317z"/><path class="awa8207a8c-228f-479b-900d-371b0ffa7b75" d="M17.375 18.922h2.517a8.614 8.614 0 01-.567-1.773H4.969a1.772 1.772 0 01-1.773-1.772V4.743A1.772 1.772 0 014.97 2.97h21.268a1.772 1.772 0 011.772 1.773v1.772a9.695 9.695 0 011.773.177v-1.95a3.545 3.545 0 00-3.545-3.544H4.969a3.545 3.545 0 00-3.545 3.545v10.634a3.545 3.545 0 003.545 3.545h8.861v1.772h-3.544v1.772H20.92v-1.772h-3.545z"/></g></svg><svg width="14" height="14" viewBox="-1 -1 14 14" id="down-black-12" x="314" y="300.52" xmlns="http://www.w3.org/2000/svg"><path class="axf64a0bed-966e-4e5a-87c8-8fbfdbbe77d5" d="M.798 3.845l1.575-1.28 3.494 4.348 3.515-4.368 1.575 1.29-5.09 6.33z"/></svg><svg width="46" height="46" fill="none" viewBox="-1 -1 46 46" id="eye" x="200" y="278.52" xmlns="http://www.w3.org/2000/svg"><path opacity=".6" d="M22 8.297c-13.933 0-22 13.787-22 13.787S7.333 35.87 22 35.87s22-13.786 22-13.786S35.933 8.297 22 8.297zm0 24.787c-6.013 0-11-4.987-11-11 0-6.014 4.987-11 11-11s11 4.986 11 11c0 6.013-4.84 11-11 11z" fill="#000"/><path opacity=".4" d="M22 17.977c-2.346 0-4.106 1.907-4.106 4.107 0 2.347 1.906 4.107 4.106 4.107s4.107-1.907 4.107-4.107-1.76-4.107-4.107-4.107z" fill="#000"/></svg><svg width="20" height="26" viewBox="-1 -1 20 26" id="facebook" x="330.45" y="231" xmlns="http://www.w3.org/2000/svg"><path class="azfacebook" d="M12.441 4.754h1.865V1.55c-.324-.08-1.418-.16-2.675-.16-2.676 0-4.5 1.66-4.5 4.742v2.836h-2.96v3.61h2.96v9.08h3.607v-9.081h2.838l.446-3.607h-3.284V6.497c0-1.013.284-1.743 1.702-1.743z" fill="#5f5f5f"/></svg><svg width="20" height="26" viewBox="-1 -1 20 26" id="facebook-orange" x="350.45" y="231" xmlns="http://www.w3.org/2000/svg"><path class="bafacebook" d="M12.441 4.754h1.865V1.55c-.324-.08-1.418-.16-2.675-.16-2.676 0-4.5 1.66-4.5 4.742v2.836h-2.96v3.61h2.96v9.08h3.607v-9.081h2.838l.446-3.607h-3.284V6.497c0-1.013.284-1.743 1.702-1.743z" fill="#f6ac25"/></svg><svg id="faq" data-name="bdafcf23-6e31-442c-9c6f-571019c8ccc7" version="1.1" width="82" height="82" viewBox="-1 -1 82 82" x="248.45" xmlns="http://www.w3.org/2000/svg"><defs id="bbdefs4"><style id="bbstyle2">.bba58be618-ee97-40dc-8e64-0edc0304ae6f{opacity:.2}.bbefa4ad5d-719b-455e-91ae-12f8c3ccacb4{opacity:.4}</style></defs><path class="bba58be618-ee97-40dc-8e64-0edc0304ae6f" d="M74.387 30.491H40.35a4.863 4.863 0 00-4.862 4.863v19.45a4.863 4.863 0 004.862 4.863h24.313l9.725 9.725v-9.725a4.863 4.863 0 004.863-4.863v-19.45a4.863 4.863 0 00-4.863-4.863zM57.368 54.804a2.431 2.431 0 010-4.863 2.431 2.431 0 010 4.863zm1.8-9.725h-3.55l-.68-9.725H59.8z" id="bbpath6" stroke-width="4.863"/><path class="bbefa4ad5d-719b-455e-91ae-12f8c3ccacb4" d="M30.624 35.354a9.725 9.725 0 019.725-9.725h4.863v-4.863a4.863 4.863 0 00-4.863-4.862H6.312a4.863 4.863 0 00-4.863 4.862v19.45a4.863 4.863 0 004.863 4.863v9.725l9.725-9.725h14.587zm-8.412 4.862a2.334 2.334 0 01-2.285-2.285 2.285 2.285 0 014.57 0 2.334 2.334 0 01-2.285 2.285zm1.216-8.169a1.653 1.653 0 00.535 1.167l-3.064.924a3.647 3.647 0 01-.924-2.48c0-3.355 4.134-3.744 4.134-5.737 0-.876-.633-1.605-2.237-1.605a4.863 4.863 0 00-3.501 1.75l-2.334-2.577a8.17 8.17 0 016.224-2.723c3.5 0 5.932 1.848 5.932 4.474 0 4.133-4.765 4.425-4.765 6.807z" id="bbpath8" stroke-width="4.863"/></svg><svg width="18" height="18" fill="currentColor" class="bcbi bcbi-info-circle-fill" viewBox="-1 -1 18 18" id="info-circle" y="350.52" xmlns="http://www.w3.org/2000/svg"><path d="M8 16A8 8 0 108 0a8 8 0 000 16zm.93-9.412l-1 4.705c-.07.34.029.533.304.533.194 0 .487-.07.686-.246l-.088.416c-.287.346-.92.598-1.465.598-.703 0-1.002-.422-.808-1.319l.738-3.468c.064-.293.006-.399-.287-.47l-.451-.081.082-.381 2.29-.287zM8 5.5a1 1 0 110-2 1 1 0 010 2z" fill="#ccc"/></svg><svg width="18" height="18" fill="currentColor" class="bdbi bdbi-info-circle-fill" viewBox="-1 -1 18 18" id="info-circle-hover" x="18" y="350.52" xmlns="http://www.w3.org/2000/svg"><path d="M8 16A8 8 0 108 0a8 8 0 000 16zm.93-9.412l-1 4.705c-.07.34.029.533.304.533.194 0 .487-.07.686-.246l-.088.416c-.287.346-.92.598-1.465.598-.703 0-1.002-.422-.808-1.319l.738-3.468c.064-.293.006-.399-.287-.47l-.451-.081.082-.381 2.29-.287zM8 5.5a1 1 0 110-2 1 1 0 010 2z" fill="#999"/></svg><svg width="22" height="22" viewBox="-1 -1 22 22" id="linkdin" y="328.52" xmlns="http://www.w3.org/2000/svg"><g fill="#5f5f5f"><path d="M17.868 17.5V11.81c0-2.797-.59-4.942-3.854-4.942-1.554 0-2.611.87-3.046 1.679h-.031v-1.43H7.859v10.381h3.17v-5.128c0-1.368.25-2.673 1.928-2.673 1.647 0 1.678 1.554 1.678 2.735v5.066zM2.575 7.118h3.233v10.381H2.575zM4.192 1.958a1.87 1.87 0 00-1.865 1.865c0 1.026.839 1.896 1.865 1.896 1.025 0 1.865-.84 1.865-1.896a1.87 1.87 0 00-1.865-1.865z"/></g></svg><svg width="22" height="22" viewBox="-1 -1 22 22" id="linkdin-orange" x="22" y="328.52" xmlns="http://www.w3.org/2000/svg"><g fill="#f6ac25"><path d="M17.868 17.5V11.81c0-2.797-.59-4.942-3.854-4.942-1.554 0-2.611.87-3.046 1.679h-.031v-1.43H7.859v10.381h3.17v-5.128c0-1.368.25-2.673 1.928-2.673 1.647 0 1.678 1.554 1.678 2.735v5.066zM2.575 7.118h3.233v10.381H2.575zM4.192 1.958a1.87 1.87 0 00-1.865 1.865c0 1.026.839 1.896 1.865 1.896 1.025 0 1.865-.84 1.865-1.896a1.87 1.87 0 00-1.865-1.865z"/></g></svg><svg width="12" height="14" viewBox="-1 -1 12 14" id="next-black-12" x="364.45" y="118" xmlns="http://www.w3.org/2000/svg"><path class="bgf64a0bed-966e-4e5a-87c8-8fbfdbbe77d5" fill="#1d1d1b" d="M8.876 5.931l-6.319 5.07-1.28-1.575L5.625 5.93 1.257 2.416 2.547.842z"/></svg><svg width="12" height="14" viewBox="-1 -1 12 14" id="next-gray-12" x="364.45" y="132" xmlns="http://www.w3.org/2000/svg"><path class="bhf64a0bed-966e-4e5a-87c8-8fbfdbbe77d5" d="M8.9 5.846l-6.318 5.07-1.28-1.575L5.65 5.846 1.282 2.331 2.572.757z" fill="#b3b3b3"/></svg><svg id="note-caution" data-name="Layer 1" version="1.1" width="50" height="50" viewBox="-1 -1 50 50" y="278.52" xmlns="http://www.w3.org/2000/svg"><defs id="bidefs4"><style id="bistyle2"/></defs><path d="M43.07 34.863L27.002 7.489a3.286 3.286 0 00-4.494-1.16 3.334 3.334 0 00-1.16 1.16L5.282 34.863a3.262 3.262 0 001.233 4.421 3.358 3.358 0 001.618.41h32.085a3.213 3.213 0 003.286-3.213 2.996 2.996 0 00-.435-1.618zM26.591 15.534l-1.208 12.08h-2.416l-1.208-12.08zm-2.416 19.329a2.416 2.416 0 112.416-2.416 2.416 2.416 0 01-2.416 2.416z" id="bipath2" opacity=".4" stroke-width="2.416"/></svg><svg id="note-info" data-name="Layer 1" version="1.1" width="50" height="50" viewBox="-1 -1 50 50" x="50" y="278.52" xmlns="http://www.w3.org/2000/svg"><defs id="bjdefs4"><style id="bjstyle2"/></defs><path d="M24.052 4.662a19.22 19.22 0 1019.221 19.22 19.22 19.22 0 00-19.22-19.22zm1.058 29.48a4.349 4.349 0 01-3.052 1.37 2.403 2.403 0 01-1.634-.577 2.018 2.018 0 01-.744-1.706 6.103 6.103 0 01.216-1.297 7.208 7.208 0 01.336-1.346l2.067-7.52v-.505c0-.456-.145-.72-.433-.84a6.03 6.03 0 00-1.466-.24v-.842l2.74-.288a11.1 11.1 0 002.522-.336l1.442-.289-2.595 9.61c-.216.818-.385 1.394-.457 1.707a8.53 8.53 0 00-.288 1.561c0 .24 0 .385.168.457a.649.649 0 00.36 0c.337 0 .745-.289 1.25-.865a12.325 12.325 0 001.345-1.826l.721.48a22.657 22.657 0 01-2.498 3.292zm2.642-18.044a2.258 2.258 0 01-3.195-3.171 2.403 2.403 0 013.195-.24 2.258 2.258 0 01.24 3.171 2.739 2.739 0 01-.24.24z" id="bjpath2" opacity=".4" stroke-width="2.403"/></svg><svg id="note-tip" data-name="Layer 1" version="1.1" width="50" height="50" viewBox="-1 -1 50 50" x="100" y="278.52" xmlns="http://www.w3.org/2000/svg"><defs id="bkdefs4"><style id="bkstyle2">.bkb29ac266-5837-4741-a201-9386a4e4d1a6{opacity:.2}.bkb4eba625-aa87-4c1d-80aa-379e11eb04a1{opacity:.4}</style></defs><g class="bkb29ac266-5837-4741-a201-9386a4e4d1a6" id="bkg16" transform="matrix(2.57074 0 0 2.57074 -1.985 -3.623)"><path d="M17.5 11h-2a.5.5 0 000 1h2a.5.5 0 000-1z" id="bkpath6"/><path d="M10 16a.5.5 0 00-.5.5v2a.5.5 0 001 0v-2a.5.5 0 00-.5-.5z" id="bkpath8"/><path d="M5 11.5a.5.5 0 00-.5-.5h-2a.5.5 0 000 1h2a.5.5 0 00.5-.5z" id="bkpath10"/><path d="M5.76 15l-1.42 1.45a.502.502 0 00.71.71l1.41-1.42a.495.495 0 00-.7-.7z" id="bkpath12"/><path d="M14.24 15a.495.495 0 00-.7.7L15 17.16a.502.502 0 00.71-.71z" id="bkpath14"/></g><g id="bkg22" transform="matrix(2.57074 0 0 2.57074 -1.985 -3.623)"><path class="bkb4eba625-aa87-4c1d-80aa-379e11eb04a1" d="M9.5 3h1a.5.5 0 000-1h-1a.5.5 0 000 1z" id="bkpath18"/><path class="bkb4eba625-aa87-4c1d-80aa-379e11eb04a1" d="M9 5h2a.5.5 0 000-1H9a.5.5 0 000 1z" id="bkpath20"/></g><path class="bkb4eba625-aa87-4c1d-80aa-379e11eb04a1" d="M28.864 15.787v-1.414a2.57 2.57 0 00-2.571-2.571H21.15a2.57 2.57 0 00-2.57 2.57v1.415a10.283 10.283 0 1010.283 0zm0 14.139a1.285 1.285 0 01-1.826 0 1.26 1.26 0 010-1.8 5.141 5.141 0 00-.205-7.25 1.285 1.285 0 010-1.825 1.26 1.26 0 011.8 0 7.558 7.558 0 012.236 5.605 7.712 7.712 0 01-2.005 5.27z" id="bkpath24" stroke-width="2.571"/></svg><svg id="office" data-name="a1fa4c32-a0c1-471c-b236-5ad33106d845" version="1.1" width="82" height="82" viewBox="-1 -1 82 82" x="248.45" y="82" xmlns="http://www.w3.org/2000/svg"><defs id="bldefs4"><style id="blstyle2">.blab00d7c2-4273-4022-84de-c41e28064bb3{fill:#ccc}.blfa6f49f9-3c2c-488f-a854-9dbecb9adf23{fill:#fff}</style></defs><g id="blg14" transform="translate(-3.46 -2.638) scale(4.79561)"><path class="ble607c774-dee2-4b82-bee8-66b7a7902488" d="M1.962 5.836v10.156h3.046V5.836zm2.03 9.14H2.978v-1.015h1.016zm0-2.03H2.978V11.93h1.016zm0-2.032H2.978V9.9h1.016zm0-2.03H2.978V7.867h1.016z" id="blpath6" fill="#aaa" fill-opacity="1" stroke-width="1.016"/><path class="ble607c774-dee2-4b82-bee8-66b7a7902488" d="M16.179 4.821h-3.047v11.17h3.047zm-1.016 10.155h-1.015v-1.015h1.015zm0-2.03h-1.015V11.93h1.015zm0-2.032h-1.015V9.9h1.015zm0-2.03h-1.015V7.867h1.015zm0-2.032h-1.015V5.836h1.015z" id="blpath8" fill="#aaa" fill-opacity="1" stroke-width="1.016"/><path class="blab00d7c2-4273-4022-84de-c41e28064bb3" d="M12.117 15.992V.759H6.024v15.233H.946v1.015h16.249v-1.015zM8.055 11.93H7.039v-1.016h1.016zm0-2.031H7.039V8.883h1.016zm0-2.031H7.039V6.852h1.016zm0-2.032H7.039V4.821h1.016zm0-2.03H7.039V2.79h1.016zM11.1 11.93h-1.015v-1.016H11.1zm0-2.031h-1.015V8.883H11.1zm0-2.031h-1.015V6.852H11.1zm0-2.032h-1.015V4.821H11.1zm0-2.03h-1.015V2.79H11.1z" id="blpath10" fill="#ccc" fill-opacity="1" stroke-width="1.016"/><path class="blfa6f49f9-3c2c-488f-a854-9dbecb9adf23" id="blpolygon12" transform="matrix(1.01552 0 0 1.01552 -1.085 -1.272)" d="M11 15H9v2H8v-3h4v3h-1z"/></g></svg><svg width="46" height="46" fill="none" viewBox="-1 -1 46 46" id="options" x="246" y="278.52" xmlns="http://www.w3.org/2000/svg"><path opacity=".6" d="M7.272 4.87h4.213c1.123 0 2.106.98 2.106 2.1v4.197c0 1.119-.983 2.098-2.106 2.098H7.272c-1.124 0-2.107-.979-2.107-2.098V6.969c-.14-1.12.843-2.099 2.107-2.099z" fill="#000"/><path opacity=".4" d="M20.051 4.87h4.213c1.124 0 2.107.98 2.107 2.1v4.197c0 1.119-.983 2.098-2.107 2.098h-4.213c-1.123 0-2.106-.979-2.106-2.098V6.969c0-1.12.983-2.099 2.106-2.099zM32.833 4.87h4.213c1.123 0 2.106.98 2.106 2.1v4.197c0 1.119-.983 2.098-2.106 2.098h-4.213c-1.124 0-2.107-.979-2.107-2.098V6.969c0-1.12.983-2.099 2.107-2.099zM7.272 17.742h4.213c1.123 0 2.106.98 2.106 2.1v4.197c0 1.119-.983 2.098-2.106 2.098H7.272c-1.124 0-2.107-.979-2.107-2.098V19.84c-.14-1.26.843-2.099 2.107-2.099z" fill="#000"/><path opacity=".6" d="M20.051 17.742h4.213c1.124 0 2.107.98 2.107 2.1v4.197c0 1.119-.983 2.098-2.107 2.098h-4.213c-1.123 0-2.106-.979-2.106-2.098V19.84c0-1.26.983-2.099 2.106-2.099zM32.833 17.742h4.213c1.123 0 2.106.98 2.106 2.1v4.197c0 1.119-.983 2.098-2.106 2.098h-4.213c-1.124 0-2.107-.979-2.107-2.098V19.84c0-1.26.983-2.099 2.107-2.099z" fill="#000"/><path opacity=".4" d="M7.272 30.475h4.213c1.123 0 2.106.98 2.106 2.1v4.197c0 1.119-.983 2.098-2.106 2.098H7.272c-1.124 0-2.107-.98-2.107-2.098v-4.198c-.14-1.12.843-2.099 2.107-2.099z" fill="#000"/><path opacity=".6" d="M20.051 30.475h4.213c1.124 0 2.107.98 2.107 2.1v4.197c0 1.119-.983 2.098-2.107 2.098h-4.213c-1.123 0-2.106-.98-2.106-2.098v-4.198c0-1.12.983-2.099 2.106-2.099z" fill="#000"/><path opacity=".4" d="M32.833 30.475h4.213c1.123 0 2.106.98 2.106 2.1v4.197c0 1.119-.983 2.098-2.106 2.098h-4.213c-1.124 0-2.107-.98-2.107-2.098v-4.198c0-1.12.983-2.099 2.107-2.099z" fill="#000"/></svg><svg width="14" height="17" viewBox="-1 -1 14 17" id="play-black-15" x="362.45" y="152" xmlns="http://www.w3.org/2000/svg"><path d="M3.086 12.583a1.111 1.111 0 000 1.59 1.111 1.111 0 001.59 0l5.884-5.857c.446-.447.446-1.172 0-1.59L4.676.87a1.111 1.111 0 00-1.59 0 1.111 1.111 0 000 1.59L8.19 7.534z"/></svg><svg width="12" height="14" viewBox="-1 -1 12 14" id="play-blue-12" x="90" y="350.52" xmlns="http://www.w3.org/2000/svg"><path class="bof64a0bed-966e-4e5a-87c8-8fbfdbbe77d5" d="M2.09 2.534L3.38.959l6.329 5.09-6.319 5.07-1.28-1.576L6.458 6.05z" fill="#009aff"/></svg><svg width="18" height="18" viewBox="-1 -1 18 18" id="play-blue-16" x="36" y="350.52" xmlns="http://www.w3.org/2000/svg"><g fill="#009aff"><path class="bpad6ed22e-685e-4e73-b600-9fe7421bdc5d" d="M8.005.04a7.955 7.955 0 107.955 7.955A7.955 7.955 0 008.005.039zm0 14.418a6.464 6.464 0 116.464-6.463 6.474 6.474 0 01-6.464 6.463z"/><path class="bpad6ed22e-685e-4e73-b600-9fe7421bdc5d" d="M10.988 7.995L6.016 5.01v5.967z"/></g></svg><svg width="24" height="24" viewBox="-1 -1 24 24" id="play-blue-20" x="224.16" y="123.32" xmlns="http://www.w3.org/2000/svg"><path class="bqad6ed22e-685e-4e73-b600-9fe7421bdc5d" d="M10.967.772a10.24 10.24 0 1010.24 10.24A10.24 10.24 0 0010.967.773zm0 18.561a8.32 8.32 0 118.32-8.32 8.333 8.333 0 01-8.32 8.32z" fill="#009aff"/><path class="bqad6ed22e-685e-4e73-b600-9fe7421bdc5d" fill="#009aff" d="M14.807 11.013l-6.4-3.84v7.68z"/></svg><svg width="12" height="14" viewBox="-1 -1 12 14" id="play-orange-12" x="102" y="350.52" xmlns="http://www.w3.org/2000/svg"><path class="brf64a0bed-966e-4e5a-87c8-8fbfdbbe77d5" d="M2.828 11.003l-1.28-1.575 4.347-3.494-4.368-3.515L2.817.844l6.33 5.09z" fill="#f5b014"/></svg><svg width="24" height="24" viewBox="-1 -1 24 24" id="play-orange-20" x="224.16" y="147.32" xmlns="http://www.w3.org/2000/svg"><path d="M8.415 6.564v8.921l7.886-4.782z" fill="#f7af1c"/><path style="line-height:normal;font-variant-ligatures:normal;font-variant-position:normal;font-variant-caps:normal;font-variant-numeric:normal;font-variant-alternates:normal;font-variant-east-asian:normal;font-feature-settings:normal;font-variation-settings:normal;text-indent:0;text-align:start;text-decoration-line:none;text-decoration-style:solid;text-decoration-color:#000;text-transform:none;text-orientation:mixed;white-space:normal;shape-padding:0;shape-margin:0;inline-size:0;isolation:auto;mix-blend-mode:normal;solid-color:#000;solid-opacity:1" d="M11.158.664C5.555.664.998 5.221.998 10.824s4.557 10.16 10.16 10.16 10.16-4.557 10.16-10.16S16.761.664 11.158.664zm0 1.469a8.679 8.679 0 018.692 8.691 8.68 8.68 0 01-8.692 8.694 8.682 8.682 0 01-8.693-8.694 8.68 8.68 0 018.693-8.691z" color="#000" font-weight="400" font-family="sans-serif" overflow="visible" fill="#f7af1c"/></svg><svg width="62" height="62" viewBox="-1 -1 62 62" id="play-orange-60" x="162.16" y="123.32" xmlns="http://www.w3.org/2000/svg"><circle cx="30.014" cy="29.752" r="29.392" fill="#fff" fill-opacity=".25"/><path d="M22.238 17.694v25.128L44.45 29.354z" fill="#f7af1c"/><path style="line-height:normal;font-variant-ligatures:normal;font-variant-position:normal;font-variant-caps:normal;font-variant-numeric:normal;font-variant-alternates:normal;font-variant-east-asian:normal;font-feature-settings:normal;font-variation-settings:normal;text-indent:0;text-align:start;text-decoration-line:none;text-decoration-style:solid;text-decoration-color:#000;text-transform:none;text-orientation:mixed;white-space:normal;shape-padding:0;shape-margin:0;inline-size:0;isolation:auto;mix-blend-mode:normal;solid-color:#000;solid-opacity:1" d="M29.965 1.077c-15.781 0-28.617 12.836-28.617 28.617s12.836 28.617 28.617 28.617 28.617-12.836 28.617-28.617c0-15.78-12.836-28.617-28.617-28.617zm0 4.137c13.547 0 24.48 10.933 24.48 24.48 0 13.548-10.933 24.486-24.48 24.486S5.479 43.24 5.479 29.694s10.939-24.48 24.486-24.48z" color="#000" font-weight="400" font-family="sans-serif" overflow="visible" fill="#f7af1c"/></svg><svg viewBox="-1 -1 152.67 152.67" width="152" height="152" id="play-video" y="44.52" xmlns="http://www.w3.org/2000/svg"><defs><filter id="bua" x="-.1" y="-.1" width="1.4" height="1.5"/></defs><path d="M75.314 12.023c-32.553 0-59.031 26.478-59.031 59.032 0 32.553 26.478 59.03 59.031 59.03s59.031-26.477 59.031-59.03c0-32.554-26.478-59.032-59.03-59.032z" transform="matrix(.99114 0 0 .99114 -1.195 -.738)" fill="#fff" filter="url(#bua)"/><path d="M57.225 46.852v48.184L99.82 69.209z" fill="#009aff"/></svg><svg width="12" height="14" viewBox="-1 -1 12 14" id="play-w-12" x="114" y="350.52" xmlns="http://www.w3.org/2000/svg"><path class="bvf64a0bed-966e-4e5a-87c8-8fbfdbbe77d5" d="M2.559 11.036l-1.28-1.574 4.348-3.495-4.369-3.515L2.548.878l6.33 5.089z" fill="#fff"/></svg><svg width="12" height="14" viewBox="-1 -1 12 14" id="prev-black-12" x="126" y="350.52" xmlns="http://www.w3.org/2000/svg"><path class="bwf64a0bed-966e-4e5a-87c8-8fbfdbbe77d5" fill="#1d1d1b" d="M7.205 10.999L.876 5.909 7.196.84l1.28 1.575L4.126 5.91l4.368 3.515z"/></svg><svg width="14" height="17" viewBox="-1 -1 14 17" id="prev-black-15" x="316" y="248.52" xmlns="http://www.w3.org/2000/svg"><path class="bxf64a0bed-966e-4e5a-87c8-8fbfdbbe77d5" fill="#1d1d1b" d="M8.36 12.536l-6.328-5.09 6.319-5.069 1.28 1.575-4.348 3.494 4.368 3.515z"/></svg><svg width="12" height="14" viewBox="-1 -1 12 14" id="prev-blue-12" x="138" y="350.52" xmlns="http://www.w3.org/2000/svg"><path class="byf64a0bed-966e-4e5a-87c8-8fbfdbbe77d5" d="M4.193 5.949l4.368 3.515-1.29 1.575-6.329-5.09 6.32-5.07 1.28 1.575z" fill="#009aff"/></svg><svg width="12" height="14" viewBox="-1 -1 12 14" id="prev-gray-12" x="150" y="350.52" xmlns="http://www.w3.org/2000/svg"><path class="bzf64a0bed-966e-4e5a-87c8-8fbfdbbe77d5" d="M1.004 5.948L7.323.88l1.28 1.575-4.348 3.494 4.368 3.515-1.29 1.575z" fill="#b3b3b3"/></svg><svg id="qa" data-name="a295ea52-4339-4763-84be-bfb0e360db63" version="1.1" width="82" height="82" viewBox="-1 -1 82 82" y="196.52" xmlns="http://www.w3.org/2000/svg"><defs id="cadefs4"><style id="castyle2">.cab95b70af-22be-4783-9a8c-ea09843f44f9{opacity:.4;isolation:isolate}.caaf75d419-d9c0-4be6-a552-926553f0c668{opacity:.2}</style></defs><g id="cag12" transform="matrix(4.25055 0 0 4.25055 -2.518 .702)"><path class="cab95b70af-22be-4783-9a8c-ea09843f44f9" d="M8 2H4a1 1 0 00-1 1v2a1 1 0 001 1h3l1 1V6a1 1 0 001-1V3a1 1 0 00-1-1zM6 5.25H4v-.5h2zm2 0H7v-.5h1zm0-1H4v-.5h4zm0-1H4v-.5h4z" id="capath6"/><path class="cab95b70af-22be-4783-9a8c-ea09843f44f9" d="M6 11H2a1 1 0 00-1 1v2a1 1 0 001 1h3l1 1v-1a1 1 0 001-1v-2a1 1 0 00-1-1zm-2 3.25H2v-.5h2zm2 0H5v-.5h1zm0-1H2v-.5h4zm0-1H2v-.5h4z" id="capath8"/><path class="cab95b70af-22be-4783-9a8c-ea09843f44f9" d="M18 6h-4a1 1 0 00-1 1v2a1 1 0 001 1v1l1-1h3a1 1 0 001-1V7a1 1 0 00-1-1zm-1 3.25h-3v-.5h3zm1-1h-4v-.5h4zm0-1h-4v-.5h4z" id="capath10"/></g><g class="caaf75d419-d9c0-4be6-a552-926553f0c668" id="cag20" transform="matrix(4.25055 0 0 4.25055 -2.518 .702)"><path d="M9 4a5.55 5.55 0 011-.09 6.12 6.12 0 012.15.39l-.06.06a5.06 5.06 0 00-.56.6.83.83 0 00-.19.4.87.87 0 00.22.67 1.22 1.22 0 00.67.51.83.83 0 00.22 0 1.51 1.51 0 00.64-.19l.21-.09A1 1 0 0114 6h1.74a7.8 7.8 0 00-.79-1A7 7 0 0010 3a6.63 6.63 0 00-1 .08z" id="capath14"/><path d="M4 11a6.64 6.64 0 01-.09-1 6 6 0 01.29-1.86 3.05 3.05 0 00.32.38 8 8 0 001.11 1l.09.07a.8.8 0 010 .27 1.67 1.67 0 00.14.89 1.64 1.64 0 00.2.29A1 1 0 017 12v1.36a1.54 1.54 0 01.22.35 1.9 1.9 0 01.06.31 2 2 0 00.06.4 1 1 0 00.92.82h.08c.49-.05.82-.48.87-1.14a1.19 1.19 0 01.09-.44h.08a1 1 0 00.49-.24.94.94 0 00.16-.91v-.19c0-.04.23-.3.31-.37l.83-.71a1.11 1.11 0 00.28-1.24 1.64 1.64 0 00-.66-.81A1.28 1.28 0 009.59 9a1.4 1.4 0 00-.3.18l-.08.05v-.05A1.19 1.19 0 019.09 9a3.11 3.11 0 00-.15-.33 1.5 1.5 0 00-1.29-.73h-.2a2.26 2.26 0 01-1-.41.83.83 0 01.28-.06h.16a1.33 1.33 0 00.59 0A1.61 1.61 0 008 7.18l.1-.08a.77.77 0 01.36-.1 1 1 0 001.07-1 2.46 2.46 0 00-.25-1.19c-.1-.24-.19-.48-.28-.73V5a1 1 0 01-1 1v1L7 6H4.26A6.93 6.93 0 003 10a6.63 6.63 0 00.08 1z" id="capath16"/><path d="M14 11v-1a1 1 0 01-1-1V7.76a1.91 1.91 0 00-.63.66c-.1.19-.61 1.16-.18 1.76a1.71 1.71 0 00.55.45 5.45 5.45 0 00.76.4l.17.07a1.06 1.06 0 01.4.2.62.62 0 010 .4 2.18 2.18 0 01-.14.51 1.51 1.51 0 00.13 1.69 1.4 1.4 0 00.33.27 6.06 6.06 0 01-8 .74A1.07 1.07 0 016 15v.74A7 7 0 0017 10h-2z" id="capath18"/></g></svg><svg width="18" height="18" fill="currentColor" class="cbbi cbbi-question-circle-fill" viewBox="-1 -1 18 18" id="qm-16-gray" x="54" y="350.52" xmlns="http://www.w3.org/2000/svg"><path d="M8.013.088a7.901 7.901 0 107.901 7.901A7.901 7.901 0 008.013.088zm0 12.543A.988.988 0 119 11.644v.049a.988.988 0 01-.987.938zm.405-3.792a.87.87 0 00.296.612l-1.185.385a1.54 1.54 0 01-.504-1.146c0-1.649 2.173-1.817 2.173-2.962 0-.524-.405-.988-1.284-.988a2.291 2.291 0 00-1.876.988l-.91-.988a3.753 3.753 0 012.964-1.333c1.699 0 2.746.898 2.746 2.113 0 1.975-2.4 2.104-2.4 3.319z" opacity=".4"/></svg><svg viewBox="-1 -1 52 52" width="52" height="52" id="quote" x="246" y="196.52" xmlns="http://www.w3.org/2000/svg"><g fill="#009bff"><path d="M2.5 16.5c-5.2 11-.7 27.5-.7 27.5h18.1V26.2h-7.3s-1-6.9 2.3-9.7c3.5-3 7.1-2.9 8.1-3.1 1-.2-1.2-7.3-1.2-7.3S7.7 5.5 2.5 16.5zM48.6 6.1s-14-.6-19.3 10.4-.8 27.5-.8 27.5h18.1V26.2h-7.3s-1-6.9 2.3-9.7c3.5-3 7.1-2.9 8.1-3.1 1-.2-1.1-7.3-1.1-7.3z"/></g></svg><svg width="24" height="24" viewBox="-1 -1 7.82 7.82" id="radio" x="246" y="248.52" xmlns="http://www.w3.org/2000/svg"><path style="-inkscape-stroke:none" d="M2.93.296A2.668 2.668 0 00.265 2.962a2.668 2.668 0 002.667 2.666 2.668 2.668 0 002.666-2.666A2.668 2.668 0 002.93.296zm0 .247a2.417 2.417 0 012.42 2.42A2.417 2.417 0 012.93 5.38 2.417 2.417 0 01.512 2.962a2.417 2.417 0 012.42-2.42z" color="#000" fill="#b3b3b3"/></svg><svg width="24" height="24" viewBox="-1 -1 7.82 7.82" id="radio-checked" x="270" y="248.52" xmlns="http://www.w3.org/2000/svg"><g transform="matrix(.1281 0 0 .1281 -10.399 -13.529)"><path style="-inkscape-stroke:none" d="M104.05 107.92c-11.483 0-20.812 9.33-20.812 20.812 0 11.484 9.33 20.813 20.813 20.813 11.483 0 20.812-9.33 20.812-20.813 0-11.483-9.329-20.812-20.812-20.812zm0 1.928c10.442 0 18.886 8.443 18.886 18.884 0 10.442-8.444 18.885-18.885 18.885-10.442 0-18.885-8.443-18.885-18.885 0-10.441 8.443-18.884 18.885-18.884z" color="#000" fill="#b3b3b3"/><circle cx="104.051" cy="128.733" r="12.315" fill="#27aeff"/></g></svg><svg width="26" height="26" fill="currentColor" class="cfbi cfbi-check" viewBox="-1 -1 26 26" id="ready" x="330.45" y="257" xmlns="http://www.w3.org/2000/svg"><path d="M19.415 3.749a1.965 1.965 0 012.803 2.75L11.765 19.571a1.965 1.965 0 01-2.83.053l-6.93-6.932A1.965 1.965 0 114.78 9.915l5.486 5.483 9.098-11.592a.7.7 0 01.052-.057z" fill="#fff"/></svg><svg width="14" height="14" viewBox="-1 -1 14 14" id="right-black-12" x="162" y="350.52" xmlns="http://www.w3.org/2000/svg"><path class="cgf64a0bed-966e-4e5a-87c8-8fbfdbbe77d5" d="M2.532 2.391L3.822.817l6.329 5.09-6.319 5.068-1.28-1.574L6.9 5.906z"/></svg><svg width="26" height="26" viewBox="-1 -1 26 26" id="rss" x="330.45" y="283" xmlns="http://www.w3.org/2000/svg"><g fill="#5f5f5f"><circle cx="7" cy="43" r="7" transform="translate(2.787 2.451) scale(.38316)"/><path d="M2.787 9.425v3.486c4.79 0 8.698 3.909 8.698 8.698h3.487c0-6.743-5.441-12.184-12.185-12.184z"/><path d="M2.787 2.451v3.487c8.66 0 15.672 7.012 15.672 15.671h3.486c0-10.575-8.583-19.158-19.158-19.158z"/></g></svg><svg width="27" height="27" fill="currentColor" class="cibi cibi-rss" viewBox="-1 -1 27 27" id="rss-25" x="330.45" y="184" xmlns="http://www.w3.org/2000/svg"><path d="M7.881 20.093a2.876 2.876 0 11-5.752 0 2.876 2.876 0 015.752 0zM2.13 3.796a1.917 1.917 0 011.918-1.918c10.59 0 19.173 8.584 19.173 19.173a1.917 1.917 0 11-3.835 0A15.339 15.339 0 004.047 5.713a1.917 1.917 0 01-1.918-1.917zm0 7.669a1.917 1.917 0 011.918-1.917A11.504 11.504 0 0115.55 21.05a1.917 1.917 0 11-3.835 0 7.67 7.67 0 00-7.67-7.669 1.917 1.917 0 01-1.917-1.917z" fill="#999"/></svg><svg width="26" height="26" viewBox="-1 -1 26 26" id="rss-orange" x="248.45" y="164" xmlns="http://www.w3.org/2000/svg"><g fill="#f6ac25"><circle cx="7" cy="43" r="7" transform="translate(2.787 2.451) scale(.38316)"/><path d="M2.787 9.425v3.486c4.79 0 8.698 3.909 8.698 8.698h3.487c0-6.743-5.441-12.184-12.185-12.184z"/><path d="M2.787 2.451v3.487c8.66 0 15.672 7.012 15.672 15.671h3.486c0-10.575-8.583-19.158-19.158-19.158z"/></g></svg><svg width="32" height="32" viewBox="-1 -1 32 32" id="rss-orange-30" x="330.45" y="152" xmlns="http://www.w3.org/2000/svg"><circle cx="7" cy="43" r="7" transform="matrix(.50051 0 0 .50051 2.538 2.776)" fill="#f6ac25"/><g fill="#f6ac25"><path d="M2.538 11.886v4.554c6.257 0 11.362 5.105 11.362 11.362h4.554A15.892 15.892 0 002.538 11.886z"/><path d="M2.538 2.776v4.555c11.312 0 20.471 9.16 20.471 20.47h4.555c0-13.813-11.212-25.025-25.026-25.025z"/></g></svg><svg id="scripts" data-name="b79e6c9b-e682-4f4f-83b4-6e429bfdd811" version="1.1" width="82" height="82" viewBox="-1 -1 82 82" x="82" y="196.52" xmlns="http://www.w3.org/2000/svg"><defs id="cldefs4"><style id="clstyle2">.cleb479655-c468-470d-a4b7-ff2ae6cc268b{opacity:.2}.claee3f441-3e49-4981-a59d-34c60bb18e78,.cleb479655-c468-470d-a4b7-ff2ae6cc268b{isolation:isolate}.claee3f441-3e49-4981-a59d-34c60bb18e78{opacity:.4}</style></defs><path class="cleb479655-c468-470d-a4b7-ff2ae6cc268b" d="M48.572 7.497v8.194a8.194 8.194 0 008.194 8.195h8.195z" id="clpath6" stroke-width="4.097"/><path class="claee3f441-3e49-4981-a59d-34c60bb18e78" d="M56.766 27.983a12.292 12.292 0 01-12.292-12.292V7.497H22.76a7.047 7.047 0 00-6.965 7.13v51.296a7.047 7.047 0 006.965 7.13h35.236a7.047 7.047 0 006.966-7.13v-37.94zM35.87 38.759l-8.194 3.646 8.194 3.729v3.851l-11.882-5.9v-3.278l11.882-5.9zm3.565 13.807h-2.458l4.302-20.486h2.499zm17.331-8.48l-11.882 5.899v-3.81l8.195-3.729-8.195-3.687v-3.81l11.882 5.858z" id="clpath8" stroke-width="4.097"/></svg><svg width="22" height="22" fill="currentColor" class="cmbi cmbi-search" viewBox="-1 -1 22 22" id="search" x="44" y="328.52" xmlns="http://www.w3.org/2000/svg"><path d="M14.295 12.633a7.481 7.481 0 10-1.607 1.61h-.002c.035.045.072.089.113.132l4.431 4.43a1.151 1.151 0 001.629-1.627l-4.431-4.43a1.159 1.159 0 00-.133-.116zm.297-4.424a6.33 6.33 0 11-12.66 0 6.33 6.33 0 0112.66 0z" fill="#7d7d7d"/></svg><svg width="34" height="34" fill="currentColor" class="cnbi cnbi-search" viewBox="-1 -1 34 34" id="search-32" x="330.45" y="118" xmlns="http://www.w3.org/2000/svg"><path d="M23.214 20.4a12.295 12.295 0 10-2.642 2.644h-.002c.057.075.117.147.185.217l7.283 7.282a1.892 1.892 0 002.676-2.674l-7.282-7.283a1.905 1.905 0 00-.218-.189zm.488-7.272a10.403 10.403 0 11-20.806 0 10.403 10.403 0 0120.806 0z" fill="#000" fill-opacity=".543"/></svg><svg width="50" height="50" fill="currentColor" class="cobi cobi-search" viewBox="-1 -1 50 50" id="search-48" x="150" y="278.52" xmlns="http://www.w3.org/2000/svg"><path d="M33.238 28.825a16.267 16.267 0 10-3.496 3.499h-.002c.075.1.155.195.245.288l9.635 9.635a2.503 2.503 0 003.541-3.54l-9.635-9.634a2.52 2.52 0 00-.288-.25zm.646-9.62a13.764 13.764 0 11-27.529 0 13.764 13.764 0 0127.529 0z" fill="#000" fill-opacity=".543"/></svg><svg width="46" height="46" fill="none" viewBox="-1 -1 46 46" id="shield" x="330.45" xmlns="http://www.w3.org/2000/svg"><path opacity=".6" d="M4.129 5.444v16.764c1.374 9.755 8.519 17.862 18 20.61 0 0 18-6.045 18-20.61V5.307C28.724.223 15.67.223 4.129 5.444zM37.655 22.07c0 10.58-15.389 18-15.389 18v-36c11.267.138 15.39 2.611 15.39 2.611z" fill="#000"/></svg><svg width="46" height="46" fill="none" viewBox="-1 -1 46 46" id="speedometer" x="330.45" y="46" xmlns="http://www.w3.org/2000/svg"><path opacity=".6" d="M19.637 19.494c-3.077 1.172-4.836 4.396-4.25 7.62.293 2.783 2.345 4.981 5.129 5.42 2.49.587 5.128-.585 6.447-2.783.44-.586.733-1.319.879-1.905l8.206-17.437zm5.275 7.033a3.18 3.18 0 01-2.345 2.344c-1.612.294-3.223-.732-3.517-2.344-.146-.44-.146-.879 0-1.172.147-1.172 1.026-2.198 2.345-2.344 1.612-.294 3.223.732 3.517 2.344v1.172z" fill="#000"/><path opacity=".4" d="M39.71 14.51c-.732-.732-1.904-.732-2.784 0-.732.88-.732 2.052 0 2.931 3.81 3.957 2.785 10.99 2.785 10.99-.147 1.026.44 2.198 1.611 2.344h.44a2.055 2.055 0 002.051-1.758c0-.293 1.466-9.085-3.81-14.653z" fill="#000"/><path opacity=".6" d="M29.893 11.141c.879.586 2.051.293 2.637-.586V10.116c.44-1.026 0-2.198-1.025-2.784-7.473-3.37-16.411-2.345-23.152 2.784C2.346 14.658-.73 21.984.148 29.31c.146 1.172 1.172 1.904 2.344 1.758 1.026-.147 1.905-1.172 1.612-2.345-.732-6.007 1.905-11.868 6.74-15.385 5.422-4.103 12.748-4.982 19.049-2.198z" fill="#000"/></svg><svg width="26" height="26" viewBox="-1 -1 26 26" id="twitter" x="274.45" y="164" xmlns="http://www.w3.org/2000/svg"><path d="M10.79 6.851c1.124 1.512 2.063 2.77 2.107 2.77.044 0 1.201-1.247 2.578-2.759l2.522-2.758h1.431l-.306.331c-.174.188-1.321 1.435-2.533 2.78l-2.654 2.88-.426.452 3.276 4.413c1.802 2.439 3.277 4.414 3.277 4.502a19.659 19.859 0 01-2.381.066h-2.403l-2.184-3.012a18.152 18.336 0 00-2.348-2.924s-1.3 1.402-2.774 3.023L5.296 19.55h-.677a2.861 2.89 0 01-.688 0s1.398-1.567 3.101-3.431l3.124-3.475s-1.387-1.92-3.102-4.281C5.34 6.002 3.931 4.104 3.931 4.104H8.747z" fill="#5f5f5f"/></svg><svg width="26" height="26" viewBox="-1 -1 26 26" id="twitter-orange" x="300.45" y="164" xmlns="http://www.w3.org/2000/svg"><path d="M10.904 6.87c1.161 1.559 2.13 2.857 2.176 2.857.045 0 1.24-1.287 2.66-2.846l2.602-2.846h1.477l-.316.341c-.18.194-1.363 1.48-2.614 2.869l-2.739 2.971-.44.467 3.381 4.554c1.86 2.516 3.381 4.553 3.381 4.644a20.285 20.492 0 01-2.456.069h-2.48l-2.254-3.108a18.73 18.92 0 00-2.423-3.017s-1.34 1.446-2.862 3.12l-2.761 3.027h-.699a2.953 2.983 0 01-.71 0s1.443-1.616 3.2-3.54l3.224-3.586s-1.431-1.98-3.2-4.417C5.28 5.993 3.826 4.035 3.826 4.035H8.797z" fill="#f6ac25"/></svg><svg id="user_group" data-name="Layer1" version="1.1" width="82" height="82" viewBox="-1 -1 82 82" x="164" y="196.52" xmlns="http://www.w3.org/2000/svg"><defs id="ctdefs4"><style id="ctstyle2">.ctf793f8f6-f6eb-4abf-93bd-0acf620ffc84{fill:#1d1d1b}</style></defs><g class="cte0d314b0-b2a6-4c31-b515-469951757e7c" id="ctg10" transform="matrix(4.9049 0 0 4.9049 -8.98 -6.533)" fill="#1d1d1b" fill-opacity=".4"><circle class="ctf793f8f6-f6eb-4abf-93bd-0acf620ffc84" cx="10" cy="7" r="3" id="ctcircle6" fill="#1d1d1b" fill-opacity=".4"/><path class="ctf793f8f6-f6eb-4abf-93bd-0acf620ffc84" d="M14.9 13.31l-.64-2a1.92 1.92 0 00-.87-1.11 1.06 1.06 0 00-1.17 0A4 4 0 0110 11a4 4 0 01-2.22-.81 1.06 1.06 0 00-1.17 0 1.92 1.92 0 00-.87 1.11l-.64 2A2 2 0 006.91 16h6.18a2 2 0 001.81-2.69z" id="ctpath8" fill="#1d1d1b" fill-opacity=".4"/></g><g class="cte4a4007d-7557-4fe1-ae16-03b8befa0fc0" id="ctg16" transform="matrix(4.9049 0 0 4.9049 -8.98 -6.533)" fill="#000" fill-opacity=".2"><path class="ctf793f8f6-f6eb-4abf-93bd-0acf620ffc84" d="M5.73 8.25a3 3 0 01-1.66-.61.81.81 0 00-.87 0 1.47 1.47 0 00-.65.83L2.07 10a1.52 1.52 0 001.36 2h1l.32-1a2.92 2.92 0 011.33-1.7 1.73 1.73 0 01.5-.22 3.89 3.89 0 01-.4-.88 2.3 2.3 0 01-.45.05z" id="ctpath12" fill="#000" fill-opacity=".2"/><path class="ctf793f8f6-f6eb-4abf-93bd-0acf620ffc84" d="M5.73 3a2.25 2.25 0 000 4.5 2.85 2.85 0 00.29 0A3.57 3.57 0 016 7a4 4 0 011.5-3.12A2.23 2.23 0 005.73 3z" id="ctpath14" fill="#000" fill-opacity=".2"/></g><g class="cte4a4007d-7557-4fe1-ae16-03b8befa0fc0" id="ctg22" transform="matrix(4.9049 0 0 4.9049 -8.98 -6.533)" fill="#000" fill-opacity=".2"><path class="ctf793f8f6-f6eb-4abf-93bd-0acf620ffc84" d="M14 7.47a2.85 2.85 0 00.29 0 2.25 2.25 0 000-4.5 2.23 2.23 0 00-1.77.88A4 4 0 0114 7a3.57 3.57 0 010 .47z" id="ctpath18" fill="#000" fill-opacity=".2"/><path class="ctf793f8f6-f6eb-4abf-93bd-0acf620ffc84" d="M17.93 10l-.48-1.53a1.47 1.47 0 00-.65-.83.81.81 0 00-.87 0 3 3 0 01-1.66.61 2.3 2.3 0 01-.45-.05 3.89 3.89 0 01-.4.88 1.73 1.73 0 01.5.22 2.92 2.92 0 011.31 1.7l.32 1h1a1.52 1.52 0 001.38-2z" id="ctpath20" fill="#000" fill-opacity=".2"/></g></svg><svg width="12" height="12" fill="currentColor" class="cubi cubi-x" viewBox="-1 -1 12 12" id="x-10-gray" x="144" y="328.52" xmlns="http://www.w3.org/2000/svg"><path d="M.645.718a.645.645 0 01.914 0l3.415 3.416L8.389.718a.646.646 0 01.913.914L5.886 5.047l3.416 3.415a.646.646 0 01-.913.914L4.974 5.959 1.559 9.376a.646.646 0 01-.914-.914L4.06 5.047.645 1.632a.645.645 0 010-.914z" fill="#333"/></svg><svg width="18" height="18" fill="currentColor" class="cvbi cvbi-x" viewBox="-1 -1 18 18" id="x-16-gray" x="72" y="350.52" xmlns="http://www.w3.org/2000/svg"><path d="M1.574 1.68a.95.95 0 011.346 0l5.027 5.03 5.027-5.03a.951.951 0 011.346 1.346L9.29 8.053l5.03 5.028a.951.951 0 01-1.346 1.345l-5.027-5.03-5.027 5.03a.951.951 0 01-1.346-1.345l5.03-5.028-5.03-5.027a.95.95 0 010-1.345z" fill="#828282"/></svg><svg width="26" height="26" viewBox="-1 -1 26 26" id="youtube" x="298" y="196.52" xmlns="http://www.w3.org/2000/svg"><path d="M20.242 7.604a2.592 2.592 0 00-1.76-1.759c-1.56-.44-7.84-.44-7.84-.44s-6.28 0-7.84.4c-.84.24-1.52.92-1.76 1.799-.4 1.558-.4 4.795-.4 4.795s0 3.277.4 4.796c.24.839.92 1.518 1.76 1.758 1.6.44 7.84.44 7.84.44s6.28 0 7.84-.4c.84-.24 1.52-.919 1.76-1.758.4-1.559.4-4.796.4-4.796s0-3.277-.4-4.835zm-11.6 7.792V9.402l5.2 2.997z" fill="#5f5f5f"/></svg><svg width="26" height="26" viewBox="-1 -1 26 26" id="youtube-orange" x="298" y="222.52" xmlns="http://www.w3.org/2000/svg"><path d="M20.242 7.604a2.592 2.592 0 00-1.76-1.759c-1.56-.44-7.84-.44-7.84-.44s-6.28 0-7.84.4c-.84.24-1.52.92-1.76 1.799-.4 1.558-.4 4.795-.4 4.795s0 3.277.4 4.796c.24.839.92 1.518 1.76 1.758 1.6.44 7.84.44 7.84.44s6.28 0 7.84-.4c.84-.24 1.52-.919 1.76-1.758.4-1.559.4-4.796.4-4.796s0-3.277-.4-4.835zm-11.6 7.792V9.402l5.2 2.997z" fill="#f6ac25"/></svg></svg>