<svg width="670" height="119"><use xmlns:xlink="http://www.w3.org/1999/xlink" xlink:href="/Content/www/images/svg/spritesheet.svg?ver=041dcd79ecaba3fffbe11e563172281b#TopHeaderAgingCareLogo"><symbol id="TopHeaderAgingCareLogo" viewBox="0 0 395 69.37">
        <path class="cls-1" style="fill: #fff;" d="M74.44,36.38h-.62a23,23,0,0,0,0,46.07h.62A23,23,0,0,0,92.4,73v2.61a15.59,15.59,0,0,1-25.62,12l-3,3.33a20,20,0,0,0,33-15.15h0V59.42A23.07,23.07,0,0,0,74.44,36.38ZM74.13,78A18.58,18.58,0,1,1,92.4,59.42,18.59,18.59,0,0,1,74.13,78Z" transform="translate(-2 -26.35)"></path>
        <path style="fill: #fff;" class="cls-1" d="M183.66,36.38H183a23,23,0,0,0,0,46.07h.62a23,23,0,0,0,18-9.42v2.61a15.59,15.59,0,0,1-25.62,12l-3,3.33a20,20,0,0,0,33-15.15h0V59.42A23.07,23.07,0,0,0,183.66,36.38ZM183.35,78a18.58,18.58,0,1,1,18.27-18.57A18.59,18.59,0,0,1,183.35,78Z" transform="translate(-2 -26.35)"></path>
        <path class="cls-1" style="fill: #fff;" d="M43.56,81.88,38.78,69.5H12.06L7.29,81.88H2l21-54.3h4.92l21,54.3ZM36.9,64.65,25.53,34.89h-.14L14,64.65Z" transform="translate(-2 -26.35)"></path>
        <path class="cls-1" style="fill: #fff;" d="M107.43,26.35a3.26,3.26,0,1,1-3.26,3.25A3.34,3.34,0,0,1,107.43,26.35ZM109.89,40V81.88H105V40Z" transform="translate(-2 -26.35)"></path>
        <path class="cls-1" style="fill: #fff;" d="M118.58,40h4.92v7.09h.15c1.88-4,7.82-8.32,14.41-8.32,10.43,0,16.29,6.88,16.29,16.72V81.88h-4.92V55.45c0-7.09-4.71-11.94-11.81-11.94S123.72,49.15,123.5,56V81.88h-4.92Z" transform="translate(-2 -26.35)"></path>
        <path class="cls-1" style="fill: #fff;" d="M268.25,46.69H257.68c-3-6.15-9.34-10.93-16.73-10.93-10.13,0-18.46,8.76-18.46,19s8.33,19,18.46,19c7.39,0,13.69-4.71,16.73-10.93h10.57c-2.82,12.45-14.63,20.34-27.3,20.34-16.14,0-29.1-12.23-29.1-28.38s13-28.38,29.1-28.38C253.62,26.35,265.43,34.24,268.25,46.69Z" transform="translate(-2 -26.35)"></path>
        <path class="cls-1" style="fill: #fff;" d="M308,75.73h-.15c-2.89,3.91-7.38,7.38-14,7.38-12.53,0-21.07-9.48-21.07-22.23s8.54-22.15,21.07-22.15a16.9,16.9,0,0,1,14,7.31H308V40h10.28V81.88H308ZM295.77,48.14c-7.17,0-12.24,6-12.24,12.74S288.6,73.7,295.77,73.7,308,67.69,308,60.88,303,48.14,295.77,48.14Z" transform="translate(-2 -26.35)"></path>
        <path class="cls-1" style="fill: #fff;" d="M327,40h9.12v5.79h.15c2.17-3.69,5.72-7,11.44-7h.87V49.15h-2.39a9.33,9.33,0,0,0-9.27,8.69v24H327Z" transform="translate(-2 -26.35)"></path>
        <path class="cls-1" style="fill: #fff;" d="M396.42,65.59H362.61c1.08,4.64,5.86,8.62,11.73,8.62a11.2,11.2,0,0,0,9.41-4.93H394.9c-3,8.48-11.22,13.83-20.56,13.83-12.53,0-22.74-9.55-22.74-22.23s10.28-22.15,22.88-22.15A22.28,22.28,0,0,1,397,60.88,21,21,0,0,1,396.42,65.59ZM386,56.68a11.36,11.36,0,0,0-11.51-9.26,11.66,11.66,0,0,0-11.73,9.26Z" transform="translate(-2 -26.35)"></path>
    </symbol></use></svg>