<svg xmlns="http://www.w3.org/2000/svg" viewBox="0 0 712.67 659.27"><defs><style>.cls-6{fill:#231f20}</style></defs><g id="_3" data-name="#3"><path d="m365.53 179.2 109.58 33.61-22.25 63.88 128.36-97.83-215.69.34z" style="fill:#ffdb00"/><path d="m488.59 483.07-133-91.29 66.43.42-5.45-116.81 72.02 207.68z" style="fill:#00a668"/><path d="m186.19 484.29 46.93-156.93 18.84 65.3 107.75-39.33-173.52 130.96z" style="fill:#803d97"/><path d="m245.5 179.98-55.47 37.5 68.18 93.91-173.1-131.53 160.39.12z" style="fill:#f08123"/><path d="m388.27 152-54.11-40.59-65.3 94.2L334.04 0l54.23 152z" style="fill:#00a8e0"/><path d="M32.94 637.08 25 658.33H1.47L45.35 549h23.53l43.17 109.38h-24.4l-7.94-21.25Zm23.53-62.35-16 42.5h31.9ZM122.86 658.33v-116h22.23v116ZM168 658.33v-116h22.24v116ZM296.51 616.76c0 25.48-14.29 42.51-36.09 42.51-10.83 0-19.35-4.69-25-13.13v12.19h-22.21v-116h22.23v44.27c5.49-8.43 14-13.12 24.54-13.12 21.8 0 36.53 17.34 36.53 43.28ZM274 616c0-13.43-7.8-23.12-19.2-23.12s-19.35 9.53-19.35 23.12c0 13.91 7.94 23.28 19.35 23.28S274 629.74 274 616ZM387.73 616.29c0 25.63-16.75 43-41.58 43s-41.72-17.35-41.72-43 16.75-42.81 41.72-42.81 41.58 17.03 41.58 42.81Zm-60.92.32c0 13.75 7.79 23.13 19.34 23.13s19.35-9.38 19.35-23.13-7.94-23.13-19.35-23.13-19.34 9.38-19.34 23.13ZM476.21 658.33h-22.09v-14.84c-5.34 10.62-14.29 15.78-26 15.78-17.19 0-28-12.35-28-32.19v-52.82h22.23v45.94c0 10.63 5.63 17 14.58 17 10.68-.16 17.18-9.22 17.18-21.41v-41.53h22.09ZM575.22 605.51v52.82H553v-45.78c0-10.63-5.78-17.19-15.3-17.19-11.12.15-17.76 9.22-17.76 21.56v41.41H497.7v-84.07h22.23V589c5.49-10.47 14.73-15.47 26.85-15.63 17.32-.05 28.44 12.45 28.44 32.14ZM671.06 658.33H649V646c-5.48 8.59-13.86 13.28-24.54 13.28-22.08 0-36.66-17.35-36.66-43.29 0-25.62 14.43-42.66 36.08-42.66 11 0 19.49 4.69 25.12 13.28v-44.23h22.09ZM649 616.61c0-13.75-7.94-23.28-19.34-23.28S610.14 603 610 616.61c.14 13.75 7.94 23.28 19.63 23.28 11.37 0 19.37-9.53 19.37-23.28Z" class="cls-6"/><text style="font-size:45.73px;font-family:Roboto-Light,Roboto;font-weight:300;fill:#231f20" transform="translate(678.68 572.78)">®</text></g></svg>