<svg id="svg" version="1.1" xmlns="http://www.w3.org/2000/svg"  viewBox="0, 0, 400,400"><g id="svgg"><path id="path0" d="M193.932 83.745 C 187.902 85.161,185.778 87.709,178.732 101.985 C 175.602 108.328,167.003 125.685,159.624 140.556 C 152.246 155.426,142.165 175.759,137.223 185.741 C 132.281 195.722,123.571 213.306,117.867 224.815 C 79.754 301.724,82.589 295.699,82.597 299.789 C 82.611 306.857,86.934 312.737,93.650 314.824 C 98.905 316.457,100.664 316.011,116.296 309.082 C 117.824 308.405,123.574 305.901,129.074 303.519 C 134.574 301.136,140.907 298.385,143.148 297.406 C 152.642 293.257,162.573 288.934,170.370 285.556 C 201.287 272.161,207.406 269.420,208.986 268.261 C 217.351 262.125,217.069 248.731,208.453 242.978 C 202.841 239.231,198.082 239.251,189.444 243.060 C 187.611 243.869,183.111 245.831,179.444 247.420 C 175.778 249.009,170.028 251.508,166.667 252.973 C 163.306 254.437,158.889 256.352,156.852 257.228 C 154.815 258.105,148.328 260.919,142.437 263.483 C 136.545 266.047,131.684 268.104,131.635 268.054 C 131.585 268.004,135.963 259.046,141.364 248.148 C 146.764 237.250,153.898 222.833,157.217 216.111 C 160.536 209.389,170.868 188.556,180.177 169.815 C 189.487 151.074,197.261 135.339,197.454 134.847 C 197.934 133.626,197.799 133.411,203.332 144.259 C 206.033 149.556,210.036 157.389,212.227 161.667 C 214.419 165.944,220.333 177.528,225.369 187.407 C 230.406 197.287,235.988 208.204,237.773 211.667 C 239.559 215.130,243.731 223.296,247.044 229.815 C 250.357 236.333,258.019 251.333,264.070 263.148 C 270.120 274.963,277.960 290.281,281.491 297.188 C 288.552 311.000,289.617 312.509,293.720 314.504 C 305.290 320.133,317.843 311.065,316.283 298.204 C 315.967 295.597,315.792 295.220,306.569 277.222 C 303.437 271.111,296.407 257.361,290.946 246.667 C 285.486 235.972,279.561 224.389,277.780 220.926 C 275.999 217.463,271.915 209.463,268.703 203.148 C 265.491 196.833,259.743 185.583,255.930 178.148 C 248.018 162.722,242.918 152.751,230.738 128.889 C 210.001 88.266,211.098 90.324,209.004 88.117 C 205.234 84.144,199.419 82.457,193.932 83.745 " stroke="none" fill="#049bdb" fill-rule="evenodd"/><path id="path1" d="M0.000 200.000 L 0.000 400.000 200.000 400.000 L 400.000 400.000 400.000 200.000 L 400.000 0.000 200.000 0.000 L 0.000 0.000 0.000 200.000 M204.495 84.527 C 209.656 87.079,209.984 87.553,219.540 106.296 C 226.064 119.093,256.881 179.404,262.214 189.815 C 264.406 194.093,268.326 201.759,270.926 206.852 C 273.526 211.944,277.528 219.778,279.820 224.259 C 282.111 228.741,288.115 240.491,293.161 250.370 C 298.207 260.250,305.287 274.097,308.895 281.141 C 316.352 295.702,316.716 296.608,316.704 300.627 C 316.661 315.295,297.903 322.176,288.671 310.910 C 287.456 309.428,272.954 281.305,232.614 202.205 C 229.649 196.390,220.651 178.785,212.619 163.082 L 198.016 134.532 187.674 155.322 C 181.985 166.756,175.949 178.944,174.260 182.407 C 172.572 185.870,162.738 205.704,152.409 226.481 C 133.171 265.177,132.085 267.407,132.475 267.407 C 132.599 267.407,135.135 266.340,138.110 265.036 C 144.182 262.373,155.515 257.454,161.667 254.811 C 165.986 252.955,176.667 248.298,186.481 243.990 C 196.372 239.649,198.124 239.229,202.516 240.144 C 215.237 242.797,219.832 257.926,210.703 267.101 C 208.527 269.288,207.847 269.624,189.074 277.778 C 180.519 281.494,170.852 285.700,167.593 287.124 C 164.333 288.549,160.583 290.176,159.259 290.741 C 157.935 291.305,154.102 292.972,150.741 294.446 C 147.380 295.919,142.963 297.842,140.926 298.719 C 136.989 300.413,135.117 301.226,115.370 309.817 C 100.855 316.132,99.560 316.483,94.750 315.410 C 85.710 313.395,80.062 303.762,82.939 295.266 C 83.334 294.101,90.021 280.315,97.799 264.630 C 124.117 211.561,133.402 192.821,140.372 178.704 C 186.006 86.274,185.436 87.345,190.398 84.795 C 194.999 82.430,200.058 82.334,204.495 84.527 " stroke="none" fill="#fbfcfc" fill-rule="evenodd"/><path id="path2" d="M196.394 83.229 C 196.957 83.314,197.790 83.312,198.246 83.224 C 198.701 83.136,198.241 83.066,197.222 83.069 C 196.204 83.072,195.831 83.144,196.394 83.229 " stroke="none" fill="#96ccec" fill-rule="evenodd"/><path id="path3" d="M186.458 87.870 L 185.370 89.074 186.574 87.986 C 187.696 86.972,187.948 86.667,187.662 86.667 C 187.598 86.667,187.056 87.208,186.458 87.870 M207.778 86.783 C 207.778 86.846,208.319 87.388,208.981 87.986 L 210.185 89.074 209.097 87.870 C 208.083 86.748,207.778 86.496,207.778 86.783 M82.308 300.000 C 82.308 300.713,82.384 301.005,82.478 300.648 C 82.571 300.292,82.571 299.708,82.478 299.352 C 82.384 298.995,82.308 299.287,82.308 300.000 " stroke="none" fill="#5ab5e3" fill-rule="evenodd"/><path id="path4" d="M198.801 239.892 C 199.261 239.980,199.928 239.977,200.282 239.884 C 200.636 239.791,200.259 239.719,199.444 239.723 C 198.630 239.727,198.340 239.803,198.801 239.892 M288.519 310.857 C 288.519 310.920,289.060 311.462,289.722 312.060 L 290.926 313.148 289.838 311.944 C 288.824 310.822,288.519 310.570,288.519 310.857 M300.093 316.552 C 300.449 316.645,301.032 316.645,301.389 316.552 C 301.745 316.458,301.454 316.382,300.741 316.382 C 300.028 316.382,299.736 316.458,300.093 316.552 " stroke="none" fill="#c8e1f4" fill-rule="evenodd"/></g></svg>