<?xml version="1.0" encoding="utf-8"?>
<!-- Generator: Adobe Illustrator 21.0.0, SVG Export Plug-In . SVG Version: 6.00 Build 0)  -->
<svg version="1.2" baseProfile="tiny-ps" id="Layer_1" xmlns="http://www.w3.org/2000/svg" xmlns:xlink="http://www.w3.org/1999/xlink"
	viewBox="0 0 1080 1080" xml:space="preserve">
	<title>aquilai</title>
<rect x="203.2" y="69.7" fill="#3A3A3A" width="673.5" height="136"/>
<g>
	<path fill="#333333" stroke="#231F20" stroke-width="0.25" stroke-miterlimit="10" d="M203.2,232v396c0,0,7.1,195.3,178.3,297.3
		l161.3,103.1l194.1-126.2c0,0,29.6-21.1,61.9-63.8c51.1-67.5,78-150.3,78-234.9V232H203.2z"/>
	<path fill="#EB4D37" d="M547.1,254v753.6l163.1-102.2c0,0,146.8-102.2,150-265.9V254H547.1z"/>
	<g>
		<path fill="#FFFFFF" d="M313.3,252.9c0,0-34.6,25.5-43.6,79c0,0,58.4,95.4,97.9,132.5c0,0,52.7,61.7,126.7,74.9
			c0,0-108.6-69.4-142.3-143.2C352,396,307.6,295.7,313.3,252.9"/>
		<path fill="#FFFFFF" d="M269.7,352.4c0,0-26.1,26.9-28.2,74c0,0,125.1,160.7,244.6,148.1C486.1,574.6,327,552.1,269.7,352.4"/>
		<path fill="#FFFFFF" d="M241.5,459.4c0,0-25.2,41.1-7.1,69.9c0,0,115.2,109.4,251.8,84.7C486.1,614.1,334.2,619.8,241.5,459.4"/>
		<path fill="#FFFFFF" d="M241.5,575.3c0,0-7.1,47.8,7.7,64.3c0,0,139.9,64.2,236.9,10.7C486.1,650.3,355.6,695.3,241.5,575.3"/>
		<path fill="#FFFFFF" d="M276.3,671.5c0,0-7.4,29.7,18.9,56.9c0,0,154.7,16.5,199.1-42.8C494.3,685.6,387.4,752.1,276.3,671.5"/>
		<path fill="#FFFFFF" d="M328.1,753.9c0,0,9.1,26.3,28.8,41.1c0,0,119.3-6.6,161.2-79C518.2,716.1,452.4,790.1,328.1,753.9"/>
		<path fill="#FFFFFF" d="M398.1,810.7c0,0-0.8,16.5,25.1,31.3c0,0,81.9-20.6,124.6-100.4C547.8,741.6,496.8,818.1,398.1,810.7"/>
		<path fill="#FFFFFF" d="M472.9,846.1c0,0,5.8,14.8,21.4,21.4c0,0,69.9-37,83.1-103.7C577.4,763.8,552.7,832.1,472.9,846.1"/>
		<path fill="#FFFFFF" d="M611.2,775.3c0,0,0.8,42.8-63.3,84.7l17.3,14C565.1,874.1,610.3,852.7,611.2,775.3"/>
		<path fill="#FFFFFF" d="M505,543.3c0,0-36.2,47.5-10.7,128.2c0,0,40.3,100.5,158,109.5c0,0,20.3-0.8,35.1-12.3
			c0,0,19.7-9.9,16.5,19.7c0,0,11.5,2.2,19.7-17.6c0,0,16.5,14.8,21.9,24.1c0,0-15.9-66.9-4.4-105.3c0,0,6-24.7,20.3-23
			c0,0,21.4,2.7,28.5-6.6c0,0,15.9,11,15.4,23.6c0,0,31.8-30-19.7-66c0,0-18.1-6.4-30.2,2.4c0,0-2.2-5.9-12.1-2.4
			c0,0,10.4-22.3-62.5-3.6c0,0-48.8,12.1-57,59.8c0,0-14.8,47.7-59.2,47.2c0,0,49.9,13.7,78.4-57.6c0,0,8.2-30.7,43.3-40
			c35.1-9.3,40-8.3,40-8.3s12.1-1.1,7.1,11.5c0,0,20.8,0.5,23,4.4c0,0,38.7-13.3,49.4,29.1c0,0-16.5-13.7-25.2-6.6
			c0,0-1.6,2.2-9.9,2.2s-15.4,1.1-15.4,1.1s-11.5,1.1-20.8,17.6c0,0-42.2,88.3-64.7,94.9c-3.7,1.1-7.6,1.8-11.5,2.3
			c-21.2,2.5-42.6-3.7-59.9-16.3c-22.2-16.2-53.7-45.5-57.6-83.7c0,0-2.2-42.7,9.3-61.9c0,0,9.3-32.9-18.1-41.1
			C532.2,568.5,510.8,558.1,505,543.3"/>
		<path fill="#FFFFFF" d="M701.2,636.4c0,0-10.1,1.4-13.4,5.5c0,0,15.6,4.9,18.1,8.5c0,0,12.6-3.6,10.7-9.6
			C716.6,640.8,717.4,635.1,701.2,636.4"/>
	</g>
</g>
<text transform="matrix(1.0237 0 0 1 268.5946 184.31)" fill="#FFFFFF" font-family="'Pythagoras'" font-size="117.6783px">AQUILA I</text>
</svg>
