<svg xmlns="http://www.w3.org/2000/svg" id="Layer_1" data-name="Layer 1" viewBox="0 0 197 133.375"><defs><clipPath id="clip-path" transform="translate(-3 -37.037)"><path d="M42 13h120v120H42z" style="fill:none"/></clipPath><style>.cls-10{font-family:WorkSans-Medium,Work Sans;font-weight:500}</style></defs><g style="clip-path:url(#clip-path)"><path d="m86.764 29.363 12 20.784 12-20.784h-24z" style="fill:#33a7ff"/><path d="M149.764 45.45c-1.062 12.033-6.917 28.77-16.72 45.75-9.815 16.999-21.398 30.449-31.295 37.378-9.874-6.918-21.442-20.357-31.246-37.337-9.813-16.999-15.67-33.755-16.722-45.791 10.936-5.114 28.359-8.413 47.965-8.413 19.628 0 37.068 3.306 48.018 8.413Zm-24 41.35-12-20.785-12-20.784-12 20.784-12 20.785h48Z" style="fill-rule:evenodd;fill:#33a7ff" transform="translate(-3 -37.037)"/></g><text style="font-size:26px;font-family:WorkSans-ExtraBold,Work Sans;font-weight:800;letter-spacing:-.027em;fill:#33a7ff" transform="translate(.533 124.482)">A<tspan x="17.081" y="0" style="letter-spacing:-.03em">r</tspan><tspan x="27.664" y="0" style="letter-spacing:-.003em">a</tspan><tspan x="42.795" y="0">ali </tspan><tspan x="78.623" y="0" style="letter-spacing:-.034em;font-family:WorkSans-Medium,Work Sans;font-weight:500">N</tspan><tspan x="96.875" y="0" style="letter-spacing:-.039em;font-family:WorkSans-Medium,Work Sans;font-weight:500">e</tspan><tspan x="110.967" y="0" class="cls-10">t</tspan><tspan x="121.289" y="0" style="letter-spacing:-.042em;font-family:WorkSans-Medium,Work Sans;font-weight:500">w</tspan><tspan x="142.843" y="0" class="cls-10">or</tspan><tspan x="167.958" y="0" style="letter-spacing:-.036em;font-family:WorkSans-Medium,Work Sans;font-weight:500">k</tspan><tspan x="182.181" y="0" class="cls-10">s</tspan></text></svg>