<?xml version="1.0" ?>
<svg xmlns="http://www.w3.org/2000/svg" role="img" viewBox="-5.41 -5.41 294.58 109.58">
	<switch>
		<g>
			<path fill="none" d="M 0.0,0.0 L 284.0,0.0 L 284.0,99.0 L 0.0,99.0 L 0.0,0.0"/>
			<path d="M 234.693,0.461 C 222.979,0.461 212.229,4.574 203.796,11.427 C 195.361,4.574 184.611,0.461 172.899,0.461 C 161.185,0.461 150.435,4.574 142.001,11.426 C 133.567,4.573 122.817,0.461 111.103,0.461 C 99.39,0.461 88.64,4.574 80.206,11.426 C 71.771,4.574 61.021,0.461 49.307,0.461 C 22.223,0.461 0.268,22.416 0.268,49.5 C 0.268,76.584 22.223,98.539 49.307,98.539 C 61.021,98.539 71.771,94.426 80.205,87.573 C 88.639,94.426 99.389,98.539 111.102,98.539 C 122.816,98.539 133.566,94.426 142.0,87.573 C 150.435,94.426 161.185,98.539 172.898,98.539 C 184.611,98.539 195.361,94.426 203.795,87.573 C 212.229,94.426 222.979,98.539 234.692,98.539 C 261.776,98.539 283.731,76.584 283.731,49.5 C 283.731,22.416 261.777,0.461 234.693,0.461 M 203.795,71.539 C 199.355,65.324 196.733,57.721 196.733,49.5 C 196.733,41.279 199.355,33.676 203.795,27.461 C 208.236,33.676 210.857,41.279 210.857,49.5 C 210.857,57.721 208.236,65.324 203.795,71.539 M 142.0,71.539 C 137.559,65.324 134.937,57.721 134.937,49.5 C 134.937,41.279 137.559,33.675 142.0,27.46 C 146.44,33.675 149.062,41.279 149.062,49.5 C 149.062,57.721 146.44,65.324 142.0,71.539 M 80.205,71.539 C 75.764,65.324 73.142,57.721 73.142,49.5 C 73.142,41.279 75.764,33.675 80.205,27.46 A 37.777,37.777 0.0 0,1 87.268,49.5 A 37.774,37.774 0.0 0,1 80.205,71.539 M 11.346,49.5 C 11.346,28.534 28.342,11.539 49.307,11.539 A 37.786,37.786 0.0 0,1 72.411,19.388 C 65.933,27.7 62.063,38.145 62.063,49.5 C 62.063,60.854 65.933,71.3 72.411,79.611 A 37.786,37.786 0.0 0,1 49.307,87.46 C 28.342,87.46 11.346,70.465 11.346,49.5 L 11.346,49.5 M 87.999,79.611 C 94.477,71.299 98.347,60.854 98.347,49.5 C 98.347,38.145 94.477,27.7 87.999,19.388 A 37.786,37.786 0.0 0,1 111.103,11.539 A 37.786,37.786 0.0 0,1 134.207,19.388 C 127.728,27.7 123.859,38.145 123.859,49.5 C 123.859,60.854 127.729,71.299 134.207,79.611 A 37.786,37.786 0.0 0,1 111.103,87.46 A 37.784,37.784 0.0 0,1 87.999,79.611 L 87.999,79.611 M 149.794,79.611 C 156.273,71.299 160.143,60.854 160.143,49.5 C 160.143,38.145 156.273,27.7 149.794,19.388 C 156.194,14.47 164.202,11.539 172.898,11.539 C 181.594,11.539 189.601,14.47 196.002,19.389 C 189.523,27.701 185.654,38.145 185.654,49.5 C 185.654,60.854 189.523,71.299 196.002,79.611 A 37.786,37.786 0.0 0,1 172.898,87.46 A 37.786,37.786 0.0 0,1 149.794,79.611 L 149.794,79.611 M 234.693,87.46 A 37.79,37.79 0.0 0,1 211.589,79.611 C 218.067,71.299 221.937,60.854 221.937,49.5 C 221.937,38.145 218.067,27.7 211.588,19.389 A 37.783,37.783 0.0 0,1 234.692,11.539 C 255.657,11.539 272.653,28.535 272.653,49.5 C 272.653,70.465 255.658,87.46 234.693,87.46"/>
		</g>
	</switch>
</svg>