<svg xmlns="http://www.w3.org/2000/svg" xmlns:xlink="http://www.w3.org/1999/xlink" xml:space="preserve" id="Layer_1" x="0" y="0" style="enable-background:new 0 0 1800 600" version="1.1" viewBox="0 0 1800 600"><style>.st0{fill:#005f9e}.st6{fill:#111921}</style><path d="M1181.1 294.5c.2 16.9-4.2 34.4-13.7 48.2l17.5 17.3-19.6 19.6-18-17.7c-11.2 7.2-25.3 11-42 11-52.6 0-75.8-38.2-76-76.7-.2-38.7 24.1-77.3 76-77.3s75.2 37.6 75.8 75.6zm-124.4 2.3c.4 24.3 16.5 50.3 48.6 50.3 33.4 0 49.4-28.1 48.4-53.4-1.1-23.9-13.5-49.6-48.4-49.6s-49 27.8-48.6 52.7zM1223.3 266.2v54.5c0 15.8 8.7 27.9 25.1 27.9 15.8 0 26.6-13.3 26.6-29.1v-53.2h25.6v104.3h-23l-1.7-14.2c-10.8 10.6-20.7 15.6-35.3 15.6-24.9 0-43.1-18.8-43.1-51.1v-54.7h25.8zM1424.4 318.4c0 30-20.5 54.3-54.3 54.3s-54.1-24.3-54.1-54.3c0-29.8 20.7-54.3 53.9-54.3s54.5 24.5 54.5 54.3zm-82.6 0c0 15.8 9.5 30.6 28.3 30.6s28.3-14.8 28.3-30.6c0-15.6-11-30.8-28.3-30.8-18.6-.1-28.3 15.1-28.3 30.8zM1471.9 236.8v29.6h28.7v22.2h-28.9v45c0 9.9 5.5 14.8 13.5 14.8 4 0 8.7-1.3 12.5-3.2l7.2 22c-7.4 3-13.5 4.2-21.3 4.4-22.6.8-37.4-12-37.4-38v-45h-19.4v-22.2h19.4v-26.8l25.7-2.8zM1535.7 327.5c1.7 12.9 12.9 22.2 31 22.2 9.5 0 22-3.6 27.9-9.7l16.5 16.3c-11 11.4-28.9 16.9-44.8 16.9-35.9 0-57.2-22.2-57.2-55.6 0-31.7 21.5-54.5 55.3-54.5 34.9 0 56.6 21.5 52.6 64.4h-81.3zm56.6-21.4c-1.7-13.5-12.3-20.3-27-20.3-13.9 0-25.3 6.8-29.1 20.3h56.1zM1698.8 293.9c-7.4-7-15.8-9.3-25.8-9.3-12.3 0-19 3.8-19 10.3 0 6.8 6.1 10.6 19.4 11.4 19.6 1.3 44.6 5.7 44.6 33.4 0 18.4-15 34.2-44.8 34.2-16.5 0-32.9-2.7-48.2-18.6l12.7-18.4c7.4 8.2 24.3 14.4 35.9 14.6 9.7.2 18.8-4.9 18.8-12.5 0-7.2-5.9-10.1-20.7-11-19.6-1.5-43.1-8.7-43.1-32.3 0-24.1 24.9-32.5 43.9-32.5 16.3 0 28.5 3.2 40.6 13.7l-14.3 17zM702.4 370.5l-16.3-36.3h-88.3l-16.1 36.3h-12.3l66.3-147.9h12.5l66.3 147.9h-12.1zm-20.7-46.9-39.7-90-39.7 90h79.4zM804.2 370.5v-18.8c-8 14.4-22.6 20.3-37.2 20.5-27.9 0-47.1-17.1-47.1-46V266h10.3v60c0 23.7 14.6 36.3 37.2 36.1 21.5-.2 36.5-16.5 36.5-38V266h10.3v104.6h-10zM859.1 234.7v31.5h35.5v8.7h-35.5v63.6c0 14.2 3 24.1 19.2 24.1 5.1 0 10.8-1.7 16.1-4.2l3.6 8.4c-6.5 3.2-13.1 5.3-19.6 5.3-22.2 0-29.4-13.1-29.4-33.6v-63.6h-22.2v-8.7H849v-30.4l10.1-1.1zM908.7 318.6c0-33.2 23.7-54.3 53-54.3 29.4 0 53 21.1 53 54.3 0 33.2-23.7 53.4-53 53.4s-53-20.3-53-53.4zm95.9 0c0-27-19.2-44.6-42.9-44.6s-42.9 17.5-42.9 44.6 19.2 43.3 42.9 43.3 42.9-16.3 42.9-43.3zM174.5 326.1h78.3l-39.1-88.9zM366.7 247.8c-34.3 0-48.3 27.5-47.9 52 .4 23.9 16.2 49.5 47.9 49.5 32.9 0 48.7-27.7 47.7-52.7-1.1-23.4-13.4-48.8-47.7-48.8z" class="st0"/><path d="M435.4 111.7H153.7c-27.3 0-49.7 22.4-49.7 49.7v281.7c0 27.3 22.4 49.7 49.7 49.7h281.7c27.3 0 49.7-22.4 49.7-49.7V161.4c0-27.3-22.4-49.7-49.7-49.7zM273.2 372.3l-16-35.8h-87l-15.8 35.8h-12.1l65.4-145.9H220l65.4 145.9h-12.2zm152.6 9.2L408.1 364c-11 7.1-25 10.8-41.4 10.8-51.8 0-74.7-37.7-74.9-75.6-.2-38.1 23.7-76.2 74.9-76.2s74.1 37.1 74.7 74.5c.2 16.7-4.2 33.9-13.5 47.5l17.3 17.1-19.4 19.4z" class="st0"/><text style="font-size:42.6709px;font-family:'Poppins-Medium';fill:#101925" transform="translate(1260.821 460.331)">from</text><g id="logoMark_00000093152322176670777630000010554036964928677297_"><a xlink:href="73.878"><path id="logoMark__x3C_PathItem_x3E__00000003813364716257598980000009763206489377469058_" d="m1468.8 442.1-37.5-21.7-37.6 21.7v43.3l16.3 9.4v-43.5l21.3-12.3 21.2 12.3v15.1l16.3 9.4z" style="fill:#134d8a"/></a><a xlink:href="50.52"><path id="logoMark__x3C_PathItem_x3E__00000064313488787509376290000011063304365761415073_" d="M1431.3 463.5v43.4l37.5-21.7z" style="fill:#00add8"/></a></g><a xlink:href="90.776"><path id="fullLogo_00000163056576248497622900000001500662569522177673_" d="M1516.1 453.4c-1.7-.7-3.6-1.1-5.7-1.1-2.4 0-4.5.6-6.4 1.7-1.8 1.1-3.3 2.7-4.4 4.8-1.1 2-1.6 4.5-1.6 7.2v18h5v-17.8c0-3.1.7-5.4 2-6.9s3.1-2.3 5.5-2.3c1.4 0 2.6.3 3.7.8s2.1 1.1 2.8 1.7l.5.5 2.9-3.6-.3-.3c-1-1.1-2.4-2-4-2.7z" class="st6"/></a><path id="fullLogo_00000135663127943797122630000006579043016629167016_" d="M1546.4 454.3c-2.2-1.3-4.7-1.9-7.5-1.9-3.1 0-5.9.7-8.3 2.1-2.4 1.4-4.3 3.3-5.6 5.7-1.3 2.4-2 5.2-2 8.2 0 3.1.7 5.8 2.1 8.3 1.4 2.4 3.4 4.4 5.8 5.8 2.5 1.4 5.3 2.1 8.4 2.1 2.5 0 4.8-.5 6.9-1.4 2-.9 3.9-2.2 5.4-3.8l.3-.3-3.3-3-.3.3c-1.1 1.2-2.4 2.1-3.8 2.7-1.4.6-3.1.9-4.9.9-2.1 0-4-.4-5.6-1.2-1.6-.8-3-2-4-3.5-.9-1.4-1.5-3-1.7-4.7h25v-.4c0-.5.1-1 .1-1.4 0-.4.1-.8.1-1.2 0-2.9-.6-5.6-1.8-7.8-1.4-2.4-3.1-4.2-5.3-5.5zm-18.2 11.7c.3-1.7.8-3.1 1.7-4.5.9-1.4 2.2-2.6 3.7-3.3 1.5-.8 3.3-1.2 5.2-1.2 1.8 0 3.3.4 4.7 1.1 1.4.7 2.5 1.8 3.3 3.2.8 1.3 1.3 2.9 1.4 4.7h-20z" class="st6"/><a xlink:href="90.776"><path id="fullLogo_00000044153747510240375600000014487719894111636922_" d="m1572.7 477.8-10.6-24.9h-5.5l12.5 28.5c.4.9.8 1.6 1.4 2 .6.4 1.3.6 2.2.6.9 0 1.6-.2 2.2-.6.5-.4 1-1.1 1.4-2.1l12.5-28.5h-5.5l-10.6 25z" class="st6"/></a><path id="fullLogo_00000005956190029211442160000016732133845199921792_" d="M1614.7 454.4c-2.5-1.4-5.3-2.1-8.5-2.1-3.1 0-6 .7-8.4 2.1-2.5 1.4-4.5 3.3-5.8 5.8-1.4 2.4-2.1 5.2-2.1 8.3 0 3.1.7 5.8 2.1 8.3 1.4 2.4 3.3 4.4 5.8 5.7 2.4 1.4 5.2 2.1 8.2 2.1 2.9 0 5.7-.7 8.2-2.1 1.3-.7 2.4-1.6 3.4-2.6v4.1h5.1v-15.2c0-3.2-.7-6-2.1-8.5-1.5-2.5-3.5-4.5-5.9-5.9zm2.8 14.1c0 2.2-.5 4.2-1.5 5.9-1 1.7-2.3 3.1-4 4-1.7 1-3.7 1.4-5.8 1.4-2.2 0-4.1-.5-5.8-1.4-1.7-.9-3.1-2.3-4-4-1-1.7-1.5-3.7-1.5-6s.5-4.2 1.4-6c.9-1.7 2.3-3.1 4-4 1.7-1 3.7-1.5 5.8-1.5 2.2 0 4.2.5 5.9 1.5 1.7 1 3.1 2.3 4 4.1 1 1.7 1.5 3.8 1.5 6z" class="st6"/><a xlink:href="90.776"><path id="fullLogo_00000052790263579492007580000013385513486478523576_" d="M1631.2 441.8h5V484h-5z" class="st6"/></a><a xlink:href="90.776"><path id="fullLogo_00000060026263815363349940000010906293202388286611_" d="M1647.8 443.6c-.6 0-1.1.1-1.6.4-.5.3-.8.7-1.1 1.1-.3.5-.4 1-.4 1.6 0 .8.3 1.5.9 2.1.6.6 1.3.9 2.2.9.6 0 1.1-.1 1.5-.4.5-.3.9-.6 1.1-1.1.3-.5.4-1 .4-1.5 0-.9-.3-1.6-.9-2.2-.5-.6-1.3-.9-2.1-.9z" class="st6"/></a><a xlink:href="90.776"><path id="fullLogo_00000149364990095052218500000018424561607701538462_" d="M1645.2 452.8h5V484h-5z" class="st6"/></a><a xlink:href="90.776"><path id="fullLogo_00000157306288704290109860000009812985777262055343_" d="M1683 456v-3.2h-25.9v4.7h18.7l-19 23.2-.1.2v3.1h26.5v-4.6h-19.5z" class="st6"/></a><path id="fullLogo_00000052080004165923618650000010042944138410294712_" d="M1716.2 459.6c-1.2-2.3-2.9-4.1-5.1-5.4-2.2-1.3-4.7-1.9-7.5-1.9-3.1 0-5.9.7-8.3 2.1-2.4 1.4-4.3 3.3-5.6 5.7-1.3 2.4-2 5.2-2 8.2 0 3.1.7 5.8 2.1 8.3 1.4 2.4 3.4 4.4 5.8 5.8 2.5 1.4 5.3 2.1 8.4 2.1 2.5 0 4.8-.5 6.9-1.4 2-.9 3.9-2.2 5.4-3.8l.3-.3-3.3-3-.3.3c-1.1 1.2-2.4 2.1-3.8 2.7-1.4.6-3.1.9-4.9.9-2.1 0-4-.4-5.6-1.2-1.6-.8-3-2-4-3.5-.9-1.4-1.5-3-1.7-4.7h25v-.4c0-.5.1-1 .1-1.4 0-.4.1-.8.1-1.2-.2-2.9-.8-5.6-2-7.9zm-23.3 6.4c.3-1.7.8-3.2 1.7-4.5.9-1.4 2.2-2.6 3.7-3.3 1.5-.8 3.3-1.2 5.2-1.2 1.8 0 3.3.4 4.7 1.1 1.4.7 2.5 1.8 3.3 3.2.8 1.3 1.3 2.9 1.4 4.7h-20z" class="st6"/></svg>