<?xml version="1.0" encoding="UTF-8"?>
<!-- Generator: Adobe Illustrator 26.0.3, SVG Export Plug-In . SVG Version: 6.00 Build 0)  -->
<svg version="1.1" id="Layer_1" xmlns="http://www.w3.org/2000/svg" xmlns:xlink="http://www.w3.org/1999/xlink" x="0px" y="0px" viewBox="0 0 591.2 390.3" style="enable-background:new 0 0 591.2 390.3;" xml:space="preserve">
<style type="text/css">
	.st0{filter:url(#filter-4);}
	.st1{fill-rule:evenodd;clip-rule:evenodd;}
	.st2{fill-rule:evenodd;clip-rule:evenodd;fill:#F7F8FA;}
	.st3{filter:url(#Adobe_OpacityMaskFilter);}
	.st4{fill-rule:evenodd;clip-rule:evenodd;fill:#FFFFFF;}
	.st5{mask:url(#mask-3_00000160873008722002601810000004627905228146739334_);}
	.st6{fill-rule:evenodd;clip-rule:evenodd;fill:#D61969;}
	.st7{filter:url(#Adobe_OpacityMaskFilter_00000145020087412664070270000013625351186043465653_);}
	.st8{mask:url(#mask-6_00000159468483545604295580000018003154126262487717_);fill-rule:evenodd;clip-rule:evenodd;fill:#D61969;}
	.st9{filter:url(#Adobe_OpacityMaskFilter_00000036946558404655110640000000554539430934470569_);}
	.st10{mask:url(#mask-6_00000158721174455251003670000002390703187085550478_);fill-rule:evenodd;clip-rule:evenodd;fill:#D61969;}
	.st11{filter:url(#Adobe_OpacityMaskFilter_00000132075699040101103770000017877534137001958288_);}
	.st12{mask:url(#mask-6_00000022547696991793309550000016795856898929118877_);fill-rule:evenodd;clip-rule:evenodd;fill:#D61969;}
	.st13{filter:url(#Adobe_OpacityMaskFilter_00000072262835945458500590000015436727605112161202_);}
	.st14{mask:url(#mask-6_00000048477340313891787700000005693771111899800480_);fill-rule:evenodd;clip-rule:evenodd;fill:#D61969;}
	.st15{filter:url(#Adobe_OpacityMaskFilter_00000050649207622432519780000014981746892577895575_);}
	.st16{mask:url(#mask-6_00000047024339537091417790000015083874528651970993_);fill-rule:evenodd;clip-rule:evenodd;fill:#D61969;}
	.st17{filter:url(#Adobe_OpacityMaskFilter_00000073708648951534169920000014492909271872887481_);}
	.st18{mask:url(#mask-6_00000044894616047042679000000004532027707693327504_);fill-rule:evenodd;clip-rule:evenodd;fill:#D61969;}
	.st19{filter:url(#Adobe_OpacityMaskFilter_00000006680698698572104890000004447242784679434937_);}
	.st20{mask:url(#mask-6_00000058571594437364007610000001708460143678265258_);fill-rule:evenodd;clip-rule:evenodd;fill:#D61969;}
	.st21{filter:url(#Adobe_OpacityMaskFilter_00000119801768594816186620000012985825293657959593_);}
	.st22{mask:url(#mask-6_00000051370309925929597170000002921624256592286341_);fill-rule:evenodd;clip-rule:evenodd;fill:#D61969;}
	.st23{filter:url(#Adobe_OpacityMaskFilter_00000151513367132702478730000015024842530198362303_);}
	.st24{mask:url(#mask-6_00000103955449113734324090000000422028625174430094_);fill-rule:evenodd;clip-rule:evenodd;fill:#D61969;}
	.st25{filter:url(#Adobe_OpacityMaskFilter_00000005265391993200532380000001214708402061815215_);}
	.st26{mask:url(#mask-6_00000042729884478675297610000003196977268518206114_);fill-rule:evenodd;clip-rule:evenodd;fill:#D61969;}
	.st27{filter:url(#Adobe_OpacityMaskFilter_00000023268971209505393030000008885852539367488433_);}
	.st28{mask:url(#mask-6_00000069385852673179968590000010317736941745476244_);fill-rule:evenodd;clip-rule:evenodd;fill:#D61969;}
	.st29{filter:url(#Adobe_OpacityMaskFilter_00000149352585030972937970000011009446395077000364_);}
	.st30{mask:url(#mask-6_00000068638191478402133080000001493817308962598576_);fill-rule:evenodd;clip-rule:evenodd;fill:#D61969;}
	.st31{filter:url(#Adobe_OpacityMaskFilter_00000084502431665565621810000018092093695316076161_);}
	.st32{mask:url(#mask-6_00000160874049077387307830000002300857752323797411_);fill-rule:evenodd;clip-rule:evenodd;fill:#CC1E46;}
	.st33{filter:url(#Adobe_OpacityMaskFilter_00000160907766606472029410000001140108562377749127_);}
	.st34{mask:url(#mask-6_00000124878223551598251570000004141981011604746133_);fill-rule:evenodd;clip-rule:evenodd;fill:#A51339;}
	.st35{filter:url(#Adobe_OpacityMaskFilter_00000093163504154479039220000016814882623679384985_);}
	.st36{mask:url(#mask-6_00000073711483945554910350000018126617273491976355_);fill-rule:evenodd;clip-rule:evenodd;fill:#A51339;}
	.st37{filter:url(#Adobe_OpacityMaskFilter_00000094611492950658226350000012626156732466466475_);}
	.st38{mask:url(#mask-6_00000068670739015149333580000015060981768633679544_);fill-rule:evenodd;clip-rule:evenodd;fill:#E35785;}
</style>
<filter filterUnits="objectBoundingBox" height="105.4%" id="filter-4" width="103.5%" x="-1.8%" y="-2.2%">
	<feOffset dx="0" dy="2" in="SourceAlpha" result="shadowOffsetOuter1"/>
	<feGaussianBlur in="shadowOffsetOuter1" result="shadowBlurOuter1" stdDeviation="3"/>
	<feColorMatrix in="shadowBlurOuter1" type="matrix" values="0 0 0 0 0   0 0 0 0 0   0 0 0 0 0  0 0 0 0.303248265 0">
		</feColorMatrix>
</filter>
<g id="Page-1">
	<g id="Partners---Parter-Detail-2" transform="translate(-891.000000, -1271.000000)">
		<g id="Right" transform="translate(0.000000, 1086.000000)">
			<g id="photo-copy" transform="translate(770.000000, 100.000000)">
				<g id="Mask">
					<g class="st0">
						<path id="path-2_00000038382955210554786710000003532196659669241274_" class="st1" d="M138.8,96.2h558c3.3,0,6,2.7,6,6v358        c0,3.3-2.7,6-6,6h-558c-3.3,0-6-2.7-6-6v-358C132.8,98.8,135.5,96.2,138.8,96.2z"/>
					</g>
					<g>
						<path id="path-2_00000004537934954687949670000007231881825550644877_" class="st2" d="M138.8,96.2h558c3.3,0,6,2.7,6,6v358        c0,3.3-2.7,6-6,6h-558c-3.3,0-6-2.7-6-6v-358C132.8,98.8,135.5,96.2,138.8,96.2z"/>
					</g>
				</g>
				<defs>
					<filter id="Adobe_OpacityMaskFilter" filterUnits="userSpaceOnUse" x="254.7" y="181.5" width="326.1" height="182">
						<feColorMatrix type="matrix" values="1 0 0 0 0  0 1 0 0 0  0 0 1 0 0  0 0 0 1 0"/>
					</filter>
				</defs>
					<mask maskUnits="userSpaceOnUse" x="254.7" y="181.5" width="326.1" height="182" id="mask-3_00000160873008722002601810000004627905228146739334_">
					<g class="st3">
						<path id="path-2_00000181777824407120437790000011522942082532724898_" class="st4" d="M138.8,96.2h558c3.3,0,6,2.7,6,6v358        c0,3.3-2.7,6-6,6h-558c-3.3,0-6-2.7-6-6v-358C132.8,98.8,135.5,96.2,138.8,96.2z"/>
					</g>
				</mask>
				<g id="partner-logo_x2F_infinity_x5F_stacked" class="st5">
					<g transform="translate(121.942162, 85.310000)">
						<polygon id="Fill-1" class="st6" points="132.8,264.4 138.9,264.4 138.9,213.7 132.8,213.7       "/>
						<g id="Group-23">
							<path id="Fill-2" class="st6" d="M160.6,226.9c1.4,0,2.6,0.2,3.6,0.7c1,0.5,1.9,1.1,2.7,2c0.8,0.8,1.3,1.8,1.7,2.9         c0.4,1.1,0.5,2.7,0.5,4.7v27.1h-5.8v-27.1c0-1.7-0.4-2.9-1.3-3.8c-0.9-0.9-1.9-1.4-3.1-1.4c-1.2,0-2.3,0.5-3.1,1.4         c-0.8,0.9-1.2,2.2-1.2,3.8v27.1h-5.8v-36.8h5.5v2.8c0.2-0.4,0.6-0.9,1-1.3c0.5-0.4,0.9-0.8,1.2-1         C157.9,227.3,159.2,226.9,160.6,226.9"/>
							<path id="Fill-4" class="st6" d="M191,218.6c-3.8,0-5.7,1.8-5.7,5.5v3.3h5.7v4.5h-5.7v32.4h-5.8V232h-4.2v-4.5h4.2v-3.6         c0-1.9,0.3-3.6,0.8-4.9c0.5-1.3,1.3-2.4,2.4-3.3c1.1-0.9,2.4-1.6,3.8-1.9c1.4-0.3,2.9-0.5,4.4-0.5V218.6z"/>
							<g id="Clip-7">
							</g>
							<defs>
									<filter id="Adobe_OpacityMaskFilter_00000083779645117575206000000011818015971330656655_" filterUnits="userSpaceOnUse" x="197" y="214.3" width="6.8" height="50.1">
									<feColorMatrix type="matrix" values="1 0 0 0 0  0 1 0 0 0  0 0 1 0 0  0 0 0 1 0"/>
								</filter>
							</defs>
								<mask maskUnits="userSpaceOnUse" x="197" y="214.3" width="6.8" height="50.1" id="mask-6_00000159468483545604295580000018003154126262487717_">
								<g style="filter:url(#Adobe_OpacityMaskFilter_00000083779645117575206000000011818015971330656655_);">
									<polygon id="path-5_00000150068877870321083840000016839425062631628220_" class="st4" points="132.8,278.2 458.9,278.2            458.9,96.2 132.8,96.2          "/>
								</g>
							</mask>
							<path id="Fill-6" class="st8" d="M197.5,264.4h5.8v-36.8h-5.8V264.4z M197,221h6.8v-6.7H197V221z"/>
							<defs>
									<filter id="Adobe_OpacityMaskFilter_00000101796340242418589850000001367448040674228625_" filterUnits="userSpaceOnUse" x="212.1" y="226.9" width="20.3" height="37.4">
									<feColorMatrix type="matrix" values="1 0 0 0 0  0 1 0 0 0  0 0 1 0 0  0 0 0 1 0"/>
								</filter>
							</defs>
								<mask maskUnits="userSpaceOnUse" x="212.1" y="226.9" width="20.3" height="37.4" id="mask-6_00000158721174455251003670000002390703187085550478_">
								<g style="filter:url(#Adobe_OpacityMaskFilter_00000101796340242418589850000001367448040674228625_);">
									<polygon id="path-5_00000007393646157798249290000003033119746125381021_" class="st4" points="132.8,278.2 458.9,278.2            458.9,96.2 132.8,96.2          "/>
								</g>
							</mask>
							<path id="Fill-8" class="st10" d="M223.9,226.9c1.4,0,2.6,0.2,3.6,0.7c1,0.5,1.9,1.1,2.7,2c0.8,0.8,1.3,1.8,1.7,2.9         c0.4,1.1,0.5,2.7,0.5,4.7v27.1h-5.8v-27.1c0-1.7-0.4-2.9-1.3-3.8c-0.9-0.9-1.9-1.4-3.1-1.4s-2.3,0.5-3.1,1.4         c-0.8,0.9-1.2,2.2-1.2,3.8v27.1h-5.8v-36.8h5.5v2.8c0.2-0.4,0.6-0.9,1-1.3c0.4-0.4,0.9-0.8,1.2-1         C221.2,227.3,222.5,226.9,223.9,226.9"/>
							<defs>
									<filter id="Adobe_OpacityMaskFilter_00000177464710727750238190000011349445225845506189_" filterUnits="userSpaceOnUse" x="240.8" y="214.3" width="6.8" height="50.1">
									<feColorMatrix type="matrix" values="1 0 0 0 0  0 1 0 0 0  0 0 1 0 0  0 0 0 1 0"/>
								</filter>
							</defs>
								<mask maskUnits="userSpaceOnUse" x="240.8" y="214.3" width="6.8" height="50.1" id="mask-6_00000022547696991793309550000016795856898929118877_">
								<g style="filter:url(#Adobe_OpacityMaskFilter_00000177464710727750238190000011349445225845506189_);">
									<polygon id="path-5_00000017501715296978189570000011901715213859543971_" class="st4" points="132.8,278.2 458.9,278.2            458.9,96.2 132.8,96.2          "/>
								</g>
							</mask>
							<path id="Fill-9" class="st12" d="M241.3,264.4h5.8v-36.8h-5.8V264.4z M240.8,221h6.8v-6.7h-6.8V221z"/>
							<defs>
									<filter id="Adobe_OpacityMaskFilter_00000158714023759422787260000003648445567483983288_" filterUnits="userSpaceOnUse" x="253.6" y="217.4" width="15.9" height="46.9">
									<feColorMatrix type="matrix" values="1 0 0 0 0  0 1 0 0 0  0 0 1 0 0  0 0 0 1 0"/>
								</filter>
							</defs>
								<mask maskUnits="userSpaceOnUse" x="253.6" y="217.4" width="15.9" height="46.9" id="mask-6_00000048477340313891787700000005693771111899800480_">
								<g style="filter:url(#Adobe_OpacityMaskFilter_00000158714023759422787260000003648445567483983288_);">
									<polygon id="path-5_00000035500030563711164600000013828440513422635450_" class="st4" points="132.8,278.2 458.9,278.2            458.9,96.2 132.8,96.2          "/>
								</g>
							</mask>
							<path id="Fill-10" class="st14" d="M269.4,264.4c-1.7,0-3.2-0.1-4.6-0.4c-1.4-0.3-2.7-0.9-3.9-1.9c-2.1-1.8-3.2-4.5-3.2-8.3         V232h-4.2v-4.5h4.2v-10.1h5.8v10.1h5.7v4.5h-5.7v21.6c0,2,0.5,3.4,1.5,4.3c1,0.9,2.5,1.3,4.4,1.3V264.4z"/>
							<defs>
									<filter id="Adobe_OpacityMaskFilter_00000014635640292894296680000006846283750162240406_" filterUnits="userSpaceOnUse" x="273.5" y="227.5" width="23.8" height="50.6">
									<feColorMatrix type="matrix" values="1 0 0 0 0  0 1 0 0 0  0 0 1 0 0  0 0 0 1 0"/>
								</filter>
							</defs>
								<mask maskUnits="userSpaceOnUse" x="273.5" y="227.5" width="23.8" height="50.6" id="mask-6_00000047024339537091417790000015083874528651970993_">
								<g style="filter:url(#Adobe_OpacityMaskFilter_00000014635640292894296680000006846283750162240406_);">
									<polygon id="path-5_00000026164824631994068200000004740298128968127121_" class="st4" points="132.8,278.2 458.9,278.2            458.9,96.2 132.8,96.2          "/>
								</g>
							</mask>
							<path id="Fill-11" class="st16" d="M286.9,270.3c-0.4,1.7-0.9,3-1.7,4c-0.8,1-1.7,1.8-2.7,2.4c-1,0.6-2.2,1-3.6,1.2         c-1.3,0.2-2.8,0.3-4.3,0.3V273c1.8,0,3.2-0.3,4.3-0.9c1.1-0.6,1.9-1.7,2.3-3.4l1.1-4.5l-9-36.8h6.3l5.6,27.7l5.5-27.7h6.3         L286.9,270.3z"/>
							<defs>
									<filter id="Adobe_OpacityMaskFilter_00000093156309513749316090000017472629881174321805_" filterUnits="userSpaceOnUse" x="302.3" y="241.5" width="13.9" height="5.5">
									<feColorMatrix type="matrix" values="1 0 0 0 0  0 1 0 0 0  0 0 1 0 0  0 0 0 1 0"/>
								</filter>
							</defs>
								<mask maskUnits="userSpaceOnUse" x="302.3" y="241.5" width="13.9" height="5.5" id="mask-6_00000044894616047042679000000004532027707693327504_">
								<g style="filter:url(#Adobe_OpacityMaskFilter_00000093156309513749316090000017472629881174321805_);">
									<polygon id="path-5_00000082350651221191603810000011186207489543981721_" class="st4" points="132.8,278.2 458.9,278.2            458.9,96.2 132.8,96.2          "/>
								</g>
							</mask>
							<polygon id="Fill-12" class="st18" points="302.3,247 316.2,247 316.2,241.5 302.3,241.5        "/>
							<defs>
									<filter id="Adobe_OpacityMaskFilter_00000134207880243688798140000005869841246973378191_" filterUnits="userSpaceOnUse" x="320" y="213.7" width="27.3" height="50.6">
									<feColorMatrix type="matrix" values="1 0 0 0 0  0 1 0 0 0  0 0 1 0 0  0 0 0 1 0"/>
								</filter>
							</defs>
								<mask maskUnits="userSpaceOnUse" x="320" y="213.7" width="27.3" height="50.6" id="mask-6_00000058571594437364007610000001708460143678265258_">
								<g style="filter:url(#Adobe_OpacityMaskFilter_00000134207880243688798140000005869841246973378191_);">
									<polygon id="path-5_00000057129887635006638970000002018622330884613301_" class="st4" points="132.8,278.2 458.9,278.2            458.9,96.2 132.8,96.2          "/>
								</g>
							</mask>
							<polygon id="Fill-13" class="st20" points="326.7,213.7 333.7,254.5 340.6,213.7 347.3,213.7 336.8,264.4 330.5,264.4          320,213.7        "/>
							<defs>
									<filter id="Adobe_OpacityMaskFilter_00000095322777117135123760000000120715309062199707_" filterUnits="userSpaceOnUse" x="353" y="214.3" width="6.8" height="50.1">
									<feColorMatrix type="matrix" values="1 0 0 0 0  0 1 0 0 0  0 0 1 0 0  0 0 0 1 0"/>
								</filter>
							</defs>
								<mask maskUnits="userSpaceOnUse" x="353" y="214.3" width="6.8" height="50.1" id="mask-6_00000051370309925929597170000002921624256592286341_">
								<g style="filter:url(#Adobe_OpacityMaskFilter_00000095322777117135123760000000120715309062199707_);">
									<polygon id="path-5_00000031925895617576662560000006944055668298250430_" class="st4" points="132.8,278.2 458.9,278.2            458.9,96.2 132.8,96.2          "/>
								</g>
							</mask>
							<path id="Fill-14" class="st22" d="M353.5,264.4h5.8v-36.8h-5.8V264.4z M353,221h6.8v-6.7H353V221z"/>
							<defs>
									<filter id="Adobe_OpacityMaskFilter_00000067941583845578815320000009259571470915449500_" filterUnits="userSpaceOnUse" x="366.7" y="226.9" width="21.2" height="38">
									<feColorMatrix type="matrix" values="1 0 0 0 0  0 1 0 0 0  0 0 1 0 0  0 0 0 1 0"/>
								</filter>
							</defs>
								<mask maskUnits="userSpaceOnUse" x="366.7" y="226.9" width="21.2" height="38" id="mask-6_00000103955449113734324090000000422028625174430094_">
								<g style="filter:url(#Adobe_OpacityMaskFilter_00000067941583845578815320000009259571470915449500_);">
									<polygon id="path-5_00000150078429550437204740000010705027293811525004_" class="st4" points="132.8,278.2 458.9,278.2            458.9,96.2 132.8,96.2          "/>
								</g>
							</mask>
							<path id="Fill-15" class="st24" d="M377.3,226.9c3,0,5.4,0.9,7.2,2.6c2,1.9,3,4.6,3,8.1h-5.7c0-1.1-0.1-2-0.3-2.6         c-0.2-0.7-0.6-1.3-1-1.8c-0.4-0.5-0.9-0.8-1.5-1c-0.5-0.2-1.1-0.3-1.7-0.3c-1.3,0-2.4,0.4-3.2,1.2c-0.9,0.9-1.4,2.1-1.4,3.6         c0,1,0.2,1.9,0.6,2.7c0.5,0.9,1.5,1.7,3.1,2.4l4.7,2.3c2.5,1.2,4.2,2.6,5.2,4.2c1,1.6,1.6,3.5,1.6,5.9c0,1.7-0.3,3.1-0.9,4.4         c-0.6,1.3-1.3,2.4-2.3,3.3c-1,1-2.1,1.8-3.4,2.2c-1.3,0.4-2.6,0.7-4.2,0.7c-1.5,0-2.9-0.2-4.2-0.7c-1.3-0.5-2.3-1.2-3.2-2.1         c-2.1-2.1-3.1-4.8-3.1-8.1h5.7c0,1.9,0.5,3.4,1.6,4.5c0.4,0.4,0.9,0.7,1.5,1c0.6,0.2,1.2,0.3,1.7,0.3c1.4,0,2.6-0.5,3.5-1.4         c0.9-0.9,1.4-2.2,1.4-3.7c0-1.3-0.3-2.4-0.9-3.3c-0.4-0.5-0.8-1-1.4-1.4c-0.5-0.4-1.2-0.8-1.9-1.2l-4.8-2.4         c-2.4-1.2-4.1-2.6-5.1-4.3c-0.8-1.3-1.1-2.9-1.1-4.8c0-1.6,0.3-3,0.8-4.2c0.5-1.2,1.3-2.3,2.2-3.2c0.9-0.9,2-1.6,3.3-2.1         C374.6,227.2,375.9,226.9,377.3,226.9"/>
							<defs>
									<filter id="Adobe_OpacityMaskFilter_00000137124095950716216520000011123433439343286164_" filterUnits="userSpaceOnUse" x="395" y="214.3" width="6.8" height="50.1">
									<feColorMatrix type="matrix" values="1 0 0 0 0  0 1 0 0 0  0 0 1 0 0  0 0 0 1 0"/>
								</filter>
							</defs>
								<mask maskUnits="userSpaceOnUse" x="395" y="214.3" width="6.8" height="50.1" id="mask-6_00000042729884478675297610000003196977268518206114_">
								<g style="filter:url(#Adobe_OpacityMaskFilter_00000137124095950716216520000011123433439343286164_);">
									<polygon id="path-5_00000039093030409920679010000005329214154882865028_" class="st4" points="132.8,278.2 458.9,278.2            458.9,96.2 132.8,96.2          "/>
								</g>
							</mask>
							<path id="Fill-16" class="st26" d="M395.5,264.4h5.8v-36.8h-5.8V264.4z M395,221h6.8v-6.7H395V221z"/>
							<defs>
									<filter id="Adobe_OpacityMaskFilter_00000170973976039296089090000000021890578789891456_" filterUnits="userSpaceOnUse" x="409.5" y="226.9" width="20.9" height="38">
									<feColorMatrix type="matrix" values="1 0 0 0 0  0 1 0 0 0  0 0 1 0 0  0 0 0 1 0"/>
								</filter>
							</defs>
								<mask maskUnits="userSpaceOnUse" x="409.5" y="226.9" width="20.9" height="38" id="mask-6_00000069385852673179968590000010317736941745476244_">
								<g style="filter:url(#Adobe_OpacityMaskFilter_00000170973976039296089090000000021890578789891456_);">
									<polygon id="path-5_00000139290684894870970910000000825677699585859486_" class="st4" points="132.8,278.2 458.9,278.2            458.9,96.2 132.8,96.2          "/>
								</g>
							</mask>
							<path id="Fill-17" class="st28" d="M419.9,232.1c-1.4,0-2.4,0.5-3.2,1.6c-0.7,0.9-1.1,2.4-1.2,4.3c-0.2,1.9-0.2,4.6-0.2,7.9         c0,3.3,0.1,6,0.2,7.9c0.2,1.9,0.6,3.4,1.2,4.3c0.8,1.1,1.8,1.6,3.2,1.6c1.4,0,2.5-0.5,3.3-1.6c0.7-0.9,1.1-2.4,1.2-4.3         s0.2-4.6,0.2-7.9c0-3.3-0.1-6-0.2-7.9c-0.1-1.9-0.5-3.4-1.2-4.3C422.5,232.6,421.4,232.1,419.9,232.1 M419.9,226.9         c1.7,0,3.1,0.3,4.4,0.8c1.3,0.5,2.4,1.4,3.4,2.6c1.1,1.5,1.9,3.5,2.2,6.1c0.3,2.6,0.5,5.8,0.5,9.5c0,3.7-0.2,6.9-0.5,9.5         c-0.3,2.6-1,4.6-2.2,6.1c-0.9,1.2-2.1,2.1-3.4,2.6c-1.3,0.5-2.8,0.8-4.4,0.8c-1.7,0-3.1-0.3-4.4-0.8         c-1.3-0.5-2.4-1.4-3.3-2.6c-1.1-1.5-1.9-3.5-2.2-6.1c-0.3-2.6-0.5-5.7-0.5-9.5c0-3.7,0.2-6.9,0.5-9.5         c0.3-2.6,1.1-4.6,2.2-6.1c0.9-1.2,2.1-2.1,3.3-2.6C416.8,227.2,418.3,226.9,419.9,226.9"/>
							<defs>
									<filter id="Adobe_OpacityMaskFilter_00000052793101475665622100000014498316693854946189_" filterUnits="userSpaceOnUse" x="438.7" y="226.9" width="20.3" height="37.4">
									<feColorMatrix type="matrix" values="1 0 0 0 0  0 1 0 0 0  0 0 1 0 0  0 0 0 1 0"/>
								</filter>
							</defs>
								<mask maskUnits="userSpaceOnUse" x="438.7" y="226.9" width="20.3" height="37.4" id="mask-6_00000068638191478402133080000001493817308962598576_">
								<g style="filter:url(#Adobe_OpacityMaskFilter_00000052793101475665622100000014498316693854946189_);">
									<polygon id="path-5_00000115514565373284622520000016255244577078041023_" class="st4" points="132.8,278.2 458.9,278.2            458.9,96.2 132.8,96.2          "/>
								</g>
							</mask>
							<path id="Fill-18" class="st30" d="M450.5,226.9c1.4,0,2.6,0.2,3.6,0.7c1,0.5,1.9,1.1,2.7,2c0.8,0.8,1.3,1.8,1.7,2.9         s0.5,2.7,0.5,4.7v27.1h-5.8v-27.1c0-1.7-0.4-2.9-1.3-3.8c-0.9-0.9-1.9-1.4-3.1-1.4c-1.2,0-2.3,0.5-3.1,1.4         c-0.8,0.9-1.2,2.2-1.2,3.8v27.1h-5.8v-36.8h5.5v2.8c0.2-0.4,0.6-0.9,1-1.3c0.4-0.4,0.9-0.8,1.2-1         C447.7,227.3,449,226.9,450.5,226.9"/>
							<defs>
									<filter id="Adobe_OpacityMaskFilter_00000160173464220664269400000011455146500337215381_" filterUnits="userSpaceOnUse" x="218.2" y="96.2" width="149.6" height="89.4">
									<feColorMatrix type="matrix" values="1 0 0 0 0  0 1 0 0 0  0 0 1 0 0  0 0 0 1 0"/>
								</filter>
							</defs>
								<mask maskUnits="userSpaceOnUse" x="218.2" y="96.2" width="149.6" height="89.4" id="mask-6_00000160874049077387307830000002300857752323797411_">
								<g style="filter:url(#Adobe_OpacityMaskFilter_00000160173464220664269400000011455146500337215381_);">
									<polygon id="path-5_00000014612219125656662690000006020898015553817246_" class="st4" points="132.8,278.2 458.9,278.2            458.9,96.2 132.8,96.2          "/>
								</g>
							</mask>
							<path id="Fill-19" class="st32" d="M259.8,110.5c25.6-8.5,50.7,5.3,50.7,28.2c0,21.1-8,28.5-30.7,45.8c4.1,0.6,8.4,1,12.9,1         c52.3,0,75-44.7,75-44.7s-21.1-44.7-75-44.7c-50.5,0-71.2,36.8-74.5,43.6C231.2,127.6,246.3,115,259.8,110.5"/>
							<defs>
									<filter id="Adobe_OpacityMaskFilter_00000029759375238039773430000007058405704697233042_" filterUnits="userSpaceOnUse" x="218.2" y="96.2" width="86.3" height="43.6">
									<feColorMatrix type="matrix" values="1 0 0 0 0  0 1 0 0 0  0 0 1 0 0  0 0 0 1 0"/>
								</filter>
							</defs>
								<mask maskUnits="userSpaceOnUse" x="218.2" y="96.2" width="86.3" height="43.6" id="mask-6_00000124878223551598251570000004141981011604746133_">
								<g style="filter:url(#Adobe_OpacityMaskFilter_00000029759375238039773430000007058405704697233042_);">
									<polygon id="path-5_00000117637034204907631200000017570626280711579533_" class="st4" points="132.8,278.2 458.9,278.2            458.9,96.2 132.8,96.2          "/>
								</g>
							</mask>
							<path id="Fill-20" class="st34" d="M267.9,99.5c-15.6,4.5-27.4,13-35.7,21.2c-8.2,8.4-12.6,16.3-14,19.1         c13-12.1,28.1-24.8,41.7-29.3c10.1-3.4,20.2-3.2,28.6-0.4c4.2-3.9,9.5-8,16-12.9c-4-0.6-8.1-1-12.5-1         C283,96.2,275,97.4,267.9,99.5"/>
							<defs>
									<filter id="Adobe_OpacityMaskFilter_00000109743535930063152380000012695671288637334163_" filterUnits="userSpaceOnUse" x="279.8" y="141.9" width="86.3" height="43.6">
									<feColorMatrix type="matrix" values="1 0 0 0 0  0 1 0 0 0  0 0 1 0 0  0 0 0 1 0"/>
								</filter>
							</defs>
								<mask maskUnits="userSpaceOnUse" x="279.8" y="141.9" width="86.3" height="43.6" id="mask-6_00000073711483945554910350000018126617273491976355_">
								<g style="filter:url(#Adobe_OpacityMaskFilter_00000109743535930063152380000012695671288637334163_);">
									<polygon id="path-5_00000059274102000035250410000008102136887784605571_" class="st4" points="132.8,278.2 458.9,278.2            458.9,96.2 132.8,96.2          "/>
								</g>
							</mask>
							<path id="Fill-21" class="st36" d="M316.4,182.2c15.6-4.5,27.4-13,35.7-21.2c8.2-8.4,12.6-16.3,14-19.1         c-13,12.1-28.1,24.8-41.7,29.3c-10.1,3.4-20.2,3.2-28.6,0.4c-4.2,3.9-9.5,8-16,12.9c4,0.6,8.1,1,12.5,1         C301.3,185.5,309.3,184.2,316.4,182.2"/>
							<defs>
									<filter id="Adobe_OpacityMaskFilter_00000139973210246940103630000003806605062163208613_" filterUnits="userSpaceOnUse" x="220.1" y="114.7" width="68.9" height="68.4">
									<feColorMatrix type="matrix" values="1 0 0 0 0  0 1 0 0 0  0 0 1 0 0  0 0 0 1 0"/>
								</filter>
							</defs>
								<mask maskUnits="userSpaceOnUse" x="220.1" y="114.7" width="68.9" height="68.4" id="mask-6_00000068670739015149333580000015060981768633679544_">
								<g style="filter:url(#Adobe_OpacityMaskFilter_00000139973210246940103630000003806605062163208613_);">
									<polygon id="path-5_00000049943909713269143880000001873603256726022562_" class="st4" points="132.8,278.2 458.9,278.2            458.9,96.2 132.8,96.2          "/>
								</g>
							</mask>
							<path id="Fill-22" class="st38" d="M275.7,179.2c5.5-4.2,9.8-7.5,13.3-10.6c-9.2-5.3-15.3-14.4-15.3-25.6         c0-12.2,2.7-19.8,9.3-27.4c-2.6-0.6-5.2-0.9-7.9-0.9c-4.4,0-8.8,0.7-13.1,2.2c-13.1,4.4-28.6,18-39.2,27.8l-2.7,2.3         c6.5,10,22.4,29.3,50.5,36.1L275.7,179.2z"/>
						</g>
					</g>
				</g>
			</g>
		</g>
	</g>
</g>
</svg>