<?xml version="1.0" encoding="UTF-8"?>
<svg xmlns="http://www.w3.org/2000/svg" xmlns:xlink="http://www.w3.org/1999/xlink" width="150px" height="36px" viewBox="0 0 150 36">
  <title>Innago Logo</title>
  <defs>
    <filter id="filter-1">
      <feColorMatrix in="SourceGraphic" type="matrix" values="0 0 0 0 1.000000 0 0 0 0 1.000000 0 0 0 0 1.000000 0 0 0 1.000000 0"></feColorMatrix>
    </filter>
  </defs>
  <g id="Page-1" stroke="none" stroke-width="1" fill="none" fill-rule="evenodd">
    <g id="Innago-Logo" transform="translate(-223.000000, -42.000000)" filter="url(#filter-1)">
      <g transform="translate(223.000000, 42.000000)">
        <path d="M31.0846939,28.0306122 L28.4459184,25.7571429 L20.6387755,18.9397959 L20.6387755,14.5377551 L18.722449,14.5377551 L18.722449,17.244898 L11.3489796,10.8591837 L3.39795918,18.0744898 L3.39795918,17.4622449 C3.43367347,13.8173469 4.87959184,10.3193878 7.40918367,7.68469388 C10.0112245,5.05204082 13.4816327,3.53673469 17.1683673,3.53673469 C20.855102,3.53673469 24.3255102,5.05102041 26.8918367,7.68469388 C29.4938776,10.3540816 30.9040816,13.9622449 30.9040816,17.677551 C30.9040816,19.9867347 30.3612245,22.2591837 29.3132653,24.3153061 L31.9877551,26.6244898 C33.5336057,23.8963887 34.3434408,20.8131782 34.3377848,17.677551 C34.3377848,13.0244898 32.5663265,8.55102041 29.3132653,5.19591837 C26.0959184,1.8755102 21.794898,0 17.1683673,0 C12.5785714,0 8.24081633,1.8755102 5.0244898,5.15918367 C1.77142857,8.51326531 0,13.0234694 0,17.6765306 C0,22.3295918 1.77142857,26.8397959 5.0244898,30.1591837 C8.24081633,33.4418367 12.5785714,35.3530612 17.1683673,35.3530612 C21.794898,35.3530612 26.0969388,33.477551 29.3132653,30.194898 C29.9531808,29.5153901 30.5450838,28.7922182 31.0846939,28.0306122 Z M9.10816327,21.8979592 L11.0959184,21.8979592 L11.0959184,23.9183673 L9.10816327,23.9183673 L9.10816327,21.8979592 Z M11.0959184,24.3867347 L11.0959184,26.4071429 L9.10816327,26.4071429 L9.10816327,24.3867347 L11.0959184,24.3867347 Z M11.5653061,21.8969388 L13.555102,21.8969388 L13.555102,23.9173469 L11.5653061,23.9173469 L11.5653061,21.8969388 Z M13.5908163,24.3867347 L13.5908163,26.4071429 L11.5663265,26.4071429 L11.5663265,24.3867347 L13.5908163,24.3867347 Z M26.3132653,28.2469388 C23.8193878,30.5193878 20.6020408,31.8183673 17.205102,31.8183673 C13.5183673,31.8183673 10.0479592,30.3030612 7.48163265,27.6693878 C5.88527135,26.0108643 4.70806329,23.9950923 4.04795918,21.7897959 L3.97653061,21.6091837 L11.4214286,14.8632653 L26.5306122,28.0306122 L26.3132653,28.2469388 Z M46.6265306,13.2040816 L46.6265306,25.6122449 L42.6510204,25.6122449 L42.6510204,9.23571429 L46.6265306,13.2030612 L46.6265306,13.2040816 Z M67.4816327,25.6122449 L67.4816327,17.1704082 C67.4816327,12.1193878 64.4459184,9.27040816 60.6510204,9.27040816 C58.6265306,9.27040816 57,10.1 55.3377551,11.6877551 L55.0846939,9.48673469 L51.5061224,9.48673469 L51.5061224,25.6122449 L55.4816327,25.6122449 L55.4816327,17.3877551 C55.4816327,14.9336735 57.144898,12.877551 59.6020408,12.877551 C62.1683673,12.877551 63.5061224,14.7540816 63.5061224,17.1704082 L63.5061224,25.6122449 L67.4816327,25.6122449 Z M88.1928571,25.6122449 L88.1928571,17.1704082 C88.1928571,12.1193878 85.1561224,9.27040816 81.3612245,9.27040816 C79.3377551,9.27040816 77.7112245,10.1 76.0479592,11.6877551 L75.794898,9.48673469 L72.2173469,9.48673469 L72.2173469,25.6122449 L76.1928571,25.6122449 L76.1928571,17.3877551 C76.1928571,14.9336735 77.8561224,12.877551 80.3132653,12.877551 C82.8795918,12.877551 84.2173469,14.7540816 84.2173469,17.1704082 L84.2173469,25.6122449 L88.1928571,25.6122449 Z M105.686735,11.7591837 C104.782653,10.172449 102.722449,9.1622449 100.554082,9.1622449 C95.855102,9.1255102 92.1326531,12.0479592 92.1326531,17.6040816 C92.1326531,23.2673469 95.6744898,26.1897959 100.445918,26.1530612 C102.253061,26.1173469 104.746939,25.2153061 105.686735,23.3030612 L105.904082,25.6122449 L109.662245,25.6122449 L109.662245,9.52346939 L105.831633,9.52346939 L105.686735,11.7602041 L105.686735,11.7591837 Z M100.915306,12.6979592 C107.205102,12.6979592 107.205102,22.4734694 100.915306,22.4734694 C98.277551,22.4734694 96.144898,20.6336735 96.144898,17.5673469 C96.144898,14.5010204 98.277551,12.6969388 100.915306,12.6969388 L100.915306,12.6979592 Z M125.493878,9.91938776 C124.373469,9.1622449 123.072449,9.01734694 121.807143,9.01734694 C117.288776,9.01734694 113.638776,12.1561224 113.638776,17.1704082 C113.638776,22.1846939 116.782653,25.2520408 121.807143,25.2520408 C123.794898,25.2520408 125.891837,26.2622449 125.891837,28.4979592 C125.891837,30.7346939 124.084694,31.9612245 121.807143,31.9612245 C119.530612,31.9612245 117.578571,30.5908163 117.578571,28.4979592 L113.602041,28.4979592 C113.602041,32.827551 117.108163,35.677551 121.771429,35.677551 C126.434694,35.677551 129.867347,32.9357143 129.867347,28.4979592 C129.867347,26.4418367 129.217347,24.5295918 126.541837,23.1591837 C129.180612,21.9683673 129.939796,19.155102 129.939796,17.1346939 C129.939796,15.3673469 129.470408,13.7795918 128.240816,12.372449 L130.047959,10.1 L127.120408,7.86326531 L125.493878,9.91938776 L125.493878,9.91938776 Z M121.771429,12.6255102 C124.047959,12.6255102 125.964286,14.3928571 125.964286,17.1704082 C125.964286,19.9489796 124.047959,21.6438776 121.770408,21.6438776 C119.458163,21.6438776 117.541837,19.9846939 117.541837,17.1704082 C117.578571,14.3571429 119.458163,12.6255102 121.771429,12.6255102 L121.771429,12.6255102 Z M141.469388,9.19795918 C136.336735,9.19795918 133.120408,12.9857143 133.120408,17.6040816 C133.120408,22.2571429 136.265306,26.0091837 141.506122,26.0091837 C146.746939,26.0091837 149.927551,22.2571429 149.927551,17.6040816 C149.927551,12.9857143 146.602041,9.19795918 141.469388,9.19795918 L141.469388,9.19795918 Z M141.506122,12.8408163 C144.180612,12.8408163 145.879592,15.1867347 145.879592,17.6040816 C145.879592,20.0571429 144.397959,22.3285714 141.506122,22.3285714 C138.577551,22.3285714 137.132653,20.0571429 137.132653,17.6040816 C137.132653,15.1857143 138.614286,12.8418367 141.506122,12.8418367 L141.506122,12.8408163 Z M46.6265306,8.00816327 L46.6265306,11.977551 L42.6510204,8.00816327 L46.6265306,8.00816327 Z" id="Shape" fill="#3498DB"></path>
      </g>
    </g>
  </g>
</svg>
