<svg id="svg" version="1.1" xmlns="http://www.w3.org/2000/svg"  viewBox="0, 0, 400,400"><g id="svgg"><path id="path0" d="M29.600 174.873 C 24.494 178.313,26.843 186.000,33.000 186.000 C 37.819 186.000,40.531 181.449,38.358 177.010 C 36.963 174.163,32.331 173.032,29.600 174.873 M339.600 181.043 C 333.710 184.152,333.446 184.460,333.200 188.507 L 333.000 191.800 331.045 192.025 C 328.259 192.344,327.600 193.287,327.600 196.955 C 327.600 200.775,328.165 201.600,330.780 201.600 C 333.258 201.600,333.199 201.404,333.205 209.733 C 333.212 220.299,334.379 223.381,339.200 225.566 C 342.953 227.268,345.710 226.525,348.261 223.124 C 350.686 219.890,350.808 218.000,348.593 218.000 C 344.876 218.000,344.000 216.097,344.000 208.020 L 344.000 201.600 347.177 201.600 C 351.196 201.600,351.600 201.170,351.600 196.893 C 351.600 192.816,350.804 192.000,346.828 192.000 L 344.019 192.000 343.910 185.413 L 343.800 178.827 339.600 181.043 M362.034 181.321 C 355.495 184.871,356.003 183.194,356.001 201.216 C 356.000 220.225,356.449 222.354,361.033 225.041 C 364.898 227.305,368.266 226.759,370.889 223.440 C 373.608 220.000,373.715 218.000,371.180 218.000 C 370.381 218.000,369.496 217.549,368.494 216.631 L 367.000 215.262 366.800 197.052 L 366.600 178.842 362.034 181.321 M125.398 181.777 C 120.740 184.341,120.308 184.912,120.083 188.796 L 119.897 192.000 118.330 192.000 C 115.728 192.000,114.800 193.286,114.800 196.893 C 114.800 200.777,115.355 201.600,117.972 201.600 L 119.898 201.600 120.100 209.500 C 120.417 221.905,123.044 226.389,130.000 226.393 C 134.556 226.397,139.708 218.655,135.600 217.979 C 131.692 217.335,131.200 216.221,131.200 208.020 L 131.200 201.600 134.124 201.600 C 138.212 201.600,138.554 201.278,138.737 197.259 C 138.937 192.855,138.169 192.000,134.018 192.000 L 131.200 192.000 131.200 186.889 C 131.200 179.303,130.697 178.860,125.398 181.777 M161.800 190.957 C 159.591 191.652,158.582 192.238,156.761 193.883 L 155.193 195.299 154.754 194.041 C 154.147 192.298,153.366 192.000,149.400 192.000 C 143.889 192.000,144.400 190.366,144.400 207.991 L 144.400 223.155 145.289 223.777 C 145.930 224.226,147.159 224.400,149.689 224.400 C 154.872 224.400,154.800 224.518,154.800 216.020 C 154.800 208.105,155.198 205.789,156.954 203.487 C 159.989 199.507,166.832 198.128,171.667 200.521 C 174.387 201.867,174.400 201.850,174.400 197.005 C 174.400 193.040,174.355 192.823,173.384 192.059 C 171.394 190.494,165.158 189.900,161.800 190.957 M94.000 191.247 C 87.347 192.340,82.813 196.498,82.804 201.513 C 82.794 207.038,85.790 209.644,94.203 211.426 C 101.018 212.869,101.922 213.439,100.600 215.456 C 99.699 216.832,96.281 216.808,94.359 215.413 C 93.612 214.871,92.581 214.121,92.070 213.747 C 89.955 212.204,83.200 214.863,83.200 217.238 C 83.200 224.658,102.328 227.196,109.135 220.678 C 116.222 213.892,112.489 206.335,100.595 203.392 C 94.911 201.985,93.600 201.471,93.600 200.648 C 93.600 198.488,98.334 198.064,100.565 200.023 C 102.239 201.493,102.562 201.527,106.399 200.639 C 116.827 198.227,105.186 189.409,94.000 191.247 M266.114 191.780 C 249.089 197.101,250.617 221.640,268.146 224.398 C 277.387 225.852,286.902 220.197,283.179 215.464 C 281.535 213.375,278.572 213.212,275.011 215.014 C 271.753 216.664,268.277 216.201,265.900 213.801 C 263.722 211.602,263.732 211.600,276.400 211.600 L 288.000 211.600 288.000 209.020 C 288.000 196.755,277.262 188.297,266.114 191.780 M61.800 192.347 C 60.920 192.748,59.617 193.568,58.906 194.169 L 57.611 195.262 57.128 194.201 C 55.812 191.314,48.121 191.061,46.844 193.863 C 46.546 194.517,46.400 199.376,46.400 208.637 L 46.400 222.436 47.382 223.418 C 48.734 224.770,54.473 224.887,56.113 223.597 L 57.135 222.793 57.268 213.697 C 57.436 202.279,58.472 199.968,62.909 201.116 C 65.720 201.843,66.000 202.945,66.000 213.277 L 66.000 222.436 66.982 223.418 C 68.313 224.749,74.498 224.897,76.056 223.635 L 77.000 222.870 77.000 211.735 C 77.000 199.197,76.814 198.149,74.043 195.076 C 71.111 191.822,65.631 190.601,61.800 192.347 M215.800 192.347 C 214.920 192.748,213.584 193.596,212.831 194.232 C 211.877 195.037,211.410 195.229,211.289 194.867 C 210.382 192.147,204.685 190.904,201.700 192.774 L 200.400 193.588 200.400 208.165 L 200.400 222.742 201.454 223.571 C 203.127 224.887,208.849 224.787,210.218 223.418 L 211.200 222.436 211.201 213.518 C 211.201 202.282,212.031 200.191,216.179 200.970 C 218.901 201.480,218.977 201.776,219.200 212.676 L 219.400 222.471 220.522 223.435 C 222.213 224.889,227.959 224.878,229.418 223.418 L 230.400 222.436 230.401 213.518 C 230.401 202.282,231.231 200.191,235.379 200.970 C 238.101 201.480,238.177 201.776,238.400 212.677 L 238.600 222.471 239.766 223.473 C 241.458 224.927,247.617 224.761,248.858 223.228 C 250.141 221.643,249.830 200.733,248.480 197.805 C 245.349 191.011,235.919 189.318,230.774 194.627 C 229.145 196.308,229.012 196.313,227.691 194.743 C 225.255 191.848,219.457 190.680,215.800 192.347 M308.600 192.131 C 307.940 192.433,306.834 193.157,306.142 193.740 C 304.591 195.048,304.105 195.067,303.547 193.844 C 302.628 191.827,296.393 191.146,294.254 192.829 L 293.200 193.658 293.200 208.200 L 293.200 222.742 294.254 223.571 C 295.927 224.887,301.649 224.787,303.018 223.418 L 304.000 222.436 304.000 213.579 C 304.000 202.044,305.034 199.785,309.678 201.176 C 312.368 201.982,312.581 202.838,312.727 213.400 C 312.883 224.767,312.707 224.400,318.016 224.400 C 320.950 224.400,321.660 224.268,322.568 223.553 L 323.644 222.707 323.522 211.253 C 323.388 198.640,323.180 197.511,320.479 194.663 C 317.985 192.035,311.728 190.702,308.600 192.131 M28.229 192.629 C 27.405 193.452,27.265 223.105,28.080 223.920 C 28.683 224.523,36.522 224.577,37.626 223.986 C 38.796 223.360,38.836 193.719,37.669 192.662 C 36.632 191.724,29.160 191.697,28.229 192.629 M184.126 192.403 C 182.551 193.037,182.400 193.981,182.400 203.187 C 182.400 214.409,181.997 215.600,178.196 215.600 C 175.828 215.600,174.549 213.996,174.182 210.570 C 173.652 205.609,169.783 203.347,165.391 205.431 C 162.343 206.878,162.450 216.636,165.562 221.000 C 168.815 225.561,177.413 226.366,180.962 222.443 C 181.966 221.333,182.571 221.379,183.131 222.608 C 183.749 223.965,185.084 224.400,188.626 224.400 C 193.513 224.400,193.200 225.521,193.200 208.023 L 193.200 193.245 192.311 192.623 C 191.321 191.929,185.678 191.778,184.126 192.403 M274.321 200.559 C 278.699 202.823,277.564 204.000,271.000 204.000 C 266.488 204.000,265.535 203.896,265.339 203.385 C 264.463 201.103,271.247 198.969,274.321 200.559 " stroke="none" fill="#fcf9f9" fill-rule="evenodd"></path><path id="path1" d="M0.000 200.000 L 0.000 400.000 200.000 400.000 L 400.000 400.000 400.000 200.000 L 400.000 0.000 200.000 0.000 L 0.000 0.000 0.000 200.000 M36.304 174.398 C 40.227 176.790,40.200 183.875,36.260 185.745 C 31.319 188.090,26.002 184.687,26.500 179.500 C 26.955 174.768,32.326 171.973,36.304 174.398 M344.400 185.424 L 344.400 192.000 347.371 192.000 C 351.390 192.000,351.600 192.244,351.600 196.897 C 351.600 201.671,351.325 202.000,347.338 202.000 L 344.400 202.000 344.400 208.369 C 344.400 215.808,344.773 216.696,348.321 217.694 C 350.901 218.419,351.053 219.729,348.911 222.794 C 344.807 228.669,337.753 228.006,334.400 221.431 L 333.000 218.685 332.871 210.342 L 332.742 202.000 330.800 202.000 C 328.040 202.000,327.200 200.872,327.200 197.165 C 327.200 192.870,327.728 192.176,331.200 191.908 L 332.600 191.800 332.800 188.600 C 332.910 186.840,333.210 185.040,333.467 184.600 C 333.965 183.746,343.595 178.377,344.100 178.672 C 344.265 178.768,344.400 181.807,344.400 185.424 M367.288 196.833 L 367.400 215.266 368.706 216.433 C 369.425 217.075,370.440 217.600,370.962 217.600 C 373.961 217.600,374.209 219.852,371.575 223.184 C 368.055 227.637,363.651 228.058,359.432 224.345 C 355.862 221.203,355.817 220.934,355.680 202.129 L 355.559 185.658 356.680 184.426 C 357.598 183.417,365.876 178.559,366.888 178.435 C 367.047 178.416,367.227 186.695,367.288 196.833 M130.618 180.582 C 131.560 181.524,131.600 181.775,131.600 186.782 L 131.600 192.000 134.571 192.000 C 138.579 192.000,138.800 192.252,138.800 196.829 C 138.800 201.512,138.385 202.000,134.400 202.000 L 131.600 202.000 131.600 208.440 L 131.600 214.880 132.960 216.240 C 133.708 216.988,134.710 217.600,135.186 217.600 C 138.115 217.600,138.352 219.691,135.814 223.139 C 131.649 228.796,124.759 227.874,121.481 221.221 L 120.200 218.620 120.065 210.310 L 119.930 202.000 118.147 202.000 C 115.258 202.000,114.400 200.834,114.400 196.907 C 114.400 192.810,114.882 192.084,117.708 191.921 L 119.800 191.800 120.000 188.574 C 120.257 184.434,120.613 183.948,125.148 181.564 C 129.492 179.281,129.343 179.307,130.618 180.582 M170.074 190.581 C 174.669 191.554,174.800 191.729,174.800 196.859 C 174.800 201.955,174.624 202.176,171.708 200.740 C 169.003 199.408,163.358 199.384,161.000 200.695 C 156.118 203.409,155.491 204.994,155.213 215.336 C 154.951 225.100,155.135 224.800,149.400 224.800 C 146.343 224.800,145.522 224.665,144.744 224.036 L 143.800 223.271 143.686 208.587 C 143.545 190.525,143.047 192.000,149.278 192.000 C 153.850 192.000,155.200 192.424,155.200 193.861 C 155.200 194.194,155.930 193.874,157.118 193.020 C 161.027 190.212,164.897 189.484,170.074 190.581 M104.598 192.011 C 107.120 192.978,110.535 195.886,110.978 197.444 C 111.812 200.371,103.004 202.909,100.626 200.427 C 98.812 198.534,94.829 198.416,94.131 200.234 C 93.724 201.297,94.002 201.407,101.600 203.194 C 120.565 207.656,113.678 227.685,94.150 224.862 C 83.264 223.287,78.748 215.761,87.367 213.557 C 91.065 212.611,92.020 212.764,94.084 214.628 C 95.701 216.090,98.302 216.509,100.026 215.586 C 102.157 214.446,100.406 213.193,95.000 211.991 C 84.369 209.626,80.778 205.706,82.864 198.743 C 84.828 192.190,96.024 188.722,104.598 192.011 M275.639 191.436 C 283.427 193.208,288.194 199.726,287.917 208.227 L 287.800 211.800 276.500 211.906 C 264.887 212.015,264.566 212.065,266.105 213.511 C 268.565 215.822,271.342 216.093,275.200 214.400 C 281.756 211.523,287.716 216.578,283.006 221.021 C 276.834 226.841,264.905 226.418,258.643 220.156 C 246.177 207.690,258.149 187.458,275.639 191.436 M71.688 192.668 C 76.609 195.305,77.389 197.930,77.395 211.867 L 77.400 222.734 76.430 223.767 C 75.516 224.740,75.240 224.799,71.630 224.787 C 65.595 224.767,65.600 224.776,65.600 213.413 C 65.600 202.341,64.765 200.291,60.727 201.449 C 58.011 202.228,57.823 202.964,57.600 213.665 C 57.357 225.355,57.646 224.800,51.791 224.800 C 48.128 224.800,48.055 224.781,47.036 223.569 L 46.000 222.339 46.000 208.151 L 46.000 193.964 46.982 192.982 C 47.893 192.071,48.251 192.000,51.953 192.000 L 55.942 192.000 56.951 193.289 L 57.959 194.578 58.880 193.739 C 61.990 190.904,67.531 190.440,71.688 192.668 M223.886 191.837 C 224.977 192.200,226.525 193.177,227.487 194.108 L 229.174 195.741 229.950 194.754 C 234.829 188.552,246.183 190.720,249.038 198.400 C 249.764 200.353,250.380 218.448,249.822 221.425 C 249.179 224.852,242.050 226.487,239.382 223.818 L 238.400 222.836 238.400 214.026 C 238.400 203.187,237.805 201.200,234.561 201.200 C 231.409 201.200,231.042 202.384,230.806 213.335 L 230.600 222.871 229.478 223.835 C 228.475 224.697,227.979 224.800,224.822 224.800 C 219.176 224.800,219.442 225.335,219.200 213.517 C 218.978 202.699,218.799 201.927,216.387 201.397 C 212.416 200.525,211.838 201.966,211.600 213.335 L 211.400 222.871 210.278 223.835 C 209.275 224.698,208.786 224.799,205.678 224.787 C 199.791 224.766,200.000 225.381,200.000 208.080 C 200.000 190.887,199.613 192.000,205.600 192.000 L 209.542 192.000 210.771 193.491 C 211.447 194.311,212.001 194.806,212.003 194.591 C 212.019 192.283,219.805 190.478,223.886 191.837 M316.427 191.838 C 318.084 192.324,319.084 192.972,320.638 194.565 C 323.857 197.866,324.000 198.593,324.000 211.689 L 324.000 222.836 323.018 223.818 C 322.112 224.724,321.740 224.800,318.200 224.800 C 312.259 224.800,312.406 225.070,312.377 214.118 C 312.348 202.766,311.511 200.473,307.746 201.428 C 304.812 202.171,304.626 202.835,304.400 213.397 C 304.149 225.108,304.308 224.800,298.512 224.800 C 295.066 224.800,294.685 224.721,293.782 223.818 L 292.800 222.836 292.800 208.218 C 292.800 190.557,292.285 192.000,298.588 192.000 C 302.743 192.000,302.783 192.009,303.632 193.157 L 304.487 194.314 306.148 193.193 C 309.154 191.165,312.590 190.711,316.427 191.838 M38.410 193.026 C 39.124 194.904,38.913 222.860,38.177 223.911 C 37.347 225.096,29.190 225.277,27.931 224.138 C 27.016 223.309,26.778 193.382,27.680 192.480 C 28.771 191.389,37.965 191.857,38.410 193.026 M193.038 192.842 C 193.758 193.638,193.800 194.487,193.800 208.210 L 193.800 222.736 192.830 223.768 C 191.146 225.560,185.191 225.327,183.371 223.397 L 182.048 221.994 181.005 222.960 C 177.018 226.655,169.407 226.106,165.773 221.860 C 162.218 217.707,161.617 207.443,164.801 205.280 C 168.956 202.458,174.800 205.688,174.800 210.807 C 174.800 214.715,177.969 216.563,180.678 214.236 L 181.800 213.271 182.000 203.203 C 182.240 191.119,181.767 192.000,188.014 192.000 C 191.839 192.000,192.354 192.086,193.038 192.842 M268.985 200.405 C 268.317 200.611,267.248 201.324,266.610 201.989 L 265.450 203.200 270.925 203.200 C 276.803 203.200,277.182 203.037,275.064 201.421 C 273.562 200.276,270.868 199.826,268.985 200.405 " stroke="none" fill="#f46c64" fill-rule="evenodd"></path><path id="path2" d="M26.514 180.200 C 26.517 181.300,26.595 181.703,26.687 181.095 C 26.779 180.486,26.777 179.586,26.682 179.095 C 26.587 178.603,26.511 179.100,26.514 180.200 M343.999 185.119 L 344.198 191.800 344.309 185.431 C 344.371 181.927,344.281 178.921,344.111 178.749 C 343.940 178.578,343.889 181.444,343.999 185.119 M131.357 186.800 C 131.357 189.770,131.420 190.985,131.497 189.500 C 131.574 188.015,131.574 185.585,131.497 184.100 C 131.420 182.615,131.357 183.830,131.357 186.800 M165.305 190.287 C 165.914 190.379,166.814 190.377,167.305 190.282 C 167.797 190.187,167.300 190.111,166.200 190.114 C 165.100 190.117,164.697 190.195,165.305 190.287 M27.644 192.547 C 27.319 192.939,27.221 197.440,27.300 208.447 L 27.410 223.800 27.505 208.380 C 27.575 197.030,27.727 192.833,28.080 192.480 C 28.344 192.216,28.456 192.000,28.329 192.000 C 28.202 192.000,27.894 192.246,27.644 192.547 M154.846 193.676 C 154.772 194.756,155.430 194.856,156.247 193.891 L 157.000 193.000 156.135 193.730 C 155.298 194.437,155.264 194.437,155.082 193.730 C 154.920 193.105,154.886 193.097,154.846 193.676 M38.581 208.400 C 38.581 216.650,38.634 220.025,38.699 215.900 C 38.764 211.775,38.764 205.025,38.699 200.900 C 38.634 196.775,38.581 200.150,38.581 208.400 M114.540 196.800 C 114.540 198.670,114.609 199.435,114.693 198.500 C 114.777 197.565,114.777 196.035,114.693 195.100 C 114.609 194.165,114.540 194.930,114.540 196.800 M143.781 208.000 C 143.781 216.030,143.834 219.315,143.899 215.300 C 143.965 211.285,143.965 204.715,143.899 200.700 C 143.834 196.685,143.781 199.970,143.781 208.000 M46.181 208.200 C 46.180 216.120,46.234 219.417,46.299 215.526 C 46.365 211.635,46.365 205.155,46.300 201.126 C 46.234 197.097,46.181 200.280,46.181 208.200 M182.170 202.400 C 182.170 207.130,182.228 209.065,182.298 206.700 C 182.369 204.335,182.369 200.465,182.298 198.100 C 182.228 195.735,182.170 197.670,182.170 202.400 M327.337 197.000 C 327.339 198.760,327.409 199.430,327.493 198.489 C 327.578 197.549,327.577 196.109,327.491 195.289 C 327.405 194.470,327.336 195.240,327.337 197.000 M193.780 208.000 C 193.780 215.590,193.834 218.695,193.899 214.900 C 193.965 211.105,193.965 204.895,193.899 201.100 C 193.834 197.305,193.780 200.410,193.780 208.000 M283.200 195.800 C 283.946 196.570,284.647 197.200,284.757 197.200 C 284.867 197.200,284.346 196.570,283.600 195.800 C 282.854 195.030,282.153 194.400,282.043 194.400 C 281.933 194.400,282.454 195.030,283.200 195.800 M266.066 202.130 C 265.586 202.641,265.314 203.181,265.463 203.330 C 265.835 203.701,276.307 203.673,276.539 203.300 C 276.642 203.135,274.181 203.055,271.072 203.122 L 265.419 203.244 266.379 202.222 C 266.907 201.660,267.249 201.200,267.139 201.200 C 267.029 201.200,266.546 201.618,266.066 202.130 M131.361 208.000 C 131.361 211.410,131.422 212.805,131.497 211.100 C 131.572 209.395,131.572 206.605,131.497 204.900 C 131.422 203.195,131.361 204.590,131.361 208.000 M344.160 208.200 C 344.161 211.500,344.222 212.797,344.298 211.082 C 344.373 209.367,344.372 206.667,344.297 205.082 C 344.221 203.497,344.159 204.900,344.160 208.200 M77.373 212.400 C 77.373 217.790,77.430 219.995,77.499 217.300 C 77.568 214.605,77.568 210.195,77.499 207.500 C 77.430 204.805,77.373 207.010,77.373 212.400 M249.772 212.400 C 249.772 217.570,249.829 219.685,249.899 217.100 C 249.968 214.515,249.968 210.285,249.899 207.700 C 249.829 205.115,249.772 207.230,249.772 212.400 M109.600 207.000 C 110.346 207.770,111.047 208.400,111.157 208.400 C 111.267 208.400,110.746 207.770,110.000 207.000 C 109.254 206.230,108.553 205.600,108.443 205.600 C 108.333 205.600,108.854 206.230,109.600 207.000 M211.369 213.800 C 211.370 218.420,211.428 220.255,211.499 217.878 C 211.570 215.501,211.569 211.721,211.498 209.478 C 211.427 207.235,211.369 209.180,211.369 213.800 M230.569 213.800 C 230.570 218.420,230.628 220.255,230.699 217.878 C 230.770 215.501,230.769 211.721,230.698 209.478 C 230.627 207.235,230.569 209.180,230.569 213.800 M253.728 208.000 C 253.728 209.430,253.801 210.015,253.889 209.300 C 253.978 208.585,253.978 207.415,253.889 206.700 C 253.801 205.985,253.728 206.570,253.728 208.000 M304.169 214.200 C 304.170 218.820,304.228 220.655,304.299 218.278 C 304.370 215.901,304.369 212.121,304.298 209.878 C 304.227 207.635,304.169 209.580,304.169 214.200 M174.509 210.400 C 174.509 211.390,174.587 211.795,174.682 211.300 C 174.778 210.805,174.778 209.995,174.682 209.500 C 174.587 209.005,174.509 209.410,174.509 210.400 M112.524 213.400 C 112.526 214.720,112.601 215.212,112.690 214.493 C 112.779 213.774,112.777 212.694,112.686 212.093 C 112.595 211.492,112.522 212.080,112.524 213.400 M270.700 211.899 C 273.835 211.967,278.965 211.967,282.100 211.899 C 285.235 211.832,282.670 211.776,276.400 211.776 C 270.130 211.776,267.565 211.832,270.700 211.899 M92.400 213.325 C 92.400 213.394,92.985 213.979,93.700 214.625 L 95.000 215.800 93.825 214.500 C 92.730 213.288,92.400 213.016,92.400 213.325 M97.105 216.283 C 97.602 216.379,98.322 216.375,98.705 216.275 C 99.087 216.175,98.680 216.096,97.800 216.101 C 96.920 216.105,96.607 216.187,97.105 216.283 M165.200 221.325 C 165.200 221.394,165.785 221.979,166.500 222.625 L 167.800 223.800 166.625 222.500 C 165.530 221.288,165.200 221.016,165.200 221.325 M95.891 225.089 C 96.601 225.177,97.861 225.179,98.691 225.092 C 99.521 225.005,98.940 224.933,97.400 224.931 C 95.860 224.929,95.181 225.000,95.891 225.089 M269.900 225.089 C 270.615 225.178,271.785 225.178,272.500 225.089 C 273.215 225.001,272.630 224.928,271.200 224.928 C 269.770 224.928,269.185 225.001,269.900 225.089 M173.500 225.482 C 173.995 225.578,174.805 225.578,175.300 225.482 C 175.795 225.387,175.390 225.309,174.400 225.309 C 173.410 225.309,173.005 225.387,173.500 225.482 " stroke="none" fill="#f49a92" fill-rule="evenodd"></path><path id="path3" d="M32.100 173.876 C 32.485 173.976,33.115 173.976,33.500 173.876 C 33.885 173.775,33.570 173.693,32.800 173.693 C 32.030 173.693,31.715 173.775,32.100 173.876 M366.984 196.600 C 366.984 206.500,367.036 210.493,367.100 205.473 C 367.163 200.453,367.163 192.353,367.100 187.473 C 367.036 182.593,366.984 186.700,366.984 196.600 M28.887 184.900 C 29.506 185.505,30.235 185.995,30.506 185.988 C 30.778 185.981,30.640 185.777,30.200 185.533 C 29.760 185.290,29.031 184.800,28.581 184.445 C 28.130 184.090,28.268 184.295,28.887 184.900 M31.900 186.282 C 32.395 186.378,33.205 186.378,33.700 186.282 C 34.195 186.187,33.790 186.109,32.800 186.109 C 31.810 186.109,31.405 186.187,31.900 186.282 M332.934 188.800 C 332.934 190.450,333.005 191.125,333.091 190.300 C 333.178 189.475,333.178 188.125,333.091 187.300 C 333.005 186.475,332.934 187.150,332.934 188.800 M237.700 191.476 C 238.085 191.576,238.715 191.576,239.100 191.476 C 239.485 191.375,239.170 191.293,238.400 191.293 C 237.630 191.293,237.315 191.375,237.700 191.476 M311.700 191.476 C 312.085 191.576,312.715 191.576,313.100 191.476 C 313.485 191.375,313.170 191.293,312.400 191.293 C 311.630 191.293,311.315 191.375,311.700 191.476 M115.398 192.802 C 114.375 193.932,114.810 194.037,115.886 192.920 C 116.373 192.414,116.626 192.000,116.448 192.000 C 116.270 192.000,115.797 192.361,115.398 192.802 M156.175 194.100 L 155.000 195.400 156.300 194.225 C 157.512 193.130,157.784 192.800,157.475 192.800 C 157.406 192.800,156.821 193.385,156.175 194.100 M72.400 193.325 C 72.400 193.394,72.985 193.979,73.700 194.625 L 75.000 195.800 73.825 194.500 C 72.730 193.288,72.400 193.016,72.400 193.325 M144.095 208.038 C 143.995 223.815,144.055 224.400,145.776 224.400 C 145.948 224.400,145.708 224.085,145.242 223.700 C 144.411 223.013,144.394 222.725,144.293 208.000 L 144.190 193.000 144.095 208.038 M230.378 194.700 L 229.000 196.200 230.500 194.822 C 231.896 193.538,232.184 193.200,231.878 193.200 C 231.812 193.200,231.137 193.875,230.378 194.700 M193.381 208.200 C 193.380 216.120,193.434 219.417,193.499 215.526 C 193.565 211.635,193.565 205.155,193.500 201.126 C 193.434 197.097,193.381 200.280,193.381 208.200 M292.981 208.200 C 292.980 216.120,293.034 219.417,293.099 215.526 C 293.165 211.635,293.165 205.155,293.100 201.126 C 293.034 197.097,292.981 200.280,292.981 208.200 M200.180 208.400 C 200.180 215.990,200.234 219.095,200.299 215.300 C 200.365 211.505,200.365 205.295,200.299 201.500 C 200.234 197.705,200.180 200.810,200.180 208.400 M165.105 199.483 C 165.602 199.579,166.322 199.575,166.705 199.475 C 167.087 199.375,166.680 199.296,165.800 199.301 C 164.920 199.305,164.607 199.387,165.105 199.483 M82.493 201.600 C 82.493 202.370,82.575 202.685,82.676 202.300 C 82.776 201.915,82.776 201.285,82.676 200.900 C 82.575 200.515,82.493 200.830,82.493 201.600 M330.705 201.883 C 331.202 201.979,331.922 201.975,332.305 201.875 C 332.687 201.775,332.280 201.696,331.400 201.701 C 330.520 201.705,330.207 201.787,330.705 201.883 M345.091 201.889 C 345.801 201.977,347.061 201.979,347.891 201.892 C 348.721 201.805,348.140 201.733,346.600 201.731 C 345.060 201.729,344.381 201.800,345.091 201.889 M323.774 212.000 C 323.774 217.610,323.830 219.905,323.899 217.100 C 323.968 214.295,323.968 209.705,323.899 206.900 C 323.830 204.095,323.774 206.390,323.774 212.000 M332.965 209.200 C 332.965 213.050,333.025 214.625,333.098 212.700 C 333.171 210.775,333.171 207.625,333.098 205.700 C 333.025 203.775,332.965 205.350,332.965 209.200 M268.082 203.896 C 269.558 203.973,272.078 203.973,273.682 203.897 C 275.287 203.821,274.080 203.758,271.000 203.758 C 267.920 203.757,266.607 203.819,268.082 203.896 M167.700 204.676 C 168.085 204.776,168.715 204.776,169.100 204.676 C 169.485 204.575,169.170 204.493,168.400 204.493 C 167.630 204.493,167.315 204.575,167.700 204.676 M312.570 213.800 C 312.571 218.640,312.629 220.565,312.699 218.078 C 312.769 215.591,312.769 211.631,312.698 209.278 C 312.628 206.925,312.570 208.960,312.570 213.800 M57.369 214.000 C 57.369 218.510,57.427 220.355,57.498 218.100 C 57.570 215.845,57.570 212.155,57.498 209.900 C 57.427 207.645,57.369 209.490,57.369 214.000 M174.093 209.600 C 174.093 210.370,174.175 210.685,174.276 210.300 C 174.376 209.915,174.376 209.285,174.276 208.900 C 174.175 208.515,174.093 208.830,174.093 209.600 M83.600 219.325 C 83.600 219.394,84.185 219.979,84.900 220.625 L 86.200 221.800 85.025 220.500 C 83.930 219.288,83.600 219.016,83.600 219.325 M50.311 224.693 C 51.251 224.778,52.691 224.777,53.511 224.691 C 54.330 224.605,53.560 224.536,51.800 224.537 C 50.040 224.539,49.370 224.609,50.311 224.693 M69.911 224.693 C 70.851 224.778,72.291 224.777,73.111 224.691 C 73.930 224.605,73.160 224.536,71.400 224.537 C 69.640 224.539,68.970 224.609,69.911 224.693 M94.100 224.676 C 94.485 224.776,95.115 224.776,95.500 224.676 C 95.885 224.575,95.570 224.493,94.800 224.493 C 94.030 224.493,93.715 224.575,94.100 224.676 M147.911 224.693 C 148.851 224.778,150.291 224.777,151.111 224.691 C 151.930 224.605,151.160 224.536,149.400 224.537 C 147.640 224.539,146.970 224.609,147.911 224.693 M187.100 224.689 C 187.815 224.778,188.985 224.778,189.700 224.689 C 190.415 224.601,189.830 224.528,188.400 224.528 C 186.970 224.528,186.385 224.601,187.100 224.689 M272.900 224.676 C 273.285 224.776,273.915 224.776,274.300 224.676 C 274.685 224.575,274.370 224.493,273.600 224.493 C 272.830 224.493,272.515 224.575,272.900 224.676 M296.900 224.691 C 297.725 224.778,299.075 224.778,299.900 224.691 C 300.725 224.605,300.050 224.534,298.400 224.534 C 296.750 224.534,296.075 224.605,296.900 224.691 M316.711 224.693 C 317.651 224.778,319.091 224.777,319.911 224.691 C 320.730 224.605,319.960 224.536,318.200 224.537 C 316.440 224.539,315.770 224.609,316.711 224.693 M129.300 226.676 C 129.685 226.776,130.315 226.776,130.700 226.676 C 131.085 226.575,130.770 226.493,130.000 226.493 C 129.230 226.493,128.915 226.575,129.300 226.676 M342.100 226.676 C 342.485 226.776,343.115 226.776,343.500 226.676 C 343.885 226.575,343.570 226.493,342.800 226.493 C 342.030 226.493,341.715 226.575,342.100 226.676 M364.900 226.676 C 365.285 226.776,365.915 226.776,366.300 226.676 C 366.685 226.575,366.370 226.493,365.600 226.493 C 364.830 226.493,364.515 226.575,364.900 226.676 " stroke="none" fill="#fcb4b4" fill-rule="evenodd"></path><path id="path4" d="M355.781 201.000 C 355.780 208.920,355.834 212.217,355.899 208.326 C 355.965 204.435,355.965 197.955,355.900 193.926 C 355.834 189.897,355.781 193.080,355.781 201.000 M174.534 198.000 C 174.534 199.650,174.605 200.325,174.691 199.500 C 174.778 198.675,174.778 197.325,174.691 196.500 C 174.605 195.675,174.534 196.350,174.534 198.000 M117.905 201.883 C 118.402 201.979,119.122 201.975,119.505 201.875 C 119.887 201.775,119.480 201.696,118.600 201.701 C 117.720 201.705,117.407 201.787,117.905 201.883 M132.700 201.889 C 133.415 201.978,134.585 201.978,135.300 201.889 C 136.015 201.801,135.430 201.728,134.000 201.728 C 132.570 201.728,131.985 201.801,132.700 201.889 M65.770 213.200 C 65.770 217.930,65.828 219.865,65.898 217.500 C 65.969 215.135,65.969 211.265,65.898 208.900 C 65.828 206.535,65.770 208.470,65.770 213.200 M154.960 216.200 C 154.961 219.500,155.022 220.797,155.098 219.082 C 155.173 217.367,155.172 214.667,155.097 213.082 C 155.021 211.497,154.959 212.900,154.960 216.200 M162.914 212.200 C 162.917 213.300,162.995 213.703,163.087 213.095 C 163.179 212.486,163.177 211.586,163.082 211.095 C 162.987 210.603,162.911 211.100,162.914 212.200 M30.915 224.696 C 32.188 224.776,34.168 224.775,35.315 224.694 C 36.462 224.614,35.420 224.549,33.000 224.550 C 30.580 224.551,29.642 224.616,30.915 224.696 M204.311 224.693 C 205.251 224.778,206.691 224.777,207.511 224.691 C 208.330 224.605,207.560 224.536,205.800 224.537 C 204.040 224.539,203.370 224.609,204.311 224.693 M223.511 224.693 C 224.451 224.778,225.891 224.777,226.711 224.691 C 227.530 224.605,226.760 224.536,225.000 224.537 C 223.240 224.539,222.570 224.609,223.511 224.693 M242.711 224.693 C 243.651 224.778,245.091 224.777,245.911 224.691 C 246.730 224.605,245.960 224.536,244.200 224.537 C 242.440 224.539,241.770 224.609,242.711 224.693 " stroke="none" fill="#f4aca4" fill-rule="evenodd"></path></g></svg>