<?xml version="1.0" encoding="UTF-8"?>
<svg id="Layer_1" data-name="Layer 1" xmlns="http://www.w3.org/2000/svg" viewBox="0 0 320 176">
  <defs>
    <style>
      .cls-1 {
        fill: #0c6;
      }

      .cls-2 {
        fill: #063;
      }

      .cls-3 {
        fill: #c84727;
      }
    </style>
  </defs>
  <g id="Cortex-XSOAR-Black">
    <g>
      <path class="cls-2" d="m88.78,115.03c-15.57,0-28.2-12.62-28.2-28.19,0-15.57,12.62-28.2,28.19-28.2h.01v56.4Zm0-56.4v-18.42h-.8c-25.75,0-46.62,20.87-46.62,46.62s20.87,46.62,46.62,46.62h.8v-18.42c15.57,0,28.2-12.62,28.2-28.19,0-15.57-12.62-28.2-28.19-28.2h-.01"/>
      <path class="cls-1" d="m147.05,82.76l-1.74-.3c-3.51-.61-5.49-.99-5.49-1.9,0-1.4,2.79-1.61,4.45-1.61,2.28,0,4.93.49,7.47,1.38,1.4.49,2.89.28,4.11-.58,1.24-.87,1.99-2.3,1.99-3.81.01-1.97-1.22-3.75-3.06-4.42-3.1-1.13-6.62-1.75-9.89-1.75-11.6,0-15.72,6.12-15.72,11.37,0,7.34,6.83,9.37,12.78,10.33,6.66,1.12,7.35,1.58,7.35,2.38,0,1.53-3.44,1.65-4.49,1.65-1.76,0-4.93-.73-9.16-2.12-1.5-.49-3.09-.24-4.37.68-1.28.93-2.02,2.37-2.02,3.96,0,2.06,1.29,3.9,3.21,4.6,3.92,1.41,7.76,2.07,12.07,2.07,14.26,0,15.37-8.6,15.37-11.24,0-8.44-8.37-9.9-12.85-10.68Z"/>
    </g>
  </g>
  <g id="Unit42-Main-Black">
    <g>
      <path class="cls-3" d="m265.88,54.85c-16.87-15.77-44.29-13.76-60.11,2.07-14.47,14.47-15.43,38.8-5.48,55.54l-23.41,34.92,28.72-28.72,15.66-15.65h0c-5.75-5.75-7.55-13.95-5.42-21.26.99-3.38,2.82-6.58,5.49-9.24,6.84-6.84,20.26-8.56,28.72-1.93l15.82-15.71Z"/>
      <path class="cls-3" d="m259.29,82.71c.76,2.19,1.17,4.54,1.17,6.99,0,11.75-9.52,21.29-21.28,21.29-5.72,0-10.9-2.25-14.72-5.92l72.72-76.45-37.89,54.09Z"/>
    </g>
  </g>
</svg>