<?xml version="1.0" ?>
<svg xmlns="http://www.w3.org/2000/svg" xmlns:xlink="http://www.w3.org/1999/xlink" viewBox="0, 0, 400,400">
	<g id="svgg">
		<path id="path0" d="M 130.4,149.533 C 131.115,149.772 130.822,151.139 130.0,151.4 C 129.56,151.54 129.2,151.809 129.2,151.999 C 129.2,152.189 128.838,152.402 128.395,152.472 C 127.619,152.595 127.392,196.21 127.599,305.748 C 127.6,306.104 128.302,306.39 129.6,306.562 C 131.387,306.799 131.6,306.932 131.6,307.814 L 131.6,308.8 L 149.797,308.8 L 167.995,308.8 L 167.853,307.9 C 167.741,307.195 167.98,306.906 168.954,306.565 C 170.818,305.912 170.752,308.713 170.777,229.356 C 170.801,151.225 170.821,152.32 169.382,151.665 C 168.876,151.434 168.403,150.864 168.331,150.397 L 168.2,149.549 L 149.1,149.475 C 138.596,149.434 130.181,149.46 130.4,149.533" stroke="none" fill="#343c4c" fill-rule="evenodd"/>
		<path id="path1" d="M 79.832,89.825 C 79.484,90.173 79.2,90.624 79.2,90.829 C 79.2,91.056 118.347,91.2 180.289,91.2 L 281.378,91.2 L 280.478,90.3 L 279.578,89.4 L 180.021,89.297 C 89.751,89.203 80.404,89.253 79.832,89.825 M 75.2,92.2 C 75.2,93.0 75.0,93.2 74.2,93.2 C 73.21,93.2 72.632,95.618 73.5,96.129 C 74.133,96.502 75.6,95.598 75.6,94.835 C 75.6,94.375 76.047,93.825 76.665,93.522 C 78.382,92.68 78.339,91.2 76.597,91.2 C 75.374,91.2 75.2,91.324 75.2,92.2 M 290.19,92.03 C 290.046,92.487 290.003,92.936 290.096,93.03 C 290.487,93.42 296.384,93.624 298.599,93.323 L 300.997,92.997 L 300.099,92.099 C 298.771,90.771 290.608,90.715 290.19,92.03 M 301.885,93.449 C 301.174,94.16 301.652,95.148 302.831,95.407 C 304.917,95.865 306.8,95.315 306.8,94.248 C 306.8,93.319 302.683,92.65 301.885,93.449 M 308.0,96.192 C 308.0,96.917 308.269,97.252 308.999,97.436 C 310.507,97.814 311.131,97.42 310.904,96.232 C 310.614,94.714 308.0,94.679 308.0,96.192 M 312.0,98.185 C 312.0,99.015 312.238,99.268 313.2,99.46 C 314.028,99.626 314.4,99.936 314.4,100.46 C 314.4,100.902 314.818,101.379 315.4,101.6 C 315.95,101.809 316.4,102.259 316.4,102.6 C 316.4,102.941 316.85,103.391 317.4,103.6 C 317.95,103.809 318.4,104.264 318.4,104.611 C 318.4,104.958 318.93,105.426 319.579,105.652 C 320.596,106.007 320.774,106.292 320.879,107.732 C 320.979,109.113 321.155,109.422 321.9,109.528 C 322.718,109.644 322.8,109.872 322.8,112.028 C 322.8,114.303 322.842,114.4 323.819,114.4 C 325.286,114.4 325.192,109.484 323.721,109.275 C 322.979,109.169 322.823,108.856 322.721,107.275 C 322.618,105.679 322.466,105.381 321.7,105.272 C 321.049,105.18 320.8,104.876 320.8,104.172 C 320.8,103.402 320.592,103.2 319.8,103.2 C 319.0,103.2 318.8,103.0 318.8,102.2 C 318.8,101.4 318.6,101.2 317.8,101.2 C 317.0,101.2 316.8,101.0 316.8,100.2 C 316.8,99.408 316.598,99.2 315.828,99.2 C 315.124,99.2 314.82,98.951 314.728,98.3 C 314.523,96.855 312.0,96.748 312.0,98.185 M 73.557,112.427 C 72.166,113.286 73.681,116.357 75.646,116.664 C 77.232,116.911 77.228,116.908 77.368,117.863 C 77.473,118.576 80.686,118.603 177.321,118.701 L 277.165,118.802 L 278.183,119.819 L 279.2,120.836 L 279.2,172.018 L 279.2,223.2 L 278.2,223.2 C 276.914,223.2 276.747,225.002 277.996,225.399 C 279.021,225.724 279.6,225.355 279.6,224.376 C 279.6,223.949 279.767,223.6 279.971,223.6 C 281.651,223.6 281.6,225.224 281.6,171.551 L 281.6,120.758 L 280.4,120.34 C 279.74,120.11 279.2,119.669 279.2,119.361 C 279.2,119.052 279.02,118.8 278.8,118.8 C 278.58,118.8 278.4,118.35 278.4,117.8 C 278.4,117.117 278.178,116.797 277.7,116.792 C 277.315,116.787 232.09,116.742 177.2,116.692 L 77.4,116.6 L 77.278,115.741 C 77.21,115.268 76.832,114.797 76.438,114.694 C 76.034,114.589 75.618,113.988 75.484,113.32 C 75.251,112.153 74.536,111.822 73.557,112.427 M 324.729,118.049 C 324.425,123.428 324.766,126.062 325.748,125.922 C 326.795,125.772 327.317,116.175 326.313,115.538 C 325.161,114.807 324.888,115.239 324.729,118.049 M 131.2,148.196 L 131.2,149.2 L 150.0,149.2 L 168.8,149.2 L 168.8,150.2 C 168.8,151.0 169.0,151.2 169.8,151.2 C 170.676,151.2 170.8,151.373 170.8,152.6 C 170.8,153.836 170.92,154.0 171.825,154.0 C 173.234,154.0 173.14,151.477 171.725,151.275 C 171.179,151.198 170.802,150.821 170.725,150.275 C 170.65,149.755 170.271,149.353 169.788,149.284 C 169.341,149.22 168.801,148.77 168.588,148.284 L 168.2,147.4 L 149.7,147.296 L 131.2,147.192 L 131.2,148.196 M 127.467,149.467 C 126.786,150.147 127.231,151.2 128.2,151.2 C 129.0,151.2 129.2,151.0 129.2,150.2 C 129.2,149.231 128.147,148.786 127.467,149.467 M 126.1,152.894 L 125.2,153.852 L 125.2,229.544 L 125.2,305.236 L 126.289,306.318 C 126.888,306.913 127.383,307.67 127.389,308.0 C 127.411,309.174 129.6,309.002 129.6,307.827 C 129.6,306.953 129.422,306.8 128.401,306.8 L 127.202,306.8 L 127.101,229.368 L 127.0,151.936 L 126.1,152.894 M 324.949,218.083 C 324.628,218.602 324.636,228.369 324.957,228.691 C 326.093,229.826 326.82,227.326 326.712,222.665 C 326.602,217.948 325.999,216.383 324.949,218.083 M 195.2,226.2 C 195.2,227.0 195.0,227.2 194.2,227.2 C 193.408,227.2 193.2,227.402 193.2,228.172 C 193.2,228.876 192.951,229.18 192.3,229.272 L 191.4,229.4 L 191.293,239.1 L 191.186,248.8 L 192.165,248.8 C 192.876,248.8 193.179,249.047 193.272,249.7 C 193.353,250.27 193.721,250.646 194.275,250.725 C 194.821,250.802 195.198,251.179 195.275,251.725 L 195.4,252.6 L 246.0,252.6 L 296.6,252.6 L 296.728,251.7 C 296.849,250.849 296.717,250.799 294.328,250.784 C 292.938,250.776 270.74,250.781 245.0,250.797 C 196.469,250.826 195.6,250.804 195.6,249.55 C 195.6,249.074 195.316,248.8 194.824,248.8 C 193.574,248.8 193.313,244.883 193.587,230.3 C 193.595,229.868 193.91,229.6 194.41,229.6 C 194.892,229.6 195.364,229.22 195.577,228.66 C 196.118,227.238 197.221,227.2 238.259,227.2 C 260.669,227.2 275.6,227.053 275.6,226.833 C 275.6,225.121 277.56,225.2 235.157,225.2 L 195.2,225.2 L 195.2,226.2 M 322.763,230.1 C 322.743,230.595 322.756,231.765 322.793,232.7 C 322.855,234.268 322.782,234.4 321.852,234.4 C 320.934,234.4 320.833,234.569 320.722,236.284 C 320.616,237.919 320.468,238.199 319.6,238.4 C 318.979,238.545 318.553,238.958 318.475,239.492 C 318.399,240.02 318.014,240.399 317.475,240.475 C 316.921,240.554 316.553,240.93 316.472,241.5 C 316.389,242.088 316.069,242.4 315.551,242.4 C 315.03,242.4 314.615,242.811 314.34,243.6 C 313.973,244.652 313.732,244.8 312.389,244.8 C 311.103,244.8 310.835,244.945 310.728,245.7 C 310.616,246.484 310.329,246.616 308.5,246.721 C 305.195,246.911 305.286,248.8 308.6,248.8 C 310.667,248.8 310.8,248.741 310.8,247.822 C 310.8,246.939 310.985,246.832 312.7,246.722 C 314.304,246.619 314.619,246.464 314.725,245.725 C 314.802,245.179 315.179,244.802 315.725,244.725 C 316.279,244.646 316.647,244.27 316.728,243.7 C 316.82,243.049 317.124,242.8 317.828,242.8 C 318.598,242.8 318.8,242.592 318.8,241.8 C 318.8,241.0 319.0,240.8 319.8,240.8 C 320.572,240.8 320.8,240.594 320.8,239.895 C 320.8,239.34 321.148,238.837 321.7,238.595 C 322.392,238.291 322.628,237.812 322.722,236.525 C 322.822,235.151 323.001,234.827 323.722,234.725 C 325.196,234.515 325.288,229.2 323.818,229.2 C 323.04,229.2 322.791,229.412 322.763,230.1 M 299.292,249.8 C 299.371,250.758 299.485,250.8 302.041,250.8 C 304.567,250.8 304.717,250.748 304.898,249.8 C 305.088,248.807 305.069,248.8 302.149,248.8 C 299.258,248.8 299.21,248.817 299.292,249.8 M 170.8,305.6 C 170.8,306.613 170.644,306.8 169.8,306.8 C 169.0,306.8 168.8,307.0 168.8,307.8 C 168.8,308.6 169.0,308.8 169.8,308.8 C 170.6,308.8 170.8,308.6 170.8,307.8 C 170.8,307.0 171.0,306.8 171.8,306.8 C 172.644,306.8 172.8,306.613 172.8,305.6 C 172.8,304.587 172.644,304.4 171.8,304.4 C 170.956,304.4 170.8,304.587 170.8,305.6 M 133.083,309.5 C 133.545,310.751 134.014,310.788 149.467,310.794 C 165.406,310.8 165.772,310.774 166.425,309.553 C 166.817,308.821 166.35,308.8 149.827,308.8 C 133.803,308.8 132.84,308.84 133.083,309.5" stroke="none" fill="#60c4ae" fill-rule="evenodd"/>
		<path id="path2" d="M 280.4,91.585 C 280.4,92.063 274.918,92.099 179.7,92.25 C 114.663,92.353 80.8,92.542 80.8,92.803 C 80.8,93.628 79.157,94.8 78.0,94.8 L 76.8,94.8 L 76.8,103.957 L 76.8,113.113 L 77.8,113.364 C 78.493,113.538 78.8,113.889 78.8,114.508 L 78.8,115.4 L 178.7,115.29 C 284.892,115.172 280.234,115.112 280.804,116.611 C 281.011,117.155 281.435,117.6 281.747,117.6 C 282.782,117.6 282.8,118.541 282.8,171.638 L 282.8,224.411 L 281.5,225.594 C 280.785,226.244 279.928,226.782 279.595,226.788 C 279.262,226.795 278.812,227.205 278.595,227.7 L 278.2,228.6 L 237.528,228.702 L 196.855,228.804 L 196.728,229.702 C 196.646,230.278 196.278,230.646 195.7,230.728 C 194.277,230.93 194.277,247.07 195.7,247.272 C 196.277,247.354 196.646,247.722 196.727,248.295 L 196.854,249.191 L 245.927,249.295 L 295.0,249.4 L 295.858,248.405 C 296.616,247.526 297.097,247.392 299.984,247.261 C 302.783,247.134 303.387,246.976 304.207,246.156 C 304.941,245.423 305.596,245.2 307.019,245.2 C 308.554,245.2 308.912,245.058 309.089,244.38 C 309.219,243.885 309.746,243.471 310.417,243.337 C 311.028,243.214 311.613,242.793 311.716,242.4 C 311.819,242.005 312.439,241.567 313.101,241.422 C 314.356,241.146 316.612,238.719 317.481,236.711 C 317.745,236.1 318.142,235.6 318.362,235.6 C 318.582,235.6 319.121,234.79 319.559,233.8 C 319.997,232.81 320.545,232.0 320.778,232.0 C 321.017,232.0 321.2,231.142 321.2,230.016 C 321.2,228.416 321.393,227.854 322.197,227.108 L 323.194,226.183 L 323.297,171.492 C 323.39,122.315 323.337,116.8 322.78,116.8 C 321.645,116.8 321.2,115.865 321.2,113.483 C 321.2,111.457 321.087,111.095 320.396,110.915 C 319.953,110.799 319.477,110.25 319.338,109.694 C 319.198,109.139 318.745,108.345 318.33,107.93 C 317.915,107.515 317.471,106.657 317.345,106.023 C 317.207,105.336 316.796,104.788 316.327,104.665 C 315.895,104.552 315.443,104.086 315.324,103.63 C 315.2,103.156 314.779,102.8 314.343,102.8 C 313.897,102.8 313.422,102.384 313.2,101.8 C 312.893,100.993 312.546,100.8 311.401,100.8 C 310.276,100.8 309.889,100.593 309.527,99.8 C 309.156,98.985 308.786,98.8 307.527,98.8 C 306.268,98.8 305.899,98.615 305.527,97.8 C 305.107,96.878 304.863,96.8 302.382,96.8 C 299.954,96.8 299.628,96.703 299.037,95.8 C 298.383,94.802 298.372,94.8 291.891,94.798 C 283.568,94.795 280.899,94.005 281.746,91.795 C 281.881,91.444 281.68,91.274 281.177,91.312 C 280.75,91.344 280.4,91.467 280.4,91.585 M 129.665,149.903 C 129.838,150.951 129.268,151.6 128.176,151.6 C 127.619,151.6 127.2,151.834 127.2,152.145 C 127.2,152.51 127.529,152.626 128.2,152.498 C 128.75,152.393 129.2,152.16 129.2,151.98 C 129.2,151.801 129.56,151.54 130.0,151.4 C 130.948,151.099 131.066,149.788 130.175,149.446 C 129.738,149.278 129.585,149.415 129.665,149.903 M 131.7,149.476 C 132.085,149.576 132.715,149.576 133.1,149.476 C 133.485,149.375 133.17,149.293 132.4,149.293 C 131.63,149.293 131.315,149.375 131.7,149.476 M 171.5,156.676 C 170.837,156.849 170.8,160.653 170.8,229.472 C 170.8,291.0 170.884,302.053 171.351,301.874 C 171.654,301.758 172.104,301.864 172.351,302.111 C 172.683,302.443 172.8,283.492 172.8,229.48 C 172.8,189.286 172.665,156.421 172.5,156.446 C 172.335,156.472 171.885,156.575 171.5,156.676 M 167.81,307.654 C 168.059,308.947 168.4,309.07 168.4,307.867 C 168.4,307.28 168.23,306.8 168.023,306.8 C 167.816,306.8 167.72,307.184 167.81,307.654" stroke="none" fill="#049c84" fill-rule="evenodd"/>
		<path id="path3" d="M 78.717,92.37 C 78.647,92.953 78.137,93.596 77.441,93.98 C 75.676,94.954 75.213,97.129 75.206,104.481 C 75.2,111.202 75.385,112.077 77.284,114.314 C 77.898,115.037 78.4,115.757 78.4,115.914 C 78.4,116.071 123.204,116.153 177.964,116.096 C 280.385,115.989 279.6,115.978 279.6,117.6 C 279.6,118.094 279.976,118.563 280.545,118.779 C 282.047,119.35 282.012,118.071 282.003,171.908 L 281.994,223.321 L 280.697,224.656 C 279.984,225.391 279.107,225.993 278.749,225.996 C 278.391,225.998 277.829,226.405 277.5,226.9 L 276.903,227.8 L 236.857,227.906 L 196.811,228.011 L 196.134,229.045 C 195.761,229.614 195.121,230.203 194.711,230.355 C 193.514,230.798 193.548,247.19 194.747,247.824 C 195.188,248.057 195.875,248.643 196.274,249.125 L 197.0,250.002 L 245.8,250.147 C 272.64,250.226 295.343,250.423 296.252,250.583 C 297.839,250.863 297.896,250.838 297.72,249.916 C 297.406,248.275 302.172,247.208 304.426,248.414 C 305.09,248.769 305.2,248.693 305.2,247.882 C 305.2,246.723 306.716,245.814 308.182,246.094 C 308.994,246.25 309.4,246.042 310.038,245.147 C 310.487,244.516 311.222,244.0 311.671,244.0 C 312.12,244.0 312.946,243.595 313.506,243.1 C 316.062,240.843 318.4,238.429 318.4,238.049 C 318.4,237.819 318.743,237.309 319.162,236.916 C 319.581,236.522 319.986,235.755 320.062,235.21 C 320.14,234.648 320.624,234.009 321.182,233.732 C 322.036,233.308 322.149,233.012 322.053,231.449 C 321.913,229.168 322.52,228.0 323.846,228.0 C 324.795,228.0 324.841,227.913 324.532,226.7 C 324.349,225.985 324.286,222.61 324.391,219.2 C 324.732,208.143 324.611,130.769 324.243,124.951 C 323.981,120.806 324.012,118.943 324.361,117.951 C 324.772,116.784 324.743,116.546 324.153,116.2 C 322.341,115.139 321.902,114.35 322.107,112.526 C 322.284,110.954 322.203,110.705 321.409,110.403 C 320.471,110.047 320.0,109.245 320.0,108.005 C 320.0,107.06 313.308,100.2 312.0,99.804 C 311.45,99.637 310.678,99.163 310.284,98.75 C 309.891,98.338 309.117,98.0 308.565,98.0 C 308.009,98.0 307.149,97.555 306.635,97.0 C 305.869,96.174 305.334,95.999 303.554,95.994 C 301.0,95.987 300.555,95.758 300.18,94.263 C 299.944,93.323 299.755,93.184 299.048,93.435 C 297.538,93.972 290.27,94.085 288.1,93.606 C 286.016,93.146 285.558,92.602 286.48,91.68 C 286.853,91.307 286.406,91.2 284.467,91.2 C 281.769,91.2 281.177,91.663 281.974,93.151 C 282.655,94.424 284.889,94.795 291.891,94.798 C 298.372,94.8 298.383,94.802 299.037,95.8 C 299.628,96.703 299.954,96.8 302.382,96.8 C 304.863,96.8 305.107,96.878 305.527,97.8 C 305.899,98.615 306.268,98.8 307.527,98.8 C 308.786,98.8 309.156,98.985 309.527,99.8 C 309.889,100.593 310.276,100.8 311.401,100.8 C 312.546,100.8 312.893,100.993 313.2,101.8 C 313.422,102.384 313.897,102.8 314.343,102.8 C 314.779,102.8 315.2,103.156 315.324,103.63 C 315.443,104.086 315.895,104.552 316.327,104.665 C 316.796,104.788 317.207,105.336 317.345,106.023 C 317.471,106.657 317.915,107.515 318.33,107.93 C 318.745,108.345 319.198,109.139 319.338,109.694 C 319.477,110.25 319.953,110.799 320.396,110.915 C 321.087,111.095 321.2,111.457 321.2,113.483 C 321.2,115.865 321.645,116.8 322.78,116.8 C 323.337,116.8 323.39,122.315 323.297,171.492 L 323.194,226.183 L 322.197,227.108 C 321.393,227.854 321.2,228.416 321.2,230.016 C 321.2,231.142 321.017,232.0 320.778,232.0 C 320.545,232.0 319.997,232.81 319.559,233.8 C 319.121,234.79 318.582,235.6 318.362,235.6 C 318.142,235.6 317.745,236.1 317.481,236.711 C 316.612,238.719 314.356,241.146 313.101,241.422 C 312.439,241.567 311.819,242.005 311.716,242.4 C 311.613,242.793 311.028,243.214 310.417,243.337 C 309.746,243.471 309.219,243.885 309.089,244.38 C 308.912,245.058 308.554,245.2 307.019,245.2 C 305.596,245.2 304.941,245.423 304.207,246.156 C 303.387,246.976 302.783,247.134 299.984,247.261 C 297.097,247.392 296.616,247.526 295.858,248.405 L 295.0,249.4 L 245.927,249.295 L 196.854,249.191 L 196.727,248.295 C 196.646,247.722 196.277,247.354 195.7,247.272 C 194.8,247.144 194.8,247.141 194.8,239.0 C 194.8,230.859 194.8,230.856 195.7,230.728 C 196.278,230.646 196.646,230.278 196.728,229.702 L 196.855,228.804 L 237.528,228.702 L 278.2,228.6 L 278.595,227.7 C 278.812,227.205 279.262,226.795 279.595,226.788 C 279.928,226.782 280.785,226.244 281.5,225.594 L 282.8,224.411 L 282.8,171.638 C 282.8,118.541 282.782,117.6 281.747,117.6 C 281.435,117.6 281.011,117.155 280.804,116.611 C 280.234,115.112 284.892,115.172 178.7,115.29 L 78.8,115.4 L 78.8,114.508 C 78.8,113.889 78.493,113.538 77.8,113.364 L 76.8,113.113 L 76.8,103.957 L 76.8,94.8 L 78.0,94.8 C 79.157,94.8 80.8,93.628 80.8,92.803 C 80.8,92.542 114.663,92.353 179.7,92.25 C 274.294,92.1 280.4,92.061 280.4,91.6 C 280.4,91.49 235.048,91.4 179.617,91.4 L 78.834,91.4 L 78.717,92.37 M 73.357,104.0 C 73.357,106.97 73.42,108.185 73.497,106.7 C 73.574,105.215 73.574,102.785 73.497,101.3 C 73.42,99.815 73.357,101.03 73.357,104.0" stroke="none" fill="#0ca484" fill-rule="evenodd"/>
		<path id="path4" d="M 77.95,91.6 C 77.923,91.82 77.877,92.223 77.85,92.495 C 77.823,92.767 77.305,93.226 76.7,93.516 C 76.049,93.829 75.6,94.366 75.6,94.835 C 75.6,95.533 74.157,96.511 73.6,96.191 C 73.49,96.128 73.4,99.745 73.4,104.228 L 73.4,112.379 L 74.315,112.214 C 75.069,112.077 75.273,112.263 75.475,113.277 C 75.616,113.982 76.027,114.587 76.438,114.694 C 76.832,114.797 77.21,115.268 77.278,115.741 L 77.4,116.6 L 177.2,116.692 C 232.09,116.742 277.315,116.787 277.7,116.792 C 278.178,116.797 278.4,117.117 278.4,117.8 C 278.4,118.35 278.58,118.8 278.8,118.8 C 279.02,118.8 279.2,119.052 279.2,119.361 C 279.2,119.669 279.74,120.11 280.4,120.34 L 281.6,120.758 L 281.6,171.551 C 281.6,225.105 281.646,223.6 279.999,223.6 C 279.81,223.6 279.598,224.005 279.528,224.5 C 279.411,225.325 279.223,225.388 277.283,225.262 C 275.18,225.124 275.167,225.13 275.426,226.162 L 275.687,227.2 L 238.302,227.2 C 197.219,227.2 196.118,227.238 195.577,228.66 C 195.364,229.22 194.892,229.6 194.41,229.6 C 193.91,229.6 193.595,229.868 193.587,230.3 C 193.313,244.883 193.574,248.8 194.824,248.8 C 195.316,248.8 195.6,249.074 195.6,249.55 C 195.6,250.076 195.989,250.378 196.9,250.562 C 198.738,250.932 295.616,250.756 294.4,250.385 C 293.85,250.217 271.675,250.062 245.123,250.04 L 196.845,250.0 L 196.251,249.151 C 195.923,248.684 195.271,248.099 194.801,247.851 C 193.554,247.193 193.47,230.814 194.711,230.355 C 195.121,230.203 195.761,229.614 196.134,229.045 L 196.811,228.011 L 236.857,227.906 L 276.903,227.8 L 277.5,226.9 C 277.829,226.405 278.391,225.998 278.749,225.996 C 279.107,225.993 279.984,225.391 280.697,224.656 L 281.994,223.321 L 282.003,171.908 C 282.012,118.071 282.047,119.35 280.545,118.779 C 279.976,118.563 279.6,118.094 279.6,117.6 C 279.6,115.978 280.385,115.989 177.964,116.096 C 123.204,116.153 78.4,116.071 78.4,115.914 C 78.4,115.757 77.898,115.037 77.284,114.314 C 74.125,110.594 74.24,95.746 77.441,93.98 C 78.587,93.348 79.348,91.2 78.427,91.2 C 78.192,91.2 77.978,91.38 77.95,91.6 M 130.7,91.5 C 157.375,91.557 201.025,91.557 227.7,91.5 C 254.375,91.443 232.55,91.397 179.2,91.397 C 125.85,91.397 104.025,91.443 130.7,91.5 M 286.48,91.68 C 285.604,92.556 285.981,93.1 287.777,93.553 C 289.959,94.102 297.576,94.134 298.4,93.597 C 298.812,93.328 298.415,93.283 297.132,93.453 C 293.449,93.94 289.893,93.282 290.173,92.164 C 290.447,91.073 287.477,90.683 286.48,91.68 M 300.188,94.296 C 300.555,95.756 301.011,95.987 303.554,95.994 C 305.334,95.999 305.869,96.174 306.635,97.0 C 307.149,97.555 308.009,98.0 308.565,98.0 C 309.117,98.0 309.891,98.338 310.284,98.75 C 310.678,99.163 311.45,99.637 312.0,99.804 C 313.308,100.2 320.0,107.06 320.0,108.005 C 320.0,109.258 320.474,110.048 321.447,110.418 C 322.232,110.716 322.346,110.97 322.145,111.973 C 321.781,113.797 322.285,115.12 323.606,115.803 C 324.779,116.41 324.8,116.403 324.8,115.41 C 324.8,114.599 324.603,114.4 323.8,114.4 C 322.846,114.4 322.8,114.291 322.8,112.028 C 322.8,109.872 322.718,109.644 321.9,109.528 C 321.155,109.422 320.979,109.113 320.879,107.732 C 320.774,106.292 320.596,106.007 319.579,105.652 C 318.93,105.426 318.4,104.958 318.4,104.611 C 318.4,104.264 317.95,103.809 317.4,103.6 C 316.85,103.391 316.4,102.941 316.4,102.6 C 316.4,102.259 315.95,101.809 315.4,101.6 C 314.818,101.379 314.4,100.902 314.4,100.46 C 314.4,99.936 314.028,99.626 313.2,99.46 C 312.235,99.267 312.0,99.016 312.0,98.178 C 312.0,97.231 311.892,97.16 310.809,97.398 C 309.028,97.789 308.0,97.324 308.0,96.127 C 308.0,95.128 307.957,95.113 305.856,95.376 C 302.818,95.755 301.477,95.358 301.708,94.147 C 301.859,93.358 301.725,93.2 300.901,93.2 C 300.024,93.2 299.944,93.323 300.188,94.296 M 324.164,118.649 C 324.015,119.446 324.052,122.461 324.246,125.349 C 324.69,131.94 324.714,210.958 324.275,218.8 C 324.059,222.651 324.091,225.003 324.37,225.8 C 324.74,226.857 324.773,226.738 324.647,224.8 C 324.373,220.561 324.871,217.793 325.9,217.848 L 326.8,217.896 L 326.8,171.803 L 326.8,125.711 L 325.8,125.902 C 324.709,126.111 324.48,124.66 324.759,119.3 C 324.885,116.881 324.562,116.528 324.164,118.649 M 129.228,150.073 C 129.206,150.928 128.976,151.181 128.1,151.313 L 127.0,151.48 L 128.051,151.54 C 129.352,151.614 130.009,150.867 129.579,149.8 C 129.294,149.094 129.253,149.127 129.228,150.073 M 141.5,149.5 C 145.955,149.564 153.245,149.564 157.7,149.5 C 162.155,149.435 158.51,149.382 149.6,149.382 C 140.69,149.382 137.045,149.435 141.5,149.5 M 168.561,150.397 C 168.587,151.059 168.868,151.443 169.4,151.543 C 169.84,151.625 170.332,151.897 170.494,152.146 C 170.68,152.434 170.79,152.344 170.794,151.9 C 170.798,151.423 170.489,151.2 169.827,151.2 C 169.133,151.2 168.806,150.942 168.688,150.3 C 168.543,149.512 168.528,149.524 168.561,150.397 M 170.8,155.4 C 170.8,156.814 171.018,156.998 172.167,156.557 C 173.294,156.125 172.989,154.0 171.8,154.0 C 170.924,154.0 170.8,154.173 170.8,155.4 M 127.396,229.2 C 127.396,270.45 127.443,287.325 127.5,266.7 C 127.557,246.075 127.557,212.325 127.5,191.7 C 127.443,171.075 127.396,187.95 127.396,229.2 M 322.386,228.827 C 322.142,229.282 321.993,230.462 322.053,231.449 C 322.149,233.012 322.036,233.308 321.182,233.732 C 320.624,234.009 320.14,234.648 320.062,235.21 C 319.986,235.755 319.581,236.522 319.162,236.916 C 318.743,237.309 318.4,237.819 318.4,238.049 C 318.4,238.429 316.062,240.843 313.506,243.1 C 312.946,243.595 312.12,244.0 311.671,244.0 C 311.222,244.0 310.487,244.516 310.038,245.147 C 309.4,246.042 308.994,246.25 308.182,246.094 C 306.726,245.816 305.2,246.723 305.2,247.868 C 305.2,248.43 305.438,248.8 305.8,248.8 C 306.17,248.8 306.4,248.425 306.4,247.821 C 306.4,246.922 306.572,246.832 308.5,246.721 C 310.329,246.616 310.616,246.484 310.728,245.7 C 310.835,244.945 311.103,244.8 312.389,244.8 C 313.732,244.8 313.973,244.652 314.34,243.6 C 314.615,242.811 315.03,242.4 315.551,242.4 C 316.069,242.4 316.389,242.088 316.472,241.5 C 316.553,240.93 316.921,240.554 317.475,240.475 C 318.014,240.399 318.399,240.02 318.475,239.492 C 318.553,238.958 318.979,238.545 319.6,238.4 C 320.468,238.199 320.616,237.919 320.722,236.284 C 320.833,234.569 320.934,234.4 321.852,234.4 C 322.782,234.4 322.855,234.268 322.793,232.7 C 322.663,229.411 322.724,229.2 323.8,229.2 C 324.422,229.2 324.8,228.973 324.8,228.6 C 324.8,227.673 322.908,227.851 322.386,228.827 M 298.481,248.497 C 297.327,249.052 297.415,250.6 298.6,250.6 C 299.2,250.6 299.369,250.375 299.275,249.7 C 299.155,248.838 299.272,248.8 302.075,248.794 C 304.111,248.79 304.818,248.67 304.4,248.4 C 303.595,247.88 299.628,247.944 298.481,248.497 M 171.3,301.887 C 170.275,302.255 170.702,304.4 171.8,304.4 C 172.586,304.4 172.8,304.197 172.8,303.449 C 172.8,302.385 172.06,301.614 171.3,301.887 M 129.6,307.8 C 129.6,308.533 129.813,308.8 130.4,308.8 C 130.987,308.8 131.2,308.533 131.2,307.8 C 131.2,307.067 130.987,306.8 130.4,306.8 C 129.813,306.8 129.6,307.067 129.6,307.8" stroke="none" fill="#3cb49c" fill-rule="evenodd"/>
	</g>
</svg>