<?xml version="1.0" encoding="UTF-8"?>
<!-- Generator: Adobe Illustrator 16.0.0, SVG Export Plug-In . SVG Version: 6.00 Build 0)  -->
<!DOCTYPE svg PUBLIC "-//W3C//DTD SVG 1.1//EN" "http://www.w3.org/Graphics/SVG/1.1/DTD/svg11.dtd">
<svg version="1.1" id="Layer_1" xmlns:x="http://ns.adobe.com/Extensibility/1.0/" xmlns:i="http://ns.adobe.com/AdobeIllustrator/10.0/" xmlns:graph="http://ns.adobe.com/Graphs/1.0/" xmlns="http://www.w3.org/2000/svg" xmlns:xlink="http://www.w3.org/1999/xlink" x="0px" y="0px" viewBox="0 0 205.566 49.309" enable-background="new 0 0 205.566 49.309" xml:space="preserve"><link xmlns="" type="text/css" rel="stylesheet" id="dark-mode-custom-link"/><link xmlns="" type="text/css" rel="stylesheet" id="dark-mode-general-link"/>
<metadata><?xpacket begin="﻿" id="W5M0MpCehiHzreSzNTczkc9d"?>
<x:xmpmeta xmlns:x="adobe:ns:meta/" x:xmptk="Adobe XMP Core 5.3-c011 66.145661, 2012/02/06-14:56:27        ">
   <rdf:RDF xmlns:rdf="http://www.w3.org/1999/02/22-rdf-syntax-ns#">
      <rdf:Description rdf:about="" xmlns:dc="http://purl.org/dc/elements/1.1/">
         <dc:format>image/svg+xml</dc:format>
         <dc:title>
            <rdf:Alt>
               <rdf:li xml:lang="x-default">S_logo_PENUP_no_icon_pos_rgb</rdf:li>
            </rdf:Alt>
         </dc:title>
      </rdf:Description>
      <rdf:Description rdf:about="" xmlns:xmp="http://ns.adobe.com/xap/1.0/" xmlns:xmpGImg="http://ns.adobe.com/xap/1.0/g/img/">
         <xmp:MetadataDate>2019-07-05T10:20:57+09:00</xmp:MetadataDate>
         <xmp:ModifyDate>2019-07-05T10:20:57+09:00</xmp:ModifyDate>
         <xmp:CreateDate>2019-07-05T10:20:54+09:00</xmp:CreateDate>
         <xmp:CreatorTool>Adobe Illustrator CS6 (Windows)</xmp:CreatorTool>
         <xmp:Thumbnails>
            <rdf:Alt>
               <rdf:li rdf:parseType="Resource">
                  <xmpGImg:width>256</xmpGImg:width>
                  <xmpGImg:height>92</xmpGImg:height>
                  <xmpGImg:format>JPEG</xmpGImg:format>
                  <xmpGImg:image>/9j/4AAQSkZJRgABAgEASABIAAD/7QAsUGhvdG9zaG9wIDMuMAA4QklNA+0AAAAAABAASAAAAAEA
AQBIAAAAAQAB/+4ADkFkb2JlAGTAAAAAAf/bAIQABgQEBAUEBgUFBgkGBQYJCwgGBggLDAoKCwoK
DBAMDAwMDAwQDA4PEA8ODBMTFBQTExwbGxscHx8fHx8fHx8fHwEHBwcNDA0YEBAYGhURFRofHx8f
Hx8fHx8fHx8fHx8fHx8fHx8fHx8fHx8fHx8fHx8fHx8fHx8fHx8fHx8fHx8f/8AAEQgAXAEAAwER
AAIRAQMRAf/EAaIAAAAHAQEBAQEAAAAAAAAAAAQFAwIGAQAHCAkKCwEAAgIDAQEBAQEAAAAAAAAA
AQACAwQFBgcICQoLEAACAQMDAgQCBgcDBAIGAnMBAgMRBAAFIRIxQVEGE2EicYEUMpGhBxWxQiPB
UtHhMxZi8CRygvElQzRTkqKyY3PCNUQnk6OzNhdUZHTD0uIIJoMJChgZhJRFRqS0VtNVKBry4/PE
1OT0ZXWFlaW1xdXl9WZ2hpamtsbW5vY3R1dnd4eXp7fH1+f3OEhYaHiImKi4yNjo+Ck5SVlpeYmZ
qbnJ2en5KjpKWmp6ipqqusra6voRAAICAQIDBQUEBQYECAMDbQEAAhEDBCESMUEFURNhIgZxgZEy
obHwFMHR4SNCFVJicvEzJDRDghaSUyWiY7LCB3PSNeJEgxdUkwgJChgZJjZFGidkdFU38qOzwygp
0+PzhJSktMTU5PRldYWVpbXF1eX1RlZmdoaWprbG1ub2R1dnd4eXp7fH1+f3OEhYaHiImKi4yNjo
+DlJWWl5iZmpucnZ6fkqOkpaanqKmqq6ytrq+v/aAAwDAQACEQMRAD8A9U4q7FXYq7FXYq7FXYq7
FXYq7FXYq7FXYq7FXYq7FXYq7FXYq7FXYq7FXYq7FXYq7FXYq7FXYq7FXYq7FXYq7FXYq7FXYq7F
XYq7FXYq7FXYq7FXYq7FXYq7FXYq7FXYq7FXYq7FXYq7FXYq7FXYq7FXYq7FXYq7FXYq7FXYqlms
eY9J0lf9Ll/ekVWBPikP0dvpzIwaXJlPpDj59VjxD1Fi9z+ZzVItbHbs0r7/APAqP45s4djH+KXy
Dq59sj+GPzKEP5l6vXa1twPAhz/xtl38jQ/nFq/lmf8ANCtD+Zt2D++sY3H+Q5U/iGyEuxh0l9jO
PbR6x+1kGked9F1F1iLG1uG2Ec1ACf8AJYbffTNfqOz8uPerHk7DT9o4sm10fNkGYLnOxV2KuxV2
KuxV2KuxV2KuxV2KuxV2KuxV2KuxV2KuxV2KuxV2KuxV2KuxV2KuxVLPMesLpOky3exl+xAp7yN0
+7rmRpcBy5BFx9VnGLGZPIZ55riZ553Mksh5O7bkk510ICIobAPITmZGzuSp5NgteWJGRXdUaQkR
qxALEUqFB69cFoJA5rsKXYq9I8ga/Le2r6fcuXntQGic7loum/8AqnOa7T0oxy4o/TL73pey9Uck
eGX1R+5luat2rzP/AJyI87+YvJf5bza55fnW21FLq3hWV40lHCRiGHFwy4q+V/8AobD87f8Aq8Qf
9Idt/wBU8VRFh/zlz+c1tcpNPe2d7Gv2ree0jVG37mH0n+5sVfSv5J/85A6B+ZUT2EkH6L8y20fq
T6ezc0ljBoZYHoOQFRyUiq+43xVin/OUf5u+evIN/wCXofLF7HaR6hFcvdB4IpuRiaMJT1Fan2z0
xV4b/wBDYfnb/wBXiD/pDtv+qeKu/wChsPzt/wCrxB/0h23/AFTxV9BeW/zS8533/ONF/wCerm7R
vMkEV08d0IYwgMVwY0/dBeGyjwxV4Lp//OW35xwX9vNd39veWsciPcWptYIxLGGBZOaIGXkNqjpi
r7X8q+ZtJ80eXbDX9Il9XT9RiWaFjTkK7MjgVoyMCrDsRiqTfm35h1Xy5+W/mDXNJkEOo2FqZbaV
lVwrhgKlWBU9e+Kvn78gfz+/M/zh+Z+naDr2oxXGmXEVy8sSW0ERJigd1+JEVvtLirvz+/P78z/J
/wCZ+o6DoOoxW+mW8Vs8UT20EpBlgR2+J0ZvtNir6B/KTzDqvmP8t/L+uatIJtRv7US3MqqqBnLE
VCqAo6dsVUPzo8z6x5X/ACw17XtGlWDU7GKN7aVkWQKWnjQ1VwVPwseuKvDP+cePz5/Mvzp+ZEOh
+YNQiudOe1uJWiS3hiPONQVPJFVsVQH56/8AOQn5peUvzV1zy/oepRW+l2X1X6vE9tBIR6tnDM9X
dCxq8hO5xVgX/Q2H52/9XiD/AKQ7b/qnirKvJH/OZnnOxvoovN1nBq+ms1Jp7ZBb3aA/tKARC9P5
Sq1/mGKvrny55i0bzHolprei3K3mmXyepbzp0IrQgg7qysCrKdwdjiqY4q7FXYq7FWCfmdcmthag
/D8crD32Vf45u+xobyl8HR9sz2jH3lgub50KpbwS3E8cEKl5ZWCIo7kmgyM5CIJPIMoRMiAOZZlc
fk3oN5LFc3V9erdIiCsEkSIrLvVKxMw+Kp65z57YyWaEa87/AFu5l7P4pkSlKfF5EfqSHzRoL6Nq
JhBZ7aQc4JWpUjuDQAVB8M22i1XjQv8AiHNwNbpfBnXQ8knzMcNPPJVy0HmS0oaLKWib3DKaf8NT
MDtKHFhPlu7DsyfDmHns9ZzlXqniv/OXv/km7n/mOtP+JHFXiX/OHWiaNq/nnWoNVsLbUIY9MLxx
XUMcyq31iIcgsgYA0PXFX0j56/IH8svNej3Fp+hLPS791P1bU7CCO3mjl40Rm9IJ6ijur128OuKv
hfyvrGqeQ/zCstQDmG90LUON0EJ+JYpDHcR9iVdOSH2OKvev+c4/+Or5R/4wXv8AxOHFU6/5xE8k
eS9e/LbUrzXNA03VbuPWZ4UuL20guJFjFrbMEDyozBQzE09zir3D/lU/5Wf9Sbof/cNs/wDqnirH
vzo0bSNH/I3zTYaRY2+nWMdlIY7S0iSCJS0gZiI4wqipNTtir8/7PT728FwbWFpvqsTXFwE3KxIQ
GcjwXkK+2/TFX0B/ziR+bn6C15vJGrz00rWZOWmO5+GG+O3Dc7LP0/16eJxV9Gfn9/5JrzZ/zAt/
xJcVfJX/ADif/wCTt0f/AIwXn/UNJirv+csP/J26x/xgs/8AqGjxV9a/kD/5Jryn/wAwK/8AEmxV
Cf8AOSP/AJJLzT/xgh/6iYsVfL//ADiH/wCTltv+YG7/AOIjFUq/5yj/APJ7eZv+jH/un2+Kvq78
ofIfke//ACp8rTX3l3TLua40u2a4lns7eRpGaMci7MhLE964q8S/5yt/JPyv5Y02y83eWLVNOgnu
RZ6jp8W0PKRGeOWJD9j+7Ksq7bigG+Kpv/zhF5lvpI/MnlqV2ezh9G/tVPSN3LRTU/1+KH6Dir6n
xV2KuxV2KvO/zM/46lp/xg/43OdB2N9Mve8/2z9Ufcw7Ny6VnP5d6DVm1eddhVLQHx6O/wDxqPpz
R9rar/Jj4u87J0v+UPwZzNPBBH6k0ixR1A5uQoqTQbn3zSRiZGgLd5KQiLJpKvNWhrq+lPEoH1qL
95bN/lD9n/ZDbMrRanwsl/wnm4uu03i46/iHJ5GysrFWBVlNCDsQRnWA28kRSY+WyRr+nkf8tEY+
9gMxtb/cy9zk6L++j73secg9g8V/5y9/8k3c/wDMdaf8SOKvBf8AnE7zn5W8qec9YvPMWpQ6Zaz6
cYYZZyQrSevG3EUB3opOKvf/AD1/zlP+WGg6PPLouopr2sFD9TsrZZPTLkfCZZSqoqA9aHl4DFXx
75B8s6p59/MTTtLo08+qXgm1GYD7MJf1LmVuwonI/PbFXuf/ADnH/wAdXyj/AMYL3/icOKvB/K/5
n+f/ACrp8mn+XdcudNspZTcSQQEBTKyqhc1B3Koo+jFU4/5X9+cn/U2X3/BL/wA04q+h9O8x655j
/wCcQtZ1bXLyS/1Ga3vFluZiC7BLoqoNAOiimKvHv+cTLa3u/wA20tbmJZrafTr2KeFwGR0eMKys
DsQQaHFWO/nd+WF5+W/nuawg5jSbkm70O6qa+iW2Qv8A78hb4W79G/axV7/B+bKfmF/zjJ5oe8kB
8xaVY/VtXToXPIencADtKq7/AOUG7UxV45/zif8A+Tt0f/jBef8AUNJirv8AnLD/AMnbrH/GCz/6
ho8VfWv5A/8AkmvKf/MCv/EmxVCf85I/+SS80/8AGCH/AKiYsVfL/wDziH/5OW2/5gbv/iIxVKv+
co//ACe3mb/ox/7p9vir6T/Kr87Pyp0j8svLWn6l5ltLa+stNt4rq3YuXR0jAZSAp3Htirxr/nJv
8+9B882ln5Z8rtJPpFpcfW7zUHRohPMqMkaxI4D8FDsSWAqabbVKrM/+cJ/KF9badr3mu4Ro7W/a
OxsCdvUEBZ5nFeq8mVQfEMO2Kvp7FXYq7FXYqwD8zYSLmxn7Mjp9KkH/AI2ze9jS2kPc6HtqO8T7
2IWUEU93FDNKsETsBJM3RV7n7s3OSRjEkCy6bHESkATQeqWnmHyvbwRWsF7CkUahI1rSgG3U5y2T
SZ5EyMTZeqx6vBECIkKCA/MUj/D6b9Z0p/wLZf2T/ffBo7X/ALn4o2z80+X0s4Ee+iDrGgYEnYhR
XtlGTRZjI+k827HrcIiPUOTBvOS6TJqX1zTbiOVLmrTIn7Mg6n/ZdfnXN52ecghwzBFcvc6PtEYz
PigQb5+9D+UITN5ksVH7MnM/JFLfwyfaMqwyYdnRvPF67nJvWvFf+cvf/JN3P/Mdaf8AEjir5F/L
T8rfMv5i6tdaXoDWyXNpB9ZlN1I0a8OapsVV96uMVep6V/zhX+ZE9wo1LVdLsbatJHjeeeUDxWP0
o1P0uMVfSH5Sfkl5S/LWylGmc7zV7pQl7q1wAJXUGvpoo2jjrvxHXapNBirwz/nOP/jq+Uf+MF7/
AMThxVl3/OGFjZT/AJXao89vHK41ucBnRWNPqlqaVIxV75+idK/5YoP+RSf0xVg/58www/kv5rjh
jWOMWLURAFG7r2GKvlf/AJxD/wDJy23/ADA3f/ERir6n/PT8rbf8xPI9xp0aqutWVbnRrhtqTqN4
2P8AJKvwn3o3bFXwLYavrvl2XVbCIvaveQTabqtpICKoWHON1NCGSRAR4EYq9J/5xP8A/J26P/xg
vP8AqGkxVW/5y4s57f8AOi+lkWiXdpaTQHxQRCIn/g4mxV9P/wDONWu6bqv5OaAlnMry6fE1neRA
/FHNE7fCw7clKsPY4qhP+cpdd03TPya1m2upVS51QwWljDX4pJPXSRqD/JjRmOKvnX/nDy1mm/OA
SxrVLbTrqWY+CkpGP+GcYqkn/OUf/k9vM3/Rj/3T7fFUd5a/5xW/M7zF5f0/XbCXTRZanAlzbiW4
kV+Ei8l5KImANPfFXovkj/nCi4jvo7jzrrUMtrG1W0/S/UPqgHYNcSrEVB78Y6+BGKvqLS9L0/St
OttN023S1sLONYba3iHFERBQKBiqKxV2KuxV2KpB520h9R0V/RXlcWx9aNR1IAoyj6Mzuz84x5QT
yOzg9oac5MRA5jd5TnVvJuxVM5devJ9FXSpz6kUUiyQSE/EoUMOHuPi28Mxo6WMcviDmRu5MtVKW
LwzyB2SzMlxnYqzj8t9HcyzarKtEAMNvXuSfjYfKlPvzRdr6gbYx7y77sjTnfIfcGe5o3ePGP+ct
4JpvyeuEhjaV/r1qeKAsaBj2GKvI/wDnCyyvIPPuuNPBJEp0ogM6MoJ+sRbbjFX2HirsVfKH/Obl
nd3GqeUzBBJKFgvORRWalXh60GKvn/RPMP5k6DavZ6Hqes6VaSSGZ7eynureNpCApcpEyqWKqBX2
GKph/wArD/Oj/qZvMf8A0nX3/NeKvpHRb/zDq/8AziDq9xrNxd6hqstveK8148s1wwW6IUFpCzmi
jb2xV5X/AM4kWF9D+cNs81tLEn1G6HJ0ZRUqO5GKvuLFXyP/AM5c/k9Lbaonn3QrVnttQZYdbghU
nhc0pHccR2lA4tt9oA9WxVhX/OKun38P51aRJNbSxxiC8q7oyje2fuRir6C/5yV/JC7/ADB0m11b
QQn+JdJVkjhchBdW7HkYebUCujVZK7bkHrUKvj/Tta/Mf8udYmS0n1Dy3qZotxAweAuFO3qROOLg
dqg+2Kuu9Q/Mb8yNciW4k1DzLqtOEMYDzmNWP7KKOMSV60AHc4q+yP8AnG/8lJ/y70G5vtZ4N5m1
fh9aRCGW2gTdIA4qGbkeUhXYmg341Kr5r/5ye0+/m/PLzLJFbSyRt9R4uiMwNNPtxsQMVfYn5Lo8
f5TeUUdSjrpVqGVhQg+mOoOKszxV2KuxV2KuxV2KuxVifmDyDa30r3Vg4tbhzV4yP3bE99t1ObTS
9pyxjhl6o/a6vV9mRyHij6ZfYxO58k+ZICf9E9VR+3EysD9FQ34ZtYdp4Zda97qZ9mZo9L9yF/wx
5h/6t8//AABy389h/nBq/IZv5pVYfKHmSYgLYuvu5VB/wxGRl2jhH8TOPZ2c/wALINI/LeTmsmqz
AIN/q8JJJ9mfan0ffmv1Ha+1Yx8S7DT9kb3kPwDOre3ht4UggQRxRjiiLsABmklIk2ebu4xAFDkv
wJdirsVdirsVdirsVdirsVdirsVdirsVdiqldWdpdxGK6gjuIjWscqq67ih2YEdMVbt7W2to/Tt4
khj68I1CLWlOgp4YqqYq7FXYq7FXYq7FXYq7FXYq7FXYq7FXYq7FXYq7FXYq7FXYq7FXYq7FXYq7
FXYq7FXYq7FXYq7FXYq7FXYq7FXYq7FXYq7FXYq7FXYq7FXYq7FXYq7FXYq7FXYq7FXYq7FXYq7F
XYq7FXYq7FXYq7FXYq7FXYq7FXYq7FXYq7FXYq7FXYq7FXYq7FXYq7FXYq7FXYq7FXYq7FXYq7FX
Yq7FXYq7FXYq7FXYq7FXYq7FXYq7FXYq7FXYq7FXYq7FXYq//9k=</xmpGImg:image>
               </rdf:li>
            </rdf:Alt>
         </xmp:Thumbnails>
      </rdf:Description>
      <rdf:Description rdf:about="" xmlns:xmpMM="http://ns.adobe.com/xap/1.0/mm/" xmlns:stRef="http://ns.adobe.com/xap/1.0/sType/ResourceRef#" xmlns:stEvt="http://ns.adobe.com/xap/1.0/sType/ResourceEvent#">
         <xmpMM:InstanceID>xmp.iid:01C58224C39EE91195EEAEF4C5B98644</xmpMM:InstanceID>
         <xmpMM:DocumentID>xmp.did:01C58224C39EE91195EEAEF4C5B98644</xmpMM:DocumentID>
         <xmpMM:OriginalDocumentID>uuid:5D20892493BFDB11914A8590D31508C8</xmpMM:OriginalDocumentID>
         <xmpMM:RenditionClass>proof:pdf</xmpMM:RenditionClass>
         <xmpMM:DerivedFrom rdf:parseType="Resource">
            <stRef:instanceID>uuid:ce10b92d-09b3-394c-b3c5-37249d82adc1</stRef:instanceID>
            <stRef:documentID>xmp.did:4127141f-3b23-4c5f-9c5b-9fdf748695a9</stRef:documentID>
            <stRef:originalDocumentID>uuid:5D20892493BFDB11914A8590D31508C8</stRef:originalDocumentID>
            <stRef:renditionClass>proof:pdf</stRef:renditionClass>
         </xmpMM:DerivedFrom>
         <xmpMM:History>
            <rdf:Seq>
               <rdf:li rdf:parseType="Resource">
                  <stEvt:action>saved</stEvt:action>
                  <stEvt:instanceID>xmp.iid:4313223c-109f-47c4-bd2f-8c311a527341</stEvt:instanceID>
                  <stEvt:when>2018-12-12T09:37:42+08:00</stEvt:when>
                  <stEvt:softwareAgent>Adobe Illustrator CC 23.0 (Macintosh)</stEvt:softwareAgent>
                  <stEvt:changed>/</stEvt:changed>
               </rdf:li>
               <rdf:li rdf:parseType="Resource">
                  <stEvt:action>saved</stEvt:action>
                  <stEvt:instanceID>xmp.iid:245d4724-bdb8-4542-933f-2123ba197d2b</stEvt:instanceID>
                  <stEvt:when>2019-02-07T16:09:43Z</stEvt:when>
                  <stEvt:softwareAgent>Adobe Illustrator CC 23.0 (Macintosh)</stEvt:softwareAgent>
                  <stEvt:changed>/</stEvt:changed>
               </rdf:li>
               <rdf:li rdf:parseType="Resource">
                  <stEvt:action>converted</stEvt:action>
                  <stEvt:parameters>from application/postscript to application/vnd.adobe.illustrator</stEvt:parameters>
               </rdf:li>
               <rdf:li rdf:parseType="Resource">
                  <stEvt:action>saved</stEvt:action>
                  <stEvt:instanceID>xmp.iid:4127141f-3b23-4c5f-9c5b-9fdf748695a9</stEvt:instanceID>
                  <stEvt:when>2019-02-07T20:40:22Z</stEvt:when>
                  <stEvt:softwareAgent>Adobe Illustrator CC 23.0 (Macintosh)</stEvt:softwareAgent>
                  <stEvt:changed>/</stEvt:changed>
               </rdf:li>
               <rdf:li rdf:parseType="Resource">
                  <stEvt:action>saved</stEvt:action>
                  <stEvt:instanceID>xmp.iid:01C58224C39EE91195EEAEF4C5B98644</stEvt:instanceID>
                  <stEvt:when>2019-07-05T10:20:57+09:00</stEvt:when>
                  <stEvt:softwareAgent>Adobe Illustrator CS6 (Windows)</stEvt:softwareAgent>
                  <stEvt:changed>/</stEvt:changed>
               </rdf:li>
            </rdf:Seq>
         </xmpMM:History>
      </rdf:Description>
      <rdf:Description rdf:about="" xmlns:illustrator="http://ns.adobe.com/illustrator/1.0/">
         <illustrator:StartupProfile>Print</illustrator:StartupProfile>
      </rdf:Description>
      <rdf:Description rdf:about="" xmlns:xmpTPg="http://ns.adobe.com/xap/1.0/t/pg/" xmlns:stDim="http://ns.adobe.com/xap/1.0/sType/Dimensions#" xmlns:xmpG="http://ns.adobe.com/xap/1.0/g/">
         <xmpTPg:HasVisibleOverprint>False</xmpTPg:HasVisibleOverprint>
         <xmpTPg:HasVisibleTransparency>True</xmpTPg:HasVisibleTransparency>
         <xmpTPg:NPages>1</xmpTPg:NPages>
         <xmpTPg:MaxPageSize rdf:parseType="Resource">
            <stDim:w>205.565918</stDim:w>
            <stDim:h>49.308594</stDim:h>
            <stDim:unit>Pixels</stDim:unit>
         </xmpTPg:MaxPageSize>
         <xmpTPg:PlateNames>
            <rdf:Seq>
               <rdf:li>Cyan</rdf:li>
               <rdf:li>Magenta</rdf:li>
               <rdf:li>Yellow</rdf:li>
               <rdf:li>Black</rdf:li>
            </rdf:Seq>
         </xmpTPg:PlateNames>
         <xmpTPg:SwatchGroups>
            <rdf:Seq>
               <rdf:li rdf:parseType="Resource">
                  <xmpG:groupName>Default Swatch Group</xmpG:groupName>
                  <xmpG:groupType>0</xmpG:groupType>
               </rdf:li>
            </rdf:Seq>
         </xmpTPg:SwatchGroups>
      </rdf:Description>
      <rdf:Description rdf:about="" xmlns:pdf="http://ns.adobe.com/pdf/1.3/">
         <pdf:Producer>Adobe PDF library 15.00</pdf:Producer>
      </rdf:Description>
   </rdf:RDF>
</x:xmpmeta>
                                                                                                    
                                                                                                    
                                                                                                    
                                                                                                    
                                                                                                    
                                                                                                    
                                                                                                    
                                                                                                    
                                                                                                    
                                                                                                    
                                                                                                    
                                                                                                    
                                                                                                    
                                                                                                    
                                                                                                    
                                                                                                    
                                                                                                    
                                                                                                    
                                                                                                    
                                                                                                    
                           
<?xpacket end="w"?>
	</metadata>
<g>
	<defs>
		<rect id="SVGID_1_" x="-18.101" y="-18.065" width="241.85" height="85.04"/>
	</defs>
	<clipPath id="SVGID_2_">
		<use xlink:href="#SVGID_1_" overflow="visible"/>
	</clipPath>
	<g clip-path="url(#SVGID_2_)">
		<defs>
			<rect id="SVGID_3_" x="-18.101" y="-18.064" width="241.85" height="85.039"/>
		</defs>
		<clipPath id="SVGID_4_">
			<use xlink:href="#SVGID_3_" overflow="visible"/>
		</clipPath>
		<path clip-path="url(#SVGID_4_)" d="M62.692,6.761h12.123c7.322,0,12.753,5.625,12.753,12.608c0,7.031-5.431,12.657-12.802,12.657    h-5.479V42.16h-6.595V6.761z M69.287,12.871v13.044h5.043c3.928,0,6.595-2.91,6.595-6.546c0-3.588-2.667-6.498-6.595-6.498H69.287    z"/>
		<polygon clip-path="url(#SVGID_4_)" points="91.355,6.761 112.352,6.761 112.352,13.065 97.95,13.065 97.95,21.212     112.352,21.212 112.352,27.516 97.95,27.516 97.95,35.855 112.352,35.855 112.352,42.16 91.355,42.16   "/>
		<polygon clip-path="url(#SVGID_4_)" points="116.526,6.761 123.995,6.761 139.318,30.861 139.318,6.761 145.913,6.761     145.913,42.16 138.881,42.16 123.122,17.284 123.122,42.16 116.526,42.16   "/>
		<path clip-path="url(#SVGID_4_)" d="M150.427,29.939V6.761h6.595v23.567c0,3.491,2.619,6.207,6.11,6.207    c3.442,0,6.207-2.716,6.207-6.207V6.761h6.595v23.179c0,8.342-5.431,12.706-12.753,12.706    C155.81,42.646,150.427,38.281,150.427,29.939"/>
		<path clip-path="url(#SVGID_4_)" d="M180.449,6.761h12.123c7.322,0,12.753,5.625,12.753,12.608    c0,7.031-5.431,12.657-12.803,12.657h-5.479V42.16h-6.595V6.761z M187.043,12.871v13.044h5.043c3.928,0,6.595-2.91,6.595-6.546    c0-3.588-2.667-6.498-6.595-6.498H187.043z"/>
	</g>
	<g clip-path="url(#SVGID_2_)">
		<defs>
			<rect id="SVGID_5_" x="-18.101" y="-18.064" width="241.85" height="85.039"/>
		</defs>
		<clipPath id="SVGID_6_">
			<use xlink:href="#SVGID_5_" overflow="visible"/>
		</clipPath>
		<path clip-path="url(#SVGID_6_)" fill="#60BAFF" d="M48.086,17.25c-0.593-4.475-2.177-8.53-4.969-11.5h-0.001    c-2.97-2.792-7.025-4.376-11.5-4.969c-4.273-0.566-7.183-0.427-7.183-0.427s-2.91-0.139-7.184,0.427    C12.774,1.375,8.72,2.958,5.75,5.75c-2.793,2.97-4.377,7.025-4.97,11.5c-0.566,4.273-0.426,7.184-0.426,7.184    s-0.14,2.91,0.426,7.183c0.593,4.476,2.177,8.53,4.97,11.5c2.97,2.793,7.024,4.377,11.499,4.971    c4.274,0.565,7.184,0.426,7.184,0.426s2.91,0.14,7.183-0.426c4.475-0.594,8.53-2.178,11.5-4.971h0.001    c2.792-2.97,4.376-7.024,4.969-11.5c0.566-4.272,0.426-7.183,0.426-7.183S48.652,21.523,48.086,17.25"/>
		<g opacity="0.1" clip-path="url(#SVGID_6_)">
			<g>
				<defs>
					<rect id="SVGID_7_" width="48.866" height="48.868"/>
				</defs>
				<clipPath id="SVGID_8_">
					<use xlink:href="#SVGID_7_" overflow="visible"/>
				</clipPath>
				<path clip-path="url(#SVGID_8_)" d="M25.326,0.339c1.173,0,3.426,0.063,6.291,0.443c4.474,0.593,8.529,2.176,11.499,4.969h0.001      c2.792,2.97,4.376,7.025,4.969,11.499c0.566,4.274,0.427,7.184,0.427,7.184s0.139,2.91-0.427,7.184      c-0.593,4.474-2.177,8.529-4.969,11.499l-0.001,0.001c-2.97,2.792-7.025,4.376-11.499,4.969      c-2.863,0.379-5.114,0.442-6.288,0.442c-0.578,0-0.896-0.016-0.896-0.016s-0.317,0.016-0.896,0.016      c-1.174,0-3.425-0.063-6.288-0.442C12.775,47.494,8.72,45.91,5.75,43.118v-0.001c-2.793-2.97-4.377-7.025-4.969-11.499      c-0.567-4.274-0.427-7.184-0.427-7.184s-0.14-2.91,0.427-7.184C1.373,12.776,2.957,8.721,5.75,5.751      c2.97-2.793,7.025-4.376,11.499-4.969c2.866-0.38,5.118-0.443,6.291-0.443c0.578,0,0.893,0.015,0.893,0.015      S24.749,0.339,25.326,0.339 M25.326,0L25.326,0c-0.559,0-0.877,0.014-0.907,0.016C24.417,0.014,24.099,0,23.54,0      c-1.111,0-3.412,0.058-6.335,0.445C12.402,1.082,8.36,2.831,5.518,5.503C2.83,8.361,1.081,12.402,0.444,17.206      c-0.564,4.254-0.43,7.215-0.429,7.245c-0.001-0.001-0.134,2.959,0.429,7.212c0.637,4.803,2.386,8.844,5.059,11.687      c2.857,2.688,6.898,4.438,11.702,5.074c2.921,0.387,5.221,0.444,6.332,0.444c0.561,0,0.881-0.014,0.91-0.016      c0.002,0.002,0.321,0.016,0.882,0.016c1.111,0,3.411-0.058,6.332-0.444c4.804-0.637,8.846-2.386,11.687-5.059      c2.688-2.858,4.438-6.899,5.075-11.702c0.563-4.255,0.43-7.216,0.428-7.245c0.002,0,0.135-2.96-0.428-7.212      c-0.637-4.804-2.386-8.845-5.059-11.688c-2.858-2.687-6.9-4.436-11.703-5.073C28.738,0.058,26.437,0,25.326,0"/>
			</g>
		</g>
		<path clip-path="url(#SVGID_6_)" fill-rule="evenodd" clip-rule="evenodd" fill="#FFFFFF" d="M23.527,11.044L10.442,33.289h8.526    l5.684,5.685v-5.685h14.21L25.777,11.044C25.273,10.188,24.031,10.188,23.527,11.044"/>
		<path clip-path="url(#SVGID_6_)" fill-rule="evenodd" clip-rule="evenodd" fill="#60BAFF" d="M26.073,26.185    c-0.785,0-1.421,0.636-1.421,1.421v12.789h2.842V27.605C27.494,26.82,26.858,26.185,26.073,26.185"/>
	</g>
	<g clip-path="url(#SVGID_2_)">
		<defs>
			<polygon id="SVGID_9_" points="21.334,14.771 27.97,14.771 24.652,9.133    "/>
		</defs>
		<clipPath id="SVGID_10_">
			<use xlink:href="#SVGID_9_" overflow="visible"/>
		</clipPath>
		<path clip-path="url(#SVGID_10_)" fill-rule="evenodd" clip-rule="evenodd" fill="#0096D2" d="M23.527,11.044L10.442,33.289h8.526    l5.684,5.685v-5.685h14.21L25.777,11.044C25.273,10.188,24.031,10.188,23.527,11.044"/>
	</g>
</g>
</svg>