<?xml version="1.0" encoding="utf-8"?>
<!-- Generator: Adobe Illustrator 28.0.0, SVG Export Plug-In . SVG Version: 6.00 Build 0)  -->
<svg version="1.2" baseProfile="tiny-ps" xmlns:xlink="http://www.w3.org/1999/xlink" viewBox="0 0 450 450" xmlns="http://www.w3.org/2000/svg">
  <title>Exanov</title>
  <g>
    <path fill="none" d="M288,34.6c0.3-0.1,0.6-0.1,0.8-0.1c-6.4,0.7-11.9,4.1-15.6,8.9C276.6,39.1,281.6,35.8,288,34.6z" />
    <path fill="none" d="M320.9,86.1c-0.8-0.2-3-0.3-6.1-0.4c3.6,0.2,6.2,0.5,8,0.9C322.2,86.4,321.6,86.3,320.9,86.1z" />
    <path fill="none" d="M250.3,104.3c1.6-6.6,3.3-11.1,5.2-13.9C253.6,93.2,251.9,97.6,250.3,104.3z" />
    <path fill="none" d="M286.3,85.5c-11.8,0.1-22.4,0.3-24.5,0.8c-0.4,0.1-0.7,0.2-1.1,0.3c2.2-0.5,6.2-0.7,16.3-0.9   C280.3,85.6,283.4,85.6,286.3,85.5z" />
    <path fill="none" d="M178.2,73.7c0.2,4.3-0.7,8.2-2.5,11.5c6.4-11.9,0.5-27.7-13.4-31.6c-0.1,0-0.2,0-0.3-0.1   C170.9,56,177.7,63.8,178.2,73.7z" />
    <path fill="none" d="M174.8,87C174.8,87,174.7,87,174.8,87C174.7,87,174.8,87,174.8,87z" />
    <path fill="none" d="M145.4,94.1c-1.4-0.8-2.8-1.9-4.1-3.1c-7.4-7-8.6-17.2-5-25.3c-2.3,4.9-2.9,10.8-0.7,16.7   C137.5,87.7,141,91.7,145.4,94.1z" />
    <path fill="none" d="M175.7,85.4c-0.2,0.3-0.3,0.6-0.5,0.8C175.4,86,175.5,85.7,175.7,85.4z" />
    <path fill="none" d="M314.4,59.6c0,0.5-0.1,0.9-0.2,1.4C314.3,60.5,314.3,60,314.4,59.6z" />
    <path fill="none" d="M308.6,73l-0.1,0.1C308.5,73.1,308.5,73.1,308.6,73z" />
    <path fill="none" d="M272.1,70.2c2.2,3.4,5.2,6,8.5,7.8c-1.9-1-3.8-2.4-5.5-4.1C274,72.7,273,71.5,272.1,70.2z" />
    <path fill="none" d="M314.5,57.7c0,0.6,0,1.2-0.1,1.9c0.8-9.2-4-18.4-12.7-22.7C309.1,40.7,314.5,48.7,314.5,57.7z" />
    <path fill="none" d="M272.5,44.3c0-0.1,0.1-0.1,0.1-0.2C272.6,44.2,272.6,44.3,272.5,44.3z" />
    <path fill="none" d="M307.9,73.7c-3.3,3.3-7.5,5.6-12.1,6.5C300.3,79.3,304.6,77.2,307.9,73.7z" />
    <path fill="none" d="M328.8,91.2c2.5,4,4.6,10.6,6.5,20.8C333.3,101.4,331.5,95,328.8,91.2z" />
    <path fill="none" d="M405.4,263.6c0.1,0.2,0.2,0.5,0.2,0.7C405.5,264.1,405.4,263.9,405.4,263.6z" />
    <path fill="none" d="M116.5,119.1c0.1-0.2,0.1-0.4,0.2-0.6C116.6,118.6,116.6,118.8,116.5,119.1z" />
    <path fill="none" d="M347.6,340c0.7-0.3,1.5-0.6,2.2-0.9c-10.6,4.2-24.3,9-44,15.6C330.3,346.5,338.6,343.5,347.6,340z" />
    <path fill="none" d="M389.1,317.3c9.5-7.8,15.2-16.2,17.7-25.6C404.2,301.1,398.2,309.7,389.1,317.3z" />
    <path fill="none" d="M130.2,100c-3.1,0.4-5.4,1.4-7.2,3.2c1.7-1.6,3.7-2.5,6.5-3.1C129.7,100.1,130,100.1,130.2,100z" />
    <path fill="none" d="M405.1,263c-4.7-12.3-14.7-22.2-29.1-29C390.1,240.8,400.4,250.8,405.1,263z" />
    <path fill="none" d="M336.8,224.5c0.5,0,0.9,0.1,1.4,0.1C337.7,224.5,337.2,224.5,336.8,224.5z" />
    <path fill="none" d="M118.3,112.5L118.3,112.5L118.3,112.5z" />
    <path fill="none" d="M116.9,117.6c0.1-0.2,0.1-0.5,0.2-0.7C117,117.1,117,117.3,116.9,117.6z" />
    <path fill="none" d="M117.8,114.1c0-0.1,0.1-0.3,0.1-0.4C117.9,113.8,117.9,114,117.8,114.1z" />
    <path fill="none" d="M117.3,116c0.1-0.3,0.2-0.6,0.2-0.9C117.5,115.4,117.4,115.7,117.3,116z" />
    <path fill="none" d="M122.8,103.5c0.1-0.1,0.1-0.1,0.2-0.2C122.9,103.4,122.8,103.4,122.8,103.5z" />
    <path fill="#242424" d="M116.5,193.6c1.6-1.8,1.2-0.5,8-30c2.9-12.7,5.3-21.7,5.8-21.7s0.4,0.7-0.5,5.5c-1.6,8.2-4.9,26-5.2,27.9   c-0.2,1-0.7,3.7-1.1,6s-1.5,7.9-2.3,12.5s-1.9,10.2-2.3,12.5c-2.5,13-4.5,24.4-4.4,24.6c0.1,0.1,3,0.5,6.4,0.9s6.3,0.8,6.4,0.9   s0,2.4-0.3,5.1c-0.9,8.1-2.5,23.6-3.5,34.6c-3.2,32.6-3.1,32.3-1.5,35.8c5.3,11.3,22.3,8.9,24.1-3.4c0.3-1.7,1.5-12.7,2.2-19.9   c0.3-2.9,2.1-17.4,3.1-25.8c0.5-4.2,1.1-8.5,1.2-9.5s0.6-4.9,1.1-8.7l0.9-6.8h1.8h1.8l0.4,3.3c0.2,1.8,1.1,8.7,1.9,15.3   c2.3,18.2,4,32.1,5.3,45.1c1,9.4,1.4,10.9,3.9,13.6c6.1,6.6,17,5.1,21-3c1.4-2.8,1.5-4.9,0.8-12c-0.3-3.1-0.6-6.5-0.7-7.5   c-0.8-8.9-4.4-45.2-5.1-51.3c-0.3-2.7-0.5-4.9-0.5-5c0.1-0.1,3-0.5,6.5-0.9s6.4-0.8,6.5-0.9s-0.4-3.3-1.1-7.1   c-0.7-3.8-2-10.2-2.7-14.3s-1.7-9.2-2.2-11.5c-0.4-2.3-1.4-7.5-2.2-11.5s-1.8-9.6-2.3-12.3s-1.6-8.3-2.3-12.3   c-0.8-4-1.9-10-2.5-13.3c-1.3-6.6-1.3-7-0.8-6.8c0.4,0.1,2,6.1,4.4,16.6c5.5,24,8.1,33.6,9.6,35.2c3.3,3.8,10.1,3.7,13.6-0.2   c2.7-3,2.8-6,0.5-16.1c-0.8-3.6-2.6-11.4-3.9-17.3c-2.7-12.2-4.1-18.4-6.2-27.2c-0.8-3.3-2-8.5-2.6-11.5c-4.4-20-8.6-23.1-29.4-21   c-8.4,0.8-16.1,0.8-24.8,0c-5.6-0.5-9.8-0.7-13.1-0.3c-0.2,0-0.5,0.1-0.7,0.1c-2.8,0.6-4.8,1.5-6.5,3.1c0,0,0,0-0.1,0.1   s-0.1,0.1-0.2,0.2c-1.8,2-3.2,4.9-4.5,9l0,0c-0.1,0.4-0.2,0.8-0.4,1.2c0,0.1-0.1,0.3-0.1,0.4c-0.1,0.3-0.2,0.7-0.3,1   c-0.1,0.3-0.2,0.6-0.2,0.9c-0.1,0.3-0.1,0.5-0.2,0.8c-0.1,0.2-0.1,0.5-0.2,0.7c-0.1,0.3-0.1,0.6-0.2,0.9c-0.1,0.2-0.1,0.4-0.2,0.6   c-0.1,0.5-0.3,1.1-0.4,1.6c-2.9,12.2-5,21-6.1,26.5c-3.1,14.6-5.5,24.6-7.9,32.9c-1.7,5.9-1.8,8-0.8,10.7   C103.6,196.7,112.3,198.4,116.5,193.6z" />
    <path fill="#242424" d="M141.3,91.1c1.3,1.2,2.7,2.3,4.1,3.1c8.1,4.6,18.9,3.8,26.5-3.6c1.1-1.1,2.1-2.3,2.9-3.5l0,0   c0.2-0.2,0.3-0.5,0.4-0.7c0.2-0.3,0.3-0.6,0.5-0.8l0.1-0.1c1.7-3.3,2.7-7.2,2.5-11.5c-0.5-9.9-7.4-17.7-16.2-20.1   c-11.1-2.9-21.5,3-25.7,12.1C132.7,73.8,133.9,84.1,141.3,91.1z" />
    <path fill="#242424" d="M273.2,43.5c-0.2,0.2-0.4,0.5-0.5,0.7c0,0.1-0.1,0.1-0.1,0.2c-4.5,6.5-5.8,15.3-1.7,23.6   c0.4,0.8,0.8,1.5,1.3,2.2c0.9,1.3,1.8,2.5,3,3.6c1.7,1.7,3.6,3.1,5.5,4.1c4.7,2.4,10.1,3.2,15.2,2.2c4.5-0.9,8.8-3.2,12.1-6.5   c0.2-0.2,0.3-0.3,0.5-0.5l0.1-0.1c0.7-0.8,1.3-1.6,1.9-2.4c2-3,3.3-6.3,3.8-9.6c0.1-0.5,0.1-0.9,0.2-1.4c0,0,0,0,0-0.1   c0-0.6,0.1-1.2,0.1-1.9c0-9-5.4-16.9-12.8-20.8c-1.4-0.7-2.9-1.3-4.5-1.7c-2.9-0.7-5.7-0.9-8.3-0.6c-0.3,0-0.6,0.1-0.8,0.1   C281.6,35.8,276.6,39.1,273.2,43.5z" />
    <path fill="#242424" d="M406.8,291.7c1.3-5,1.7-10.3,1.2-16c-0.3-4-1.2-7.8-2.4-11.4c-0.1-0.2-0.2-0.5-0.2-0.7   c-0.1-0.2-0.2-0.4-0.3-0.7c-4.7-12.1-15-22.2-29.1-29c-8.7-4.1-18.9-7-30.6-8.7c-2.1-0.3-5-0.6-7.2-0.8c-0.5,0-0.9-0.1-1.4-0.1   l-4-0.2l0.4,5.6c2.5,35.2,3.2,44.3,4.1,61.5l0.7,12.2l-1.1,4.8c-4.4,19.6-27.8,26.1-42.3,11.8l-3.1-3.1l-0.8,1.1   c-9.6,12.7-29.5,12.9-39.4,0.4c-4.7-6-6.3-12.3-5.3-21.6c0.7-6.8,1.9-19.4,3.2-34.7c0.3-3.3,0.6-6.8,0.7-7.8   c0.6-6.5,0.9-11.1,0.7-11.2c-0.9-0.9-16.5,10.3-23.9,17l-3.6,3.2l-1.1-1.9c-4.2-7.5-16.5-20.3-18.7-19.6c-0.2,0.1-1.5,0.4-2.8,0.7   c-2.2,0.5-2.4,0.6-2.3,1.4c2.4,21.4,5.9,59.7,5.6,61c-1.4,7-2.1,8.7-4.7,12.3c-10.7,15-33.8,13.1-42.2-3.5l-0.7-1.5l-0.8,1.6   c-9.4,20.1-40.7,16.8-45.8-4.9c-1.1-4.6-1.1-5.8-0.4-13c0.4-3.8,1-10.2,1.3-14.3s0.9-9.6,1.2-12.2c2.1-19.9,2.6-26.2,2.2-26.5   c-0.2-0.2-1.4-0.5-2.6-0.7c-2.4-0.5-5.4-2.4-6.8-4.4c-1-1.5-0.6-1.6-5.2,0.5c-38.2,16.4-62.3,52.4-50.7,75.9   c6.2,12.6,20.3,22.5,53.4,37.6c26.4,12,35.1,16.7,49.7,27c15.3,10.8,30.1,26.1,33.2,34.2l0.7,1.9l2.9-2.8   c11.7-11.5,43.9-29.4,77.5-43.2c9.3-3.8,17.5-6.7,39.7-14.2c19.6-6.6,33.4-11.4,44-15.6c16.9-6.9,29.9-14,39.3-21.7   C398.2,309.7,404.2,301.1,406.8,291.7z" />
    <path fill="#242424" d="M242.3,190.1c7.9,0,9.3-3.1,17.2-39.5c2.9-13.5,5.8-24.7,6.4-24.9c1.2-0.4,2,35.6,1,44.9   c-0.1,0.6-0.2,3.3-0.3,6c-0.5,11.4-1,20.2-1.7,31.8c-0.3,4.2-0.6,10.3-0.8,13.5c-0.2,3.2-0.7,10.6-1.2,16.5s-0.9,11.9-1,13.3   c-0.5,7.4-2.6,30.9-3.7,41.5c-1,9.8-0.9,11.8,0.5,14.9c3.9,8.4,15.1,10.4,21.7,3.9c3.5-3.5,3.8-4.6,5.2-23.4   c0.9-11.8,2.2-29.1,2.3-31.3c0.3-4,0.8-11.1,1.3-18.7c0.6-7.8,0.8-10.3,1-13.2c1.2-16,1.4-18.2,1.8-17.9c0.3,0.2,0.3,0.3,1.5,17.1   c1.5,20.2,1.8,24.9,2,28.5c0.1,1.9,0.3,4.2,0.3,5.2c0.1,0.9,0.2,2.8,0.3,4.2c0.1,1.4,0.5,6.5,0.8,11.5c0.4,5,0.7,10.4,0.8,12.2   c1.4,22.4,2.3,25.3,9.1,28.7c8.6,4.3,20.3-3.3,19.3-12.5c-0.1-0.5-0.2-3-0.3-5.5c-0.1-2.5-0.3-5.5-0.4-6.7s-0.4-5.9-0.7-10.5   c-0.3-4.6-0.6-9.2-0.7-10.2s-0.2-3.5-0.4-5.5c-0.1-2-0.6-9.7-1.2-17c-0.5-7.3-1.1-14.5-1.1-15.8c-0.1-1.4-0.6-8.4-1.2-15.5   c-0.5-7.2-1.1-14.3-1.2-15.8c-0.1-1.6-0.5-8.2-1-14.7s-0.9-13.5-1-15.5s-0.3-6.1-0.5-9.2c-0.2-3-0.3-12.1-0.3-20.1   c0-15.9,0.1-16.9,1.6-11.5c1.4,5.1,4.3,17,5.7,23.5c4,18.1,7.9,32.3,9.3,34.3c2.2,3.2,7.7,4.6,11.4,2.9c5.5-2.4,6.9-7.2,4.7-16.3   c-1.3-5.2-3.1-13.3-6.3-27.8c-1.3-6-1.9-8.7-4.6-20.2c-1-4.2-2.3-10.1-2.9-13.2c-1.9-10.2-4-16.9-6.5-20.8c-1.6-2.4-3.6-3.8-6-4.6   c-1.8-0.4-4.4-0.7-8-0.9c-6.9-0.2-18.1-0.3-28.6-0.2c-2.9,0-6,0.1-9.3,0.2c-10.1,0.2-14.1,0.4-16.3,0.9c-2,0.6-3.7,1.8-5.1,3.8   c-2,2.8-3.6,7.3-5.2,13.9c-0.2,0.7-0.3,1.4-0.5,2.2c-0.7,2.9-1.7,7.4-2.3,10c-1.6,6.6-3,12.5-4.3,18.7c-4.8,22.2-7.6,33.7-9.5,39.7   C230.9,183.4,234.7,190.2,242.3,190.1z" />
    <path fill="#FBC3E3" d="M225,1H1v900v00h00h900V225V1H225z M288.8,34.5c2.7-0.3,5.5-0.1,8.3,0.6c1.6,0.4,3.1,1,4.5,1.7   c8.7,4.3,13.5,13.4,12.7,22.7c0,0,0,0,0,0.1c0,0.5-0.1,0.9-0.2,1.4c-0.5,3.3-1.7,6.6-3.8,9.6c-0.6,0.9-1.2,1.7-1.9,2.4l-0.1,0.1   c-0.2,0.2-0.3,0.3-0.5,0.5c-3.4,3.5-7.6,5.6-12.1,6.5c-5.1,1-10.6,0.2-15.2-2.2c-3.4-1.7-6.3-4.3-8.5-7.8c-0.5-0.7-0.9-1.4-1.3-2.2   c-4.1-8.3-2.8-17.1,1.7-23.6c0-0.1,0.1-0.1,0.1-0.2c0.2-0.2,0.4-0.5,0.5-0.7C276.9,38.6,282.4,35.2,288.8,34.5z M233.7,174.8   c1.9-6,4.7-17.5,9.5-39.7c1.3-6.2,2.7-12.1,4.3-18.7c0.6-2.6,1.7-7.1,2.3-10c0.2-0.8,0.3-1.5,0.5-2.2c1.6-6.7,3.2-11.1,5.2-13.9   c1.4-2,3.1-3.2,5.1-3.8c0.3-0.1,0.7-0.2,1.1-0.3c2.1-0.4,12.8-0.7,24.5-0.8c10.4-0.1,21.7,0,28.6,0.2c3.1,0.1,5.3,0.2,6.1,0.4   c0.7,0.1,1.3,0.3,1.9,0.5c2.4,0.8,4.4,2.2,6,4.6c2.6,3.8,4.5,10.2,6.5,20.8c0.6,3,1.9,9,2.9,13.2c2.7,11.4,3.3,14.1,4.6,20.2   c3.2,14.5,5,22.6,6.3,27.8c2.2,9,0.8,13.8-4.7,16.3c-3.7,1.6-9.2,0.2-11.4-2.9c-1.4-2-5.3-16.3-9.3-34.3   c-1.4-6.4-4.3-18.4-5.7-23.5c-1.5-5.4-1.6-4.4-1.6,11.5c0,8,0.1,17.1,0.3,20.1c0.2,3,0.4,7.1,0.5,9.2c0.1,2,0.6,9,1,15.5   c0.5,6.5,0.9,13.1,1,14.7c0.1,1.6,0.6,8.7,1.2,15.8c0.5,7.1,1.1,14.1,1.2,15.5s0.6,8.5,1.1,15.8s1.1,15,1.2,17s0.3,4.5,0.4,5.5   s0.4,5.6,0.7,10.2c0.3,4.6,0.6,9.3,0.7,10.5c0.1,1.2,0.3,4.2,0.4,6.7s0.3,5,0.3,5.5c1,9.2-10.7,16.8-19.3,12.5   c-6.8-3.4-7.7-6.3-9.1-28.7c-0.1-1.7-0.5-7.2-0.8-12.2c-0.4-5-0.7-10.1-0.8-11.5c-0.1-1.4-0.2-3.2-0.3-4.2   c-0.1-0.9-0.2-3.2-0.3-5.2c-0.2-3.6-0.5-8.2-2-28.5c-1.2-16.8-1.2-16.9-1.5-17.1c-0.4-0.3-0.7,1.9-1.8,17.9c-0.2,3-0.4,5.5-1,13.2   c-0.6,7.6-1.1,14.7-1.3,18.7c-0.1,2.3-1.4,19.5-2.3,31.3c-1.4,18.8-1.7,19.9-5.2,23.4c-6.6,6.6-17.7,4.6-21.7-3.9   c-1.4-3-1.5-5.1-0.5-14.9c1.1-10.6,3.2-34.1,3.7-41.5c0.1-1.5,0.6-7.5,1-13.3c0.5-5.9,1-13.3,1.2-16.5s0.6-9.3,0.8-13.5   c0.7-11.7,1.2-20.4,1.7-31.8c0.1-2.7,0.3-5.4,0.3-6c1-9.3,0.2-45.3-1-44.9c-0.6,0.2-3.5,11.4-6.4,24.9   c-7.9,36.4-9.2,39.4-17.2,39.5C234.7,190.2,230.9,183.4,233.7,174.8z M136.3,65.7c4.3-9.1,14.6-15,25.7-12.1c0.1,0,0.2,0,0.3,0.1   c14,3.9,19.8,19.7,13.4,31.6l-0.1,0.1c-0.2,0.3-0.3,0.6-0.5,0.8c-0.1,0.2-0.3,0.5-0.4,0.7l0,0c-0.8,1.2-1.8,2.4-2.9,3.5   c-7.5,7.5-18.3,8.2-26.5,3.6c-4.3-2.5-7.9-6.4-9.8-11.7C133.4,76.5,134,70.7,136.3,65.7z M102.1,180c2.4-8.3,4.7-18.2,7.9-32.9   c1.2-5.5,3.2-14.3,6.1-26.5c0.1-0.6,0.3-1.1,0.4-1.6c0.1-0.2,0.1-0.4,0.2-0.6c0.1-0.3,0.1-0.6,0.2-0.9c0.1-0.2,0.1-0.5,0.2-0.7   c0.1-0.3,0.1-0.5,0.2-0.8s0.2-0.6,0.2-0.9c0.1-0.3,0.2-0.7,0.3-1c0-0.1,0.1-0.3,0.1-0.4c0.1-0.4,0.2-0.8,0.4-1.2l0,0   c1.3-4.1,2.6-7,4.5-9c0.1-0.1,0.1-0.1,0.2-0.2c0,0,0,0,0.1-0.1c1.8-1.8,4.1-2.8,7.2-3.2c3.3-0.4,7.5-0.2,13.1,0.3   c8.8,0.8,16.4,0.8,24.8,0c20.8-2.1,25,1,29.4,21c0.7,3,1.8,8.2,2.6,11.5c2.1,8.8,3.5,15,6.2,27.2c1.3,6,3.1,13.8,3.9,17.3   c2.3,10.1,2.3,13-0.5,16.1c-3.5,3.9-10.3,4-13.6,0.2c-1.5-1.7-4.1-11.3-9.6-35.2c-2.4-10.5-4-16.5-4.4-16.6   c-0.6-0.2-0.5,0.2,0.8,6.8c0.6,3.3,1.8,9.3,2.5,13.3c0.8,4,1.8,9.6,2.3,12.3s1.6,8.3,2.3,12.3c0.8,4,1.7,9.2,2.2,11.5   c0.4,2.3,1.4,7.5,2.2,11.5s2,10.5,2.7,14.3s1.2,7,1.1,7.1s-3.1,0.5-6.5,0.9c-3.5,0.4-6.4,0.8-6.5,0.9c-0.1,0.1,0.2,2.3,0.5,5   c0.8,6.1,4.4,42.4,5.1,51.3c0.1,1,0.4,4.4,0.7,7.5c0.7,7.1,0.5,9.2-0.8,12c-4,8.1-14.9,9.7-21,3c-2.5-2.7-2.9-4.2-3.9-13.6   c-1.3-12.9-3-26.8-5.3-45.1c-0.8-6.6-1.7-13.5-1.9-15.3l-0.4-3.3h-1.8h-1.8l-0.9,6.8c-0.5,3.8-1,7.7-1.1,8.7   c-0.1,1-0.6,5.3-1.2,9.5c-1.1,8.4-2.9,23-3.1,25.8c-0.7,7.3-1.9,18.2-2.2,19.9c-1.8,12.3-18.8,14.7-24.1,3.4   c-1.7-3.5-1.7-3.2,1.5-35.8c1.1-11,2.6-26.5,3.5-34.6c0.3-2.7,0.4-5,0.3-5.1s-3-0.5-6.4-0.9s-6.3-0.8-6.4-0.9   c-0.2-0.2,1.9-11.6,4.4-24.6c0.4-2.3,1.5-7.9,2.3-12.5s1.9-10.2,2.3-12.5s0.9-5,1.1-6c0.3-1.8,3.7-19.7,5.2-27.9   c0.9-4.8,1-5.5,0.5-5.5s-2.9,8.9-5.8,21.7c-6.8,29.5-6.4,28.1-8,30c-4.2,4.8-13,3.1-15.2-2.9C100.3,188,100.5,185.9,102.1,180z    M389.1,317.3c-9.4,7.7-22.3,14.8-39.3,21.7c-0.7,0.3-1.5,0.6-2.2,0.9c-9,3.6-17.3,6.5-41.8,14.7c-22.2,7.5-30.4,10.4-39.7,14.2   c-33.6,13.8-65.8,31.7-77.5,43.2l-2.9,2.8L185,413c-3-8.1-17.9-23.4-33.2-34.2c-14.5-10.2-23.3-15-49.7-27   c-33.2-15-47.2-24.9-53.4-37.6c-11.6-23.5,12.5-59.5,50.7-75.9c4.7-2,4.2-2,5.2-0.5c1.4,2.1,4.3,4,6.8,4.4c1.2,0.2,2.3,0.5,2.6,0.7   c0.4,0.3-0.1,6.6-2.2,26.5c-0.3,2.6-0.8,8-1.2,12.2s-1,10.6-1.3,14.3c-0.7,7.2-0.6,8.4,0.4,13c5.1,21.6,36.4,25,45.8,4.9l0.8-1.6   l0.7,1.5c8.4,16.6,31.4,18.5,42.2,3.5c2.6-3.6,3.2-5.3,4.7-12.3c0.3-1.3-3.2-39.6-5.6-61c-0.1-0.9,0-0.9,2.3-1.4   c1.3-0.3,2.5-0.6,2.8-0.7c2.3-0.7,14.6,12.1,18.7,19.6l1.1,1.9l3.6-3.2c7.4-6.7,23.1-17.8,23.9-17c0.1,0.1-0.2,4.7-0.7,11.2   c-0.1,1-0.4,4.5-0.7,7.8c-1.3,15.3-2.4,27.9-3.2,34.7c-1,9.2,0.6,15.6,5.3,21.6c9.9,12.5,29.8,12.3,39.4-0.4l0.8-1.1l3.1,3.1   c14.5,14.3,37.9,7.8,42.3-11.8l1.1-4.8l-0.7-12.2c-1-17.1-1.6-26.3-4.1-61.5l-0.4-5.6l4,0.2c0.4,0,0.9,0.1,1.4,0.1   c2.2,0.2,5.2,0.5,7.2,0.8c11.7,1.7,22,4.6,30.6,8.7c14.4,6.8,24.4,16.7,29.1,29c0.1,0.2,0.2,0.4,0.3,0.7c0.1,0.2,0.2,0.5,0.2,0.7   c1.2,3.6,2.1,7.4,2.4,11.4c0.5,5.7,0.1,11-1.2,16C404.3,301.1,398.5,309.5,389.1,317.3z" />
  </g>
</svg>