<?xml version="1.0" encoding="utf-8"?>
<!-- Generator: Adobe Illustrator 25.4.1, SVG Export Plug-In . SVG Version: 6.00 Build 0)  -->
<svg version="1.2" baseProfile="tiny-ps" xmlns="http://www.w3.org/2000/svg" xmlns:xlink="http://www.w3.org/1999/xlink" 
	 viewBox="0 0 595.094 592.821" enable-background="new 0 0 595.094 592.821" xml:space="preserve">
<title>planeo</title>
<g id="Vrstva_1" display="none">
	<g id="Vrstva_1_00000054966501634561028020000007401748723403192465_" display="inline">
		<path fill-rule="evenodd" clip-rule="evenodd" fill="#004587" d="M441.672,259.671c-0.049-0.343-0.14-0.679-0.27-1
			c-0.122-0.33-0.309-0.633-0.55-0.89c-0.285-0.296-0.625-0.533-1-0.7c-0.655-0.272-1.362-0.392-2.07-0.35
			c-1.96,0.002-3.905,0.341-5.75,1c-3.9,1.323-7.521,3.357-10.68,6c-4.591,3.929-8.494,8.597-11.55,13.81
			c-3.224,5.461-5.553,11.403-6.9,17.6c-1.071,5.167-1.441,10.454-1.1,15.72c0.138,3.418,0.813,6.792,2,10
			c0.974,2.625,2.498,5.012,4.47,7c5.016,5.007,11.922,7.65,19,7.27c3.546-0.305,6.972-1.439,10-3.31
			c3.852-2.219,7.246-5.151,10-8.64c3.478-4.546,6.371-9.512,8.61-14.78c2.105-4.814,3.678-9.844,4.69-15
			c0.845-4.282,1.277-8.635,1.29-13c0.003-3.421-0.332-6.835-1-10.19c-0.443-2.377-1.21-4.682-2.28-6.85
			c-0.701-1.399-1.597-2.692-2.66-3.84c-0.466-0.563-1.05-1.017-1.71-1.33c-0.501-0.187-1.041-0.245-1.57-0.17
			c-0.912,0.134-1.781,0.476-2.54,1c-1.479,1.01-2.895,2.109-4.24,3.29l-4.12,3.43l0.1-4.86c0.007-0.361-0.016-0.723-0.07-1.08
			L441.672,259.671z M435.862,305.121c-0.984,2.077-2.184,4.045-3.58,5.87c-1.062,1.358-2.339,2.534-3.78,3.48
			c-1.149,0.806-2.637,0.95-3.92,0.38c-0.506-0.242-0.937-0.615-1.25-1.08c-0.577-0.795-1.01-1.685-1.28-2.63
			c-0.494-1.741-0.687-3.554-0.57-5.36c0.128-3.039,0.581-6.057,1.35-9c0.802-2.905,1.968-5.697,3.47-8.31
			c1.377-2.494,2.935-4.883,4.66-7.15c0.97-1.293,2.099-2.459,3.36-3.47c0.91-0.74,1.78-1.16,2.52-1.77l2.88-2.38
			c0.19,0.72,0.34,1.46,0.55,2.6s0.45,2.68,0.58,4.27c0.101,1.745,0.101,3.495,0,5.24c-0.075,2.213-0.276,4.42-0.6,6.61
			c-0.356,2.083-0.905,4.129-1.64,6.11c-0.805,2.245-1.729,4.445-2.77,6.59H435.862z"/>
		<path fill-rule="evenodd" clip-rule="evenodd" fill="#004587" d="M391.312,278.641c0.752,0.024,1.498-0.152,2.16-0.51
			c0.667-0.37,1.244-0.882,1.69-1.5c0.549-0.751,1.009-1.563,1.37-2.42c0.452-1.097,0.83-2.223,1.13-3.37
			c0.38-1.37,0.79-3.06,1.07-4.33s0.43-2.13,0.55-2.72c0.084-0.433,0.144-0.87,0.18-1.31c0.016-0.373-0.039-0.746-0.16-1.1
			c-0.159-0.387-0.41-0.73-0.73-1c-0.421-0.383-0.905-0.69-1.43-0.91c-0.772-0.319-1.582-0.537-2.41-0.65
			c-1.195-0.172-2.402-0.256-3.61-0.25l-31.47,0.1c-0.935-0.006-1.87,0.038-2.8,0.13c-0.705,0.067-1.402,0.204-2.08,0.41
			c-0.662,0.2-1.282,0.518-1.83,0.94c-0.699,0.573-1.248,1.308-1.6,2.14c-0.599,1.49-1.103,3.017-1.51,4.57
			c-0.61,2.08-1.43,4.81-1.83,6.34c-0.267,0.691-0.387,1.43-0.35,2.17c0.031,0.311,0.113,0.615,0.24,0.9
			c0.146,0.316,0.327,0.615,0.54,0.89c0.202,0.286,0.461,0.528,0.76,0.71c0.507,0.192,1.05,0.268,1.59,0.22
			c0.85,0,2.13-0.07,3.4-0.2l-3.84,11.71c-0.255-0.069-0.516-0.109-0.78-0.12c-0.512-0.053-1.028-0.053-1.54,0
			c-0.578,0.082-1.148,0.22-1.7,0.41c-0.354,0.114-0.663,0.338-0.88,0.64c-0.45,0.605-0.842,1.251-1.17,1.93
			c-0.644,1.286-1.179,2.624-1.6,4c-0.523,1.695-0.937,3.422-1.24,5.17c-0.185,0.969-0.269,1.954-0.25,2.94
			c-0.002,0.647,0.217,1.275,0.62,1.78c0.233,0.295,0.526,0.537,0.86,0.71c0.395,0.211,0.811,0.382,1.24,0.51
			c0.254,0.091,0.515,0.161,0.78,0.21l-3.07,11.32c-0.14,0.6-0.23,1.21-0.31,1.73c-0.068,0.571-0.068,1.149,0,1.72
			c0.111,1.195,0.425,2.362,0.93,3.45c0.807,1.748,1.767,3.421,2.87,5c0.667,1.103,1.572,2.043,2.65,2.75
			c0.933,0.481,1.953,0.77,3,0.85c1.512,0.14,3.032,0.187,4.55,0.14c2.35,0,5.91-0.11,9.74-0.07s7.93,0.18,10.27,0.15
			s2.92-0.26,3.54-0.65c0.738-0.485,1.359-1.127,1.82-1.88c0.59-1.041,1.069-2.14,1.43-3.28c0.397-1.125,0.708-2.278,0.93-3.45
			c0.256-1.321,0.426-2.657,0.51-4c0.083-0.712,0.001-1.434-0.24-2.11c-0.179-0.42-0.469-0.783-0.84-1.05
			c-0.404-0.289-0.854-0.509-1.33-0.65c-0.758-0.217-1.541-0.338-2.33-0.36c-1.18-0.07-3,0-4.72,0h-12.61l2.09-10.2
			c0.16,0,0.33,0,3.2,0.16s8.47,0.42,11.79,0.49c1.725,0.119,3.457,0.029,5.16-0.27c0.631-0.114,1.232-0.352,1.77-0.7
			c0.68-0.523,1.213-1.211,1.55-2c0.816-1.686,1.514-3.427,2.09-5.21c0.522-1.67,0.946-3.37,1.27-5.09
			c0.163-0.617,0.19-1.262,0.08-1.89c-0.08-0.377-0.204-0.743-0.37-1.09c-0.178-0.344-0.403-0.66-0.67-0.94
			c-0.241-0.245-0.526-0.442-0.84-0.58c-0.3-0.12-0.63-0.18-3.59-0.26s-8.57-0.18-11.46-0.23l-3.26-0.07
			c0.009-0.351,0.035-0.702,0.08-1.05c0.08-0.81,0.24-2.3,0.32-3.21c0.067-0.531,0.097-1.065,0.09-1.6
			c0.009-0.373-0.025-0.745-0.1-1.11c-0.056-0.277-0.188-0.533-0.38-0.74c-0.206-0.198-0.438-0.366-0.69-0.5
			c-0.27-0.15-0.57-0.3-0.87-0.45c-0.305-0.147-0.602-0.311-0.89-0.49c-0.279-0.181-0.534-0.396-0.76-0.64
			c-0.227-0.253-0.394-0.554-0.49-0.88c-0.098-0.403-0.115-0.821-0.05-1.23l24.75,1.05L391.312,278.641z"/>
		<path fill-rule="evenodd" clip-rule="evenodd" fill="#004587" d="M323.842,331.541c0.139-0.314,0.184-0.661,0.13-1
			c0-0.41-0.14-0.94-0.22-1.35s-0.15-0.75-0.18-1c-0.035-0.198-0.055-0.399-0.06-0.6c0.004-0.264,0.054-0.524,0.15-0.77
			c0.14-0.49,0.4-1.36,0.67-2.21c3.15-10.28,6.64-20.45,9.33-29.95s4.89-18.22,6-22.89s1.2-5.28,1.16-5.89
			c-0.052-0.666-0.291-1.304-0.69-1.84c-0.644-0.809-1.474-1.451-2.42-1.87c-1.581-0.757-3.242-1.337-4.95-1.73
			c-1.724-0.384-3.466-0.682-5.22-0.89c-0.537-0.102-1.083-0.152-1.63-0.15c-0.288,0.033-0.566,0.121-0.82,0.26
			c-0.4,0.217-0.77,0.486-1.1,0.8c-0.476,0.438-0.851,0.973-1.1,1.57c-0.654,1.776-1.166,3.602-1.53,5.46
			c-0.89,3.66-2.44,9.92-3.78,16.21l-1.44,6.76c-0.12-0.45-0.25-0.9-1.1-4.09s-2.45-9.14-3.51-12.85
			c-0.523-2.233-1.288-4.402-2.28-6.47c-0.674-1.355-1.649-2.539-2.85-3.46c-1.572-1.136-3.332-1.986-5.2-2.51
			c-2.117-0.609-4.272-1.08-6.45-1.41c-0.984-0.22-1.997-0.281-3-0.18c-0.618,0.097-1.199,0.36-1.68,0.76
			c-0.604,0.465-1.116,1.038-1.51,1.69c-0.37,0.795-0.655,1.626-0.85,2.48l-17.61,60.12c-0.179,0.553-0.319,1.118-0.42,1.69
			c-0.101,0.662-0.128,1.332-0.08,2c0.042,0.657,0.271,1.289,0.66,1.82c0.536,0.671,1.221,1.209,2,1.57
			c1.08,0.506,2.219,0.876,3.39,1.1c1.32,0.262,2.657,0.432,4,0.51c0.889,0.055,1.781,0.055,2.67,0c0.69,0,1.25-0.06,1.79-0.07
			c0.488,0.015,0.976-0.008,1.46-0.07c0.333-0.055,0.644-0.2,0.9-0.42c0.253-0.23,0.466-0.5,0.63-0.8
			c0.225-0.413,0.412-0.844,0.56-1.29c0.19-0.56,0.37-1.28,0.57-2l9.79-35.49l3.94,24c0.36,2.21,0.63,4.44,0.9,6
			s0.47,2.51,0.61,3.17s0.23,1,0.33,1.37c0.089,0.342,0.206,0.677,0.35,1c0.141,0.354,0.376,0.661,0.68,0.89
			c0.849,0.693,1.809,1.238,2.84,1.61c2.03,0.788,4.139,1.358,6.29,1.7c1.983,0.317,3.996,0.411,6,0.28
			c0.995-0.02,1.977-0.234,2.89-0.63c0.421-0.185,0.772-0.5,1-0.9L323.842,331.541z"/>
		<path fill-rule="evenodd" clip-rule="evenodd" fill="#004587" d="M261.712,306.111c0.2-6.37,0.36-16.21,0.43-23.46
			s0-11.91-0.06-16.57c-0.043-0.727-0.259-1.433-0.63-2.06c-0.499-0.796-1.16-1.477-1.94-2c-1.347-0.95-2.85-1.657-4.44-2.09
			c-2.185-0.585-4.411-1.003-6.66-1.25c-1.15-0.174-2.32-0.174-3.47,0c-0.798,0.111-1.569,0.361-2.28,0.74
			c-0.766,0.459-1.443,1.052-2,1.75c-0.72,0.81-1.53,1.91-4.81,7.76s-9,16.44-12,21.93s-3.17,5.84-3.37,6.2l-0.5-0.07
			c-0.724-0.11-1.459-0.144-2.19-0.1c-0.924,0.072-1.825,0.327-2.65,0.75c-0.895,0.494-1.654,1.202-2.21,2.06
			c-0.801,1.313-1.452,2.712-1.94,4.17c-0.776,2.016-1.443,4.073-2,6.16c-0.353,1.135-0.498,2.324-0.43,3.51
			c0.053,0.495,0.228,0.969,0.51,1.38c0.161,0.25,0.364,0.47,0.6,0.65c0.188,0.13,0.389,0.241,0.6,0.33l0.34,0.16
			c0,0.08-0.07,0.16-0.64,1.45s-1.68,3.8-2.33,5.4c-0.452,0.928-0.758,1.919-0.91,2.94c-0.069,0.635,0.007,1.278,0.22,1.88
			c0.231,0.696,0.63,1.324,1.16,1.83c0.882,0.798,1.897,1.434,3,1.88c1.674,0.755,3.411,1.364,5.19,1.82
			c1.18,0.311,2.403,0.426,3.62,0.34c0.69-0.037,1.368-0.2,2-0.48c0.507-0.234,0.976-0.545,1.39-0.92c0.41-0.36,0.76-0.79,2.12-3.46
			s3.71-7.57,4.93-10.11s1.29-2.7,1.36-2.85c0.504,0.07,1.011,0.11,1.52,0.12c0.74,0,1.85,0,2.58,0
			c0.472-0.011,0.94-0.088,1.39-0.23c0.289-0.088,0.573-0.191,0.85-0.31c0.231-0.094,0.447-0.222,0.64-0.38
			c0.182-0.157,0.353-0.328,0.51-0.51c0.142-0.154,0.292-0.301,0.45-0.44l0.3-0.29l0.4-0.38c0.25-0.23,0.66-0.61,1-0.89
			s0.56-0.46,0.73-0.6s0.28-0.2,0.39-0.27c0,0.14,0,0.29,0,2s-0.08,5-0.14,7.42s-0.11,3.84-0.17,4.89s-0.12,1.7-0.14,2.27
			c-0.023,0.522,0.034,1.045,0.17,1.55c0.156,0.5,0.423,0.958,0.78,1.34c0.503,0.548,1.108,0.993,1.78,1.31
			c1.198,0.584,2.48,0.976,3.8,1.16c1.775,0.25,3.568,0.347,5.36,0.29c0.98,0.004,1.954-0.159,2.88-0.48
			c1.251-0.433,2.268-1.363,2.81-2.57c0.4-1.157,0.626-2.367,0.67-3.59c0.22-2.11,0.5-5.52,0.75-8.67s0.46-6.05,0.65-12.41
			L261.712,306.111z M241.073,297.111c0.247,0.139,0.508,0.25,0.78,0.33c0.381,0.084,0.771,0.117,1.16,0.1
			c0.319-0.014,0.633-0.082,0.93-0.2c0.215-0.076,0.413-0.195,0.58-0.35l1.34-12.94c-0.7,1.3-1.38,2.61-2,3.94s-1.28,2.68-1.81,3.94
			s-1,2.44-1.21,3.2c-0.16,0.423-0.255,0.868-0.28,1.32c-0.02,0.152,0.028,0.305,0.13,0.42c0.124,0.1,0.262,0.181,0.41,0.24H241.073
			z"/>
		<path fill-rule="evenodd" clip-rule="evenodd" fill="#004587" d="M192.723,276.311c0.33-1.12,0.69-2.24,1.11-3.55
			s0.9-2.82,1.3-4.3c0.363-1.311,0.62-2.648,0.77-4c0.088-0.736,0.002-1.483-0.25-2.18c-0.147-0.373-0.419-0.684-0.77-0.88
			c-0.652-0.315-1.34-0.547-2.05-0.69c-1.34-0.36-3.66-0.95-5.6-1.35c-1.539-0.334-3.1-0.561-4.67-0.68
			c-0.818-0.064-1.642-0.023-2.45,0.12c-0.408,0.061-0.801,0.197-1.16,0.4c-0.313,0.171-0.583,0.41-0.79,0.7
			c-0.298,0.42-0.525,0.886-0.67,1.38c-0.26,0.784-0.461,1.586-0.6,2.4l-13.15,48.82c-0.345,1.088-0.602,2.201-0.77,3.33
			c-0.165,1.385,0.01,2.788,0.51,4.09c0.79,1.975,1.796,3.856,3,5.61c0.989,1.462,2.067,2.862,3.23,4.19
			c0.503,0.654,1.099,1.23,1.77,1.71c0.609,0.361,1.294,0.573,2,0.62c1.27,0.119,2.545,0.169,3.82,0.15h13.53
			c1.49,0,3,0.16,4.1,0.14c0.842,0.008,1.681-0.086,2.5-0.28c0.687-0.144,1.315-0.493,1.8-1c0.854-1.063,1.468-2.298,1.8-3.62
			c0.77-2.2,1.81-5.72,2.39-7.77c0.362-0.993,0.597-2.028,0.7-3.08c-0.011-0.409-0.135-0.808-0.36-1.15
			c-0.22-0.366-0.485-0.702-0.79-1c-0.308-0.31-0.695-0.528-1.12-0.63c-0.589-0.089-1.186-0.112-1.78-0.07c-0.72,0-1.57,0-2.43,0
			l-16,0.39l11-37.79L192.723,276.311z"/>
		<path fill-rule="evenodd" clip-rule="evenodd" fill="#004587" d="M119.102,281.221c0,0.14-0.1,0.28-1.25,3.82
			s-3.39,10.47-5.48,17.9s-4,15.36-5,19.48c-0.44,1.557-0.8,3.136-1.08,4.73c-0.025,0.283,0.006,0.568,0.09,0.84
			c0.083,0.331,0.221,0.646,0.41,0.93c0.215,0.304,0.479,0.571,0.78,0.79c0.482,0.371,1.028,0.652,1.61,0.83
			c1.14,0.377,2.307,0.668,3.49,0.87c1.23,0.21,2.32,0.28,3.46,0.41s2.35,0.32,3.28,0.42c0.708,0.078,1.422,0.078,2.13,0
			c0.385-0.031,0.759-0.139,1.1-0.32c0.212-0.119,0.385-0.296,0.5-0.51c0.098-0.206,0.165-0.425,0.2-0.65
			c1.11-4.33,1.74-8.78,3-13.32s2.69-9.23,3.43-11.62s0.78-2.47,0.81-2.56c0.07,0.11,0.15,0.21,0.33,0.45l0.67,0.83
			c0.111,0.131,0.206,0.275,0.28,0.43c0.048,0.094,0.082,0.196,0.1,0.3c0.036,0.141,0.063,0.285,0.08,0.43
			c0,0.2,0.07,0.48,0.12,0.95s0.11,1.15,0.16,1.59c0.026,0.314,0.08,0.625,0.16,0.93c0.074,0.269,0.164,0.533,0.27,0.79
			c0.113,0.262,0.276,0.5,0.48,0.7c0.354,0.341,0.804,0.564,1.29,0.64c1.211,0.195,2.448,0.148,3.64-0.14
			c2.641-0.495,5.204-1.342,7.62-2.52c3.354-1.646,6.398-3.859,9-6.54c2.891-3.038,5.299-6.502,7.14-10.27
			c1.559-3.128,2.522-6.519,2.84-10c0.248-2.944-0.092-5.908-1-8.72c-0.85-2.605-2.21-5.015-4-7.09
			c-2.021-2.427-4.524-4.409-7.35-5.82c-3.43-1.604-7.124-2.57-10.9-2.85c-3.912-0.29-7.843-0.173-11.73,0.35
			c-2.887,0.356-5.752,0.877-8.58,1.56c-1.636,0.307-3.204,0.903-4.63,1.76c-1.887,1.21-3.376,2.949-4.28,5
			c-1.295,2.952-2.3,6.023-3,9.17c-0.348,1.082-0.517,2.214-0.5,3.35c0.03,0.481,0.128,0.956,0.29,1.41
			c0.16,0.454,0.397,0.877,0.7,1.25c0.246,0.306,0.552,0.558,0.9,0.74c0.284,0.145,0.602,0.211,0.92,0.19
			c0.422-0.045,0.838-0.136,1.24-0.27c0.44-0.13,0.88-0.31,1.46-0.54s1.3-0.52,1.86-0.7c0.394-0.126,0.799-0.213,1.21-0.26
			c0.189-0.021,0.381-0.021,0.57,0c0.124,0.019,0.243,0.063,0.35,0.13c0.11,0.07,0.22,0.19,0.34,0.28
			c0.101,0.081,0.208,0.155,0.32,0.22l0.32,0.16l-0.2,0.09L119.102,281.221z M130.702,278.551c-0.64-0.167-1.268-0.378-1.88-0.63
			c-0.46-0.21-0.75-0.4-1-0.52c-0.176-0.105-0.375-0.163-0.58-0.17c0.812-0.421,1.681-0.721,2.58-0.89
			c1.28-0.267,2.582-0.415,3.89-0.44c1.561-0.046,3.122,0.034,4.67,0.24c1.25,0.17,2.467,0.527,3.61,1.06
			c0.897,0.426,1.694,1.036,2.34,1.79c0.505,0.62,0.848,1.355,1,2.14c0.184,0.843,0.184,1.717,0,2.56
			c-0.248,1.17-0.702,2.288-1.34,3.3c-0.763,1.21-1.708,2.296-2.8,3.22c-0.953,0.811-2.039,1.45-3.21,1.89
			c-0.754,0.259-1.543,0.404-2.34,0.43c-0.31,0.025-0.62,0.025-0.93,0c0.009-0.248,0.052-0.494,0.13-0.73
			c0.13-0.57,0.39-1.62,0.76-2.8s0.87-2.5,1.14-3.3c0.165-0.453,0.295-0.918,0.39-1.39c0.062-0.313,0.092-0.631,0.09-0.95
			c-0.068-1.024-0.571-1.97-1.38-2.6c-0.764-0.596-1.614-1.075-2.52-1.42c-0.866-0.322-1.751-0.59-2.65-0.8L130.702,278.551z"/>
		<path fill-rule="evenodd" clip-rule="evenodd" fill="#004587" d="M466.263,330.181h1.52v-3.07h0.39c0.9,0,1.34,0.4,2.1,1.87
			l0.63,1.2h1.87l-0.88-1.5c-0.77-1.31-1-1.52-1.59-1.76c1.112-0.063,1.986-0.976,2-2.09c0-1.35-0.91-2.12-2.51-2.12h-3.53V330.181z
			 M467.783,325.941v-2h1.39c1,0,1.54,0.34,1.54,1c0,0.8-0.43,1.07-1.7,1.08h-1.23V325.941z M469.443,319.381c-3.866,0-7,3.134-7,7
			s3.134,7,7,7s7-3.134,7-7S473.308,319.381,469.443,319.381z M469.443,320.751c3.131-0.011,5.679,2.519,5.69,5.65
			s-2.519,5.679-5.65,5.69c-3.131,0.011-5.679-2.519-5.69-5.65c0-0.007,0-0.013,0-0.02
			C463.787,323.295,466.317,320.756,469.443,320.751L469.443,320.751z"/>
		<path fill-rule="evenodd" clip-rule="evenodd" fill="#E30613" d="M124.883,240.121c-1.84-2.91-3.93-6.4-5.71-9.65
			s-3.22-6.27-4.45-9.14c-1.138-2.647-2.139-5.351-3-8.1c-0.737-2.316-1.338-4.674-1.8-7.06c-0.405-2.019-0.673-4.064-0.8-6.12
			c-0.131-1.788-0.131-3.582,0-5.37c0.126-1.588,0.38-3.163,0.76-4.71c0.349-1.435,0.813-2.84,1.39-4.2
			c0.557-1.305,1.226-2.56,2-3.75c0.781-1.189,1.661-2.309,2.63-3.35c1.016-1.089,2.12-2.092,3.3-3c1.265-0.97,2.602-1.843,4-2.61
			c1.588-0.857,3.236-1.599,4.93-2.22c1.961-0.709,3.965-1.294,6-1.75c2.393-0.536,4.813-0.94,7.25-1.21
			c2.65-0.29,5.53-0.46,8.66-0.5s6.52,0.09,10.24,0.38s7.77,0.78,12.12,1.47s9,1.59,13.93,2.74s10.2,2.53,15.75,4.19
			s11.42,3.58,17.53,5.79s12.49,4.71,19.09,7.49s13.41,5.86,20.4,9.23s14.12,7,21.35,10.92s14.55,8.11,21.77,12.46
			s14.34,8.89,20.34,12.85s10.89,7.37,15.7,10.9l-13.34,1.11c-9.61-6.45-19.53-12.44-31.83-19.15s-27-14.13-40.82-20.3
			c-13.036-5.849-26.39-10.961-40-15.31c-4.2-1.32-8.43-2.55-12.47-3.62s-7.9-2-11.56-2.77s-7.13-1.4-10.41-1.91
			s-6.36-0.89-9.29-1.15s-5.69-0.43-8.24-0.49s-4.87,0-7.06,0.1s-4.24,0.31-6.15,0.57s-3.66,0.58-5.3,1
			c-1.542,0.35-3.065,0.784-4.56,1.3c-1.318,0.449-2.61,0.97-3.87,1.56c-1.143,0.537-2.252,1.145-3.32,1.82
			c-0.992,0.605-1.944,1.273-2.85,2c-0.848,0.693-1.647,1.445-2.39,2.25c-0.728,0.765-1.396,1.584-2,2.45
			c-0.607,0.871-1.151,1.783-1.63,2.73c-0.494,0.97-0.921,1.972-1.28,3c-0.367,1.064-0.668,2.149-0.9,3.25
			c-0.24,1.182-0.407,2.378-0.5,3.58c-0.104,1.331-0.131,2.666-0.08,4c0.055,1.473,0.192,2.942,0.41,4.4c0.23,1.57,0.55,3.25,1,5
			s1,3.56,1.61,5.5s1.47,4,2.4,6.19s2,4.43,3.26,6.84s2.67,5,4.17,7.45l-1.28,0.41c-1.69-2.25-3.29-4.57-5.13-7.48L124.883,240.121z
			"/>
		<path fill-rule="evenodd" clip-rule="evenodd" fill="#E30613" d="M428.963,348.771c1.84,2.91,3.93,6.4,5.7,9.65
			s3.23,6.27,4.46,9.14c1.138,2.647,2.139,5.35,3,8.1c0.74,2.316,1.345,4.673,1.81,7.06c0.395,2.021,0.663,4.065,0.8,6.12
			c0.126,1.788,0.126,3.582,0,5.37c-0.136,1.587-0.391,3.161-0.76,4.71c-0.347,1.437-0.816,2.842-1.4,4.2
			c-1.123,2.618-2.693,5.02-4.64,7.1c-1.018,1.086-2.122,2.09-3.3,3c-1.281,0.973-2.635,1.845-4.05,2.61
			c-1.588,0.857-3.236,1.599-4.93,2.22c-1.961,0.709-3.965,1.293-6,1.75c-2.392,0.538-4.813,0.942-7.25,1.21
			c-2.64,0.29-5.52,0.46-8.65,0.49s-6.52-0.08-10.24-0.37s-7.78-0.78-12.12-1.47s-9-1.6-13.93-2.74s-10.2-2.53-15.76-4.19
			s-11.41-3.58-17.52-5.79s-12.5-4.71-19.09-7.49s-13.42-5.86-20.4-9.23s-14.12-7-21.35-10.93s-14.56-8.1-21.77-12.45
			s-14.34-8.87-20.35-12.83s-10.89-7.37-15.69-10.9l13.34-1.11c9.61,6.45,19.52,12.44,31.83,19.15s27,14.12,40.82,20.3
			c13.036,5.85,26.39,10.961,40,15.31c4.2,1.32,8.43,2.55,12.48,3.62s7.89,2,11.56,2.77s7.12,1.4,10.4,1.91s6.37,0.89,9.29,1.15
			s5.69,0.43,8.24,0.49s4.88,0,7.07-0.1s4.24-0.31,6.14-0.57s3.67-0.59,5.31-1c1.542-0.353,3.064-0.787,4.56-1.3
			c1.317-0.451,2.609-0.971,3.87-1.56c1.142-0.54,2.251-1.147,3.32-1.82c0.99-0.621,1.939-1.305,2.84-2.05
			c0.852-0.693,1.654-1.445,2.4-2.25c0.722-0.77,1.39-1.589,2-2.45c0.603-0.871,1.145-1.783,1.62-2.73
			c0.498-0.968,0.926-1.971,1.28-3c0.376-1.061,0.677-2.147,0.9-3.25c0.243-1.182,0.414-2.377,0.51-3.58
			c0.104-1.331,0.131-2.666,0.08-4c-0.055-1.473-0.192-2.942-0.41-4.4c-0.23-1.57-0.55-3.25-1-5s-0.95-3.56-1.61-5.5
			s-1.47-4-2.41-6.19s-2-4.43-3.25-6.84s-2.68-4.95-4.18-7.45l1.29-0.41c1.68,2.25,3.28,4.57,5.13,7.48L428.963,348.771z"/>
	</g>
	<g id="Vrstva_2_00000092449105060413903430000000333850055854660007_" display="inline">
		<path fill-rule="evenodd" clip-rule="evenodd" fill="#004587" d="M441.672,259.671c-0.049-0.343-0.14-0.679-0.27-1
			c-0.122-0.33-0.309-0.633-0.55-0.89c-0.285-0.296-0.625-0.533-1-0.7c-0.655-0.272-1.362-0.392-2.07-0.35
			c-1.96,0.002-3.905,0.341-5.75,1c-3.9,1.323-7.521,3.357-10.68,6c-4.591,3.929-8.494,8.597-11.55,13.81
			c-3.224,5.461-5.553,11.403-6.9,17.6c-1.071,5.167-1.441,10.454-1.1,15.72c0.138,3.418,0.813,6.792,2,10
			c0.974,2.625,2.498,5.012,4.47,7c5.016,5.007,11.922,7.65,19,7.27c3.546-0.305,6.972-1.439,10-3.31
			c3.852-2.219,7.246-5.151,10-8.64c3.478-4.546,6.371-9.512,8.61-14.78c2.105-4.814,3.678-9.844,4.69-15
			c0.845-4.282,1.277-8.635,1.29-13c0.003-3.421-0.332-6.835-1-10.19c-0.443-2.377-1.21-4.682-2.28-6.85
			c-0.701-1.399-1.597-2.692-2.66-3.84c-0.466-0.563-1.05-1.017-1.71-1.33c-0.501-0.187-1.041-0.245-1.57-0.17
			c-0.912,0.134-1.781,0.476-2.54,1c-1.479,1.01-2.895,2.109-4.24,3.29l-4.12,3.43l0.1-4.86c0.007-0.361-0.016-0.723-0.07-1.08
			L441.672,259.671z M435.862,305.121c-0.984,2.077-2.184,4.045-3.58,5.87c-1.062,1.358-2.339,2.534-3.78,3.48
			c-1.149,0.806-2.637,0.95-3.92,0.38c-0.506-0.242-0.937-0.615-1.25-1.08c-0.577-0.795-1.01-1.685-1.28-2.63
			c-0.494-1.741-0.687-3.554-0.57-5.36c0.128-3.039,0.581-6.057,1.35-9c0.802-2.905,1.968-5.697,3.47-8.31
			c1.377-2.494,2.935-4.883,4.66-7.15c0.97-1.293,2.099-2.459,3.36-3.47c0.91-0.74,1.78-1.16,2.52-1.77l2.88-2.38
			c0.19,0.72,0.34,1.46,0.55,2.6s0.45,2.68,0.58,4.27c0.101,1.745,0.101,3.495,0,5.24c-0.075,2.213-0.276,4.42-0.6,6.61
			c-0.356,2.083-0.905,4.129-1.64,6.11c-0.805,2.245-1.729,4.445-2.77,6.59H435.862z"/>
		<path fill-rule="evenodd" clip-rule="evenodd" fill="#004587" d="M391.312,278.641c0.752,0.024,1.498-0.152,2.16-0.51
			c0.667-0.37,1.244-0.882,1.69-1.5c0.549-0.751,1.009-1.563,1.37-2.42c0.452-1.097,0.83-2.223,1.13-3.37
			c0.38-1.37,0.79-3.06,1.07-4.33s0.43-2.13,0.55-2.72c0.084-0.433,0.144-0.87,0.18-1.31c0.016-0.373-0.039-0.746-0.16-1.1
			c-0.159-0.387-0.41-0.73-0.73-1c-0.421-0.383-0.905-0.69-1.43-0.91c-0.772-0.319-1.582-0.537-2.41-0.65
			c-1.195-0.172-2.402-0.256-3.61-0.25l-31.47,0.1c-0.935-0.006-1.87,0.038-2.8,0.13c-0.705,0.067-1.402,0.204-2.08,0.41
			c-0.662,0.2-1.282,0.518-1.83,0.94c-0.699,0.573-1.248,1.308-1.6,2.14c-0.599,1.49-1.103,3.017-1.51,4.57
			c-0.61,2.08-1.43,4.81-1.83,6.34c-0.267,0.691-0.387,1.43-0.35,2.17c0.031,0.311,0.113,0.615,0.24,0.9
			c0.146,0.316,0.327,0.615,0.54,0.89c0.202,0.286,0.461,0.528,0.76,0.71c0.507,0.192,1.05,0.268,1.59,0.22
			c0.85,0,2.13-0.07,3.4-0.2l-3.84,11.71c-0.255-0.069-0.516-0.109-0.78-0.12c-0.512-0.053-1.028-0.053-1.54,0
			c-0.578,0.082-1.148,0.22-1.7,0.41c-0.354,0.114-0.663,0.338-0.88,0.64c-0.45,0.605-0.842,1.251-1.17,1.93
			c-0.644,1.286-1.179,2.624-1.6,4c-0.523,1.695-0.937,3.422-1.24,5.17c-0.185,0.969-0.269,1.954-0.25,2.94
			c-0.002,0.647,0.217,1.275,0.62,1.78c0.233,0.295,0.526,0.537,0.86,0.71c0.395,0.211,0.811,0.382,1.24,0.51
			c0.254,0.091,0.515,0.161,0.78,0.21l-3.07,11.32c-0.14,0.6-0.23,1.21-0.31,1.73c-0.068,0.571-0.068,1.149,0,1.72
			c0.111,1.195,0.425,2.362,0.93,3.45c0.807,1.748,1.767,3.421,2.87,5c0.667,1.103,1.572,2.043,2.65,2.75
			c0.933,0.481,1.953,0.77,3,0.85c1.512,0.14,3.032,0.187,4.55,0.14c2.35,0,5.91-0.11,9.74-0.07s7.93,0.18,10.27,0.15
			s2.92-0.26,3.54-0.65c0.738-0.485,1.359-1.127,1.82-1.88c0.59-1.041,1.069-2.14,1.43-3.28c0.397-1.125,0.708-2.278,0.93-3.45
			c0.256-1.321,0.426-2.657,0.51-4c0.083-0.712,0.001-1.434-0.24-2.11c-0.179-0.42-0.469-0.783-0.84-1.05
			c-0.404-0.289-0.854-0.509-1.33-0.65c-0.758-0.217-1.541-0.338-2.33-0.36c-1.18-0.07-3,0-4.72,0h-12.61l2.09-10.2
			c0.16,0,0.33,0,3.2,0.16s8.47,0.42,11.79,0.49c1.725,0.119,3.457,0.029,5.16-0.27c0.631-0.114,1.232-0.352,1.77-0.7
			c0.68-0.523,1.213-1.211,1.55-2c0.816-1.686,1.514-3.427,2.09-5.21c0.522-1.67,0.946-3.37,1.27-5.09
			c0.163-0.617,0.19-1.262,0.08-1.89c-0.08-0.377-0.204-0.743-0.37-1.09c-0.178-0.344-0.403-0.66-0.67-0.94
			c-0.241-0.245-0.526-0.442-0.84-0.58c-0.3-0.12-0.63-0.18-3.59-0.26s-8.57-0.18-11.46-0.23l-3.26-0.07
			c0.009-0.351,0.035-0.702,0.08-1.05c0.08-0.81,0.24-2.3,0.32-3.21c0.067-0.531,0.097-1.065,0.09-1.6
			c0.009-0.373-0.025-0.745-0.1-1.11c-0.056-0.277-0.188-0.533-0.38-0.74c-0.206-0.198-0.438-0.366-0.69-0.5
			c-0.27-0.15-0.57-0.3-0.87-0.45c-0.305-0.147-0.602-0.311-0.89-0.49c-0.279-0.181-0.534-0.396-0.76-0.64
			c-0.227-0.253-0.394-0.554-0.49-0.88c-0.098-0.403-0.115-0.821-0.05-1.23l24.75,1.05L391.312,278.641z"/>
		<path fill-rule="evenodd" clip-rule="evenodd" fill="#004587" d="M323.842,331.541c0.139-0.314,0.184-0.661,0.13-1
			c0-0.41-0.14-0.94-0.22-1.35s-0.15-0.75-0.18-1c-0.035-0.198-0.055-0.399-0.06-0.6c0.004-0.264,0.054-0.524,0.15-0.77
			c0.14-0.49,0.4-1.36,0.67-2.21c3.15-10.28,6.64-20.45,9.33-29.95s4.89-18.22,6-22.89s1.2-5.28,1.16-5.89
			c-0.052-0.666-0.291-1.304-0.69-1.84c-0.644-0.809-1.474-1.451-2.42-1.87c-1.581-0.757-3.242-1.337-4.95-1.73
			c-1.724-0.384-3.466-0.682-5.22-0.89c-0.537-0.102-1.083-0.152-1.63-0.15c-0.288,0.033-0.566,0.121-0.82,0.26
			c-0.4,0.217-0.77,0.486-1.1,0.8c-0.476,0.438-0.851,0.973-1.1,1.57c-0.654,1.776-1.166,3.602-1.53,5.46
			c-0.89,3.66-2.44,9.92-3.78,16.21l-1.44,6.76c-0.12-0.45-0.25-0.9-1.1-4.09s-2.45-9.14-3.51-12.85
			c-0.523-2.233-1.288-4.402-2.28-6.47c-0.674-1.355-1.649-2.539-2.85-3.46c-1.572-1.136-3.332-1.986-5.2-2.51
			c-2.117-0.609-4.272-1.08-6.45-1.41c-0.984-0.22-1.997-0.281-3-0.18c-0.618,0.097-1.199,0.36-1.68,0.76
			c-0.604,0.465-1.116,1.038-1.51,1.69c-0.37,0.795-0.655,1.626-0.85,2.48l-17.61,60.12c-0.179,0.553-0.319,1.118-0.42,1.69
			c-0.101,0.662-0.128,1.332-0.08,2c0.042,0.657,0.271,1.289,0.66,1.82c0.536,0.671,1.221,1.209,2,1.57
			c1.08,0.506,2.219,0.876,3.39,1.1c1.32,0.262,2.657,0.432,4,0.51c0.889,0.055,1.781,0.055,2.67,0c0.69,0,1.25-0.06,1.79-0.07
			c0.488,0.015,0.976-0.008,1.46-0.07c0.333-0.055,0.644-0.2,0.9-0.42c0.253-0.23,0.466-0.5,0.63-0.8
			c0.225-0.413,0.412-0.844,0.56-1.29c0.19-0.56,0.37-1.28,0.57-2l9.79-35.49l3.94,24c0.36,2.21,0.63,4.44,0.9,6
			s0.47,2.51,0.61,3.17s0.23,1,0.33,1.37c0.089,0.342,0.206,0.677,0.35,1c0.141,0.354,0.376,0.661,0.68,0.89
			c0.849,0.693,1.809,1.238,2.84,1.61c2.03,0.788,4.139,1.358,6.29,1.7c1.983,0.317,3.996,0.411,6,0.28
			c0.995-0.02,1.977-0.234,2.89-0.63c0.421-0.185,0.772-0.5,1-0.9L323.842,331.541z"/>
		<path fill-rule="evenodd" clip-rule="evenodd" fill="#004587" d="M261.712,306.111c0.2-6.37,0.36-16.21,0.43-23.46
			s0-11.91-0.06-16.57c-0.043-0.727-0.259-1.433-0.63-2.06c-0.499-0.796-1.16-1.477-1.94-2c-1.347-0.95-2.85-1.657-4.44-2.09
			c-2.185-0.585-4.411-1.003-6.66-1.25c-1.15-0.174-2.32-0.174-3.47,0c-0.798,0.111-1.569,0.361-2.28,0.74
			c-0.766,0.459-1.443,1.052-2,1.75c-0.72,0.81-1.53,1.91-4.81,7.76s-9,16.44-12,21.93s-3.17,5.84-3.37,6.2l-0.5-0.07
			c-0.724-0.11-1.459-0.144-2.19-0.1c-0.924,0.072-1.825,0.327-2.65,0.75c-0.895,0.494-1.654,1.202-2.21,2.06
			c-0.801,1.313-1.452,2.712-1.94,4.17c-0.776,2.016-1.443,4.073-2,6.16c-0.353,1.135-0.498,2.324-0.43,3.51
			c0.053,0.495,0.228,0.969,0.51,1.38c0.161,0.25,0.364,0.47,0.6,0.65c0.188,0.13,0.389,0.241,0.6,0.33l0.34,0.16
			c0,0.08-0.07,0.16-0.64,1.45s-1.68,3.8-2.33,5.4c-0.452,0.928-0.758,1.919-0.91,2.94c-0.069,0.635,0.007,1.278,0.22,1.88
			c0.231,0.696,0.63,1.324,1.16,1.83c0.882,0.798,1.897,1.434,3,1.88c1.674,0.755,3.411,1.364,5.19,1.82
			c1.18,0.311,2.403,0.426,3.62,0.34c0.69-0.037,1.368-0.2,2-0.48c0.507-0.234,0.976-0.545,1.39-0.92c0.41-0.36,0.76-0.79,2.12-3.46
			s3.71-7.57,4.93-10.11s1.29-2.7,1.36-2.85c0.504,0.07,1.011,0.11,1.52,0.12c0.74,0,1.85,0,2.58,0
			c0.472-0.011,0.94-0.088,1.39-0.23c0.289-0.088,0.573-0.191,0.85-0.31c0.231-0.094,0.447-0.222,0.64-0.38
			c0.182-0.157,0.353-0.328,0.51-0.51c0.142-0.154,0.292-0.301,0.45-0.44l0.3-0.29l0.4-0.38c0.25-0.23,0.66-0.61,1-0.89
			s0.56-0.46,0.73-0.6s0.28-0.2,0.39-0.27c0,0.14,0,0.29,0,2s-0.08,5-0.14,7.42s-0.11,3.84-0.17,4.89s-0.12,1.7-0.14,2.27
			c-0.023,0.522,0.034,1.045,0.17,1.55c0.156,0.5,0.423,0.958,0.78,1.34c0.503,0.548,1.108,0.993,1.78,1.31
			c1.198,0.584,2.48,0.976,3.8,1.16c1.775,0.25,3.568,0.347,5.36,0.29c0.98,0.004,1.954-0.159,2.88-0.48
			c1.251-0.433,2.268-1.363,2.81-2.57c0.4-1.157,0.626-2.367,0.67-3.59c0.22-2.11,0.5-5.52,0.75-8.67s0.46-6.05,0.65-12.41
			L261.712,306.111z M241.073,297.111c0.247,0.139,0.508,0.25,0.78,0.33c0.381,0.084,0.771,0.117,1.16,0.1
			c0.319-0.014,0.633-0.082,0.93-0.2c0.215-0.076,0.413-0.195,0.58-0.35l1.34-12.94c-0.7,1.3-1.38,2.61-2,3.94s-1.28,2.68-1.81,3.94
			s-1,2.44-1.21,3.2c-0.16,0.423-0.255,0.868-0.28,1.32c-0.02,0.152,0.028,0.305,0.13,0.42c0.124,0.1,0.262,0.181,0.41,0.24H241.073
			z"/>
		<path fill-rule="evenodd" clip-rule="evenodd" fill="#004587" d="M192.723,276.311c0.33-1.12,0.69-2.24,1.11-3.55
			s0.9-2.82,1.3-4.3c0.363-1.311,0.62-2.648,0.77-4c0.088-0.736,0.002-1.483-0.25-2.18c-0.147-0.373-0.419-0.684-0.77-0.88
			c-0.652-0.315-1.34-0.547-2.05-0.69c-1.34-0.36-3.66-0.95-5.6-1.35c-1.539-0.334-3.1-0.561-4.67-0.68
			c-0.818-0.064-1.642-0.023-2.45,0.12c-0.408,0.061-0.801,0.197-1.16,0.4c-0.313,0.171-0.583,0.41-0.79,0.7
			c-0.298,0.42-0.525,0.886-0.67,1.38c-0.26,0.784-0.461,1.586-0.6,2.4l-13.15,48.82c-0.345,1.088-0.602,2.201-0.77,3.33
			c-0.165,1.385,0.01,2.788,0.51,4.09c0.79,1.975,1.796,3.856,3,5.61c0.989,1.462,2.067,2.862,3.23,4.19
			c0.503,0.654,1.099,1.23,1.77,1.71c0.609,0.361,1.294,0.573,2,0.62c1.27,0.119,2.545,0.169,3.82,0.15h13.53
			c1.49,0,3,0.16,4.1,0.14c0.842,0.008,1.681-0.086,2.5-0.28c0.687-0.144,1.315-0.493,1.8-1c0.854-1.063,1.468-2.298,1.8-3.62
			c0.77-2.2,1.81-5.72,2.39-7.77c0.362-0.993,0.597-2.028,0.7-3.08c-0.011-0.409-0.135-0.808-0.36-1.15
			c-0.22-0.366-0.485-0.702-0.79-1c-0.308-0.31-0.695-0.528-1.12-0.63c-0.589-0.089-1.186-0.112-1.78-0.07c-0.72,0-1.57,0-2.43,0
			l-16,0.39l11-37.79L192.723,276.311z"/>
		<path fill-rule="evenodd" clip-rule="evenodd" fill="#004587" d="M119.102,281.221c0,0.14-0.1,0.28-1.25,3.82
			s-3.39,10.47-5.48,17.9s-4,15.36-5,19.48c-0.44,1.557-0.8,3.136-1.08,4.73c-0.025,0.283,0.006,0.568,0.09,0.84
			c0.083,0.331,0.221,0.646,0.41,0.93c0.215,0.304,0.479,0.571,0.78,0.79c0.482,0.371,1.028,0.652,1.61,0.83
			c1.14,0.377,2.307,0.668,3.49,0.87c1.23,0.21,2.32,0.28,3.46,0.41s2.35,0.32,3.28,0.42c0.708,0.078,1.422,0.078,2.13,0
			c0.385-0.031,0.759-0.139,1.1-0.32c0.212-0.119,0.385-0.296,0.5-0.51c0.098-0.206,0.165-0.425,0.2-0.65
			c1.11-4.33,1.74-8.78,3-13.32s2.69-9.23,3.43-11.62s0.78-2.47,0.81-2.56c0.07,0.11,0.15,0.21,0.33,0.45l0.67,0.83
			c0.111,0.131,0.206,0.275,0.28,0.43c0.048,0.094,0.082,0.196,0.1,0.3c0.036,0.141,0.063,0.285,0.08,0.43
			c0,0.2,0.07,0.48,0.12,0.95s0.11,1.15,0.16,1.59c0.026,0.314,0.08,0.625,0.16,0.93c0.074,0.269,0.164,0.533,0.27,0.79
			c0.113,0.262,0.276,0.5,0.48,0.7c0.354,0.341,0.804,0.564,1.29,0.64c1.211,0.195,2.448,0.148,3.64-0.14
			c2.641-0.495,5.204-1.342,7.62-2.52c3.354-1.646,6.398-3.859,9-6.54c2.891-3.038,5.299-6.502,7.14-10.27
			c1.559-3.128,2.522-6.519,2.84-10c0.248-2.944-0.092-5.908-1-8.72c-0.85-2.605-2.21-5.015-4-7.09
			c-2.021-2.427-4.524-4.409-7.35-5.82c-3.43-1.604-7.124-2.57-10.9-2.85c-3.912-0.29-7.843-0.173-11.73,0.35
			c-2.887,0.356-5.752,0.877-8.58,1.56c-1.636,0.307-3.204,0.903-4.63,1.76c-1.887,1.21-3.376,2.949-4.28,5
			c-1.295,2.952-2.3,6.023-3,9.17c-0.348,1.082-0.517,2.214-0.5,3.35c0.03,0.481,0.128,0.956,0.29,1.41
			c0.16,0.454,0.397,0.877,0.7,1.25c0.246,0.306,0.552,0.558,0.9,0.74c0.284,0.145,0.602,0.211,0.92,0.19
			c0.422-0.045,0.838-0.136,1.24-0.27c0.44-0.13,0.88-0.31,1.46-0.54s1.3-0.52,1.86-0.7c0.394-0.126,0.799-0.213,1.21-0.26
			c0.189-0.021,0.381-0.021,0.57,0c0.124,0.019,0.243,0.063,0.35,0.13c0.11,0.07,0.22,0.19,0.34,0.28
			c0.101,0.081,0.208,0.155,0.32,0.22l0.32,0.16l-0.2,0.09L119.102,281.221z M130.702,278.551c-0.64-0.167-1.268-0.378-1.88-0.63
			c-0.46-0.21-0.75-0.4-1-0.52c-0.176-0.105-0.375-0.163-0.58-0.17c0.812-0.421,1.681-0.721,2.58-0.89
			c1.28-0.267,2.582-0.415,3.89-0.44c1.561-0.046,3.122,0.034,4.67,0.24c1.25,0.17,2.467,0.527,3.61,1.06
			c0.897,0.426,1.694,1.036,2.34,1.79c0.505,0.62,0.848,1.355,1,2.14c0.184,0.843,0.184,1.717,0,2.56
			c-0.248,1.17-0.702,2.288-1.34,3.3c-0.763,1.21-1.708,2.296-2.8,3.22c-0.953,0.811-2.039,1.45-3.21,1.89
			c-0.754,0.259-1.543,0.404-2.34,0.43c-0.31,0.025-0.62,0.025-0.93,0c0.009-0.248,0.052-0.494,0.13-0.73
			c0.13-0.57,0.39-1.62,0.76-2.8s0.87-2.5,1.14-3.3c0.165-0.453,0.295-0.918,0.39-1.39c0.062-0.313,0.092-0.631,0.09-0.95
			c-0.068-1.024-0.571-1.97-1.38-2.6c-0.764-0.596-1.614-1.075-2.52-1.42c-0.866-0.322-1.751-0.59-2.65-0.8L130.702,278.551z"/>
		<path fill-rule="evenodd" clip-rule="evenodd" fill="#004587" d="M466.263,330.181h1.52v-3.07h0.39c0.9,0,1.34,0.4,2.1,1.87
			l0.63,1.2h1.87l-0.88-1.5c-0.77-1.31-1-1.52-1.59-1.76c1.112-0.063,1.986-0.976,2-2.09c0-1.35-0.91-2.12-2.51-2.12h-3.53V330.181z
			 M467.783,325.941v-2h1.39c1,0,1.54,0.34,1.54,1c0,0.8-0.43,1.07-1.7,1.08h-1.23V325.941z M469.443,319.381c-3.866,0-7,3.134-7,7
			s3.134,7,7,7s7-3.134,7-7S473.308,319.381,469.443,319.381z M469.443,320.751c3.131-0.011,5.679,2.519,5.69,5.65
			s-2.519,5.679-5.65,5.69c-3.131,0.011-5.679-2.519-5.69-5.65c0-0.007,0-0.013,0-0.02
			C463.787,323.295,466.317,320.756,469.443,320.751L469.443,320.751z"/>
		<path fill-rule="evenodd" clip-rule="evenodd" fill="#E30613" d="M124.883,240.121c-1.84-2.91-3.93-6.4-5.71-9.65
			s-3.22-6.27-4.45-9.14c-1.138-2.647-2.139-5.351-3-8.1c-0.737-2.316-1.338-4.674-1.8-7.06c-0.405-2.019-0.673-4.064-0.8-6.12
			c-0.131-1.788-0.131-3.582,0-5.37c0.126-1.588,0.38-3.163,0.76-4.71c0.349-1.435,0.813-2.84,1.39-4.2
			c0.557-1.305,1.226-2.56,2-3.75c0.781-1.189,1.661-2.309,2.63-3.35c1.016-1.089,2.12-2.092,3.3-3c1.265-0.97,2.602-1.843,4-2.61
			c1.588-0.857,3.236-1.599,4.93-2.22c1.961-0.709,3.965-1.294,6-1.75c2.393-0.536,4.813-0.94,7.25-1.21
			c2.65-0.29,5.53-0.46,8.66-0.5s6.52,0.09,10.24,0.38s7.77,0.78,12.12,1.47s9,1.59,13.93,2.74s10.2,2.53,15.75,4.19
			s11.42,3.58,17.53,5.79s12.49,4.71,19.09,7.49s13.41,5.86,20.4,9.23s14.12,7,21.35,10.92s14.55,8.11,21.77,12.46
			s14.34,8.89,20.34,12.85s10.89,7.37,15.7,10.9l-13.34,1.11c-9.61-6.45-19.53-12.44-31.83-19.15s-27-14.13-40.82-20.3
			c-13.036-5.849-26.39-10.961-40-15.31c-4.2-1.32-8.43-2.55-12.47-3.62s-7.9-2-11.56-2.77s-7.13-1.4-10.41-1.91
			s-6.36-0.89-9.29-1.15s-5.69-0.43-8.24-0.49s-4.87,0-7.06,0.1s-4.24,0.31-6.15,0.57s-3.66,0.58-5.3,1
			c-1.542,0.35-3.065,0.784-4.56,1.3c-1.318,0.449-2.61,0.97-3.87,1.56c-1.143,0.537-2.252,1.145-3.32,1.82
			c-0.992,0.605-1.944,1.273-2.85,2c-0.848,0.693-1.647,1.445-2.39,2.25c-0.728,0.765-1.396,1.584-2,2.45
			c-0.607,0.871-1.151,1.783-1.63,2.73c-0.494,0.97-0.921,1.972-1.28,3c-0.367,1.064-0.668,2.149-0.9,3.25
			c-0.24,1.182-0.407,2.378-0.5,3.58c-0.104,1.331-0.131,2.666-0.08,4c0.055,1.473,0.192,2.942,0.41,4.4c0.23,1.57,0.55,3.25,1,5
			s1,3.56,1.61,5.5s1.47,4,2.4,6.19s2,4.43,3.26,6.84s2.67,5,4.17,7.45l-1.28,0.41c-1.69-2.25-3.29-4.57-5.13-7.48L124.883,240.121z
			"/>
		<path fill-rule="evenodd" clip-rule="evenodd" fill="#E30613" d="M428.963,348.771c1.84,2.91,3.93,6.4,5.7,9.65
			s3.23,6.27,4.46,9.14c1.138,2.647,2.139,5.35,3,8.1c0.74,2.316,1.345,4.673,1.81,7.06c0.395,2.021,0.663,4.065,0.8,6.12
			c0.126,1.788,0.126,3.582,0,5.37c-0.136,1.587-0.391,3.161-0.76,4.71c-0.347,1.437-0.816,2.842-1.4,4.2
			c-1.123,2.618-2.693,5.02-4.64,7.1c-1.018,1.086-2.122,2.09-3.3,3c-1.281,0.973-2.635,1.845-4.05,2.61
			c-1.588,0.857-3.236,1.599-4.93,2.22c-1.961,0.709-3.965,1.293-6,1.75c-2.392,0.538-4.813,0.942-7.25,1.21
			c-2.64,0.29-5.52,0.46-8.65,0.49s-6.52-0.08-10.24-0.37s-7.78-0.78-12.12-1.47s-9-1.6-13.93-2.74s-10.2-2.53-15.76-4.19
			s-11.41-3.58-17.52-5.79s-12.5-4.71-19.09-7.49s-13.42-5.86-20.4-9.23s-14.12-7-21.35-10.93s-14.56-8.1-21.77-12.45
			s-14.34-8.87-20.35-12.83s-10.89-7.37-15.69-10.9l13.34-1.11c9.61,6.45,19.52,12.44,31.83,19.15s27,14.12,40.82,20.3
			c13.036,5.85,26.39,10.961,40,15.31c4.2,1.32,8.43,2.55,12.48,3.62s7.89,2,11.56,2.77s7.12,1.4,10.4,1.91s6.37,0.89,9.29,1.15
			s5.69,0.43,8.24,0.49s4.88,0,7.07-0.1s4.24-0.31,6.14-0.57s3.67-0.59,5.31-1c1.542-0.353,3.064-0.787,4.56-1.3
			c1.317-0.451,2.609-0.971,3.87-1.56c1.142-0.54,2.251-1.147,3.32-1.82c0.99-0.621,1.939-1.305,2.84-2.05
			c0.852-0.693,1.654-1.445,2.4-2.25c0.722-0.77,1.39-1.589,2-2.45c0.603-0.871,1.145-1.783,1.62-2.73
			c0.498-0.968,0.926-1.971,1.28-3c0.376-1.061,0.677-2.147,0.9-3.25c0.243-1.182,0.414-2.377,0.51-3.58
			c0.104-1.331,0.131-2.666,0.08-4c-0.055-1.473-0.192-2.942-0.41-4.4c-0.23-1.57-0.55-3.25-1-5s-0.95-3.56-1.61-5.5
			s-1.47-4-2.41-6.19s-2-4.43-3.25-6.84s-2.68-4.95-4.18-7.45l1.29-0.41c1.68,2.25,3.28,4.57,5.13,7.48L428.963,348.771z"/>
	</g>
</g>
<g id="Vrstva_5" display="none">
</g>
<g id="Vrstva_2">
	<rect x="0" fill="#004587" width="595.094" height="592.821"/>
</g>
<g id="Vrstva_4" display="none">
	<circle display="inline" fill="#A825D8" cx="297.562" cy="296.41" r="296.41"/>
</g>
<g id="Vrstva_3">
	<path fill-rule="evenodd" clip-rule="evenodd" fill="#FFFFFF" d="M508.189,248.543c-0.074-0.484-0.197-0.959-0.368-1.401
		c-0.188-0.444-0.419-0.855-0.765-1.224c-0.346-0.369-0.789-0.699-1.368-0.96c-0.573-0.265-1.269-0.456-2.839-0.473
		c-1.578-0.024-4.037,0.136-7.898,1.411c-3.866,1.275-9.141,3.674-14.676,8.243c-5.537,4.571-11.34,11.318-15.861,18.94
		c-4.519,7.618-7.766,16.109-9.483,24.178c-1.715,8.059-1.883,15.692-1.511,21.594c0.378,5.907,1.308,10.076,2.703,13.696
		c1.399,3.619,3.265,6.685,6.138,9.595c2.871,2.915,6.765,5.669,11.34,7.516c4.579,1.846,9.842,2.785,14.679,2.465
		c4.815-0.329,9.204-1.916,13.74-4.54c4.536-2.625,9.228-6.275,13.691-11.861c4.456-5.575,8.703-13.091,11.836-20.314
		c3.142-7.224,5.176-14.152,6.441-20.633c1.263-6.482,1.775-12.512,1.767-17.89c-0.015-5.376-0.543-10.089-1.341-13.991
		c-0.804-3.907-1.885-7.002-3.129-9.419c-1.232-2.416-2.631-4.17-3.66-5.273c-1.038-1.101-1.691-1.552-2.352-1.817
		c-0.651-0.259-1.319-0.331-2.156-0.232c-0.843,0.094-1.857,0.351-3.479,1.325c-1.609,0.972-3.712,2.776-5.825,4.523l-5.669,4.71
		l0.138-6.677C508.295,249.53,508.253,249.033,508.189,248.543L508.189,248.543z M500.21,310.97
		c-1.483,3.003-3.124,5.835-4.925,8.069c-1.788,2.238-3.745,3.888-5.191,4.776c-1.438,0.895-2.374,1.029-3.204,1.014
		c-0.832-0.019-1.552-0.197-2.171-0.491c-0.625-0.29-1.142-0.698-1.725-1.479c-0.592-0.778-1.235-1.929-1.751-3.611
		c-0.521-1.682-0.904-3.887-0.785-7.36c0.108-3.466,0.744-8.203,1.853-12.371c1.118-4.172,2.739-7.772,4.761-11.416
		c2.021-3.647,4.469-7.337,6.408-9.819c1.931-2.481,3.369-3.756,4.612-4.762c1.256-1.015,2.443-1.6,3.468-2.433l3.952-3.271
		c0.255,0.995,0.467,2.004,0.755,3.57c0.272,1.559,0.612,3.684,0.789,5.866c0.164,2.177,0.147,4.416,0.033,7.205
		c-0.123,2.792-0.337,6.128-0.822,9.077c-0.486,2.951-1.233,5.516-2.259,8.388C502.98,304.789,501.681,307.963,500.21,310.97
		L500.21,310.97z"/>
	<path fill-rule="evenodd" clip-rule="evenodd" fill="#FFFFFF" d="M439.016,274.606c1.033,0.046,2.073-0.242,2.971-0.707
		c0.888-0.467,1.622-1.159,2.316-2.061c0.683-0.907,1.323-2.03,1.877-3.32c0.549-1.284,1.034-2.738,1.552-4.626
		c0.525-1.891,1.092-4.205,1.479-5.952c0.385-1.751,0.588-2.922,0.744-3.74c0.145-0.823,0.229-1.29,0.257-1.787
		c0.006-0.499-0.039-1.03-0.229-1.522c-0.19-0.49-0.502-0.942-0.99-1.388c-0.482-0.447-1.131-0.878-1.976-1.246
		c-0.848-0.369-1.899-0.677-3.304-0.891c-1.419-0.223-3.181-0.344-4.96-0.338l-43.234,0.129c-1.353,0.004-2.716,0.065-3.838,0.186
		c-1.113,0.122-1.985,0.285-2.856,0.561c-0.863,0.275-1.708,0.654-2.512,1.284c-0.798,0.631-1.546,1.517-2.205,2.946
		c-0.655,1.428-1.224,3.402-2.069,6.27c-0.837,2.862-1.963,6.62-2.517,8.72c-0.558,2.103-0.54,2.549-0.484,2.973
		c0.058,0.427,0.145,0.828,0.339,1.24c0.177,0.411,0.452,0.832,0.733,1.219c0.301,0.39,0.621,0.749,1.053,0.974
		c0.448,0.222,1.008,0.308,2.173,0.301c1.167,0,2.925-0.089,4.677-0.27l-5.278,16.081c-0.275-0.076-0.549-0.124-1.066-0.164
		c-0.523-0.038-1.278-0.066-2.114,0.045c-0.837,0.108-1.749,0.363-2.337,0.567c-0.569,0.21-0.809,0.376-1.211,0.871
		c-0.387,0.499-0.936,1.328-1.611,2.653c-0.666,1.317-1.47,3.132-2.195,5.437c-0.722,2.296-1.356,5.088-1.699,7.106
		c-0.337,2.013-0.383,3.245-0.346,4.043c0.033,0.791,0.156,1.146,0.288,1.479c0.138,0.32,0.288,0.633,0.558,0.96
		c0.264,0.329,0.642,0.683,1.185,0.977c0.523,0.296,1.224,0.545,1.708,0.701c0.484,0.158,0.772,0.238,1.068,0.294l-4.216,15.548
		c-0.188,0.826-0.32,1.664-0.419,2.373c-0.091,0.709-0.138,1.297-0.052,2.357c0.104,1.068,0.333,2.603,1.278,4.748
		c0.934,2.154,2.603,4.912,3.95,6.854c1.36,1.937,2.398,3.066,3.635,3.771c1.221,0.705,2.64,0.995,4.112,1.163
		c1.485,0.168,3.029,0.225,6.251,0.199c3.217-0.03,8.112-0.147,13.371-0.099c5.267,0.052,10.897,0.255,14.11,0.203
		c3.215-0.043,4.015-0.346,4.858-0.891c0.845-0.549,1.734-1.336,2.506-2.577c0.772-1.25,1.446-2.962,1.97-4.506
		c0.536-1.548,0.93-2.94,1.267-4.735c0.344-1.79,0.631-3.978,0.707-5.462c0.069-1.487-0.076-2.278-0.337-2.894
		c-0.261-0.616-0.648-1.072-1.155-1.44c-0.489-0.372-1.096-0.655-1.825-0.891c-0.718-0.229-1.557-0.402-3.191-0.502
		c-1.628-0.095-4.065-0.021-6.484-0.021h-17.264l2.899-13.983c0.216,0.009,0.445,0.03,4.387,0.22
		c3.946,0.199,11.639,0.573,16.199,0.664c4.562,0.082,6.008-0.132,7.083-0.368c1.072-0.242,1.777-0.508,2.432-0.964
		c0.649-0.45,1.258-1.092,2.128-2.776c0.86-1.693,1.998-4.432,2.871-7.148c0.861-2.715,1.462-5.401,1.741-6.996
		c0.281-1.593,0.229-2.09,0.123-2.598c-0.114-0.499-0.279-1.014-0.517-1.494c-0.246-0.482-0.573-0.931-0.912-1.29
		c-0.357-0.356-0.746-0.624-1.159-0.795c-0.413-0.172-0.867-0.248-4.93-0.357c-4.078-0.11-11.777-0.254-15.749-0.325
		c-3.967-0.078-4.223-0.083-4.469-0.087c-0.006-0.172-0.006-0.336,0.099-1.446c0.11-1.111,0.337-3.158,0.452-4.404
		c0.115-1.248,0.13-1.696,0.123-2.201c-0.009-0.505-0.033-1.081-0.141-1.522c-0.097-0.442-0.272-0.747-0.525-1.015
		c-0.246-0.265-0.586-0.484-0.954-0.691c-0.37-0.21-0.772-0.417-1.191-0.622c-0.411-0.21-0.83-0.429-1.215-0.677
		c-0.4-0.252-0.748-0.539-1.049-0.878c-0.292-0.331-0.53-0.717-0.666-1.206c-0.138-0.492-0.162-1.098-0.078-1.681L439.016,274.606
		L439.016,274.606z"/>
	<path fill-rule="evenodd" clip-rule="evenodd" fill="#FFFFFF" d="M346.339,347.237c0.214-0.432,0.234-0.856,0.182-1.423
		c-0.058-0.571-0.197-1.293-0.307-1.864c-0.113-0.588-0.203-1.029-0.251-1.384c-0.058-0.35-0.084-0.618-0.084-0.826
		c-0.006-0.216,0.017-0.372,0.214-1.046c0.19-0.675,0.543-1.868,0.919-3.04c4.329-14.12,9.116-28.098,12.819-41.137
		c3.691-13.047,6.707-25.033,8.261-31.445c1.552-6.411,1.656-7.252,1.593-8.094c-0.078-0.843-0.329-1.686-0.945-2.532
		c-0.625-0.849-1.609-1.696-3.321-2.557c-1.708-0.866-4.143-1.742-6.802-2.378c-2.672-0.634-5.565-1.025-7.172-1.229
		c-1.598-0.209-1.902-0.231-2.231-0.199c-0.337,0.032-0.69,0.116-1.133,0.348c-0.443,0.232-0.986,0.609-1.513,1.103
		c-0.532,0.497-1.049,1.121-1.503,2.151c-0.474,1.032-0.88,2.481-2.104,7.509c-1.23,5.03-3.353,13.619-5.193,22.265l-1.98,9.283
		c-0.164-0.616-0.339-1.231-1.505-5.621c-1.183-4.389-3.369-12.557-4.824-17.645c-1.446-5.081-2.171-7.095-3.135-8.892
		c-0.941-1.8-2.132-3.388-3.916-4.753c-1.784-1.368-4.158-2.527-7.142-3.44c-2.986-0.917-6.562-1.583-8.854-1.936
		c-2.294-0.358-3.31-0.396-4.179-0.255c-0.865,0.144-1.583,0.475-2.305,1.053c-0.72,0.581-1.442,1.409-2.004,2.408
		c-0.562,1.013-0.809,2.231-1.157,3.413l-24.253,82.598c-0.214,0.731-0.441,1.453-0.569,2.322c-0.13,0.865-0.201,1.86-0.117,2.755
		c0.086,0.904,0.335,1.721,0.904,2.499c0.573,0.778,1.47,1.518,2.709,2.153c1.241,0.623,2.832,1.133,4.664,1.509
		c1.838,0.381,3.915,0.627,5.524,0.705c1.602,0.078,2.731-0.013,3.678-0.069c0.947-0.052,1.715-0.082,2.454-0.091
		c0.746-0.009,1.46-0.004,2.002-0.099c0.543-0.1,0.917-0.307,1.241-0.584c0.329-0.281,0.61-0.636,0.867-1.094
		c0.259-0.45,0.497-1.003,0.765-1.764c0.259-0.77,0.517-1.764,0.789-2.75l13.442-48.758l5.41,32.943
		c0.499,3.04,0.873,6.098,1.245,8.265c0.372,2.171,0.642,3.455,0.839,4.355c0.19,0.891,0.307,1.401,0.445,1.885
		c0.141,0.484,0.307,0.96,0.478,1.341c0.162,0.376,0.32,0.67,0.936,1.211c0.625,0.545,1.719,1.341,3.905,2.214
		c2.192,0.887,5.492,1.851,8.644,2.344c3.155,0.502,6.164,0.532,8.225,0.381c2.063-0.151,3.2-0.484,3.961-0.869
		C345.722,348.089,346.127,347.656,346.339,347.237L346.339,347.237z"/>
	<path fill-rule="evenodd" clip-rule="evenodd" fill="#FFFFFF" d="M261,312.335c0.264-8.744,0.493-22.263,0.588-32.221
		c0.099-9.962,0.058-16.363-0.084-22.758c-0.052-0.968-0.331-1.917-0.865-2.83c-0.534-0.916-1.319-1.804-2.668-2.774
		c-1.343-0.974-3.245-2.034-6.097-2.872c-2.854-0.832-6.659-1.443-9.144-1.719c-2.486-0.28-3.658-0.227-4.772-0.045
		c-1.114,0.177-2.171,0.485-3.124,1.015c-0.958,0.525-1.803,1.28-2.785,2.405c-0.982,1.123-2.095,2.627-6.608,10.661
		c-4.51,8.029-12.421,22.59-16.514,30.122c-4.088,7.527-4.361,8.021-4.629,8.517c-0.041,0-0.078-0.015-0.687-0.091
		c-0.61-0.081-1.79-0.232-3.018-0.139c-1.222,0.094-2.499,0.432-3.635,1.035c-1.133,0.613-2.13,1.49-3.031,2.826
		c-0.895,1.332-1.699,3.116-2.675,5.721c-0.973,2.603-2.117,6.032-2.713,8.471c-0.59,2.437-0.627,3.881-0.506,4.856
		c0.13,0.982,0.424,1.492,0.696,1.896c0.275,0.4,0.532,0.687,0.819,0.893c0.281,0.212,0.597,0.346,0.824,0.454
		c0.221,0.099,0.348,0.16,0.478,0.225c-0.05,0.11-0.102,0.216-0.889,1.989c-0.785,1.775-2.307,5.212-3.2,7.413
		c-0.897,2.197-1.165,3.148-1.25,4.043c-0.087,0.904,0.017,1.743,0.305,2.582c0.283,0.843,0.752,1.674,1.596,2.512
		c0.848,0.826,2.08,1.656,4.127,2.582c2.052,0.938,4.915,1.963,7.131,2.499c2.212,0.532,3.784,0.566,4.975,0.467
		c1.191-0.099,2.009-0.329,2.733-0.657c0.722-0.333,1.349-0.761,1.907-1.267c0.562-0.497,1.053-1.085,2.917-4.748
		c1.864-3.667,5.103-10.4,6.774-13.893c1.669-3.479,1.771-3.699,1.872-3.916c0.523,0.084,1.053,0.132,2.078,0.169
		c1.023,0.03,2.547,0.048,3.544-0.009c1.005-0.061,1.483-0.184,1.916-0.316c0.437-0.138,0.824-0.281,1.159-0.435
		c0.339-0.145,0.633-0.3,0.889-0.519c0.257-0.205,0.48-0.473,0.701-0.707c0.218-0.238,0.439-0.435,0.614-0.597
		c0.171-0.158,0.296-0.286,0.406-0.398c0.119-0.112,0.225-0.212,0.562-0.525c0.335-0.314,0.9-0.83,1.349-1.224
		c0.443-0.387,0.768-0.636,1.001-0.819c0.238-0.175,0.391-0.281,0.547-0.372c0,0.197-0.004,0.391-0.041,2.761
		c-0.041,2.376-0.112,6.93-0.193,10.196c-0.078,3.273-0.158,5.276-0.242,6.711c-0.078,1.44-0.165,2.331-0.182,3.118
		c-0.015,0.792,0.03,1.492,0.227,2.136c0.197,0.649,0.543,1.241,1.068,1.833c0.523,0.592,1.237,1.185,2.445,1.795
		c1.211,0.623,2.919,1.258,5.276,1.626c2.355,0.372,5.347,0.467,7.368,0.394c2.028-0.074,3.075-0.324,3.95-0.649
		c0.871-0.329,1.565-0.722,2.212-1.297c0.638-0.571,1.239-1.31,1.645-2.231c0.406-0.925,0.621-2.041,0.921-4.934
		c0.303-2.901,0.688-7.585,1.027-11.917C260.437,325.052,260.734,321.078,261,312.335L261,312.335z M232.648,300.003
		c0.268,0.136,0.606,0.325,1.072,0.447c0.469,0.122,1.079,0.175,1.591,0.149c0.517-0.027,0.936-0.138,1.273-0.275
		c0.335-0.136,0.584-0.288,0.798-0.49l1.84-17.775c-0.964,1.787-1.892,3.594-2.789,5.421c-0.893,1.823-1.751,3.67-2.484,5.409
		c-0.729,1.729-1.336,3.347-1.665,4.387c-0.331,1.042-0.376,1.504-0.378,1.814c0,0.308,0.047,0.457,0.168,0.579
		C232.196,299.786,232.386,299.872,232.648,300.003L232.648,300.003z"/>
	<path fill-rule="evenodd" clip-rule="evenodd" fill="#FFFFFF" d="M166.236,271.409c0.454-1.545,0.945-3.084,1.516-4.884
		c0.575-1.806,1.245-3.867,1.786-5.907c0.536-2.034,0.943-4.053,1.055-5.52c0.106-1.466-0.076-2.379-0.342-2.998
		c-0.27-0.624-0.621-0.942-1.057-1.202c-0.435-0.259-0.958-0.446-2.809-0.944c-1.851-0.503-5.033-1.312-7.697-1.857
		c-2.666-0.553-4.819-0.839-6.411-0.932c-1.596-0.089-2.625,0.015-3.366,0.159c-0.746,0.139-1.198,0.316-1.6,0.552
		c-0.404,0.23-0.759,0.523-1.081,0.957c-0.329,0.437-0.627,1.017-0.923,1.901c-0.3,0.886-0.61,2.083-0.824,3.29l-18.056,67.064
		c-0.405,1.494-0.902,2.979-1.066,4.579c-0.162,1.613-0.132,3.306,0.711,5.615c0.845,2.312,2.514,5.249,4.171,7.709
		c1.661,2.46,3.306,4.458,4.441,5.756c1.129,1.297,1.743,1.916,2.428,2.34c0.683,0.437,1.442,0.683,2.793,0.852
		c1.351,0.173,3.306,0.208,5.239,0.208h18.588c2.043,0,4.093,0.225,5.624,0.19c1.531-0.026,2.538-0.143,3.446-0.381
		c0.913-0.229,1.721-0.584,2.465-1.353c0.744-0.77,1.427-1.955,2.478-4.973c1.055-3.023,2.484-7.866,3.278-10.68
		c0.8-2.815,0.975-3.6,0.962-4.227c-0.009-0.629-0.21-1.107-0.499-1.589c-0.288-0.478-0.662-0.951-1.085-1.356
		c-0.424-0.402-0.895-0.726-1.537-0.869c-0.638-0.145-1.446-0.104-2.441-0.095c-0.984,0.009-2.16-0.056-3.332-0.03l-22.015,0.525
		L166.236,271.409L166.236,271.409z"/>
	<path fill-rule="evenodd" clip-rule="evenodd" fill="#FFFFFF" d="M65.111,278.145c-0.076,0.195-0.145,0.386-1.719,5.245
		c-1.576,4.856-4.657,14.385-7.527,24.59c-2.871,10.214-5.528,21.102-6.897,26.764c-1.373,5.66-1.455,6.097-1.479,6.495
		c-0.03,0.398,0,0.748,0.11,1.155c0.112,0.411,0.298,0.874,0.567,1.271c0.272,0.402,0.625,0.739,1.072,1.094
		c0.452,0.35,1.008,0.709,2.218,1.133c1.217,0.424,3.098,0.904,4.791,1.194c1.684,0.29,3.18,0.385,4.75,0.562
		c1.576,0.177,3.226,0.441,4.512,0.584c1.286,0.13,2.22,0.13,2.923,0.056c0.703-0.082,1.181-0.246,1.513-0.45
		c0.335-0.199,0.53-0.424,0.677-0.692c0.149-0.272,0.216-0.579,0.283-0.895c1.514-5.954,2.387-12.056,4.058-18.293
		c1.665-6.231,3.691-12.683,4.72-15.965c1.027-3.284,1.068-3.399,1.111-3.516c0.093,0.151,0.199,0.29,0.454,0.618
		c0.257,0.316,0.672,0.822,0.921,1.142c0.242,0.316,0.324,0.458,0.38,0.588c0.061,0.132,0.104,0.264,0.136,0.406
		c0.037,0.149,0.067,0.316,0.106,0.592c0.041,0.272,0.097,0.662,0.166,1.31c0.069,0.657,0.154,1.578,0.225,2.188
		c0.067,0.618,0.119,0.923,0.214,1.267c0.095,0.346,0.223,0.735,0.378,1.086c0.153,0.342,0.329,0.644,0.657,0.971
		c0.329,0.322,0.804,0.672,1.762,0.878c0.962,0.21,2.4,0.275,5.008-0.197c2.605-0.469,6.38-1.479,10.462-3.464
		c4.08-1.976,8.46-4.925,12.404-8.986c3.946-4.06,7.446-9.224,9.805-14.103c2.355-4.874,3.565-9.462,3.911-13.784
		c0.348-4.323-0.162-8.382-1.323-11.976c-1.165-3.602-2.977-6.739-5.526-9.742c-2.547-3.012-5.827-5.89-10.086-7.997
		c-4.262-2.097-9.496-3.428-14.984-3.914c-5.487-0.486-11.222-0.132-16.11,0.474c-4.895,0.603-8.94,1.456-11.779,2.15
		c-2.839,0.689-4.469,1.214-6.361,2.415c-1.894,1.202-4.052,3.077-5.881,6.838c-1.823,3.766-3.319,9.417-4.069,12.603
		c-0.741,3.188-0.741,3.909-0.683,4.593c0.056,0.679,0.171,1.318,0.398,1.946c0.229,0.636,0.571,1.254,0.962,1.719
		c0.383,0.477,0.826,0.796,1.23,1.004c0.406,0.204,0.787,0.288,1.275,0.261c0.493-0.034,1.098-0.172,1.697-0.363
		c0.603-0.187,1.202-0.429,2.007-0.748c0.798-0.318,1.788-0.713,2.553-0.959c0.759-0.234,1.291-0.318,1.665-0.356
		c0.374-0.033,0.599-0.028,0.776,0c0.18,0.028,0.324,0.078,0.478,0.182c0.151,0.098,0.314,0.255,0.471,0.382
		c0.156,0.121,0.305,0.219,0.445,0.3c0.147,0.085,0.285,0.151,0.43,0.219L65.111,278.145L65.111,278.145z M81.042,274.48
		c-1.072-0.293-1.944-0.586-2.579-0.866c-0.633-0.282-1.034-0.552-1.353-0.717c-0.316-0.167-0.554-0.227-0.792-0.237
		c1.014-0.531,2.091-0.914,3.54-1.221c1.449-0.314,3.256-0.538,5.338-0.599c2.078-0.061,4.43,0.045,6.419,0.336
		c1.985,0.297,3.604,0.79,4.962,1.456c1.358,0.672,2.454,1.532,3.215,2.445c0.763,0.919,1.198,1.898,1.425,2.946
		c0.227,1.053,0.242,2.173-0.037,3.523c-0.283,1.35-0.856,2.933-1.842,4.523c-0.982,1.586-2.37,3.18-3.849,4.421
		c-1.479,1.241-3.051,2.122-4.409,2.602c-1.356,0.479-2.499,0.552-3.211,0.59c-0.714,0.04-0.992,0.043-1.274,0.02
		c-0.019-0.113-0.013-0.23,0.169-1.007c0.179-0.783,0.543-2.226,1.053-3.854c0.512-1.626,1.183-3.423,1.554-4.525
		c0.374-1.104,0.463-1.505,0.536-1.914c0.076-0.414,0.141-0.833,0.123-1.308c-0.019-0.474-0.128-0.999-0.381-1.6
		c-0.257-0.6-0.659-1.273-1.516-1.971c-0.852-0.707-2.164-1.433-3.453-1.949C83.385,275.063,82.114,274.773,81.042,274.48
		L81.042,274.48z"/>
	<path fill-rule="evenodd" clip-rule="evenodd" fill="#FFFFFF" d="M541.965,345.403h2.089v-4.216h0.538
		c1.226,0,1.836,0.545,2.886,2.56l0.861,1.656h2.566l-1.204-2.058c-1.066-1.812-1.319-2.097-2.186-2.43
		c1.708-0.242,2.768-1.345,2.768-2.863c0-1.855-1.239-2.91-3.449-2.91h-2.78h-2.089V345.403L541.965,345.403z M544.054,339.57
		v-2.798h0.832h1.068c1.36,0,2.125,0.471,2.125,1.319c0,1.094-0.594,1.466-2.344,1.479h-0.839H544.054L544.054,339.57z
		 M546.331,330.563c-5.336,0-9.669,4.328-9.669,9.672c0,5.34,4.337,9.673,9.669,9.673c5.347,0,9.68-4.337,9.68-9.673
		C556.011,334.891,551.678,330.563,546.331,330.563L546.331,330.563z M546.352,332.448c4.288,0,7.771,3.49,7.771,7.788
		c0,4.294-3.483,7.779-7.771,7.779c-4.29,0-7.764-3.485-7.764-7.779C538.582,335.933,542.063,332.448,546.352,332.448
		L546.352,332.448z"/>
	<path fill-rule="evenodd" clip-rule="evenodd" fill="#E20613" d="M73.046,221.697c-2.534-3.996-5.405-8.791-7.838-13.262
		c-2.43-4.47-4.432-8.614-6.123-12.549c-1.695-3.933-3.085-7.66-4.179-11.132c-1.098-3.476-1.905-6.689-2.484-9.694
		c-0.582-3.004-0.939-5.796-1.096-8.413c-0.165-2.621-0.132-5.066,0.058-7.368c0.195-2.291,0.543-4.442,1.038-6.471
		c0.495-2.034,1.142-3.954,1.92-5.77c0.78-1.813,1.701-3.523,2.765-5.149c1.059-1.62,2.266-3.152,3.615-4.604
		c1.356-1.449,2.861-2.812,4.532-4.089c1.678-1.287,3.518-2.483,5.565-3.591c2.048-1.108,4.288-2.129,6.772-3.042
		c2.482-0.914,5.198-1.726,8.208-2.411c3.016-0.689,6.326-1.254,9.956-1.657c3.635-0.404,7.587-0.642,11.892-0.684
		c4.296-0.038,8.951,0.111,14.06,0.517c5.113,0.406,10.683,1.07,16.653,2.02c5.972,0.949,12.337,2.189,19.128,3.759
		c6.795,1.572,14.017,3.48,21.645,5.757c7.632,2.277,15.678,4.918,24.075,7.957c8.404,3.039,17.161,6.461,26.216,10.287
		c9.064,3.827,18.432,8.052,28.023,12.671c9.587,4.624,19.396,9.637,29.329,15.013c9.931,5.384,19.989,11.129,29.904,17.103
		c9.907,5.977,19.697,12.187,27.941,17.628c8.24,5.45,14.96,10.124,21.563,14.968l-18.324,1.524
		c-13.206-8.855-26.823-17.083-43.72-26.296c-16.895-9.213-37.08-19.405-56.077-27.885c-18.992-8.481-36.804-15.248-54.935-21.031
		c-5.766-1.817-11.578-3.508-17.135-4.977c-5.548-1.473-10.845-2.736-15.876-3.801c-5.023-1.062-9.788-1.929-14.292-2.625
		c-4.497-0.692-8.744-1.217-12.761-1.581c-4.024-0.371-7.82-0.586-11.319-0.669c-3.498-0.083-6.698-0.033-9.706,0.13
		c-3.01,0.159-5.827,0.428-8.443,0.787c-2.614,0.358-5.031,0.805-7.282,1.33c-2.247,0.523-4.337,1.123-6.264,1.785
		c-1.922,0.662-3.684,1.378-5.323,2.15c-1.639,0.777-3.155,1.611-4.558,2.494c-1.405,0.889-2.707,1.83-3.907,2.817
		c-1.202,0.984-2.292,2.018-3.286,3.094c-0.999,1.065-1.903,2.186-2.727,3.368c-0.822,1.186-1.57,2.43-2.231,3.74
		c-0.668,1.307-1.256,2.685-1.753,4.109c-0.502,1.428-0.917,2.918-1.237,4.472c-0.327,1.554-0.554,3.175-0.694,4.907
		c-0.136,1.726-0.177,3.564-0.11,5.477c0.069,1.908,0.247,3.893,0.56,6.043c0.315,2.15,0.757,4.467,1.347,6.861
		c0.582,2.402,1.306,4.889,2.216,7.556c0.915,2.67,2.019,5.525,3.302,8.509c1.284,2.983,2.757,6.087,4.469,9.389
		c1.715,3.304,3.674,6.802,5.738,10.232l-1.764,0.568C77.773,228.876,75.576,225.687,73.046,221.697L73.046,221.697z"/>
	<path fill-rule="evenodd" clip-rule="evenodd" fill="#E20613" d="M490.723,370.929c2.534,3.996,5.405,8.791,7.838,13.262
		c2.43,4.47,4.432,8.614,6.123,12.549c1.695,3.933,3.085,7.66,4.179,11.132c1.098,3.476,1.905,6.689,2.484,9.694
		c0.582,3.004,0.939,5.796,1.096,8.413c0.164,2.621,0.132,5.066-0.058,7.368c-0.195,2.291-0.543,4.442-1.038,6.471
		c-0.495,2.034-1.142,3.954-1.92,5.77c-0.78,1.813-1.701,3.523-2.765,5.149c-1.059,1.62-2.266,3.152-3.615,4.604
		c-1.356,1.449-2.861,2.812-4.532,4.089c-1.678,1.287-3.518,2.483-5.565,3.591c-2.048,1.108-4.288,2.129-6.772,3.042
		c-2.482,0.914-5.198,1.726-8.208,2.411c-3.016,0.689-6.326,1.254-9.956,1.657c-3.635,0.404-7.587,0.642-11.892,0.684
		c-4.296,0.038-8.951-0.111-14.06-0.517c-5.113-0.406-10.683-1.07-16.653-2.02c-5.972-0.949-12.337-2.189-19.128-3.759
		c-6.796-1.572-14.017-3.48-21.645-5.757c-7.632-2.277-15.678-4.918-24.075-7.957c-8.404-3.039-17.161-6.461-26.216-10.287
		c-9.063-3.827-18.432-8.052-28.023-12.671c-9.587-4.624-19.396-9.637-29.329-15.013c-9.931-5.384-19.989-11.129-29.904-17.103
		c-9.907-5.977-19.697-12.187-27.941-17.628c-8.24-5.45-14.96-10.124-21.563-14.968l18.324-1.524
		c13.206,8.855,26.823,17.083,43.72,26.296c16.895,9.213,37.08,19.405,56.077,27.885c18.992,8.481,36.804,15.248,54.935,21.031
		c5.766,1.817,11.578,3.508,17.135,4.977c5.548,1.473,10.845,2.736,15.876,3.801c5.023,1.063,9.788,1.929,14.292,2.625
		c4.497,0.692,8.744,1.217,12.761,1.581c4.024,0.371,7.82,0.586,11.319,0.669c3.498,0.083,6.698,0.033,9.706-0.13
		c3.01-0.159,5.827-0.428,8.443-0.787c2.614-0.358,5.031-0.805,7.282-1.33c2.247-0.523,4.337-1.123,6.264-1.785
		c1.922-0.662,3.684-1.378,5.323-2.15c1.639-0.777,3.155-1.611,4.558-2.494c1.405-0.889,2.707-1.83,3.907-2.817
		c1.202-0.984,2.292-2.018,3.286-3.094c0.999-1.065,1.903-2.186,2.727-3.368c0.822-1.186,1.57-2.43,2.231-3.74
		c0.668-1.307,1.256-2.685,1.753-4.109c0.502-1.428,0.917-2.918,1.237-4.472c0.327-1.554,0.553-3.175,0.694-4.907
		c0.136-1.727,0.177-3.564,0.11-5.477c-0.069-1.908-0.247-3.893-0.56-6.043c-0.315-2.15-0.757-4.467-1.347-6.861
		c-0.582-2.402-1.306-4.889-2.216-7.556c-0.915-2.67-2.019-5.525-3.302-8.509c-1.284-2.983-2.757-6.087-4.469-9.389
		c-1.715-3.304-3.674-6.802-5.738-10.232l1.764-0.568C485.996,363.751,488.193,366.939,490.723,370.929L490.723,370.929z"/>
</g>
<g id="Vrstva_6" display="none">
	<path display="inline" fill-rule="evenodd" clip-rule="evenodd" fill="#FFFFFF" d="M507.766,248.348
		c-0.074-0.484-0.197-0.959-0.368-1.401c-0.188-0.444-0.419-0.855-0.765-1.224c-0.346-0.369-0.789-0.699-1.368-0.96
		c-0.573-0.265-1.269-0.456-2.839-0.473c-1.578-0.024-4.037,0.136-7.898,1.411c-3.866,1.275-9.141,3.674-14.676,8.243
		c-5.537,4.571-11.34,11.318-15.861,18.94c-4.519,7.618-7.766,16.109-9.483,24.178c-1.715,8.059-1.883,15.692-1.511,21.594
		c0.378,5.907,1.308,10.076,2.703,13.696c1.399,3.619,3.265,6.685,6.138,9.595c2.871,2.915,6.765,5.669,11.34,7.516
		c4.579,1.846,9.842,2.785,14.679,2.465c4.815-0.329,9.204-1.916,13.74-4.54c4.536-2.625,9.228-6.275,13.691-11.861
		c4.456-5.575,8.703-13.091,11.836-20.314c3.142-7.224,5.176-14.152,6.441-20.633c1.263-6.482,1.775-12.512,1.767-17.89
		c-0.015-5.376-0.543-10.089-1.341-13.991c-0.804-3.907-1.885-7.002-3.129-9.419c-1.232-2.416-2.631-4.17-3.66-5.273
		c-1.038-1.101-1.691-1.552-2.352-1.817c-0.651-0.259-1.319-0.331-2.156-0.232c-0.843,0.094-1.857,0.351-3.479,1.325
		c-1.609,0.972-3.712,2.776-5.825,4.523l-5.669,4.71l0.138-6.677C507.872,249.335,507.831,248.838,507.766,248.348L507.766,248.348z
		 M499.788,310.775c-1.483,3.003-3.124,5.835-4.925,8.069c-1.788,2.238-3.745,3.888-5.191,4.776
		c-1.438,0.895-2.374,1.029-3.204,1.014c-0.832-0.02-1.552-0.197-2.171-0.491c-0.625-0.29-1.142-0.698-1.725-1.479
		c-0.592-0.778-1.235-1.929-1.751-3.611c-0.521-1.682-0.904-3.887-0.785-7.36c0.108-3.466,0.744-8.203,1.853-12.371
		c1.118-4.172,2.739-7.772,4.761-11.416c2.021-3.647,4.469-7.337,6.408-9.819c1.931-2.481,3.369-3.756,4.612-4.762
		c1.256-1.015,2.443-1.6,3.468-2.433l3.952-3.271c0.255,0.995,0.467,2.004,0.755,3.57c0.272,1.559,0.612,3.684,0.789,5.866
		c0.164,2.177,0.147,4.416,0.033,7.205c-0.123,2.792-0.337,6.128-0.822,9.077c-0.486,2.951-1.233,5.516-2.259,8.388
		C502.557,304.594,501.258,307.768,499.788,310.775L499.788,310.775z"/>
	<path display="inline" fill-rule="evenodd" clip-rule="evenodd" fill="#FFFFFF" d="M438.593,274.411
		c1.033,0.046,2.073-0.242,2.971-0.707c0.888-0.467,1.622-1.159,2.316-2.061c0.683-0.907,1.323-2.03,1.877-3.32
		c0.549-1.284,1.034-2.738,1.552-4.626c0.525-1.891,1.092-4.205,1.479-5.952c0.385-1.751,0.588-2.922,0.744-3.74
		c0.145-0.823,0.229-1.29,0.257-1.787c0.006-0.499-0.039-1.03-0.229-1.522c-0.19-0.49-0.502-0.942-0.99-1.388
		c-0.482-0.447-1.131-0.878-1.976-1.246c-0.848-0.369-1.899-0.677-3.304-0.891c-1.419-0.223-3.181-0.344-4.96-0.338l-43.234,0.129
		c-1.353,0.004-2.716,0.065-3.838,0.186c-1.113,0.122-1.985,0.285-2.856,0.561c-0.863,0.275-1.708,0.654-2.512,1.284
		c-0.798,0.631-1.546,1.517-2.205,2.946c-0.655,1.428-1.224,3.402-2.069,6.27c-0.837,2.862-1.963,6.62-2.517,8.72
		c-0.558,2.103-0.54,2.549-0.484,2.973c0.058,0.427,0.145,0.828,0.339,1.24c0.177,0.411,0.452,0.832,0.733,1.219
		c0.301,0.39,0.621,0.749,1.053,0.974c0.448,0.222,1.008,0.308,2.173,0.301c1.167,0,2.925-0.089,4.677-0.27l-5.278,16.081
		c-0.275-0.076-0.549-0.124-1.066-0.164c-0.523-0.038-1.278-0.066-2.114,0.045c-0.837,0.108-1.749,0.363-2.337,0.567
		c-0.569,0.21-0.809,0.376-1.211,0.871c-0.387,0.499-0.936,1.328-1.611,2.653c-0.666,1.317-1.47,3.132-2.195,5.437
		c-0.722,2.296-1.356,5.088-1.699,7.106c-0.337,2.013-0.383,3.245-0.346,4.043c0.033,0.791,0.156,1.146,0.288,1.479
		c0.138,0.32,0.288,0.633,0.558,0.96c0.264,0.329,0.642,0.683,1.185,0.977c0.523,0.296,1.224,0.545,1.708,0.701
		c0.484,0.158,0.772,0.238,1.068,0.294l-4.216,15.548c-0.188,0.826-0.32,1.664-0.419,2.373c-0.091,0.709-0.138,1.297-0.052,2.357
		c0.104,1.068,0.333,2.603,1.278,4.748c0.934,2.154,2.603,4.912,3.95,6.854c1.36,1.937,2.398,3.066,3.635,3.771
		c1.221,0.705,2.64,0.995,4.112,1.163c1.485,0.168,3.029,0.225,6.251,0.199c3.217-0.03,8.112-0.147,13.371-0.099
		c5.267,0.052,10.897,0.255,14.11,0.203c3.215-0.043,4.015-0.346,4.858-0.891c0.845-0.549,1.734-1.336,2.506-2.577
		c0.772-1.25,1.446-2.962,1.97-4.506c0.536-1.548,0.93-2.94,1.267-4.735c0.344-1.79,0.631-3.978,0.707-5.462
		c0.069-1.487-0.076-2.278-0.337-2.894c-0.261-0.616-0.648-1.072-1.155-1.44c-0.489-0.372-1.096-0.655-1.825-0.891
		c-0.718-0.229-1.557-0.402-3.191-0.502c-1.628-0.095-4.065-0.021-6.484-0.021h-17.264l2.899-13.983
		c0.216,0.009,0.445,0.03,4.387,0.221c3.946,0.199,11.639,0.573,16.199,0.664c4.562,0.082,6.008-0.132,7.083-0.368
		c1.072-0.242,1.777-0.508,2.432-0.964c0.649-0.45,1.258-1.092,2.128-2.776c0.86-1.693,1.998-4.432,2.871-7.148
		c0.861-2.715,1.462-5.401,1.741-6.996c0.281-1.593,0.229-2.09,0.123-2.598c-0.114-0.499-0.279-1.014-0.517-1.494
		c-0.246-0.482-0.573-0.931-0.912-1.29c-0.357-0.356-0.746-0.624-1.159-0.795c-0.413-0.172-0.867-0.248-4.93-0.357
		c-4.078-0.11-11.777-0.254-15.749-0.325c-3.967-0.078-4.223-0.083-4.469-0.087c-0.006-0.172-0.006-0.336,0.099-1.446
		c0.11-1.111,0.337-3.158,0.452-4.404c0.115-1.248,0.13-1.696,0.123-2.201c-0.009-0.505-0.033-1.081-0.141-1.522
		c-0.097-0.442-0.272-0.747-0.525-1.015c-0.246-0.265-0.586-0.484-0.954-0.691c-0.37-0.21-0.772-0.417-1.191-0.622
		c-0.411-0.21-0.83-0.429-1.215-0.677c-0.4-0.252-0.748-0.539-1.049-0.878c-0.292-0.331-0.53-0.717-0.666-1.206
		c-0.138-0.492-0.162-1.098-0.078-1.681L438.593,274.411L438.593,274.411z"/>
	<path display="inline" fill-rule="evenodd" clip-rule="evenodd" fill="#FFFFFF" d="M345.916,347.042
		c0.214-0.432,0.234-0.856,0.182-1.423c-0.058-0.571-0.197-1.293-0.307-1.864c-0.112-0.588-0.203-1.029-0.251-1.384
		c-0.058-0.35-0.084-0.618-0.084-0.826c-0.006-0.216,0.017-0.372,0.214-1.046c0.19-0.675,0.543-1.868,0.919-3.04
		c4.329-14.12,9.116-28.098,12.819-41.137c3.691-13.047,6.707-25.033,8.261-31.445c1.552-6.411,1.656-7.252,1.593-8.094
		c-0.078-0.843-0.329-1.686-0.945-2.532c-0.625-0.849-1.609-1.696-3.321-2.557c-1.708-0.866-4.143-1.742-6.802-2.378
		c-2.672-0.634-5.565-1.025-7.172-1.229c-1.598-0.209-1.902-0.231-2.231-0.199c-0.337,0.032-0.69,0.116-1.133,0.348
		c-0.443,0.232-0.986,0.609-1.513,1.103c-0.532,0.497-1.049,1.121-1.503,2.151c-0.474,1.032-0.88,2.481-2.104,7.509
		c-1.23,5.03-3.353,13.619-5.193,22.265l-1.98,9.283c-0.164-0.616-0.339-1.231-1.505-5.621c-1.183-4.389-3.369-12.557-4.824-17.645
		c-1.446-5.081-2.171-7.095-3.135-8.892c-0.941-1.8-2.132-3.388-3.916-4.753c-1.784-1.368-4.158-2.527-7.142-3.44
		c-2.986-0.917-6.562-1.583-8.854-1.936c-2.294-0.358-3.31-0.396-4.179-0.255c-0.865,0.144-1.583,0.475-2.305,1.053
		c-0.72,0.581-1.442,1.409-2.004,2.408c-0.562,1.013-0.809,2.231-1.157,3.413l-24.253,82.598c-0.214,0.731-0.441,1.453-0.569,2.322
		c-0.13,0.865-0.201,1.86-0.117,2.755c0.086,0.904,0.335,1.721,0.904,2.499c0.573,0.778,1.47,1.518,2.709,2.153
		c1.241,0.623,2.832,1.133,4.664,1.509c1.838,0.381,3.915,0.627,5.524,0.705c1.602,0.078,2.731-0.013,3.678-0.069
		c0.947-0.052,1.715-0.082,2.454-0.091c0.746-0.009,1.46-0.004,2.002-0.099c0.543-0.1,0.917-0.307,1.241-0.584
		c0.329-0.281,0.61-0.636,0.867-1.094c0.259-0.45,0.497-1.003,0.765-1.764c0.259-0.77,0.517-1.764,0.789-2.75l13.442-48.758
		l5.41,32.943c0.499,3.04,0.873,6.098,1.245,8.265c0.372,2.171,0.642,3.455,0.839,4.355c0.19,0.891,0.307,1.401,0.445,1.885
		c0.141,0.484,0.307,0.96,0.478,1.341c0.162,0.376,0.32,0.67,0.936,1.211c0.625,0.545,1.719,1.341,3.905,2.214
		c2.192,0.886,5.492,1.851,8.644,2.344c3.155,0.502,6.164,0.532,8.225,0.381c2.063-0.151,3.2-0.484,3.961-0.869
		C345.3,347.893,345.704,347.461,345.916,347.042L345.916,347.042z"/>
	<path display="inline" fill-rule="evenodd" clip-rule="evenodd" fill="#FFFFFF" d="M260.577,312.14
		c0.264-8.744,0.493-22.263,0.588-32.221c0.099-9.962,0.058-16.363-0.084-22.758c-0.052-0.968-0.331-1.917-0.865-2.83
		c-0.534-0.916-1.319-1.804-2.668-2.774c-1.343-0.974-3.245-2.034-6.097-2.872c-2.854-0.832-6.659-1.443-9.144-1.719
		c-2.486-0.28-3.658-0.227-4.772-0.045c-1.114,0.177-2.171,0.485-3.124,1.015c-0.958,0.525-1.803,1.28-2.785,2.405
		c-0.982,1.123-2.095,2.627-6.608,10.661c-4.51,8.029-12.421,22.59-16.514,30.122c-4.088,7.527-4.361,8.021-4.629,8.517
		c-0.041,0-0.078-0.015-0.687-0.091c-0.61-0.081-1.79-0.232-3.018-0.139c-1.222,0.094-2.499,0.432-3.635,1.035
		c-1.133,0.613-2.13,1.49-3.031,2.826c-0.895,1.332-1.699,3.116-2.675,5.721c-0.973,2.603-2.117,6.032-2.713,8.471
		c-0.59,2.437-0.627,3.881-0.506,4.856c0.13,0.982,0.424,1.492,0.696,1.896c0.275,0.4,0.532,0.687,0.819,0.893
		c0.281,0.212,0.597,0.346,0.824,0.454c0.221,0.099,0.348,0.16,0.478,0.225c-0.05,0.11-0.102,0.216-0.889,1.989
		c-0.785,1.775-2.307,5.212-3.2,7.413c-0.897,2.197-1.165,3.148-1.25,4.043c-0.087,0.904,0.017,1.743,0.305,2.582
		c0.283,0.843,0.752,1.674,1.596,2.512c0.848,0.826,2.08,1.656,4.127,2.582c2.052,0.938,4.915,1.963,7.131,2.499
		c2.212,0.532,3.784,0.566,4.975,0.467c1.191-0.099,2.009-0.329,2.733-0.657c0.722-0.333,1.349-0.761,1.907-1.267
		c0.562-0.497,1.053-1.085,2.917-4.748c1.864-3.667,5.103-10.4,6.774-13.893c1.669-3.479,1.771-3.699,1.872-3.916
		c0.523,0.084,1.053,0.132,2.078,0.169c1.023,0.03,2.547,0.048,3.544-0.009c1.005-0.061,1.483-0.184,1.916-0.316
		c0.437-0.138,0.824-0.281,1.159-0.435c0.339-0.145,0.633-0.3,0.889-0.519c0.257-0.205,0.48-0.473,0.701-0.707
		c0.218-0.238,0.439-0.435,0.614-0.597c0.171-0.158,0.296-0.286,0.406-0.398c0.119-0.112,0.225-0.212,0.562-0.525
		c0.335-0.314,0.9-0.83,1.349-1.224c0.443-0.387,0.768-0.636,1.001-0.819c0.238-0.175,0.391-0.281,0.547-0.372
		c0,0.197-0.004,0.391-0.041,2.761c-0.041,2.376-0.112,6.93-0.193,10.196c-0.078,3.273-0.158,5.276-0.242,6.711
		c-0.078,1.44-0.165,2.331-0.182,3.118c-0.015,0.792,0.03,1.492,0.227,2.136c0.197,0.649,0.543,1.241,1.068,1.833
		c0.523,0.592,1.237,1.185,2.445,1.795c1.211,0.623,2.919,1.258,5.276,1.626c2.355,0.372,5.347,0.467,7.368,0.394
		c2.028-0.074,3.075-0.324,3.95-0.649c0.871-0.329,1.565-0.722,2.212-1.297c0.638-0.571,1.239-1.31,1.645-2.231
		c0.406-0.925,0.621-2.041,0.921-4.934c0.303-2.901,0.688-7.585,1.027-11.917C260.015,324.857,260.311,320.883,260.577,312.14
		L260.577,312.14z M232.225,299.808c0.268,0.136,0.606,0.325,1.072,0.447c0.469,0.122,1.079,0.175,1.591,0.149
		c0.517-0.027,0.936-0.138,1.273-0.275c0.335-0.136,0.584-0.288,0.798-0.49l1.84-17.775c-0.964,1.787-1.892,3.594-2.789,5.421
		c-0.893,1.823-1.751,3.67-2.484,5.41c-0.729,1.729-1.336,3.347-1.665,4.387c-0.331,1.042-0.376,1.504-0.378,1.814
		c0,0.308,0.047,0.457,0.168,0.579C231.773,299.591,231.963,299.677,232.225,299.808L232.225,299.808z"/>
	<path display="inline" fill-rule="evenodd" clip-rule="evenodd" fill="#FFFFFF" d="M165.813,271.214
		c0.454-1.545,0.945-3.084,1.516-4.884c0.575-1.806,1.245-3.867,1.786-5.907c0.536-2.034,0.943-4.053,1.055-5.52
		c0.106-1.466-0.076-2.379-0.342-2.998c-0.27-0.624-0.621-0.942-1.057-1.202c-0.435-0.259-0.958-0.446-2.809-0.944
		c-1.851-0.503-5.033-1.312-7.697-1.857c-2.666-0.553-4.819-0.839-6.411-0.932c-1.596-0.089-2.625,0.015-3.366,0.159
		c-0.746,0.139-1.198,0.316-1.6,0.552c-0.404,0.23-0.759,0.523-1.081,0.957c-0.329,0.437-0.627,1.017-0.923,1.901
		c-0.3,0.886-0.61,2.083-0.824,3.29l-18.056,67.064c-0.405,1.494-0.902,2.979-1.066,4.579c-0.162,1.613-0.132,3.306,0.711,5.615
		c0.845,2.312,2.514,5.249,4.171,7.709c1.661,2.46,3.306,4.458,4.441,5.756c1.129,1.297,1.743,1.916,2.428,2.34
		c0.683,0.437,1.442,0.683,2.793,0.852c1.351,0.173,3.306,0.208,5.239,0.208h18.588c2.043,0,4.093,0.225,5.624,0.19
		c1.531-0.026,2.538-0.143,3.446-0.381c0.913-0.229,1.721-0.584,2.465-1.353c0.744-0.77,1.427-1.955,2.478-4.973
		c1.055-3.023,2.484-7.866,3.278-10.68c0.8-2.815,0.975-3.6,0.962-4.227c-0.009-0.629-0.21-1.107-0.499-1.589
		c-0.288-0.478-0.662-0.951-1.085-1.356c-0.424-0.402-0.895-0.726-1.537-0.869c-0.638-0.145-1.446-0.104-2.441-0.095
		c-0.984,0.009-2.16-0.056-3.332-0.03l-22.015,0.525L165.813,271.214L165.813,271.214z"/>
	<path display="inline" fill-rule="evenodd" clip-rule="evenodd" fill="#FFFFFF" d="M64.688,277.95
		c-0.076,0.195-0.145,0.386-1.719,5.245c-1.576,4.856-4.657,14.385-7.527,24.59c-2.871,10.214-5.528,21.102-6.897,26.764
		c-1.373,5.66-1.455,6.097-1.479,6.495c-0.03,0.398,0,0.748,0.11,1.155c0.112,0.411,0.298,0.874,0.567,1.271
		c0.272,0.402,0.625,0.739,1.072,1.094c0.452,0.35,1.008,0.709,2.218,1.133c1.217,0.424,3.098,0.904,4.791,1.194
		c1.684,0.29,3.18,0.385,4.75,0.562c1.576,0.177,3.226,0.441,4.512,0.584c1.286,0.13,2.22,0.13,2.923,0.056
		c0.703-0.082,1.181-0.246,1.514-0.45c0.335-0.199,0.53-0.424,0.677-0.692c0.149-0.272,0.216-0.579,0.283-0.895
		c1.514-5.954,2.387-12.056,4.058-18.293c1.665-6.231,3.691-12.683,4.72-15.965c1.027-3.284,1.068-3.399,1.111-3.516
		c0.093,0.151,0.199,0.29,0.454,0.618c0.257,0.316,0.672,0.822,0.921,1.142c0.242,0.316,0.324,0.458,0.38,0.588
		c0.061,0.132,0.104,0.264,0.136,0.406c0.037,0.149,0.067,0.316,0.106,0.592c0.041,0.272,0.097,0.662,0.166,1.31
		c0.069,0.657,0.154,1.578,0.225,2.188c0.067,0.618,0.119,0.923,0.214,1.267c0.095,0.346,0.223,0.735,0.378,1.086
		c0.153,0.342,0.329,0.644,0.657,0.971c0.329,0.322,0.804,0.672,1.762,0.878c0.962,0.21,2.4,0.275,5.008-0.197
		c2.605-0.469,6.38-1.479,10.462-3.464c4.08-1.976,8.46-4.925,12.404-8.986c3.946-4.061,7.446-9.224,9.805-14.103
		c2.355-4.874,3.565-9.462,3.911-13.784c0.348-4.323-0.162-8.382-1.323-11.976c-1.165-3.602-2.977-6.739-5.526-9.742
		c-2.547-3.012-5.827-5.89-10.086-7.997c-4.262-2.097-9.496-3.428-14.984-3.914c-5.487-0.486-11.222-0.132-16.11,0.474
		c-4.895,0.603-8.94,1.456-11.779,2.15c-2.839,0.689-4.469,1.214-6.361,2.415c-1.894,1.202-4.052,3.077-5.881,6.838
		c-1.823,3.766-3.319,9.417-4.069,12.603c-0.741,3.188-0.741,3.909-0.683,4.593c0.056,0.679,0.171,1.318,0.398,1.946
		c0.229,0.636,0.571,1.254,0.962,1.719c0.383,0.477,0.826,0.796,1.23,1.004c0.406,0.204,0.787,0.288,1.275,0.261
		c0.493-0.034,1.098-0.172,1.697-0.363c0.603-0.187,1.202-0.429,2.007-0.748c0.798-0.318,1.788-0.713,2.553-0.959
		c0.759-0.234,1.291-0.318,1.665-0.356c0.374-0.033,0.599-0.028,0.776,0c0.18,0.028,0.324,0.078,0.478,0.182
		c0.151,0.098,0.314,0.255,0.471,0.382c0.156,0.121,0.305,0.219,0.445,0.3c0.147,0.085,0.285,0.151,0.43,0.219L64.688,277.95
		L64.688,277.95z M80.619,274.285c-1.072-0.293-1.944-0.586-2.579-0.866c-0.633-0.282-1.034-0.552-1.353-0.717
		c-0.316-0.166-0.553-0.227-0.792-0.237c1.014-0.531,2.091-0.914,3.54-1.221c1.449-0.314,3.256-0.538,5.338-0.599
		c2.078-0.061,4.43,0.045,6.419,0.336c1.985,0.297,3.604,0.79,4.962,1.456c1.358,0.672,2.454,1.532,3.215,2.445
		c0.763,0.919,1.198,1.899,1.425,2.946c0.227,1.053,0.242,2.173-0.037,3.523c-0.283,1.35-0.856,2.933-1.842,4.523
		c-0.982,1.586-2.37,3.18-3.849,4.421c-1.479,1.241-3.051,2.122-4.409,2.602c-1.356,0.479-2.499,0.552-3.211,0.59
		c-0.714,0.04-0.992,0.043-1.273,0.02c-0.019-0.113-0.013-0.23,0.169-1.007c0.179-0.783,0.543-2.226,1.053-3.854
		c0.512-1.626,1.183-3.423,1.554-4.525c0.374-1.104,0.463-1.505,0.536-1.914c0.076-0.414,0.141-0.833,0.123-1.308
		c-0.019-0.474-0.128-0.999-0.381-1.6c-0.257-0.6-0.659-1.273-1.516-1.971c-0.852-0.707-2.164-1.433-3.453-1.949
		C82.963,274.868,81.691,274.578,80.619,274.285L80.619,274.285z"/>
</g>
</svg>
