<svg viewBox="0 0 148 47" xmlns="http://www.w3.org/2000/svg" >
<defs>
<clipPath id="clip-path">
<rect id="Rectangle_16" data-name="Rectangle 16" width="148" height="47" transform="translate(-546 260)" fill="#fff"></rect>
</clipPath>
<clipPath id="clip-path-2">
<path id="Path_114" data-name="Path 114" d="M-313.574,460.813h11.1c6.549,0,10.767,3.342,10.767,9.034v.074c0,6.059-4.7,9.256-11.135,9.256h-3.553v7.346h-7.18v-25.71Zm10.582,12.781c2.556,0,4.107-1.32,4.107-3.342v-.074c0-2.2-1.551-3.379-4.144-3.379h-3.365v6.795Z" fill="#03a5fb" clip-rule="evenodd"></path>
</clipPath>
<clipPath id="clip-path-3">
<path id="Path_116" data-name="Path 116" d="M-291.706,466.475h7v4.041c1.143-2.745,2.984-4.523,6.3-4.375v7.411H-279c-3.646,0-5.711,2.112-5.711,6.745v6.226h-7V466.475" fill="#03a5fb" clip-rule="evenodd"></path>
</clipPath>
<clipPath id="clip-path-4">
<path id="Path_118" data-name="Path 118" d="M-278.407,476.7v-.074c0-5.708,4.67-10.49,11.119-10.49,6.413,0,11.044,4.707,11.044,10.415v.075c0,5.708-4.67,10.492-11.117,10.492-6.412,0-11.046-4.708-11.046-10.418Zm15.307,0v-.074a4.347,4.347,0,0,0-4.261-4.523,4.2,4.2,0,0,0-4.19,4.448v.075a4.347,4.347,0,0,0,4.263,4.523A4.2,4.2,0,0,0-263.1,476.7Z" fill="#03a5fb" clip-rule="evenodd"></path>
</clipPath>
<clipPath id="clip-path-5">
<path id="Path_120" data-name="Path 120" d="M-254.791,472.174h-2.34v-5.5h2.34v-.443c0-2.286.523-3.982,1.707-5.164,1.227-1.216,2.861-1.733,5.237-1.733a15.533,15.533,0,0,1,4.607.553v4.942a8.431,8.431,0,0,0-2.638-.406c-1.3,0-2.006.592-2.006,1.882v.481h4.6v5.387h-4.492v14.349h-7.02V472.174" fill="#03a5fb" clip-rule="evenodd"></path>
</clipPath>
<clipPath id="clip-path-6">
<path id="Path_122" data-name="Path 122" d="M-244.127,483.884l2.638-4.217a13.2,13.2,0,0,0,6.916,2.275c1.226,0,1.783-.368,1.783-1.065V480.8c0-.77-1.115-1.1-3.233-1.688-3.979-1.027-7.139-2.347-7.139-6.346V472.7c0-4.216,3.422-6.563,8.066-6.563a15.88,15.88,0,0,1,8.289,2.311l-2.414,4.4a13.746,13.746,0,0,0-5.947-1.835c-1.08,0-1.638.4-1.638.955v.071c0,.77,1.152,1.138,3.273,1.763,3.976,1.1,7.138,2.458,7.138,6.308v.073c0,4.363-3.309,6.639-8.217,6.639a16.383,16.383,0,0,1-9.515-2.935" fill="#03a5fb" clip-rule="evenodd"></path>
</clipPath>
<clipPath id="clip-path-7">
<path id="Path_124" data-name="Path 124" d="M-371.2,460.813h11.1c6.55,0,10.769,3.342,10.769,9.034v.074c0,6.059-4.7,9.256-11.138,9.256h-3.552v7.346H-371.2v-25.71Zm10.582,12.781c2.554,0,4.108-1.32,4.108-3.342v-.074c0-2.2-1.554-3.379-4.145-3.379h-3.366v6.795Z" fill="#0e055b" clip-rule="evenodd"></path>
</clipPath>
<clipPath id="clip-path-8">
<path id="Path_126" data-name="Path 126" d="M-349.331,466.475h7v4.041c1.142-2.745,2.984-4.523,6.3-4.375v7.411h-.588c-3.646,0-5.71,2.112-5.71,6.745v6.226h-7V466.475" fill="#0e055b" clip-rule="evenodd"></path>
</clipPath>
<clipPath id="clip-path-9">
<path id="Path_128" data-name="Path 128" d="M-336.034,476.7v-.074c0-5.708,4.67-10.49,11.119-10.49,6.413,0,11.046,4.707,11.046,10.415v.075c0,5.708-4.67,10.492-11.119,10.492-6.412,0-11.046-4.708-11.046-10.418Zm15.309,0v-.074a4.348,4.348,0,0,0-4.263-4.523,4.2,4.2,0,0,0-4.189,4.448v.075a4.347,4.347,0,0,0,4.262,4.523,4.2,4.2,0,0,0,4.19-4.449Z" fill="#0e055b" clip-rule="evenodd"></path>
</clipPath>
</defs>
<g id="Project" transform="translate(546 -260)" clip-path="url(#clip-path)">
<g id="Group_843" data-name="Group 843" transform="translate(-847 -210)">
<text id="Project-2" data-name="Project" transform="translate(398 513.108)" fill="#0e055b" font-size="15.662" font-family="Roboto-Bold, Roboto" font-weight="700"><tspan x="0" y="0">Project</tspan></text>
<g id="Group_121" data-name="Group 121" transform="translate(674.2 10.665)">
<g id="Group_120" data-name="Group 120" clip-path="url(#clip-path-2)">
<path id="Path_113" data-name="Path 113" d="M-315.052,459.335h24.824V488h-24.824V459.335Z" fill="#03a5fb"></path>
</g>
</g>
<g id="Group_123" data-name="Group 123" transform="translate(674.2 10.665)">
<g id="Group_122" data-name="Group 122" clip-path="url(#clip-path-3)">
<path id="Path_115" data-name="Path 115" d="M-293.184,464.654h16.257V488h-16.257V464.654Z" fill="#03a5fb"></path>
</g>
</g>
<g id="Group_125" data-name="Group 125" transform="translate(674.2 10.665)">
<g id="Group_124" data-name="Group 124" clip-path="url(#clip-path-4)">
<path id="Path_117" data-name="Path 117" d="M-279.886,464.654h25.121v23.938h-25.121V464.654Z" fill="#03a5fb"></path>
</g>
</g>
<g id="Group_127" data-name="Group 127" transform="translate(674.2 10.665)">
<g id="Group_126" data-name="Group 126" clip-path="url(#clip-path-5)">
<path id="Path_119" data-name="Path 119" d="M-258.609,457.858h16.847V488h-16.847V457.858Z" fill="#03a5fb"></path>
</g>
</g>
<g id="Group_129" data-name="Group 129" transform="translate(674.127 10.665)">
<g id="Group_128" data-name="Group 128" clip-path="url(#clip-path-6)">
<path id="Path_121" data-name="Path 121" d="M-245.6,464.654h20.683V488.3H-245.6V464.654Z" fill="#03a5fb"></path>
</g>
</g>
<g id="Group_131" data-name="Group 131" transform="translate(674.2 10.665)">
<g id="Group_130" data-name="Group 130" clip-path="url(#clip-path-7)">
<path id="Path_123" data-name="Path 123" d="M-372.677,459.335h24.823V488h-24.823V459.335Z" fill="#0e055b"></path>
</g>
</g>
<g id="Group_133" data-name="Group 133" transform="translate(674.2 10.665)">
<g id="Group_132" data-name="Group 132" clip-path="url(#clip-path-8)">
<path id="Path_125" data-name="Path 125" d="M-350.808,464.654h16.253V488h-16.253V464.654Z" fill="#0e055b"></path>
</g>
</g>
<g id="Group_135" data-name="Group 135" transform="translate(674.2 10.665)">
<g id="Group_134" data-name="Group 134" clip-path="url(#clip-path-9)">
<path id="Path_127" data-name="Path 127" d="M-337.512,464.654h25.119v23.938h-25.119V464.654Z" fill="#0e055b"></path>
</g>
</g>
</g>
</g>
</svg>