<?xml version="1.0" ?>
<!-- Created with Inkscape (http://www.inkscape.org/) -->
<svg xmlns="http://www.w3.org/2000/svg" xmlns:svg="http://www.w3.org/2000/svg" xmlns:rdf="http://www.w3.org/1999/02/22-rdf-syntax-ns#" xmlns:cc="http://creativecommons.org/ns#" xmlns:dc="http://purl.org/dc/elements/1.1/" viewBox="0 0 43.922812 37.306969" version="1.1" id="svg8">
	<defs id="defs2"/>
	<metadata id="metadata5">
		<rdf:RDF>
			<cc:Work rdf:about="">
				<dc:format>image/svg+xml</dc:format>
				<dc:type rdf:resource="http://purl.org/dc/dcmitype/StillImage"/>
			</cc:Work>
		</rdf:RDF>
	</metadata>
	<g id="layer1" transform="translate(-35.681081,-147.27248)">
		<g id="g1533">
			<text id="text817-4" y="175.57445" x="69.627434" style="font-style:normal;font-weight:normal;font-size:7.05556px;line-height:125%;font-family:'Times New Roman';-inkscape-font-specification:'Times New Roman';text-align:end;letter-spacing:0px;word-spacing:0px;text-anchor:end;fill:#124559;fill-opacity:1;stroke:#124559;stroke-width:1.5;stroke-linecap:butt;stroke-linejoin:miter;stroke-miterlimit:4;stroke-dasharray:none;stroke-opacity:1" xml:space="preserve">
				<tspan style="font-style:normal;font-variant:normal;font-weight:bold;font-stretch:normal;font-size:35.2778px;font-family:Comfortaa;-inkscape-font-specification:'Comfortaa Bold';fill:#124559;fill-opacity:1;stroke:#124559;stroke-width:1.5;stroke-miterlimit:4;stroke-dasharray:none;stroke-opacity:1" y="175.57445" x="69.627434" id="tspan815-2">ql</tspan>
			</text>
			<path style="fill:#598392;fill-opacity:1;stroke-width:0.264583;stroke-miterlimit:4;stroke-dasharray:none" d="m 75.958174,177.90162 c -2.013035,0 -3.645719,-0.54472 -3.645719,-1.21524 0,-0.3667 0,-0.76783 0,-1.21524 0,-0.10562 0.05281,-0.2059 0.128758,-0.30381 0.406469,0.52336 1.819898,0.91143 3.516961,0.91143 1.697062,0 3.11049,-0.38807 3.516959,-0.91143 0.07595,0.0979 0.12876,0.19819 0.12876,0.30381 0,0.35187 0,0.72511 0,1.21524 0,0.67052 -1.632978,1.21524 -3.645719,1.21524 z m 0,-2.43048 c -2.013035,0 -3.645719,-0.54472 -3.645719,-1.21524 0,-0.367 0,-0.76754 0,-1.21524 0,-0.0644 0.02432,-0.12698 0.05696,-0.18899 v 0 c 0.0184,-0.0388 0.04272,-0.0771 0.07179,-0.11482 0.406469,0.52307 1.819898,0.91143 3.516961,0.91143 1.697062,0 3.11049,-0.38836 3.516959,-0.91143 0.02906,0.0377 0.0534,0.076 0.07179,0.11482 v 0 c 0.03264,0.062 0.05697,0.12461 0.05697,0.18899 0,0.35187 0,0.72482 0,1.21524 0,0.67052 -1.632978,1.21524 -3.645719,1.21524 z m 0,-2.43048 c -2.013035,0 -3.645719,-0.54443 -3.645719,-1.21524 0,-0.19196 0,-0.39489 0,-0.60762 0,-0.19314 0,-0.39371 0,-0.60762 0,-0.67081 1.632684,-1.21524 3.645719,-1.21524 2.012741,0 3.645719,0.54443 3.645719,1.21524 0,0.18959 0,0.39074 0,0.60762 0,0.18603 0,0.38214 0,0.60762 0,0.67081 -1.632978,1.21524 -3.645719,1.21524 z m 0,-3.0381 c -1.342223,0 -2.43048,0.27148 -2.43048,0.60762 0,0.33615 1.088257,0.60762 2.43048,0.60762 1.342223,0 2.43048,-0.27147 2.43048,-0.60762 0,-0.33614 -1.088257,-0.60762 -2.43048,-0.60762 z" id="path867-9"/>
		</g>
	</g>
</svg>
