<?xml version="1.0" encoding="utf-8"?>
<!-- Generator: Adobe Illustrator 16.0.0, SVG Export Plug-In . SVG Version: 6.00 Build 0)  -->
<!DOCTYPE svg PUBLIC "-//W3C//DTD SVG 1.1//EN" "http://www.w3.org/Graphics/SVG/1.1/DTD/svg11.dtd">
<svg version="1.1" xmlns="http://www.w3.org/2000/svg" xmlns:xlink="http://www.w3.org/1999/xlink" x="0px" y="0px"
	 width="217.945px" height="77px" viewBox="0 0 217.945 77" enable-background="new 0 0 217.945 77" xml:space="preserve">
<g id="v1" display="none">
	<g display="inline">
		<g>
			<circle cx="256.988" cy="9" r="3.999"/>
			<g id="XMLID_4_">
				<g>
					<path d="M268.984,4.999c2.211,0,4.003,1.792,4.003,4c0,2.211-1.792,4-4.003,4c-2.205,0-3.997-1.788-3.997-4
						C264.987,6.79,266.779,4.999,268.984,4.999z"/>
				</g>
				<g>
				</g>
			</g>
			<circle cx="262.986" cy="21" r="4"/>
			<circle cx="274.985" cy="21" r="4"/>
			<circle cx="280.984" cy="9" r="4"/>
		</g>
		<path d="M226.309,37.269c-0.046-0.104-0.077-0.244-0.077-0.368c0-0.519,0.441-0.915,0.961-0.915c0.457,0,0.811,0.291,0.931,0.688
			l2.459,7.345l2.415-7.315c0.15-0.443,0.472-0.748,0.943-0.748h0.137c0.475,0,0.811,0.305,0.947,0.748l2.411,7.315l2.46-7.363
			c0.139-0.379,0.459-0.67,0.918-0.67c0.503,0,0.931,0.396,0.931,0.9c0,0.126-0.046,0.278-0.092,0.382l-3.159,8.855
			c-0.173,0.474-0.522,0.78-0.979,0.78h-0.185c-0.458,0-0.793-0.292-0.962-0.78l-2.385-6.977l-2.377,6.977
			c-0.167,0.488-0.521,0.78-0.979,0.78h-0.185c-0.455,0-0.791-0.292-0.976-0.78L226.309,37.269z"/>
		<path d="M241.999,44.612v-0.027c0-1.67,1.303-2.492,3.194-2.492c0.865,0,1.479,0.133,2.079,0.319v-0.187
			c0-1.1-0.675-1.684-1.917-1.684c-0.678,0-1.232,0.116-1.717,0.306c-0.103,0.025-0.19,0.044-0.279,0.044
			c-0.409,0-0.747-0.324-0.747-0.73c0-0.325,0.223-0.601,0.485-0.706c0.732-0.28,1.479-0.454,2.489-0.454
			c1.16,0,2.021,0.308,2.565,0.863c0.571,0.559,0.835,1.376,0.835,2.387v3.813c0,0.48-0.382,0.85-0.863,0.85
			c-0.516,0-0.864-0.354-0.864-0.747v-0.297c-0.53,0.633-1.335,1.131-2.521,1.131C243.288,47,241.999,46.166,241.999,44.612z
			 M247.302,44.057v-0.53c-0.454-0.173-1.053-0.308-1.757-0.308c-1.144,0-1.817,0.487-1.817,1.294v0.027
			c0,0.745,0.658,1.173,1.51,1.173C246.41,45.713,247.302,45.038,247.302,44.057z"/>
		<path d="M282.008,44.612v-0.027c0-1.67,1.305-2.492,3.195-2.492c0.863,0,1.479,0.133,2.08,0.319v-0.187
			c0-1.1-0.676-1.684-1.92-1.684c-0.676,0-1.23,0.116-1.716,0.306c-0.101,0.025-0.189,0.044-0.279,0.044
			c-0.407,0-0.746-0.324-0.746-0.73c0-0.325,0.222-0.601,0.485-0.706c0.732-0.28,1.478-0.454,2.49-0.454
			c1.156,0,2.021,0.308,2.564,0.863c0.57,0.559,0.833,1.376,0.833,2.387v3.813c0,0.48-0.38,0.85-0.864,0.85
			c-0.513,0-0.863-0.354-0.863-0.747v-0.297c-0.53,0.633-1.334,1.131-2.522,1.131C283.297,47,282.008,46.166,282.008,44.612z
			 M287.311,44.057v-0.53c-0.454-0.173-1.052-0.308-1.756-0.308c-1.144,0-1.818,0.487-1.818,1.294v0.027
			c0,0.745,0.657,1.173,1.51,1.173C286.42,45.713,287.311,45.038,287.311,44.057z"/>
		<path d="M251.198,36.842c0-0.483,0.383-0.885,0.887-0.885c0.503,0,0.901,0.402,0.901,0.885v9.174c0,0.502-0.398,0.888-0.901,0.888
			c-0.491,0-0.887-0.386-0.887-0.888V36.842z"/>
		<path d="M255.197,36.842c0-0.483,0.384-0.885,0.888-0.885c0.502,0,0.901,0.402,0.901,0.885v9.174c0,0.502-0.399,0.888-0.901,0.888
			c-0.491,0-0.888-0.386-0.888-0.888V36.842z"/>
		<path d="M258.986,43.036v-0.028c0-2.193,1.705-4.007,4.007-4.007c2.301,0,3.992,1.786,3.992,3.979v0.027
			c0,2.18-1.704,3.992-4.02,3.992C260.678,47,258.986,45.213,258.986,43.036z M265.268,43.036v-0.028
			c0-1.35-0.954-2.469-2.302-2.469c-1.38,0-2.261,1.103-2.261,2.441v0.027c0,1.334,0.951,2.453,2.288,2.453
			C264.387,45.461,265.268,44.358,265.268,43.036z"/>
		<path d="M268.987,39.965c0-0.495,0.375-0.887,0.871-0.887c0.495,0,0.884,0.392,0.884,0.887v0.373
			c0.496-0.707,1.208-1.333,2.396-1.333c1.732,0,2.731,1.16,2.731,2.931v4.1c0,0.49-0.378,0.869-0.872,0.869
			c-0.491,0-0.889-0.379-0.889-0.869v-3.56c0-1.193-0.594-1.873-1.636-1.873c-1.018,0-1.731,0.712-1.731,1.901v3.531
			c0,0.49-0.389,0.869-0.884,0.869c-0.478,0-0.871-0.379-0.871-0.869V39.965z"/>
		<path d="M278.119,39.972c0-0.49,0.372-0.883,0.867-0.883c0.49,0,0.882,0.393,0.882,0.883v6.062c0,0.49-0.392,0.864-0.882,0.864
			c-0.479,0-0.867-0.374-0.867-0.864V39.972z"/>
		<path d="M296.984,36.513c0-0.326,0.25-0.577,0.564-0.577c0.324,0,0.578,0.251,0.578,0.577v4.197
			c0.621-0.921,1.523-1.705,2.934-1.705c1.838,0,3.66,1.452,3.66,3.971v0.028c0,2.506-1.809,3.989-3.66,3.989
			c-1.426,0-2.344-0.773-2.934-1.631v0.963c0,0.311-0.24,0.579-0.564,0.579c-0.328,0-0.578-0.269-0.578-0.579V36.513z
			 M303.549,43.02v-0.03c0-1.808-1.244-2.962-2.697-2.962c-1.422,0-2.771,1.201-2.771,2.948v0.028c0,1.779,1.35,2.966,2.771,2.966
			C302.334,45.97,303.549,44.874,303.549,43.02z"/>
		<path d="M310.334,47c-2.104,0-3.822-1.614-3.822-3.985v-0.03c0-2.204,1.555-3.983,3.674-3.983c2.268,0,3.557,1.852,3.557,3.881
			c0,0.311-0.252,0.532-0.535,0.532h-5.539c0.164,1.661,1.332,2.596,2.695,2.596c0.947,0,1.645-0.374,2.209-0.891
			c0.086-0.074,0.191-0.133,0.324-0.133c0.281,0,0.506,0.22,0.506,0.488c0,0.133-0.061,0.267-0.18,0.369
			C312.496,46.542,311.637,47,310.334,47z M312.602,42.571c-0.119-1.395-0.92-2.609-2.443-2.609c-1.336,0-2.342,1.112-2.49,2.609
			H312.602z"/>
		<circle cx="278.981" cy="36.923" r="0.987"/>
		<circle cx="292.985" cy="46.012" r="0.987"/>
		<g opacity="0.6">
			<path d="M254.565,62.495v-4.064c0-0.247,0.191-0.437,0.438-0.437h2.872c0.211,0,0.388,0.178,0.388,0.388
				c0,0.218-0.177,0.388-0.388,0.388h-2.441v1.282h2.124c0.212,0,0.388,0.178,0.388,0.397c0,0.212-0.176,0.381-0.388,0.381h-2.124
				v1.326h2.477c0.212,0,0.388,0.178,0.388,0.391c0,0.219-0.176,0.388-0.388,0.388h-2.907
				C254.757,62.935,254.565,62.743,254.565,62.495z"/>
			<path d="M259.165,62.24l1.469-1.819l-1.385-1.714c-0.069-0.092-0.132-0.206-0.132-0.325c0-0.24,0.182-0.423,0.429-0.423
				c0.184,0,0.289,0.07,0.396,0.213l1.248,1.645l1.234-1.619c0.113-0.154,0.233-0.238,0.424-0.238s0.396,0.154,0.396,0.395
				c0,0.127-0.05,0.225-0.135,0.332l-1.384,1.722l1.454,1.814c0.071,0.091,0.136,0.199,0.136,0.325c0,0.238-0.185,0.423-0.433,0.423
				c-0.184,0-0.288-0.073-0.395-0.213l-1.327-1.729l-1.307,1.698c-0.119,0.158-0.231,0.243-0.423,0.243
				c-0.196,0-0.395-0.157-0.395-0.402C259.038,62.446,259.087,62.348,259.165,62.24z"/>
			<path d="M264.33,58.431c0-0.247,0.189-0.437,0.438-0.437h1.51c1.157,0,1.877,0.656,1.877,1.651v0.014
				c0,1.107-0.889,1.687-1.976,1.687h-0.981v1.191c0,0.24-0.19,0.433-0.43,0.433c-0.248,0-0.438-0.192-0.438-0.433V58.431z
				 M266.208,60.563c0.654,0,1.064-0.369,1.064-0.883v-0.014c0-0.58-0.417-0.884-1.064-0.884h-1.011v1.78H266.208z"/>
			<path d="M268.823,60.478v-0.015c0-1.39,1.073-2.553,2.59-2.553c1.518,0,2.576,1.149,2.576,2.539v0.014
				c0,1.39-1.072,2.556-2.589,2.556C269.882,63.019,268.823,61.869,268.823,60.478z M273.079,60.478v-0.015
				c0-0.96-0.699-1.756-1.679-1.756c-0.981,0-1.666,0.782-1.666,1.742v0.014c0,0.958,0.698,1.75,1.679,1.75
				C272.395,62.213,273.079,61.438,273.079,60.478z"/>
			<path d="M275.039,58.431c0-0.247,0.19-0.437,0.438-0.437h1.765c0.622,0,1.107,0.183,1.425,0.495
				c0.261,0.267,0.409,0.633,0.409,1.063v0.015c0,0.792-0.459,1.271-1.121,1.476l0.946,1.191c0.084,0.105,0.14,0.198,0.14,0.334
				c0,0.241-0.204,0.402-0.416,0.402c-0.198,0-0.324-0.094-0.423-0.227l-1.2-1.532h-1.093v1.326c0,0.24-0.19,0.433-0.432,0.433
				c-0.247,0-0.438-0.192-0.438-0.433V58.431z M277.178,60.442c0.621,0,1.016-0.325,1.016-0.825v-0.014
				c0-0.53-0.381-0.82-1.023-0.82h-1.262v1.659H277.178z"/>
			<path d="M281.331,58.798h-1.199c-0.226,0-0.401-0.183-0.401-0.402c0-0.219,0.176-0.401,0.401-0.401h3.282
				c0.218,0,0.395,0.183,0.395,0.401c0,0.22-0.177,0.402-0.395,0.402h-1.208v3.739c0,0.24-0.196,0.433-0.437,0.433
				s-0.438-0.192-0.438-0.433V58.798z"/>
			<path d="M245.835,67.384c0-0.238,0.189-0.43,0.438-0.43c0.238,0,0.43,0.191,0.43,0.43v4.15c0,0.241-0.191,0.43-0.43,0.43
				c-0.249,0-0.438-0.188-0.438-0.43V67.384z"/>
			<path d="M248.021,67.397c0-0.238,0.19-0.437,0.437-0.437h0.094c0.211,0,0.33,0.105,0.449,0.252l2.471,3.198v-3.034
				c0-0.231,0.191-0.423,0.424-0.423c0.239,0,0.431,0.191,0.431,0.423v4.148c0,0.24-0.184,0.43-0.424,0.43h-0.035
				c-0.204,0-0.33-0.105-0.45-0.26l-2.542-3.288v3.134c0,0.234-0.191,0.423-0.424,0.423c-0.239,0-0.43-0.188-0.43-0.423V67.397z"/>
			<path d="M255.027,71.646l-1.729-4.064c-0.026-0.065-0.049-0.126-0.049-0.205c0-0.231,0.19-0.423,0.438-0.423
				c0.227,0,0.375,0.126,0.444,0.311l1.426,3.563l1.445-3.593c0.059-0.147,0.214-0.28,0.417-0.28c0.241,0,0.431,0.185,0.431,0.416
				c0,0.065-0.021,0.135-0.04,0.182l-1.736,4.095c-0.094,0.22-0.256,0.353-0.503,0.353h-0.05
				C255.281,71.999,255.119,71.866,255.027,71.646z"/>
			<path d="M258.765,71.49v-4.064c0-0.245,0.192-0.437,0.438-0.437h2.874c0.211,0,0.388,0.178,0.388,0.388
				c0,0.22-0.177,0.388-0.388,0.388h-2.443v1.284h2.124c0.212,0,0.388,0.176,0.388,0.396c0,0.212-0.176,0.38-0.388,0.38h-2.124
				v1.327h2.477c0.212,0,0.391,0.178,0.391,0.39c0,0.22-0.179,0.389-0.391,0.389h-2.907C258.957,71.93,258.765,71.737,258.765,71.49
				z"/>
			<path d="M263.367,71.376c-0.101-0.065-0.17-0.188-0.17-0.33c0-0.227,0.183-0.401,0.408-0.401c0.12,0,0.2,0.035,0.255,0.077
				c0.408,0.324,0.847,0.507,1.383,0.507c0.537,0,0.876-0.252,0.876-0.619v-0.014c0-0.353-0.197-0.545-1.115-0.757
				c-1.052-0.252-1.645-0.563-1.645-1.474v-0.015c0-0.846,0.705-1.434,1.687-1.434c0.62,0,1.122,0.163,1.567,0.46
				c0.099,0.059,0.189,0.175,0.189,0.346c0,0.227-0.184,0.404-0.408,0.404c-0.085,0-0.155-0.023-0.227-0.063
				c-0.382-0.25-0.747-0.376-1.137-0.376c-0.507,0-0.803,0.262-0.803,0.586v0.015c0,0.381,0.224,0.549,1.177,0.777
				c1.045,0.252,1.581,0.624,1.581,1.446v0.012c0,0.925-0.727,1.476-1.764,1.476C264.553,71.999,263.916,71.787,263.367,71.376z"/>
			<path d="M269.117,67.793h-1.201c-0.226,0-0.402-0.183-0.402-0.402s0.177-0.401,0.402-0.401h3.282
				c0.217,0,0.396,0.182,0.396,0.401s-0.179,0.402-0.396,0.402h-1.207v3.741c0,0.241-0.198,0.43-0.438,0.43
				c-0.241,0-0.437-0.188-0.437-0.43V67.793z"/>
			<path d="M272.475,67.397c0-0.238,0.188-0.437,0.438-0.437h0.093c0.188,0,0.316,0.099,0.401,0.231l1.495,2.345l1.503-2.35
				c0.092-0.149,0.22-0.227,0.395-0.227h0.094c0.246,0,0.437,0.198,0.437,0.437v4.137c0,0.241-0.19,0.43-0.437,0.43
				c-0.235,0-0.433-0.198-0.433-0.43V68.57l-1.206,1.813c-0.091,0.141-0.204,0.227-0.367,0.227c-0.155,0-0.267-0.086-0.359-0.227
				l-1.2-1.799v2.957c0,0.241-0.19,0.423-0.429,0.423c-0.24,0-0.424-0.182-0.424-0.423V67.397z"/>
			<path d="M278.598,71.49v-4.064c0-0.245,0.19-0.437,0.438-0.437h2.872c0.211,0,0.388,0.178,0.388,0.388
				c0,0.22-0.177,0.388-0.388,0.388h-2.44v1.284h2.123c0.211,0,0.388,0.176,0.388,0.396c0,0.212-0.177,0.38-0.388,0.38h-2.123v1.327
				h2.476c0.213,0,0.388,0.178,0.388,0.39c0,0.22-0.175,0.389-0.388,0.389h-2.907C278.788,71.93,278.598,71.737,278.598,71.49z"/>
			<path d="M283.325,67.397c0-0.238,0.19-0.437,0.437-0.437h0.094c0.211,0,0.33,0.105,0.45,0.252l2.47,3.198v-3.034
				c0-0.231,0.191-0.423,0.424-0.423c0.239,0,0.43,0.191,0.43,0.423v4.148c0,0.24-0.184,0.43-0.423,0.43h-0.035
				c-0.204,0-0.333-0.105-0.452-0.26l-2.54-3.288v3.134c0,0.234-0.191,0.423-0.424,0.423c-0.239,0-0.43-0.188-0.43-0.423V67.397z"/>
			<path d="M290.112,67.793h-1.2c-0.226,0-0.401-0.183-0.401-0.402s0.176-0.401,0.401-0.401h3.281c0.219,0,0.395,0.182,0.395,0.401
				s-0.176,0.402-0.395,0.402h-1.207v3.741c0,0.241-0.196,0.43-0.436,0.43c-0.241,0-0.438-0.188-0.438-0.43V67.793z"/>
		</g>
	</g>
	<g display="inline">
		<g>
			<circle fill="#06070A" cx="39.103" cy="19.833" r="3.708"/>
			<circle fill="#06070A" cx="50.227" cy="19.833" r="3.708"/>
			<circle fill="#06070A" cx="44.663" cy="30.959" r="3.708"/>
			<circle fill="#06070A" cx="55.789" cy="30.959" r="3.709"/>
			<circle fill="#06070A" cx="61.352" cy="19.833" r="3.709"/>
			<path fill="#06070A" d="M66.914,5c-2.049,0-3.709,1.66-3.709,3.707c0,2.049,1.66,3.71,3.709,3.71c2.047,0,3.709-1.661,3.709-3.71
				C70.623,6.66,68.961,5,66.914,5z M66.914,10.934c-1.229,0-2.225-0.996-2.225-2.226c0-1.229,0.996-2.225,2.225-2.225
				c1.23,0,2.225,0.996,2.225,2.225C69.139,9.938,68.145,10.934,66.914,10.934z"/>
			<path fill="#06070A" d="M72.476,16.125c-2.048,0-3.71,1.66-3.71,3.708s1.662,3.71,3.71,3.71s3.709-1.662,3.709-3.71
				S74.523,16.125,72.476,16.125z M72.476,22.059c-1.228,0-2.225-0.996-2.225-2.226c0-1.228,0.997-2.225,2.225-2.225
				c1.229,0,2.226,0.997,2.226,2.225C74.701,21.063,73.705,22.059,72.476,22.059z"/>
			<path fill="#06070A" d="M66.914,27.251c-2.049,0-3.71,1.66-3.71,3.708c0,2.047,1.661,3.709,3.71,3.709
				c2.047,0,3.709-1.662,3.709-3.709C70.623,28.911,68.961,27.251,66.914,27.251z M66.914,33.184c-1.229,0-2.225-0.996-2.225-2.225
				s0.996-2.225,2.225-2.225c1.229,0,2.225,0.996,2.225,2.225S68.144,33.184,66.914,33.184z"/>
		</g>
		<g>
			<path fill="#010101" d="M5.051,43.071C5.021,43,5,42.906,5,42.824c0-0.35,0.299-0.617,0.648-0.617
				c0.309,0,0.545,0.195,0.627,0.463l1.655,4.947l1.625-4.926c0.103-0.299,0.319-0.504,0.638-0.504h0.092
				c0.319,0,0.545,0.205,0.639,0.504l1.625,4.926l1.654-4.957c0.094-0.258,0.309-0.453,0.617-0.453c0.34,0,0.628,0.268,0.628,0.607
				c0,0.082-0.03,0.186-0.062,0.257l-2.129,5.964c-0.113,0.319-0.35,0.525-0.658,0.525h-0.123c-0.309,0-0.535-0.195-0.648-0.525
				l-1.604-4.699l-1.605,4.699c-0.112,0.33-0.35,0.525-0.658,0.525H7.838c-0.309,0-0.534-0.195-0.658-0.525L5.051,43.071z"/>
			<path fill="#010101" d="M15.744,47.895v-0.021c0-1.172,0.916-1.748,2.242-1.748c0.606,0,1.039,0.094,1.46,0.227v-0.133
				c0-0.771-0.474-1.184-1.347-1.184c-0.474,0-0.864,0.082-1.203,0.217c-0.072,0.02-0.135,0.03-0.195,0.03
				c-0.289,0-0.525-0.226-0.525-0.515c0-0.226,0.154-0.421,0.34-0.493c0.514-0.195,1.039-0.319,1.748-0.319
				c0.813,0,1.419,0.217,1.8,0.607c0.401,0.391,0.586,0.967,0.586,1.676v2.674c0,0.34-0.267,0.597-0.606,0.597
				c-0.36,0-0.607-0.247-0.607-0.524v-0.205c-0.369,0.441-0.936,0.791-1.768,0.791C16.648,49.57,15.744,48.984,15.744,47.895z
				 M19.467,47.504v-0.371c-0.318-0.123-0.74-0.215-1.234-0.215c-0.802,0-1.275,0.339-1.275,0.904v0.021
				c0,0.524,0.463,0.823,1.061,0.823C18.84,48.666,19.467,48.192,19.467,47.504z"/>
			<path fill="#010101" d="M22.213,42.516c0-0.339,0.268-0.617,0.617-0.617s0.627,0.278,0.627,0.617v6.377
				c0,0.35-0.277,0.616-0.627,0.616c-0.34,0-0.617-0.267-0.617-0.616V42.516z"/>
			<path fill="#010101" d="M25.154,42.516c0-0.339,0.267-0.617,0.616-0.617c0.351,0,0.628,0.278,0.628,0.617v6.377
				c0,0.35-0.277,0.616-0.628,0.616c-0.339,0-0.616-0.267-0.616-0.616V42.516z"/>
			<path fill="#010101" d="M27.725,46.773v-0.021c0-1.553,1.234-2.839,2.9-2.839s2.889,1.266,2.889,2.818v0.021
				c0,1.542-1.233,2.828-2.91,2.828C28.948,49.581,27.725,48.316,27.725,46.773z M32.27,46.773v-0.021
				c0-0.956-0.688-1.749-1.666-1.749c-0.997,0-1.635,0.782-1.635,1.729v0.021c0,0.946,0.689,1.737,1.656,1.737
				C31.633,48.49,32.27,47.709,32.27,46.773z"/>
			<path fill="#010101" d="M34.779,44.594c0-0.35,0.268-0.628,0.617-0.628s0.627,0.278,0.627,0.628v0.268
				c0.35-0.504,0.854-0.947,1.697-0.947c1.223,0,1.934,0.823,1.934,2.078v2.9c0,0.35-0.268,0.616-0.617,0.616
				s-0.628-0.267-0.628-0.616v-2.52c0-0.844-0.421-1.327-1.162-1.327c-0.72,0-1.224,0.504-1.224,1.347v2.5
				c0,0.35-0.277,0.616-0.627,0.616c-0.34,0-0.617-0.267-0.617-0.616V44.594z"/>
			<path fill="#010101" d="M41.135,42.567c0-0.37,0.309-0.606,0.709-0.606c0.401,0,0.71,0.236,0.71,0.606v0.062
				c0,0.371-0.309,0.617-0.71,0.617c-0.4,0-0.709-0.246-0.709-0.617V42.567z M41.227,44.594c0-0.35,0.268-0.628,0.617-0.628
				s0.627,0.278,0.627,0.628v4.299c0,0.35-0.277,0.616-0.627,0.616c-0.34,0-0.617-0.267-0.617-0.616V44.594z"/>
			<path fill="#010101" d="M46.584,49.581c-1.572,0-2.786-1.142-2.786-2.817v-0.021c0-1.553,1.101-2.828,2.653-2.828
				c1.728,0,2.581,1.42,2.581,2.674c0,0.35-0.268,0.597-0.587,0.597h-3.403c0.134,0.885,0.761,1.378,1.563,1.378
				c0.524,0,0.936-0.186,1.285-0.473c0.093-0.072,0.175-0.113,0.318-0.113c0.278,0,0.494,0.216,0.494,0.504
				c0,0.154-0.072,0.288-0.164,0.381C48.045,49.303,47.428,49.581,46.584,49.581z M47.818,46.361
				c-0.082-0.801-0.555-1.429-1.377-1.429c-0.762,0-1.297,0.587-1.41,1.429H47.818z"/>
			<path fill="#010101" d="M53.135,46.311c0-0.34,0.278-0.617,0.607-0.617h1.934c0.328,0,0.605,0.277,0.605,0.617
				c0,0.329-0.277,0.607-0.605,0.607h-1.934C53.413,46.918,53.135,46.64,53.135,46.311z"/>
			<path fill="#010101" d="M60.816,42.896c0-0.359,0.278-0.638,0.639-0.638h2.591c0.823,0,1.471,0.226,1.882,0.638
				c0.318,0.318,0.483,0.709,0.483,1.193v0.02c0,0.864-0.493,1.327-1.028,1.605c0.844,0.287,1.43,0.771,1.43,1.748v0.02
				c0,1.286-1.06,1.975-2.664,1.975h-2.693c-0.36,0-0.639-0.277-0.639-0.637V42.896z M63.789,45.293
				c0.813,0,1.357-0.319,1.357-0.977v-0.021c0-0.565-0.453-0.915-1.266-0.915h-1.82v1.913H63.789z M64.159,48.336
				c0.864,0,1.388-0.339,1.388-0.986v-0.021c0-0.605-0.482-0.967-1.48-0.967h-2.006v1.975H64.159z"/>
			<path fill="#010101" d="M68.098,44.594c0-0.35,0.268-0.628,0.617-0.628s0.627,0.278,0.627,0.628v0.555
				c0.288-0.679,0.822-1.193,1.367-1.193c0.392,0,0.617,0.258,0.617,0.617c0,0.33-0.215,0.545-0.493,0.598
				c-0.884,0.153-1.491,0.832-1.491,2.117v1.605c0,0.338-0.277,0.616-0.627,0.616c-0.34,0-0.617-0.267-0.617-0.616V44.594z"/>
			<path fill="#010101" d="M77.168,48.893c0,0.338-0.277,0.616-0.627,0.616c-0.34,0-0.628-0.267-0.628-0.616v-0.278
				c-0.35,0.515-0.854,0.956-1.696,0.956c-1.225,0-1.934-0.822-1.934-2.088v-2.889c0-0.35,0.277-0.628,0.617-0.628
				c0.35,0,0.627,0.278,0.627,0.628v2.52c0,0.843,0.422,1.316,1.162,1.316c0.72,0,1.224-0.494,1.224-1.338v-2.498
				c0-0.35,0.278-0.628,0.628-0.628c0.339,0,0.627,0.278,0.627,0.628V48.893z"/>
			<path fill="#010101" d="M78.607,48.553l1.543-1.852l-1.43-1.697c-0.134-0.164-0.205-0.308-0.205-0.473
				c0-0.35,0.267-0.576,0.575-0.576c0.247,0,0.421,0.113,0.575,0.309l1.225,1.605l1.244-1.595c0.145-0.185,0.318-0.319,0.535-0.319
				c0.328,0,0.586,0.237,0.586,0.545c0,0.176-0.072,0.299-0.176,0.422l-1.47,1.759l1.522,1.8c0.133,0.164,0.205,0.309,0.205,0.473
				c0,0.35-0.268,0.576-0.576,0.576c-0.246,0-0.422-0.113-0.576-0.318l-1.316-1.697l-1.315,1.697
				c-0.144,0.174-0.319,0.318-0.546,0.318c-0.318,0-0.575-0.236-0.575-0.545C78.433,48.81,78.494,48.676,78.607,48.553z"/>
			<path fill="#010101" d="M86.886,49.581c-1.573,0-2.786-1.142-2.786-2.817v-0.021c0-1.553,1.1-2.828,2.652-2.828
				c1.729,0,2.582,1.42,2.582,2.674c0,0.35-0.268,0.597-0.587,0.597h-3.403c0.133,0.885,0.761,1.378,1.563,1.378
				c0.525,0,0.936-0.186,1.285-0.473c0.094-0.072,0.176-0.113,0.319-0.113c0.278,0,0.493,0.216,0.493,0.504
				c0,0.154-0.072,0.288-0.164,0.381C88.346,49.303,87.729,49.581,86.886,49.581z M88.12,46.361
				c-0.083-0.801-0.556-1.429-1.378-1.429c-0.762,0-1.296,0.587-1.409,1.429H88.12z"/>
			<path fill="#010101" d="M90.681,42.516c0-0.339,0.267-0.617,0.616-0.617s0.628,0.278,0.628,0.617v6.377
				c0,0.35-0.278,0.616-0.628,0.616c-0.339,0-0.616-0.267-0.616-0.616V42.516z"/>
			<path fill="#010101" d="M93.621,42.516c0-0.339,0.268-0.617,0.617-0.617s0.627,0.278,0.627,0.617v6.377
				c0,0.35-0.277,0.616-0.627,0.616c-0.339,0-0.617-0.267-0.617-0.616V42.516z"/>
			<path fill="#010101" d="M98.979,49.581c-1.573,0-2.787-1.142-2.787-2.817v-0.021c0-1.553,1.101-2.828,2.653-2.828
				c1.728,0,2.581,1.42,2.581,2.674c0,0.35-0.267,0.597-0.586,0.597h-3.403c0.133,0.885,0.76,1.378,1.563,1.378
				c0.524,0,0.936-0.186,1.285-0.473c0.093-0.072,0.175-0.113,0.318-0.113c0.278,0,0.494,0.216,0.494,0.504
				c0,0.154-0.072,0.288-0.164,0.381C100.439,49.303,99.822,49.581,98.979,49.581z M100.213,46.361
				c-0.082-0.801-0.555-1.429-1.377-1.429c-0.762,0-1.297,0.587-1.41,1.429H100.213z"/>
			<path fill="#010101" d="M102.496,48.912c-0.133-0.072-0.236-0.227-0.236-0.432c0-0.277,0.216-0.504,0.504-0.504
				c0.104,0,0.195,0.031,0.268,0.072c0.524,0.35,1.069,0.524,1.563,0.524c0.535,0,0.844-0.227,0.844-0.587v-0.02
				c0-0.422-0.576-0.566-1.213-0.762c-0.803-0.227-1.697-0.555-1.697-1.594v-0.021c0-1.028,0.854-1.655,1.934-1.655
				c0.575,0,1.182,0.164,1.707,0.441c0.174,0.093,0.298,0.258,0.298,0.473c0,0.289-0.226,0.505-0.515,0.505
				c-0.103,0-0.164-0.021-0.246-0.062c-0.442-0.227-0.895-0.371-1.275-0.371c-0.483,0-0.762,0.227-0.762,0.535v0.021
				c0,0.401,0.587,0.565,1.225,0.771c0.791,0.247,1.686,0.606,1.686,1.583v0.021c0,1.141-0.884,1.707-2.016,1.707
				C103.875,49.561,103.123,49.344,102.496,48.912z"/>
		</g>
		<g>
			<path fill="#010101" d="M15.695,55.176c0-0.35,0.277-0.628,0.637-0.628c0.35,0,0.628,0.278,0.628,0.628v6.047
				c0,0.35-0.278,0.627-0.628,0.627c-0.359,0-0.637-0.277-0.637-0.627V55.176z"/>
			<path fill="#010101" d="M18.738,56.934c0-0.35,0.268-0.627,0.617-0.627s0.628,0.277,0.628,0.627v0.268
				c0.35-0.504,0.854-0.946,1.696-0.946c1.225,0,1.934,0.823,1.934,2.077v2.9c0,0.35-0.268,0.617-0.617,0.617
				s-0.627-0.268-0.627-0.617v-2.52c0-0.844-0.422-1.326-1.162-1.326c-0.72,0-1.224,0.504-1.224,1.347v2.499
				c0,0.35-0.278,0.617-0.628,0.617c-0.339,0-0.617-0.268-0.617-0.617V56.934z"/>
			<path fill="#010101" d="M25.372,60.297v-2.859h-0.206c-0.298,0-0.535-0.236-0.535-0.535c0-0.298,0.237-0.534,0.535-0.534h0.206
				v-0.925c0-0.34,0.277-0.617,0.627-0.617c0.339,0,0.617,0.277,0.617,0.617v0.925h0.978c0.297,0,0.545,0.236,0.545,0.534
				c0,0.299-0.248,0.535-0.545,0.535h-0.978v2.664c0,0.482,0.247,0.678,0.669,0.678c0.144,0,0.268-0.03,0.309-0.03
				c0.277,0,0.523,0.226,0.523,0.515c0,0.226-0.154,0.41-0.328,0.482c-0.268,0.093-0.525,0.145-0.854,0.145
				C26.02,61.891,25.372,61.489,25.372,60.297z"/>
			<path fill="#010101" d="M31.674,61.922c-1.572,0-2.787-1.143-2.787-2.818v-0.021c0-1.553,1.102-2.828,2.654-2.828
				c1.727,0,2.58,1.419,2.58,2.674c0,0.35-0.267,0.597-0.586,0.597h-3.403c0.134,0.885,0.761,1.378,1.563,1.378
				c0.523,0,0.936-0.185,1.285-0.474c0.092-0.071,0.175-0.113,0.318-0.113c0.277,0,0.494,0.217,0.494,0.504
				c0,0.154-0.072,0.289-0.164,0.381C33.135,61.644,32.518,61.922,31.674,61.922z M32.908,58.703
				c-0.082-0.803-0.555-1.43-1.378-1.43c-0.761,0-1.296,0.586-1.409,1.43H32.908z"/>
			<path fill="#010101" d="M35.396,56.934c0-0.35,0.268-0.627,0.617-0.627s0.627,0.277,0.627,0.627v0.556
				c0.289-0.679,0.823-1.192,1.368-1.192c0.392,0,0.617,0.256,0.617,0.616c0,0.329-0.216,0.546-0.493,0.597
				c-0.885,0.154-1.492,0.833-1.492,2.118v1.604c0,0.34-0.277,0.617-0.627,0.617c-0.339,0-0.617-0.268-0.617-0.617V56.934z"/>
			<path fill="#010101" d="M39.645,56.934c0-0.35,0.268-0.627,0.617-0.627s0.627,0.277,0.627,0.627v0.268
				c0.35-0.504,0.854-0.946,1.697-0.946c1.223,0,1.933,0.823,1.933,2.077v2.9c0,0.35-0.268,0.617-0.617,0.617
				s-0.628-0.268-0.628-0.617v-2.52c0-0.844-0.421-1.326-1.161-1.326c-0.72,0-1.224,0.504-1.224,1.347v2.499
				c0,0.35-0.277,0.617-0.627,0.617c-0.34,0-0.617-0.268-0.617-0.617V56.934z"/>
			<path fill="#010101" d="M45.66,60.234v-0.02c0-1.173,0.915-1.749,2.242-1.749c0.605,0,1.038,0.093,1.459,0.227v-0.134
				c0-0.771-0.473-1.183-1.346-1.183c-0.474,0-0.865,0.083-1.203,0.216c-0.072,0.021-0.135,0.031-0.196,0.031
				c-0.288,0-0.524-0.227-0.524-0.515c0-0.226,0.154-0.421,0.34-0.493c0.514-0.195,1.038-0.318,1.748-0.318
				c0.813,0,1.419,0.215,1.799,0.605c0.402,0.391,0.587,0.967,0.587,1.677v2.674c0,0.339-0.268,0.597-0.606,0.597
				c-0.36,0-0.607-0.247-0.607-0.525v-0.205c-0.37,0.442-0.936,0.792-1.769,0.792C46.564,61.911,45.66,61.324,45.66,60.234z
				 M49.383,59.844v-0.37c-0.318-0.123-0.74-0.216-1.234-0.216c-0.802,0-1.275,0.34-1.275,0.904v0.021
				c0,0.524,0.463,0.822,1.06,0.822C48.756,61.006,49.383,60.533,49.383,59.844z"/>
			<path fill="#010101" d="M52.261,60.297v-2.859h-0.206c-0.298,0-0.535-0.236-0.535-0.535c0-0.298,0.237-0.534,0.535-0.534h0.206
				v-0.925c0-0.34,0.278-0.617,0.628-0.617c0.339,0,0.616,0.277,0.616,0.617v0.925h0.978c0.298,0,0.545,0.236,0.545,0.534
				c0,0.299-0.247,0.535-0.545,0.535h-0.978v2.664c0,0.482,0.247,0.678,0.669,0.678c0.144,0,0.268-0.03,0.309-0.03
				c0.277,0,0.523,0.226,0.523,0.515c0,0.226-0.154,0.41-0.328,0.482c-0.268,0.093-0.525,0.145-0.854,0.145
				C52.908,61.891,52.261,61.489,52.261,60.297z"/>
			<path fill="#010101" d="M56.209,54.908c0-0.371,0.309-0.607,0.711-0.607c0.4,0,0.709,0.236,0.709,0.607v0.062
				c0,0.37-0.309,0.616-0.709,0.616c-0.402,0-0.711-0.246-0.711-0.616V54.908z M56.303,56.934c0-0.35,0.268-0.627,0.617-0.627
				s0.627,0.277,0.627,0.627v4.299c0,0.35-0.277,0.617-0.627,0.617c-0.34,0-0.617-0.268-0.617-0.617V56.934z"/>
			<path fill="#010101" d="M58.873,59.113v-0.02c0-1.553,1.234-2.839,2.9-2.839s2.889,1.265,2.889,2.817v0.021
				c0,1.542-1.233,2.828-2.91,2.828C60.097,61.922,58.873,60.656,58.873,59.113z M63.418,59.113v-0.02
				c0-0.957-0.688-1.748-1.666-1.748c-0.997,0-1.635,0.781-1.635,1.727v0.021c0,0.945,0.689,1.737,1.656,1.737
				C62.781,60.831,63.418,60.05,63.418,59.113z"/>
			<path fill="#010101" d="M65.928,56.934c0-0.35,0.268-0.627,0.617-0.627s0.627,0.277,0.627,0.627v0.268
				c0.35-0.504,0.854-0.946,1.697-0.946c1.223,0,1.934,0.823,1.934,2.077v2.9c0,0.35-0.268,0.617-0.617,0.617
				s-0.628-0.268-0.628-0.617v-2.52c0-0.844-0.421-1.326-1.161-1.326c-0.721,0-1.225,0.504-1.225,1.347v2.499
				c0,0.35-0.277,0.617-0.627,0.617c-0.34,0-0.617-0.268-0.617-0.617V56.934z"/>
			<path fill="#010101" d="M71.943,60.234v-0.02c0-1.173,0.916-1.749,2.242-1.749c0.606,0,1.039,0.093,1.46,0.227v-0.134
				c0-0.771-0.473-1.183-1.347-1.183c-0.473,0-0.864,0.083-1.203,0.216c-0.072,0.021-0.134,0.031-0.195,0.031
				c-0.289,0-0.525-0.227-0.525-0.515c0-0.226,0.154-0.421,0.34-0.493c0.514-0.195,1.039-0.318,1.748-0.318
				c0.813,0,1.42,0.215,1.8,0.605c0.401,0.391,0.587,0.967,0.587,1.677v2.674c0,0.339-0.268,0.597-0.607,0.597
				c-0.359,0-0.607-0.247-0.607-0.525v-0.205c-0.369,0.442-0.936,0.792-1.768,0.792C72.849,61.911,71.943,61.324,71.943,60.234z
				 M75.666,59.844v-0.37c-0.318-0.123-0.74-0.216-1.234-0.216c-0.801,0-1.274,0.34-1.274,0.904v0.021
				c0,0.524,0.462,0.822,1.06,0.822C75.039,61.006,75.666,60.533,75.666,59.844z"/>
			<path fill="#010101" d="M78.412,54.856c0-0.339,0.268-0.617,0.617-0.617s0.627,0.278,0.627,0.617v6.376
				c0,0.35-0.277,0.617-0.627,0.617c-0.34,0-0.617-0.268-0.617-0.617V54.856z"/>
			<path fill="#010101" d="M81.888,60.327c0.411,0,0.72,0.309,0.72,0.71v0.103c0,0.401-0.309,0.71-0.72,0.71
				c-0.421,0-0.729-0.309-0.729-0.71v-0.103C81.158,60.636,81.467,60.327,81.888,60.327z"/>
			<path fill="#010101" d="M84.047,54.856c0-0.35,0.268-0.617,0.617-0.617s0.627,0.268,0.627,0.617v2.417
				c0.402-0.566,0.967-1.019,1.852-1.019c1.275,0,2.52,1.008,2.52,2.817v0.021c0,1.799-1.234,2.817-2.52,2.817
				c-0.904,0-1.471-0.452-1.852-0.956v0.277c0,0.34-0.277,0.617-0.627,0.617c-0.339,0-0.617-0.277-0.617-0.617V54.856z
				 M88.397,59.094v-0.021c0-1.049-0.71-1.737-1.554-1.737c-0.842,0-1.583,0.699-1.583,1.737v0.021c0,1.038,0.741,1.737,1.583,1.737
				C87.698,60.831,88.397,60.162,88.397,59.094z"/>
			<path fill="#010101" d="M93.437,61.922c-1.573,0-2.787-1.143-2.787-2.818v-0.021c0-1.553,1.101-2.828,2.653-2.828
				c1.728,0,2.581,1.419,2.581,2.674c0,0.35-0.268,0.597-0.587,0.597h-3.403c0.134,0.885,0.761,1.378,1.563,1.378
				c0.524,0,0.936-0.185,1.285-0.474c0.093-0.071,0.175-0.113,0.318-0.113c0.278,0,0.494,0.217,0.494,0.504
				c0,0.154-0.072,0.289-0.164,0.381C94.896,61.644,94.279,61.922,93.437,61.922z M94.67,58.703c-0.082-0.803-0.555-1.43-1.377-1.43
				c-0.762,0-1.297,0.586-1.41,1.43H94.67z"/>
		</g>
		
			<line fill="none" stroke="#010101" stroke-width="0.2617" stroke-miterlimit="10" x1="15.72" y1="64.256" x2="95.859" y2="64.256"/>
		<line fill="none" stroke="#010101" stroke-width="0.2617" stroke-miterlimit="10" x1="15.72" y1="72" x2="95.859" y2="72"/>
		<g>
			<path fill="#010101" d="M13.672,66.181c0-0.126,0.104-0.229,0.223-0.229h1.171c1.263,0,2.134,0.866,2.134,1.996v0.012
				c0,1.131-0.871,2.008-2.134,2.008h-1.171c-0.119,0-0.223-0.104-0.223-0.229V66.181z M15.065,69.549
				c1.016,0,1.663-0.689,1.663-1.578v-0.012c0-0.889-0.647-1.589-1.663-1.589h-0.94v3.179H15.065z"/>
			<path fill="#010101" d="M19.552,70.036c-0.814,0-1.479-0.626-1.479-1.544V68.48c0-0.854,0.602-1.543,1.422-1.543
				c0.878,0,1.377,0.718,1.377,1.504c0,0.12-0.098,0.206-0.207,0.206H18.52c0.063,0.643,0.516,1.004,1.043,1.004
				c0.367,0,0.638-0.144,0.855-0.345c0.035-0.027,0.074-0.051,0.127-0.051c0.108,0,0.194,0.086,0.194,0.189
				c0,0.051-0.022,0.104-0.069,0.143C20.389,69.857,20.057,70.036,19.552,70.036z M20.43,68.32c-0.046-0.539-0.355-1.01-0.947-1.01
				c-0.516,0-0.906,0.431-0.963,1.01H20.43z M19.368,66.496c0-0.028,0.011-0.063,0.028-0.086l0.345-0.521
				c0.058-0.086,0.12-0.133,0.206-0.133c0.139,0,0.311,0.092,0.311,0.172c0,0.047-0.035,0.086-0.08,0.133l-0.432,0.407
				c-0.092,0.092-0.16,0.108-0.27,0.108C19.414,66.576,19.368,66.542,19.368,66.496z"/>
			<path fill="#010101" d="M21.863,65.975c0-0.121,0.098-0.225,0.219-0.225c0.126,0,0.224,0.104,0.224,0.225v3.797
				c0,0.127-0.092,0.225-0.218,0.225c-0.127,0-0.225-0.098-0.225-0.225V65.975z"/>
			<path fill="#010101" d="M24.801,70.036c-0.814,0-1.48-0.626-1.48-1.544V68.48c0-0.854,0.604-1.543,1.424-1.543
				c0.877,0,1.377,0.718,1.377,1.504c0,0.12-0.098,0.206-0.207,0.206h-2.146c0.064,0.643,0.518,1.004,1.045,1.004
				c0.367,0,0.637-0.144,0.854-0.345c0.034-0.027,0.075-0.051,0.126-0.051c0.109,0,0.195,0.086,0.195,0.189
				c0,0.051-0.023,0.104-0.068,0.143C25.639,69.857,25.306,70.036,24.801,70.036z M25.679,68.32c-0.046-0.539-0.356-1.01-0.946-1.01
				c-0.517,0-0.906,0.431-0.965,1.01H25.679z M24.617,66.496c0-0.028,0.012-0.063,0.029-0.086l0.344-0.521
				c0.057-0.086,0.121-0.133,0.207-0.133c0.137,0,0.309,0.092,0.309,0.172c0,0.047-0.033,0.086-0.08,0.133l-0.43,0.407
				c-0.092,0.092-0.16,0.108-0.27,0.108C24.663,66.576,24.617,66.542,24.617,66.496z"/>
			<path fill="#010101" d="M27.147,70.547c-0.069-0.035-0.114-0.104-0.114-0.184c0-0.098,0.097-0.195,0.2-0.195
				c0.04,0,0.069,0.012,0.098,0.029c0.31,0.205,0.665,0.32,1.05,0.32c0.654,0,1.078-0.361,1.078-1.055v-0.351
				c-0.258,0.345-0.619,0.626-1.164,0.626c-0.711,0-1.395-0.534-1.395-1.389v-0.012c0-0.866,0.688-1.4,1.395-1.4
				c0.557,0,0.918,0.275,1.158,0.598v-0.339c0-0.12,0.092-0.224,0.219-0.224c0.126,0,0.223,0.104,0.223,0.224v2.255
				c0,0.459-0.137,0.809-0.378,1.049c-0.264,0.265-0.659,0.396-1.13,0.396C27.934,70.896,27.52,70.775,27.147,70.547z
				 M29.471,68.344v-0.012c0-0.607-0.527-1.004-1.09-1.004s-1.027,0.391-1.027,0.998v0.012c0,0.597,0.477,1.01,1.027,1.01
				C28.943,69.348,29.471,68.939,29.471,68.344z"/>
			<path fill="#010101" d="M30.83,69.106v-0.011c0-0.626,0.517-0.959,1.268-0.959c0.379,0,0.648,0.052,0.912,0.127V68.16
				c0-0.533-0.326-0.809-0.883-0.809c-0.299,0-0.551,0.068-0.77,0.166c-0.027,0.012-0.057,0.018-0.08,0.018
				c-0.104,0-0.195-0.086-0.195-0.189c0-0.092,0.064-0.161,0.121-0.184c0.293-0.127,0.591-0.201,0.97-0.201
				c0.419,0,0.739,0.109,0.958,0.327c0.201,0.2,0.305,0.487,0.305,0.866v1.623c0,0.127-0.092,0.219-0.213,0.219
				c-0.127,0-0.213-0.092-0.213-0.207v-0.27c-0.206,0.27-0.551,0.511-1.072,0.511C31.387,70.03,30.83,69.715,30.83,69.106z
				 M33.016,68.877V68.59c-0.218-0.063-0.51-0.126-0.871-0.126c-0.557,0-0.867,0.241-0.867,0.614v0.012
				c0,0.373,0.345,0.59,0.746,0.59C32.568,69.68,33.016,69.348,33.016,68.877z"/>
			<path fill="#010101" d="M34.674,69.182v-1.791h-0.24c-0.104,0-0.195-0.092-0.195-0.194c0-0.108,0.092-0.195,0.195-0.195h0.24
				v-0.7c0-0.12,0.092-0.223,0.219-0.223c0.12,0,0.223,0.103,0.223,0.223v0.7h0.77c0.109,0,0.201,0.092,0.201,0.195
				c0,0.108-0.092,0.194-0.201,0.194h-0.77v1.732c0,0.362,0.201,0.494,0.5,0.494c0.154,0,0.234-0.04,0.27-0.04
				c0.104,0,0.189,0.086,0.189,0.188c0,0.081-0.053,0.145-0.127,0.173c-0.126,0.052-0.264,0.08-0.436,0.08
				C35.035,70.019,34.674,69.783,34.674,69.182z"/>
			<path fill="#010101" d="M37.009,66.072c0-0.145,0.114-0.236,0.259-0.236c0.148,0,0.264,0.092,0.264,0.236v0.074
				c0,0.138-0.115,0.234-0.264,0.234c-0.145,0-0.259-0.097-0.259-0.234V66.072z M37.049,67.196c0-0.12,0.098-0.224,0.219-0.224
				c0.125,0,0.223,0.098,0.223,0.224v2.575c0,0.127-0.092,0.225-0.217,0.225c-0.127,0-0.225-0.098-0.225-0.225V67.196z"/>
			<path fill="#010101" d="M38.506,68.498v-0.012c0-0.837,0.654-1.549,1.549-1.549c0.89,0,1.543,0.701,1.543,1.538v0.011
				c0,0.838-0.659,1.55-1.555,1.55C39.154,70.036,38.506,69.336,38.506,68.498z M41.145,68.498v-0.012
				c0-0.637-0.476-1.158-1.102-1.158c-0.643,0-1.084,0.521-1.084,1.147v0.011c0,0.637,0.471,1.154,1.096,1.154
				C40.697,69.641,41.145,69.123,41.145,68.498z"/>
			<path fill="#010101" d="M42.568,67.196c0-0.12,0.098-0.224,0.217-0.224c0.127,0,0.225,0.098,0.225,0.224v0.321
				c0.195-0.321,0.504-0.58,1.016-0.58c0.717,0,1.135,0.482,1.135,1.188v1.646c0,0.127-0.097,0.225-0.217,0.225
				c-0.127,0-0.225-0.098-0.225-0.225v-1.537c0-0.551-0.298-0.895-0.82-0.895c-0.51,0-0.889,0.373-0.889,0.93v1.502
				c0,0.127-0.092,0.225-0.219,0.225c-0.125,0-0.223-0.098-0.223-0.225V67.196z"/>
			<path fill="#010101" d="M48.242,70.547c-0.069-0.035-0.115-0.104-0.115-0.184c0-0.098,0.098-0.195,0.201-0.195
				c0.039,0,0.068,0.012,0.098,0.029c0.309,0.205,0.664,0.32,1.049,0.32c0.654,0,1.078-0.361,1.078-1.055v-0.351
				c-0.258,0.345-0.619,0.626-1.164,0.626c-0.711,0-1.395-0.534-1.395-1.389v-0.012c0-0.866,0.689-1.4,1.395-1.4
				c0.557,0,0.918,0.275,1.159,0.598v-0.339c0-0.12,0.092-0.224,0.218-0.224c0.127,0,0.225,0.104,0.225,0.224v2.255
				c0,0.459-0.139,0.809-0.379,1.049c-0.264,0.265-0.66,0.396-1.131,0.396C49.027,70.896,48.614,70.775,48.242,70.547z
				 M50.564,68.344v-0.012c0-0.607-0.527-1.004-1.09-1.004s-1.026,0.391-1.026,0.998v0.012c0,0.597,0.476,1.01,1.026,1.01
				C50.037,69.348,50.564,68.939,50.564,68.344z"/>
			<path fill="#010101" d="M53.445,70.036c-0.814,0-1.48-0.626-1.48-1.544V68.48c0-0.854,0.602-1.543,1.422-1.543
				c0.879,0,1.377,0.718,1.377,1.504c0,0.12-0.098,0.206-0.206,0.206h-2.146c0.063,0.643,0.516,1.004,1.044,1.004
				c0.367,0,0.638-0.144,0.854-0.345c0.035-0.027,0.075-0.051,0.127-0.051c0.109,0,0.195,0.086,0.195,0.189
				c0,0.051-0.023,0.104-0.069,0.143C54.282,69.857,53.949,70.036,53.445,70.036z M54.322,68.32c-0.045-0.539-0.355-1.01-0.946-1.01
				c-0.517,0-0.907,0.431-0.964,1.01H54.322z M53.262,66.496c0-0.028,0.011-0.063,0.028-0.086l0.345-0.521
				c0.057-0.086,0.119-0.133,0.206-0.133c0.138,0,0.31,0.092,0.31,0.172c0,0.047-0.035,0.086-0.08,0.133l-0.431,0.407
				c-0.092,0.092-0.161,0.108-0.27,0.108C53.307,66.576,53.262,66.542,53.262,66.496z"/>
			<path fill="#010101" d="M55.717,67.196c0-0.12,0.098-0.224,0.218-0.224c0.126,0,0.224,0.098,0.224,0.224v0.321
				c0.195-0.321,0.505-0.58,1.016-0.58c0.717,0,1.136,0.482,1.136,1.188v1.646c0,0.127-0.098,0.225-0.218,0.225
				c-0.127,0-0.225-0.098-0.225-0.225v-1.537c0-0.551-0.297-0.895-0.82-0.895c-0.51,0-0.889,0.373-0.889,0.93v1.502
				c0,0.127-0.092,0.225-0.218,0.225s-0.224-0.098-0.224-0.225V67.196z"/>
			<path fill="#010101" d="M60.719,70.036c-0.814,0-1.48-0.626-1.48-1.544V68.48c0-0.854,0.604-1.543,1.424-1.543
				c0.877,0,1.377,0.718,1.377,1.504c0,0.12-0.098,0.206-0.207,0.206h-2.146c0.063,0.643,0.517,1.004,1.044,1.004
				c0.367,0,0.637-0.144,0.855-0.345c0.033-0.027,0.074-0.051,0.125-0.051c0.109,0,0.195,0.086,0.195,0.189
				c0,0.051-0.022,0.104-0.068,0.143C61.557,69.857,61.225,70.036,60.719,70.036z M61.597,68.32c-0.046-0.539-0.355-1.01-0.946-1.01
				c-0.517,0-0.906,0.431-0.964,1.01H61.597z M60.535,66.496c0-0.028,0.012-0.063,0.029-0.086l0.344-0.521
				c0.058-0.086,0.121-0.133,0.207-0.133c0.137,0,0.31,0.092,0.31,0.172c0,0.047-0.034,0.086-0.081,0.133l-0.43,0.407
				c-0.092,0.092-0.16,0.108-0.27,0.108C60.582,66.576,60.535,66.542,60.535,66.496z"/>
			<path fill="#010101" d="M62.99,67.196c0-0.12,0.098-0.224,0.219-0.224c0.126,0,0.224,0.098,0.224,0.224v0.556
				c0.218-0.492,0.648-0.791,1.021-0.791c0.133,0,0.219,0.098,0.219,0.224c0,0.12-0.08,0.206-0.195,0.224
				c-0.574,0.068-1.044,0.5-1.044,1.354v1.01c0,0.121-0.092,0.225-0.218,0.225c-0.127,0-0.225-0.098-0.225-0.225V67.196z"/>
			<path fill="#010101" d="M65.119,69.106v-0.011c0-0.626,0.517-0.959,1.268-0.959c0.379,0,0.648,0.052,0.912,0.127V68.16
				c0-0.533-0.326-0.809-0.883-0.809c-0.299,0-0.551,0.068-0.77,0.166c-0.027,0.012-0.057,0.018-0.08,0.018
				c-0.104,0-0.195-0.086-0.195-0.189c0-0.092,0.064-0.161,0.121-0.184c0.293-0.127,0.591-0.201,0.97-0.201
				c0.419,0,0.739,0.109,0.958,0.327c0.201,0.2,0.304,0.487,0.304,0.866v1.623c0,0.127-0.091,0.219-0.212,0.219
				c-0.127,0-0.213-0.092-0.213-0.207v-0.27c-0.206,0.27-0.551,0.511-1.072,0.511C65.676,70.03,65.119,69.715,65.119,69.106z
				 M67.305,68.877V68.59c-0.218-0.063-0.51-0.126-0.871-0.126c-0.557,0-0.867,0.241-0.867,0.614v0.012
				c0,0.373,0.345,0.59,0.746,0.59C66.857,69.68,67.305,69.348,67.305,68.877z"/>
			<path fill="#010101" d="M68.877,65.975c0-0.121,0.098-0.225,0.218-0.225c0.126,0,0.224,0.104,0.224,0.225v3.797
				c0,0.127-0.092,0.225-0.218,0.225s-0.224-0.098-0.224-0.225V65.975z"/>
			<path fill="#010101" d="M71.814,70.036c-0.814,0-1.48-0.626-1.48-1.544V68.48c0-0.854,0.603-1.543,1.423-1.543
				c0.878,0,1.376,0.718,1.376,1.504c0,0.12-0.097,0.206-0.205,0.206h-2.146c0.063,0.643,0.517,1.004,1.045,1.004
				c0.367,0,0.637-0.144,0.854-0.345c0.035-0.027,0.075-0.051,0.127-0.051c0.109,0,0.195,0.086,0.195,0.189
				c0,0.051-0.023,0.104-0.069,0.143C72.652,69.857,72.318,70.036,71.814,70.036z M72.691,68.32c-0.045-0.539-0.355-1.01-0.946-1.01
				c-0.517,0-0.906,0.431-0.964,1.01H72.691z"/>
			<path fill="#010101" d="M75.875,67.971v-0.012c0-1.107,0.832-2.076,2.055-2.076c1.222,0,2.042,0.957,2.042,2.064v0.012
				c0,0.505-0.172,0.976-0.476,1.348l0.379,0.316c0.057,0.051,0.092,0.109,0.092,0.189c0,0.12-0.098,0.224-0.225,0.224
				c-0.068,0-0.12-0.028-0.172-0.075l-0.391-0.35c-0.338,0.264-0.768,0.425-1.262,0.425C76.696,70.036,75.875,69.078,75.875,67.971z
				 M78.153,68.613c0-0.127,0.103-0.229,0.224-0.229c0.074,0,0.121,0.028,0.172,0.075l0.614,0.562
				c0.218-0.286,0.339-0.648,0.339-1.05v-0.012c0-0.912-0.666-1.658-1.584-1.658s-1.572,0.734-1.572,1.646v0.012
				c0,0.912,0.666,1.658,1.584,1.658c0.355,0,0.677-0.109,0.93-0.299l-0.608-0.521C78.188,68.745,78.153,68.693,78.153,68.613z"/>
			<path fill="#010101" d="M83.568,69.771c0,0.121-0.092,0.225-0.217,0.225c-0.121,0-0.219-0.098-0.219-0.225v-0.32
				c-0.201,0.32-0.505,0.579-1.016,0.579c-0.717,0-1.136-0.481-1.136-1.188v-1.646c0-0.126,0.092-0.224,0.218-0.224
				c0.121,0,0.225,0.098,0.225,0.224v1.538c0,0.55,0.298,0.895,0.82,0.895c0.504,0,0.889-0.373,0.889-0.93v-1.503
				c0-0.126,0.092-0.224,0.219-0.224c0.119,0,0.217,0.098,0.217,0.224V69.771z"/>
			<path fill="#010101" d="M86.029,70.036c-0.814,0-1.479-0.626-1.479-1.544V68.48c0-0.854,0.603-1.543,1.423-1.543
				c0.877,0,1.377,0.718,1.377,1.504c0,0.12-0.098,0.206-0.207,0.206h-2.145c0.063,0.643,0.516,1.004,1.043,1.004
				c0.367,0,0.637-0.144,0.855-0.345c0.034-0.027,0.074-0.051,0.126-0.051c0.108,0,0.194,0.086,0.194,0.189
				c0,0.051-0.021,0.104-0.068,0.143C86.867,69.857,86.535,70.036,86.029,70.036z M86.908,68.32c-0.047-0.539-0.355-1.01-0.947-1.01
				c-0.516,0-0.906,0.431-0.963,1.01H86.908z M85.846,66.496c0-0.028,0.012-0.063,0.029-0.086l0.344-0.521
				c0.059-0.086,0.121-0.133,0.207-0.133c0.138,0,0.311,0.092,0.311,0.172c0,0.047-0.035,0.086-0.081,0.133l-0.431,0.407
				c-0.092,0.092-0.16,0.108-0.27,0.108C85.893,66.576,85.846,66.542,85.846,66.496z"/>
			<path fill="#010101" d="M88.302,65.975c0-0.127,0.098-0.225,0.218-0.225c0.127,0,0.225,0.098,0.225,0.225v1.623
				c0.24-0.355,0.59-0.66,1.135-0.66c0.712,0,1.418,0.563,1.418,1.538v0.011c0,0.971-0.7,1.544-1.418,1.544
				c-0.551,0-0.906-0.298-1.135-0.632v0.373c0,0.121-0.092,0.225-0.219,0.225c-0.126,0-0.224-0.104-0.224-0.225V65.975z
				 M90.844,68.492V68.48c0-0.699-0.482-1.146-1.045-1.146c-0.551,0-1.072,0.465-1.072,1.142v0.011c0,0.689,0.521,1.148,1.072,1.148
				C90.373,69.635,90.844,69.21,90.844,68.492z"/>
			<path fill="#010101" d="M93.58,70.036c-0.814,0-1.48-0.626-1.48-1.544V68.48c0-0.854,0.602-1.543,1.422-1.543
				c0.879,0,1.377,0.718,1.377,1.504c0,0.12-0.098,0.206-0.206,0.206h-2.146c0.063,0.643,0.516,1.004,1.045,1.004
				c0.367,0,0.637-0.144,0.854-0.345c0.035-0.027,0.075-0.051,0.127-0.051c0.109,0,0.195,0.086,0.195,0.189
				c0,0.051-0.023,0.104-0.069,0.143C94.417,69.857,94.084,70.036,93.58,70.036z M94.457,68.32c-0.045-0.539-0.355-1.01-0.946-1.01
				c-0.517,0-0.906,0.431-0.964,1.01H94.457z"/>
			<path fill="#010101" d="M95.668,68.498v-0.012c0-0.837,0.654-1.549,1.52-1.549c0.494,0,0.826,0.189,1.09,0.431
				c0.035,0.028,0.07,0.087,0.07,0.155c0,0.12-0.098,0.212-0.213,0.212c-0.058,0-0.109-0.022-0.144-0.052
				c-0.212-0.195-0.453-0.355-0.81-0.355c-0.602,0-1.061,0.511-1.061,1.147v0.011c0,0.643,0.471,1.154,1.09,1.154
				c0.338,0,0.608-0.155,0.826-0.361c0.029-0.029,0.068-0.059,0.127-0.059c0.108,0,0.2,0.098,0.2,0.201
				c0,0.052-0.022,0.104-0.058,0.139c-0.281,0.28-0.619,0.476-1.119,0.476C96.322,70.036,95.668,69.33,95.668,68.498z"/>
		</g>
	</g>
	<path display="inline" fill="#E31837" d="M155.942,13.371l0.073,0.043c0.071,0.045,0.16,0.025,0.21-0.041
		c0.487-0.629,1.32-0.844,1.761-0.593c0.895,0.509,0.671,1.447,0.309,1.937c0.026,0.02,0.07,0.058,0.104,0.1
		c0.735-0.331,1.689-0.265,2.416,0.059c0.896,0.399,1.452,0.953,1.904,1.602c0.088,0.128,0.284,0.065,0.284-0.091
		c0-1.429-0.691-2.999-2.271-3.802c-1.562-0.794-3.644-0.849-4.841,0.55C155.83,13.211,155.856,13.324,155.942,13.371
		 M153.859,15.445c0.4-0.231,0.829-0.371,1.239-0.515c0.089-0.031,0.129-0.136,0.084-0.219c-0.103-0.192-0.181-0.391-0.196-0.601
		c-0.006-0.09-0.088-0.154-0.178-0.141c-0.197,0.031-0.416,0.068-0.644,0.123c-0.57,0.138-1.13,0.456-1.3,0.772
		c-0.179,0.333-0.287,0.767-0.404,1.175c-0.04,0.143,0.123,0.257,0.242,0.168C153.067,15.938,153.45,15.681,153.859,15.445z
		 M154.031,25.573c-1.745-0.15-2.697-0.688-3.288-1.373c-0.077-0.087-0.031-0.225,0.083-0.25c0.886-0.193,2.442-0.826,3.157-1.362
		c0.352-0.264,0.675-0.566,0.964-0.896c0.095-0.107,0.005-0.273-0.139-0.257c-0.703,0.075-1.526-0.168-1.845-0.816
		c-0.05-0.099-0.174-0.124-0.252-0.046c-0.556,0.546-1.671,1.104-2.942,1.433c-0.185,0.048-0.549,0.217-0.702,0.337
		c-1.939,1.522-3.343,4.476-3.441,6.417l-0.016,0.06c-0.474,0.883-1.083,2.496-0.521,4.983c0.722,3.197,2.44,4.645,4.272,5.988
		c0.771,0.566,1.632,0.995,2.546,1.366c0.146,0.06,0.275-0.116,0.176-0.238c-1.488-1.862-2.416-3.612-2.416-5.192
		c0-2.326,2.015-3.404,3.616-3.569c0.041-0.004,0.076-0.025,0.101-0.057c0.252-0.328,0.61-0.617,0.887-0.805
		c0.066-0.044,0.083-0.132,0.044-0.201c-0.861-1.509-1.058-3.449-0.16-5.301C154.205,25.696,154.142,25.582,154.031,25.573z
		 M164.12,5.326c-0.873,0.083-1.832,0.461-2.572,1.24c-0.087,0.092-0.243,0.045-0.263-0.079c-0.071-0.417-0.027-0.96-0.047-1.34
		c-0.007-0.117-0.136-0.185-0.236-0.124c-0.878,0.536-1.746,1.23-2.383,2.483c-0.063,0.122-0.247,0.11-0.285-0.022
		c-0.108-0.366-0.087-0.806-0.106-1.125c-0.008-0.132-0.167-0.195-0.263-0.104c-0.693,0.648-1.316,1.643-1.64,2.613
		c-0.045,0.133-0.23,0.142-0.288,0.014c-0.123-0.268-0.184-0.6-0.277-0.847c-0.038-0.098-0.165-0.129-0.245-0.061
		c-1.512,1.282-2.201,3.439-1.923,5.243c0.012,0.083,0.089,0.14,0.173,0.131c0.395-0.043,0.883-0.242,1.382-0.196
		c0.055,0.005,0.108-0.018,0.141-0.063c1.581-2.181,4.428-2.355,6.387-1.093c0.033,0.021,0.071,0.029,0.107,0.024
		c1.614-0.223,2.677-1.043,3.068-2.145c0.441-1.239,0.188-3.252-0.582-4.476C164.236,5.349,164.178,5.32,164.12,5.326z
		 M157.541,14.867c-0.073-0.06-0.072-0.166-0.004-0.233c0.073-0.072,0.135-0.162,0.181-0.266c0.164-0.376,0.05-0.789-0.255-0.921
		c-0.305-0.133-0.684,0.063-0.848,0.439c-0.042,0.095-0.066,0.192-0.073,0.287c-0.006,0.093-0.096,0.158-0.188,0.135
		c-0.085-0.021-0.163-0.007-0.23,0.088c-0.075,0.108-0.068,0.303,0.066,0.529c0.091,0.157,0.236,0.328,0.411,0.46
		c0.15,0.113,0.299,0.231,0.428,0.362c0.068,0.067,0.177,0.058,0.232-0.02c0.125-0.172,0.282-0.339,0.438-0.473
		c0.063-0.054,0.071-0.151,0.018-0.215C157.662,14.974,157.601,14.915,157.541,14.867z M156.476,17.553
		c-0.012-0.134-0.175-0.189-0.271-0.094c-0.417,0.42-0.911,0.638-1.486,0.925c-0.646,0.323-1.131,0.725-1.131,1.375
		c0,0.416,0.352,0.804,0.92,0.804c0.569,0,1.057-0.225,1.473-0.857C156.432,19.02,156.543,18.342,156.476,17.553z M151.441,19.096
		c0,0.505,0.333,0.709,0.677,0.709c0.5,0,0.714-0.322,1.053-1.016c0.227-0.467,0.504-0.816,0.859-1.096
		c0.123-0.095,0.049-0.288-0.106-0.279c-0.93,0.056-1.66,0.372-2.141,0.875C151.567,18.517,151.457,18.829,151.441,19.096z
		 M153.652,16.262c-0.125,0.067-0.104,0.255,0.036,0.29c0.454,0.111,1.006,0.143,1.377,0.101c0.255-0.028,0.732-0.154,1.011-0.227
		c0.094-0.024,0.145-0.127,0.103-0.215c-0.054-0.115-0.121-0.235-0.207-0.353c-0.104-0.14-0.2-0.27-0.288-0.395
		c-0.041-0.06-0.116-0.083-0.185-0.057c-0.423,0.163-0.844,0.352-1.253,0.551C154.087,16.037,153.866,16.149,153.652,16.262z
		 M187.999,27.749c-1.251-0.951-2.798-1.635-5.115-2.104c-0.111-0.022-0.16-0.15-0.094-0.242c0.43-0.59,0.769-1.236,0.979-1.965
		c0.03-0.106-0.061-0.211-0.17-0.195c-1.896,0.287-4.297,1.049-5.944,1.979c-1.412,0.799-2.559,2.456-2.807,4.678
		c-0.015,0.127,0.119,0.215,0.229,0.151c1.38-0.8,2.89-1.377,4.432-1.701l0.057-0.025c0.717-0.503,1.397-1.017,2-1.571
		c0.028-0.025,0.063-0.04,0.099-0.041c2.392-0.082,4.412,0.536,6.182,1.299C188.014,28.085,188.146,27.858,187.999,27.749z
		 M159.241,26.728c-0.784,0.822-2.191,2.096-2.739,3.142c-0.06,0.114,0.045,0.245,0.169,0.216c0.958-0.214,2.135-0.146,3.067,0.123
		c0.126,0.037,0.241-0.09,0.184-0.208c-0.431-0.896-0.354-2.101-0.417-3.175C159.497,26.692,159.333,26.631,159.241,26.728z
		 M154.982,29.98c0.048,0.126,0.228,0.128,0.281,0.004c0.651-1.495,1.724-2.505,2.748-3.544c0.715-0.727,1.265-1.363,1.724-2.134
		c0.067-0.115,0.238-0.092,0.277,0.035c0.266,0.863,0.447,1.763,0.431,2.711c-0.012,0.789-0.024,1.409,0.068,1.924
		c0.031,0.17,0.277,0.164,0.302-0.007c0.257-1.75,1.071-3.141,1.519-4.31c0.689-1.795,0.902-3.039,0.902-4.141
		c0-3.324-1.896-5.031-3.657-5.031c-1.229,0-1.824,0.822-2,1.836c-0.152,0.884-0.168,1.984-0.9,3.43
		c-0.522,1.032-1.509,2.43-3.537,3.389c-0.134,0.063-0.111,0.262,0.035,0.29c1.147,0.225,2.151,0.145,3.013,0.005
		c0.154-0.024,0.241,0.168,0.121,0.269c-1.096,0.923-1.495,1.985-1.642,3.165C154.583,28.548,154.739,29.349,154.982,29.98z
		 M188.538,61.319c-0.071,0.162-0.314,0.099-0.294-0.075c0.27-2.264,1.4-4.537,2.631-6.597c1.836-3.078,2.929-6.492,3.146-9.772
		c0.409-6.193-4.44-12.36-9.931-13.527c-0.175-0.037-0.163-0.291,0.014-0.305c2.986-0.241,6.4,0.6,8.661,2.251
		c2.507,1.829,4.967,5.966,4.967,11.132c0,5.021-1.477,7.965-2.616,10.964c-1.24,3.264-2.063,6.715-2.032,9.988
		c0.002,0.162-0.221,0.214-0.29,0.067c-1.281-2.727-1.104-5.64-0.862-7.634c0.016-0.129-0.125-0.216-0.235-0.147
		C190.421,58.453,189.357,59.483,188.538,61.319z M193.019,45.009c0.186-2.79-0.735-5.549-2.2-7.836
		c-1.288-2.013-3.918-4.38-7.063-4.943c-0.17-0.03-0.252,0.206-0.101,0.287c1.422,0.762,2.599,1.946,3.337,3.229
		c0.071,0.126-0.056,0.273-0.192,0.219c-0.729-0.289-1.464-0.462-2.228-0.563c-0.165-0.021-0.243,0.199-0.1,0.284
		c2.812,1.66,4.208,4.697,4.208,7.499c0,4.304-3.058,6.185-4.675,6.666c-0.932,0.28-1.932,0.332-2.896,0.172
		c-0.157-0.025-0.244,0.184-0.113,0.275c1.463,1.027,3.858,1.107,5.725,0.348c1.207-0.491,2.282-1.42,2.937-2.405
		c0.081-0.123,0.268-0.078,0.282,0.066c0.109,1.119-0.058,2.21-0.305,3.101c-0.04,0.148,0.14,0.257,0.254,0.153
		C191.323,50.251,192.821,48.001,193.019,45.009z M188.326,50.866c-2.26,1.366-4.521,1.366-6.207,0.903
		c-0.054-0.015-0.11,0-0.148,0.04c-0.896,0.929-2.047,1.933-3.866,2.269c-0.157,0.028-0.168,0.249-0.018,0.299
		c0.92,0.289,1.758,0.214,2.486-0.082c0.128-0.052,0.255,0.089,0.193,0.214c-0.604,1.225-1.56,1.965-2.464,2.548
		c-0.136,0.09-0.062,0.299,0.1,0.285c1.382-0.132,2.652-0.79,3.538-1.47c0.11-0.085,0.266,0.01,0.243,0.146
		c-0.417,2.582-0.447,4.801-0.107,6.715c0.031,0.181,0.292,0.167,0.304-0.017c0.194-3.089,1.411-5.083,2.67-6.51
		c0.084-0.097,0.238-0.052,0.265,0.073c0.196,0.916,0.536,1.671,0.9,2.299c0.075,0.129,0.272,0.087,0.287-0.063
		c0.307-3.364,1.246-5.76,2.043-7.453C188.61,50.923,188.457,50.789,188.326,50.866z M176.905,53.126
		c-1.416-1.662-1.813-3.299-1.948-4.942c-0.01-0.128,0.133-0.214,0.239-0.142c0.854,0.59,1.863,1.035,2.946,1.075
		c0.145,0.005,0.214-0.176,0.104-0.27c-2.254-1.969-4.09-4.509-5.553-7.89c-1.197-2.766-2.669-5.163-5.302-7.14
		c-1.225-0.92-2.845-1.833-4.668-2.383c-0.16-0.048-0.267,0.161-0.138,0.268c3.148,2.571,2.927,5.986,1.938,7.887
		c-0.064,0.125,0.056,0.266,0.187,0.217c0.707-0.259,1.223-0.608,1.568-0.911c0.084-0.072,0.216-0.036,0.249,0.07
		c0.94,2.986,0.737,5.821,0.207,7.447c-0.043,0.132,0.101,0.248,0.222,0.181c1.602-0.89,2.719-2.43,3.174-3.825
		c0.046-0.141,0.24-0.145,0.291-0.006c1.284,3.498,0.838,6.549-0.402,9.205c-0.064,0.139,0.093,0.277,0.222,0.195
		c0.484-0.315,1.017-0.72,1.478-1.141c0.101-0.092,0.262-0.017,0.255,0.12c-0.138,2.539,0.586,4.565,1.701,6.292
		c0.084,0.131,0.287,0.067,0.282-0.087c-0.072-2.063,0.162-4.065,0.393-5.579c0.021-0.144,0.216-0.182,0.287-0.055
		c0.56,1.019,1.324,1.477,2.115,1.662C176.895,53.41,177.001,53.239,176.905,53.126z M170.587,57.188
		c0.257-0.926-0.014-1.763,0-2.603c0.007-0.501,0.174-1.074,0.361-1.629c0.046-0.139-0.109-0.259-0.23-0.177
		c-0.81,0.546-1.771,1.044-2.682,1.43c-0.145,0.062-0.277-0.113-0.181-0.235c0.847-1.074,1.649-2.478,2.036-3.889
		c0.026-0.099-0.047-0.195-0.148-0.192c-1.895,0.002-4.716-0.214-6.938-1.138l-0.075-0.01c-0.997,0.136-2.564,0.248-4.179,0.013
		c-0.119-0.019-0.215,0.101-0.166,0.211c0.825,1.848,2.36,3.319,4.813,4.838c1.121,0.693,2.434,1.634,2.758,3.04
		c0.021,0.092,0.114,0.146,0.202,0.115c0.501-0.174,0.721-0.057,0.938,0.351c0.194,0.366,0.44,0.738,0.709,0.74
		c0.22,0.003,0.293-0.059,0.626-0.127c0.205-0.035,0.402-0.021,0.541,0.04c0.252,0.115,0.425,0.157,0.571,0.134
		C170.107,58.009,170.432,57.739,170.587,57.188z M160.224,52.797c-0.99-0.854-2.31-2.111-3.007-4.19
		c-0.018-0.051-0.06-0.089-0.113-0.101c-1.027-0.208-2.05-0.511-3.009-0.938c-0.106-0.047-0.227,0.033-0.216,0.148
		c0.044,0.502,0.295,1.096,0.351,1.677c0.046,0.475-0.154,0.506-0.361,0.543c-0.25,0.045,0.066,0.82,1.363,1.625
		c0.056,0.032,0.085,0.101,0.07,0.164c-0.128,0.524-0.188,1.521,0.715,2.104c0.572,0.371,1.372,0.359,2.472-0.217
		c0.55-0.286,1.033-0.437,1.66-0.55C160.275,53.039,160.322,52.882,160.224,52.797z M161.221,47.646
		c-0.499-0.401-0.945-0.895-1.218-1.237l-0.065-0.044c-2.144-0.797-3.962-1.846-5.921-3.417l-0.049-0.026
		c-1.705-0.503-3.368-1.243-5.464-2.847c-0.123-0.093-0.29,0.03-0.24,0.175c1.738,4.971,6.608,7.79,12.868,7.671
		C161.275,47.917,161.332,47.735,161.221,47.646z M168.58,46.802c0.498,0.007,1.118,0.008,1.601-0.034
		c0.078-0.008,0.137-0.073,0.137-0.152c0.002-0.378-0.048-0.951-0.15-1.458c-0.027-0.13-0.195-0.166-0.274-0.06
		c-0.357,0.484-0.79,0.979-1.399,1.426C168.375,46.611,168.431,46.799,168.58,46.802z M158.662,44.8
		c2.558,1.207,4.825,1.657,7.002,1.871c0.072,0.007,0.139-0.035,0.162-0.104c0.08-0.231,0.152-0.468,0.213-0.708
		c-0.028-0.064-0.048-0.11-0.076-0.176c-2.466-1.342-4.58-1.439-5.422-1.302c-0.445,0.072-1.096,0.152-1.808,0.125
		C158.566,44.501,158.512,44.729,158.662,44.8z M163.13,43.714c1.19,0.215,2.085,0.565,2.929,0.977
		c0.094,0.046,0.205-0.015,0.219-0.118c0.049-0.34,0.061-0.671,0.061-1.047c0-0.082-0.063-0.15-0.146-0.153
		c-0.553-0.021-1.652-0.127-2.422-0.329c-0.046,0.009-0.083,0.017-0.128,0.025c-0.162,0.123-0.366,0.25-0.564,0.362
		C162.955,43.502,162.989,43.689,163.13,43.714z M170.133,47.701c-1.735,0.104-4.634,0.091-7.611-0.567
		c-0.166-0.037-0.261,0.185-0.119,0.278c2.147,1.406,5.269,1.618,7.639,1.521c0.07-0.004,0.128-0.053,0.143-0.121
		c0.057-0.253,0.099-0.629,0.109-0.95C170.298,47.77,170.224,47.695,170.133,47.701z M164.806,42.406
		c0.477,0.046,0.978,0.065,1.386,0.04c0.083-0.006,0.145-0.078,0.142-0.161c-0.02-0.544-0.089-1.051-0.195-1.596
		c-0.026-0.139-0.212-0.172-0.282-0.051c-0.317,0.544-0.704,1.052-1.143,1.505C164.623,42.236,164.677,42.393,164.806,42.406z
		 M159.142,43.762c2.575,0,4.406-1.15,5.631-2.73c0.089-0.114-0.014-0.275-0.155-0.246c-0.511,0.11-1.271,0.199-1.918,0.171
		c-0.142-0.007-0.198-0.184-0.088-0.274c1.033-0.847,1.762-2.265,1.762-3.829c0-3.347-3.251-6.07-6.463-6.07
		c-2.171,0-3.397,1.333-4.063,2.231c-0.031,0.04-0.077,0.062-0.127,0.06c-1.814-0.053-3.248,0.998-3.248,2.653
		C150.473,38.018,153.914,43.762,159.142,43.762z M185.914,22.085c2.81,0,5.447,0.722,7.316,2.687
		c1.481,1.558,2.145,3.935,2.041,5.806c-0.01,0.173,0.23,0.229,0.296,0.069c1.356-3.331,0.482-6.383-1.086-8.533
		c-2.22-3.042-6.066-4.621-10.234-4.621c-6.273,0-10.878,3.427-13.152,6.48c-2.01,2.702-2.892,6.196-2.533,9.545
		c0.003,0.04,0.024,0.076,0.054,0.102c0.353,0.296,0.692,0.606,1.021,0.931c0.089,0.089,0.24,0.039,0.259-0.086
		C171.008,26.965,177.935,22.085,185.914,22.085z M181.021,16.861c2.423-0.422,4.405-0.415,6.446-0.008
		c0.028,0.006,0.059,0.003,0.087-0.008c1.65-0.681,3.689-1.653,5.357-3.214c0.124-0.117-0.001-0.32-0.161-0.256
		c-1.326,0.535-2.765,0.91-4.653,0.821c-0.143-0.007-0.202-0.187-0.089-0.274c0.964-0.75,3.116-2.622,4.021-6.051
		c0.041-0.157-0.16-0.261-0.266-0.139c-3.656,4.186-7.482,6.95-10.842,8.846C180.771,16.662,180.852,16.891,181.021,16.861z
		 M173.988,27.996c-1.302,1.445-2.143,3.197-2.635,4.884c-0.047,0.162,0.165,0.268,0.271,0.136c0.634-0.789,1.352-1.523,2.166-2.125
		c0.04-0.03,0.061-0.076,0.06-0.125c-0.027-0.807,0.093-1.708,0.398-2.621C174.302,27.987,174.1,27.872,173.988,27.996z
		 M185.229,25.451c0.324-0.695,0.564-1.512,0.652-2.214c0.011-0.092-0.063-0.173-0.156-0.171c-0.308,0.004-0.618,0.018-0.931,0.041
		c-0.066,0.005-0.122,0.054-0.137,0.118c-0.15,0.632-0.384,1.247-0.693,1.817c-0.048,0.089,0,0.198,0.099,0.221
		c0.329,0.079,0.656,0.167,0.981,0.267C185.118,25.553,185.197,25.521,185.229,25.451z M183.082,27.442
		c-0.34-0.018-0.679-0.021-1.018-0.008c-0.037,0.001-0.071,0.014-0.098,0.039c-0.104,0.093-0.235,0.208-0.369,0.322
		c-0.111,0.095-0.04,0.277,0.106,0.271c0.309-0.016,0.638-0.021,0.895-0.016c0.028,0,0.056-0.006,0.08-0.021
		c0.167-0.094,0.329-0.196,0.485-0.306C183.285,27.639,183.229,27.45,183.082,27.442z M185.539,30.235
		c0.555-0.003,1.174,0.021,1.832,0.092c0.177,0.019,0.238-0.228,0.076-0.296c-1.69-0.703-3.524-1.055-5.363-1.013
		c-2.532,0.061-5.117,0.893-7.281,2.342c-1.63,1.093-3.064,2.665-3.98,4.35c-0.029,0.054-0.023,0.121,0.017,0.169
		c0.132,0.165,0.261,0.333,0.387,0.507l0.121,0.172c0.057,0.08,0.17,0.087,0.237,0.016c1.644-1.776,3.625-3.271,5.786-4.344
		C179.951,30.947,182.777,30.256,185.539,30.235z M184.498,34.45c0.148,0.021,0.235-0.163,0.125-0.264
		c-1.072-0.98-2.41-1.674-4.318-1.674c-2.667,0-5.73,2.136-8.243,4.969c-0.043,0.049-0.052,0.119-0.021,0.177
		c0.107,0.193,0.221,0.394,0.329,0.594c0.05,0.089,0.169,0.106,0.242,0.036c3.322-3.224,7.357-3.984,9.727-3.984
		C183.082,34.304,183.79,34.349,184.498,34.45z M184.177,48.625c-0.062,0.131,0.069,0.27,0.199,0.21
		c1.813-0.83,3.322-2.717,3.322-5.724c0-3.572-2.814-7.483-6.938-7.483c-3.706,0-6.634,2.488-7.761,3.643
		c-0.045,0.046-0.055,0.112-0.028,0.17c0.215,0.451,0.463,1.005,0.677,1.453c0.039,0.082,0.139,0.109,0.219,0.063
		c1.193-0.682,2.252-0.061,2.558,0.239c1.185,1.161,0.802,2.603,0.293,3.453c-0.066,0.11,0.019,0.252,0.147,0.236
		c1.094-0.138,2.444-0.875,3.11-2.337c0.057-0.127,0.238-0.121,0.285,0.01c0.416,1.188,0.717,2.445,0.221,3.899
		c-0.033,0.098,0.033,0.202,0.137,0.207c1.474,0.058,2.609-0.504,3.486-1.614c0.079-0.101,0.24-0.063,0.268,0.061
		C184.645,46.24,184.616,47.688,184.177,48.625z M176.279,41.996c-0.357-0.558-1.359-1.03-2.182-0.424
		c-0.056,0.041-0.075,0.119-0.045,0.184c0.218,0.485,0.502,1.011,0.737,1.423c0.054,0.096,0.188,0.104,0.254,0.017
		c0.369-0.49,0.785-0.777,1.174-0.979C176.298,42.173,176.329,42.072,176.279,41.996z M154.306,52.167
		c-0.207-0.776-0.984-1.007-1.188-1.73c-0.019-0.062-0.068-0.11-0.134-0.115c-0.802-0.078-1.569-0.209-2.449-0.435
		c-1.55-0.4-2.89-0.883-4.24-1.618c-0.669-0.365-1.412-0.5-2.159-0.582c-0.594-0.066-1.288-0.035-1.707-0.083
		c-0.421-0.045-0.672,0.144-0.97,0.303c-0.299,0.16-3.118,1.745-4.612,1.834c-0.667,0.04-1.325,0.731-1.347,1.321
		c-0.022,0.593,0.311,1.483,0.897,1.483c-0.139-0.286-0.416-0.724-0.374-0.809c0.107-0.207,3.387-1.617,4.341-2.367
		c0.042-0.033,0.098-0.042,0.147-0.023c0.028,0.009,0.057,0.019,0.085,0.028c0.08,0.028,0.125,0.112,0.099,0.192
		c-0.24,0.71-1.406,2.026-1.615,2.838c-0.195,0.762,0.002,1.47,0.489,1.735c0.114,0.063,0.252-0.035,0.227-0.162
		c-0.038-0.187-0.101-0.325-0.047-0.476c0.151-0.296,0.555-0.438,0.667-0.811c0.312-1.032,0.237-2.316,1.154-3.003
		c0.033-0.025,0.078-0.032,0.12-0.028c0.348,0.06,0.665,0.078,0.991,0.073c0.591-0.007,1.139-0.207,1.431-0.259
		c0.075-0.014,0.15,0.026,0.176,0.099c0.343,0.976,0.14,2.031,0.441,3.052c0.149,0.508,0.417,0.92,0.83,1.244
		c0.064,0.049,0.079,0.12,0.072,0.202c-0.014,0.169,0.216,0.235,0.289,0.085c0.618-1.286-0.328-3.003-0.548-4.55
		c-0.014-0.094,0.064-0.179,0.16-0.174c0.873,0.059,1.92,0.388,2.4,1.051c0.22,0.306,0.266,0.802,0.381,1.253
		c0.073,0.292,0.012,0.555-0.012,0.828c-0.014,0.159,0.196,0.237,0.28,0.104c0.321-0.513,0.321-1.211,0.321-1.811
		c0-0.153,0.217-0.16,0.302-0.153c0.672,0.04,1.329,0.23,1.94,0.452c1.14,0.411,2.09,0.764,2.911,1.605
		c0.089,0.094,0.247,0.04,0.261-0.087C154.334,52.51,154.346,52.331,154.306,52.167z M167.218,63.685
		c-0.357-0.007-0.762,0-1.067-0.042c-0.063-0.01-0.127,0.019-0.158,0.072c-0.069,0.127-0.135,0.273-0.197,0.412
		c-0.047,0.104,0.033,0.223,0.148,0.216c0.447-0.023,0.942-0.144,1.347-0.369C167.427,63.896,167.374,63.688,167.218,63.685z
		 M164.789,66.609c0.336,0.668,1.885,1.521,2.142,2.148c0.012,0.031,0.032,0.055,0.058,0.071c0.577,0.366,0.763,1.064,0.463,1.612
		c-0.078,0.142-0.292,0.085-0.292-0.075c0.004-0.359-0.044-0.71-0.358-0.743c-0.302-0.032-0.677,0.083-1.042-0.023
		c-0.418-0.119-0.75-0.528-0.911-0.931c-0.026-0.063-0.086-0.104-0.154-0.099c-1.054,0.075-2.102-0.193-3.153-0.03
		c-0.049,0.007-0.092,0.037-0.114,0.079c-0.521,0.99-1.193,2.26-2.506,2.168c-0.064-0.005-0.128,0.028-0.154,0.087
		c-0.134,0.327-0.079,0.623-0.019,0.943c0.021,0.112-0.084,0.209-0.195,0.176c-0.208-0.059-0.393-0.188-0.499-0.348
		c-0.15-0.226-0.16-0.374-0.148-0.595c0.061-1.035,0.83-1.66,1.55-2.332c0.077-0.071,0.063-0.198-0.029-0.245
		c-0.414-0.216-0.683-0.07-1.223-0.139c-0.2-0.025-0.491,0.085-0.712,0.038c-0.069-0.015-0.144,0.009-0.175,0.07
		c-0.188,0.366-0.601,0.553-1,0.444c-0.221-0.059-0.322,0.122-0.371,0.216c-0.11,0.222-0.018,0.468,0.033,0.715
		c0.027,0.134-0.114,0.235-0.229,0.165c-0.139-0.085-0.272-0.127-0.371-0.315c-0.12-0.23-0.28-0.656-0.341-0.822
		c-0.016-0.048-0.012-0.095,0.016-0.137c0.104-0.162,0.385-0.588,0.528-0.722c0.571-0.541,1.244-0.722,2.073-0.722
		c1.258,0,2.605-0.146,3.87-0.214c0.209,0,1.359-1.73,1.737-2.392c1.039-1.62,1.872-3.032,2.573-4.813
		c0.172-0.435,0.282-1.079,0.235-1.707c-0.006-0.082,0.053-0.159,0.135-0.167c0.611-0.056,0.708,0.783,1.117,0.987
		c0.385,0.188,0.984-0.157,1.472-0.03c0.118,0.03,0.151,0.182,0.061,0.264c-1.801,1.592-3.621,3.67-4.133,5.873
		C164.608,65.547,164.51,66.055,164.789,66.609z"/>
</g>
<g id="v2">
	<g>
		<g>
			<circle cx="45.929" cy="19.155" r="4.549"/>
			<circle cx="59.582" cy="19.155" r="4.551"/>
			<circle cx="52.754" cy="32.81" r="4.551"/>
			<circle cx="66.407" cy="32.81" r="4.551"/>
			<circle cx="73.233" cy="19.155" r="4.551"/>
		</g>
		<path d="M11.019,51.322c-0.051-0.12-0.088-0.278-0.088-0.42c0-0.59,0.502-1.041,1.095-1.041c0.52,0,0.921,0.332,1.059,0.783
			l2.796,8.358l2.747-8.322c0.173-0.506,0.539-0.854,1.076-0.854h0.154c0.542,0,0.923,0.348,1.078,0.854l2.746,8.322l2.797-8.377
			c0.16-0.433,0.523-0.765,1.046-0.765c0.571,0,1.059,0.451,1.059,1.024c0,0.144-0.051,0.316-0.105,0.437l-3.593,10.074
			c-0.195,0.54-0.592,0.886-1.115,0.886h-0.209c-0.52,0-0.904-0.33-1.095-0.886l-2.712-7.938l-2.707,7.938
			c-0.19,0.556-0.591,0.886-1.113,0.886h-0.211c-0.517,0-0.9-0.33-1.11-0.886L11.019,51.322z"/>
		<path d="M28.873,59.678v-0.03c0-1.903,1.484-2.838,3.635-2.838c0.982,0,1.684,0.15,2.366,0.366V56.96
			c0-1.25-0.768-1.915-2.184-1.915c-0.77,0-1.401,0.135-1.951,0.347c-0.118,0.032-0.217,0.054-0.318,0.054
			c-0.466,0-0.849-0.371-0.849-0.835c0-0.368,0.251-0.683,0.552-0.8c0.833-0.32,1.682-0.519,2.832-0.519
			c1.319,0,2.3,0.351,2.92,0.985c0.651,0.631,0.949,1.563,0.949,2.715v4.336c0,0.548-0.434,0.965-0.984,0.965
			c-0.585,0-0.98-0.4-0.98-0.851v-0.333c-0.604,0.719-1.519,1.285-2.871,1.285C30.34,62.395,28.873,61.442,28.873,59.678z
			 M34.908,59.044v-0.601c-0.517-0.2-1.199-0.351-2.001-0.351c-1.299,0-2.067,0.551-2.067,1.469v0.032
			c0,0.849,0.749,1.332,1.717,1.332C33.893,60.926,34.908,60.162,34.908,59.044z"/>
		<path d="M74.398,59.678v-0.03c0-1.903,1.483-2.838,3.635-2.838c0.983,0,1.684,0.15,2.366,0.366V56.96
			c0-1.25-0.768-1.915-2.184-1.915c-0.768,0-1.401,0.135-1.952,0.347c-0.115,0.032-0.215,0.054-0.317,0.054
			c-0.466,0-0.851-0.371-0.851-0.835c0-0.368,0.253-0.683,0.555-0.8c0.833-0.32,1.682-0.519,2.831-0.519
			c1.318,0,2.299,0.351,2.918,0.985c0.652,0.631,0.951,1.563,0.951,2.715v4.336c0,0.548-0.434,0.965-0.984,0.965
			c-0.585,0-0.983-0.4-0.983-0.851v-0.333c-0.603,0.719-1.519,1.285-2.869,1.285C75.866,62.395,74.398,61.442,74.398,59.678z
			 M80.433,59.044v-0.601c-0.517-0.2-1.199-0.351-2-0.351c-1.301,0-2.067,0.551-2.067,1.469v0.032c0,0.849,0.749,1.332,1.718,1.332
			C79.419,60.926,80.433,60.162,80.433,59.044z"/>
		<path d="M39.341,50.839c0-0.554,0.436-1.012,1.007-1.012c0.573,0,1.028,0.458,1.028,1.012v10.438c0,0.569-0.455,1.005-1.028,1.005
			c-0.556,0-1.007-0.436-1.007-1.005V50.839z"/>
		<path d="M43.891,50.839c0-0.554,0.438-1.012,1.011-1.012c0.571,0,1.024,0.458,1.024,1.012v10.438c0,0.569-0.453,1.005-1.024,1.005
			c-0.558,0-1.011-0.436-1.011-1.005V50.839z"/>
		<path d="M48.204,57.884v-0.032c0-2.495,1.938-4.56,4.558-4.56c2.619,0,4.543,2.034,4.543,4.525v0.034
			c0,2.479-1.939,4.543-4.573,4.543C50.128,62.395,48.204,60.363,48.204,57.884z M55.349,57.884v-0.032
			c0-1.536-1.084-2.812-2.617-2.812c-1.57,0-2.574,1.256-2.574,2.777v0.034c0,1.518,1.083,2.79,2.604,2.79
			C54.347,60.642,55.349,59.389,55.349,57.884z"/>
		<path d="M59.582,54.387c0-0.56,0.427-1.008,0.991-1.008s1.007,0.448,1.007,1.008v0.429c0.563-0.805,1.375-1.519,2.727-1.519
			c1.969,0,3.108,1.322,3.108,3.337v4.662c0,0.559-0.431,0.986-0.991,0.986c-0.562,0-1.011-0.428-1.011-0.986v-4.049
			c0-1.359-0.677-2.132-1.863-2.132c-1.159,0-1.969,0.811-1.969,2.162v4.019c0,0.559-0.443,0.986-1.007,0.986
			c-0.543,0-0.991-0.428-0.991-0.986V54.387z"/>
		<path d="M69.974,54.397c0-0.56,0.424-1.006,0.987-1.006c0.558,0,1.004,0.446,1.004,1.006v6.894c0,0.561-0.446,0.988-1.004,0.988
			c-0.544,0-0.987-0.428-0.987-0.988V54.397z"/>
		<path d="M91.44,50.464c0-0.373,0.287-0.659,0.64-0.659c0.373,0,0.657,0.286,0.657,0.659v4.772c0.709-1.047,1.739-1.939,3.34-1.939
			c2.092,0,4.166,1.653,4.166,4.518v0.035c0,2.85-2.056,4.535-4.166,4.535c-1.619,0-2.665-0.876-3.34-1.854v1.095
			c0,0.355-0.269,0.656-0.639,0.656c-0.371,0-0.658-0.301-0.658-0.656V50.464z M98.909,57.865v-0.034
			c0-2.057-1.415-3.372-3.069-3.372c-1.617,0-3.151,1.366-3.151,3.355v0.035c0,2.025,1.535,3.371,3.151,3.371
			C97.528,61.221,98.909,59.973,98.909,57.865z"/>
		<path d="M106.629,62.396c-2.392,0-4.348-1.839-4.348-4.535v-0.035c0-2.51,1.771-4.533,4.18-4.533c2.579,0,4.048,2.107,4.048,4.416
			c0,0.354-0.288,0.608-0.608,0.608h-6.306c0.187,1.888,1.518,2.949,3.067,2.949c1.082,0,1.871-0.421,2.514-1.012
			c0.1-0.085,0.218-0.151,0.369-0.151c0.32,0,0.574,0.253,0.574,0.556c0,0.151-0.068,0.303-0.203,0.422
			C109.092,61.871,108.113,62.396,106.629,62.396z M109.21,57.354c-0.136-1.586-1.045-2.968-2.782-2.968
			c-1.519,0-2.665,1.266-2.833,2.968H109.21z"/>
		<path d="M72.078,50.928c0,0.622-0.502,1.125-1.124,1.125c-0.622,0-1.125-0.503-1.125-1.125c0-0.618,0.503-1.123,1.125-1.123
			C71.576,49.805,72.078,50.31,72.078,50.928z"/>
		<circle cx="86.888" cy="61.27" r="1.124"/>
	</g>
	<g>
		<path fill="#E82C2E" d="M154.729,6.656c-1.38,0-2.322,0.768-2.377,1.289c-0.058,0.576,0.31,1.138,0.807,1.524
			c3.646,2.851-6.872,8.396-5.575,19.691c0.919,7.988,10.115,18.883,12.01,18.883c0.072,0,0.134-0.016,0.185-0.048
			c1.464-0.948-4.31-11.413-5.633-14.865c-2.936-7.75,1.497-12.707,3.227-15.59c2.271-3.793,2.825-7.384,1.051-9.117
			C157.071,7.098,155.774,6.656,154.729,6.656"/>
		<path fill="#FDB913" d="M181.22,9.814c-0.123,0-0.249,0.002-0.376,0.008c-13.395,0.602-15.356,17.029-15.389,22.98
			c0,0.511,0.041,3.117-0.558,3.117c-0.121,0-0.268-0.108-0.449-0.363c-0.697-0.994-2.685-3.885-3.277-4.663
			c-0.171-0.221-0.403-0.333-0.629-0.333c-0.476,0-0.925,0.492-0.72,1.483c0.104,0.503,1.433,6.115,3.342,8.425
			c0.55,0.669,1.813,1.613,3.119,1.613c1.27,0,2.583-0.893,3.32-3.806c1.278-4.505-0.239-22.417,15.021-24.465
			c1.206-0.164,1.671-1.596,0.962-2.439C185.083,10.776,183.551,9.814,181.22,9.814"/>
		<path fill="#173583" d="M189.392,25.879c-0.483-0.152-0.504-0.452-0.149-0.984c0.609-0.909,3.1-6.397,0.031-9.277
			c-0.25-0.234-0.574-0.478-0.925-0.647c-0.564-0.27-1.274,0.017-1.264,0.966c0.073,6.958-3.348,8.292-8.135,8.343h-0.569v3.198
			l4.239,0.293l0.077,0.008c4.58,0.36,7.337,3.386,7.337,6.874c0,4.194-3.484,6.903-7.336,6.903c-1.278,0-2.59-0.264-3.649-0.928
			c-0.2-0.125-0.471-0.32-0.68-0.479c0,0.542,0.004,6.823,0.004,6.823c1.461,0.695,3.119,1.108,5.264,1.108
			c6.165,0,13.876-4.544,13.876-12.487C197.514,31.454,194.081,27.35,189.392,25.879"/>
		<g>
			<path d="M205.645,68.497c-0.148-0.185-0.436-0.391-0.861-0.615l-0.096-0.054c-0.225-0.115-0.375-0.213-0.451-0.293
				c-0.076-0.079-0.115-0.178-0.115-0.296c0-0.144,0.043-0.253,0.127-0.325s0.209-0.109,0.377-0.109c0.137,0,0.26,0.025,0.365,0.076
				s0.205,0.133,0.299,0.248l0.436-0.41l-0.045-0.044c-0.137-0.136-0.295-0.24-0.475-0.313c-0.18-0.071-0.373-0.108-0.58-0.108
				c-0.344,0-0.615,0.09-0.816,0.27c-0.199,0.18-0.299,0.426-0.299,0.735c0,0.128,0.018,0.243,0.053,0.347s0.088,0.197,0.16,0.281
				c0.078,0.09,0.182,0.183,0.313,0.274c0.131,0.093,0.297,0.191,0.498,0.299l0.098,0.05c0.25,0.133,0.416,0.252,0.496,0.357
				s0.121,0.227,0.121,0.362c0,0.168-0.053,0.301-0.16,0.399c-0.105,0.097-0.25,0.146-0.436,0.146c-0.152,0-0.295-0.035-0.424-0.105
				s-0.273-0.19-0.432-0.36l-0.426,0.437l0.041,0.04c0.195,0.193,0.389,0.333,0.584,0.418s0.418,0.127,0.668,0.127
				c0.369,0,0.664-0.099,0.879-0.298c0.217-0.197,0.324-0.47,0.324-0.814C205.867,68.924,205.793,68.684,205.645,68.497
				 M200.707,69.65c-0.035,0-0.063,0.002-0.08,0.01c-0.02,0.006-0.039,0.018-0.059,0.035l-0.02-0.02
				c0.016-0.021,0.025-0.041,0.033-0.061s0.011-0.045,0.011-0.078V68.67c0-0.027-0.003-0.051-0.011-0.073
				c-0.008-0.021-0.018-0.042-0.033-0.062l0.021-0.022c0.021,0.017,0.039,0.028,0.057,0.033c0.016,0.005,0.043,0.009,0.08,0.011
				h1.325v-0.595h-1.325c-0.034,0-0.06,0.003-0.076,0.009c-0.018,0.005-0.039,0.018-0.063,0.035l-0.021-0.021
				c0.018-0.028,0.03-0.052,0.035-0.069c0.008-0.019,0.011-0.04,0.011-0.067v-0.799c0-0.028-0.003-0.053-0.011-0.074
				c-0.008-0.021-0.018-0.043-0.033-0.064l0.02-0.021c0.027,0.018,0.051,0.029,0.07,0.037c0.019,0.006,0.042,0.01,0.068,0.01h1.516
				l-0.066-0.607h-2.194v3.928h2.188l0.072-0.605H200.707z M197.46,69.65c-0.035,0-0.062,0.002-0.08,0.01
				c-0.019,0.006-0.037,0.018-0.056,0.035l-0.022-0.023c0.018-0.018,0.029-0.035,0.035-0.052s0.01-0.044,0.01-0.083v-3.214h-0.648
				v3.933h1.996l0.097-0.605H197.46z M194.191,69.65c-0.035,0-0.063,0.002-0.081,0.01c-0.019,0.006-0.037,0.018-0.056,0.035
				l-0.021-0.023c0.016-0.018,0.028-0.035,0.033-0.052c0.007-0.017,0.011-0.044,0.011-0.083v-3.214h-0.647v3.933h1.996l0.097-0.605
				H194.191z M190.512,69.65c-0.035,0-0.062,0.002-0.081,0.01c-0.019,0.006-0.038,0.018-0.059,0.035l-0.019-0.02
				c0.015-0.021,0.025-0.041,0.033-0.061c0.008-0.02,0.011-0.045,0.011-0.078V68.67c0-0.027-0.003-0.051-0.011-0.073
				c-0.007-0.021-0.018-0.042-0.033-0.062l0.022-0.022c0.02,0.017,0.038,0.028,0.055,0.033s0.043,0.009,0.081,0.011h1.326v-0.595
				h-1.326c-0.034,0-0.059,0.003-0.076,0.009c-0.018,0.005-0.038,0.018-0.063,0.035l-0.021-0.021
				c0.018-0.028,0.03-0.052,0.037-0.069c0.006-0.019,0.009-0.04,0.009-0.067v-0.799c0-0.028-0.003-0.053-0.011-0.074
				c-0.007-0.021-0.018-0.043-0.033-0.064l0.019-0.021c0.028,0.018,0.052,0.029,0.071,0.037c0.02,0.006,0.042,0.01,0.068,0.01h1.516
				l-0.066-0.607h-2.194v3.928h2.188l0.072-0.605H190.512z M187.477,68.347c-0.018-0.034-0.034-0.058-0.046-0.067
				c-0.012-0.01-0.029-0.019-0.048-0.023v-0.023c0.019-0.005,0.036-0.013,0.048-0.022c0.012-0.011,0.028-0.032,0.046-0.068
				l1.032-1.813h-0.709l-0.588,1.105c-0.048,0.088-0.08,0.16-0.097,0.216c-0.017,0.056-0.03,0.144-0.04,0.266h-0.028
				c-0.009-0.114-0.022-0.2-0.04-0.259s-0.05-0.133-0.099-0.223l-0.589-1.105h-0.708l1.026,1.813
				c0.017,0.03,0.032,0.051,0.046,0.063c0.014,0.014,0.031,0.022,0.051,0.027v0.023c-0.021,0.005-0.038,0.014-0.051,0.027
				c-0.014,0.013-0.029,0.034-0.046,0.063l-1.065,1.909h0.715l0.622-1.195c0.056-0.107,0.091-0.189,0.106-0.246
				c0.016-0.058,0.026-0.136,0.032-0.235h0.028c0.009,0.112,0.022,0.196,0.038,0.253c0.015,0.057,0.048,0.133,0.098,0.229
				l0.623,1.195h0.713L187.477,68.347z M184.414,66.328h-0.646v2.273c0,0.376-0.075,0.657-0.227,0.842
				c-0.152,0.186-0.38,0.279-0.687,0.279c-0.306,0-0.535-0.094-0.686-0.279c-0.151-0.185-0.227-0.466-0.227-0.842v-2.273h-0.645
				v2.209c0,0.325,0.033,0.59,0.097,0.795s0.164,0.377,0.299,0.518c0.147,0.155,0.321,0.273,0.521,0.357
				c0.201,0.082,0.414,0.124,0.64,0.124c0.227,0,0.441-0.042,0.641-0.124c0.2-0.084,0.375-0.202,0.522-0.357
				c0.134-0.141,0.234-0.313,0.299-0.518c0.065-0.205,0.097-0.47,0.097-0.795V66.328z M179.142,68.698
				c-0.036-0.054-0.082-0.104-0.136-0.151c-0.052-0.047-0.115-0.092-0.188-0.134l0.011-0.02c0.048,0.013,0.091,0.022,0.13,0.028
				c0.039,0.008,0.076,0.011,0.111,0.011c0.243,0,0.448-0.097,0.616-0.29c0.166-0.191,0.25-0.429,0.25-0.709
				c0-0.358-0.109-0.632-0.327-0.821c-0.217-0.188-0.536-0.284-0.955-0.284h-1.039v3.928h0.62v-1.385
				c0-0.146-0.004-0.255-0.011-0.325c-0.008-0.07-0.022-0.151-0.041-0.243l0.027-0.009c0.031,0.083,0.063,0.155,0.096,0.214
				c0.033,0.061,0.086,0.145,0.163,0.251l1.006,1.497h0.704L179.142,68.698z M179.195,67.863c-0.102,0.092-0.26,0.137-0.476,0.137
				h-0.382c-0.035,0-0.062,0.004-0.079,0.011c-0.018,0.006-0.037,0.018-0.057,0.034l-0.022-0.021
				c0.022-0.023,0.037-0.047,0.045-0.067c0.008-0.02,0.012-0.043,0.012-0.069v-0.899c-0.007-0.033-0.015-0.06-0.023-0.079
				c-0.008-0.019-0.019-0.039-0.034-0.059l0.022-0.021c0.024,0.018,0.044,0.029,0.061,0.035c0.016,0.006,0.041,0.008,0.075,0.008
				h0.382c0.214,0,0.373,0.046,0.475,0.138c0.103,0.091,0.153,0.232,0.153,0.425C179.347,67.629,179.297,67.771,179.195,67.863
				 M176.047,68.48c-0.131-0.16-0.313-0.264-0.543-0.306v-0.033c0.194-0.058,0.338-0.149,0.432-0.278
				c0.094-0.128,0.142-0.296,0.142-0.504c0-0.336-0.108-0.59-0.321-0.766c-0.215-0.178-0.531-0.266-0.948-0.266h-1.096v3.928h1.179
				c0.424,0,0.755-0.108,0.993-0.328c0.239-0.218,0.357-0.5,0.357-0.845C176.243,68.844,176.178,68.643,176.047,68.48
				 M175.345,67.799c-0.098,0.096-0.239,0.144-0.421,0.144h-0.507c-0.034,0-0.058,0.003-0.075,0.009
				c-0.017,0.008-0.037,0.02-0.06,0.038l-0.022-0.022c0.002-0.004,0.004-0.008,0.008-0.014c0.028-0.042,0.042-0.084,0.042-0.125
				v-0.844c-0.002-0.025-0.006-0.047-0.012-0.064c-0.007-0.018-0.019-0.041-0.038-0.07l0.022-0.021
				c0.021,0.018,0.04,0.029,0.057,0.035s0.042,0.008,0.078,0.008h0.432c0.227,0,0.391,0.043,0.493,0.127
				c0.101,0.084,0.151,0.214,0.151,0.391C175.493,67.568,175.444,67.705,175.345,67.799 M175.463,69.533
				c-0.124,0.111-0.296,0.167-0.518,0.167h-0.523c-0.034,0-0.058,0.003-0.076,0.01c-0.016,0.007-0.036,0.019-0.061,0.036
				l-0.021-0.023c0.02-0.027,0.032-0.047,0.037-0.061c0.006-0.016,0.008-0.041,0.008-0.076v-1.012c0-0.028-0.002-0.051-0.008-0.066
				c-0.004-0.018-0.017-0.041-0.037-0.07l0.021-0.024c0.024,0.019,0.045,0.03,0.061,0.037c0.018,0.007,0.042,0.01,0.076,0.01h0.501
				c0.14,0,0.252,0.013,0.337,0.04s0.159,0.074,0.222,0.14c0.051,0.056,0.092,0.12,0.121,0.195c0.03,0.075,0.044,0.151,0.044,0.231
				C175.648,69.266,175.586,69.421,175.463,69.533 M172.228,68.546h-1.358v0.581h1.358V68.546z M168.135,69.65
				c-0.035,0-0.062,0.002-0.08,0.01c-0.019,0.006-0.038,0.018-0.059,0.035l-0.02-0.02c0.016-0.021,0.026-0.041,0.033-0.061
				c0.008-0.02,0.011-0.045,0.011-0.078V68.67c0-0.027-0.003-0.051-0.011-0.073c-0.007-0.021-0.018-0.042-0.033-0.062l0.022-0.022
				c0.02,0.017,0.039,0.028,0.056,0.033c0.017,0.005,0.043,0.009,0.08,0.011h1.326v-0.595h-1.326c-0.034,0-0.059,0.003-0.076,0.009
				c-0.018,0.005-0.039,0.018-0.063,0.035l-0.022-0.021c0.02-0.028,0.032-0.052,0.038-0.069c0.007-0.019,0.01-0.04,0.01-0.067
				v-0.799c0-0.028-0.003-0.053-0.011-0.074c-0.007-0.021-0.018-0.043-0.033-0.064l0.02-0.021c0.028,0.018,0.051,0.029,0.071,0.037
				c0.019,0.006,0.042,0.01,0.068,0.01h1.517l-0.066-0.607h-2.195v3.928h2.189l0.072-0.605H168.135z M165.789,66.323h-0.646v3.933
				h0.646V66.323z M163.54,66.328h-0.623v2.414c0,0.113,0.009,0.229,0.027,0.351c0.019,0.12,0.049,0.267,0.092,0.438l-0.028,0.006
				c-0.051-0.149-0.101-0.276-0.15-0.379c-0.049-0.104-0.106-0.205-0.173-0.303l-1.735-2.527h-0.579v3.928h0.625v-2.418
				c0-0.104-0.008-0.207-0.023-0.311c-0.016-0.104-0.048-0.262-0.096-0.474l0.028-0.005c0.063,0.177,0.113,0.307,0.154,0.391
				c0.039,0.082,0.096,0.178,0.169,0.285l1.732,2.531h0.579V66.328z M158.457,66.823c-0.37-0.38-0.847-0.569-1.432-0.569
				c-0.566,0-1.033,0.191-1.399,0.576c-0.367,0.384-0.55,0.87-0.55,1.459c0,0.596,0.184,1.084,0.551,1.465s0.839,0.572,1.415,0.572
				c0.574,0,1.045-0.191,1.415-0.572c0.369-0.381,0.553-0.867,0.553-1.46C159.01,67.691,158.826,67.202,158.457,66.823
				 M157.996,69.32c-0.241,0.261-0.559,0.391-0.954,0.391c-0.395,0-0.713-0.13-0.954-0.391c-0.241-0.26-0.361-0.604-0.361-1.031
				c0-0.427,0.121-0.771,0.364-1.031c0.243-0.262,0.562-0.393,0.957-0.393c0.387,0,0.703,0.133,0.945,0.398
				c0.242,0.264,0.364,0.605,0.364,1.025C158.357,68.717,158.236,69.061,157.996,69.32 M152.882,69.65
				c-0.035,0-0.063,0.002-0.081,0.01c-0.018,0.006-0.036,0.018-0.055,0.035l-0.022-0.023c0.017-0.018,0.028-0.035,0.035-0.052
				c0.006-0.017,0.01-0.044,0.01-0.083v-3.214h-0.648v3.933h1.996l0.097-0.605H152.882z M149.611,69.65
				c-0.035,0-0.062,0.002-0.08,0.01c-0.019,0.006-0.037,0.018-0.055,0.035l-0.022-0.023c0.016-0.018,0.028-0.035,0.034-0.052
				c0.006-0.017,0.009-0.044,0.009-0.083v-3.214h-0.647v3.933h1.995l0.098-0.605H149.611z M146.256,66.328h-0.562l-1.428,3.928
				h0.647l0.418-1.178h1.292l0.415,1.178h0.645L146.256,66.328z M146.472,68.526c-0.02-0.007-0.04-0.013-0.058-0.017
				s-0.04-0.006-0.066-0.006h-0.745c-0.023,0-0.043,0.002-0.059,0.004c-0.016,0.004-0.036,0.01-0.063,0.019l-0.02-0.027
				c0.017-0.013,0.029-0.026,0.039-0.039c0.009-0.013,0.018-0.03,0.025-0.053l0.374-1.077c0.017-0.045,0.03-0.11,0.04-0.194
				s0.017-0.18,0.021-0.286h0.03c0.003,0.106,0.011,0.202,0.021,0.286c0.011,0.084,0.024,0.149,0.041,0.194l0.368,1.077
				c0.007,0.022,0.016,0.04,0.026,0.053c0.011,0.013,0.025,0.026,0.043,0.039L146.472,68.526z M143.002,66.328l-0.742,2.58
				c-0.029,0.104-0.05,0.195-0.061,0.277c-0.012,0.08-0.02,0.213-0.026,0.396h-0.033c-0.019-0.19-0.035-0.326-0.05-0.407
				c-0.015-0.08-0.038-0.169-0.069-0.266l-0.675-1.99l-0.673,1.996c-0.033,0.092-0.057,0.18-0.072,0.26
				c-0.015,0.081-0.032,0.217-0.05,0.407h-0.033c-0.006-0.185-0.013-0.316-0.023-0.396c-0.01-0.08-0.031-0.172-0.062-0.277
				l-0.742-2.58h-0.687l1.19,3.928h0.584l0.49-1.568c0.015-0.051,0.027-0.119,0.037-0.208c0.011-0.089,0.019-0.196,0.024-0.323
				l0.028-0.003c0.005,0.126,0.013,0.235,0.024,0.323c0.01,0.088,0.023,0.159,0.04,0.211l0.493,1.568h0.578l1.196-3.928H143.002z"/>
			<path d="M205.764,56.624h-1.129v4.382c0,0.205,0.016,0.416,0.049,0.637c0.035,0.219,0.09,0.484,0.166,0.796l-0.051,0.011
				c-0.094-0.271-0.184-0.502-0.273-0.689c-0.088-0.188-0.193-0.37-0.314-0.547l-3.15-4.589h-1.05v7.132h1.136v-4.393
				c0-0.188-0.016-0.375-0.045-0.563c-0.027-0.188-0.084-0.474-0.172-0.859l0.051-0.011c0.114,0.322,0.206,0.559,0.28,0.709
				c0.072,0.151,0.174,0.324,0.309,0.518l3.146,4.6h1.049V56.624z M196.601,57.521c-0.67-0.688-1.536-1.032-2.599-1.032
				c-1.029,0-1.876,0.349-2.54,1.045c-0.666,0.697-0.997,1.58-0.997,2.649c0,1.081,0.333,1.968,1,2.66
				c0.667,0.692,1.522,1.038,2.568,1.038c1.042,0,1.898-0.346,2.568-1.038s1.006-1.575,1.006-2.651
				C197.607,59.101,197.271,58.209,196.601,57.521 M195.764,62.057c-0.438,0.473-1.015,0.708-1.731,0.708
				c-0.717,0-1.294-0.235-1.731-0.708s-0.657-1.098-0.657-1.874c0-0.774,0.221-1.398,0.661-1.872
				c0.441-0.475,1.02-0.712,1.736-0.712c0.703,0,1.275,0.24,1.717,0.722c0.439,0.48,0.66,1.102,0.66,1.862
				C196.419,60.959,196.201,61.584,195.764,62.057 M187.985,56.613h-1.17v7.142h1.17V56.613z M184.524,56.624h-4.221l-0.151,1.07
				h1.478c0.063,0,0.112-0.006,0.145-0.017c0.034-0.013,0.067-0.033,0.101-0.064l0.045,0.041c-0.038,0.054-0.06,0.096-0.071,0.128
				c-0.01,0.032-0.015,0.071-0.015,0.118v5.855h1.155V57.9c0-0.054-0.005-0.098-0.017-0.134c-0.012-0.034-0.033-0.073-0.063-0.118
				l0.041-0.039c0.042,0.033,0.08,0.056,0.11,0.068c0.03,0.011,0.076,0.017,0.136,0.017h1.482L184.524,56.624z M176.689,56.624
				h-1.021l-2.593,7.132h1.176l0.759-2.142h2.348l0.753,2.142h1.17L176.689,56.624z M177.082,60.614
				c-0.037-0.013-0.072-0.023-0.105-0.03c-0.034-0.006-0.074-0.011-0.121-0.011h-1.352c-0.044,0-0.079,0.003-0.108,0.009
				c-0.028,0.004-0.066,0.016-0.113,0.032l-0.035-0.05c0.03-0.024,0.054-0.047,0.071-0.07c0.016-0.023,0.031-0.057,0.044-0.096
				l0.679-1.955c0.03-0.084,0.054-0.201,0.072-0.355c0.019-0.151,0.031-0.324,0.038-0.52h0.056c0.006,0.195,0.019,0.368,0.037,0.52
				c0.019,0.154,0.043,0.271,0.073,0.355l0.668,1.955c0.013,0.039,0.029,0.072,0.048,0.096c0.018,0.023,0.044,0.046,0.078,0.07
				L177.082,60.614z M169.426,60.926c-0.067-0.098-0.149-0.188-0.246-0.273c-0.097-0.086-0.211-0.167-0.342-0.244l0.02-0.035
				c0.087,0.023,0.167,0.041,0.237,0.053c0.07,0.012,0.137,0.018,0.201,0.018c0.442,0,0.815-0.175,1.118-0.525
				c0.303-0.35,0.455-0.779,0.455-1.289c0-0.65-0.198-1.146-0.593-1.49c-0.395-0.343-0.973-0.515-1.733-0.515h-1.885v7.132h1.126
				v-2.514c0-0.268-0.007-0.465-0.021-0.593s-0.038-0.274-0.076-0.442l0.05-0.016c0.057,0.151,0.115,0.281,0.173,0.391
				c0.059,0.107,0.157,0.26,0.294,0.454l1.83,2.72h1.276L169.426,60.926z M169.521,59.41c-0.184,0.166-0.473,0.25-0.864,0.25h-0.693
				c-0.064,0-0.111,0.006-0.144,0.018c-0.032,0.011-0.065,0.031-0.103,0.062l-0.041-0.04c0.041-0.043,0.068-0.084,0.083-0.121
				c0.015-0.036,0.022-0.078,0.022-0.125V57.82c-0.013-0.061-0.028-0.107-0.043-0.143c-0.015-0.036-0.036-0.072-0.063-0.109
				l0.041-0.04c0.043,0.033,0.08,0.056,0.11,0.065c0.031,0.01,0.075,0.016,0.136,0.016h0.693c0.389,0,0.676,0.082,0.861,0.248
				c0.187,0.166,0.279,0.423,0.279,0.771C169.797,58.984,169.706,59.244,169.521,59.41 M161.707,54.428l-0.493,1.382h0.864
				l0.925-1.382H161.707z M161.44,62.654c-0.063,0-0.112,0.006-0.146,0.018c-0.034,0.012-0.068,0.033-0.106,0.063l-0.034-0.034
				c0.026-0.038,0.046-0.073,0.06-0.108c0.014-0.035,0.021-0.083,0.021-0.143v-1.574c0-0.049-0.007-0.094-0.021-0.133
				c-0.013-0.038-0.034-0.076-0.06-0.113l0.04-0.04c0.036,0.03,0.071,0.051,0.101,0.061c0.03,0.011,0.079,0.017,0.146,0.021h2.408
				v-1.08h-2.408c-0.061,0-0.106,0.004-0.138,0.014c-0.032,0.011-0.07,0.032-0.114,0.066l-0.04-0.041
				c0.033-0.051,0.056-0.092,0.067-0.125c0.012-0.034,0.018-0.074,0.018-0.121V57.93c0-0.049-0.007-0.094-0.021-0.133
				c-0.013-0.038-0.034-0.077-0.06-0.117l0.034-0.041c0.051,0.034,0.093,0.057,0.128,0.068c0.036,0.012,0.076,0.018,0.124,0.018
				h2.754l-0.121-1.101h-3.985v7.132h3.975l0.131-1.102H161.44z M156.652,57.629c-0.711-0.67-1.611-1.005-2.704-1.005h-1.915v7.132
				h1.874c1.129,0,2.046-0.337,2.752-1.011c0.705-0.673,1.058-1.524,1.058-2.554C157.718,59.153,157.362,58.299,156.652,57.629
				 M155.833,61.984c-0.49,0.467-1.111,0.7-1.865,0.7h-0.563c-0.067,0-0.116,0.005-0.146,0.016c-0.03,0.009-0.063,0.031-0.101,0.064
				l-0.045-0.04c0.037-0.037,0.06-0.07,0.071-0.1c0.009-0.031,0.015-0.08,0.015-0.146V57.9c0-0.051-0.006-0.092-0.018-0.126
				c-0.011-0.033-0.034-0.073-0.067-0.12l0.045-0.045c0.043,0.033,0.081,0.056,0.11,0.068c0.03,0.011,0.076,0.017,0.136,0.017h0.618
				c0.73,0,1.337,0.235,1.82,0.706c0.482,0.471,0.723,1.068,0.723,1.791C156.567,60.919,156.322,61.517,155.833,61.984
				 M147.074,54.428l-0.493,1.382h0.864l0.925-1.382H147.074z M146.807,62.654c-0.063,0-0.112,0.006-0.146,0.018
				c-0.033,0.012-0.069,0.033-0.105,0.063l-0.036-0.034c0.027-0.038,0.048-0.073,0.061-0.108c0.014-0.035,0.021-0.083,0.021-0.143
				v-1.574c0-0.049-0.007-0.094-0.021-0.133c-0.013-0.038-0.033-0.076-0.061-0.113l0.041-0.04c0.037,0.03,0.07,0.051,0.1,0.061
				c0.03,0.011,0.079,0.017,0.146,0.021h2.407v-1.08h-2.407c-0.06,0-0.105,0.004-0.138,0.014c-0.032,0.011-0.069,0.032-0.113,0.066
				l-0.041-0.041c0.034-0.051,0.057-0.092,0.068-0.125c0.012-0.034,0.018-0.074,0.018-0.121V57.93c0-0.049-0.007-0.094-0.021-0.133
				c-0.013-0.038-0.033-0.077-0.061-0.117l0.036-0.041c0.05,0.034,0.093,0.057,0.128,0.068s0.076,0.018,0.123,0.018h2.754
				l-0.121-1.101h-3.985v7.132h3.975l0.13-1.102H146.807z M143.121,56.624h-4.015v7.132h1.176v-2.881
				c0-0.06-0.006-0.105-0.018-0.138c-0.012-0.032-0.033-0.069-0.063-0.113l0.04-0.04c0.043,0.033,0.081,0.057,0.111,0.068
				s0.076,0.018,0.135,0.018h2.387v-1.08h-2.407c-0.073,0-0.124,0.004-0.15,0.014c-0.026,0.011-0.061,0.031-0.101,0.061
				l-0.041-0.035c0.044-0.051,0.072-0.092,0.085-0.125c0.014-0.034,0.021-0.074,0.021-0.121V57.94
				c-0.013-0.07-0.027-0.12-0.041-0.15s-0.035-0.062-0.065-0.096l0.045-0.04c0.043,0.033,0.081,0.055,0.111,0.065
				c0.03,0.01,0.075,0.015,0.135,0.015h2.84L143.121,56.624z"/>
		</g>
		<rect x="132.264" y="0" fill="none" width="80.347" height="77"/>
	</g>
</g>
</svg>
