<?xml version="1.0" ?>
<svg xmlns="http://www.w3.org/2000/svg" version="1.2" viewBox="0, 0, 400,400" baseProfile="tiny-ps">
	
  
	<title>bimi-svg-tiny-12-ps</title>
	
  
	<g id="svgg">
		
    
		<path id="path0" d="M194.900 14.699 C 197.705 14.768,202.295 14.768,205.100 14.699 C 207.905 14.630,205.610 14.574,200.000 14.574 C 194.390 14.574,192.095 14.630,194.900 14.699 M182.400 15.200 C 180.348 15.632,182.655 15.646,185.400 15.218 L 187.400 14.907 185.600 14.906 C 184.610 14.906,183.170 15.038,182.400 15.200 M212.833 14.948 C 212.925 15.029,214.350 15.196,216.000 15.319 C 218.224 15.484,218.586 15.452,217.400 15.194 C 215.799 14.846,212.519 14.669,212.833 14.948 M175.800 16.000 C 174.137 16.423,175.774 16.442,177.800 16.023 C 179.145 15.745,179.209 15.692,178.200 15.693 C 177.540 15.694,176.460 15.832,175.800 16.000 M222.200 16.023 C 224.226 16.442,225.863 16.423,224.200 16.000 C 223.540 15.832,222.460 15.694,221.800 15.693 C 220.791 15.692,220.855 15.745,222.200 16.023 M170.000 16.800 C 168.656 17.231,170.108 17.231,171.800 16.800 C 172.878 16.526,172.898 16.494,172.000 16.487 C 171.450 16.483,170.550 16.624,170.000 16.800 M228.200 16.800 C 229.892 17.231,231.344 17.231,230.000 16.800 C 229.450 16.624,228.550 16.483,228.000 16.487 C 227.102 16.494,227.122 16.526,228.200 16.800 M165.200 17.600 C 164.408 17.854,164.367 17.920,165.000 17.920 C 165.440 17.920,166.250 17.776,166.800 17.600 C 167.592 17.346,167.633 17.280,167.000 17.280 C 166.560 17.280,165.750 17.424,165.200 17.600 M233.200 17.600 C 233.750 17.776,234.560 17.920,235.000 17.920 C 235.633 17.920,235.592 17.854,234.800 17.600 C 234.250 17.424,233.440 17.280,233.000 17.280 C 232.367 17.280,232.408 17.346,233.200 17.600 M161.400 18.400 C 160.896 18.617,160.822 18.744,161.200 18.744 C 161.530 18.744,162.160 18.589,162.600 18.400 C 163.104 18.183,163.178 18.056,162.800 18.056 C 162.470 18.056,161.840 18.211,161.400 18.400 M237.400 18.400 C 237.840 18.589,238.470 18.744,238.800 18.744 C 239.178 18.744,239.104 18.617,238.600 18.400 C 238.160 18.211,237.530 18.056,237.200 18.056 C 236.822 18.056,236.896 18.183,237.400 18.400 M157.600 19.200 C 156.796 19.457,156.757 19.523,157.400 19.532 C 157.840 19.538,158.560 19.389,159.000 19.200 C 160.019 18.762,158.968 18.762,157.600 19.200 M241.000 19.200 C 241.440 19.389,242.160 19.538,242.600 19.532 C 243.243 19.523,243.204 19.457,242.400 19.200 C 241.032 18.762,239.981 18.762,241.000 19.200 M154.200 20.000 C 153.696 20.217,153.622 20.344,154.000 20.344 C 154.330 20.344,154.960 20.189,155.400 20.000 C 155.904 19.783,155.978 19.656,155.600 19.656 C 155.270 19.656,154.640 19.811,154.200 20.000 M244.600 20.000 C 245.040 20.189,245.670 20.344,246.000 20.344 C 246.378 20.344,246.304 20.217,245.800 20.000 C 245.360 19.811,244.730 19.656,244.400 19.656 C 244.022 19.656,244.096 19.783,244.600 20.000 M148.400 21.600 C 147.576 21.864,147.541 21.926,148.200 21.954 C 148.640 21.973,149.270 21.813,149.600 21.600 C 150.301 21.147,149.814 21.147,148.400 21.600 M280.433 32.949 C 280.845 33.317,283.200 34.400,283.200 34.221 C 283.200 33.990,280.982 32.800,280.553 32.800 C 280.396 32.800,280.342 32.867,280.433 32.949 M110.300 37.429 C 108.805 38.240,108.896 38.578,110.400 37.800 C 111.060 37.459,111.600 37.094,111.600 36.990 C 111.600 36.732,111.557 36.747,110.300 37.429 M293.400 39.796 C 294.294 40.539,296.828 41.909,296.200 41.310 C 295.980 41.100,295.080 40.524,294.200 40.030 C 293.320 39.535,292.960 39.430,293.400 39.796 M105.097 40.366 C 103.498 41.391,103.203 41.806,104.600 41.066 C 106.276 40.177,107.071 39.608,106.600 39.635 C 106.380 39.648,105.704 39.977,105.097 40.366 M100.196 43.452 C 97.360 45.331,95.601 46.764,97.800 45.405 C 101.447 43.150,103.604 41.600,103.096 41.600 C 103.038 41.600,101.733 42.433,100.196 43.452 M297.574 42.324 C 298.109 42.759,299.099 43.419,299.774 43.791 L 301.000 44.467 300.026 43.676 C 299.491 43.241,298.501 42.581,297.826 42.209 L 296.600 41.533 297.574 42.324 M94.229 47.408 C 93.144 48.158,91.974 49.078,91.629 49.453 C 90.996 50.139,94.895 47.526,95.986 46.533 C 96.963 45.644,96.306 45.971,94.229 47.408 M304.800 46.943 C 304.800 47.043,305.719 47.785,306.842 48.592 C 307.965 49.399,308.765 49.868,308.621 49.634 C 308.320 49.148,304.800 46.668,304.800 46.943 M86.200 53.444 L 84.600 54.876 86.300 53.604 C 87.763 52.510,88.291 51.983,87.900 52.006 C 87.845 52.009,87.080 52.656,86.200 53.444 M80.894 57.612 C 80.175 58.265,79.737 58.800,79.919 58.800 C 80.101 58.800,80.768 58.260,81.400 57.600 C 82.870 56.065,82.586 56.072,80.894 57.612 M318.829 57.656 C 322.001 60.638,326.922 64.866,325.800 63.644 C 325.140 62.926,322.980 60.982,321.000 59.325 C 319.020 57.668,318.043 56.917,318.829 57.656 M74.581 63.300 L 73.000 65.000 74.700 63.419 C 75.635 62.549,76.400 61.784,76.400 61.719 C 76.400 61.416,76.052 61.719,74.581 63.300 M68.189 69.300 L 65.400 72.200 68.300 69.411 C 70.994 66.820,71.383 66.400,71.089 66.400 C 71.028 66.400,69.723 67.705,68.189 69.300 M332.200 70.000 C 334.171 71.980,335.873 73.600,335.983 73.600 C 336.093 73.600,334.571 71.980,332.600 70.000 C 330.629 68.020,328.927 66.400,328.817 66.400 C 328.707 66.400,330.229 68.020,332.200 70.000 M62.000 75.800 C 61.028 76.790,60.323 77.600,60.433 77.600 C 60.543 77.600,61.428 76.790,62.400 75.800 C 63.372 74.810,64.077 74.000,63.967 74.000 C 63.857 74.000,62.972 74.810,62.000 75.800 M339.349 77.716 C 340.420 78.972,341.382 80.000,341.486 80.000 C 341.754 80.000,338.423 76.061,337.864 75.717 C 337.609 75.561,338.277 76.460,339.349 77.716 M55.590 83.300 C 54.850 84.235,53.628 85.765,52.874 86.700 C 52.121 87.635,51.595 88.400,51.707 88.400 C 51.818 88.400,52.950 87.095,54.221 85.500 C 57.283 81.658,57.327 81.600,57.116 81.600 C 57.016 81.600,56.329 82.365,55.590 83.300 M346.791 86.788 C 347.257 87.441,347.842 88.102,348.091 88.256 C 348.341 88.411,348.041 87.876,347.425 87.068 C 346.088 85.315,345.584 85.092,346.791 86.788 M50.250 90.088 C 49.696 90.796,49.323 91.456,49.421 91.554 C 49.520 91.653,49.646 91.658,49.701 91.567 C 49.757 91.475,50.212 90.815,50.713 90.100 C 51.889 88.422,51.560 88.414,50.250 90.088 M349.375 90.132 C 349.991 90.939,350.576 91.600,350.675 91.600 C 350.953 91.600,349.221 89.260,348.709 88.944 C 348.459 88.789,348.759 89.324,349.375 90.132 M353.856 96.552 C 354.680 97.776,355.428 98.706,355.516 98.617 C 355.715 98.419,353.348 94.939,352.773 94.583 C 352.544 94.442,353.031 95.328,353.856 96.552 M42.646 101.400 C 42.291 101.950,41.709 102.895,41.353 103.500 L 40.705 104.600 41.510 103.626 C 42.460 102.476,43.721 100.400,43.469 100.400 C 43.371 100.400,43.001 100.850,42.646 101.400 M358.360 103.400 C 359.034 104.705,359.588 105.428,359.585 105.000 C 359.583 104.780,359.214 104.150,358.764 103.600 C 358.221 102.936,358.085 102.869,358.360 103.400 M360.015 106.200 C 360.017 106.420,360.386 107.050,360.836 107.600 C 361.379 108.264,361.515 108.331,361.240 107.800 C 360.566 106.495,360.012 105.772,360.015 106.200 M38.200 108.800 C 37.859 109.460,37.669 110.000,37.779 110.000 C 37.889 110.000,38.259 109.460,38.600 108.800 C 38.941 108.140,39.131 107.600,39.021 107.600 C 38.911 107.600,38.541 108.140,38.200 108.800 M30.272 124.619 C 29.332 126.589,29.464 126.924,30.447 125.062 C 30.893 124.216,31.187 123.454,31.101 123.367 C 31.014 123.281,30.641 123.844,30.272 124.619 M62.600 130.000 C 62.464 130.220,62.447 130.552,62.562 130.739 C 62.735 131.019,63.889 135.892,65.607 143.600 C 66.025 145.474,67.577 152.251,67.989 154.000 C 68.171 154.770,68.536 156.390,68.800 157.600 C 69.560 161.077,69.824 162.247,71.191 168.200 C 71.899 171.280,72.816 175.330,73.229 177.200 C 73.642 179.070,74.534 183.030,75.211 186.000 C 76.501 191.655,76.739 192.707,78.775 201.800 C 79.465 204.880,80.301 208.570,80.632 210.000 C 81.817 215.109,81.984 215.848,82.808 219.600 C 83.267 221.690,83.802 224.030,83.996 224.800 C 84.190 225.570,84.528 227.010,84.747 228.000 C 85.423 231.066,85.926 233.270,86.753 236.800 C 87.191 238.670,87.946 242.000,88.429 244.200 C 88.913 246.400,89.723 250.000,90.231 252.200 C 90.738 254.400,91.713 258.720,92.396 261.800 C 93.080 264.880,93.894 268.480,94.205 269.800 C 94.516 271.120,95.132 273.839,95.573 275.843 C 96.015 277.847,96.557 279.962,96.778 280.543 L 97.180 281.600 122.738 281.600 L 148.296 281.600 148.748 279.800 C 148.997 278.810,149.370 277.235,149.578 276.300 C 149.786 275.365,150.336 272.980,150.800 271.000 C 151.264 269.020,151.804 266.680,152.000 265.800 C 152.196 264.920,152.736 262.580,153.200 260.600 C 153.664 258.620,154.204 256.280,154.400 255.400 C 154.732 253.911,155.946 248.699,156.823 245.000 C 157.032 244.120,158.012 239.800,159.003 235.400 C 159.993 231.000,160.995 226.590,161.229 225.600 C 161.464 224.610,161.814 223.080,162.006 222.200 C 162.199 221.320,162.736 218.980,163.200 217.000 C 163.664 215.020,164.206 212.680,164.404 211.800 C 166.820 201.075,166.735 201.375,167.222 201.862 C 167.576 202.216,168.042 203.896,169.201 209.000 C 169.401 209.880,169.843 211.815,170.182 213.300 C 170.522 214.785,171.078 217.215,171.418 218.700 C 171.757 220.185,172.199 222.120,172.400 223.000 C 172.805 224.777,173.206 226.528,175.602 237.000 C 176.508 240.960,177.598 245.730,178.023 247.600 C 178.449 249.470,179.257 252.980,179.819 255.400 C 181.957 264.605,183.505 271.294,184.031 273.600 C 184.257 274.590,184.761 276.750,185.150 278.400 L 185.859 281.400 211.595 281.400 L 237.332 281.400 238.066 278.400 C 238.470 276.750,239.158 273.780,239.594 271.800 C 240.031 269.820,241.181 264.690,242.150 260.400 C 243.120 256.110,244.391 250.440,244.975 247.800 C 246.189 242.311,247.459 236.864,248.017 234.754 C 248.228 233.958,248.400 232.743,248.400 232.054 L 248.400 230.800 244.600 230.800 L 240.800 230.800 240.800 213.800 L 240.800 196.800 248.551 196.800 L 256.303 196.800 256.721 195.700 C 256.951 195.095,257.332 193.700,257.567 192.600 C 258.075 190.227,263.029 168.105,263.569 165.800 C 263.775 164.920,264.127 163.390,264.350 162.400 C 264.574 161.410,265.136 158.980,265.600 157.000 C 266.064 155.020,266.614 152.635,266.822 151.700 C 267.030 150.765,267.393 149.145,267.628 148.100 C 268.095 146.029,268.635 143.603,269.253 140.800 C 269.472 139.810,269.813 138.370,270.012 137.600 C 271.025 133.680,271.601 130.241,271.296 129.936 C 271.108 129.748,259.992 129.640,246.595 129.697 L 222.236 129.800 221.903 131.400 C 221.720 132.280,221.203 135.520,220.753 138.600 C 220.303 141.680,219.763 145.370,219.552 146.800 C 219.341 148.230,219.003 150.570,218.800 152.000 C 218.597 153.430,218.250 155.770,218.029 157.200 C 217.807 158.630,217.429 161.150,217.187 162.800 C 216.945 164.450,216.585 166.880,216.386 168.200 C 216.187 169.520,215.854 171.770,215.645 173.200 C 214.891 178.357,213.534 187.450,213.168 189.800 C 212.962 191.120,212.621 193.460,212.410 195.000 C 212.043 197.680,209.897 212.224,208.639 220.559 C 207.803 226.097,207.510 225.993,206.232 219.705 C 205.617 216.677,204.952 213.480,204.756 212.600 C 204.559 211.720,204.219 210.100,204.000 209.000 C 203.781 207.900,203.441 206.280,203.244 205.400 C 203.047 204.520,202.487 201.910,202.000 199.600 C 201.513 197.290,200.953 194.680,200.756 193.800 C 200.559 192.920,200.219 191.300,200.000 190.200 C 199.781 189.100,199.421 187.390,199.200 186.400 C 198.979 185.410,198.619 183.700,198.401 182.600 C 197.974 180.447,197.876 179.978,196.007 171.200 C 195.329 168.010,194.412 163.600,193.971 161.400 C 193.530 159.200,193.000 156.995,192.793 156.500 L 192.417 155.600 167.032 155.600 C 149.553 155.600,141.565 155.732,141.385 156.025 C 141.240 156.258,140.772 158.103,140.344 160.125 C 139.234 165.368,137.959 171.533,137.597 173.400 C 137.427 174.280,137.068 175.990,136.800 177.200 C 136.328 179.331,136.166 180.118,135.238 184.800 C 134.998 186.010,134.641 187.720,134.444 188.600 C 133.877 191.133,132.337 198.443,132.000 200.200 C 131.667 201.937,130.705 206.536,128.780 215.600 C 128.102 218.790,127.447 222.064,127.324 222.876 C 126.786 226.434,126.143 224.764,125.007 216.861 C 124.386 212.538,123.724 208.010,123.538 206.800 C 123.351 205.590,123.007 203.250,122.772 201.600 C 122.538 199.950,122.184 197.520,121.986 196.200 C 121.788 194.880,121.429 192.450,121.187 190.800 C 120.945 189.150,120.585 186.720,120.386 185.400 C 119.718 180.959,119.257 177.817,118.830 174.800 C 118.597 173.150,118.223 170.630,118.000 169.200 C 117.777 167.770,117.403 165.250,117.170 163.600 C 116.672 160.076,116.132 156.417,115.575 152.800 C 114.909 148.469,114.475 145.550,114.030 142.400 C 113.797 140.750,113.422 138.230,113.196 136.800 C 112.970 135.370,112.671 133.300,112.532 132.200 C 112.392 131.100,112.080 130.068,111.839 129.906 C 111.143 129.440,62.889 129.532,62.600 130.000 M375.616 140.125 C 375.592 140.611,376.867 144.400,377.054 144.400 C 377.143 144.400,377.093 143.905,376.943 143.300 C 376.622 142.008,375.638 139.654,375.616 140.125 M22.446 145.267 C 22.421 145.634,22.296 146.264,22.170 146.667 C 21.952 147.362,21.963 147.363,22.397 146.687 C 22.648 146.296,22.773 145.666,22.673 145.287 C 22.511 144.668,22.488 144.666,22.446 145.267 M377.844 147.400 C 378.173 148.871,378.402 149.190,378.394 148.167 C 378.391 147.745,378.205 147.130,377.982 146.800 C 377.685 146.362,377.648 146.524,377.844 147.400 M379.668 153.800 C 379.662 154.240,379.811 154.960,380.000 155.400 C 380.438 156.419,380.438 155.368,380.000 154.000 C 379.743 153.196,379.677 153.157,379.668 153.800 M19.829 154.629 C 19.681 155.215,19.638 155.772,19.732 155.866 C 19.827 155.960,20.024 155.558,20.171 154.971 C 20.319 154.385,20.362 153.828,20.268 153.734 C 20.173 153.640,19.976 154.042,19.829 154.629 M380.468 157.000 C 380.462 157.440,380.611 158.160,380.800 158.600 C 381.238 159.619,381.238 158.568,380.800 157.200 C 380.543 156.396,380.477 156.357,380.468 157.000 M19.246 157.267 C 19.221 157.634,19.096 158.264,18.970 158.667 C 18.752 159.362,18.763 159.363,19.197 158.687 C 19.448 158.296,19.573 157.666,19.473 157.287 C 19.311 156.668,19.288 156.666,19.246 157.267 M381.256 160.800 C 381.256 161.130,381.411 161.760,381.600 162.200 C 381.817 162.704,381.944 162.778,381.944 162.400 C 381.944 162.070,381.789 161.440,381.600 161.000 C 381.383 160.496,381.256 160.422,381.256 160.800 M18.200 161.600 C 18.050 162.073,18.017 162.550,18.127 162.660 C 18.237 162.770,18.450 162.473,18.600 162.000 C 18.750 161.527,18.783 161.050,18.673 160.940 C 18.563 160.830,18.350 161.127,18.200 161.600 M277.794 163.695 C 277.476 164.564,277.384 199.134,277.700 198.938 C 277.865 198.836,278.000 190.843,278.000 181.176 L 278.000 163.600 293.400 163.600 L 308.800 163.600 308.800 181.400 C 308.800 191.190,308.935 199.200,309.100 199.200 C 309.265 199.200,309.310 191.145,309.200 181.300 L 309.000 163.400 293.489 163.295 C 281.291 163.213,277.939 163.298,277.794 163.695 M382.080 164.600 C 382.080 165.040,382.224 165.850,382.400 166.400 C 382.654 167.192,382.720 167.233,382.720 166.600 C 382.720 166.160,382.576 165.350,382.400 164.800 C 382.146 164.008,382.080 163.967,382.080 164.600 M17.400 165.600 C 17.248 166.291,17.214 166.947,17.324 167.057 C 17.434 167.167,17.648 166.691,17.800 166.000 C 17.952 165.309,17.986 164.653,17.876 164.543 C 17.766 164.433,17.552 164.909,17.400 165.600 M382.887 169.200 C 382.883 169.750,383.024 170.650,383.200 171.200 C 383.631 172.544,383.631 171.092,383.200 169.400 C 382.926 168.322,382.894 168.302,382.887 169.200 M16.600 170.400 C 16.446 171.310,16.404 172.138,16.507 172.240 C 16.610 172.343,16.813 171.677,16.960 170.760 C 17.107 169.843,17.148 169.015,17.053 168.920 C 16.958 168.824,16.754 169.490,16.600 170.400 M383.695 174.800 C 383.695 175.350,383.832 176.340,384.000 177.000 C 384.272 178.070,384.305 178.092,384.305 177.200 C 384.305 176.650,384.168 175.660,384.000 175.000 C 383.728 173.930,383.695 173.908,383.695 174.800 M15.782 176.182 C 15.629 177.202,15.594 178.127,15.704 178.237 C 15.814 178.347,16.029 177.602,16.182 176.582 C 16.335 175.561,16.370 174.637,16.260 174.527 C 16.150 174.417,15.935 175.161,15.782 176.182 M384.677 183.000 C 384.798 184.760,384.965 186.275,385.049 186.367 C 385.319 186.664,385.150 183.450,384.799 181.600 C 384.542 180.247,384.512 180.594,384.677 183.000 M14.993 183.338 C 14.838 184.987,14.792 186.575,14.890 186.868 C 14.988 187.161,15.194 185.891,15.348 184.047 C 15.502 182.203,15.548 180.615,15.451 180.517 C 15.353 180.420,15.147 181.689,14.993 183.338 M385.374 200.000 C 385.374 205.610,385.430 207.905,385.499 205.100 C 385.568 202.295,385.568 197.705,385.499 194.900 C 385.430 192.095,385.374 194.390,385.374 200.000 M14.573 200.000 C 14.573 205.390,14.630 207.595,14.699 204.900 C 14.768 202.205,14.768 197.795,14.699 195.100 C 14.630 192.405,14.573 194.610,14.573 200.000 M242.981 213.800 C 242.981 221.940,243.034 225.213,243.100 221.074 C 243.165 216.934,243.165 210.274,243.099 206.274 C 243.034 202.273,242.981 205.660,242.981 213.800 M343.781 213.800 C 343.780 221.720,343.834 225.017,343.899 221.126 C 343.965 217.235,343.965 210.755,343.900 206.726 C 343.834 202.697,343.781 205.880,343.781 213.800 M14.830 214.433 C 14.846 215.405,15.012 217.010,15.198 218.000 C 15.443 219.308,15.476 218.870,15.317 216.400 C 15.081 212.748,14.781 211.536,14.830 214.433 M384.633 216.336 C 384.471 218.171,384.426 219.759,384.532 219.866 C 384.796 220.129,385.334 214.200,385.107 213.532 C 385.008 213.239,384.794 214.501,384.633 216.336 M15.693 222.600 C 15.694 223.260,15.832 224.340,16.000 225.000 C 16.423 226.663,16.442 225.026,16.023 223.000 C 15.745 221.655,15.692 221.591,15.693 222.600 M383.800 224.000 C 383.645 225.128,383.602 226.136,383.706 226.239 C 383.809 226.342,384.016 225.500,384.167 224.367 C 384.317 223.234,384.359 222.226,384.261 222.128 C 384.163 222.029,383.955 222.872,383.800 224.000 M16.480 228.600 C 16.480 229.040,16.624 229.850,16.800 230.400 C 17.054 231.192,17.120 231.233,17.120 230.600 C 17.120 230.160,16.976 229.350,16.800 228.800 C 16.546 228.008,16.480 227.967,16.480 228.600 M277.508 246.289 C 277.583 258.256,277.755 263.905,278.057 264.269 C 278.683 265.023,308.189 265.053,308.676 264.300 C 309.088 263.665,309.504 228.800,309.100 228.800 C 308.935 228.800,308.797 236.585,308.794 246.100 C 308.791 255.615,308.644 263.627,308.467 263.905 C 308.216 264.300,304.886 264.387,293.173 264.305 L 278.200 264.200 278.096 246.816 C 278.038 237.254,277.858 229.298,277.696 229.135 C 277.533 228.973,277.449 236.692,277.508 246.289 M17.268 233.200 C 17.288 234.239,17.918 235.946,17.932 235.000 C 17.938 234.560,17.789 233.840,17.600 233.400 C 17.389 232.910,17.261 232.832,17.268 233.200 M382.222 234.222 C 382.072 235.025,382.028 235.762,382.126 235.860 C 382.224 235.957,382.427 235.381,382.578 234.578 C 382.728 233.775,382.772 233.038,382.674 232.940 C 382.576 232.843,382.373 233.419,382.222 234.222 M18.056 237.200 C 18.056 237.530,18.211 238.160,18.400 238.600 C 18.617 239.104,18.744 239.178,18.744 238.800 C 18.744 238.470,18.589 237.840,18.400 237.400 C 18.183 236.896,18.056 236.822,18.056 237.200 M381.429 238.229 C 381.281 238.815,381.238 239.372,381.332 239.466 C 381.427 239.560,381.624 239.158,381.771 238.571 C 381.919 237.985,381.962 237.428,381.868 237.334 C 381.773 237.240,381.576 237.642,381.429 238.229 M18.868 240.800 C 18.888 241.839,19.518 243.546,19.532 242.600 C 19.538 242.160,19.389 241.440,19.200 241.000 C 18.989 240.510,18.861 240.432,18.868 240.800 M19.656 244.400 C 19.656 244.730,19.811 245.360,20.000 245.800 C 20.217 246.304,20.344 246.378,20.344 246.000 C 20.344 245.670,20.189 245.040,20.000 244.600 C 19.783 244.096,19.656 244.022,19.656 244.400 M379.800 245.200 C 379.648 245.891,379.607 246.541,379.709 246.642 C 379.811 246.744,380.009 246.253,380.150 245.550 C 380.291 244.847,380.331 244.198,380.241 244.108 C 380.150 244.017,379.952 244.509,379.800 245.200 M20.644 248.200 C 20.973 249.671,21.202 249.990,21.194 248.967 C 21.191 248.545,21.005 247.930,20.782 247.600 C 20.485 247.162,20.448 247.324,20.644 248.200 M378.846 248.867 C 378.821 249.234,378.696 249.864,378.570 250.267 C 378.352 250.962,378.363 250.963,378.797 250.287 C 379.048 249.896,379.173 249.266,379.073 248.887 C 378.911 248.268,378.888 248.266,378.846 248.867 M21.444 251.000 C 21.773 252.471,22.002 252.790,21.994 251.767 C 21.991 251.345,21.805 250.730,21.582 250.400 C 21.285 249.962,21.248 250.124,21.444 251.000 M36.600 288.400 C 36.941 289.060,37.311 289.600,37.421 289.600 C 37.531 289.600,37.341 289.060,37.000 288.400 C 36.659 287.740,36.289 287.200,36.179 287.200 C 36.069 287.200,36.259 287.740,36.600 288.400 M40.609 295.426 C 40.981 296.101,41.641 297.091,42.076 297.626 L 42.867 298.600 42.191 297.374 C 41.819 296.699,41.159 295.709,40.724 295.174 L 39.933 294.200 40.609 295.426 M359.353 294.900 C 357.976 297.236,357.886 297.435,358.587 296.600 C 359.400 295.632,360.100 294.400,359.838 294.400 C 359.733 294.400,359.515 294.625,359.353 294.900 M356.092 300.135 C 355.659 300.869,354.989 301.994,354.605 302.635 L 353.905 303.800 354.733 302.800 C 355.679 301.657,357.344 298.800,357.065 298.800 C 356.963 298.800,356.525 299.401,356.092 300.135 M44.400 301.338 C 44.400 301.797,46.981 305.585,47.299 305.593 C 47.530 305.598,46.144 303.422,44.523 301.233 C 44.456 301.142,44.400 301.189,44.400 301.338 M49.991 309.588 C 50.457 310.241,51.042 310.902,51.291 311.056 C 51.541 311.211,51.241 310.676,50.625 309.868 C 49.288 308.115,48.784 307.892,49.991 309.588 M347.800 312.000 C 346.784 313.320,346.043 314.400,346.153 314.400 C 346.263 314.400,347.184 313.320,348.200 312.000 C 349.216 310.680,349.957 309.600,349.847 309.600 C 349.737 309.600,348.816 310.680,347.800 312.000 M52.575 312.932 C 53.191 313.739,53.776 314.400,53.875 314.400 C 54.153 314.400,52.421 312.060,51.909 311.744 C 51.659 311.589,51.959 312.124,52.575 312.932 M344.203 316.622 C 343.382 317.624,342.776 318.503,342.855 318.576 C 342.935 318.649,343.688 317.829,344.529 316.754 C 346.459 314.288,346.202 314.183,344.203 316.622 M339.866 321.659 C 338.582 323.167,337.615 324.400,337.717 324.400 C 338.005 324.400,342.517 319.181,342.349 319.042 C 342.267 318.974,341.150 320.152,339.866 321.659 M59.999 321.999 C 60.919 323.098,61.881 324.126,62.136 324.283 C 62.391 324.439,61.723 323.540,60.651 322.284 C 59.580 321.028,58.618 320.000,58.514 320.000 C 58.410 320.000,59.079 320.899,59.999 321.999 M68.600 331.200 C 71.233 333.840,73.477 336.000,73.587 336.000 C 73.697 336.000,71.633 333.840,69.000 331.200 C 66.367 328.560,64.123 326.400,64.013 326.400 C 63.903 326.400,65.967 328.560,68.600 331.200 M331.000 331.200 C 328.367 333.840,326.303 336.000,326.413 336.000 C 326.523 336.000,328.767 333.840,331.400 331.200 C 334.033 328.560,336.097 326.400,335.987 326.400 C 335.877 326.400,333.633 328.560,331.000 331.200 M75.717 337.864 C 76.061 338.423,80.000 341.754,80.000 341.486 C 80.000 341.382,78.972 340.420,77.716 339.349 C 76.460 338.277,75.561 337.609,75.717 337.864 M322.975 338.900 L 321.800 340.200 323.100 339.025 C 323.815 338.379,324.400 337.794,324.400 337.725 C 324.400 337.416,324.070 337.688,322.975 338.900 M320.175 341.300 L 319.000 342.600 320.300 341.425 C 321.015 340.779,321.600 340.194,321.600 340.125 C 321.600 339.816,321.270 340.088,320.175 341.300 M82.469 343.876 C 84.713 345.689,85.117 345.875,83.418 344.312 C 82.528 343.494,81.651 342.819,81.469 342.812 C 81.287 342.805,81.737 343.284,82.469 343.876 M316.582 344.312 C 314.883 345.875,315.287 345.689,317.531 343.876 C 318.263 343.284,318.713 342.805,318.531 342.812 C 318.349 342.819,317.472 343.494,316.582 344.312 M87.000 347.356 C 87.880 348.144,88.765 348.791,88.967 348.794 C 89.168 348.797,89.258 348.745,89.167 348.677 C 89.075 348.610,88.190 347.963,87.200 347.239 L 85.400 345.924 87.000 347.356 M306.200 352.032 C 303.827 353.826,303.508 354.332,305.733 352.772 C 307.414 351.594,308.329 350.775,307.924 350.811 C 307.856 350.817,307.080 351.367,306.200 352.032 M94.405 352.741 C 94.408 352.883,95.713 353.832,97.305 354.848 C 102.531 358.185,102.787 358.078,97.700 354.684 C 95.885 353.473,94.402 352.599,94.405 352.741 M301.259 355.385 C 298.611 357.072,298.059 357.623,300.200 356.443 C 301.816 355.551,303.969 354.017,303.600 354.019 C 303.490 354.020,302.436 354.635,301.259 355.385 M103.400 358.607 C 103.840 358.966,104.560 359.435,105.000 359.651 L 105.800 360.044 105.000 359.393 C 104.560 359.034,103.840 358.565,103.400 358.349 L 102.600 357.956 103.400 358.607 M295.700 358.846 C 294.337 359.719,293.895 360.306,295.100 359.643 C 296.018 359.139,297.456 358.027,297.200 358.019 C 297.090 358.016,296.415 358.388,295.700 358.846 M116.400 365.796 C 116.400 366.070,118.849 367.284,119.032 367.101 C 119.119 367.014,118.562 366.644,117.795 366.278 C 117.028 365.912,116.400 365.695,116.400 365.796 M282.000 366.400 C 281.230 366.822,280.744 367.174,280.920 367.183 C 281.344 367.205,283.600 366.032,283.600 365.790 C 283.600 365.528,283.577 365.537,282.000 366.400 M260.694 375.085 C 259.645 375.435,258.860 375.794,258.950 375.883 C 259.132 376.065,263.200 374.794,263.200 374.554 C 263.200 374.307,262.721 374.409,260.694 375.085 M139.146 375.416 C 139.886 375.737,140.696 375.993,140.946 375.984 C 141.196 375.976,140.794 375.706,140.054 375.384 C 139.314 375.063,138.504 374.807,138.254 374.816 C 138.004 374.824,138.406 375.094,139.146 375.416 M144.833 377.344 C 144.925 377.423,145.540 377.608,146.200 377.756 C 147.076 377.952,147.238 377.915,146.800 377.618 C 146.260 377.253,144.432 376.998,144.833 377.344 M253.200 377.618 C 252.762 377.915,252.924 377.952,253.800 377.756 C 255.271 377.427,255.590 377.198,254.567 377.206 C 254.145 377.209,253.530 377.395,253.200 377.618 M147.633 378.144 C 147.725 378.223,148.340 378.408,149.000 378.556 C 149.876 378.752,150.038 378.715,149.600 378.418 C 149.060 378.053,147.232 377.798,147.633 378.144 M250.400 378.418 C 249.962 378.715,250.124 378.752,251.000 378.556 C 252.471 378.227,252.790 377.998,251.767 378.006 C 251.345 378.009,250.730 378.195,250.400 378.418 M150.433 378.944 C 150.525 379.023,151.140 379.208,151.800 379.356 C 152.676 379.552,152.838 379.515,152.400 379.218 C 151.860 378.853,150.032 378.598,150.433 378.944 M247.600 379.218 C 247.162 379.515,247.324 379.552,248.200 379.356 C 249.671 379.027,249.990 378.798,248.967 378.806 C 248.545 378.809,247.930 378.995,247.600 379.218 M153.633 379.744 C 153.725 379.823,154.340 380.008,155.000 380.156 C 155.876 380.352,156.038 380.315,155.600 380.018 C 155.060 379.653,153.232 379.398,153.633 379.744 M244.400 380.018 C 243.962 380.315,244.124 380.352,245.000 380.156 C 246.471 379.827,246.790 379.598,245.767 379.606 C 245.345 379.609,244.730 379.795,244.400 380.018 M157.600 380.800 C 158.968 381.238,160.019 381.238,159.000 380.800 C 158.560 380.611,157.840 380.462,157.400 380.468 C 156.757 380.477,156.796 380.543,157.600 380.800 M241.000 380.800 C 239.981 381.238,241.032 381.238,242.400 380.800 C 243.204 380.543,243.243 380.477,242.600 380.468 C 242.160 380.462,241.440 380.611,241.000 380.800 M161.400 381.600 C 161.840 381.789,162.470 381.944,162.800 381.944 C 163.178 381.944,163.104 381.817,162.600 381.600 C 162.160 381.411,161.530 381.256,161.200 381.256 C 160.822 381.256,160.896 381.383,161.400 381.600 M237.400 381.600 C 236.896 381.817,236.822 381.944,237.200 381.944 C 237.530 381.944,238.160 381.789,238.600 381.600 C 239.104 381.383,239.178 381.256,238.800 381.256 C 238.470 381.256,237.840 381.411,237.400 381.600 M164.033 382.147 C 164.125 382.228,164.920 382.404,165.800 382.538 C 166.915 382.707,167.158 382.671,166.600 382.419 C 165.832 382.071,163.690 381.844,164.033 382.147 M233.400 382.419 C 232.842 382.671,233.085 382.707,234.200 382.538 C 235.080 382.404,235.875 382.228,235.967 382.147 C 236.310 381.844,234.168 382.071,233.400 382.419 M175.000 384.000 C 175.660 384.168,176.740 384.305,177.400 384.305 L 178.600 384.305 177.400 384.000 C 176.740 383.832,175.660 383.695,175.000 383.695 L 173.800 383.695 175.000 384.000 M222.600 384.000 L 221.400 384.305 222.600 384.305 C 223.260 384.305,224.340 384.168,225.000 384.000 L 226.200 383.695 225.000 383.695 C 224.340 383.695,223.260 383.832,222.600 384.000 M182.000 384.820 C 182.990 384.997,184.430 385.132,185.200 385.120 C 186.497 385.101,186.467 385.076,184.800 384.780 C 183.810 384.603,182.370 384.468,181.600 384.480 C 180.303 384.499,180.333 384.524,182.000 384.820 M215.200 384.800 C 213.563 385.054,213.527 385.083,214.800 385.110 C 215.570 385.127,217.010 384.997,218.000 384.820 C 220.397 384.394,217.928 384.376,215.200 384.800 M191.916 385.497 C 193.299 385.575,195.459 385.574,196.716 385.495 C 197.972 385.416,196.840 385.352,194.200 385.353 C 191.560 385.353,190.532 385.418,191.916 385.497 M203.100 385.496 C 204.475 385.574,206.725 385.574,208.100 385.496 C 209.475 385.418,208.350 385.354,205.600 385.354 C 202.850 385.354,201.725 385.418,203.100 385.496 " stroke="none" fill="#940404" fill-rule="evenodd"/>
		
    
		<path id="path1" d="M187.200 0.800 C 187.200 1.043,185.400 1.200,182.600 1.200 C 179.800 1.200,178.000 1.357,178.000 1.600 C 178.000 1.833,176.667 2.000,174.800 2.000 C 172.933 2.000,171.600 2.167,171.600 2.400 C 171.600 2.626,170.467 2.800,169.000 2.800 C 167.533 2.800,166.400 2.974,166.400 3.200 C 166.400 3.420,165.410 3.600,164.200 3.600 C 162.990 3.600,162.000 3.780,162.000 4.000 C 162.000 4.220,161.010 4.400,159.800 4.400 C 158.590 4.400,157.600 4.580,157.600 4.800 C 157.600 5.020,156.880 5.200,156.000 5.200 C 155.120 5.200,154.400 5.380,154.400 5.600 C 154.400 5.820,153.680 6.000,152.800 6.000 C 151.920 6.000,151.200 6.180,151.200 6.400 C 151.200 6.620,150.671 6.800,150.024 6.800 C 149.377 6.800,148.736 6.980,148.600 7.200 C 148.464 7.420,147.733 7.600,146.976 7.600 C 146.219 7.600,145.600 7.757,145.600 7.948 C 145.600 8.140,144.525 8.418,143.212 8.567 C 141.899 8.715,140.718 9.009,140.589 9.218 C 140.459 9.428,139.823 9.600,139.176 9.600 C 138.529 9.600,138.000 9.780,138.000 10.000 C 138.000 10.220,137.460 10.400,136.800 10.400 C 136.140 10.400,135.600 10.580,135.600 10.800 C 135.600 11.020,135.060 11.200,134.400 11.200 C 133.740 11.200,133.200 11.380,133.200 11.600 C 133.200 11.820,132.761 12.000,132.224 12.000 C 131.687 12.000,131.136 12.180,131.000 12.400 C 130.864 12.620,130.403 12.800,129.976 12.800 C 129.549 12.800,129.200 12.980,129.200 13.200 C 129.200 13.420,128.838 13.600,128.395 13.600 C 127.952 13.600,127.187 13.808,126.695 14.062 C 124.818 15.033,124.393 15.200,123.805 15.200 C 123.472 15.200,123.200 15.380,123.200 15.600 C 123.200 15.820,122.840 16.000,122.400 16.000 C 121.960 16.000,121.600 16.180,121.600 16.400 C 121.600 16.620,121.060 16.800,120.400 16.800 C 119.740 16.800,119.200 16.980,119.200 17.200 C 119.200 17.420,118.840 17.600,118.400 17.600 C 117.960 17.600,117.600 17.780,117.600 18.000 C 117.600 18.220,117.240 18.400,116.800 18.400 C 116.360 18.400,116.000 18.580,116.000 18.800 C 116.000 19.020,115.640 19.200,115.200 19.200 C 114.760 19.200,114.400 19.380,114.400 19.600 C 114.400 19.820,113.950 20.000,113.400 20.000 C 112.850 20.000,112.400 20.146,112.400 20.325 C 112.400 20.504,111.770 20.898,111.000 21.200 C 110.230 21.502,109.600 21.896,109.600 22.075 C 109.600 22.254,109.330 22.400,109.000 22.400 C 108.670 22.400,108.400 22.580,108.400 22.800 C 108.400 23.020,108.040 23.200,107.600 23.200 C 107.160 23.200,106.800 23.380,106.800 23.600 C 106.800 23.820,106.440 24.000,106.000 24.000 C 105.560 24.000,105.200 24.180,105.200 24.400 C 105.200 24.620,104.909 24.800,104.554 24.800 C 103.838 24.800,99.877 26.826,99.667 27.300 C 99.593 27.465,99.188 27.600,98.767 27.600 C 98.345 27.600,98.000 27.780,98.000 28.000 C 98.000 28.220,97.764 28.400,97.475 28.400 C 97.187 28.400,96.602 28.715,96.175 29.100 C 95.749 29.485,94.905 30.055,94.300 30.368 C 93.695 30.680,93.200 31.085,93.200 31.268 C 93.200 31.450,92.930 31.600,92.600 31.600 C 92.270 31.600,92.000 31.780,92.000 32.000 C 92.000 32.220,91.680 32.400,91.288 32.400 C 90.897 32.400,90.317 32.760,90.000 33.200 C 89.683 33.640,89.143 34.000,88.800 34.000 C 88.457 34.000,87.917 34.360,87.600 34.800 C 87.283 35.240,86.820 35.600,86.571 35.600 C 86.322 35.600,85.554 36.140,84.863 36.800 C 84.172 37.460,83.375 38.000,83.092 38.000 C 82.809 38.000,82.317 38.360,82.000 38.800 C 81.683 39.240,81.231 39.600,80.996 39.600 C 80.760 39.600,79.772 40.320,78.800 41.200 C 77.828 42.080,76.898 42.800,76.734 42.800 C 76.570 42.800,76.023 43.209,75.518 43.709 C 75.013 44.208,73.970 45.059,73.200 45.598 C 72.430 46.137,70.957 47.438,69.926 48.489 C 68.895 49.540,67.866 50.400,67.639 50.400 C 67.121 50.400,50.400 67.036,50.400 67.552 C 50.400 67.760,49.320 69.027,48.000 70.368 C 46.680 71.708,45.600 72.946,45.600 73.119 C 45.600 73.291,44.880 74.228,44.000 75.200 C 43.120 76.172,42.400 77.088,42.400 77.234 C 42.400 77.380,41.770 78.187,41.000 79.028 C 40.230 79.869,39.600 80.751,39.600 80.990 C 39.600 81.228,39.240 81.683,38.800 82.000 C 38.360 82.317,38.000 82.809,38.000 83.092 C 38.000 83.375,37.460 84.172,36.800 84.863 C 36.140 85.554,35.600 86.322,35.600 86.571 C 35.600 86.820,35.240 87.283,34.800 87.600 C 34.360 87.917,34.000 88.457,34.000 88.800 C 34.000 89.143,33.640 89.683,33.200 90.000 C 32.760 90.317,32.400 90.814,32.400 91.105 C 32.400 91.396,32.069 91.989,31.664 92.423 C 31.259 92.858,30.674 93.705,30.364 94.307 C 30.054 94.908,29.485 95.749,29.100 96.175 C 28.715 96.602,28.400 97.187,28.400 97.475 C 28.400 97.764,28.220 98.000,28.000 98.000 C 27.780 98.000,27.600 98.345,27.600 98.767 C 27.600 99.188,27.465 99.593,27.300 99.667 C 26.826 99.877,24.800 103.838,24.800 104.554 C 24.800 104.909,24.620 105.200,24.400 105.200 C 24.180 105.200,24.000 105.560,24.000 106.000 C 24.000 106.440,23.820 106.800,23.600 106.800 C 23.380 106.800,23.200 107.160,23.200 107.600 C 23.200 108.040,23.020 108.400,22.800 108.400 C 22.580 108.400,22.400 108.670,22.400 109.000 C 22.400 109.330,22.220 109.600,22.000 109.600 C 21.780 109.600,21.600 109.960,21.600 110.400 C 21.600 110.840,21.465 111.201,21.300 111.203 C 20.941 111.207,20.000 113.144,20.000 113.880 C 20.000 114.166,19.820 114.400,19.600 114.400 C 19.380 114.400,19.200 114.760,19.200 115.200 C 19.200 115.640,19.020 116.000,18.800 116.000 C 18.580 116.000,18.400 116.360,18.400 116.800 C 18.400 117.240,18.220 117.600,18.000 117.600 C 17.780 117.600,17.600 117.960,17.600 118.400 C 17.600 118.840,17.420 119.200,17.200 119.200 C 16.980 119.200,16.800 119.740,16.800 120.400 C 16.800 121.060,16.620 121.600,16.400 121.600 C 16.180 121.600,16.000 121.960,16.000 122.400 C 16.000 122.840,15.820 123.200,15.600 123.200 C 15.380 123.200,15.200 123.555,15.200 123.988 C 15.200 124.421,14.840 125.417,14.400 126.200 C 13.960 126.983,13.600 127.979,13.600 128.412 C 13.600 128.845,13.420 129.200,13.200 129.200 C 12.980 129.200,12.800 129.549,12.800 129.976 C 12.800 130.403,12.620 130.864,12.400 131.000 C 12.180 131.136,12.000 131.676,12.000 132.200 C 12.000 132.724,11.820 133.264,11.600 133.400 C 11.380 133.536,11.200 134.076,11.200 134.600 C 11.200 135.124,11.020 135.664,10.800 135.800 C 10.580 135.936,10.400 136.476,10.400 137.000 C 10.400 137.524,10.220 138.064,10.000 138.200 C 9.780 138.336,9.600 138.876,9.600 139.400 C 9.600 139.924,9.428 140.459,9.218 140.589 C 9.009 140.718,8.715 141.899,8.567 143.212 C 8.418 144.525,8.140 145.600,7.948 145.600 C 7.757 145.600,7.600 146.129,7.600 146.776 C 7.600 147.423,7.420 148.064,7.200 148.200 C 6.980 148.336,6.800 149.067,6.800 149.824 C 6.800 150.581,6.620 151.200,6.400 151.200 C 6.180 151.200,6.000 152.100,6.000 153.200 C 6.000 154.300,5.820 155.200,5.600 155.200 C 5.380 155.200,5.200 155.920,5.200 156.800 C 5.200 157.680,5.020 158.400,4.800 158.400 C 4.580 158.400,4.400 159.199,4.400 160.176 C 4.400 161.153,4.220 162.064,4.000 162.200 C 3.780 162.336,3.600 163.427,3.600 164.624 C 3.600 165.821,3.420 166.800,3.200 166.800 C 2.978 166.800,2.800 167.867,2.800 169.200 C 2.800 170.533,2.622 171.600,2.400 171.600 C 2.169 171.600,2.000 172.859,2.000 174.576 C 2.000 176.213,1.820 177.664,1.600 177.800 C 1.370 177.942,1.200 180.044,1.200 182.744 C 1.200 185.430,1.024 187.616,0.788 187.852 C 0.040 188.600,0.838 221.386,1.624 222.180 C 1.831 222.389,2.000 223.874,2.000 225.480 C 2.000 227.160,2.170 228.400,2.400 228.400 C 2.622 228.400,2.800 229.467,2.800 230.800 C 2.800 232.133,2.978 233.200,3.200 233.200 C 3.420 233.200,3.600 234.179,3.600 235.376 C 3.600 236.573,3.780 237.664,4.000 237.800 C 4.220 237.936,4.400 238.847,4.400 239.824 C 4.400 240.801,4.580 241.600,4.800 241.600 C 5.020 241.600,5.200 242.320,5.200 243.200 C 5.200 244.080,5.380 244.800,5.600 244.800 C 5.820 244.800,6.000 245.700,6.000 246.800 C 6.000 247.900,6.180 248.800,6.400 248.800 C 6.620 248.800,6.800 249.419,6.800 250.176 C 6.800 250.933,6.980 251.664,7.200 251.800 C 7.420 251.936,7.600 252.577,7.600 253.224 C 7.600 253.871,7.757 254.400,7.948 254.400 C 8.140 254.400,8.418 255.475,8.567 256.788 C 8.715 258.101,9.009 259.282,9.218 259.411 C 9.428 259.541,9.600 260.076,9.600 260.600 C 9.600 261.124,9.780 261.664,10.000 261.800 C 10.220 261.936,10.400 262.577,10.400 263.224 C 10.400 263.871,10.580 264.400,10.800 264.400 C 11.020 264.400,11.200 264.839,11.200 265.376 C 11.200 265.913,11.380 266.464,11.600 266.600 C 11.820 266.736,12.000 267.276,12.000 267.800 C 12.000 268.324,12.180 268.864,12.400 269.000 C 12.620 269.136,12.800 269.597,12.800 270.024 C 12.800 270.451,12.980 270.800,13.200 270.800 C 13.420 270.800,13.600 271.155,13.600 271.588 C 13.600 272.021,13.960 273.017,14.400 273.800 C 14.840 274.583,15.200 275.579,15.200 276.012 C 15.200 276.445,15.380 276.800,15.600 276.800 C 15.820 276.800,16.000 277.160,16.000 277.600 C 16.000 278.040,16.180 278.400,16.400 278.400 C 16.620 278.400,16.800 278.839,16.800 279.376 C 16.800 279.913,16.980 280.464,17.200 280.600 C 17.420 280.736,17.600 281.197,17.600 281.624 C 17.600 282.051,17.780 282.400,18.000 282.400 C 18.220 282.400,18.400 282.760,18.400 283.200 C 18.400 283.640,18.580 284.000,18.800 284.000 C 19.020 284.000,19.200 284.360,19.200 284.800 C 19.200 285.240,19.380 285.600,19.600 285.600 C 19.820 285.600,20.000 285.960,20.000 286.400 C 20.000 286.840,20.180 287.200,20.400 287.200 C 20.620 287.200,20.800 287.560,20.800 288.000 C 20.800 288.440,20.980 288.800,21.200 288.800 C 21.420 288.800,21.600 289.160,21.600 289.600 C 21.600 290.040,21.780 290.400,22.000 290.400 C 22.220 290.400,22.400 290.670,22.400 291.000 C 22.400 291.330,22.580 291.600,22.800 291.600 C 23.020 291.600,23.200 291.960,23.200 292.400 C 23.200 292.840,23.380 293.200,23.600 293.200 C 23.820 293.200,24.000 293.560,24.000 294.000 C 24.000 294.440,24.180 294.800,24.400 294.800 C 24.620 294.800,24.800 295.064,24.800 295.386 C 24.800 296.199,26.076 298.800,26.474 298.800 C 26.653 298.800,26.800 299.145,26.800 299.567 C 26.800 299.988,26.935 300.393,27.100 300.467 C 27.265 300.540,27.833 301.455,28.363 302.500 C 28.892 303.545,29.477 304.400,29.663 304.400 C 29.848 304.400,30.000 304.636,30.000 304.925 C 30.000 305.213,30.315 305.798,30.700 306.225 C 31.085 306.651,31.654 307.492,31.964 308.093 C 32.274 308.695,32.859 309.542,33.264 309.977 C 33.669 310.411,34.000 310.956,34.000 311.187 C 34.000 311.418,34.540 312.172,35.200 312.863 C 35.860 313.554,36.400 314.322,36.400 314.571 C 36.400 314.820,36.760 315.283,37.200 315.600 C 37.640 315.917,38.000 316.457,38.000 316.800 C 38.000 317.143,38.360 317.683,38.800 318.000 C 39.240 318.317,39.600 318.807,39.600 319.088 C 39.600 319.370,39.780 319.600,40.000 319.600 C 40.220 319.600,40.400 319.782,40.400 320.004 C 40.400 320.226,40.940 320.972,41.600 321.663 C 42.260 322.354,42.800 323.066,42.800 323.246 C 42.800 323.426,43.430 324.203,44.200 324.973 C 44.970 325.743,45.600 326.544,45.600 326.752 C 45.600 326.960,46.680 328.227,48.000 329.568 C 49.320 330.908,50.400 332.178,50.400 332.389 C 50.400 332.881,67.051 349.600,67.540 349.600 C 67.742 349.600,69.112 350.770,70.585 352.200 C 72.058 353.630,73.421 354.800,73.613 354.800 C 73.806 354.800,74.378 355.205,74.885 355.700 C 75.391 356.195,76.524 357.135,77.403 357.788 C 78.281 358.441,79.349 359.296,79.775 359.688 C 80.202 360.080,80.747 360.400,80.987 360.400 C 81.227 360.400,81.683 360.760,82.000 361.200 C 82.317 361.640,82.825 362.000,83.128 362.000 C 83.431 362.000,84.183 362.540,84.800 363.200 C 85.417 363.860,86.169 364.400,86.472 364.400 C 86.775 364.400,87.283 364.760,87.600 365.200 C 87.917 365.640,88.457 366.000,88.800 366.000 C 89.143 366.000,89.683 366.360,90.000 366.800 C 90.317 367.240,90.814 367.600,91.105 367.600 C 91.396 367.600,91.989 367.931,92.423 368.336 C 92.858 368.741,93.705 369.326,94.307 369.636 C 94.908 369.946,95.749 370.515,96.175 370.900 C 96.602 371.285,97.187 371.600,97.475 371.600 C 97.764 371.600,98.000 371.780,98.000 372.000 C 98.000 372.220,98.360 372.400,98.800 372.400 C 99.240 372.400,99.600 372.542,99.600 372.716 C 99.600 373.138,103.701 375.200,104.540 375.200 C 104.903 375.200,105.200 375.380,105.200 375.600 C 105.200 375.820,105.560 376.000,106.000 376.000 C 106.440 376.000,106.800 376.180,106.800 376.400 C 106.800 376.620,107.160 376.800,107.600 376.800 C 108.040 376.800,108.400 376.980,108.400 377.200 C 108.400 377.420,108.670 377.600,109.000 377.600 C 109.330 377.600,109.600 377.746,109.600 377.925 C 109.600 378.104,110.230 378.498,111.000 378.800 C 111.770 379.102,112.400 379.496,112.400 379.675 C 112.400 379.854,112.850 380.000,113.400 380.000 C 113.950 380.000,114.400 380.180,114.400 380.400 C 114.400 380.620,114.760 380.800,115.200 380.800 C 115.640 380.800,116.000 380.980,116.000 381.200 C 116.000 381.420,116.360 381.600,116.800 381.600 C 117.240 381.600,117.600 381.780,117.600 382.000 C 117.600 382.220,117.960 382.400,118.400 382.400 C 118.840 382.400,119.200 382.580,119.200 382.800 C 119.200 383.020,119.639 383.200,120.176 383.200 C 120.713 383.200,121.264 383.380,121.400 383.600 C 121.536 383.820,121.997 384.000,122.424 384.000 C 122.851 384.000,123.200 384.180,123.200 384.400 C 123.200 384.620,123.472 384.800,123.805 384.800 C 124.138 384.800,124.768 384.980,125.205 385.200 C 125.642 385.420,126.358 385.780,126.795 386.000 C 127.232 386.220,127.952 386.400,128.395 386.400 C 128.838 386.400,129.200 386.580,129.200 386.800 C 129.200 387.020,129.549 387.200,129.976 387.200 C 130.403 387.200,130.864 387.380,131.000 387.600 C 131.136 387.820,131.676 388.000,132.200 388.000 C 132.724 388.000,133.264 388.180,133.400 388.400 C 133.536 388.620,134.076 388.800,134.600 388.800 C 135.124 388.800,135.664 388.980,135.800 389.200 C 135.936 389.420,136.476 389.600,137.000 389.600 C 137.524 389.600,138.064 389.780,138.200 390.000 C 138.336 390.220,138.876 390.400,139.400 390.400 C 139.924 390.400,140.459 390.572,140.589 390.782 C 140.718 390.991,141.899 391.285,143.212 391.433 C 144.525 391.582,145.600 391.860,145.600 392.052 C 145.600 392.243,146.129 392.400,146.776 392.400 C 147.423 392.400,148.064 392.580,148.200 392.800 C 148.336 393.020,149.067 393.200,149.824 393.200 C 150.581 393.200,151.200 393.380,151.200 393.600 C 151.200 393.820,151.920 394.000,152.800 394.000 C 153.680 394.000,154.400 394.180,154.400 394.400 C 154.400 394.620,155.300 394.800,156.400 394.800 C 157.500 394.800,158.400 394.980,158.400 395.200 C 158.400 395.420,159.120 395.600,160.000 395.600 C 160.880 395.600,161.600 395.780,161.600 396.000 C 161.600 396.220,162.579 396.400,163.776 396.400 C 164.973 396.400,166.064 396.580,166.200 396.800 C 166.336 397.020,167.416 397.200,168.600 397.200 C 169.784 397.200,170.864 397.380,171.000 397.600 C 171.136 397.820,172.666 398.000,174.400 398.000 C 176.134 398.000,177.664 398.180,177.800 398.400 C 177.942 398.629,180.004 398.800,182.624 398.800 C 185.408 398.800,187.200 398.957,187.200 399.200 C 187.200 399.458,191.733 399.600,200.000 399.600 C 208.267 399.600,212.800 399.458,212.800 399.200 C 212.800 398.957,214.600 398.800,217.400 398.800 C 220.200 398.800,222.000 398.643,222.000 398.400 C 222.000 398.167,223.325 398.000,225.176 398.000 C 226.923 398.000,228.464 397.820,228.600 397.600 C 228.736 397.380,229.906 397.200,231.200 397.200 C 232.494 397.200,233.664 397.020,233.800 396.800 C 233.936 396.580,235.027 396.400,236.224 396.400 C 237.421 396.400,238.400 396.220,238.400 396.000 C 238.400 395.780,239.120 395.600,240.000 395.600 C 240.880 395.600,241.600 395.420,241.600 395.200 C 241.600 394.980,242.399 394.800,243.376 394.800 C 244.353 394.800,245.264 394.620,245.400 394.400 C 245.536 394.180,246.357 394.000,247.224 394.000 C 248.091 394.000,248.800 393.820,248.800 393.600 C 248.800 393.380,249.419 393.200,250.176 393.200 C 250.933 393.200,251.664 393.020,251.800 392.800 C 251.936 392.580,252.577 392.400,253.224 392.400 C 253.871 392.400,254.400 392.243,254.400 392.052 C 254.400 391.860,255.475 391.582,256.788 391.433 C 258.101 391.285,259.282 390.991,259.411 390.782 C 259.541 390.572,260.076 390.400,260.600 390.400 C 261.124 390.400,261.664 390.220,261.800 390.000 C 261.936 389.780,262.476 389.600,263.000 389.600 C 263.524 389.600,264.064 389.420,264.200 389.200 C 264.336 388.980,264.876 388.800,265.400 388.800 C 265.924 388.800,266.464 388.620,266.600 388.400 C 266.736 388.180,267.276 388.000,267.800 388.000 C 268.324 388.000,268.864 387.820,269.000 387.600 C 269.136 387.380,269.597 387.200,270.024 387.200 C 270.451 387.200,270.800 387.020,270.800 386.800 C 270.800 386.580,271.162 386.400,271.605 386.400 C 272.048 386.400,272.768 386.220,273.205 386.000 C 273.642 385.780,274.358 385.420,274.795 385.200 C 275.232 384.980,275.862 384.800,276.195 384.800 C 276.528 384.800,276.800 384.620,276.800 384.400 C 276.800 384.180,277.160 384.000,277.600 384.000 C 278.040 384.000,278.400 383.820,278.400 383.600 C 278.400 383.380,278.940 383.200,279.600 383.200 C 280.260 383.200,280.800 383.020,280.800 382.800 C 280.800 382.580,281.160 382.400,281.600 382.400 C 282.040 382.400,282.400 382.220,282.400 382.000 C 282.400 381.780,282.760 381.600,283.200 381.600 C 283.640 381.600,284.000 381.420,284.000 381.200 C 284.000 380.980,284.360 380.800,284.800 380.800 C 285.240 380.800,285.600 380.620,285.600 380.400 C 285.600 380.180,285.853 380.000,286.162 380.000 C 286.828 380.000,290.141 378.332,290.333 377.900 C 290.407 377.735,290.722 377.600,291.033 377.600 C 291.345 377.600,291.600 377.420,291.600 377.200 C 291.600 376.980,291.960 376.800,292.400 376.800 C 292.840 376.800,293.200 376.620,293.200 376.400 C 293.200 376.180,293.560 376.000,294.000 376.000 C 294.440 376.000,294.800 375.820,294.800 375.600 C 294.800 375.380,295.076 375.200,295.413 375.200 C 296.181 375.200,300.153 373.221,300.333 372.749 C 300.407 372.557,300.812 372.400,301.233 372.400 C 301.655 372.400,302.000 372.220,302.000 372.000 C 302.000 371.780,302.236 371.600,302.525 371.600 C 302.813 371.600,303.436 371.240,303.908 370.800 C 304.380 370.360,304.877 370.000,305.011 370.000 C 305.146 370.000,306.041 369.460,307.000 368.800 C 307.959 368.140,308.897 367.600,309.084 367.600 C 309.271 367.600,309.683 367.240,310.000 366.800 C 310.317 366.360,310.857 366.000,311.200 366.000 C 311.543 366.000,312.083 365.640,312.400 365.200 C 312.717 364.760,313.180 364.400,313.429 364.400 C 313.678 364.400,314.446 363.860,315.137 363.200 C 315.828 362.540,316.625 362.000,316.908 362.000 C 317.191 362.000,317.683 361.640,318.000 361.200 C 318.317 360.760,318.762 360.400,318.988 360.400 C 319.215 360.399,319.940 359.930,320.600 359.358 C 321.260 358.785,322.565 357.787,323.500 357.139 C 324.435 356.491,325.200 355.802,325.200 355.608 C 325.200 355.413,325.558 355.140,325.995 355.002 C 326.432 354.863,327.982 353.591,329.441 352.175 C 330.900 350.759,332.258 349.600,332.460 349.600 C 332.949 349.600,349.600 332.881,349.600 332.389 C 349.600 332.178,350.680 330.908,352.000 329.568 C 353.320 328.227,354.400 326.960,354.400 326.752 C 354.400 326.544,355.030 325.743,355.800 324.973 C 356.570 324.203,357.201 323.444,357.202 323.287 C 357.203 323.129,357.743 322.425,358.402 321.722 C 359.061 321.019,359.600 320.280,359.600 320.081 C 359.600 319.882,360.140 319.154,360.800 318.463 C 361.460 317.772,362.000 316.975,362.000 316.692 C 362.000 316.409,362.360 315.917,362.800 315.600 C 363.240 315.283,363.600 314.775,363.600 314.472 C 363.600 314.169,364.140 313.417,364.800 312.800 C 365.460 312.183,366.000 311.474,366.000 311.223 C 366.000 310.972,366.331 310.411,366.736 309.977 C 367.141 309.542,367.726 308.695,368.036 308.093 C 368.346 307.492,368.915 306.651,369.300 306.225 C 369.685 305.798,370.000 305.213,370.000 304.925 C 370.000 304.636,370.152 304.400,370.337 304.400 C 370.523 304.400,371.108 303.545,371.637 302.500 C 372.167 301.455,372.735 300.540,372.900 300.467 C 373.065 300.393,373.200 299.988,373.200 299.567 C 373.200 299.145,373.347 298.800,373.526 298.800 C 373.924 298.800,375.200 296.199,375.200 295.386 C 375.200 295.064,375.380 294.800,375.600 294.800 C 375.820 294.800,376.000 294.440,376.000 294.000 C 376.000 293.560,376.180 293.200,376.400 293.200 C 376.620 293.200,376.800 292.840,376.800 292.400 C 376.800 291.960,376.980 291.600,377.200 291.600 C 377.420 291.600,377.600 291.330,377.600 291.000 C 377.600 290.670,377.780 290.400,378.000 290.400 C 378.220 290.400,378.400 290.040,378.400 289.600 C 378.400 289.160,378.580 288.800,378.800 288.800 C 379.020 288.800,379.200 288.440,379.200 288.000 C 379.200 287.560,379.380 287.200,379.600 287.200 C 379.820 287.200,380.000 286.840,380.000 286.400 C 380.000 285.960,380.180 285.600,380.400 285.600 C 380.620 285.600,380.800 285.240,380.800 284.800 C 380.800 284.360,380.980 284.000,381.200 284.000 C 381.420 284.000,381.600 283.640,381.600 283.200 C 381.600 282.760,381.780 282.400,382.000 282.400 C 382.220 282.400,382.400 282.051,382.400 281.624 C 382.400 281.197,382.580 280.736,382.800 280.600 C 383.020 280.464,383.200 279.913,383.200 279.376 C 383.200 278.839,383.380 278.400,383.600 278.400 C 383.820 278.400,384.000 278.040,384.000 277.600 C 384.000 277.160,384.180 276.800,384.400 276.800 C 384.620 276.800,384.800 276.350,384.800 275.800 C 384.800 275.250,384.980 274.800,385.200 274.800 C 385.420 274.800,385.600 274.451,385.600 274.024 C 385.600 273.597,385.780 273.136,386.000 273.000 C 386.220 272.864,386.400 272.313,386.400 271.776 C 386.400 271.239,386.580 270.800,386.800 270.800 C 387.020 270.800,387.200 270.451,387.200 270.024 C 387.200 269.597,387.380 269.136,387.600 269.000 C 387.820 268.864,388.000 268.324,388.000 267.800 C 388.000 267.276,388.180 266.736,388.400 266.600 C 388.620 266.464,388.800 265.924,388.800 265.400 C 388.800 264.876,388.980 264.336,389.200 264.200 C 389.420 264.064,389.600 263.524,389.600 263.000 C 389.600 262.476,389.780 261.936,390.000 261.800 C 390.220 261.664,390.400 261.124,390.400 260.600 C 390.400 260.076,390.572 259.541,390.782 259.411 C 390.991 259.282,391.285 258.101,391.433 256.788 C 391.582 255.475,391.860 254.400,392.052 254.400 C 392.243 254.400,392.400 253.871,392.400 253.224 C 392.400 252.577,392.580 251.936,392.800 251.800 C 393.020 251.664,393.200 250.933,393.200 250.176 C 393.200 249.419,393.380 248.800,393.600 248.800 C 393.820 248.800,394.000 247.900,394.000 246.800 C 394.000 245.700,394.180 244.800,394.400 244.800 C 394.620 244.800,394.800 244.080,394.800 243.200 C 394.800 242.320,394.980 241.600,395.200 241.600 C 395.420 241.600,395.600 240.801,395.600 239.824 C 395.600 238.847,395.780 237.936,396.000 237.800 C 396.220 237.664,396.400 236.573,396.400 235.376 C 396.400 234.179,396.580 233.200,396.800 233.200 C 397.022 233.200,397.200 232.141,397.200 230.824 C 397.200 229.517,397.380 228.336,397.600 228.200 C 397.820 228.064,398.000 226.613,398.000 224.976 C 398.000 223.259,398.169 222.000,398.400 222.000 C 398.644 222.000,398.800 220.141,398.800 217.224 C 398.800 214.471,398.969 212.342,399.200 212.200 C 399.452 212.044,399.600 207.529,399.600 199.976 C 399.600 192.259,399.458 188.000,399.200 188.000 C 398.955 188.000,398.800 186.067,398.800 183.000 C 398.800 179.933,398.645 178.000,398.400 178.000 C 398.167 178.000,398.000 176.667,398.000 174.800 C 398.000 172.933,397.833 171.600,397.600 171.600 C 397.378 171.600,397.200 170.533,397.200 169.200 C 397.200 167.867,397.022 166.800,396.800 166.800 C 396.580 166.800,396.400 165.821,396.400 164.624 C 396.400 163.427,396.220 162.336,396.000 162.200 C 395.780 162.064,395.600 161.153,395.600 160.176 C 395.600 159.199,395.420 158.400,395.200 158.400 C 394.980 158.400,394.800 157.680,394.800 156.800 C 394.800 155.920,394.620 155.200,394.400 155.200 C 394.180 155.200,394.000 154.300,394.000 153.200 C 394.000 152.100,393.820 151.200,393.600 151.200 C 393.380 151.200,393.200 150.671,393.200 150.024 C 393.200 149.377,393.020 148.736,392.800 148.600 C 392.580 148.464,392.400 147.733,392.400 146.976 C 392.400 146.219,392.243 145.600,392.052 145.600 C 391.860 145.600,391.582 144.525,391.433 143.212 C 391.285 141.899,390.991 140.718,390.782 140.589 C 390.572 140.459,390.400 139.924,390.400 139.400 C 390.400 138.876,390.220 138.336,390.000 138.200 C 389.780 138.064,389.600 137.524,389.600 137.000 C 389.600 136.476,389.420 135.936,389.200 135.800 C 388.980 135.664,388.800 135.124,388.800 134.600 C 388.800 134.076,388.620 133.536,388.400 133.400 C 388.180 133.264,388.000 132.724,388.000 132.200 C 388.000 131.676,387.820 131.136,387.600 131.000 C 387.380 130.864,387.200 130.403,387.200 129.976 C 387.200 129.549,387.020 129.200,386.800 129.200 C 386.580 129.200,386.400 128.845,386.400 128.412 C 386.400 127.979,386.040 126.983,385.600 126.200 C 385.160 125.417,384.800 124.421,384.800 123.988 C 384.800 123.555,384.620 123.200,384.400 123.200 C 384.180 123.200,384.000 122.840,384.000 122.400 C 384.000 121.960,383.820 121.600,383.600 121.600 C 383.380 121.600,383.200 121.161,383.200 120.624 C 383.200 120.087,383.020 119.536,382.800 119.400 C 382.580 119.264,382.400 118.803,382.400 118.376 C 382.400 117.949,382.220 117.600,382.000 117.600 C 381.780 117.600,381.600 117.240,381.600 116.800 C 381.600 116.360,381.420 116.000,381.200 116.000 C 380.980 116.000,380.800 115.640,380.800 115.200 C 380.800 114.760,380.620 114.400,380.400 114.400 C 380.180 114.400,380.000 114.166,380.000 113.880 C 380.000 113.144,379.059 111.207,378.700 111.203 C 378.535 111.201,378.400 110.840,378.400 110.400 C 378.400 109.960,378.220 109.600,378.000 109.600 C 377.780 109.600,377.600 109.330,377.600 109.000 C 377.600 108.670,377.420 108.400,377.200 108.400 C 376.980 108.400,376.800 108.040,376.800 107.600 C 376.800 107.160,376.620 106.800,376.400 106.800 C 376.180 106.800,376.000 106.440,376.000 106.000 C 376.000 105.560,375.820 105.200,375.600 105.200 C 375.380 105.200,375.200 104.909,375.200 104.554 C 375.200 103.838,373.174 99.877,372.700 99.667 C 372.535 99.593,372.400 99.188,372.400 98.767 C 372.400 98.345,372.220 98.000,372.000 98.000 C 371.780 98.000,371.600 97.764,371.600 97.475 C 371.600 97.187,371.285 96.602,370.900 96.175 C 370.515 95.749,369.946 94.908,369.636 94.307 C 369.326 93.705,368.741 92.858,368.336 92.423 C 367.931 91.989,367.600 91.396,367.600 91.105 C 367.600 90.814,367.240 90.317,366.800 90.000 C 366.360 89.683,366.000 89.143,366.000 88.800 C 366.000 88.457,365.640 87.917,365.200 87.600 C 364.760 87.283,364.400 86.820,364.400 86.571 C 364.400 86.322,363.860 85.554,363.200 84.863 C 362.540 84.172,362.000 83.375,362.000 83.092 C 362.000 82.809,361.640 82.317,361.200 82.000 C 360.760 81.683,360.400 81.227,360.400 80.987 C 360.400 80.747,360.080 80.202,359.688 79.775 C 359.296 79.349,358.441 78.284,357.788 77.409 C 357.135 76.534,356.105 75.292,355.500 74.650 C 354.895 74.007,354.400 73.329,354.400 73.143 C 354.400 72.957,353.320 71.708,352.000 70.368 C 350.680 69.027,349.600 67.760,349.600 67.552 C 349.600 67.054,332.888 50.400,332.389 50.400 C 332.178 50.400,330.908 49.320,329.568 48.000 C 328.227 46.680,326.960 45.600,326.752 45.600 C 326.544 45.600,325.743 44.970,324.973 44.200 C 324.203 43.430,323.437 42.800,323.271 42.800 C 323.104 42.800,322.172 42.080,321.200 41.200 C 320.228 40.320,319.240 39.600,319.004 39.600 C 318.769 39.600,318.317 39.240,318.000 38.800 C 317.683 38.360,317.191 38.000,316.908 38.000 C 316.625 38.000,315.828 37.460,315.137 36.800 C 314.446 36.140,313.678 35.600,313.429 35.600 C 313.180 35.600,312.717 35.240,312.400 34.800 C 312.083 34.360,311.569 34.000,311.259 34.000 C 310.948 34.000,310.403 33.684,310.047 33.297 C 309.691 32.911,308.860 32.326,308.200 31.997 C 307.540 31.669,306.651 31.085,306.225 30.700 C 305.798 30.315,305.296 30.000,305.108 30.000 C 304.920 30.000,304.380 29.640,303.908 29.200 C 303.436 28.760,302.813 28.400,302.525 28.400 C 302.236 28.400,302.000 28.220,302.000 28.000 C 302.000 27.780,301.640 27.600,301.200 27.600 C 300.760 27.600,300.400 27.420,300.400 27.200 C 300.400 26.980,300.040 26.800,299.600 26.800 C 299.160 26.800,298.800 26.653,298.800 26.474 C 298.800 26.076,296.199 24.800,295.386 24.800 C 295.064 24.800,294.800 24.620,294.800 24.400 C 294.800 24.180,294.440 24.000,294.000 24.000 C 293.560 24.000,293.200 23.820,293.200 23.600 C 293.200 23.380,292.840 23.200,292.400 23.200 C 291.960 23.200,291.600 23.020,291.600 22.800 C 291.600 22.580,291.345 22.400,291.033 22.400 C 290.722 22.400,290.407 22.265,290.333 22.100 C 290.141 21.668,286.828 20.000,286.162 20.000 C 285.853 20.000,285.600 19.820,285.600 19.600 C 285.600 19.380,285.240 19.200,284.800 19.200 C 284.360 19.200,284.000 19.020,284.000 18.800 C 284.000 18.580,283.640 18.400,283.200 18.400 C 282.760 18.400,282.400 18.220,282.400 18.000 C 282.400 17.780,282.040 17.600,281.600 17.600 C 281.160 17.600,280.800 17.420,280.800 17.200 C 280.800 16.980,280.260 16.800,279.600 16.800 C 278.940 16.800,278.400 16.620,278.400 16.400 C 278.400 16.180,278.040 16.000,277.600 16.000 C 277.160 16.000,276.800 15.820,276.800 15.600 C 276.800 15.380,276.528 15.200,276.195 15.200 C 275.862 15.200,275.232 15.020,274.795 14.800 C 274.358 14.580,273.642 14.220,273.205 14.000 C 272.768 13.780,272.048 13.600,271.605 13.600 C 271.162 13.600,270.800 13.420,270.800 13.200 C 270.800 12.980,270.451 12.800,270.024 12.800 C 269.597 12.800,269.136 12.620,269.000 12.400 C 268.864 12.180,268.313 12.000,267.776 12.000 C 267.239 12.000,266.800 11.820,266.800 11.600 C 266.800 11.380,266.260 11.200,265.600 11.200 C 264.940 11.200,264.400 11.020,264.400 10.800 C 264.400 10.580,263.860 10.400,263.200 10.400 C 262.540 10.400,262.000 10.220,262.000 10.000 C 262.000 9.780,261.471 9.600,260.824 9.600 C 260.177 9.600,259.541 9.428,259.411 9.218 C 259.282 9.009,258.101 8.715,256.788 8.567 C 255.475 8.418,254.400 8.140,254.400 7.948 C 254.400 7.757,253.781 7.600,253.024 7.600 C 252.267 7.600,251.536 7.420,251.400 7.200 C 251.264 6.980,250.623 6.800,249.976 6.800 C 249.329 6.800,248.800 6.620,248.800 6.400 C 248.800 6.180,248.080 6.000,247.200 6.000 C 246.320 6.000,245.600 5.820,245.600 5.600 C 245.600 5.380,244.891 5.200,244.024 5.200 C 243.157 5.200,242.336 5.020,242.200 4.800 C 242.064 4.580,241.063 4.400,239.976 4.400 C 238.889 4.400,238.000 4.220,238.000 4.000 C 238.000 3.780,237.021 3.600,235.824 3.600 C 234.627 3.600,233.536 3.420,233.400 3.200 C 233.264 2.980,232.083 2.800,230.776 2.800 C 229.459 2.800,228.400 2.622,228.400 2.400 C 228.400 2.167,227.067 2.000,225.200 2.000 C 223.333 2.000,222.000 1.833,222.000 1.600 C 222.000 1.357,220.200 1.200,217.400 1.200 C 214.600 1.200,212.800 1.043,212.800 0.800 C 212.800 0.542,208.267 0.400,200.000 0.400 C 191.733 0.400,187.200 0.542,187.200 0.800 M217.800 15.136 C 219.340 15.366,222.130 15.748,224.000 15.986 C 238.561 17.839,257.405 22.533,265.896 26.423 C 266.828 26.850,267.827 27.200,268.116 27.200 C 268.404 27.200,268.811 27.351,269.020 27.536 C 269.229 27.721,270.030 28.109,270.800 28.400 C 281.254 32.341,296.649 40.997,309.978 50.429 C 317.562 55.796,333.214 70.007,338.825 76.620 C 339.581 77.512,341.034 79.222,342.053 80.420 C 344.624 83.445,349.560 89.800,351.202 92.200 C 351.954 93.300,353.251 95.100,354.083 96.200 C 354.916 97.300,355.597 98.345,355.598 98.522 C 355.599 98.699,356.306 99.883,357.168 101.153 C 358.031 102.423,359.089 104.078,359.519 104.831 C 359.950 105.584,360.977 107.370,361.801 108.800 C 363.479 111.712,369.400 123.644,370.538 126.407 C 370.945 127.393,371.620 128.963,372.038 129.896 C 372.457 130.828,372.800 131.776,372.800 132.001 C 372.800 132.226,372.959 132.723,373.153 133.105 C 374.321 135.402,376.965 143.012,378.397 148.200 C 381.367 158.959,382.569 164.699,383.968 174.800 C 384.197 176.450,384.608 179.420,384.883 181.400 C 385.587 186.479,385.577 213.269,384.868 218.600 C 383.211 231.070,382.800 233.532,381.049 241.500 C 379.615 248.020,375.803 260.743,373.977 265.100 C 373.343 266.612,372.915 267.691,371.874 270.400 C 368.136 280.124,357.659 299.488,352.720 305.800 C 352.548 306.020,350.531 308.720,348.238 311.800 C 345.946 314.880,343.739 317.762,343.335 318.204 C 342.931 318.646,341.439 320.356,340.019 322.004 C 336.678 325.882,325.854 336.703,322.000 340.019 C 320.350 341.438,318.910 342.699,318.800 342.821 C 317.335 344.443,304.567 353.754,299.600 356.822 C 290.648 362.352,275.346 370.400,273.784 370.400 C 273.678 370.400,272.738 370.778,271.696 371.240 C 260.796 376.069,243.840 381.011,231.400 382.985 C 217.194 385.239,215.099 385.400,200.000 385.400 C 184.901 385.400,182.806 385.239,168.600 382.985 C 157.588 381.238,140.525 376.442,131.000 372.418 C 130.560 372.232,129.390 371.732,128.400 371.308 C 127.410 370.883,125.160 369.924,123.400 369.177 C 115.610 365.870,99.149 356.593,94.200 352.720 C 93.980 352.548,91.280 350.534,88.200 348.246 C 85.120 345.957,82.050 343.570,81.379 342.942 C 80.707 342.314,78.997 340.822,77.579 339.627 C 74.812 337.295,63.469 326.054,61.184 323.380 C 56.975 318.452,55.832 317.064,53.130 313.600 C 51.500 311.510,49.556 308.900,48.809 307.800 C 48.063 306.700,47.339 305.710,47.200 305.600 C 46.805 305.287,44.400 301.685,44.400 301.406 C 44.400 301.269,43.668 300.077,42.772 298.759 C 39.420 293.823,31.988 279.763,29.469 273.591 C 29.067 272.606,28.572 271.395,28.369 270.900 C 22.245 255.958,17.948 239.988,16.020 225.000 C 15.793 223.240,15.417 220.360,15.184 218.600 C 14.511 213.517,14.256 194.962,14.761 187.800 C 15.741 173.892,17.736 162.106,21.194 149.800 C 22.921 143.652,25.701 135.495,27.600 131.000 C 27.879 130.340,28.263 129.395,28.454 128.900 C 29.995 124.895,35.912 112.819,38.694 108.000 C 49.369 89.508,60.686 75.763,78.228 59.986 C 85.314 53.612,99.086 43.704,106.550 39.610 C 107.842 38.901,109.732 37.836,110.750 37.245 C 113.537 35.624,127.632 28.800,128.193 28.800 C 128.312 28.800,129.172 28.460,130.104 28.044 C 140.320 23.488,156.735 18.862,169.800 16.858 C 175.855 15.929,184.387 14.896,188.200 14.629 C 192.296 14.343,215.102 14.733,217.800 15.136 M277.904 181.300 L 277.800 199.000 260.500 199.104 L 243.200 199.208 243.200 214.000 L 243.200 228.792 260.500 228.896 L 277.800 229.000 278.000 246.600 L 278.200 264.200 293.173 264.305 C 304.886 264.387,308.216 264.300,308.467 263.905 C 308.644 263.627,308.791 255.615,308.794 246.100 L 308.800 228.800 326.200 228.800 L 343.600 228.800 343.600 214.000 L 343.600 199.200 326.200 199.200 L 308.800 199.200 308.800 181.400 L 308.800 163.600 293.404 163.600 L 278.008 163.600 277.904 181.300 " stroke="none" fill="#050404" fill-rule="evenodd"/>
		
    
		<path id="path2" d="M184.600 15.241 C 183.060 15.427,180.090 15.773,178.000 16.009 C 172.481 16.633,166.051 17.641,162.400 18.455 C 161.410 18.675,159.880 19.016,159.000 19.210 C 155.140 20.066,151.682 20.920,150.200 21.384 C 149.320 21.659,147.790 22.116,146.800 22.398 C 119.115 30.295,90.642 47.376,68.790 69.198 C 61.788 76.191,59.395 78.897,53.407 86.600 C 51.526 89.020,49.806 91.221,49.585 91.492 C 40.307 102.865,28.068 127.912,22.069 147.800 C 19.590 156.019,17.551 165.572,16.391 174.400 C 14.799 186.524,14.246 205.505,15.202 215.284 C 16.306 226.578,17.063 231.451,19.181 240.900 C 19.674 243.099,20.768 247.466,21.209 249.000 C 21.738 250.837,22.362 253.061,22.752 254.500 C 25.418 264.333,33.050 281.750,39.886 293.600 C 43.500 299.863,52.312 312.733,54.402 314.800 C 54.514 314.910,55.096 315.659,55.696 316.465 C 56.297 317.271,57.016 318.171,57.296 318.465 C 57.575 318.759,58.876 320.260,60.186 321.800 C 63.262 325.415,74.585 336.738,78.200 339.814 C 79.740 341.124,81.239 342.423,81.531 342.701 C 81.824 342.978,83.624 344.414,85.531 345.892 C 87.439 347.369,89.090 348.691,89.200 348.830 C 89.614 349.353,101.959 357.509,105.771 359.778 C 115.286 365.442,127.860 371.176,140.200 375.477 C 144.068 376.825,144.753 377.041,148.200 378.000 C 149.080 378.245,150.430 378.627,151.200 378.849 C 153.358 379.472,157.082 380.385,160.800 381.203 C 175.514 384.442,190.711 385.716,207.600 385.129 C 216.035 384.835,223.357 384.108,231.000 382.805 C 236.726 381.829,244.121 380.186,248.900 378.827 C 249.725 378.592,251.075 378.210,251.900 377.977 C 252.725 377.745,253.940 377.400,254.600 377.211 C 272.372 372.114,294.700 360.809,310.969 348.672 C 319.401 342.380,334.219 328.695,338.905 322.870 C 339.732 321.842,341.063 320.280,341.863 319.400 C 356.687 303.080,371.372 275.455,378.330 250.800 C 381.797 238.513,383.366 229.987,384.790 215.686 C 385.317 210.392,385.321 189.099,384.796 184.068 C 383.496 171.614,382.552 166.001,379.974 155.400 C 377.706 146.067,373.525 133.645,370.005 125.776 C 368.578 122.586,362.877 111.157,361.736 109.200 C 361.159 108.210,360.362 106.827,359.965 106.126 C 356.647 100.271,346.349 85.568,342.927 81.800 C 342.527 81.360,341.130 79.740,339.823 78.200 C 328.871 65.297,310.163 49.741,294.600 40.595 C 293.500 39.949,292.060 39.099,291.400 38.706 C 279.239 31.468,256.209 22.424,242.600 19.543 C 241.500 19.310,239.880 18.957,239.000 18.759 C 233.201 17.451,227.381 16.584,216.400 15.389 C 210.460 14.743,189.524 14.645,184.600 15.241 M111.839 129.906 C 112.080 130.068,112.392 131.100,112.532 132.200 C 112.671 133.300,112.970 135.370,113.196 136.800 C 113.422 138.230,113.797 140.750,114.030 142.400 C 114.475 145.550,114.909 148.469,115.575 152.800 C 116.132 156.417,116.672 160.076,117.170 163.600 C 117.403 165.250,117.777 167.770,118.000 169.200 C 118.223 170.630,118.597 173.150,118.830 174.800 C 119.257 177.817,119.718 180.959,120.386 185.400 C 120.585 186.720,120.945 189.150,121.187 190.800 C 121.429 192.450,121.788 194.880,121.986 196.200 C 122.184 197.520,122.538 199.950,122.772 201.600 C 123.007 203.250,123.351 205.590,123.538 206.800 C 123.724 208.010,124.386 212.538,125.007 216.861 C 126.143 224.764,126.786 226.434,127.324 222.876 C 127.447 222.064,128.102 218.790,128.780 215.600 C 130.705 206.536,131.667 201.937,132.000 200.200 C 132.337 198.443,133.877 191.133,134.444 188.600 C 134.641 187.720,134.998 186.010,135.238 184.800 C 136.166 180.118,136.328 179.331,136.800 177.200 C 137.068 175.990,137.427 174.280,137.597 173.400 C 137.959 171.533,139.234 165.368,140.344 160.125 C 140.772 158.103,141.240 156.258,141.385 156.025 C 141.565 155.732,149.553 155.600,167.032 155.600 L 192.417 155.600 192.793 156.500 C 193.000 156.995,193.530 159.200,193.971 161.400 C 194.412 163.600,195.329 168.010,196.007 171.200 C 197.876 179.978,197.974 180.447,198.401 182.600 C 198.619 183.700,198.979 185.410,199.200 186.400 C 199.421 187.390,199.781 189.100,200.000 190.200 C 200.219 191.300,200.559 192.920,200.756 193.800 C 200.953 194.680,201.513 197.290,202.000 199.600 C 202.487 201.910,203.047 204.520,203.244 205.400 C 203.441 206.280,203.781 207.900,204.000 209.000 C 204.219 210.100,204.559 211.720,204.756 212.600 C 204.952 213.480,205.617 216.677,206.232 219.705 C 207.510 225.993,207.803 226.097,208.639 220.559 C 209.897 212.224,212.043 197.680,212.410 195.000 C 212.621 193.460,212.962 191.120,213.168 189.800 C 213.534 187.450,214.891 178.357,215.645 173.200 C 215.854 171.770,216.187 169.520,216.386 168.200 C 216.585 166.880,216.945 164.450,217.187 162.800 C 217.429 161.150,217.807 158.630,218.029 157.200 C 218.250 155.770,218.597 153.430,218.800 152.000 C 219.003 150.570,219.341 148.230,219.552 146.800 C 219.763 145.370,220.303 141.680,220.753 138.600 C 221.203 135.520,221.720 132.280,221.903 131.400 L 222.236 129.800 246.595 129.697 C 259.992 129.640,271.108 129.748,271.296 129.936 C 271.601 130.241,271.025 133.680,270.012 137.600 C 269.813 138.370,269.472 139.810,269.253 140.800 C 268.635 143.603,268.095 146.029,267.628 148.100 C 267.393 149.145,267.030 150.765,266.822 151.700 C 266.614 152.635,266.064 155.020,265.600 157.000 C 265.136 158.980,264.574 161.410,264.350 162.400 C 264.127 163.390,263.775 164.920,263.569 165.800 C 263.029 168.105,258.075 190.227,257.567 192.600 C 257.332 193.700,256.951 195.095,256.721 195.700 L 256.303 196.800 248.551 196.800 L 240.800 196.800 240.800 213.800 L 240.800 230.800 244.600 230.800 L 248.400 230.800 248.400 232.054 C 248.400 232.743,248.228 233.958,248.017 234.754 C 247.459 236.864,246.189 242.311,244.975 247.800 C 244.391 250.440,243.120 256.110,242.150 260.400 C 241.181 264.690,240.031 269.820,239.594 271.800 C 239.158 273.780,238.470 276.750,238.066 278.400 L 237.332 281.400 211.595 281.400 L 185.859 281.400 185.150 278.400 C 184.761 276.750,184.257 274.590,184.031 273.600 C 183.505 271.294,181.957 264.605,179.819 255.400 C 179.257 252.980,178.449 249.470,178.023 247.600 C 177.598 245.730,176.508 240.960,175.602 237.000 C 173.206 226.528,172.805 224.777,172.400 223.000 C 172.199 222.120,171.757 220.185,171.418 218.700 C 171.078 217.215,170.522 214.785,170.182 213.300 C 169.843 211.815,169.401 209.880,169.201 209.000 C 168.042 203.896,167.576 202.216,167.222 201.862 C 166.735 201.375,166.820 201.075,164.404 211.800 C 164.206 212.680,163.664 215.020,163.200 217.000 C 162.736 218.980,162.199 221.320,162.006 222.200 C 161.814 223.080,161.464 224.610,161.229 225.600 C 160.995 226.590,159.993 231.000,159.003 235.400 C 158.012 239.800,157.032 244.120,156.823 245.000 C 155.946 248.699,154.732 253.911,154.400 255.400 C 154.204 256.280,153.664 258.620,153.200 260.600 C 152.736 262.580,152.196 264.920,152.000 265.800 C 151.804 266.680,151.264 269.020,150.800 271.000 C 150.336 272.980,149.786 275.365,149.578 276.300 C 149.370 277.235,148.997 278.810,148.748 279.800 L 148.296 281.600 122.738 281.600 L 97.180 281.600 96.778 280.543 C 96.557 279.962,96.015 277.847,95.573 275.843 C 95.132 273.839,94.516 271.120,94.205 269.800 C 93.894 268.480,93.080 264.880,92.396 261.800 C 91.713 258.720,90.738 254.400,90.231 252.200 C 89.723 250.000,88.913 246.400,88.429 244.200 C 87.946 242.000,87.191 238.670,86.753 236.800 C 85.926 233.270,85.423 231.066,84.747 228.000 C 84.528 227.010,84.190 225.570,83.996 224.800 C 83.802 224.030,83.267 221.690,82.808 219.600 C 81.984 215.848,81.817 215.109,80.632 210.000 C 80.301 208.570,79.465 204.880,78.775 201.800 C 76.739 192.707,76.501 191.655,75.211 186.000 C 74.534 183.030,73.642 179.070,73.229 177.200 C 72.816 175.330,71.899 171.280,71.191 168.200 C 69.824 162.247,69.560 161.077,68.800 157.600 C 68.536 156.390,68.171 154.770,67.989 154.000 C 67.577 152.251,66.025 145.474,65.607 143.600 C 63.889 135.892,62.735 131.019,62.562 130.739 C 62.447 130.552,62.464 130.220,62.600 130.000 C 62.889 129.532,111.143 129.440,111.839 129.906 M309.200 181.200 L 309.400 199.000 326.600 199.200 L 343.800 199.400 343.912 213.200 C 343.973 220.790,343.925 227.403,343.805 227.896 L 343.587 228.791 326.493 228.896 L 309.400 229.000 309.200 246.400 C 309.090 255.970,308.854 264.025,308.676 264.300 C 308.186 265.057,278.683 265.023,278.053 264.264 C 277.746 263.894,277.576 258.372,277.504 246.364 L 277.400 229.000 260.200 228.800 L 243.000 228.600 242.895 213.900 L 242.790 199.200 259.952 199.200 C 275.233 199.200,277.141 199.131,277.357 198.567 C 277.491 198.219,277.600 190.239,277.600 180.834 C 277.600 171.429,277.722 163.611,277.871 163.462 C 278.021 163.313,285.086 163.238,293.571 163.295 L 309.000 163.400 309.200 181.200 " stroke="none" fill="#e3cb83" fill-rule="evenodd"/>
		
  
	</g>
	

</svg>
