<svg width="179" height="32" viewBox="0 0 179 32" fill="none" xmlns="http://www.w3.org/2000/svg">
<g clip-path="url(#clip0_3838_55999)">
<path d="M17.0636 13.2946C12.8792 12.2131 9.03575 10.8464 9.03575 6.03516H3C3 15.0602 8.89351 17.1952 14.8149 18.7042C19 19.7864 22.8435 20.761 22.8435 25.9636H28.8792C28.8785 16.8603 22.8999 14.8035 17.0636 13.2946Z" fill="url(#paint0_linear_3838_55999)"/>
<path d="M7.86719 32.0005H16.75C20.0809 32.0005 22.8421 29.4379 22.8421 25.9648H7.86719V32.0005Z" fill="#011F3D"/>
<path d="M23.9815 0H15.1274C11.7964 0 9.03516 2.56256 9.03516 6.03575H23.9815V0Z" fill="#011F3D"/>
<path d="M40.5 0V32" stroke="#537393"/>
<path d="M61.2461 10.544L62.4941 4.48828H64.9463L62.5205 13.9981H60.3936L58.5918 8.0127L56.79 13.9981H54.6719L52.2461 4.48828H54.6982L55.9375 10.5352L57.6777 4.48828H59.5146L61.2461 10.544Z" fill="#011F3D"/>
<path d="M70.587 14.1739C69.1924 14.1739 68.0557 13.746 67.1768 12.8906C66.3038 12.0351 65.8672 10.8956 65.8672 9.47168V9.22559C65.8672 8.27051 66.0518 7.41797 66.421 6.66797C66.7901 5.91211 67.3116 5.33203 67.9854 4.92774C68.6651 4.51758 69.4385 4.3125 70.3057 4.3125C71.6065 4.3125 72.629 4.72266 73.3731 5.54297C74.1231 6.36328 74.4981 7.52637 74.4981 9.03223V10.0693H68.4424C68.5245 10.6904 68.7706 11.1885 69.1807 11.5635C69.5967 11.9385 70.1211 12.126 70.754 12.126C71.7325 12.126 72.4971 11.7715 73.0479 11.0626L74.296 12.4599C73.9151 12.999 73.3995 13.4209 72.7491 13.7255C72.0987 14.0244 71.378 14.1739 70.587 14.1739ZM70.2969 6.36914C69.793 6.36914 69.3829 6.53907 69.0665 6.87891C68.7559 7.21875 68.5567 7.70508 68.4688 8.33789H72.002V8.13575C71.9903 7.57325 71.8379 7.13965 71.545 6.83496C71.252 6.52442 70.836 6.36914 70.2969 6.36914Z" fill="#011F3D"/>
<path d="M84.5185 9.33301C84.5185 10.8564 84.1933 12.0459 83.5429 12.9014C82.8926 13.751 81.9844 14.1758 80.8183 14.1758C79.7871 14.1758 78.9638 13.7803 78.3486 12.9893L78.2344 14H75.9492V0.5H78.4892V5.34277C79.0752 4.65723 79.8457 4.31445 80.8008 4.31445C81.9609 4.31445 82.8691 4.74219 83.5254 5.59766C84.1875 6.44727 84.5185 7.64551 84.5185 9.19238V9.33301ZM81.9785 9.14844C81.9785 8.1875 81.8261 7.4873 81.5215 7.04785C81.2168 6.60254 80.7627 6.37988 80.1592 6.37988C79.3506 6.37988 78.7939 6.71094 78.4892 7.37305V11.126C78.7998 11.7939 79.3623 12.1279 80.1767 12.1279C80.997 12.1279 81.5361 11.7236 81.7939 10.915C81.917 10.5283 81.9785 9.93945 81.9785 9.14844Z" fill="#011F3D"/>
<path d="M89.707 1.20312L92.9941 10.4844L96.2636 1.20312H99.7265V14H97.081V10.502L97.3447 4.46388L93.8906 14H92.08L88.6347 4.47267L88.8984 10.502V14H86.2617V1.20312H89.707Z" fill="#011F3D"/>
<path d="M106.239 14.1739C104.845 14.1739 103.708 13.746 102.829 12.8906C101.956 12.0351 101.52 10.8956 101.52 9.47168V9.22559C101.52 8.27051 101.704 7.41797 102.073 6.66797C102.442 5.91211 102.964 5.33203 103.638 4.92774C104.317 4.51758 105.091 4.3125 105.958 4.3125C107.259 4.3125 108.281 4.72266 109.025 5.54297C109.775 6.36328 110.15 7.52637 110.15 9.03223V10.0693H104.095C104.177 10.6904 104.423 11.1885 104.833 11.5635C105.249 11.9385 105.773 12.126 106.406 12.126C107.385 12.126 108.149 11.7715 108.7 11.0626L109.948 12.4599C109.567 12.999 109.052 13.4209 108.401 13.7255C107.751 14.0244 107.03 14.1739 106.239 14.1739ZM105.949 6.36914C105.445 6.36914 105.035 6.53907 104.719 6.87891C104.408 7.21875 104.209 7.70508 104.121 8.33789H107.654V8.13575C107.643 7.57325 107.49 7.13965 107.197 6.83496C106.904 6.52442 106.488 6.36914 105.949 6.36914Z" fill="#011F3D"/>
<path d="M114.64 2.15234V4.49023H116.266V6.35352H114.64V11.0996C114.64 11.4512 114.707 11.7031 114.842 11.8555C114.977 12.0078 115.234 12.084 115.615 12.084C115.896 12.084 116.146 12.0635 116.362 12.0225V13.9473C115.864 14.0996 115.352 14.1758 114.824 14.1758C113.043 14.1758 112.135 13.2764 112.1 11.4775V6.35352H110.711V4.49023H112.1V2.15234H114.64Z" fill="#011F3D"/>
<path d="M120.157 5.52734C120.831 4.71875 121.678 4.31445 122.697 4.31445C124.76 4.31445 125.806 5.5127 125.835 7.90918V14H123.295V7.97949C123.295 7.43457 123.178 7.0332 122.943 6.77539C122.709 6.51172 122.319 6.37988 121.774 6.37988C121.03 6.37988 120.491 6.66699 120.157 7.24121V14H117.617V0.5H120.157V5.52734Z" fill="#011F3D"/>
<path d="M127.355 9.15528C127.355 8.21192 127.537 7.3711 127.9 6.63282C128.264 5.89453 128.785 5.32325 129.465 4.91895C130.15 4.51465 130.944 4.3125 131.847 4.3125C133.13 4.3125 134.176 4.70508 134.984 5.49024C135.799 6.27539 136.253 7.3418 136.347 8.68946L136.364 9.33985C136.364 10.7988 135.957 11.9707 135.143 12.8554C134.328 13.7343 133.235 14.1739 131.864 14.1739C130.493 14.1739 129.397 13.7343 128.577 12.8554C127.763 11.9765 127.355 10.7812 127.355 9.26953V9.15528ZM129.895 9.33985C129.895 10.2421 130.065 10.9336 130.405 11.4141C130.745 11.8887 131.231 12.126 131.864 12.126C132.479 12.126 132.96 11.8917 133.306 11.4229C133.651 10.9483 133.824 10.1924 133.824 9.15528C133.824 8.27051 133.651 7.58496 133.306 7.09864C132.96 6.61231 132.474 6.36914 131.847 6.36914C131.226 6.36914 130.745 6.61231 130.405 7.09864C130.065 7.5791 129.895 8.32617 129.895 9.33985Z" fill="#011F3D"/>
<path d="M137.535 9.1748C137.535 7.69238 137.866 6.51172 138.528 5.63281C139.196 4.75391 140.107 4.31445 141.262 4.31445C142.188 4.31445 142.952 4.66016 143.556 5.35156V0.5H146.104V14H143.811L143.688 12.9893C143.055 13.7803 142.24 14.1758 141.244 14.1758C140.125 14.1758 139.226 13.7363 138.546 12.8574C137.872 11.9727 137.535 10.7451 137.535 9.1748ZM140.075 9.35938C140.075 10.25 140.23 10.9326 140.541 11.4072C140.852 11.8818 141.303 12.1191 141.895 12.1191C142.68 12.1191 143.233 11.7881 143.556 11.126V7.37305C143.239 6.71094 142.691 6.37988 141.912 6.37988C140.688 6.37988 140.075 7.37305 140.075 9.35938Z" fill="#011F3D"/>
<path d="M153.224 11.3702C153.224 11.0596 153.068 10.8165 152.758 10.6407C152.453 10.459 151.961 10.2978 151.281 10.1572C149.02 9.68262 147.889 8.72168 147.889 7.27442C147.889 6.43067 148.237 5.72754 148.935 5.16504C149.638 4.59668 150.555 4.3125 151.686 4.3125C152.893 4.3125 153.856 4.59668 154.577 5.16504C155.304 5.7334 155.667 6.47168 155.667 7.37989H153.127C153.127 7.0166 153.01 6.71778 152.775 6.4834C152.541 6.24317 152.175 6.12305 151.677 6.12305C151.249 6.12305 150.918 6.21973 150.684 6.41309C150.449 6.60645 150.332 6.85254 150.332 7.15137C150.332 7.43262 150.464 7.66114 150.728 7.83692C150.997 8.00684 151.448 8.15625 152.081 8.28516C152.714 8.40821 153.247 8.54883 153.681 8.70703C155.022 9.19922 155.693 10.0517 155.693 11.2646C155.693 12.1318 155.321 12.835 154.577 13.3741C153.833 13.9073 152.872 14.1739 151.694 14.1739C150.897 14.1739 150.188 14.0332 149.567 13.7519C148.952 13.4648 148.469 13.0751 148.117 12.583C147.766 12.0849 147.59 11.5488 147.59 10.9746H149.998C150.021 11.4257 150.188 11.7714 150.499 12.0117C150.81 12.2519 151.226 12.372 151.747 12.372C152.233 12.372 152.6 12.2812 152.846 12.0996C153.098 11.9121 153.224 11.669 153.224 11.3702Z" fill="#011F3D"/>
<path d="M157.469 12.753C157.469 12.3487 157.604 12.0205 157.873 11.7686C158.148 11.5166 158.491 11.3906 158.901 11.3906C159.317 11.3906 159.66 11.5166 159.93 11.7686C160.205 12.0205 160.343 12.3487 160.343 12.753C160.343 13.1514 160.208 13.4766 159.938 13.7285C159.669 13.9746 159.323 14.0977 158.901 14.0977C158.485 14.0977 158.143 13.9746 157.873 13.7285C157.604 13.4766 157.469 13.1514 157.469 12.753Z" fill="#011F3D"/>
<path d="M165.257 13.999H162.708V4.48925H165.257V13.999ZM162.559 2.02832C162.559 1.64746 162.685 1.33398 162.937 1.08789C163.194 0.841796 163.543 0.71875 163.982 0.71875C164.416 0.71875 164.762 0.841796 165.02 1.08789C165.277 1.33398 165.406 1.64746 165.406 2.02832C165.406 2.41504 165.274 2.73144 165.011 2.97754C164.753 3.22363 164.41 3.34668 163.982 3.34668C163.555 3.34668 163.209 3.22363 162.945 2.97754C162.688 2.73144 162.559 2.41504 162.559 2.02832Z" fill="#011F3D"/>
<path d="M166.961 9.15528C166.961 8.21192 167.143 7.3711 167.506 6.63282C167.869 5.89453 168.391 5.32325 169.07 4.91895C169.756 4.51465 170.55 4.3125 171.452 4.3125C172.735 4.3125 173.781 4.70508 174.59 5.49024C175.404 6.27539 175.858 7.3418 175.952 8.68946L175.97 9.33985C175.97 10.7988 175.562 11.9707 174.748 12.8554C173.934 13.7343 172.841 14.1739 171.47 14.1739C170.099 14.1739 169.003 13.7343 168.183 12.8554C167.368 11.9765 166.961 10.7812 166.961 9.26953V9.15528ZM169.501 9.33985C169.501 10.2421 169.671 10.9336 170.011 11.4141C170.351 11.8887 170.837 12.126 171.47 12.126C172.085 12.126 172.565 11.8917 172.911 11.4229C173.257 10.9483 173.43 10.1924 173.43 9.15528C173.43 8.27051 173.257 7.58496 172.911 7.09864C172.565 6.61231 172.079 6.36914 171.452 6.36914C170.831 6.36914 170.351 6.61231 170.011 7.09864C169.671 7.5791 169.501 8.32617 169.501 9.33985Z" fill="#011F3D"/>
<path d="M52.8672 30V21.4688H55.3867C56.1406 21.4688 56.8086 21.6367 57.3906 21.9727C57.9766 22.3086 58.4297 22.7852 58.75 23.4023C59.0703 24.0195 59.2305 24.7265 59.2305 25.5233V25.9512C59.2305 26.7598 59.0684 27.4707 58.7441 28.084C58.4238 28.6973 57.9648 29.1699 57.3672 29.502C56.7734 29.834 56.0918 30 55.3223 30H52.8672ZM54.3496 22.6641V28.8164H55.3164C56.0938 28.8164 56.6895 28.5742 57.1035 28.0898C57.5215 27.6016 57.7344 26.9023 57.7422 25.9922V25.5175C57.7422 24.5917 57.541 23.8848 57.1387 23.3965C56.7363 22.9082 56.1523 22.6641 55.3867 22.6641H54.3496Z" fill="#011F3D"/>
<path d="M60.3008 26.7715C60.3008 26.1504 60.4239 25.5918 60.67 25.0957C60.9161 24.5957 61.2618 24.2129 61.7071 23.9473C62.1524 23.6777 62.6641 23.543 63.2422 23.543C64.0977 23.543 64.7911 23.8184 65.3223 24.3691C65.8575 24.9199 66.1465 25.6504 66.1895 26.5605L66.1954 26.8945C66.1954 27.5195 66.0743 28.0781 65.8321 28.5703C65.5938 29.0625 65.2501 29.4434 64.8008 29.7129C64.3555 29.9824 63.8399 30.1172 63.254 30.1172C62.3594 30.1172 61.6426 29.8203 61.1036 29.2266C60.5684 28.6289 60.3008 27.834 60.3008 26.8418V26.7715ZM61.7247 26.8945C61.7247 27.5469 61.8594 28.0586 62.129 28.4297C62.3985 28.7969 62.7735 28.9805 63.254 28.9805C63.7344 28.9805 64.1075 28.793 64.3731 28.418C64.6426 28.043 64.7774 27.4941 64.7774 26.7715C64.7774 26.1309 64.6387 25.623 64.3614 25.248C64.0879 24.873 63.7149 24.6855 63.2422 24.6855C62.7774 24.6855 62.4083 24.8711 62.1348 25.2422C61.8614 25.6094 61.7247 26.1602 61.7247 26.8945Z" fill="#011F3D"/>
<path d="M70.0078 28.9805C70.3632 28.9805 70.6581 28.877 70.8925 28.6699C71.1269 28.4629 71.2519 28.207 71.2675 27.9023H72.6093C72.5937 28.2969 72.4707 28.666 72.2402 29.0098C72.0097 29.3496 71.6972 29.6191 71.3027 29.8184C70.9081 30.0176 70.4824 30.1172 70.0253 30.1172C69.1386 30.1172 68.4355 29.8301 67.916 29.2559C67.3964 28.6816 67.1367 27.8887 67.1367 26.877V26.7305C67.1367 25.7656 67.3945 24.9941 67.9101 24.416C68.4257 23.834 69.1289 23.543 70.0195 23.543C70.7734 23.543 71.3867 23.7637 71.8593 24.2051C72.3359 24.6426 72.5859 25.2188 72.6093 25.9336H71.2675C71.2519 25.5703 71.1269 25.2715 70.8925 25.0371C70.6621 24.8027 70.3671 24.6855 70.0078 24.6855C69.5468 24.6855 69.1914 24.8535 68.9414 25.1895C68.6914 25.5215 68.5644 26.0273 68.5605 26.707V26.9355C68.5605 27.623 68.6835 28.1367 68.9296 28.4766C69.1796 28.8125 69.539 28.9805 70.0078 28.9805Z" fill="#011F3D"/>
<path d="M77.5253 29.3789C77.1074 29.8711 76.5136 30.1172 75.7441 30.1172C75.0566 30.1172 74.5351 29.916 74.1796 29.5137C73.8281 29.1113 73.6523 28.5293 73.6523 27.7676V23.6602H75.0761V27.75C75.0761 28.5547 75.4101 28.957 76.0781 28.957C76.7695 28.957 77.2363 28.709 77.4785 28.2129V23.6602H78.9023V30H77.5605L77.5253 29.3789Z" fill="#011F3D"/>
<path d="M81.6895 23.6602L81.7305 24.3223C82.1758 23.8027 82.7852 23.543 83.5586 23.543C84.4062 23.543 84.9863 23.8672 85.2988 24.5156C85.7598 23.8672 86.4082 23.543 87.2441 23.543C87.9434 23.543 88.4629 23.7363 88.8027 24.123C89.1465 24.5098 89.3223 25.0801 89.3301 25.834V30H87.9062V25.875C87.9062 25.4727 87.8184 25.1777 87.6426 24.9902C87.4668 24.8027 87.1758 24.709 86.7695 24.709C86.4453 24.709 86.1797 24.7969 85.9727 24.9727C85.7695 25.1445 85.627 25.3711 85.5449 25.6523L85.5508 30H84.127V25.8281C84.1074 25.082 83.7266 24.709 82.9844 24.709C82.4141 24.709 82.0098 24.9414 81.7715 25.4062V30H80.3477V23.6602H81.6895Z" fill="#011F3D"/>
<path d="M93.5821 30.1172C92.6797 30.1172 91.9473 29.834 91.3848 29.2676C90.8262 28.6973 90.5469 27.9395 90.5469 26.9941V26.8184C90.5469 26.1855 90.668 25.6211 90.9102 25.125C91.1563 24.625 91.5001 24.2363 91.9415 23.959C92.3829 23.6816 92.8751 23.543 93.418 23.543C94.2813 23.543 94.9473 23.8184 95.4161 24.3691C95.8887 24.9199 96.1251 25.6992 96.1251 26.707V27.2812H91.9825C92.0254 27.8047 92.1993 28.2188 92.504 28.5234C92.8126 28.8281 93.1993 28.9805 93.6641 28.9805C94.3165 28.9805 94.8477 28.7168 95.2579 28.1895L96.0254 28.9219C95.7715 29.3008 95.4317 29.5957 95.0059 29.8066C94.584 30.0137 94.1094 30.1172 93.5821 30.1172ZM93.4122 24.6855C93.0215 24.6855 92.7051 24.8223 92.4629 25.0957C92.2247 25.3691 92.0723 25.75 92.0059 26.2383H94.7188V26.1328C94.6876 25.6562 94.5606 25.2969 94.3379 25.0547C94.1153 24.8086 93.8067 24.6855 93.4122 24.6855Z" fill="#011F3D"/>
<path d="M98.5606 23.6602L98.6016 24.3926C99.0704 23.8262 99.6856 23.543 100.447 23.543C101.768 23.543 102.44 24.2988 102.463 25.8105V30H101.039V25.8926C101.039 25.4902 100.951 25.1934 100.775 25.002C100.604 24.8066 100.32 24.709 99.9258 24.709C99.3516 24.709 98.9239 24.9688 98.6426 25.4883V30H97.2188V23.6602H98.5606Z" fill="#011F3D"/>
<path d="M105.701 22.1172V23.6583H106.82V24.7129H105.701V28.252C105.701 28.4942 105.748 28.67 105.842 28.7793C105.939 28.8848 106.111 28.9376 106.357 28.9376C106.521 28.9376 106.688 28.918 106.855 28.879V29.9805C106.531 30.0704 106.219 30.1153 105.918 30.1153C104.824 30.1153 104.277 29.5118 104.277 28.3047V24.7129H103.234V23.6583H104.277V22.1172H105.701Z" fill="#011F3D"/>
<path d="M111.701 30C111.639 29.8789 111.584 29.6816 111.537 29.4082C111.084 29.8809 110.529 30.1172 109.873 30.1172C109.236 30.1172 108.717 29.9355 108.314 29.5723C107.912 29.209 107.711 28.7598 107.711 28.2246C107.711 27.5488 107.961 27.0312 108.461 26.6719C108.965 26.3086 109.684 26.127 110.617 26.127H111.49V25.7109C111.49 25.3828 111.398 25.1211 111.215 24.9258C111.031 24.7266 110.752 24.627 110.377 24.627C110.053 24.627 109.787 24.709 109.58 24.873C109.373 25.0332 109.27 25.2383 109.27 25.4883H107.846C107.846 25.1406 107.961 24.8164 108.191 24.5156C108.422 24.2109 108.734 23.9727 109.129 23.8008C109.527 23.6289 109.971 23.543 110.459 23.543C111.201 23.543 111.793 23.7305 112.234 24.1055C112.676 24.4766 112.902 25 112.914 25.6758V28.5352C112.914 29.1055 112.994 29.5605 113.154 29.9004V30H111.701ZM110.137 28.9746C110.418 28.9746 110.682 28.9062 110.928 28.7695C111.178 28.6328 111.365 28.4492 111.49 28.2188V27.0234H110.723C110.195 27.0234 109.799 27.1152 109.533 27.2988C109.268 27.4824 109.135 27.7422 109.135 28.0781C109.135 28.3516 109.225 28.5703 109.404 28.7344C109.588 28.8945 109.832 28.9746 110.137 28.9746Z" fill="#011F3D"/>
<path d="M116.189 22.1172V23.6583H117.309V24.7129H116.189V28.252C116.189 28.4942 116.236 28.67 116.33 28.7793C116.428 28.8848 116.6 28.9376 116.846 28.9376C117.01 28.9376 117.176 28.918 117.344 28.879V29.9805C117.02 30.0704 116.707 30.1153 116.406 30.1153C115.312 30.1153 114.766 29.5118 114.766 28.3047V24.7129H113.723V23.6583H114.766V22.1172H116.189Z" fill="#011F3D"/>
<path d="M119.914 30.0019H118.49V23.6621H119.914V30.0019ZM118.402 22.0156C118.402 21.7968 118.471 21.6152 118.607 21.4707C118.748 21.3261 118.947 21.2539 119.205 21.2539C119.463 21.2539 119.662 21.3261 119.803 21.4707C119.943 21.6152 120.014 21.7968 120.014 22.0156C120.014 22.2304 119.943 22.4101 119.803 22.5546C119.662 22.6953 119.463 22.7656 119.205 22.7656C118.947 22.7656 118.748 22.6953 118.607 22.5546C118.471 22.4101 118.402 22.2304 118.402 22.0156Z" fill="#011F3D"/>
<path d="M121.203 26.7715C121.203 26.1504 121.326 25.5918 121.572 25.0957C121.818 24.5957 122.164 24.2129 122.609 23.9473C123.055 23.6777 123.566 23.543 124.144 23.543C125 23.543 125.693 23.8184 126.225 24.3691C126.76 24.9199 127.049 25.6504 127.092 26.5605L127.098 26.8945C127.098 27.5195 126.977 28.0781 126.734 28.5703C126.496 29.0625 126.152 29.4434 125.703 29.7129C125.258 29.9824 124.742 30.1172 124.156 30.1172C123.262 30.1172 122.545 29.8203 122.006 29.2266C121.471 28.6289 121.203 27.834 121.203 26.8418V26.7715ZM122.627 26.8945C122.627 27.5469 122.762 28.0586 123.031 28.4297C123.301 28.7969 123.676 28.9805 124.156 28.9805C124.637 28.9805 125.01 28.793 125.275 28.418C125.545 28.043 125.68 27.4941 125.68 26.7715C125.68 26.1309 125.541 25.623 125.264 25.248C124.99 24.873 124.617 24.6855 124.144 24.6855C123.68 24.6855 123.31 24.8711 123.037 25.2422C122.764 25.6094 122.627 26.1602 122.627 26.8945Z" fill="#011F3D"/>
<path d="M129.623 23.6602L129.664 24.3926C130.133 23.8262 130.748 23.543 131.51 23.543C132.83 23.543 133.502 24.2988 133.525 25.8105V30H132.102V25.8926C132.102 25.4902 132.014 25.1934 131.838 25.002C131.666 24.8066 131.383 24.709 130.988 24.709C130.414 24.709 129.986 24.9688 129.705 25.4883V30H128.281V23.6602H129.623Z" fill="#011F3D"/>
</g>
<defs>
<linearGradient id="paint0_linear_3838_55999" x1="3" y1="15.9992" x2="28.8788" y2="15.9992" gradientUnits="userSpaceOnUse">
<stop stop-color="#8E3CF7"/>
<stop offset="1" stop-color="#3CC1B7"/>
</linearGradient>
<clipPath id="clip0_3838_55999">
<rect width="179" height="32" fill="white"/>
</clipPath>
</defs>
</svg>
