<?xml version="1.0" ?>
<svg xmlns="http://www.w3.org/2000/svg" viewBox="0 0 250 250" preserveAspectRatio="xMidYMid meet" version="1.2" baseProfile="tiny-ps">
	<title>Weedmaps</title>
	<defs/>
	<g>
		<g transform="matrix(1,0,0,1,125,125)">
			<g transform="matrix(1,0,0,1,0,0)">
				<path fill="rgb(36,40,52)" fill-opacity="1" d=" M125,-125 C125,-125 125,125 125,125 C125,125 -125,125 -125,125 C-125,125 -125,-125 -125,-125 C-125,-125 125,-125 125,-125z"/>
				<path stroke-linecap="butt" stroke-linejoin="miter" fill-opacity="0" stroke-miterlimit="4" stroke="rgb(255,255,255)" stroke-opacity="1" stroke-width="0" d=" M125,-125 C125,-125 125,125 125,125 C125,125 -125,125 -125,125 C-125,125 -125,-125 -125,-125 C-125,-125 125,-125 125,-125z"/>
			</g>
		</g>
		<g transform="matrix(1.5,0,0,1.5,-81,-37.75)">
			<g transform="matrix(1,0,0,1,138.6020050048828,138.60899353027344)">
				<path fill="rgb(255,255,255)" fill-opacity="1" d=" M0,-1.6720000505447388 C20.31399917602539,-1.6720000505447388 30.597999572753906,-9.38599967956543 30.597999572753906,-9.38599967956543 C30.597999572753906,-9.38599967956543 34.96900177001953,-3.4719998836517334 34.96900177001953,-3.4719998836517334 C34.96900177001953,-3.4719998836517334 19.798999786376953,9.385000228881836 0,9.385000228881836 C-19.799999237060547,9.385000228881836 -34.96900177001953,-3.4719998836517334 -34.96900177001953,-3.4719998836517334 C-34.96900177001953,-3.4719998836517334 -30.597999572753906,-9.38599967956543 -30.597999572753906,-9.38599967956543 C-30.597999572753906,-9.38599967956543 -20.315000534057617,-1.6720000505447388 0,-1.6720000505447388z"/>
			</g>
		</g>
		<g transform="matrix(1.5,0,0,1.5,-81,-37.75)">
			<g transform="matrix(1,0,0,1,200.38400268554688,86.41799926757812)">
				<path fill="rgb(0,205,190)" fill-opacity="1" d=" M0,-4.675000190734863 C0.8019999861717224,-4.675000190734863 1.5709999799728394,-4.474999904632568 2.306999921798706,-4.073999881744385 C3.0439999103546143,-3.6730000972747803 3.622999906539917,-3.0989999771118164 4.044000148773193,-2.3499999046325684 C4.465000152587891,-1.6009999513626099 4.676000118255615,-0.8180000185966492 4.676000118255615,-0.0010000000474974513 C4.676000118255615,0.8130000233650208 4.468999862670898,1.590999960899353 4.056000232696533,2.3289999961853027 C3.6429998874664307,3.068000078201294 3.066999912261963,3.6429998874664307 2.3289999961853027,4.057000160217285 C1.590000033378601,4.46999979019165 0.8130000233650208,4.676000118255615 0,4.676000118255615 C-0.8130000233650208,4.676000118255615 -1.590000033378601,4.46999979019165 -2.3289999961853027,4.057000160217285 C-3.066999912261963,3.6429998874664307 -3.6429998874664307,3.068000078201294 -4.056000232696533,2.3289999961853027 C-4.468999862670898,1.590999960899353 -4.676000118255615,0.8130000233650208 -4.676000118255615,-0.0010000000474974513 C-4.676000118255615,-0.8180000185966492 -4.465000152587891,-1.6009999513626099 -4.044000148773193,-2.3499999046325684 C-3.622999906539917,-3.0989999771118164 -3.0439999103546143,-3.6730000972747803 -2.306999921798706,-4.073999881744385 C-1.5709999799728394,-4.474999904632568 -0.8009999990463257,-4.675000190734863 0,-4.675000190734863z M0.006000000052154064,-3.759000062942505 C-0.6370000243186951,-3.759000062942505 -1.253000020980835,-3.5989999771118164 -1.843000054359436,-3.2769999504089355 C-2.434000015258789,-2.9560000896453857 -2.8980000019073486,-2.494999885559082 -3.23799991607666,-1.8930000066757202 C-3.578000068664551,-1.2910000085830688 -3.747999906539917,-0.6600000262260437 -3.747999906539917,-0.0010000000474974513 C-3.747999906539917,0.6549999713897705 -3.5820000171661377,1.281000018119812 -3.250999927520752,1.8739999532699585 C-2.9179999828338623,2.4679999351501465 -2.4560000896453857,2.931999921798706 -1.8609999418258667,3.2660000324249268 C-1.2680000066757202,3.5989999771118164 -0.6449999809265137,3.7660000324249268 0.006000000052154064,3.7660000324249268 C0.6620000004768372,3.7660000324249268 1.284999966621399,3.5989999771118164 1.8769999742507935,3.2660000324249268 C2.4690001010894775,2.931999921798706 2.931999921798706,2.4679999351501465 3.265000104904175,1.8739999532699585 C3.5989999771118164,1.281000018119812 3.7660000324249268,0.6549999713897705 3.7660000324249268,-0.0010000000474974513 C3.7660000324249268,-0.6600000262260437 3.5959999561309814,-1.2910000085830688 3.25600004196167,-1.8930000066757202 C2.9159998893737793,-2.494999885559082 2.4509999752044678,-2.9560000896453857 1.8589999675750732,-3.2769999504089355 C1.2669999599456787,-3.5989999771118164 0.6489999890327454,-3.759000062942505 0.006000000052154064,-3.759000062942505z M-2.111999988555908,2.503000020980835 C-2.111999988555908,2.503000020980835 -2.111999988555908,-2.4600000381469727 -2.111999988555908,-2.4600000381469727 C-2.111999988555908,-2.4600000381469727 -1.1050000190734863,-2.4600000381469727 -1.1050000190734863,-2.4600000381469727 C-0.16099999845027924,-2.4600000381469727 0.36800000071525574,-2.4549999237060547 0.4819999933242798,-2.447000026702881 C0.8149999976158142,-2.4189999103546143 1.0750000476837158,-2.3529999256134033 1.2599999904632568,-2.249000072479248 C1.4450000524520874,-2.1449999809265137 1.600000023841858,-1.9859999418258667 1.7239999771118164,-1.7730000019073486 C1.8489999771118164,-1.559000015258789 1.9110000133514404,-1.3229999542236328 1.9110000133514404,-1.062999963760376 C1.9110000133514404,-0.7039999961853027 1.7929999828338623,-0.3970000147819519 1.559000015258789,-0.14300000667572021 C1.3259999752044678,0.1120000034570694 0.996999979019165,0.2680000066757202 0.5740000009536743,0.32899999618530273 C0.7239999771118164,0.38600000739097595 0.8399999737739563,0.44999998807907104 0.921999990940094,0.515999972820282 C1.003000020980835,0.5830000042915344 1.1150000095367432,0.7099999785423279 1.2569999694824219,0.8980000019073486 C1.2940000295639038,0.9470000267028809 1.4160000085830688,1.1469999551773071 1.6239999532699585,1.5010000467300415 C1.6239999532699585,1.5010000467300415 2.2090001106262207,2.503000020980835 2.2090001106262207,2.503000020980835 C2.2090001106262207,2.503000020980835 0.9639999866485596,2.503000020980835 0.9639999866485596,2.503000020980835 C0.9639999866485596,2.503000020980835 0.5490000247955322,1.6970000267028809 0.5490000247955322,1.6970000267028809 C0.26899999380111694,1.156000018119812 0.035999998450279236,0.8140000104904175 -0.1469999998807907,0.6740000247955322 C-0.33000001311302185,0.5339999794960022 -0.5609999895095825,0.46399998664855957 -0.8429999947547913,0.46399998664855957 C-0.8429999947547913,0.46399998664855957 -1.1050000190734863,0.46399998664855957 -1.1050000190734863,0.46399998664855957 C-1.1050000190734863,0.46399998664855957 -1.1050000190734863,2.503000020980835 -1.1050000190734863,2.503000020980835 C-1.1050000190734863,2.503000020980835 -2.111999988555908,2.503000020980835 -2.111999988555908,2.503000020980835z M-1.1050000190734863,-0.3179999887943268 C-1.1050000190734863,-0.3179999887943268 -0.6959999799728394,-0.3179999887943268 -0.6959999799728394,-0.3179999887943268 C-0.11400000005960464,-0.3179999887943268 0.24699999392032623,-0.33899998664855957 0.3880000114440918,-0.3840000033378601 C0.527999997138977,-0.42899999022483826 0.6389999985694885,-0.5070000290870667 0.7200000286102295,-0.6190000176429749 C0.8019999861717224,-0.7310000061988831 0.8429999947547913,-0.8579999804496765 0.8429999947547913,-1.0010000467300415 C0.8429999947547913,-1.1390000581741333 0.8029999732971191,-1.2619999647140503 0.7239999771118164,-1.3700000047683716 C0.6439999938011169,-1.4769999980926514 0.531000018119812,-1.5549999475479126 0.3840000033378601,-1.6019999980926514 C0.23800000548362732,-1.6480000019073486 -0.12200000137090683,-1.6729999780654907 -0.6959999799728394,-1.6729999780654907 C-0.6959999799728394,-1.6729999780654907 -1.1050000190734863,-1.6729999780654907 -1.1050000190734863,-1.6729999780654907 C-1.1050000190734863,-1.6729999780654907 -1.1050000190734863,-0.3179999887943268 -1.1050000190734863,-0.3179999887943268z"/>
			</g>
			<g transform="matrix(1,0,0,1,138.20199584960938,99.31900024414062)">
				<path fill="rgb(0,205,190)" fill-opacity="1" d=" M-22.632999420166016,17.56999969482422 C-22.632999420166016,17.56999969482422 -28.722999572753906,-5.39300012588501 -28.722999572753906,-5.39300012588501 C-28.722999572753906,-5.39300012588501 -28.854999542236328,-5.39300012588501 -28.854999542236328,-5.39300012588501 C-28.854999542236328,-5.39300012588501 -34.678001403808594,17.56999969482422 -34.678001403808594,17.56999969482422 C-34.678001403808594,17.56999969482422 -44.40800094604492,17.56999969482422 -44.40800094604492,17.56999969482422 C-44.40800094604492,17.56999969482422 -55.262001037597656,-16.64299964904785 -55.262001037597656,-16.64299964904785 C-55.262001037597656,-16.64299964904785 -45.33300018310547,-16.64299964904785 -45.33300018310547,-16.64299964904785 C-45.33300018310547,-16.64299964904785 -39.04600143432617,6.585000038146973 -39.04600143432617,6.585000038146973 C-39.04600143432617,6.585000038146973 -38.91299819946289,6.585000038146973 -38.91299819946289,6.585000038146973 C-38.91299819946289,6.585000038146973 -33.222999572753906,-16.64299964904785 -33.222999572753906,-16.64299964904785 C-33.222999572753906,-16.64299964904785 -24.086999893188477,-16.64299964904785 -24.086999893188477,-16.64299964904785 C-24.086999893188477,-16.64299964904785 -18.263999938964844,6.519999980926514 -18.263999938964844,6.519999980926514 C-18.263999938964844,6.519999980926514 -18.131999969482422,6.519999980926514 -18.131999969482422,6.519999980926514 C-18.131999969482422,6.519999980926514 -11.845999717712402,-16.64299964904785 -11.845999717712402,-16.64299964904785 C-11.845999717712402,-16.64299964904785 -2.184000015258789,-16.64299964904785 -2.184000015258789,-16.64299964904785 C-2.184000015258789,-16.64299964904785 -12.968999862670898,17.56999969482422 -12.968999862670898,17.56999969482422 C-12.968999862670898,17.56999969482422 -22.632999420166016,17.56999969482422 -22.632999420166016,17.56999969482422z M11.845999717712402,-16.64299964904785 C11.845999717712402,-16.64299964904785 11.845999717712402,-12.01099967956543 11.845999717712402,-12.01099967956543 C11.845999717712402,-12.01099967956543 11.979000091552734,-12.01099967956543 11.979000091552734,-12.01099967956543 C13.21500015258789,-13.77400016784668 14.70199966430664,-15.142999649047852 16.44700050354004,-16.11400032043457 C18.187999725341797,-17.084999084472656 20.187000274658203,-17.56999969482422 22.43600082397461,-17.56999969482422 C24.597999572753906,-17.56999969482422 26.570999145507812,-17.149999618530273 28.358999252319336,-16.31399917602539 C30.145999908447266,-15.475000381469727 31.50200080871582,-13.996999740600586 32.428001403808594,-11.878999710083008 C33.44300079345703,-13.378999710083008 34.821998596191406,-14.701000213623047 36.564998626708984,-15.85099983215332 C38.30799865722656,-16.996999740600586 40.37099838256836,-17.56999969482422 42.755001068115234,-17.56999969482422 C44.5620002746582,-17.56999969482422 46.23899841308594,-17.347999572753906 47.78300094604492,-16.90999984741211 C49.32899856567383,-16.468000411987305 50.6510009765625,-15.762999534606934 51.75299835205078,-14.791999816894531 C52.856998443603516,-13.821000099182129 53.71799850463867,-12.555000305175781 54.33700180053711,-10.984999656677246 C54.95500183105469,-9.418999671936035 55.262001037597656,-7.5320000648498535 55.262001037597656,-5.327000141143799 C55.262001037597656,-5.327000141143799 55.262001037597656,17.56999969482422 55.262001037597656,17.56999969482422 C55.262001037597656,17.56999969482422 45.862998962402344,17.56999969482422 45.862998962402344,17.56999969482422 C45.862998962402344,17.56999969482422 45.862998962402344,-1.819000005722046 45.862998962402344,-1.819000005722046 C45.862998962402344,-2.9649999141693115 45.819000244140625,-4.045000076293945 45.72999954223633,-5.059999942779541 C45.64400100708008,-6.078999996185303 45.4010009765625,-6.958000183105469 45.005001068115234,-7.710000038146973 C44.606998443603516,-8.458999633789062 44.02299880981445,-9.053999900817871 43.249000549316406,-9.496000289916992 C42.47700119018555,-9.937000274658203 41.42900085449219,-10.15999984741211 40.10599899291992,-10.15999984741211 C38.78300094604492,-10.15999984741211 37.7130012512207,-9.904000282287598 36.89799880981445,-9.397000312805176 C36.08000183105469,-8.890000343322754 35.441001892089844,-8.229000091552734 34.97700119018555,-7.410999774932861 C34.513999938964844,-6.5970001220703125 34.20500183105469,-5.665999889373779 34.04999923706055,-4.629000186920166 C33.89500045776367,-3.5969998836517334 33.81800079345703,-2.5490000247955322 33.81800079345703,-1.4869999885559082 C33.81800079345703,-1.4869999885559082 33.81800079345703,17.56999969482422 33.81800079345703,17.56999969482422 C33.81800079345703,17.56999969482422 24.42099952697754,17.56999969482422 24.42099952697754,17.56999969482422 C24.42099952697754,17.56999969482422 24.42099952697754,-1.621999979019165 24.42099952697754,-1.621999979019165 C24.42099952697754,-2.635999917984009 24.39900016784668,-3.640000104904175 24.354999542236328,-4.629000186920166 C24.31100082397461,-5.625999927520752 24.125999450683594,-6.539000034332275 23.79400062561035,-7.377999782562256 C23.461000442504883,-8.218000411987305 22.909000396728516,-8.890000343322754 22.138999938964844,-9.397000312805176 C21.364999771118164,-9.904000282287598 20.22800064086914,-10.15999984741211 18.729000091552734,-10.15999984741211 C18.288000106811523,-10.15999984741211 17.70400047302246,-10.057999610900879 16.975000381469727,-9.859999656677246 C16.246999740600586,-9.663999557495117 15.538999557495117,-9.288000106811523 14.857999801635742,-8.736000061035156 C14.17199993133545,-8.1850004196167 13.59000015258789,-7.388999938964844 13.104000091552734,-6.3520002365112305 C12.616999626159668,-5.315999984741211 12.37600040435791,-3.9579999446868896 12.37600040435791,-2.2820000648498535 C12.37600040435791,-2.2820000648498535 12.37600040435791,17.56999969482422 12.37600040435791,17.56999969482422 C12.37600040435791,17.56999969482422 2.9790000915527344,17.56999969482422 2.9790000915527344,17.56999969482422 C2.9790000915527344,17.56999969482422 2.9790000915527344,-16.64299964904785 2.9790000915527344,-16.64299964904785 C2.9790000915527344,-16.64299964904785 11.845999717712402,-16.64299964904785 11.845999717712402,-16.64299964904785z"/>
			</g>
		</g>
	</g>
</svg>
