<?xml version="1.0" encoding="utf-8"?>
<!-- Generator: Adobe Illustrator 23.0.6, SVG Export Plug-In . SVG Version: 6.00 Build 0)  -->
<svg version="1.2" baseProfile="tiny-ps"  viewBox="0 0 400 400" xmlns="http://www.w3.org/2000/svg">
  <title>Wholesales Direct Logo</title>
<g id="svgg">
	<path id="path0" fill-rule="evenodd" fill="#EB5B15" d="M154.1,64.4c-3.4,0.9-7.2,2.7-9.5,4.6c-0.9,0.8-1.9,1.5-2.1,1.7   c-0.3,0.2,24.5,25.2,61.3,62l61.7,61.7l1.3-1.5c2-2.3,3.8-5.5,5-8.9l1.1-3.1l0.1-22.4l0.1-22.4l-36.2-36.3l-36.2-36.2l-21.9,0   C158.6,63.7,156.6,63.8,154.1,64.4 M240.4,96.1l32.4,32.4l0.1-3.8l0.1-3.8l-28.6-28.6l-28.6-28.6h-3.9H208L240.4,96.1 M247.7,88.5   c13.6,13.6,24.9,24.8,25.1,24.8c0.2,0,0.3-1.7,0.3-3.8v-3.8l-21-21l-21-21H227h-4.1L247.7,88.5 M255.5,81.1   C270,95.6,272.9,98.3,273,97.6c0.5-3.2-0.3-13.1-1.3-16.2c-3.8-11.6-13.1-17.7-27.3-17.7h-6.3L255.5,81.1 M138.9,225.8   c-13.8,2.2-23.4,12.6-23.3,25.4c0.1,26.9,41.2,24,46.1-3.3C164.1,234.4,152.9,223.5,138.9,225.8 M238.3,226.2   c-7.1,1.5-12.4,7.7-12.8,15.1c-0.3,5.9,1.5,7.9,9.3,10.3c4.4,1.4,5.8,2.4,5.8,4.4c0,5.2-8.2,6-13.4,1.4l-1.3-1.2l-3,4.4   c-3.5,5-3.5,4.5,1.1,6.8c10.7,5.2,23.4,1.2,27.2-8.7c3-7.8,0.6-12.9-7.5-15.5c-4-1.3-6-2.3-6.3-3.1c-1.7-4.5,5-6.8,10.1-3.4   c0.8,0.5,1.6,0.8,1.8,0.7c0.7-0.8,5.1-7.6,5.1-7.9C254.3,227.5,242.8,225.2,238.3,226.2 M372.9,226.3c-7.5,2-12.7,8.6-12.7,16.3   c0,4.5,2.1,6.5,9.6,9c6,2,7.4,4.1,4.8,7c-2.6,2.9-7.4,2.6-11.8-0.7l-2-1.5l-2.8,4.1c-3.3,4.8-3.3,4.7,0.6,6.7   c12.4,6.3,26.5,0.3,28.6-12.1c1.1-6.5-1.3-9.6-9.7-12.3c-5.3-1.7-6.6-3.5-4.5-6c1.9-2.3,5.3-2.4,9-0.4l2,1.1l2.8-4.1   c1.5-2.3,2.7-4.2,2.6-4.2C386.8,226.9,377,225.2,372.9,226.3 M10.7,228.2c0.1,0.7,1.1,7.5,2.2,15.1s2.3,16.4,2.7,19.5   c0.4,3.1,0.8,5.7,0.8,5.8c0,0.1,2.5,0.1,5.5,0.1h5.5l6-12.1c4.5-9,6.1-11.9,6.2-11.2c0.1,0.5,0.8,5.4,1.6,10.8   c0.8,5.5,1.5,10.5,1.6,11.2l0.2,1.3l5.5-0.1l5.5-0.1l9.9-20.7c5.4-11.4,9.9-20.7,9.9-20.8c0-0.1-2.5-0.1-5.6-0.1h-5.6l-5.1,11.4   c-2.8,6.3-5.5,12.3-6,13.3c-1.1,2.5-0.9,3.2-2.9-10.7c-1-6.8-1.9-12.7-2-13.2c-0.2-0.9-0.3-0.9-4.5-0.8l-4.3,0.1l-6.3,13.2   c-3.5,7.2-6.4,13.2-6.5,13.2c-0.1,0-0.8-5.3-1.5-11.8c-0.7-6.5-1.4-12.5-1.5-13.3l-0.2-1.5h-5.6h-5.6L10.7,228.2 M75.2,236   c-0.8,5-2.3,14.3-3.3,20.7c-1,6.4-1.8,11.7-1.7,11.8c0.1,0.1,2.5,0.2,5.4,0.2h5.2l0.2-1.1c0.1-0.6,0.7-4,1.2-7.5   c0.5-3.5,1.1-6.9,1.2-7.5l0.2-1.1h7.8h7.8l-0.2,1.1c-0.1,0.6-0.7,4-1.2,7.5c-0.5,3.5-1.1,6.9-1.2,7.5l-0.2,1.1h5.5h5.5l0.3-1.9   c0.2-1,1.6-10.4,3.3-20.8l3-18.9l-5.3-0.1c-2.9-0.1-5.3,0-5.4,0.1c-0.1,0.1-0.7,3.7-1.4,8l-1.2,7.8h-7.7c-7.1,0-7.7-0.1-7.7-0.7   c0-0.7,1.8-12.4,2.2-14.3l0.2-1.1h-5.4h-5.4L75.2,236 M168.7,235.1c-0.7,4.5-2.2,13.8-3.3,20.7c-1.4,8.5-1.9,12.7-1.6,12.8   c0.2,0.1,5.6,0.1,11.9,0.1l11.5-0.1l0.7-4.1c0.4-2.3,0.7-4.3,0.7-4.6c0-0.4-1.5-0.5-6.4-0.5c-3.5,0-6.4-0.1-6.4-0.1   c0-0.3,4.7-30.2,4.9-31.2l0.2-1.1h-5.4H170L168.7,235.1 M197.3,227.3c0,0.2-1.4,9.3-3.1,20.2c-1.7,10.9-3.2,20.1-3.2,20.5   c-0.1,0.5,1.5,0.6,11.7,0.7l11.8,0.1l0.2-0.9c0.1-0.5,0.4-2.3,0.7-4c0.2-1.7,0.5-3.4,0.6-3.8c0.2-0.6-0.3-0.7-6.3-0.7   c-4.9,0-6.5-0.1-6.4-0.5c0-0.3,0.2-1.8,0.5-3.4l0.5-2.9l6.1-0.1l6.1-0.1l0.2-1.3c1.1-6.3,1.2-7.7,1.1-7.9c-0.1-0.1-2.8-0.2-6-0.2   c-6.7,0-6.2,0.4-5.3-4.3l0.5-2.5l6.4-0.2l6.4-0.2l0.5-3.1c0.3-1.7,0.6-3.7,0.7-4.4l0.2-1.3h-11.9   C202.6,227,197.3,227.1,197.3,227.3 M271.4,231.7c-1.4,2.6-6.5,11.9-11.2,20.7c-4.8,8.8-8.6,16-8.6,16.1c0,0.1,2.6,0.2,5.7,0.1   l5.7-0.1l2-3.6l2-3.6h7.5h7.5l0.7,3.6l0.7,3.6l5.8,0.1c3.2,0.1,5.8,0,5.8-0.2c0-0.2-8.3-38.5-8.9-40.7c-0.2-0.9-0.3-0.9-6.1-0.9   l-5.9,0L271.4,231.7 M304.9,227.4c-0.2,0.5-6.4,40.4-6.4,41c0,0.2,5.1,0.4,11.9,0.4h11.9l0.6-4.1c0.3-2.2,0.6-4.4,0.6-4.7   c0-0.5-0.9-0.6-6.5-0.6h-6.5l0.2-0.9c0.3-1.2,4.9-30.5,4.9-31.1c0-0.4-1.3-0.5-5.3-0.5C306.5,227,305,227.1,304.9,227.4    M332.2,227.4c-0.2,0.5-6.5,40.4-6.5,41c0,0.2,4.6,0.3,11.8,0.3l11.8-0.1l0.7-3.9c0.4-2.1,0.7-4.2,0.7-4.6c0-0.6-0.5-0.7-6.4-0.7   c-6,0-6.5-0.1-6.3-0.7c0.1-0.4,0.4-2,0.6-3.5l0.5-2.8l6.1-0.1l6.1-0.1l0.7-4.1c0.4-2.3,0.7-4.3,0.7-4.6c0-0.4-1.4-0.5-6-0.5   c-4.6,0-6-0.1-6-0.5c0-0.3,0.2-1.8,0.5-3.4l0.5-2.9l6.5-0.1l6.5-0.1l0.6-4.2c0.4-2.3,0.6-4.3,0.6-4.5   C355.9,226.7,332.4,226.9,332.2,227.4 M144.7,236.9c5.4,2.2,7.4,8.2,4.6,14c-6,12.8-23.3,10.6-22.3-2.7   C127.6,239.9,137.3,233.8,144.7,236.9 M279,246.2c0.6,3.3,1,6.2,1,6.4c0,0.3-1.3,0.5-4.3,0.5c-2.4,0-4.3-0.1-4.2-0.3   c0.7-1.7,6-12.6,6.2-12.6C277.9,240.2,278.5,242.9,279,246.2" />
	<path id="path1" fill-rule="evenodd" fill="#1C4B93" d="M133.3,80.2c-1.9,1.9-3.9,5.6-5.1,9.1l-1.1,3.1v47.9v47.9l0.9,2.9   c2.8,8.9,9.9,15.7,18.5,17.8c3.7,0.9,95.9,0.9,99.4,0c3.1-0.8,8.2-3.3,10.3-5.2l1.7-1.5l-61.6-61.6c-33.9-33.9-61.6-61.6-61.7-61.6   C134.6,78.9,134,79.5,133.3,80.2 M252.8,277c-21.9,3.2-30.7,32.6-12.5,41.5c3,1.5,7.4,2.3,10.5,2c2.3-0.2,8-1.5,8.4-1.9   c0.1-0.1,2.1-12,2.1-12.6c0-0.1-0.8,0.4-1.8,1.1c-8,6.1-18.2,2-17.7-7.2c0.6-10.7,12.8-16.7,20.2-10l1.6,1.4l0.2-1.3   c1-6.1,1.7-11,1.6-11.3C264.6,277.6,256.8,276.4,252.8,277 M108.6,277.9c0,0.4-6.3,40-6.5,40.8l-0.2,0.9l9.9-0.1   c11.3-0.2,13.5-0.6,18.7-4c16.4-10.6,15.1-33.5-2.2-37.2C125.8,277.8,108.6,277.4,108.6,277.9 M150.2,278.2   c-0.2,0.6-6.4,40-6.4,40.8c0,0.4,1,0.5,5.4,0.4l5.4-0.1l3-18.9c1.6-10.4,3.1-19.8,3.3-20.8l0.3-1.9h-5.3   C151.8,277.7,150.3,277.9,150.2,278.2 M168,278.1c0,0.2-1.4,9.3-3.1,20.2c-1.7,10.9-3.1,20.1-3.1,20.5c0,1.1,10.4,1.2,10.7,0.1   c0.1-0.4,0.7-3.9,1.3-7.8c0.6-3.9,1.2-7.1,1.3-7.1c0.1,0,1.9,3.5,3.9,7.8l3.7,7.8h6.8c3.7,0,6.7-0.1,6.6-0.3   c-0.1-0.2-2.4-3.9-5.1-8.4c-5.3-8.7-5.2-8.5-4.4-8.5c2.7,0,7.2-3.9,9-7.7c3.2-6.8,1.2-13.5-4.7-15.8   C188.2,277.9,168,277.2,168,278.1 M205.7,278.2c-0.2,0.6-6.4,40-6.4,40.8c0,0.5,1.8,0.5,11.8,0.5l11.8-0.1l0.5-3.1   c0.3-1.7,0.6-3.8,0.7-4.6l0.2-1.5h-6.5c-6,0-6.5-0.1-6.3-0.7c0.1-0.4,0.3-1.6,0.4-2.6c0.5-4.1-0.1-3.7,6.7-3.7   c6.9,0,6.1,0.5,6.8-4.5c0.2-1.7,0.5-3.4,0.6-3.8c0.2-0.6-0.3-0.7-5.9-0.7c-4.6,0-6.1-0.1-6.1-0.5c0-0.3,0.2-1.8,0.5-3.5l0.5-3   l6.5-0.1l6.5-0.1l0.4-2.7c0.2-1.5,0.6-3.6,0.7-4.6l0.3-1.9h-11.8C208.5,277.7,205.8,277.8,205.7,278.2 M268.6,281.9   c-0.4,2.3-0.7,4.4-0.7,4.7c0,0.4,1.1,0.5,4.3,0.5c3.7,0,4.3,0.1,4.3,0.6c0,0.3-1.1,7.3-2.3,15.5c-1.3,8.2-2.3,15.2-2.3,15.6   c0,1.3,10.4,1.2,10.7-0.1c0.2-1,4.9-30.8,4.9-31.3c0-0.2,2-0.3,4.5-0.3c5.1,0,4.6,0.4,5.3-4.5c0.2-1.7,0.5-3.5,0.7-4l0.2-0.9h-14.4   h-14.4L268.6,281.9 M183.4,287.1c3,1.7,2.4,6.7-1,8.5c-2.2,1.1-6.2,1.3-6.2,0.2c0-0.9,1.1-8.4,1.4-9.3   C177.8,285.7,181.8,286.2,183.4,287.1 M126,288.2c7.5,3.9,5.7,16.7-2.9,20.7c-2.4,1.1-8.7,1.8-8.7,0.9c0-0.2,0.8-5.4,1.8-11.4   c1-6,1.8-11.1,1.8-11.2C118,286.6,124.5,287.4,126,288.2" />
	<path id="path2" fill-rule="evenodd" fill="#FBFBFB" d="M0,200v200h200h200V200V0H200H0V200 M236.8,99.9l36.2,36.3l-0.1,22.4   l-0.1,22.4l-1.1,3.1c-1.2,3.4-3,6.6-5,8.9l-1.3,1.5l-61.7-61.7c-36.8-36.8-61.5-61.9-61.3-62c0.2-0.2,1.2-0.9,2.1-1.7   c6.2-5.1,8-5.4,34.2-5.4l21.9,0L236.8,99.9 M244.4,92.3l28.6,28.6l-0.1,3.8l-0.1,3.8l-32.4-32.4L208,63.7h3.9h3.9L244.4,92.3    M252.1,84.7l21,21v3.8c0,2.1-0.1,3.8-0.3,3.8c-0.2,0-11.5-11.2-25.1-24.8l-24.8-24.8h4.1h4.1L252.1,84.7 M253.7,64.4   c8.4,2.1,15.4,8.7,18.1,16.9c1,3.1,1.8,13,1.3,16.2c-0.1,0.7-3-2-17.5-16.5l-17.4-17.4h6.3C249.3,63.7,251.3,63.8,253.7,64.4    M196.3,140.5l61.6,61.6l-1.7,1.5c-2.1,1.8-7.2,4.4-10.3,5.2c-3.5,0.9-95.6,0.9-99.4,0c-8.6-2-15.7-8.9-18.5-17.8l-0.9-2.9v-47.9   V92.4l1.1-3.1c1.4-4,5.3-10.4,6.4-10.4C134.7,78.9,162.4,106.6,196.3,140.5 M148.4,226.4c24.4,6.9,13.3,43.5-13.2,43.5   c-14.1,0-22.6-11.2-19-25C119.7,231.6,135.3,222.7,148.4,226.4 M248.5,226.7c2.7,0.7,5.8,2.1,5.8,2.6c0,0.3-4.4,7.1-5.1,7.9   c-0.2,0.2-1-0.1-1.8-0.7c-5.1-3.3-11.8-1-10.1,3.4c0.3,0.8,2.3,1.8,6.3,3.1c8.1,2.7,10.6,7.7,7.5,15.5c-3.8,9.9-16.5,13.9-27.2,8.7   c-4.7-2.3-4.6-1.8-1.1-6.8l3-4.4l1.3,1.2c5.2,4.6,13.4,3.7,13.4-1.4c0-2-1.4-3.1-5.8-4.4c-7.8-2.4-9.6-4.4-9.3-10.3   C226.1,230.1,236.4,223.5,248.5,226.7 M384.2,227c2.3,0.7,4.7,1.7,5.2,2.1c0.1,0.1-1.1,2-2.6,4.2l-2.8,4.1l-2-1.1   c-3.7-2.1-7.1-1.9-9,0.4c-2.1,2.5-0.7,4.3,4.5,6c8.4,2.7,10.8,5.8,9.7,12.3c-2.1,12.4-16.2,18.4-28.6,12.1c-3.9-2-3.9-1.9-0.6-6.7   l2.8-4.1l2,1.5c4.4,3.3,9.2,3.6,11.8,0.7c2.6-2.9,1.2-5-4.8-7c-8.8-2.9-10.6-5.5-9.1-12.6C362.8,228.7,373,223.5,384.2,227    M22,228.4c0.1,0.8,0.8,6.8,1.5,13.3c0.7,6.5,1.4,11.8,1.5,11.8c0.1,0,3-5.9,6.5-13.2l6.3-13.2l4.3-0.1c4.2-0.1,4.3-0.1,4.5,0.8   c0.1,0.5,1,6.4,2,13.2c2,13.9,1.8,13.2,2.9,10.7c0.5-1,3.1-7,6-13.3l5.1-11.4h5.6c3.1,0,5.6,0.1,5.6,0.1c0,0.1-4.4,9.4-9.9,20.8   l-9.9,20.7l-5.5,0.1l-5.5,0.1l-0.2-1.3c-0.1-0.7-0.9-5.8-1.6-11.2c-0.8-5.5-1.5-10.4-1.6-10.8c-0.1-0.7-1.7,2.2-6.2,11.2l-6,12.1   h-5.5c-3,0-5.5,0-5.5-0.1c0-0.1-0.4-2.7-0.8-5.8c-0.4-3.1-1.7-11.9-2.7-19.5s-2-14.4-2.2-15.1l-0.2-1.3h5.6h5.6L22,228.4 M87.3,228   c-0.4,1.8-2.2,13.5-2.2,14.3c0,0.6,0.6,0.7,7.7,0.7h7.7l1.2-7.8c0.7-4.3,1.3-7.9,1.4-8c0.1-0.1,2.5-0.1,5.4-0.1l5.3,0.1l-3,18.9   c-1.6,10.4-3.1,19.8-3.3,20.8l-0.3,1.9h-5.5h-5.5l0.2-1.1c0.1-0.6,0.7-4,1.2-7.5c0.5-3.5,1.1-6.9,1.2-7.5l0.2-1.1h-7.8h-7.8   l-0.2,1.1c-0.1,0.6-0.7,4-1.2,7.5c-0.5,3.5-1.1,6.9-1.2,7.5l-0.2,1.1h-5.2c-2.8,0-5.3-0.1-5.4-0.2c-0.1-0.1,0.6-5.4,1.7-11.8   c1-6.4,2.5-15.7,3.3-20.7l1.4-9.1h5.4h5.4L87.3,228 M180.7,228c-0.2,1-4.9,30.9-4.9,31.2c0,0.1,2.9,0.1,6.4,0.1   c4.9,0,6.4,0.1,6.4,0.5c0,0.3-0.3,2.3-0.7,4.6l-0.7,4.1l-11.5,0.1c-6.3,0.1-11.7,0-11.9-0.1c-0.3-0.1,0.2-4.3,1.6-12.8   c1.1-6.9,2.6-16.3,3.3-20.7l1.3-8.1h5.4h5.4L180.7,228 M220.9,228.2c-0.1,0.7-0.5,2.7-0.7,4.4l-0.5,3.1l-6.4,0.2l-6.4,0.2l-0.5,2.5   c-0.9,4.7-1.4,4.3,5.3,4.3c3.2,0,5.9,0.1,6,0.2c0.2,0.2,0,1.6-1.1,7.9l-0.2,1.3l-6.1,0.1l-6.1,0.1l-0.5,2.9   c-0.3,1.6-0.5,3.1-0.5,3.4c0,0.4,1.5,0.5,6.4,0.5c6,0,6.5,0.1,6.3,0.7c-0.1,0.4-0.4,2.1-0.6,3.8c-0.2,1.7-0.5,3.5-0.7,4l-0.2,0.9   l-11.8-0.1c-10.2-0.1-11.8-0.2-11.7-0.7c0-0.3,1.5-9.5,3.2-20.5c1.7-10.9,3.1-20,3.1-20.2c0-0.2,5.4-0.3,11.9-0.3h11.9L220.9,228.2    M286.1,227.8c0.5,2.2,8.9,40.4,8.9,40.7c0,0.2-2.6,0.2-5.8,0.2l-5.8-0.1l-0.7-3.6l-0.7-3.6h-7.5h-7.5l-2,3.6l-2,3.6l-5.7,0.1   c-3.1,0.1-5.7,0-5.7-0.1c0-0.1,3.9-7.4,8.6-16.1c4.8-8.8,9.8-18.1,11.2-20.7l2.6-4.8l5.9,0C285.8,227,285.9,227,286.1,227.8    M315.6,227.4c0,0.6-4.6,29.8-4.9,31.1l-0.2,0.9h6.5c5.6,0,6.5,0.1,6.5,0.6c0,0.3-0.3,2.4-0.6,4.7l-0.6,4.1h-11.9   c-6.8,0-11.9-0.2-11.9-0.4c0-0.6,6.3-40.4,6.4-41c0.1-0.4,1.6-0.5,5.5-0.5C314.3,227,315.6,227.1,315.6,227.4 M355.9,227.2   c0,0.2-0.3,2.2-0.6,4.5l-0.6,4.2l-6.5,0.1l-6.5,0.1l-0.5,2.9c-0.3,1.6-0.5,3.1-0.5,3.4c0,0.4,1.4,0.5,6,0.5c4.6,0,6,0.1,6,0.5   c0,0.3-0.3,2.3-0.7,4.6l-0.7,4.1l-6.1,0.1l-6.1,0.1l-0.5,2.8c-0.3,1.6-0.5,3.1-0.6,3.5c-0.2,0.6,0.3,0.7,6.3,0.7   c5.9,0,6.5,0.1,6.4,0.7c0,0.4-0.3,2.4-0.7,4.6l-0.7,3.9l-11.8,0.1c-7.2,0.1-11.8,0-11.8-0.3c0-0.6,6.3-40.4,6.5-41   C332.4,226.9,355.9,226.7,355.9,227.2 M137.8,236.3c-9.7,2.4-14.2,13.5-8.2,20c6.9,7.4,21,0.2,20.9-10.6   C150.5,239.3,144.3,234.7,137.8,236.3 M274.6,246.3c-1.6,3.4-3,6.3-3.1,6.4c-0.1,0.2,1.8,0.3,4.2,0.3c3,0,4.3-0.1,4.3-0.5   c0-1.1-2.1-12.4-2.3-12.4C277.6,240.2,276.2,243,274.6,246.3 M262.8,277.8c3.2,1,3.2,0.3,1.1,12.4l-0.2,1.3L262,290   c-7.4-6.7-19.5-0.6-20.2,10c-0.5,9.2,9.6,13.3,17.7,7.2c1-0.7,1.8-1.3,1.8-1.1c0,0.6-2,12.5-2.1,12.6c-0.1,0.1-1.4,0.5-3,0.9   c-19.6,5.1-32.6-12.4-22.2-30C239.9,279.7,252.4,274.6,262.8,277.8 M128.2,278.3c17.3,3.7,18.7,26.5,2.2,37.2   c-5.2,3.4-7.3,3.8-18.7,4l-9.9,0.1l0.2-0.9c0.2-0.8,6.5-40.4,6.5-40.8C108.6,277.4,125.8,277.8,128.2,278.3 M160.7,279.6   c-0.2,1-1.6,10.4-3.3,20.8l-3,18.9l-5.4,0.1c-4.3,0.1-5.4,0-5.4-0.4c0-0.8,6.2-40.2,6.4-40.8c0.1-0.4,1.6-0.5,5.5-0.5h5.3   L160.7,279.6 M190.7,278.8c5.9,2.3,7.9,9,4.7,15.8c-1.8,3.8-6.3,7.7-9,7.7c-0.7,0-0.8-0.2,4.4,8.5c2.7,4.5,5,8.2,5.1,8.4   c0.1,0.2-2.9,0.3-6.6,0.3h-6.8l-3.7-7.8c-2-4.3-3.8-7.8-3.9-7.8c-0.1,0-0.7,3.2-1.3,7.1c-0.6,3.9-1.2,7.4-1.3,7.8   c-0.3,1.1-10.7,1-10.7-0.1c0-0.4,1.4-9.7,3.1-20.5c1.7-10.9,3.1-20,3.1-20.2C168,277.2,188.2,277.9,190.7,278.8 M229.1,279.6   c-0.1,1-0.5,3.1-0.7,4.6l-0.4,2.7l-6.5,0.1l-6.5,0.1l-0.5,3c-0.3,1.7-0.5,3.2-0.5,3.5c0,0.4,1.5,0.5,6.1,0.5c5.6,0,6.1,0.1,5.9,0.7   c-0.1,0.4-0.4,2.1-0.6,3.8c-0.7,5,0,4.5-6.8,4.5c-6.8,0-6.1-0.4-6.7,3.7c-0.1,1.1-0.3,2.3-0.4,2.6c-0.2,0.6,0.3,0.7,6.3,0.7h6.5   l-0.2,1.5c-0.1,0.8-0.4,2.9-0.7,4.6l-0.5,3.1l-11.8,0.1c-10,0.1-11.8,0-11.8-0.5c0-0.8,6.2-40.2,6.4-40.8c0.1-0.4,2.9-0.5,11.9-0.5   h11.8L229.1,279.6 M297.9,278.6c-0.1,0.5-0.4,2.3-0.7,4c-0.7,4.9-0.2,4.5-5.3,4.5c-2.5,0-4.5,0.1-4.5,0.3c0,0.4-4.7,30.2-4.9,31.3   c-0.3,1.3-10.7,1.4-10.7,0.1c0-0.4,1.1-7.4,2.3-15.6c1.3-8.2,2.3-15.1,2.3-15.5c0-0.5-0.6-0.6-4.3-0.6c-3.2,0-4.3-0.1-4.3-0.5   c0-0.3,0.3-2.4,0.7-4.7l0.7-4.2h14.4h14.4L297.9,278.6 M177.6,286.4c-0.3,0.9-1.4,8.4-1.4,9.3c0,1.1,4,0.9,6.2-0.2   c3.5-1.8,4.1-6.8,1-8.5C181.8,286.2,177.8,285.7,177.6,286.4 M118,287.2c0,0.1-0.8,5.1-1.8,11.2c-1,6-1.8,11.2-1.8,11.4   c0,0.9,6.2,0.3,8.7-0.9c8.7-4,10.5-16.8,2.9-20.7C124.5,287.4,118,286.6,118,287.2" />
</g>
</svg>