<?xml version="1.0" ?>
<!DOCTYPE svg
  PUBLIC '-//W3C//DTD SVG 1.1//EN'
  'http://www.w3.org/Graphics/SVG/1.1/DTD/svg11.dtd'>
<svg xmlns="http://www.w3.org/2000/svg" xmlns:xlink="http://www.w3.org/1999/xlink" xmlns:serif="http://www.serif.com/" viewBox="0 0 320 175" version="1.1" xml:space="preserve" style="fill-rule:evenodd;clip-rule:evenodd;stroke-linejoin:round;stroke-miterlimit:2;">
	
    
	<g id="_1489136024.svg" serif:id="1489136024.svg" transform="matrix(0.870769,0,0,0.870769,160,85.8332)">
		
        
		<g transform="matrix(1,0,0,1,-102.4,-102.4)">
			
            
			<g id="layer1" transform="matrix(1,0,0,1,-290.037,-324.972)">
				
                
				<path id="path10000" d="M372.669,373.59C357.564,373.59 342.55,379.81 331.868,390.491C325.138,397.221 320.185,405.67 317.437,414.778C310.834,416.024 304.598,419.247 299.843,424.002C293.645,430.2 290.037,438.909 290.037,447.674C290.037,456.439 293.645,465.15 299.843,471.348C306.041,477.546 314.752,481.154 323.517,481.154L473.467,481.154C479.061,481.154 484.623,478.852 488.579,474.896C492.535,470.94 494.837,465.378 494.837,459.784C494.837,454.189 492.535,448.63 488.579,444.674C484.647,440.742 479.129,438.447 473.57,438.419C472.485,428.282 467.892,418.525 460.678,411.311C452.37,403.003 440.694,398.166 428.945,398.166C426.093,398.166 423.246,398.458 420.45,399.009C418.403,395.955 416.072,393.093 413.471,390.491C402.789,379.81 387.775,373.59 372.669,373.59Z" style="fill:rgb(128,128,128);fill-rule:nonzero;"/>
				
            
			</g>
			
        
		</g>
		
    
	</g>
	
    
	<g transform="matrix(0.535193,0,0,0.449935,74.378,61.0809)">
		
        
		<g transform="matrix(85.9589,0,0,102.247,37.5271,127.348)">
			
            
			<path d="M0.094,-0.47L0.003,-0.47L0.234,0.033L0.379,-0.317L0.524,0.033L0.757,-0.47L0.666,-0.47L0.526,-0.152L0.379,-0.506L0.233,-0.152L0.094,-0.47Z" style="fill-rule:nonzero;"/>
			
        
		</g>
		
        
		<g transform="matrix(85.9589,0,0,102.247,102.856,127.348)">
			
            
			<path d="M0.281,0.013C0.418,0.013 0.528,-0.096 0.528,-0.234C0.528,-0.372 0.419,-0.483 0.281,-0.483C0.143,-0.483 0.034,-0.372 0.034,-0.234C0.034,-0.096 0.144,0.013 0.281,0.013ZM0.281,-0.409C0.38,-0.409 0.448,-0.33 0.448,-0.235C0.448,-0.139 0.38,-0.061 0.281,-0.061C0.182,-0.061 0.114,-0.139 0.114,-0.235C0.114,-0.33 0.182,-0.409 0.281,-0.409Z" style="fill-rule:nonzero;"/>
			
        
		</g>
		
        
		<g transform="matrix(85.9589,0,0,102.247,151.165,127.348)">
			
            
			<path d="M0.171,-0.47L0.091,-0.47L0.091,-0L0.171,-0L0.171,-0.47ZM0.131,-0.704C0.1,-0.704 0.074,-0.678 0.074,-0.647C0.074,-0.615 0.1,-0.59 0.131,-0.59C0.162,-0.59 0.188,-0.615 0.188,-0.647C0.188,-0.678 0.162,-0.704 0.131,-0.704Z" style="fill-rule:nonzero;"/>
			
        
		</g>
		
        
		<g transform="matrix(85.9589,0,0,102.247,173.686,127.348)">
			
            
			<path d="M0.152,-0.825L0.072,-0.825L0.072,-0L0.152,-0L0.152,-0.193L0.173,-0.214L0.362,-0L0.468,-0L0.229,-0.27L0.43,-0.47L0.323,-0.47L0.152,-0.296L0.152,-0.825Z" style="fill-rule:nonzero;"/>
			
        
		</g>
		
        
		<g transform="matrix(85.9589,0,0,102.247,214.087,127.348)">
			
            
			<path d="M0.156,-0.47L0.076,-0.47L0.076,-0L0.156,-0L0.156,-0.223C0.156,-0.307 0.163,-0.409 0.273,-0.409C0.366,-0.409 0.372,-0.341 0.372,-0.265L0.372,-0L0.452,-0L0.452,-0.279C0.452,-0.389 0.422,-0.483 0.292,-0.483C0.234,-0.483 0.191,-0.458 0.158,-0.413L0.156,-0.413L0.156,-0.47Z" style="fill-rule:nonzero;"/>
			
        
		</g>
		
    
	</g>
	
    
	<g transform="matrix(1,0,0,1,185,93.7314)">
		
        
		<text x="33.867px" y="24.749px" style="font-family:'FuturaStd-Book', 'Futura Std', sans-serif;font-size:16.667px;">de</text>
		
    
	</g>
	

</svg>
