<?xml version="1.0" ?>
<svg xmlns="http://www.w3.org/2000/svg" version="1.2" viewBox="0 0 54 54" baseProfile="tiny-ps">
	<g>
		<rect x="0" y="0" width="54" height="27" fill="#ff0000" stroke-width=".25178"/>
		<rect x="0" y="27" width="54" height="27" fill="#0000ff" stroke-width=".2419"/>
		<text transform="scale(.26458)" fill="#ffffff" xml:space="preserve"/>
	</g>
	<path d="m3.9232 26.732q-0.51504 0-0.94499-0.15675-0.42995-0.16123-0.73897-0.48369-0.30902-0.32246-0.47921-0.81063-0.17019-0.49265-0.17019-1.1555 0-0.65836 0.17467-1.1376 0.17914-0.47921 0.47473-0.80615 0.29559-0.32694 0.73449-0.50161 0.44338-0.17914 0.94947-0.17914 0.41203 0 0.79272 0.11644 0.38516 0.11644 0.68523 0.26872v0.94499h-0.049265q-0.089573-0.07614-0.23289-0.17467-0.13884-0.09853-0.34038-0.20154-0.17467-0.08957-0.41203-0.15675-0.23737-0.06718-0.45682-0.06718-0.65388 0-1.0525 0.49713-0.39412 0.49265-0.39412 1.3973 0 0.88677 0.38068 1.3839 0.38516 0.49265 1.0659 0.49265 0.41203 0 0.78376-0.17019 0.37173-0.17019 0.65836-0.4389h0.049265v0.94499q-0.1254 0.05822-0.3135 0.14332-0.1881 0.08062-0.34038 0.12092-0.21497 0.0627-0.38516 0.09405-0.17019 0.03583-0.43891 0.03583zm6.3596-2.611q0 1.263-0.60909 1.9527-0.60909 0.68523-1.6213 0.68523-1.0435 0-1.6437-0.70762-0.59566-0.7121-0.59566-1.9303 0-1.254 0.61357-1.9482 0.61805-0.69419 1.6257-0.69419 1.0122 0 1.6213 0.69419 0.60909 0.68971 0.60909 1.9482zm-0.86885 0q0-0.97186-0.35381-1.4421-0.35381-0.47473-1.0077-0.47473-0.65836 0-1.0166 0.47473-0.35381 0.47026-0.35381 1.4421 0 0.94051 0.35381 1.4287 0.35829 0.48369 1.0166 0.48369 0.6494 0 1.0032-0.47474 0.35829-0.47921 0.35829-1.4376zm5.6655 2.4991h-0.84198v-2.8484q0-0.34485-0.03583-0.64044-0.03135-0.30007-0.1254-0.47921-0.10301-0.1881-0.28663-0.27768-0.18362-0.09405-0.50161-0.09405-0.3135 0-0.6494 0.17019-0.33142 0.16571-0.6494 0.43443v3.7352h-0.84198v-5.0026h0.84198v0.55535q0.3762-0.3359 0.74345-0.51504t0.7748-0.17914q0.73897 0 1.1555 0.48817 0.41651 0.48369 0.41651 1.4063zm2.5349 0.12092q-0.5016 0-0.94051-0.13436-0.43443-0.13436-0.72106-0.28663v-0.94499h0.04479q0.10749 0.08509 0.2508 0.1881 0.1478 0.10301 0.38964 0.21497 0.21497 0.09853 0.47026 0.17467 0.25976 0.07614 0.53744 0.07614 0.20154 0 0.42995-0.04479 0.22841-0.04927 0.34038-0.12092 0.15675-0.10301 0.22393-0.21945 0.07166-0.11644 0.07166-0.34933 0-0.30007-0.16571-0.45234-0.16123-0.15227-0.57774-0.25528-0.16123-0.04031-0.42099-0.09405t-0.47921-0.11644q-0.57326-0.16571-0.83302-0.51056-0.25976-0.34933-0.25976-0.84198 0-0.67627 0.51056-1.1017 0.51056-0.42547 1.357-0.42547 0.41651 0 0.8375 0.10301 0.42099 0.10301 0.70762 0.25976v0.9002h-0.04479q-0.32246-0.25528-0.72106-0.40308-0.39412-0.1478-0.7972-0.1478-0.41651 0-0.70314 0.17467-0.28663 0.17467-0.28663 0.52848 0 0.3135 0.17019 0.47026 0.17019 0.15227 0.54639 0.2508 0.1881 0.04926 0.41651 0.09853 0.23289 0.04479 0.48817 0.10749 0.55535 0.13884 0.83302 0.4613 0.28215 0.32246 0.28215 0.87781 0 0.32246-0.12988 0.61357-0.1254 0.28663-0.37173 0.49265-0.26872 0.22393-0.60909 0.34038-0.3359 0.11644-0.84646 0.11644zm4.913-0.0045q-1.1958 0-1.8586-0.67179-0.65836-0.67627-0.65836-1.9169 0-1.2227 0.64044-1.9437 0.64044-0.72554 1.675-0.72554 0.46578 0 0.82407 0.13436 0.35829 0.13436 0.62701 0.42099 0.26872 0.28663 0.41203 0.70314 0.14332 0.41203 0.14332 1.0122v0.45682h-3.4665q0 0.87333 0.4389 1.3346t1.2137 0.4613q0.27768 0 0.54191-0.0627 0.26872-0.0627 0.48369-0.16123 0.22841-0.10301 0.38516-0.19706 0.15675-0.09853 0.25976-0.18362h0.04926v0.91812q-0.14779 0.05822-0.36725 0.14779-0.21945 0.08509-0.39412 0.13436-0.24632 0.06718-0.44786 0.10301-0.19706 0.03583-0.50161 0.03583zm0.9853-3.1753q-9e-3 -0.34038-0.08062-0.5867-0.07166-0.24632-0.20602-0.41651-0.1478-0.1881-0.38068-0.28663-0.22841-0.09853-0.56879-0.09853-0.3359 0-0.57326 0.10301-0.23289 0.09853-0.42547 0.29111-0.1881 0.19706-0.28663 0.4389-0.09853 0.23737-0.1254 0.55535zm4.3219-1.039h-0.04479q-0.09405-0.02687-0.20154-0.03135-0.10301-9e-3 -0.2508-9e-3 -0.34038 0-0.67627 0.1478-0.3359 0.14779-0.63596 0.4389v3.5515h-0.84198v-5.0026h0.84198v0.74345q0.4613-0.40756 0.80167-0.57326 0.34485-0.17019 0.66732-0.17019 0.12988 0 0.19258 9e-3 0.06718 0.0045 0.14779 0.01791zm4.5861-0.90468-1.8855 5.0026h-0.75689l-1.8721-5.0026h0.90916l1.3705 3.8606 1.357-3.8606zm3.256 3.771v-1.3884q-0.30007 0.02687-0.76137 0.07614-0.45682 0.04479-0.73897 0.12988-0.3359 0.10301-0.55535 0.31798-0.21945 0.2105-0.21945 0.59118 0 0.42995 0.24185 0.6494 0.24184 0.21945 0.70762 0.21945 0.3986 0 0.72106-0.17019 0.32246-0.17467 0.60462-0.42547zm0 0.69866q-0.10301 0.07614-0.27768 0.21497-0.17019 0.13436-0.33142 0.21497-0.22393 0.11644-0.43443 0.17914-0.20602 0.0627-0.58222 0.0627-0.30902 0-0.5867-0.11644-0.27768-0.11644-0.48817-0.32694-0.20154-0.20602-0.32246-0.50608-0.12092-0.30455-0.12092-0.64044 0-0.51952 0.21945-0.88229 0.21945-0.36725 0.69419-0.58222 0.42099-0.19258 0.99426-0.26424 0.57326-0.07614 1.2361-0.11197v-0.16123q0-0.29559-0.08957-0.47473-0.08957-0.18362-0.2508-0.28215-0.16123-0.10301-0.39412-0.13436-0.23289-0.03583-0.47921-0.03583-0.29111 0-0.68523 0.08957-0.39412 0.08509-0.78824 0.2508h-0.04926v-0.85542q0.23289-0.06718 0.66732-0.1478 0.43443-0.08061 0.8599-0.08061 0.51504 0 0.86885 0.08061 0.35381 0.08062 0.63596 0.29111 0.2732 0.20602 0.40755 0.53296 0.13436 0.32694 0.13436 0.7972v3.4217h-0.8375zm3.5336 0.63149q-0.68971 0-1.0749-0.38964-0.38516-0.39412-0.38516-1.2406v-2.7723h-0.56878v-0.69866h0.56878v-1.4376h0.84198v1.4376h1.5496v0.69866h-1.5496v2.3781q0 0.38068 0.01344 0.5867 0.01344 0.20602 0.10301 0.38516 0.07614 0.15675 0.24632 0.23737 0.17019 0.07614 0.4613 0.07614 0.20602 0 0.3986-0.05822 0.19258-0.0627 0.27768-0.10301h0.04926v0.75689q-0.23737 0.06718-0.48369 0.10301-0.24185 0.04031-0.44786 0.04031zm2.414-0.09853h-0.84198v-5.0026h0.84198zm0.05822-5.8401h-0.95842v-0.87331h0.95842zm5.1101 0.8375-1.8855 5.0026h-0.75689l-1.8721-5.0026h0.90916l1.3705 3.8606 1.357-3.8606zm2.7364 5.1191q-1.1958 0-1.8586-0.67179-0.65836-0.67627-0.65836-1.9169 0-1.2227 0.64044-1.9437 0.64044-0.72554 1.675-0.72554 0.46578 0 0.82407 0.13436 0.35829 0.13436 0.62701 0.42099 0.26872 0.28663 0.41203 0.70314 0.14332 0.41203 0.14332 1.0122v0.45682h-3.4665q0 0.87333 0.4389 1.3346t1.2137 0.4613q0.27767 0 0.54191-0.0627 0.26872-0.0627 0.48369-0.16123 0.22841-0.10301 0.38516-0.19706 0.15675-0.09853 0.25976-0.18362h0.04926v0.91812q-0.1478 0.05822-0.36725 0.14779-0.21945 0.08509-0.39412 0.13436-0.24632 0.06718-0.44786 0.10301-0.19706 0.03583-0.50161 0.03583zm0.9853-3.1753q-9e-3 -0.34038-0.08061-0.5867-0.07166-0.24632-0.20602-0.41651-0.1478-0.1881-0.38068-0.28663-0.22841-0.09853-0.56878-0.09853-0.3359 0-0.57326 0.10301-0.23289 0.09853-0.42547 0.29111-0.1881 0.19706-0.28663 0.4389-0.09853 0.23737-0.1254 0.55535z" fill="#fff" stroke-width=".26458"/>
	<path d="m37.28 35.185h-0.84198v-0.51056q-0.19706 0.16571-0.34038 0.2732t-0.3359 0.19706q-0.17914 0.08509-0.37173 0.12988-0.19258 0.04926-0.44786 0.04926-0.40756 0-0.75689-0.17019-0.34485-0.17019-0.5867-0.49713-0.24632-0.33142-0.38068-0.81511-0.13436-0.48817-0.13436-1.1197 0-0.65836 0.17019-1.1376 0.17019-0.48369 0.47026-0.84198 0.2732-0.32694 0.65836-0.51056 0.38964-0.1881 0.81511-0.1881 0.3762 0 0.65388 0.08509 0.27768 0.08062 0.5867 0.25528v-2.1677h0.84198zm-0.84198-1.2182v-2.8842q-0.3135-0.15227-0.56431-0.2105-0.24632-0.05822-0.53743-0.05822-0.6494 0-1.0166 0.48817-0.36725 0.48369-0.36725 1.4018 0 0.88229 0.28215 1.3525 0.28215 0.46578 0.90468 0.46578 0.33142 0 0.66732-0.14779 0.3359-0.15227 0.63149-0.40756zm4.8548-0.01344v-1.3884q-0.30007 0.02687-0.76137 0.07614-0.45682 0.04479-0.73897 0.12988-0.3359 0.10301-0.55535 0.31798-0.21945 0.2105-0.21945 0.59118 0 0.42995 0.24184 0.6494 0.24185 0.21945 0.70762 0.21945 0.3986 0 0.72106-0.17019 0.32246-0.17467 0.60461-0.42547zm0 0.69866q-0.10301 0.07614-0.27767 0.21497-0.17019 0.13436-0.33142 0.21497-0.22393 0.11644-0.43443 0.17914-0.20602 0.0627-0.58222 0.0627-0.30902 0-0.5867-0.11644-0.27768-0.11644-0.48817-0.32694-0.20154-0.20602-0.32246-0.50608-0.12092-0.30455-0.12092-0.64044 0-0.51952 0.21945-0.88229 0.21945-0.36725 0.69419-0.58222 0.42099-0.19258 0.99425-0.26424 0.57326-0.07614 1.2361-0.11197v-0.16123q0-0.29559-0.08957-0.47473-0.08957-0.18362-0.2508-0.28215-0.16123-0.10301-0.39412-0.13436-0.23289-0.03583-0.47921-0.03583-0.29111 0-0.68523 0.08957-0.39412 0.08509-0.78824 0.2508h-0.04926v-0.85542q0.23289-0.06718 0.66731-0.14779 0.43443-0.08062 0.8599-0.08062 0.51504 0 0.86885 0.08062 0.35381 0.08061 0.63596 0.29111 0.2732 0.20602 0.40756 0.53296 0.13436 0.32694 0.13436 0.7972v3.4217h-0.83751zm2.8798 0.53296h-0.84198v-5.0026h0.84198zm0.05822-5.8401h-0.95842v-0.87333h0.95842zm2.0467 5.8401h-0.84198v-6.9687h0.84198zm5.1683-5.0026-2.6917 6.8478h-0.9002l0.89572-2.087-1.8183-4.7608h0.90916l1.366 3.7038 1.3615-3.7038z" fill="#fff" stroke-width=".26458"/>
</svg>