<?xml version="1.0" ?>
<!-- Generator: Adobe Illustrator 15.1.0, SVG Export Plug-In . SVG Version: 6.00 Build 0)  -->
<!DOCTYPE svg
  PUBLIC '-//W3C//DTD SVG 1.1//EN'
  'http://www.w3.org/Graphics/SVG/1.1/DTD/svg11.dtd'>
<svg xmlns="http://www.w3.org/2000/svg" xmlns:xlink="http://www.w3.org/1999/xlink" version="1.1" id="Layer_1" x="0px" y="0px" viewBox="0 0 500 500" enable-background="new 0 0 500 500" xml:space="preserve">
	<g>
		<path display="none" d="M159.728,209.012c-4.052,3.176-3.886,10.143,0.329,15.617l14.605-11.4   C170.431,207.755,163.733,205.879,159.728,209.012z"/>
		<path display="none" d="M455.368,250.141c0-30.769-6.819-59.937-18.955-86.133c-42.981,24.475-87.178,29.071-87.178,29.071   c29.218-11.706,53.806-30.692,74.292-52.672c-3.725-5.869-7.732-11.532-12.011-16.979c-18.027,25.067-35.543,40.042-35.543,40.042   c11.036-16.622,18.939-34.564,24.44-53.039c-37.465-40.27-90.884-65.492-150.223-65.492c-113.314,0-205.179,91.874-205.179,205.202   c0,36.278,9.454,70.334,25.976,99.905l22.539-19.01l-7.538-35.333l34.953-36.34L95.88,385.279   c5.013,5.721,10.309,11.187,15.922,16.316l29.458-145.211c-20.943-12.468-63.838-15.018-63.838-15.018   c9.079-25.083,54.033-24.866,66.064-24.309c-1.702-6.901-0.495-15.896,10.244-25.237c0,0,16.535-8.913,27.902,2.077   c0,0,19.878,16.251,69.865-26.874c50.015-43.047,88.849-90.412,88.849-90.412l31.906,70.284l-120.165,125.03l136.335-75.132   l34.077,62.173c0,0-116.087,43.67-162.183,58.877l26.615,73.235l21.953,55.659C393.59,421.495,455.368,343.052,455.368,250.141z"/>
		<path d="M250.191,28.011c-122.667,0-222.105,99.448-222.105,222.13c0,122.651,99.438,222.087,222.105,222.087   c122.664,0,222.102-99.437,222.102-222.087C472.293,127.459,372.855,28.011,250.191,28.011z M159.728,209.012   c4.005-3.133,10.704-1.257,14.934,4.217l-14.605,11.4C155.842,219.155,155.675,212.188,159.728,209.012z M286.932,391.081   l-26.615-73.235c46.096-15.207,162.183-58.877,162.183-58.877l-34.077-62.173l-136.335,75.132l120.165-125.03l-31.906-70.284   c0,0-38.834,47.364-88.849,90.412c-49.987,43.125-69.865,26.874-69.865,26.874c-11.367-10.99-27.902-2.077-27.902-2.077   c-10.739,9.342-11.946,18.336-10.244,25.237c-12.031-0.557-56.985-0.774-66.064,24.309c0,0,42.895,2.549,63.838,15.018   l-29.458,145.211c-5.613-5.13-10.909-10.596-15.922-16.316l25.063-125.916l-34.953,36.34l7.538,35.333l-22.539,19.01   c-16.522-29.57-25.976-63.627-25.976-99.905c0-113.328,91.864-205.202,205.179-205.202c59.339,0,112.758,25.222,150.223,65.492   c-5.501,18.475-13.404,36.417-24.44,53.039c0,0,17.516-14.975,35.543-40.042c4.278,5.447,8.286,11.11,12.011,16.979   c-20.486,21.98-45.074,40.966-74.292,52.672c0,0,44.196-4.596,87.178-29.071c12.136,26.196,18.955,55.364,18.955,86.133   c0,92.911-61.778,171.354-146.483,196.599L286.932,391.081z"/>
	</g>
</svg>