<svg id="etvr0ulgtnx1" xmlns="http://www.w3.org/2000/svg" xmlns:xlink="http://www.w3.org/1999/xlink" viewBox="0 0 560 115" shape-rendering="geometricPrecision" text-rendering="geometricPrecision">
    <defs>
        <g id="etvr0ulgtnx2">
            <path id="etvr0ulgtnx3" d="M86.35,61.55Q88.1,58.25,90.7,55.55Q97.7,48.65,107.45,48.65Q117.15,48.65,124.05,55.55Q130.95,62.45,130.95,72.25Q130.95,81.95,124.05,88.85Q117.2,95.75,107.45,95.75Q97.6,95.75,90.7,88.85Q87.85,85.85,86.35,82.75Q84.5,79.05,84.05,74.75Q84.15,73.85,84.15,72Q84.15,70.25,84.05,69.5Q83.3,56.55,75.35,46.7Q73.85,44.9,73.05,44.1L72.15,43.2Q60.15,31.2,43.25,31.2Q26.35,31.2,14.35,43.2Q2.35,55.2,2.35,72.1Q2.35,89,14.35,101Q26.35,113,43.25,113Q60.15,113,72.15,101L73.05,100.1L72.65,99.6Q66.5,92.1,64.35,82.8Q62.75,86,59.85,88.9Q52.95,95.8,43.25,95.8Q33.45,95.8,26.55,88.9Q19.75,82.1,19.75,72.3Q19.75,62.55,26.55,55.6Q33.45,48.7,43.25,48.7Q52.95,48.7,59.85,55.6Q62.65,58.3,64.25,61.6Q66.1,65.15,66.55,69.6L66.45,72.1Q66.45,74,66.55,74.85Q67.3,87.5,75.25,97.5L78.45,101Q90.45,113,107.35,113Q124.2,113,136.2,101Q148.2,89,148.2,72.1Q148.2,55.15,136.2,43.15Q124.2,31.15,107.35,31.15Q90.45,31.15,78.45,43.15L77.55,44.05L77.95,44.55Q84.1,52.2,86.35,61.55Z" fill="rgb(77,176,228)" stroke="none" stroke-width="1" />
        </g>
        <g id="etvr0ulgtnx4">
            <path id="etvr0ulgtnx5" d="M304.6,412.2Q314.3,412.2,321.2,419.1Q328.1,426,328.1,435.8Q328.1,445.5,321.2,452.4Q314.35,459.3,304.6,459.3Q294.75,459.3,287.85,452.4Q285,449.4,283.5,446.3Q281.65,442.6,281.2,438.3Q281.3,437.4,281.3,435.55Q281.3,433.8,281.2,433.05Q280.45,420.1,272.5,410.25Q271,408.45,270.2,407.65L269.3,406.75Q257.3,394.75,240.4,394.75Q223.5,394.75,211.5,406.75Q199.5,418.75,199.5,435.65Q199.5,452.55,211.5,464.55Q223.5,476.55,240.4,476.55Q257.3,476.55,269.3,464.55L270.2,463.65L269.8,463.15Q263.65,455.65,261.5,446.35Q259.9,449.55,257,452.45Q250.1,459.35,240.4,459.35Q230.6,459.35,223.7,452.45Q216.9,445.65,216.9,435.85Q216.9,426.1,223.7,419.15Q230.6,412.25,240.4,412.25Q250.1,412.25,257,419.15Q259.8,421.85,261.4,425.15Q263.25,428.7,263.7,433.15L263.6,435.65Q263.6,437.55,263.7,438.4Q264.45,451.05,272.4,461.05L275.6,464.55Q287.6,476.55,304.5,476.55Q321.35,476.55,333.35,464.55Q345.35,452.55,345.35,435.65Q345.35,418.7,333.35,406.7Q321.35,394.7,304.5,394.7Q287.6,394.7,275.6,406.7L274.7,407.6L275.1,408.1Q281.25,415.75,283.5,425.1Q285.25,421.8,287.85,419.1Q294.85,412.2,304.6,412.2Z" fill="rgb(77,176,228)" stroke="none" stroke-width="1" />
        </g>
        <path id="etvr0ulgtnx6" d="M67.45,92.75Q56.05,104.7,43.05,104.55Q30,104.35,20.55,94.9Q11.1,85.4,11.1,72.1Q11.1,58.8,20.55,49.35Q30,39.85,43.3,39.85Q56.65,39.85,66.1,49.35Q74.9,58.5,75.25,71.8Q75.55,85.1,84.8,94.85Q94.25,104.3,107.6,104.3Q120.85,104.3,130.25,94.85Q139.7,85.4,139.7,72.1Q139.7,58.75,130.25,49.25Q120.85,39.8,107.8,39.45Q94.75,39.05,83.05,51.4" />
        <g id="etvr0ulgtnx7">
            <path id="etvr0ulgtnx8" d="M86.35,61.55Q88.1,58.25,90.7,55.55Q97.7,48.65,107.45,48.65Q117.15,48.65,124.05,55.55Q130.95,62.45,130.95,72.25Q130.95,81.95,124.05,88.85Q117.2,95.75,107.45,95.75Q97.6,95.75,90.7,88.85Q87.85,85.85,86.35,82.75Q84.5,79.05,84.05,74.75Q84.15,73.85,84.15,72Q84.15,70.25,84.05,69.5Q83.3,56.55,75.35,46.7Q73.85,44.9,73.05,44.1L72.15,43.2Q60.15,31.2,43.25,31.2Q26.35,31.2,14.35,43.2Q2.35,55.2,2.35,72.1Q2.35,89,14.35,101Q26.35,113,43.25,113Q60.15,113,72.15,101L73.05,100.1L72.65,99.6Q66.5,92.1,64.35,82.8Q62.75,86,59.85,88.9Q52.95,95.8,43.25,95.8Q33.45,95.8,26.55,88.9Q19.75,82.1,19.75,72.3Q19.75,62.55,26.55,55.6Q33.45,48.7,43.25,48.7Q52.95,48.7,59.85,55.6Q62.65,58.3,64.25,61.6Q66.1,65.15,66.55,69.6L66.45,72.1Q66.45,74,66.55,74.85Q67.3,87.5,75.25,97.5L78.45,101Q90.45,113,107.35,113Q124.2,113,136.2,101Q148.2,89,148.2,72.1Q148.2,55.15,136.2,43.15Q124.2,31.15,107.35,31.15Q90.45,31.15,78.45,43.15L77.55,44.05L77.95,44.55Q84.1,52.2,86.35,61.55Z" fill="rgb(255,255,255)" stroke="none" stroke-width="1" />
        </g>
        <g id="etvr0ulgtnx9">
            <path id="etvr0ulgtnx10" d="M126.55,29.35Q133.45,36.25,133.45,46.05Q133.45,55.75,126.55,62.65Q119.7,69.55,109.95,69.55Q100.1,69.55,93.2,62.65Q90.35,59.65,88.85,56.55Q87,52.85,86.55,48.55Q86.65,47.65,86.65,45.8Q86.65,44.05,86.55,43.3Q85.8,30.35,77.85,20.5Q76.35,18.7,75.55,17.9L74.65,17Q62.65,5,45.75,5Q28.85,5,16.85,17Q4.85,29,4.85,45.9Q4.85,62.8,16.85,74.8Q28.85,86.8,45.75,86.8Q62.65,86.8,74.65,74.8L75.55,73.9L75.15,73.4Q69,65.9,66.85,56.6Q65.25,59.8,62.35,62.7Q55.45,69.6,45.75,69.6Q35.95,69.6,29.05,62.7Q22.25,55.9,22.25,46.1Q22.25,36.35,29.05,29.4Q35.95,22.5,45.75,22.5Q55.45,22.5,62.35,29.4Q65.15,32.1,66.75,35.4Q68.6,38.95,69.05,43.4L68.95,45.9Q68.95,47.8,69.05,48.65Q69.8,61.3,77.75,71.3L80.95,74.8Q92.95,86.8,109.85,86.8Q126.7,86.8,138.7,74.8Q150.7,62.8,150.7,45.9Q150.7,28.95,138.7,16.95Q126.7,4.95,109.85,4.95Q92.95,4.95,80.95,16.95L80.05,17.85L80.45,18.35Q86.6,26,88.85,35.35Q90.6,32.05,93.2,29.35Q100.2,22.45,109.95,22.45Q119.65,22.45,126.55,29.35Z" fill="rgb(255,255,255)" stroke="none" stroke-width="1" />
        </g>
        <filter id="etvr0ulgtnx22-filter" x="-400%" width="600%" y="-400%" height="600%">
            <feComponentTransfer id="etvr0ulgtnx22-filter-invert-0" result="result">
                <feFuncR id="etvr0ulgtnx22-filter-invert-0-R" type="table" tableValues="0 1" />
                <feFuncG id="etvr0ulgtnx22-filter-invert-0-G" type="table" tableValues="0 1" />
                <feFuncB id="etvr0ulgtnx22-filter-invert-0-B" type="table" tableValues="0 1" />
            </feComponentTransfer>
        </filter>
        <filter id="etvr0ulgtnx28-filter" x="-400%" width="600%" y="-400%" height="600%">
            <feComponentTransfer id="etvr0ulgtnx28-filter-invert-0" result="result">
                <feFuncR id="etvr0ulgtnx28-filter-invert-0-R" type="table" tableValues="0 1" />
                <feFuncG id="etvr0ulgtnx28-filter-invert-0-G" type="table" tableValues="0 1" />
                <feFuncB id="etvr0ulgtnx28-filter-invert-0-B" type="table" tableValues="0 1" />
            </feComponentTransfer>
        </filter>
    </defs>
    <g id="etvr0ulgtnx11" transform="matrix(1 0 0 1 -18.0287399999983 -363.52461699999992)">
        <g id="etvr0ulgtnx12">
            <path id="etvr0ulgtnx13" d="M99.5,418.6C100.1,419.8,100.4,421,100.4,422.2C100.4,423.2,100.2,424.2,99.8,425.2C99,427.4,97.5,429,95.2,430C88.6,433,79.8,436.9,69,441.8C55.6,447.9,47.7,451.4,45.4,452.5C49,457.1,54.6,459.3,62.3,459.3C67.4,459.3,72,457.8,76.1,454.8C80.1,451.9,82.9,448.1,84.6,443.4C86,439.5,88.7,437.6,92.8,437.6C95.7,437.6,98.1,438.8,99.8,441.3C100.9,442.8,101.4,444.4,101.4,446.1C101.4,447.1,101.2,448.1,100.8,449.2C98,457.3,93.1,463.8,86.1,468.8C79,474,71,476.5,62.2,476.5C50.9,476.5,41.3,472.5,33.3,464.5C25.3,456.5,21.3,446.8,21.3,435.6C21.3,424.3,25.3,414.7,33.3,406.7C41.3,398.7,51,394.7,62.2,394.7C70.4,394.7,77.8,396.9,84.5,401.4C91.3,405.7,96.3,411.5,99.5,418.6ZM62.3,412.3C55.8,412.3,50.2,414.6,45.6,419.2C41,423.8,38.8,429.4,38.8,435.9L38.8,436.4L78.5,418.6C75,414.3,69.6,412.3,62.3,412.3Z" fill="rgb(255,255,255)" stroke="none" stroke-width="1" />
            <path id="etvr0ulgtnx14" d="M183.7,365.5C186,365.5,188,366.3,189.7,368C191.4,369.7,192.3,371.7,192.3,374.1L192.3,435.8C192.3,447.1,188.2,456.7,180.2,464.6C172.2,472.6,162.6,476.5,151.3,476.5C140,476.5,130.4,472.5,122.4,464.5C114.4,456.5,110.4,446.8,110.4,435.6C110.4,424.3,114.4,414.7,122.4,406.7C130.4,398.7,140.1,394.7,151.3,394.7C161.6,394.7,169.4,397.1,174.8,401.8L174.8,374.1C174.8,371.7,175.7,369.7,177.4,368C179.1,366.3,181.1,365.5,183.4,365.5L183.7,365.5ZM134.7,419.1C130.1,423.7,127.9,429.3,127.9,435.8C127.9,442.3,130.2,447.8,134.7,452.4C139.3,457,144.9,459.3,151.4,459.3C157.9,459.3,163.4,457,168,452.4C172.6,447.8,174.9,442.3,174.9,435.8C174.9,429.3,172.6,423.7,168,419.1C163.4,414.5,157.9,412.2,151.4,412.2C144.9,412.3,139.3,414.6,134.7,419.1Z" fill="rgb(255,255,255)" stroke="none" stroke-width="1" />
            <path id="etvr0ulgtnx15" display="none" d="M333.4,406.7C325.4,398.7,315.7,394.7,304.5,394.7C293.2,394.7,283.6,398.7,275.6,406.7C275.3,407,275,407.3,274.7,407.6L275.1,408.1C279.2,413.2,282,418.9,283.5,425.1C284.6,423,286,421,287.9,419.1C292.5,414.5,298.1,412.2,304.6,412.2C311.1,412.2,316.6,414.5,321.2,419.1C325.8,423.7,328.1,429.3,328.1,435.8C328.1,442.3,325.8,447.8,321.2,452.4C316.6,457,311.1,459.3,304.6,459.3C298.1,459.3,292.5,457,287.9,452.4C286.1,450.5,284.6,448.5,283.5,446.3C282.3,443.8,281.5,441.2,281.2,438.3C281.3,437.4,281.3,436.4,281.3,435.5C281.3,434.6,281.3,433.8,281.2,433C280.7,424.4,277.8,416.8,272.5,410.2C271.8,409.3,271,408.4,270.2,407.6C269.9,407.3,269.6,407,269.3,406.7C261.3,398.7,251.6,394.7,240.4,394.7C229.1,394.7,219.5,398.7,211.5,406.7C203.5,414.7,199.5,424.4,199.5,435.6C199.5,446.9,203.5,456.5,211.5,464.5C219.5,472.5,229.2,476.5,240.4,476.5C251.7,476.5,261.3,472.5,269.3,464.5C269.6,464.2,269.9,463.9,270.2,463.6L269.8,463.1C265.7,458.1,262.9,452.4,261.5,446.3C260.4,448.5,258.9,450.5,257,452.4C252.4,457,246.9,459.3,240.4,459.3C233.9,459.3,228.3,457,223.7,452.4C219.1,447.8,216.9,442.3,216.9,435.8C216.9,429.3,219.2,423.7,223.7,419.1C228.3,414.5,233.9,412.2,240.4,412.2C246.9,412.2,252.4,414.5,257,419.1C258.8,420.9,260.3,422.9,261.4,425.1C262.7,427.6,263.4,430.2,263.7,433.1C263.7,433.9,263.6,434.8,263.6,435.6C263.6,436.5,263.6,437.5,263.7,438.4C264.2,446.9,267.1,454.4,272.4,461C273.1,461.9,273.9,462.8,274.7,463.6C275,463.9,275.3,464.2,275.6,464.5C283.6,472.5,293.3,476.5,304.5,476.5C315.8,476.5,325.4,472.5,333.4,464.5C341.4,456.5,345.4,446.8,345.4,435.6C345.4,424.4,341.4,414.7,333.4,406.7Z" fill="rgb(77,176,228)" stroke="none" stroke-width="1" />
            <path id="etvr0ulgtnx16" d="M486.5,406.7C478.5,398.7,468.8,394.7,457.6,394.7C446.3,394.7,436.7,398.7,428.7,406.7C428.4,407,428.1,407.3,427.8,407.6L428.2,408.1C432.3,413.2,435.1,418.9,436.6,425.1C437.7,423,439.1,421,441,419.1C445.6,414.5,451.2,412.2,457.7,412.2C464.2,412.2,469.7,414.5,474.3,419.1C478.9,423.7,481.2,429.3,481.2,435.8C481.2,442.3,478.9,447.8,474.3,452.4C469.7,457,464.2,459.3,457.7,459.3C451.2,459.3,445.6,457,441,452.4C439.2,450.5,437.7,448.5,436.6,446.3C435.4,443.8,434.6,441.2,434.3,438.3C434.4,437.4,434.4,436.4,434.4,435.5C434.4,434.6,434.4,433.8,434.3,433C433.8,424.4,430.9,416.8,425.6,410.2C424.9,409.3,424.1,408.4,423.3,407.6C423,407.3,422.7,407,422.4,406.7C414.4,398.7,404.7,394.7,393.5,394.7C383.2,394.7,375.3,397.1,370,401.8L370,374.1C370,371.7,369.1,369.7,367.4,368C365.7,366.3,363.7,365.5,361.4,365.5L361,365.5C358.7,365.5,356.7,366.3,355,368C353.3,369.7,352.4,371.7,352.4,374.1L352.4,435.8C352.4,447.1,356.5,456.7,364.5,464.6C372.5,472.6,382.1,476.5,393.4,476.5C404.7,476.5,414.3,472.5,422.3,464.5C422.6,464.2,422.9,463.9,423.2,463.6L422.8,463.1C418.7,458.1,415.9,452.4,414.5,446.3C413.4,448.5,411.9,450.5,410,452.4C405.4,457,399.9,459.3,393.4,459.3C386.9,459.3,381.3,457,376.7,452.4C372.1,447.8,369.9,442.3,369.9,435.8C369.9,429.3,372.2,423.7,376.7,419.1C381.3,414.5,386.9,412.2,393.4,412.2C399.9,412.2,405.4,414.5,410,419.1C411.8,420.9,413.3,422.9,414.4,425.1C415.7,427.6,416.4,430.2,416.7,433.1C416.7,433.9,416.6,434.8,416.6,435.6C416.6,436.5,416.6,437.5,416.7,438.4C417.2,446.9,420.1,454.4,425.4,461C426.1,461.9,426.9,462.8,427.7,463.6C428,463.9,428.3,464.2,428.6,464.5C436.6,472.5,446.3,476.5,457.5,476.5C468.8,476.5,478.4,472.5,486.4,464.5C494.4,456.5,498.4,446.8,498.4,435.6C498.5,424.4,494.5,414.7,486.5,406.7Z" fill="rgb(77,176,228)" stroke="rgb(255,255,255)" stroke-width="1.25" />
            <g id="etvr0ulgtnx17">
                <polygon id="etvr0ulgtnx18" points="546.7,432 574.4,394.7 551.9,394.7 535.6,416.7" fill="rgb(255,255,255)" stroke="none" stroke-width="1" />
                <polygon id="etvr0ulgtnx19" points="513.9,476.6 544.3,435.9 513.9,394.7 491.5,394.7 521.7,435.6 491.6,476.6" fill="rgb(77,176,228)" stroke="rgb(255,255,255)" stroke-width="1.25" />
                <polygon id="etvr0ulgtnx20" points="546.9,439.4 535.7,454.5 552.2,476.6 574.7,476.6" fill="rgb(255,255,255)" stroke="none" stroke-width="1" />
            </g>
        </g>
    </g>
    <g id="etvr0ulgtnx21" transform="matrix(1 0 0 1 -19.028742 -364.5246173)">
        <use id="etvr0ulgtnx22" display="none" width="145.849991" height="81.849998" xlink:href="#etvr0ulgtnx2" transform="matrix(0.8 0 0 0.8 17.5443396499995 -13.756287229)" filter="url(#etvr0ulgtnx22-filter)" fill="rgb(220,19,19)" stroke="rgb(126,16,82)" stroke-width="5" stroke-dashoffset="455.4" />
        <use id="etvr0ulgtnx23" width="128.599991" height="65.11441" xlink:href="#etvr0ulgtnx6" transform="matrix(1 0 0 1 198.2227819499996 364.798883899998)" fill="none" stroke="rgb(255,255,255)" stroke-width="17.5" stroke-linejoin="round" stroke-dashoffset="11.9288" stroke-dasharray="387.43" />
        <use id="etvr0ulgtnx24" display="none" width="128.599991" height="65.11441" xlink:href="#etvr0ulgtnx6" transform="matrix(0.8 0 0 0.8 17.079999161 -12.61688781)" fill="none" stroke="rgb(77,176,228)" stroke-width="17.5" stroke-linejoin="round" stroke-dashoffset="30.495333" stroke-dasharray="387.43" />
    </g>
    <g id="etvr0ulgtnx25" transform="matrix(1 0 0 1 -19.028742 -364.5246173)">
        <g id="etvr0ulgtnx26">
            <use id="etvr0ulgtnx27" display="none" width="128.599991" height="65.11441" xlink:href="#etvr0ulgtnx6" transform="matrix(0.8 0 0 0.8 17.079999161 -12.61688781)" fill="none" stroke="rgb(77,176,228)" stroke-width="18.75" stroke-linejoin="round" stroke-dasharray="387.43" />
            <use id="etvr0ulgtnx28" display="none" width="145.849991" height="81.849998" xlink:href="#etvr0ulgtnx2" transform="matrix(0.8 0 0 0.8 17.05499965 -12.585229)" filter="url(#etvr0ulgtnx28-filter)" fill="rgb(0,0,0)" stroke="rgb(198,11,11)" stroke-width="1" stroke-dashoffset="455.4" />
            <use id="etvr0ulgtnx29" display="none" width="145.849991" height="81.856" xlink:href="#etvr0ulgtnx9" transform="matrix(0.8 0 0 0.8 15.1799995452 8.2946533222)" fill="rgb(0,0,0)" stroke="none" stroke-width="1" />
            <use id="etvr0ulgtnx30" display="none" width="128.599991" height="65.11441" xlink:href="#etvr0ulgtnx6" transform="matrix(1 0 0 1 2 -27)" fill="none" stroke="rgb(77,176,228)" stroke-width="18.75" stroke-linecap="square" stroke-linejoin="round" stroke-dashoffset="774.86" stroke-dasharray="387.43" />
            <use id="etvr0ulgtnx31" display="none" width="145.849991" height="81.849998" xlink:href="#etvr0ulgtnx7" transform="matrix(0.8 0 0 0.8 17.05499965 -12.585229)" fill="rgb(0,0,0)" stroke="none" stroke-width="1" />
            <rect id="etvr0ulgtnx32" display="none" width="15.136885" height="21.321674" rx="0" ry="0" transform="matrix(0.13592957928994 -0.067758991928 0.4468655621512 0.8949898236926 65.99637812868788 51.19213435844421)" fill="rgb(0,0,0)" stroke="none" stroke-width="1" />
        </g>
    </g>
    <path id="etvr0ulgtnx33" d="M 93.8469112449 58.569121254424 C 93.59989154975484 59.09368453829 92.2678984691123 61.68965747348 91.7513872158759 62.3448563289398 C 82.29241385174781 56.12669299347945 43.02558954325787 49.098389562899 26.616483318715 38.181482314969 C 30.86947861227843 27.4296541115195 34.773381955977 18.94544423388465 36.977734541596 4.061764218664365 C 52.096922567995335 28.9974516617 77.166483592953 50.3566619656126 93.8469112449 58.569121254424 Z" transform="matrix(-0.2363688295331 -0.08955515725 0.08955515725 -0.2363688295331 272.6344894613171 67.9228412394441)" opacity="1" fill="rgb(255,255,255)" stroke="none" stroke-width="1" />
    <path id="etvr0ulgtnx34" d="M 93.682562759688 58.9481334959284 C 91.357424778148 63.8841812663439 89.1397966992434 67.61619349576 85.0141242527384 76.48464285877492 C 75.5385693951233 70.246842187123 40.96857618965224 52.287674682248934 24.5844586821468 41.34968551755364 C 29.67568668443227 30.469879885859854 32.9237988427511 23.7874824129416 36.4429656673834 5.3812274889795 C 51.562184184317715 30.316857467465 76.97677515741 50.73567356621382 93.682562759688 58.9481334959284 Z" transform="matrix(0.2348868574286 0.08564697365 -0.08564697365 0.2348868574286 236.373424843171 76.862399736275)" opacity="1" fill="rgb(255,255,255)" stroke="none" stroke-width="1" stroke-opacity="0" />
</svg>