<?xml version="1.0" ?>
<svg xmlns="http://www.w3.org/2000/svg" xmlns:xlink="http://www.w3.org/1999/xlink" zoomAndPan="magnify" viewBox="0 0 384 383.999986" preserveAspectRatio="xMidYMid meet" version="1.0">
	<defs>
		<g/>
	</defs>
	<g fill="#ffeba7" fill-opacity="1">
		<g transform="translate(37.737324, 246.207677)">
			<g>
				<path d="M 131.875 0 L 11.171875 0 L 11.171875 -100.234375 L 126.359375 -100.234375 L 126.359375 -75.4375 L 53.21875 -75.4375 L 53.21875 -59.71875 L 115.03125 -59.71875 L 115.03125 -40.4375 L 53.21875 -40.4375 L 53.21875 -24.796875 L 131.875 -24.796875 Z M 131.875 0 "/>
			</g>
		</g>
	</g>
	<g fill="#ffeba7" fill-opacity="1">
		<g transform="translate(175.174879, 246.207677)">
			<g>
				<path d="M 159.875 0 L 109.875 0 L 53.21875 -67.828125 L 53.21875 0 L 11.171875 0 L 11.171875 -100.234375 L 61.1875 -100.234375 L 117.828125 -32.765625 L 117.828125 -100.234375 L 159.875 -100.234375 Z M 159.875 0 "/>
			</g>
		</g>
	</g>
	<g fill="#ffeba7" fill-opacity="1">
		<g transform="translate(291.416096, 122.899357)">
			<g>
				<path d="M 25.71875 0 L 1.171875 0 L 1.171875 -5.171875 C 1.171875 -6.390625 1.523438 -7.394531 2.234375 -8.1875 C 2.941406 -8.976562 3.851562 -9.617188 4.96875 -10.109375 C 6.09375 -10.597656 7.300781 -10.988281 8.59375 -11.28125 C 9.882812 -11.570312 11.128906 -11.816406 12.328125 -12.015625 C 13.921875 -12.265625 15.1875 -12.546875 16.125 -12.859375 C 16.84375 -13.085938 17.203125 -13.410156 17.203125 -13.828125 C 17.203125 -13.953125 17.171875 -14.085938 17.109375 -14.234375 C 16.429688 -15.222656 15.332031 -15.71875 13.8125 -15.71875 C 12.3125 -15.71875 11.21875 -15.222656 10.53125 -14.234375 L 1.21875 -14.234375 C 1.53125 -15.617188 2.132812 -16.84375 3.03125 -17.90625 C 3.9375 -18.96875 5.253906 -19.800781 6.984375 -20.40625 C 8.710938 -21.019531 10.988281 -21.328125 13.8125 -21.328125 C 16.632812 -21.328125 18.910156 -21.019531 20.640625 -20.40625 C 22.367188 -19.800781 23.679688 -18.96875 24.578125 -17.90625 C 25.484375 -16.84375 26.09375 -15.617188 26.40625 -14.234375 C 26.457031 -13.898438 26.484375 -13.59375 26.484375 -13.3125 C 26.484375 -11.90625 25.945312 -10.742188 24.875 -9.828125 C 23.8125 -8.921875 22.363281 -8.238281 20.53125 -7.78125 C 18.695312 -7.320312 16.910156 -6.96875 15.171875 -6.71875 C 14.285156 -6.59375 13.488281 -6.457031 12.78125 -6.3125 C 12.070312 -6.175781 11.507812 -6.019531 11.09375 -5.84375 C 10.675781 -5.664062 10.46875 -5.441406 10.46875 -5.171875 L 25.71875 -5.171875 Z M 25.71875 0 "/>
			</g>
		</g>
	</g>
	<g fill="#ffeba7" fill-opacity="1">
		<g transform="translate(319.043504, 122.899357)">
			<g>
				<path d="M 13.75 0.453125 C 10.925781 0.453125 8.648438 0.148438 6.921875 -0.453125 C 5.203125 -1.066406 3.890625 -1.90625 2.984375 -2.96875 C 2.078125 -4.03125 1.472656 -5.253906 1.171875 -6.640625 L 10.46875 -6.640625 C 10.46875 -6.148438 10.789062 -5.78125 11.4375 -5.53125 C 12.09375 -5.28125 12.863281 -5.15625 13.75 -5.15625 C 15.9375 -5.15625 17.03125 -5.648438 17.03125 -6.640625 C 17.03125 -7.503906 16.660156 -8.078125 15.921875 -8.359375 C 15.234375 -8.609375 14.039062 -8.734375 12.34375 -8.734375 L 11.984375 -8.734375 L 11.984375 -12.125 L 12.34375 -12.125 C 14.039062 -12.125 15.242188 -12.253906 15.953125 -12.515625 C 16.671875 -12.773438 17.03125 -13.34375 17.03125 -14.21875 C 17.03125 -15.207031 15.9375 -15.703125 13.75 -15.703125 C 12.863281 -15.703125 12.09375 -15.578125 11.4375 -15.328125 C 10.789062 -15.078125 10.46875 -14.707031 10.46875 -14.21875 L 1.171875 -14.21875 C 1.472656 -15.601562 2.078125 -16.828125 2.984375 -17.890625 C 3.890625 -18.953125 5.203125 -19.785156 6.921875 -20.390625 C 8.648438 -21.003906 10.925781 -21.3125 13.75 -21.3125 C 16.582031 -21.3125 18.925781 -21.007812 20.78125 -20.40625 C 22.632812 -19.800781 24.019531 -18.960938 24.9375 -17.890625 C 25.863281 -16.828125 26.328125 -15.601562 26.328125 -14.21875 C 26.328125 -13.28125 26.046875 -12.46875 25.484375 -11.78125 C 24.929688 -11.101562 24.066406 -10.648438 22.890625 -10.421875 C 24.066406 -10.191406 24.929688 -9.734375 25.484375 -9.046875 C 26.046875 -8.367188 26.328125 -7.566406 26.328125 -6.640625 C 26.328125 -5.242188 25.863281 -4.015625 24.9375 -2.953125 C 24.019531 -1.890625 22.632812 -1.054688 20.78125 -0.453125 C 18.925781 0.148438 16.582031 0.453125 13.75 0.453125 Z M 13.75 0.453125 "/>
			</g>
		</g>
	</g>
</svg>
