<svg id="fh-logo-svg" version="1.1" xmlns="http://www.w3.org/2000/svg" xmlns:xlink="http://www.w3.org/1999/xlink" width="400" height="92.17758985200845" viewBox="0, 0, 400,92.17758985200845" >
    <g id="fh-logo-svgg">
      <path id="fh-logo-path0" d="M337.500 0.820 C 336.355 0.981,334.469 1.482,334.258 1.683 C 334.171 1.766,333.964 1.833,333.798 1.833 C 333.631 1.833,333.365 1.901,333.206 1.984 C 333.047 2.067,332.410 2.383,331.792 2.685 C 331.173 2.987,330.667 3.295,330.667 3.367 C 330.667 3.440,330.581 3.500,330.475 3.500 C 330.096 3.500,327.167 6.139,327.167 6.481 C 327.167 6.583,327.097 6.667,327.013 6.667 C 326.776 6.667,325.430 8.780,324.837 10.083 C 323.973 11.983,324.066 11.723,323.436 14.000 C 322.468 17.501,322.465 24.056,323.431 27.667 C 323.565 28.171,323.755 28.883,323.852 29.250 C 323.950 29.617,324.125 30.142,324.241 30.417 C 324.623 31.315,325.561 33.248,325.657 33.333 C 325.708 33.379,325.851 33.611,325.973 33.849 C 326.095 34.087,326.432 34.550,326.723 34.879 C 327.013 35.209,327.368 35.614,327.513 35.781 C 328.423 36.828,331.358 39.000,331.864 39.000 C 331.994 39.000,332.171 39.070,332.258 39.155 C 332.345 39.240,332.754 39.431,333.167 39.579 C 340.510 42.213,348.054 40.759,353.040 35.750 C 354.218 34.566,356.497 30.905,356.499 30.192 C 356.500 30.069,356.609 29.769,356.742 29.526 C 358.427 26.450,358.520 16.598,356.907 12.115 C 356.769 11.731,356.548 11.113,356.416 10.743 C 354.956 6.632,351.152 2.977,346.917 1.614 C 346.458 1.466,345.708 1.225,345.250 1.078 C 344.303 0.774,339.074 0.600,337.500 0.820 M0.667 4.250 L 0.667 7.500 3.167 7.500 L 5.667 7.500 5.667 20.833 L 5.667 34.167 3.167 34.167 L 0.667 34.167 0.667 37.250 L 0.667 40.333 10.250 40.333 L 19.833 40.333 19.833 37.250 L 19.833 34.167 16.667 34.167 L 13.500 34.167 13.500 28.917 L 13.500 23.667 18.833 23.667 L 24.167 23.667 24.167 20.500 L 24.167 17.333 18.833 17.333 L 13.500 17.333 13.500 12.415 L 13.500 7.496 20.202 7.540 L 26.903 7.583 27.285 8.150 C 27.495 8.461,27.665 8.949,27.664 9.233 C 27.663 9.517,27.774 10.462,27.912 11.333 C 28.050 12.204,28.206 13.273,28.258 13.708 L 28.354 14.500 31.427 14.500 L 34.500 14.500 34.500 7.750 L 34.500 1.000 17.583 1.000 L 0.667 1.000 0.667 4.250 M47.028 2.377 C 46.722 3.132,46.285 4.237,46.056 4.833 C 45.827 5.429,45.570 6.049,45.484 6.210 C 45.398 6.372,45.213 6.859,45.071 7.294 C 44.930 7.728,44.714 8.308,44.592 8.583 C 44.151 9.572,43.998 9.951,43.085 12.333 C 42.575 13.662,42.052 14.975,41.922 15.250 C 41.792 15.525,41.570 16.105,41.429 16.540 C 41.287 16.974,41.102 17.462,41.016 17.623 C 40.855 17.927,40.756 18.176,38.914 22.917 C 38.309 24.475,37.585 26.313,37.305 27.000 C 37.025 27.688,36.739 28.400,36.668 28.583 C 36.179 29.853,35.942 30.460,35.822 30.750 C 35.541 31.429,34.699 33.593,34.607 33.875 C 34.521 34.135,34.247 34.167,32.089 34.167 L 29.667 34.167 29.667 37.250 L 29.667 40.333 38.333 40.333 L 47.000 40.333 47.000 37.250 L 47.000 34.167 44.833 34.167 C 43.642 34.167,42.667 34.109,42.667 34.039 C 42.667 33.969,42.820 33.501,43.008 32.998 C 43.549 31.549,44.169 29.798,44.349 29.208 L 44.516 28.667 51.405 28.667 C 57.821 28.667,58.301 28.687,58.383 28.958 C 58.432 29.119,58.632 29.662,58.827 30.167 C 59.381 31.597,60.014 33.379,60.115 33.792 C 60.205 34.166,60.202 34.167,58.019 34.167 L 55.833 34.167 55.833 37.250 L 55.833 40.333 64.167 40.333 L 72.500 40.333 72.500 37.250 L 72.500 34.167 70.430 34.167 L 68.361 34.167 68.071 33.375 C 67.912 32.940,67.523 31.946,67.207 31.167 C 66.892 30.387,66.575 29.600,66.503 29.417 C 66.371 29.079,65.900 27.859,65.665 27.250 C 65.594 27.067,65.307 26.354,65.027 25.667 C 64.747 24.979,64.317 23.892,64.072 23.250 C 63.827 22.608,63.533 21.858,63.419 21.583 C 63.304 21.308,63.008 20.558,62.760 19.917 C 62.513 19.275,62.211 18.525,62.090 18.250 C 61.968 17.975,61.778 17.487,61.667 17.167 C 61.555 16.846,61.368 16.358,61.250 16.083 C 61.019 15.546,60.854 15.132,60.450 14.083 C 60.053 13.050,59.165 10.788,59.011 10.417 C 58.935 10.233,58.743 9.746,58.583 9.333 C 58.143 8.195,57.985 7.797,57.753 7.250 C 57.637 6.975,57.411 6.412,57.251 6.000 C 57.091 5.587,56.901 5.100,56.830 4.917 C 56.055 2.939,55.745 2.155,55.527 1.625 L 55.269 1.000 51.426 1.002 L 47.583 1.004 47.028 2.377 M76.167 4.250 L 76.167 7.500 78.750 7.500 L 81.333 7.500 81.333 20.833 L 81.333 34.167 78.750 34.167 L 76.167 34.167 76.167 37.250 L 76.167 40.333 85.167 40.333 L 94.167 40.333 94.167 37.250 L 94.167 34.167 91.667 34.167 L 89.167 34.167 89.167 20.833 L 89.167 7.500 91.667 7.500 L 94.167 7.500 94.167 4.250 L 94.167 1.000 85.167 1.000 L 76.167 1.000 76.167 4.250 M99.833 4.250 L 99.833 7.500 102.417 7.500 L 105.000 7.500 105.000 20.833 L 105.000 34.167 102.417 34.167 L 99.833 34.167 99.833 37.250 L 99.833 40.333 108.750 40.333 L 117.667 40.333 117.667 37.250 L 117.667 34.167 115.167 34.167 L 112.667 34.167 112.667 28.648 L 112.667 23.129 115.625 23.205 C 120.456 23.329,121.276 24.120,122.501 29.833 C 122.874 31.574,123.770 34.684,124.086 35.333 C 125.137 37.499,125.362 37.840,126.417 38.866 C 127.466 39.886,128.828 40.330,130.917 40.330 C 132.737 40.330,135.167 39.643,135.167 39.129 C 135.167 39.058,135.254 39.000,135.360 39.000 C 135.953 39.000,137.245 36.746,137.605 35.083 C 137.984 33.335,137.938 33.127,137.102 32.783 L 136.373 32.483 135.746 32.908 C 135.103 33.345,133.500 33.529,133.500 33.167 C 133.500 33.075,133.406 32.999,133.292 32.998 C 132.954 32.995,132.033 31.512,131.480 30.083 C 130.962 28.744,130.921 28.653,130.175 27.143 C 129.078 24.922,127.407 23.109,125.627 22.205 L 124.931 21.851 125.393 21.676 C 125.647 21.579,125.944 21.500,126.053 21.500 C 127.352 21.504,131.743 18.573,132.093 17.468 C 132.146 17.302,132.252 17.167,132.329 17.167 C 132.406 17.167,132.693 16.623,132.967 15.958 C 134.933 11.183,133.360 5.334,129.417 2.758 C 126.889 1.108,125.802 1.000,111.660 1.000 L 99.833 1.000 99.833 4.250 M152.500 4.250 L 152.500 7.500 154.833 7.500 L 157.167 7.500 157.167 20.833 L 157.167 34.167 154.833 34.167 L 152.500 34.167 152.500 37.250 L 152.500 40.333 160.917 40.333 L 169.333 40.333 169.333 37.250 L 169.333 34.167 167.083 34.167 L 164.833 34.167 164.833 28.833 L 164.833 23.500 172.667 23.500 L 180.500 23.500 180.500 28.833 L 180.500 34.167 178.167 34.167 L 175.833 34.167 175.833 37.250 L 175.833 40.333 184.250 40.333 L 192.667 40.333 192.667 37.250 L 192.667 34.167 190.417 34.167 L 188.167 34.167 188.167 20.833 L 188.167 7.500 190.417 7.500 L 192.667 7.500 192.667 4.250 L 192.667 1.000 184.250 1.000 L 175.833 1.000 175.833 4.250 L 175.833 7.500 178.167 7.500 L 180.500 7.500 180.500 12.167 L 180.500 16.833 172.667 16.833 L 164.833 16.833 164.833 12.167 L 164.833 7.500 167.083 7.500 L 169.333 7.500 169.333 4.250 L 169.333 1.000 160.917 1.000 L 152.500 1.000 152.500 4.250 M213.333 1.252 C 213.333 1.391,213.262 1.635,213.175 1.794 C 213.035 2.049,212.208 4.133,210.744 7.917 C 210.496 8.558,210.199 9.308,210.085 9.583 C 209.971 9.858,209.672 10.608,209.420 11.250 C 209.168 11.892,208.869 12.642,208.756 12.917 C 208.643 13.192,208.456 13.679,208.341 14.000 C 208.225 14.321,208.032 14.808,207.910 15.083 C 207.789 15.358,207.503 16.071,207.275 16.667 C 206.759 18.011,205.862 20.304,205.678 20.750 C 205.602 20.933,205.409 21.421,205.250 21.833 C 204.810 22.971,204.651 23.370,204.420 23.917 C 204.304 24.192,204.078 24.754,203.918 25.167 C 203.758 25.579,203.568 26.067,203.496 26.250 C 203.424 26.433,203.162 27.108,202.914 27.750 C 202.665 28.392,202.254 29.442,202.000 30.083 C 201.746 30.725,201.336 31.775,201.090 32.417 C 200.843 33.058,200.582 33.696,200.511 33.833 C 200.408 34.031,199.953 34.093,198.357 34.130 L 196.333 34.177 196.333 37.255 L 196.333 40.333 204.667 40.333 L 213.000 40.333 213.000 37.250 L 213.000 34.167 210.750 34.167 C 209.512 34.167,208.500 34.144,208.500 34.117 C 208.500 34.089,208.942 32.871,209.482 31.409 L 210.465 28.750 217.335 28.750 L 224.206 28.750 225.103 31.167 C 225.596 32.496,226.042 33.715,226.094 33.875 C 226.181 34.143,226.006 34.167,223.928 34.167 L 221.667 34.167 221.667 37.250 L 221.667 40.333 230.000 40.333 L 238.333 40.333 238.333 37.255 L 238.333 34.177 236.309 34.130 C 234.711 34.093,234.259 34.031,234.159 33.833 C 234.090 33.696,233.846 33.096,233.618 32.500 C 233.045 31.006,232.381 29.301,231.833 27.917 C 231.580 27.275,231.168 26.225,230.919 25.583 C 230.476 24.444,230.095 23.543,229.809 22.961 C 229.731 22.801,229.667 22.564,229.667 22.432 C 229.667 22.301,229.561 21.981,229.432 21.722 C 229.303 21.462,229.124 21.063,229.034 20.833 C 228.944 20.604,228.645 19.854,228.371 19.167 C 228.096 18.479,227.670 17.392,227.424 16.750 C 227.178 16.108,226.874 15.358,226.748 15.083 C 226.622 14.808,226.403 14.228,226.262 13.794 C 226.121 13.359,225.935 12.872,225.849 12.710 C 225.763 12.549,225.491 11.892,225.244 11.250 C 224.997 10.608,224.731 9.933,224.653 9.750 C 224.576 9.567,223.869 7.767,223.083 5.750 C 222.298 3.733,221.582 1.953,221.494 1.794 C 221.406 1.635,221.333 1.391,221.333 1.252 C 221.333 1.034,220.794 1.000,217.333 1.000 C 213.873 1.000,213.333 1.034,213.333 1.252 M242.000 4.250 L 242.000 7.500 244.583 7.500 L 247.167 7.500 247.167 20.833 L 247.167 34.167 244.583 34.167 L 242.000 34.167 242.000 37.250 L 242.000 40.333 251.000 40.333 L 260.000 40.333 260.000 37.250 L 260.000 34.167 257.417 34.167 L 254.833 34.167 254.833 28.648 L 254.833 23.130 257.875 23.205 C 261.281 23.289,261.601 23.377,262.693 24.522 C 263.277 25.135,264.333 27.472,264.333 28.151 C 264.333 28.310,264.438 28.773,264.565 29.179 C 264.693 29.585,264.889 30.367,265.002 30.917 C 265.357 32.650,266.067 34.785,266.793 36.303 C 268.127 39.093,270.087 40.335,273.150 40.332 C 276.894 40.327,279.095 38.594,279.810 35.083 C 280.182 33.259,280.197 33.000,279.930 33.000 C 279.791 33.000,279.421 32.877,279.107 32.728 C 278.550 32.462,278.522 32.466,277.961 32.894 C 276.251 34.198,274.584 32.886,273.334 29.251 C 272.936 28.095,271.852 25.890,271.564 25.651 C 271.437 25.546,271.333 25.386,271.333 25.296 C 271.333 24.923,268.780 22.612,268.125 22.392 C 267.965 22.339,267.833 22.228,267.833 22.147 C 267.833 22.066,267.702 21.998,267.542 21.995 C 267.115 21.987,267.778 21.500,268.215 21.500 C 268.810 21.500,271.320 20.267,272.559 19.367 C 277.452 15.812,277.066 6.370,271.888 2.960 C 269.010 1.065,268.534 1.013,253.875 1.006 L 242.000 1.000 242.000 4.250 M283.500 4.250 L 283.500 7.500 286.167 7.500 L 288.833 7.500 288.833 20.833 L 288.833 34.167 286.167 34.167 L 283.500 34.167 283.500 37.344 L 283.500 40.521 295.708 40.453 C 309.797 40.373,309.245 40.428,313.083 38.744 C 318.654 36.299,320.839 27.599,316.938 23.392 C 316.697 23.132,316.500 22.876,316.500 22.822 C 316.500 22.327,313.447 20.401,311.917 19.931 C 310.755 19.574,310.402 19.333,311.040 19.333 C 311.282 19.333,311.522 19.267,311.572 19.185 C 311.622 19.104,311.861 18.987,312.103 18.927 C 313.538 18.566,315.575 16.681,316.393 14.954 C 318.913 9.637,316.027 3.566,310.250 2.029 C 306.710 1.088,305.416 1.008,293.792 1.004 L 283.500 1.000 283.500 4.250 M361.333 4.250 L 361.333 7.500 363.917 7.500 L 366.500 7.500 366.500 20.833 L 366.500 34.167 363.917 34.167 L 361.333 34.167 361.333 37.250 L 361.333 40.333 370.333 40.333 L 379.333 40.333 379.333 37.250 L 379.333 34.167 376.750 34.167 L 374.167 34.167 374.167 28.650 L 374.167 23.134 377.125 23.201 C 380.263 23.272,380.564 23.337,381.676 24.190 C 382.224 24.609,383.333 26.513,383.333 27.033 C 383.333 27.146,383.437 27.541,383.565 27.911 C 383.692 28.281,383.882 28.996,383.988 29.500 C 384.661 32.717,385.933 36.465,386.667 37.389 C 388.518 39.719,389.724 40.328,392.488 40.332 C 395.083 40.335,398.167 38.834,398.167 37.568 C 398.167 37.439,398.236 37.333,398.320 37.333 C 398.560 37.333,399.146 35.361,399.261 34.167 L 399.365 33.083 398.619 32.783 L 397.873 32.483 397.246 32.908 C 395.684 33.969,394.009 32.926,393.114 30.333 C 392.782 29.372,392.045 27.581,391.789 27.112 C 390.917 25.517,390.054 24.341,389.271 23.680 C 389.100 23.535,388.837 23.301,388.688 23.160 C 388.266 22.761,387.031 22.001,386.795 21.995 C 386.468 21.987,387.187 21.500,387.526 21.500 C 388.034 21.500,391.167 20.040,391.167 19.803 C 391.167 19.728,391.244 19.667,391.338 19.667 C 391.520 19.667,392.547 18.794,392.986 18.267 C 393.131 18.092,393.363 17.829,393.500 17.681 C 396.475 14.475,395.653 6.814,391.987 3.583 C 389.189 1.116,388.391 1.007,373.208 1.003 L 361.333 1.000 361.333 4.250 M122.064 7.695 C 122.441 7.803,122.868 7.990,123.013 8.112 C 123.158 8.234,123.345 8.335,123.430 8.338 C 124.828 8.380,125.711 12.372,124.723 14.187 C 123.665 16.131,122.783 16.396,117.125 16.465 L 112.667 16.520 112.667 12.010 L 112.667 7.500 117.022 7.500 C 119.852 7.500,121.618 7.568,122.064 7.695 M264.250 7.715 C 266.449 8.407,267.374 9.686,267.376 12.038 C 267.379 15.667,265.837 16.484,258.958 16.494 L 254.833 16.500 254.833 12.000 L 254.833 7.500 259.208 7.503 C 262.254 7.504,263.786 7.569,264.250 7.715 M304.833 7.721 C 308.957 8.858,309.140 14.410,305.106 15.960 C 304.573 16.164,303.556 16.240,300.625 16.295 L 296.833 16.365 296.833 11.932 L 296.833 7.500 300.458 7.507 C 302.807 7.512,304.347 7.588,304.833 7.721 M341.844 7.732 C 342.721 7.857,343.583 8.034,343.761 8.127 C 343.938 8.220,344.371 8.436,344.722 8.607 C 347.681 10.044,349.319 14.366,349.325 20.750 C 349.329 25.235,348.345 29.329,346.884 30.905 C 346.673 31.132,346.500 31.397,346.500 31.493 C 346.500 31.588,346.436 31.667,346.358 31.667 C 346.279 31.667,346.033 31.835,345.810 32.042 C 343.907 33.802,340.389 34.372,337.419 33.402 C 334.782 32.540,332.854 30.237,332.201 27.167 C 332.094 26.662,331.892 25.710,331.753 25.050 C 331.580 24.231,331.500 22.895,331.500 20.833 C 331.500 18.772,331.580 17.436,331.753 16.616 C 331.892 15.956,332.090 15.004,332.192 14.500 C 332.902 11.000,335.534 8.286,338.750 7.735 C 340.275 7.475,340.027 7.475,341.844 7.732 M383.794 7.770 C 387.531 8.856,387.889 14.281,384.333 15.940 C 383.366 16.392,382.192 16.500,378.260 16.500 L 374.167 16.500 374.167 12.000 L 374.167 7.500 378.516 7.500 C 382.031 7.500,383.043 7.552,383.794 7.770 M51.851 11.187 C 52.036 11.680,52.330 12.496,52.503 13.000 C 53.058 14.615,53.269 15.158,53.386 15.275 C 53.449 15.337,53.500 15.508,53.501 15.653 C 53.502 15.798,53.614 16.131,53.751 16.394 C 53.888 16.657,54.002 16.994,54.005 17.144 C 54.008 17.294,54.121 17.562,54.255 17.740 C 54.390 17.918,54.500 18.200,54.500 18.367 C 54.500 18.535,54.567 18.801,54.650 18.961 C 54.732 19.120,54.927 19.587,55.083 20.000 C 55.239 20.412,55.472 20.996,55.600 21.297 C 56.064 22.386,56.280 22.333,51.397 22.333 C 47.249 22.333,46.967 22.314,47.053 22.042 C 47.103 21.881,47.380 21.112,47.669 20.333 C 47.958 19.554,48.235 18.747,48.284 18.539 C 48.333 18.332,48.439 18.121,48.520 18.071 C 48.601 18.021,48.667 17.812,48.667 17.605 C 48.667 17.399,48.777 17.085,48.911 16.907 C 49.046 16.729,49.161 16.433,49.167 16.250 C 49.172 16.067,49.287 15.771,49.422 15.593 C 49.557 15.415,49.667 15.101,49.667 14.895 C 49.667 14.688,49.733 14.479,49.813 14.429 C 49.894 14.379,49.999 14.168,50.047 13.961 C 50.094 13.753,50.296 13.171,50.494 12.667 C 50.692 12.162,50.974 11.393,51.120 10.956 C 51.429 10.031,51.414 10.026,51.851 11.187 M217.601 10.792 C 217.723 10.952,217.825 11.248,217.828 11.448 C 217.831 11.649,217.908 11.860,218.000 11.917 C 218.092 11.973,218.167 12.135,218.167 12.276 C 218.167 12.417,218.269 12.769,218.393 13.058 C 218.880 14.187,219.047 14.617,219.341 15.500 C 219.508 16.004,219.806 16.829,220.002 17.333 C 220.198 17.837,220.471 18.587,220.609 19.000 C 220.747 19.412,220.927 19.900,221.010 20.083 C 221.223 20.557,221.513 21.340,221.673 21.875 L 221.810 22.333 217.405 22.333 L 213.000 22.333 213.000 21.927 C 213.000 21.703,213.066 21.479,213.147 21.429 C 213.227 21.379,213.332 21.168,213.380 20.961 C 213.428 20.753,213.628 20.171,213.825 19.667 C 214.021 19.162,214.358 18.262,214.572 17.667 C 215.208 15.901,216.110 13.448,216.288 13.000 C 216.379 12.771,216.550 12.283,216.667 11.917 C 217.124 10.484,217.251 10.331,217.601 10.792 M306.417 23.315 C 308.565 24.158,309.579 25.835,309.552 28.500 C 309.506 32.983,307.586 34.167,300.361 34.167 L 296.833 34.167 296.833 28.490 L 296.833 22.813 301.125 22.867 C 305.168 22.919,305.475 22.945,306.417 23.315 M41.750 57.288 C 41.017 57.424,40.004 57.645,39.500 57.779 C 38.996 57.913,38.283 58.099,37.917 58.191 C 37.550 58.283,37.038 58.465,36.778 58.596 C 36.519 58.726,36.206 58.833,36.083 58.833 C 35.961 58.833,35.648 58.945,35.389 59.081 C 35.129 59.217,34.279 59.626,33.500 59.990 C 32.148 60.622,30.511 61.489,30.333 61.667 C 29.688 62.313,24.977 64.036,22.167 64.653 C 16.125 65.980,8.789 65.160,3.667 62.586 C 2.096 61.797,1.689 61.584,1.206 61.295 L 0.661 60.969 0.706 65.421 L 0.750 69.873 2.417 70.710 C 4.751 71.882,4.828 71.917,5.667 72.155 C 6.079 72.272,6.604 72.443,6.833 72.535 C 10.930 74.179,19.409 74.411,23.913 73.003 C 25.266 72.580,27.144 71.936,27.667 71.716 C 28.447 71.387,31.062 70.105,31.167 70.000 C 31.326 69.840,31.928 69.518,33.500 68.750 C 35.165 67.936,35.347 67.856,36.417 67.460 C 38.148 66.820,38.660 66.667,39.917 66.414 C 40.192 66.359,40.904 66.208,41.500 66.080 C 44.240 65.489,49.986 65.518,52.333 66.134 C 52.654 66.218,53.329 66.378,53.833 66.490 C 56.229 67.018,59.805 68.467,61.753 69.698 C 69.337 74.494,81.029 75.329,89.125 71.655 C 91.039 70.786,91.526 70.542,92.917 69.754 C 95.134 68.499,95.829 68.179,98.583 67.143 C 100.308 66.495,103.424 65.882,106.000 65.685 C 108.097 65.525,112.277 65.770,113.667 66.134 C 113.987 66.218,114.662 66.378,115.167 66.490 C 117.379 66.978,120.691 68.293,122.750 69.501 C 132.657 75.311,144.150 75.495,153.750 69.997 C 154.621 69.498,157.508 68.059,158.083 67.837 C 158.267 67.766,158.630 67.622,158.890 67.517 C 163.459 65.677,170.465 65.079,175.000 66.142 C 175.412 66.239,176.237 66.433,176.833 66.574 C 177.429 66.715,178.329 66.984,178.833 67.173 C 179.338 67.362,180.068 67.628,180.457 67.765 C 181.177 68.017,182.715 68.723,183.167 69.009 C 183.304 69.096,183.567 69.240,183.750 69.329 C 183.933 69.418,184.458 69.713,184.917 69.985 C 186.822 71.116,189.520 72.245,192.000 72.949 C 197.121 74.402,205.057 74.214,209.333 72.539 C 209.563 72.449,210.050 72.280,210.417 72.163 C 210.783 72.045,211.646 71.689,212.333 71.372 C 213.021 71.054,213.733 70.727,213.917 70.644 C 214.100 70.562,214.625 70.268,215.083 69.992 C 215.542 69.716,216.067 69.418,216.250 69.329 C 216.433 69.240,216.696 69.096,216.833 69.009 C 217.285 68.723,218.823 68.017,219.543 67.765 C 219.932 67.628,220.662 67.362,221.167 67.173 C 221.671 66.984,222.571 66.715,223.167 66.574 C 223.762 66.433,224.588 66.239,225.000 66.142 C 229.535 65.079,236.541 65.677,241.110 67.517 C 241.370 67.622,241.733 67.767,241.917 67.839 C 242.501 68.069,245.386 69.507,246.250 69.999 C 255.819 75.455,266.972 75.338,276.917 69.677 C 279.447 68.237,282.514 67.002,284.833 66.490 C 285.337 66.378,286.012 66.218,286.333 66.134 C 288.697 65.514,295.370 65.521,297.667 66.147 C 297.987 66.234,298.662 66.396,299.167 66.505 C 301.510 67.016,304.193 68.117,307.083 69.754 C 308.474 70.542,308.961 70.786,310.875 71.655 C 316.309 74.121,324.706 74.668,330.667 72.943 C 333.122 72.233,337.690 70.256,338.385 69.603 C 339.958 68.125,346.830 66.019,351.167 65.687 C 353.642 65.497,356.689 65.695,359.000 66.196 C 361.957 66.838,361.726 66.774,363.583 67.460 C 364.698 67.872,364.864 67.944,366.417 68.693 C 367.242 69.091,368.016 69.510,368.137 69.625 C 368.258 69.740,368.458 69.833,368.581 69.833 C 368.705 69.833,368.831 69.890,368.861 69.959 C 368.892 70.029,369.592 70.414,370.417 70.815 C 371.242 71.216,372.044 71.608,372.200 71.685 C 372.474 71.821,374.798 72.599,376.333 73.069 C 380.752 74.422,389.125 74.156,393.167 72.535 C 393.396 72.443,393.921 72.272,394.333 72.155 C 395.172 71.917,395.249 71.882,397.583 70.710 L 399.250 69.873 399.294 65.442 L 399.339 61.012 398.294 61.589 C 397.720 61.907,397.137 62.210,397.000 62.262 C 396.863 62.315,396.624 62.424,396.471 62.506 C 390.236 65.813,380.065 66.174,373.250 63.328 C 371.025 62.399,369.981 61.893,368.694 61.120 C 365.691 59.317,361.948 57.960,358.069 57.270 C 356.012 56.903,350.476 56.897,348.500 57.259 C 346.476 57.630,344.443 58.149,343.333 58.580 C 340.386 59.724,339.311 60.219,337.775 61.137 C 336.810 61.714,334.823 62.716,334.083 62.998 C 333.900 63.068,333.525 63.217,333.250 63.328 C 325.590 66.441,316.415 65.872,308.698 61.805 C 307.810 61.337,306.333 60.581,305.417 60.125 C 304.500 59.669,303.620 59.229,303.460 59.148 C 302.739 58.779,299.532 57.812,298.167 57.550 C 297.938 57.507,297.209 57.365,296.549 57.235 C 294.910 56.914,288.923 56.914,287.285 57.235 C 286.624 57.365,285.896 57.505,285.667 57.547 C 283.186 58.001,278.951 59.641,276.750 61.000 C 275.858 61.550,272.538 63.167,272.299 63.167 C 272.171 63.167,271.995 63.232,271.908 63.312 C 271.425 63.758,267.502 64.738,264.833 65.080 C 260.296 65.663,254.496 64.972,250.917 63.424 C 250.642 63.305,249.892 62.997,249.250 62.740 C 248.205 62.321,247.640 62.034,246.577 61.383 C 246.397 61.273,245.725 60.908,245.083 60.571 C 244.442 60.234,243.842 59.906,243.750 59.843 C 243.585 59.730,241.791 59.000,240.667 58.590 C 239.413 58.132,237.563 57.667,235.372 57.257 C 233.788 56.962,227.525 56.901,226.417 57.170 C 226.050 57.259,225.300 57.405,224.750 57.495 C 223.094 57.765,219.612 58.832,219.258 59.178 C 219.171 59.264,218.999 59.333,218.876 59.333 C 218.593 59.333,216.927 60.133,215.417 60.994 C 207.572 65.469,199.949 66.442,191.500 64.049 C 190.721 63.828,189.933 63.579,189.750 63.495 C 189.567 63.411,189.042 63.199,188.583 63.023 C 187.786 62.717,186.001 61.813,184.583 60.996 C 183.383 60.305,181.366 59.333,181.130 59.333 C 181.004 59.333,180.829 59.264,180.742 59.178 C 180.655 59.093,180.246 58.900,179.833 58.750 C 173.681 56.506,167.096 56.369,160.083 58.337 C 158.541 58.770,155.512 60.131,153.917 61.108 C 153.733 61.220,153.283 61.468,152.917 61.659 C 152.550 61.850,152.137 62.077,152.000 62.164 C 151.629 62.398,149.846 63.167,149.675 63.167 C 149.594 63.167,149.315 63.274,149.055 63.405 C 146.125 64.888,139.704 65.663,135.167 65.080 C 132.498 64.738,128.575 63.758,128.092 63.312 C 128.005 63.232,127.829 63.167,127.701 63.167 C 127.470 63.167,124.283 61.621,123.167 60.968 C 121.291 59.870,118.795 58.782,116.833 58.206 C 113.626 57.265,111.704 57.000,108.082 57.000 C 104.678 57.000,103.388 57.139,100.917 57.771 C 100.367 57.911,99.617 58.104,99.250 58.198 C 98.219 58.463,97.361 58.795,95.287 59.732 C 94.758 59.971,94.258 60.167,94.176 60.167 C 94.094 60.167,94.003 60.223,93.972 60.292 C 93.799 60.681,88.765 63.139,86.917 63.737 C 81.614 65.453,75.482 65.806,71.091 64.648 C 68.893 64.069,67.617 63.681,66.750 63.328 C 66.475 63.217,66.100 63.068,65.917 62.998 C 65.177 62.716,63.190 61.714,62.225 61.137 C 60.689 60.219,59.614 59.724,56.667 58.580 C 52.933 57.131,45.887 56.521,41.750 57.288 M43.667 74.597 C 39.504 74.946,34.533 76.618,30.833 78.912 C 30.512 79.112,29.725 79.518,29.083 79.815 C 28.442 80.113,27.786 80.426,27.627 80.511 C 26.262 81.244,22.068 82.331,19.333 82.662 C 16.590 82.994,12.059 82.752,9.757 82.150 C 9.387 82.053,8.783 81.896,8.417 81.800 C 6.346 81.262,4.562 80.572,2.364 79.458 C 1.504 79.023,0.770 78.667,0.731 78.667 C 0.693 78.667,0.681 80.635,0.706 83.042 L 0.750 87.417 2.333 88.222 C 3.204 88.665,4.217 89.141,4.583 89.279 C 4.950 89.418,5.400 89.597,5.583 89.678 C 6.308 89.999,8.404 90.578,10.750 91.106 C 12.687 91.542,19.487 91.545,21.417 91.111 C 24.791 90.353,27.553 89.447,29.333 88.515 C 30.727 87.786,31.932 87.107,32.000 87.013 C 32.046 86.950,32.346 86.793,32.667 86.665 C 32.987 86.538,33.587 86.241,34.000 86.006 C 34.412 85.771,35.050 85.481,35.417 85.361 C 35.783 85.241,36.308 85.042,36.583 84.919 C 36.858 84.796,37.421 84.605,37.833 84.494 C 38.246 84.383,38.921 84.199,39.333 84.084 C 42.037 83.332,42.678 83.261,46.750 83.262 C 51.045 83.263,51.306 83.298,54.917 84.335 C 57.837 85.174,59.318 85.828,63.104 87.952 C 65.496 89.294,68.143 90.225,72.083 91.111 C 74.004 91.543,80.808 91.542,82.750 91.109 C 84.791 90.654,86.958 90.028,88.500 89.448 C 89.623 89.025,93.705 86.961,94.000 86.667 C 94.046 86.621,94.346 86.459,94.667 86.306 C 99.634 83.946,102.671 83.255,108.083 83.255 C 112.631 83.255,114.278 83.540,118.667 85.087 C 119.458 85.365,122.402 86.808,123.250 87.333 C 124.797 88.290,128.057 89.730,129.667 90.168 C 130.079 90.280,130.640 90.441,130.913 90.524 C 134.806 91.715,142.318 91.779,145.942 90.653 C 146.231 90.564,146.906 90.379,147.442 90.244 C 147.978 90.108,148.717 89.876,149.083 89.728 C 149.450 89.581,149.900 89.401,150.083 89.330 C 150.654 89.107,153.558 87.663,154.083 87.340 C 160.802 83.221,169.765 82.054,177.500 84.290 C 178.755 84.653,179.356 84.857,180.583 85.337 C 181.387 85.651,184.188 87.045,184.694 87.383 C 185.910 88.195,189.244 89.681,190.917 90.157 C 191.283 90.262,191.958 90.453,192.417 90.583 C 196.686 91.791,203.871 91.751,207.917 90.496 C 211.070 89.518,213.060 88.689,215.083 87.507 C 215.916 87.021,218.787 85.583,219.417 85.337 C 223.430 83.768,226.469 83.188,230.667 83.188 C 236.165 83.188,241.588 84.669,245.917 87.353 C 246.546 87.743,249.194 89.053,249.917 89.332 C 250.100 89.402,250.550 89.581,250.917 89.728 C 251.283 89.876,252.022 90.108,252.558 90.244 C 253.094 90.379,253.769 90.564,254.058 90.653 C 257.886 91.843,264.816 91.728,269.500 90.398 C 270.004 90.255,270.670 90.075,270.979 89.999 C 271.288 89.922,271.622 89.778,271.720 89.680 C 271.819 89.581,272.023 89.500,272.174 89.500 C 272.325 89.500,272.667 89.396,272.933 89.268 C 274.605 88.469,276.320 87.599,276.750 87.333 C 279.426 85.678,282.493 84.518,286.750 83.553 C 288.651 83.121,295.135 83.118,297.083 83.547 C 299.773 84.140,302.242 84.896,303.833 85.615 C 305.233 86.247,305.908 86.575,306.000 86.667 C 306.295 86.961,310.377 89.025,311.500 89.448 C 313.042 90.028,315.209 90.654,317.250 91.109 C 319.192 91.542,325.996 91.543,327.917 91.111 C 331.851 90.227,334.495 89.297,336.896 87.954 C 339.319 86.599,341.439 85.527,342.206 85.270 C 342.641 85.124,343.128 84.936,343.290 84.852 C 343.451 84.768,344.296 84.508,345.167 84.275 C 348.944 83.263,349.000 83.256,353.250 83.259 C 357.318 83.261,357.968 83.333,360.667 84.084 C 361.079 84.199,361.754 84.384,362.167 84.496 C 362.579 84.608,363.049 84.768,363.210 84.852 C 363.372 84.936,363.859 85.124,364.294 85.270 C 365.061 85.527,367.181 86.599,369.604 87.954 C 372.005 89.297,374.649 90.227,378.583 91.111 C 380.513 91.545,387.313 91.542,389.250 91.106 C 391.596 90.578,393.692 89.999,394.417 89.678 C 394.600 89.597,395.050 89.418,395.417 89.279 C 395.783 89.141,396.796 88.665,397.667 88.222 L 399.250 87.417 399.294 83.042 C 399.319 80.635,399.307 78.667,399.269 78.667 C 399.230 78.667,398.496 79.023,397.636 79.458 C 395.438 80.572,393.654 81.262,391.583 81.800 C 391.217 81.896,390.613 82.053,390.243 82.150 C 387.053 82.984,380.752 83.005,377.750 82.193 C 377.383 82.093,376.633 81.902,376.083 81.768 C 374.249 81.320,373.016 80.840,370.583 79.625 C 368.554 78.613,367.600 78.104,367.500 77.981 C 367.454 77.924,367.004 77.687,366.500 77.453 C 357.644 73.344,347.995 73.469,339.500 77.805 C 336.199 79.489,334.510 80.330,333.917 80.584 C 332.653 81.125,331.626 81.473,330.417 81.768 C 329.867 81.902,329.117 82.093,328.750 82.193 C 324.046 83.466,316.103 82.724,311.167 80.549 C 309.907 79.994,307.013 78.514,306.833 78.332 C 306.588 78.085,303.881 76.854,302.083 76.173 C 296.730 74.143,288.128 73.953,283.167 75.754 C 282.846 75.870,282.200 76.080,281.732 76.219 C 280.754 76.510,278.358 77.568,277.500 78.088 C 277.179 78.282,276.804 78.493,276.667 78.556 C 276.529 78.619,276.192 78.818,275.917 78.999 C 275.642 79.180,275.252 79.401,275.052 79.490 C 274.851 79.578,274.189 79.883,273.581 80.168 C 266.426 83.513,256.874 83.667,249.833 80.551 C 248.444 79.936,247.350 79.383,246.417 78.825 C 244.680 77.785,240.779 76.000,240.245 76.000 C 240.116 76.000,239.765 75.896,239.464 75.769 C 236.038 74.325,227.635 74.135,223.000 75.396 C 221.764 75.733,219.611 76.436,219.228 76.630 C 219.057 76.716,218.037 77.228,216.962 77.768 C 215.887 78.308,214.091 79.219,212.971 79.792 C 211.851 80.365,210.836 80.833,210.715 80.833 C 210.594 80.833,210.365 80.902,210.206 80.985 C 205.221 83.602,194.376 83.284,188.083 80.338 C 187.533 80.081,186.971 79.827,186.833 79.774 C 186.696 79.721,186.208 79.456,185.750 79.185 C 184.951 78.713,181.628 77.030,180.583 76.569 C 179.296 76.002,176.736 75.270,174.667 74.879 C 172.819 74.530,165.940 74.478,164.333 74.801 C 163.001 75.069,161.417 75.462,160.750 75.691 C 160.475 75.785,160.025 75.920,159.750 75.990 C 158.590 76.285,155.301 77.797,153.583 78.825 C 152.650 79.383,151.556 79.936,150.167 80.551 C 143.114 83.672,133.581 83.516,126.406 80.162 C 125.805 79.881,125.149 79.580,124.948 79.492 C 124.748 79.405,124.471 79.261,124.333 79.172 C 123.728 78.779,121.820 77.667,121.752 77.667 C 121.671 77.667,120.027 76.940,119.333 76.597 C 119.104 76.484,118.579 76.295,118.167 76.178 C 117.754 76.060,117.154 75.869,116.833 75.753 C 112.858 74.316,105.570 74.101,100.917 75.284 C 98.232 75.966,93.785 77.716,93.167 78.333 C 92.985 78.515,90.086 79.997,88.833 80.549 C 83.897 82.724,75.954 83.466,71.250 82.193 C 70.883 82.093,70.133 81.902,69.583 81.768 C 67.688 81.305,66.524 80.845,63.917 79.529 C 57.022 76.047,56.242 75.744,51.833 74.836 C 50.919 74.648,45.091 74.477,43.667 74.597 " stroke="none" fill="currentColor" fill-rule="evenodd"></path>

      <path id="fh-logo-path1" d="" stroke="none" fill="#081c74" fill-rule="evenodd"></path>
      <path id="fh-logo-path2" d="" stroke="none" fill="#081c74" fill-rule="evenodd"></path>
      <path id="fh-logo-path3" d="" stroke="none" fill="#081c74" fill-rule="evenodd"></path>
      <path id="fh-logo-path4" d="" stroke="none" fill="#081c74" fill-rule="evenodd"></path>
    </g>
  </svg>