<?xml version="1.0" encoding="UTF-8"?>
<!-- Generator: Adobe Illustrator 27.7.0, SVG Export Plug-In . SVG Version: 6.00 Build 0)  -->
<svg version="1.1" id="Layer_1" xmlns="http://www.w3.org/2000/svg" xmlns:xlink="http://www.w3.org/1999/xlink" x="0px" y="0px" viewBox="0 0 2916.4 1392.6" style="enable-background:new 0 0 2916.4 1392.6;" xml:space="preserve">
<style type="text/css">
	.st0{fill:#041F3D;}
	.st1{fill:#5082BA;}
	.st2{font-family:'Montserrat-Medium';}
	.st3{font-size:138.78px;}
	.st4{letter-spacing:-5;}
	.st5{letter-spacing:-2;}
	.st6{letter-spacing:-1;}
</style>
<g>
	<g id="Layer_2-2">
		<g id="Layer_1-2-2">
			<g id="Layer_2-2-2">
				<g id="Layer_2-2-2-2">
					<path class="st0" d="M1150.9,82.2h381v110.4h-235.1v96.3h218.4v110.3h-218.4v166.2h-145.9V82.2z"/>
					<path class="st0" d="M1876.9,565.4l-28.7-77.3h-198.3l-29.3,77.3h-150l209.6-483.2h149.8l202.2,483.2H1876.9L1876.9,565.4z        M1690.5,383.3h119L1750.7,226L1690.5,383.3z"/>
					<path class="st0" d="M2316.6,199.5c-24.7-9.3-50.7-14.7-77-16c-10.5-0.6-20.9,1.9-29.9,7.3c-7.1,3.7-11.4,12.4-10.7,21.5       c0,12.9,6.8,23,21,30.2c21.4,9.6,43.6,17.3,66.4,23c29.3,7.8,57.9,17.6,85.8,29.3c22.1,9.7,42.1,25.2,58.4,45.2       c17.1,21.7,26,50.6,24.7,80.2c0.7,31.4-9.1,61.9-27.1,85c-19.9,24.8-45,42.8-72.8,52.2c-32.9,11.8-67.6,17.6-102.5,17.2       c-43-0.2-85.7-7.5-126.3-21.6c-39.5-12.6-76.5-32-109.3-57.5l54.6-109.2c27.2,22.7,57.9,40.7,91,53.4       c28.7,12.8,59.6,20.1,91,21.5c12.7,0.6,25.4-2.5,36.4-8.8c8.3-4.7,13.6-14.7,13.6-25.6c0-13.4-6.8-23.5-21.7-30.6       c-21.6-9.3-44.1-16.6-67.1-21.5c-28.8-7.1-57.1-16.2-84.7-27.4c-21.9-8.9-41.9-23.6-58.2-43.1c-16.7-21-25.6-49.1-24.4-77.9       c-0.3-29.9,8.6-58.9,25.2-81.5c19.1-25.7,43.7-44.7,71.3-54.9c34-13.2,70.2-19.6,106.7-18.8c36.9,0.1,73.7,5.3,109.2,15.5       c33.4,9.2,65.4,23,95,41.2l-54.3,110.2C2374.1,222.6,2345.9,209.6,2316.6,199.5L2316.6,199.5z"/>
					<path class="st0" d="M2459.7,82.2h430.7v115.4h-142.9v367.9h-145.7V197.6h-142.1L2459.7,82.2L2459.7,82.2z"/>
					<path class="st1" d="M1150.9,733.8h115.9l55.3,195l54.3-195h107.4l54.9,195l54.3-195H1703l-112.1,305.8h-112.5l-50.9-175.5       l-52,175.5h-112.6L1150.9,733.8z"/>
					<path class="st1" d="M1976.4,774.7c29.2,31.3,44.9,76.4,42.8,122.9c0.3,5.8,0.3,11.7,0,17.6h-209.4c4,14,12,25.8,22.6,33.7       c10.9,8.1,24.3,12.2,37.8,11.8c25-0.3,49.1-10.6,68.6-29.1l59.4,57.7c-17,18.6-37.3,32.7-59.4,41.1       c-25.1,9.6-51.7,14.3-78.5,13.8c-30.8,0.6-61.4-6.1-89.1-19.6c-23.3-11.3-43.4-30.3-57.9-54.6c-13.7-24.1-20.8-52.7-20.3-81.8       c-0.5-29.5,6.7-58.4,20.6-82.8c14.3-24.5,34.3-43.7,57.6-55.3c26.5-13.5,55.9-20.2,85.6-19.6       C1908.1,730.1,1947.7,744.7,1976.4,774.7L1976.4,774.7z M1892.4,821.7c-19.5-19-47.7-19-67.2,0c-9.4,10.6-15.5,23.7-17.8,37.7       h97.7C1905.8,845.2,1901.2,831.3,1892.4,821.7L1892.4,821.7L1892.4,821.7z"/>
					<path class="st1" d="M2052.4,733.8h115.4v305.8h-115.4V733.8z"/>
					<path class="st1" d="M2522,733.8v279.3c0.3,26.9-7.2,53.2-21.4,74.3c-15.7,22.4-36.2,39.4-59.4,49.1       c-28.1,12-58.5,18-89.1,17.6c-26.6,0.1-53.1-3.7-78.6-11.3c-22.7-6.5-44.4-16.1-64.5-28.7l37.6-76       c14.1,9.2,29.4,16.2,45.6,20.7c16.2,4.8,32.9,7.3,49.8,7.3c17.2,1.1,34.2-3.5,48.6-13.1c10.7-7.1,17.3-20.5,17.4-35v-32.8       c-22.3,25.1-52.3,38.3-83,36.5c-23.6,0.7-46.8-5.4-67-17.6c-19.3-11.8-35.4-30-46.1-52.3c-11.8-24.2-17.7-50.9-17.2-77.9       c-0.4-26.1,5.1-51.9,16.3-75.5c10.5-21.6,25.9-39.3,44.6-50.9c20-12,43.1-18.1,66.4-17.6c31.6-2,62.5,11.3,85.5,37v-33.3       L2522,733.8L2522,733.8z M2393.4,923.6c10-12.2,15.4-28.8,14.8-45.8c0.6-17.3-4.7-34.2-14.8-46.7       c-10.2-11.9-24.1-18.2-38.5-17.6c-14.1-0.6-27.8,5.8-37.7,17.6c-10,12.5-15.4,29.2-14.9,46.4c-0.5,16.9,4.9,33.3,14.9,45.4       c21.7,23.2,54.8,23.2,76.5,0L2393.4,923.6L2393.4,923.6z"/>
					<path class="st1" d="M2858.7,761c20.6,21,32.2,51.7,31.6,83.9v194.7h-115.2V878.3c0.6-13.6-3.8-26.8-12-36.3       c-9-9.2-20.6-13.9-32.5-13.1c-13.9-0.3-27.2,6-37.1,17.5c-9.2,11.5-14.1,26.8-13.7,42.7v151.3h-116.2V622.5h115.2v158       c10.8-16.7,25-29.9,41.3-38.4c17.8-9.1,37.5-13.6,57.4-13.1C2807,727.4,2836,738.8,2858.7,761L2858.7,761z"/>
					<rect x="2061" y="633.6" class="st1" width="98.3" height="75.3"/>
					<polygon class="st1" points="2052.4,718.5 2052.4,633.6 2052.4,624.1 2167.7,624.1 2167.7,718.5 2052.4,718.5      "/>
					<polygon class="st1" points="2069.4,699.2 2150.6,699.2 2150.6,643.2 2069.4,643.2 2069.4,699.2      "/>
					<g id="Layer_2-3">
						<g id="Layer_1-2-2-2">
							<path class="st1" d="M306.6,351.7l-61.7,64c-71.6,11.2-140.8,34.8-204.4,69.5C120.8,425.6,210.8,380.5,306.6,351.7z"/>
							<path class="st1" d="M609.6,340.5l-71.1,73.4c-22.8-4.6-45.9-7.8-69.1-9.4c-59.3-4-118.8-2.9-177.8,3.5L358,340         c45.7-7.2,91.9-10.3,138.1-9.2C534.1,331.7,572,334.9,609.6,340.5z"/>
							<path class="st1" d="M952.3,460.5l-100,101.9c-82.7-62.1-175.5-109.5-274.4-140l73.4-77.3         C757.5,366.1,859.3,405.1,952.3,460.5L952.3,460.5z"/>
							<path class="st1" d="M1099.3,565.1v213.1C1035.2,713,967.1,652,895.2,595.6l103-106.4c27.9,18.1,54.7,37.8,80.3,59         L1099.3,565.1z"/>
							<path class="st0" d="M158,509.5c-44.4-0.4-88.7,4.5-131.9,14.4v379.2c0.2,104.6,85.1,189.2,189.6,189h844.7         C990.9,719.4,529.6,514.1,158,509.5z"/>
							<path class="st0" d="M1100.5,321.2v-110c-0.2-104.7-85.3-189.3-189.9-189.1H216c-104.6-0.3-189.7,84.3-189.9,189l0,0v207.3         C222.4,176.5,728.9,52.2,1100.5,321.2z"/>
						</g>
					</g>
				</g>
			</g>
		</g>
	</g>
	<text transform="matrix(1 0 0 1 1150.8712 1333.9601)" class="st0 st2 st3">p</text>
	<g>
		<text transform="matrix(1 0 0 1 1245.3811 1333.9601)" class="st0 st2 st3 st4">o</text>
		<text transform="matrix(1 0 0 1 1327.2611 1333.9601)" class="st0 st2 st3 st5">w</text>
	</g>
	<text transform="matrix(1 0 0 1 1452.8512 1333.9601)" class="st0 st2 st3">e</text>
	<text transform="matrix(1 0 0 1 1537.7812 1333.9601)" class="st0 st2 st3 st6">r</text>
	<text transform="matrix(1 0 0 1 1593.0212 1333.9601)" class="st0 st2 st3">ed</text>
	<text transform="matrix(1 0 0 1 1801.8911 1333.9601)" class="st0 st2 st3 st5">b</text>
	<text transform="matrix(1 0 0 1 1893.7711 1333.9601)" class="st0 st2 st3">y</text>
	<g id="Layer_2-3-2">
		<g id="Layer_1-2-3">
			<path class="st0" d="M2045.5,1260h-36.2v-30.5h113.6v30.6h-36.2v78h-41.2L2045.5,1260L2045.5,1260z"/>
			<path class="st0" d="M2150.5,1227.5h40.8l51.9,109.2h-44.7l-6.5-14.6h-43.1l-6.3,14.6h-44L2150.5,1227.5L2150.5,1227.5z      M2181.8,1296.4l-11.3-26.3l-11.2,26.3H2181.8z"/>
			<path class="st0" d="M2228.7,1282.8v-0.3c0-32.3,28.7-56.7,65.4-56.7c27.1,0,45.4,11.6,55.7,28.1l-33.9,17.5     c-4.6-8.6-13.2-13.7-22.4-13.2c-12-0.8-22.3,9.2-23,22.2v1.8c-0.2,13,9.2,23.8,21.1,24h1.9c9.4,0.4,18.3-4.8,23.2-13.7l34,16.9     c-10.4,16.1-27.6,29.3-58.1,29.3C2258.5,1339,2228.7,1316.4,2228.7,1282.8L2228.7,1282.8z"/>
			<path class="st1" d="M2355.9,1223.6h27.1v20.9h-27.1V1223.6z M2355.9,1253.6h26.8v82.9h-26.8L2355.9,1253.6L2355.9,1253.6z"/>
			<path class="st1" d="M2353.6,1339.3V1251h31.6v88.3H2353.6z M2358.5,1334h21.8v-77.6h-21.8V1334z M2353.5,1247.2V1221h31.8v26.2     H2353.5z M2358.2,1241.9h22.4v-15.6h-22.4V1241.9z"/>
			<path class="st1" d="M2399.1,1253.7h26.8v11.8c6.6-8.5,16.9-13.4,27.6-13.3c20.2,0,32,11.8,32,30.8v53.6h-26.8v-46.3     c0-11.1-6-16.9-16.1-16.9s-16.7,5.8-16.7,16.9v46.3h-26.8L2399.1,1253.7z"/>
			<path class="st1" d="M2456.3,1339.3v-48.8c-0.3-9.8-4.5-13.8-13.7-14.2l0,0c-9.4,0.3-14,4.4-14.3,14.2l0,0v48.8h-31.6V1251h31.6     v8.2c6.8-6.4,15.8-9.9,25.1-9.8l0,0c9.3-0.5,18.4,2.8,25.2,9l0,0c6.3,6.5,9.6,15.3,9.3,24.4l0,0v56.5L2456.3,1339.3z      M2456.3,1275.9c3.6,4,5.4,9.3,5,14.6l0,0v43.9h21.8v-51.5c0-17.7-10.1-27.9-29.6-28.1l0,0c-10.2-0.2-19.9,4.4-26.2,12.5l0,0     l-4.2,4.9v-15.8h-21.8v77.6h21.8v-43.6c-0.3-5.4,1.7-10.7,5.4-14.6l0,0c3.8-3.4,8.8-5.1,13.8-4.9l0,0c4.9-0.2,9.8,1.5,13.4,4.9     L2456.3,1275.9L2456.3,1275.9z"/>
			<path class="st1" d="M2492.5,1325.6l11.4-15.4c8.8,5.9,19.1,9.3,29.7,9.8c7.7,0,11.3-2.5,11.3-6.2v-0.1c0-5.1-9.2-6.8-19.6-9.8     c-13.4-3.4-28.1-8.8-28.1-24.9v-0.3c0-16.9,15.5-26.3,34.5-26.3c12.4,0.2,24.5,3.5,35.1,9.8l-10.2,16.3     c-7.8-4.4-16.5-7.1-25.5-7.8c-6.5,0-9.8,2.5-9.8,5.8v0.3c0,4.6,9,6.8,19.1,9.8c13.2,3.8,28.5,9.4,28.5,24.4v0.3     c0,18.4-15.7,26.8-36.1,26.8C2518.6,1337.9,2504.5,1333.6,2492.5,1325.6L2492.5,1325.6z"/>
			<path class="st1" d="M2491.2,1327.9l1.3-2.3l1.9,1.7l-1.9-1.7L2491.2,1327.9l-2.3-1.6l14.4-19.5l1.8,1.2     c8.4,5.8,18.3,9.2,28.5,9.8l0,0c2.5,0.2,5.1-0.3,7.4-1.4l0,0c1.2-0.8,1.4-1.3,1.4-2.2l0,0v-0.6c0-0.4-0.8-1.8-4.2-3.2l0,0     c-3.3-1.3-8.2-2.4-13.4-3.8l0,0c-7-1.5-13.7-4.2-19.8-8.1l0,0c-6.6-4.3-10.4-11.7-10.3-19.5l0,0v-0.3c0-19.1,17.4-29,36.9-29l0,0     c12.8,0,25.3,3.4,36.3,9.8l0,0l2.4,1.4l-12.9,20.6l-1.9-1c-7.5-4.2-15.9-6.8-24.5-7.5l0,0c-2.1-0.2-4.2,0.3-6.1,1.3l0,0     c-1.1,0.8-1.2,1.2-1.3,1.8l0,0v0.3c0,0,0,0.3,0.7,1l0,0c1.1,0.8,2.2,1.5,3.5,2l0,0c3.3,1.4,8,2.7,13.1,4.3l0,0     c7,1.8,13.7,4.6,19.9,8.4l0,0c6.5,4.1,10.4,11.2,10.4,18.8l0,0v0.3c0.2,9.2-4.2,17.9-11.5,22.6l0,0c-8.1,4.9-17.4,7.3-26.8,6.9     l0,0c-14.9,0-29.5-4.5-41.8-12.9L2491.2,1327.9L2491.2,1327.9z M2533,1335.5c20.1,0,33.6-7.8,33.6-24.2l0,0v-0.3     c0-5.9-3.1-11.3-8.2-14.3l0,0c-5.8-3.5-12-6-18.5-7.6l0,0c-5.1-1.6-9.9-2.9-13.4-4.5l0,0c-3.6-1.6-7.1-3.5-7.3-8l0,0v-0.3     c0.2-5.7,5.5-8.4,12.3-8.4l0,0c8.6,0.6,17,3,24.6,7.1l0,0l7.5-11.9c-9.8-5.2-20.7-8-31.8-8.1l0,0c-8.1-0.3-16.2,2-23,6.4l0,0     c-5.7,3.9-9.1,10.4-9,17.3l0,0v0.3c-0.1,6.1,3,11.8,8.2,15l0,0c5.5,3.4,11.6,5.9,17.9,7.3l0,0c4.7,1.1,9.4,2.4,13.9,4l0,0     c3.7,1.5,7.3,3.5,7.5,8.2l0,0v0.3c0,2.8-1.5,5.4-4,6.8l0,0c-3,1.5-6.4,2.2-9.7,2l0,0c-10.3-0.4-20.3-3.6-29-9.2l0,0l-8.4,11.3     c11,6.9,23.8,10.5,36.8,10.6L2533,1335.5L2533,1335.5z"/>
			<path class="st1" d="M2580.7,1253.7h26.8v82.9h-26.8V1253.7z"/>
			<path class="st1" d="M2578.2,1339.3V1251h31.6v88.3H2578.2z M2583.1,1334h21.8v-77.6h-21.8V1334z"/>
			<path class="st1" d="M2624.3,1353l8.9-17.6c9.9,5,20.9,7.6,32,7.4c18.3,0,26.8-7.8,26.8-22.6v-4c-7.7,8.9-19,13.9-30.8,13.5     c-22,0-41.9-14.1-41.9-38.7v-0.3c0-24.8,20.3-38.7,41.9-38.7c11.4-0.4,22.5,4.2,30.4,12.4v-10.7h26.8v64.3     c0,14.6-4,25.7-11.9,32.7c-8.9,7.7-22.4,11.1-40.6,11.1C2651.6,1361.9,2637.4,1358.9,2624.3,1353L2624.3,1353z M2692.1,1291.1     v-0.3c0-11.3-10-19.2-23-19.2s-22.9,7.9-22.9,19.2v0.3c0,11.5,9.8,19.2,22.9,19.2S2692.1,1302.4,2692.1,1291.1L2692.1,1291.1     L2692.1,1291.1z"/>
			<path class="st1" d="M2623.3,1355.5l1-2.5l2.1,1.3l-2.1-1.3L2623.3,1355.5l-2.5-1.2l11.6-22.4l2.1,1c9.5,4.9,20.1,7.4,30.8,7.3     l0,0c16.9-0.4,23.5-5.9,24.4-17.9l0,0c-7.8,6.9-17.9,10.5-28.3,10.1l0,0c-22.8,0-44.3-14.9-44.3-41.4l0,0v-0.3     c0-26.6,21.8-41.3,44.3-41.4l0,0c10.2-0.3,20.1,3,28,9.5l0,0v-7.9h31.6v66.9c0,15.3-4.5,27.2-12.9,34.7l0,0     c-9.5,8.3-23.6,11.8-42.2,11.8l0,0C2651.2,1364.5,2636.7,1361.5,2623.3,1355.5L2623.3,1355.5z M2665.9,1359.1     c17.9,0,31-3.5,39.1-10.6l0,0c7.2-6.4,11-16.2,11-30.6l0,0v-61.6h-21.9v14.1l-4.1-4c-7.5-7.8-18-12.1-28.8-11.7l0,0     c-20.8,0-39.4,13.1-39.4,36l0,0v0.3c0,22.8,18.2,35.9,39.4,36l0,0c11.1,0.5,21.9-4.2,29.1-12.7l0,0l4.2-4.4v10.5     c0.4,7.2-2.4,14.2-7.7,19l0,0c-6.3,4.6-14,6.8-21.8,6.3l0,0c-10.7,0.1-21.2-2.2-30.8-6.8l0,0l-6.7,12.9c12.1,5,25.1,7.5,38.2,7.4     L2665.9,1359.1L2665.9,1359.1z M2643.8,1291.1v-0.3c0-13.3,11.5-21.8,25.3-21.9l0,0c13.8,0,25.5,8.6,25.5,21.9l0,0v0.3     c0,13.3-11.7,21.8-25.5,21.9l0,0C2655.3,1313,2643.8,1304.5,2643.8,1291.1L2643.8,1291.1z M2648.7,1290.8v0.3     c0,9.5,8.1,16.4,20.4,16.5l0,0c12.3,0,20.6-7.2,20.6-16.5l0,0v-0.3c0-9.3-8.4-16.4-20.6-16.5l0,0     C2656.9,1274.2,2648.7,1281.4,2648.7,1290.8L2648.7,1290.8L2648.7,1290.8z"/>
			<path class="st1" d="M2733.6,1223.6h26.8v41.8c6.6-8.5,16.8-13.4,27.6-13.3c20.2,0,32,11.8,32,30.8v53.6h-26.8v-46.3     c0-11.1-6-16.9-16.2-16.9s-16.7,5.8-16.7,16.9v46.3h-26.8L2733.6,1223.6L2733.6,1223.6z"/>
			<path class="st1" d="M2790.8,1339.3v-48.8c-0.3-9.8-4.5-13.8-13.7-14.2l0,0c-9.4,0.3-14,4.4-14.3,14.2l0,0v48.8h-31.6V1221h31.8     v38.3c6.8-6.4,15.8-9.9,25.2-9.8l0,0c9.3-0.5,18.4,2.8,25.2,9l0,0c6.3,6.5,9.6,15.3,9.2,24.4l0,0v56.5L2790.8,1339.3z      M2790.8,1275.9c3.5,4,5.3,9.3,5,14.6l0,0v43.9h21.9v-51.5c-0.2-17.7-10.2-27.8-29.6-28.1l0,0c-10.1-0.2-19.7,4.5-25.9,12.5l0,0     l-4.2,4.9v-45.8h-22v107.7h21.8v-43.6c-0.3-5.4,1.6-10.7,5.3-14.6l0,0c3.8-3.4,8.8-5.1,13.8-4.9l0,0c4.9-0.3,9.8,1.5,13.4,4.9     L2790.8,1275.9z"/>
			<path class="st1" d="M2839,1313.1v-39.3h-11.3v-20.1h11.3v-21.2h26.8v21.2h22.2v20.1h-22.2v35.4c0,5.4,2.6,8,8.6,8     c4.6,0,9.1-1,13.2-2.9v18.7c-6.5,3.4-13.8,5-21.1,4.9C2849.9,1337.9,2839,1332.3,2839,1313.1L2839,1313.1z"/>
			<path class="st1" d="M2866.2,1340.7c-7.5,0.5-15-1.5-21.3-5.8l0,0c-6.1-5.5-9.3-13.6-8.6-21.8l0,0v-36.7h-11.3V1251h11.3v-21.2     h31.6v21.2h22.4v25.5H2868v32.8c0.4,4.2,0.8,4.9,6.2,5.4l0,0c4.2,0.1,8.4-0.9,12.2-2.7l0,0l3.4-1.7v24.7l-1.4,0.7     c-6.8,3.4-14.4,5.1-22.1,4.9l0,0L2866.2,1340.7L2866.2,1340.7z M2841.2,1313.1c0.3,17.7,8.9,21.8,25,22.3l0,0     c6.4,0.1,12.8-1.2,18.7-3.8l0,0v-13.1c-3.5,1.2-7.1,1.8-10.7,1.8l0,0c-3,0.2-5.9-0.8-8.1-2.7l0,0c-2.1-2.1-3.1-5-2.9-8l0,0v-38.4     h22.4v-14.6h-22.4v-21.3h-21.8v21.2H2830v14.6h11.3v42.1L2841.2,1313.1z"/>
			<rect x="2580.4" y="1223.6" class="st1" width="27.1" height="20.9"/>
			<polygon class="st1" points="2578.1,1247.2 2578.1,1223.6 2578.1,1221 2610,1221 2610,1247.2 2578.1,1247.2    "/>
			<polygon class="st1" points="2582.8,1241.9 2605.2,1241.9 2605.2,1226.3 2582.8,1226.3 2582.8,1241.9    "/>
		</g>
	</g>
</g>
</svg>