<?xml version="1.0" ?>
<!-- Generator: Adobe Illustrator 16.0.0, SVG Export Plug-In . SVG Version: 6.00 Build 0)  -->
<!DOCTYPE svg
  PUBLIC '-//W3C//DTD SVG 1.1//EN'
  'http://www.w3.org/Graphics/SVG/1.1/DTD/svg11.dtd'>
<svg xmlns="http://www.w3.org/2000/svg" xmlns:xlink="http://www.w3.org/1999/xlink" version="1.1" id="Layer_1" x="0px" y="0px" viewBox="0 0 450 345" enable-background="new 0 0 450 345" xml:space="preserve">
	<rect x="-50.5" y="-19.445" fill="#FFFFFF" width="551" height="383.673"/>
	<g id="Layer_1_1_" display="none">
		<path display="inline" fill="#1A191D" d="M187.697,297.777h-0.431l-0.216-0.215v-3.02h0.432c1.725,0,3.234-1.294,3.234-2.804   c0-0.216,0-0.216,0-0.431c0-0.647-0.216-1.295-0.647-1.727c-0.647-0.646-1.509-0.861-2.372-0.861h-2.803   c-0.215,0-0.646,0.215-0.646,0.432l0,0c0,0.216,0.215,0.431,0.431,0.431h0.431c0.216,0,0.216,0,0.216,0.433v7.762h-0.216   c-0.216,0-0.431,0.217-0.431,0.432c0,0.216,0.431,0.432,0.647,0.432l0,0h2.156c0.215,0,0.646-0.216,0.646-0.432l0,0   C188.128,297.994,187.913,297.777,187.697,297.777z M187.05,290.016L187.05,290.016c0.647,0,1.078,0,1.51,0.433   c0.431,0.431,0.646,0.862,0.646,1.509c0,0.861-0.646,1.51-1.509,1.51h-0.215h-0.432V290.016L187.05,290.016z M190.931,296.7   c-0.647,0-1.078,0.431-1.078,0.862c0,0,0,0,0,0.215c0,0.646,0.431,1.078,1.078,1.078c0.431,0.217,1.294,0,1.509-0.646   c0.216-0.432,0-1.078-0.431-1.509C191.578,296.7,191.362,296.7,190.931,296.7z M196.106,288.938h-2.156   c-0.216,0-0.647,0.217-0.647,0.433l0,0c0,0.215,0.215,0.431,0.431,0.431h0.216c0.215,0,0.215,0,0.215,0.432v6.037   c0,3.02-0.431,3.451-1.078,4.098c-0.215,0.216-0.215,0.216-0.431,0.216c-0.216,0-0.431,0.216-0.431,0.433   c0,0.215,0.215,0.43,0.431,0.43h0.216c0.215,0,0.215,0,0.431-0.215c0.862-0.432,1.509-1.078,1.94-1.94   c0.431-1.078,0.647-2.371,0.431-3.665v-5.391c0-0.217,0-0.433,0.216-0.433h0.216c0.215,0,0.431-0.216,0.431-0.431   C196.753,289.152,196.538,288.938,196.106,288.938z M196.106,289.8L196.106,289.8z M198.694,296.7   c-0.647,0-1.078,0.431-1.078,0.862c0,0,0,0,0,0.215c0,0.646,0.431,1.078,1.078,1.078c0.431-0.215,0.647-1.078,0.431-1.51   C198.909,297.131,198.909,296.916,198.694,296.7z M204.3,292.818l-0.431-0.215c-0.647-0.433-1.078-1.078-1.293-1.727   c0-0.646,0.431-1.078,0.862-1.078c0,0,0,0,0.216,0c0.431,0,0.862,0,1.078,0.432c0,0.217,0,0.217,0.215,0.432   c0,0.216,0.216,0.432,0.431,0.432c0.216,0,0.432,0,0.432-0.646v-1.294c0-0.217-0.216-0.432-0.432-0.432h-0.431   c-0.431,0-0.647-0.217-1.078-0.217c-1.293-0.215-2.587,0.863-2.803,2.156c0,0,0,0,0,0.216c0,1.078,0.647,2.156,1.725,2.804   l0.431,0.432c0.647,0.432,1.078,1.078,1.294,1.726c0,0.646-0.431,1.293-1.294,1.293l0,0c-0.646,0-1.078-0.215-1.293-0.862v-0.431   c0-0.216-0.216-0.432-0.431-0.432c-0.216,0-0.432,0.216-0.432,0.432l0,0l0,0v0.216l0,0v1.077c0,0.433,0.216,0.647,0.432,0.863   c0.431,0.215,1.078,0.431,1.725,0.431c1.51,0,3.019-1.294,3.019-2.803l0,0C206.025,294.76,205.378,293.466,204.3,292.818z    M208.397,296.7c-0.647,0-1.078,0.431-1.078,0.862c0,0,0,0,0,0.215c0,0.646,0.431,1.078,1.078,1.078s1.078-0.432,1.078-0.861   c0,0,0,0,0-0.217C209.475,297.131,209.044,296.7,208.397,296.7z M218.531,295.838c-0.216,0-0.431,0-0.431,0.215v0.217   c0,0.432-0.216,0.646-0.431,0.861c-0.432,0.432-1.078,0.432-1.725,0.432c-2.156,0-3.881-1.725-3.881-3.881l0,0   c0-1.078,0.216-1.94,0.862-2.804c0.647-0.431,1.51-0.646,2.372-0.646c0.862,0,1.509,0.216,2.156,0.646   c0.216,0.216,0.431,0.433,0.431,0.862c0,0.216,0.216,0.646,0.431,0.646l0,0c0.216,0,0.432,0,0.432-0.646v-1.725   c0-0.217-0.216-0.433-0.432-0.433c-0.431,0-0.646,0-1.078-0.215l0,0c-0.431,0-1.078-0.216-1.725-0.216   c-1.51-0.217-2.803,0.431-3.881,1.293c-0.863,0.863-1.509,2.156-1.509,3.449c0,1.295,0.431,2.805,1.509,3.666   c1.078,0.862,2.587,1.295,4.097,1.295c0.647,0,1.509,0,2.156-0.217c0.216-0.216,0.431-0.432,0.431-0.646   c0.216-0.433,0.216-1.078,0.216-1.511C218.962,296.053,218.747,295.838,218.531,295.838z M223.275,294.975h4.313v-1.725h-4.313   V294.975z M238.152,293.25c0,0.216-0.215,0.432-0.432,0.646l-0.216,0.215h2.804l-0.216-0.215c0-0.215,0-0.215-0.216-0.432   c-0.216-0.646-0.432-1.078-0.861-1.727c-0.646-0.646-1.295-0.861-2.156-0.861c-0.862,0-1.726,0.216-2.156,0.861   c-0.646,0.647-0.862,1.511-0.862,2.373c0,0.861,0.216,1.51,0.646,2.156c-0.646,0-1.293,0.215-1.725,0.432   c-0.432,0.216-0.861,0.646-0.861,1.294c0,0.646,0.215,1.077,0.646,1.509c0.862,0.862,1.94,1.294,3.019,1.078   c1.078,0,1.94-0.432,2.805-1.078c0.431-0.216,0.646-0.646,0.646-1.078l0.215-0.216h-1.726c0,0.216-0.215,0.216-0.431,0.216   c-0.432,0.217-1.078,0.432-1.51,0.432c-0.646,0-1.295-0.215-1.94-0.432l-0.216-0.216c0-0.215,0-0.215,0.216-0.215   c0.433-0.216,1.078-0.216,1.51-0.216h4.743v-1.727l-0.216,0.217c-0.216,0.215-0.646,0.432-0.862,0.432h-1.939   c-0.433,0-0.862-0.217-1.078-0.647c-0.217-0.431-0.432-1.077-0.432-1.725c0-0.433,0.215-1.078,0.432-1.511   c0.216-0.431,0.646-0.431,1.078-0.431c0.432,0,0.861,0.216,1.078,0.646l0,0C238.152,292.818,238.152,293.034,238.152,293.25   L238.152,293.25z M241.818,296.27c-0.432,0-0.862,0.432-0.862,0.861c0,0.432,0.433,0.863,0.862,0.863   c0.432,0,0.863-0.432,0.863-0.863l0,0C242.682,296.7,242.25,296.27,241.818,296.27L241.818,296.27z M247.855,290.878   c-0.861,0-1.51,0.216-2.155,0.862c-0.433,0.646-0.862,1.294-0.862,2.156v2.804c0,0.431,0,2.155-1.294,2.155h-0.216v1.726h0.216   c1.509,0,3.019-1.294,3.019-2.804l0,0v-0.215h1.51c0.863,0,1.51-0.433,2.156-0.862c0.646-0.647,0.862-1.511,0.862-2.372   c0.216-1.725-1.294-3.234-3.019-3.45H247.855L247.855,290.878z M247.855,296.7h-1.293v-1.94c-0.217-1.078,0.432-1.941,1.51-2.156   c0.861,0.215,1.509,0.862,1.293,1.726c0,0,0,0,0,0.216C249.581,295.622,248.936,296.484,247.855,296.7L247.855,296.7L247.855,296.7   z M252.385,296.27c-0.432,0-0.863,0.432-0.863,0.861c0,0.432,0.433,0.863,0.863,0.863c0.432,0,0.862-0.432,0.862-0.863l0,0   C253.247,296.7,252.814,296.27,252.385,296.27L252.385,296.27z M261.225,290.447c0.433,0,0.863-0.432,0.863-0.863   c0-0.215,0-0.432-0.216-0.432h0.431c0,0.217-0.215,0.217-0.215,0.432c0,0.432,0.432,0.863,0.862,0.863s0.862-0.432,0.862-0.863   s-0.433-0.861-0.862-0.861l0,0h-0.216c0-0.217,0.216-0.217,0.216-0.432c0-0.432-0.433-0.863-0.862-0.863   c-0.432,0-0.863,0.432-0.863,0.863c0,0.215,0,0.432,0.217,0.432h-0.217c-0.431,0-0.861,0.432-0.861,0.861   C260.361,290.016,260.794,290.447,261.225,290.447L261.225,290.447z M265.105,296.7v-4.528c0-0.216,0.217-0.432,0.217-0.646   l0.215-0.215h-7.547l0.216,0.215c0.216,0.216,0.216,0.646,0.433,0.863v4.742c0,0.432-0.217,1.078-0.433,1.51   c-0.216,0.433-0.646,0.433-1.078,0.433c-0.431,0-0.862-0.216-1.078-0.647c-0.216-0.431-0.431-1.078-0.431-1.509v-4.744   c0-0.216,0.215-0.646,0.431-0.862l0.216-0.215h-2.803l0.215,0.215c0.217,0.217,0.432,0.646,0.432,0.862s0.217,0.646,0.217,0.862   v4.96c0,0.646,0.216,1.509,0.861,1.94c0.433,0.646,1.295,0.861,1.94,0.861h0.216c0.646,0,1.51-0.216,1.94-0.861   c0.647-0.433,0.862-1.295,0.862-1.94v-0.216h5.391l-0.215-0.217C265.322,297.348,265.105,296.916,265.105,296.7L265.105,296.7z    M261.225,296.7h-1.078v-3.45c0-0.216,0-0.646,0.217-0.861c0-0.217,0.216-0.647,0.432-0.863v-0.432l0,0   c0.217,0.217,0.432,0.646,0.432,0.862s0.215,0.647,0.215,0.862v3.666L261.225,296.7L261.225,296.7z M263.381,296.7h-0.646v-3.45   c0-0.216,0-0.646,0.217-0.861c0-0.217,0.216-0.433,0.216-0.647c0.215,0.216,0.215,0.432,0.215,0.647L263.381,296.7L263.381,296.7   L263.381,296.7z"/>
		<g id="Icon" display="inline">
			<linearGradient id="SVGID_1_" gradientUnits="userSpaceOnUse" x1="3301.5176" y1="-2336.1211" x2="3364.2256" y2="-2336.1211" gradientTransform="matrix(1.9406 -0.9488 0.9488 1.9406 -4004.8838 7808.3833)">
				<stop offset="0" style="stop-color:#034B70"/>
				<stop offset="1" style="stop-color:#179BD7"/>
			</linearGradient>
			<path fill="url(#SVGID_1_)" d="M191.794,97.247v79.134h66.412l-0.216-79.134c0-22.209-12.938-42.263-33.206-51.104    C204.731,55.416,191.794,75.469,191.794,97.247L191.794,97.247z M171.741,97.247c0-33.207,21.563-62.531,53.259-72.666    c31.697,9.919,53.26,39.244,53.26,72.666v0.215l0.215,98.972h-106.95L171.741,97.247L171.741,97.247z"/>
		</g>
		<path display="inline" fill="#1A191D" d="M93.253,253.791c-0.215,0-0.431,0-0.431,0.215h-10.35c-0.431,0-0.862,0.217-0.862,0.432   c0,0.217,0,0.217,0,0.433c0,0.215,0.216,0.646,0.431,0.646c0,0,0,0,0.216,0h0.862c0.431,0,0.863,0.646,0.647,1.078l0,0v10.35   c0,1.941,0,3.666-0.216,5.606c0,0.433,0,0.862-0.431,1.078h-0.647c-0.431,0-0.646,0.216-0.646,0.647c0,0.215,0,0.646,0.862,0.646   h5.822c0.431,0,0.863-0.216,0.863-0.646l0,0c0-0.433-0.216-0.647-0.863-0.647h-1.078c-0.215,0-0.431,0-0.431-1.078   c-0.216-1.94-0.216-3.665-0.216-5.606v-1.939h3.45c0.431,0,0.862,0.217,0.862,0.646l0,0c0,0.216,0.216,0.646,0.216,0.863l0,0   c0,0.215,0.216,0.43,0.216,0.646c0,0.215,0.215,0.216,0.431,0.216c0.431,0,0.647-0.432,0.647-1.078v-1.725   c0-0.432,0.215-0.647,0.215-1.078l0,0v-0.432c0-0.433-0.215-0.646-0.647-0.646c-0.215,0-0.646,0.215-0.646,0.432l0,0l0,0   c-0.216,0.215-0.216,0.215-0.863,0.215h-4.097v-6.899h3.666c0.431,0,0.862,0.216,1.294,0.433l0,0c0,0.215,0.215,0.432,0.215,0.646   c0,0.432,0.216,0.862,0.647,0.862l0,0c0.431,0,0.647-0.215,0.647-0.646l0,0v-1.294l0,0v-0.431c0-0.217,0-0.647,0.215-0.862v-0.433   C94.116,254.006,93.685,253.791,93.253,253.791z M108.347,273.844h-1.078c-0.431,0-0.431-0.216-0.646-1.078   c-0.216-1.939-0.216-3.666-0.216-5.605v-10.564c0-0.433,0-0.863,0.431-1.078h0.431c0.216,0,0.647-0.217,0.647-0.433   c0,0,0,0,0-0.215c0-0.433-0.215-0.863-0.647-0.863h-0.215h-5.391c-0.431,0-0.863,0.216-0.863,0.647v0.216   c0,0.215,0.216,0.646,0.432,0.646c0,0,0,0,0.215,0h0.647c0.216,0,0.431,0.217,0.431,1.078v16.172c0,0.433-0.215,0.862-0.431,1.078   h-0.647c-0.431,0-0.647,0.217-0.647,0.646c0,0.216,0,0.646,0.863,0.646h5.822c0.431,0,0.862-0.216,0.862-0.646l0,0   C109.209,274.275,108.994,273.844,108.347,273.844z M102.525,273.844L102.525,273.844z M137.241,254.006h-4.959   c-0.647,0-1.078,0.217-1.078,0.646c0,0.217,0.216,0.646,0.431,0.646c0,0,0,0,0.216,0c0.431,0,0.647,0,1.078,0.217   c0.431,0,0.647,0.215,0.647,1.939c0,0,0.215,8.625,0.215,12.074c-0.215-0.432-0.647-0.861-1.078-1.077l0,0l-4.313-4.528   c-3.881-4.097-7.978-8.625-8.409-9.056l-0.216-0.216c-0.215-0.432-0.647-0.647-1.078-0.862c-0.862,0-0.862,1.078-0.862,1.94v15.523   c0.215,0.863,0,1.941-0.431,2.805c-0.216,0-0.647,0.215-0.863,0.215c-0.431,0-0.862,0.215-0.862,0.646l0,0   c0,0.432,0.215,0.646,0.862,0.646h4.959c0.862,0,1.078-0.432,1.078-0.646c0-0.432-0.216-0.646-0.647-0.646   c-0.431,0-0.647,0-1.078-0.215c-0.215,0-0.647-0.217-0.647-2.589c0,0-0.215-7.978-0.215-11.212l5.822,6.469   c2.803,3.02,6.685,6.899,6.9,7.332c0.647,0.861,1.509,1.508,2.372,1.939c0.862,0,0.862-0.646,0.862-2.372v-15.74   c0-1.726,0.216-1.726,0.647-1.94h0.431c0.431,0,0.863-0.215,0.863-0.646l0,0C138.319,254.438,138.103,254.006,137.241,254.006z    M162.9,273.844c-0.215,0-0.647,0-0.862-0.216c-0.431,0-1.078-0.216-1.941-2.587c-1.293-3.02-3.881-9.919-5.175-14.016   l-0.862-2.373c-0.216-0.861-0.432-1.293-1.078-1.293c-0.647,0-0.863,0.432-1.078,1.293l0,0c-0.216,0.217-0.647,1.94-6.038,16.818   c-0.216,1.078-0.863,1.727-1.725,2.156h-0.647c-0.431,0-0.647,0.216-0.647,0.646c0,0.432,0.216,0.646,1.078,0.646h4.959   c0.431,0,0.863-0.216,0.863-0.646l0,0c0-0.432-0.216-0.646-0.863-0.646h-0.215c-0.216,0-0.432,0-0.432-0.216   c0-0.431,0.216-1.078,0.432-1.509l0,0l1.509-4.528h5.175l2.372,6.253l0,0c-0.216,0.216-0.431,0.432-0.431,0.646   c0,0.646,0.646,0.646,1.293,0.646h4.097c0.862,0,1.078-0.432,1.078-0.646C163.547,274.49,163.547,273.844,162.9,273.844z    M150.394,265.219l1.941-5.605c0.215,0.861,0.862,2.588,1.94,5.605H150.394L150.394,265.219z M188.344,254.006h-4.959   c-0.647,0-1.078,0.217-1.078,0.646c0,0.217,0.216,0.646,0.431,0.646c0,0,0,0,0.216,0c0.431,0,0.862,0,1.294,0.217   c0.215,0,0.646,0.215,0.646,1.939l0.216,12.074c-0.431-0.432-0.862-1.077-1.509-1.725l-3.881-4.098   c-3.881-4.313-7.763-8.625-8.194-9.057l0,0l-0.215-0.215c-0.216-0.433-0.647-0.646-1.078-0.646c-0.863,0-0.863,1.078-0.863,1.939   v15.524c0.216,0.863,0,1.94-0.431,2.804c-0.216,0.217-0.647,0.217-0.862,0.217c-0.216,0-0.647,0.215-0.647,0.431c0,0,0,0,0,0.216   c0,0.432,0.215,0.646,0.862,0.646h5.391c0.863,0,1.078-0.432,1.078-0.646s-0.215-0.646-0.862-0.646c-0.431,0-0.647,0-1.078-0.215   c-0.216,0-0.647-0.217-0.647-2.589c0,0-0.216-7.763-0.216-11.212c1.294,1.51,3.45,3.881,5.822,6.469   c2.803,3.02,6.684,6.899,6.9,7.332c1.509,1.725,1.725,1.939,2.372,1.939c0.647,0,0.863-0.646,0.863-2.372v-15.74   c0-1.726,0.215-1.726,0.647-1.94h0.431c0.431,0,0.647-0.215,0.862-0.646C189.853,254.652,189.206,254.006,188.344,254.006   L188.344,254.006z M214.435,269.531c-0.432,0-0.863,0.432-0.863,0.861c0,0.647-0.431,1.295-0.862,1.94   c-1.078,0.862-2.587,1.294-4.097,1.078c-2.372,0-4.744-1.078-6.469-2.804c-1.509-1.725-2.587-4.097-2.587-6.469   c-0.215-2.371,0.431-4.744,2.156-6.469c1.509-1.294,3.666-1.939,5.606-1.725c1.725,0,3.45,0.431,4.959,1.293   c0.646,0.646,0.862,1.51,0.862,2.371c0,0.433,0,1.078,0.647,1.078s0.647-0.646,0.862-1.078v-4.31c0-0.431-0.215-0.862-0.647-0.862   c0,0,0,0-0.215,0c-0.863,0-1.725-0.215-2.587-0.432l0,0c-1.725-0.215-3.45-0.431-3.881-0.431c-3.019-0.216-6.038,0.862-8.41,3.019   c-1.94,1.94-3.019,4.744-3.019,7.547c-0.216,3.02,1.078,6.254,3.45,8.193c2.587,2.156,5.822,3.234,9.056,3.02   c1.725,0,3.45-0.215,4.959-0.646c0.646-0.216,0.862-0.432,1.078-1.078c0.215-1.294,0.431-2.372,0.646-3.665   C215.081,269.531,214.435,269.531,214.435,269.531L214.435,269.531z M234.057,270.609c-0.432,0-0.863,0.432-0.863,0.861   c0,0.647-0.215,1.295-0.861,1.51c-0.861,0.217-1.509,0.217-2.372,0.217c-2.371,0-2.371-0.217-2.587-1.727v-3.234l0,0v-3.019   c1.078,0,2.372,0,3.45,0.216c0.862,0,0.862,0.432,0.862,0.646v0.646c0,0.432,0.215,0.646,0.646,0.862   c0.433,0,0.647-0.432,0.647-1.078v-1.726c0-0.432,0.215-0.646,0.215-1.078v-0.646c0-0.432-0.215-0.646-0.646-0.646   c-0.431,0-0.646,0.215-0.861,0.431l0,0c0,0.217-0.217,0.217-0.862,0.217h-3.666v-6.9h3.233c0.646,0,1.078,0.216,1.51,0.646   c0,0.217,0.216,0.432,0.216,0.646c0,0.432,0.216,0.861,0.647,0.861l0,0c0.43,0,0.646-0.215,0.646-0.861v-1.725   c0-0.217,0-0.647,0.216-0.862v-0.433c0-0.432-0.216-0.861-0.646-0.861l0,0c-0.215,0-0.432,0-0.432,0.216l0,0   c-0.432,0-0.646,0-1.078,0.215h-9.056c-0.431-0.215-0.863,0.216-1.078,0.647v0.216c0,0.431,0.431,0.646,0.862,0.646l0,0h0.863   c0.431,0,0.862,0.646,0.646,1.078l0,0v10.35c0,1.941,0,3.666-0.215,5.606c0,0.433-0.216,0.862-0.431,1.078h-0.647   c-0.431,0-0.647,0.216-0.647,0.647c0,0.215,0,0.646,0.862,0.646h3.45c1.078,0,2.803,0.216,5.391,0.216c1.078,0,1.725,0,1.94-1.078   c0.216-0.861,0.432-1.939,0.432-2.804C234.919,270.825,234.486,270.609,234.057,270.609L234.057,270.609z M275.456,273.844h-1.078   c-0.431,0-0.431-0.216-0.646-1.078c-0.217-1.939-0.217-3.666-0.217-5.605v-10.564c-0.216-0.433,0.217-0.863,0.646-1.078l0,0h0.646   c0.432,0,0.862-0.217,0.862-0.646l0,0c0-0.432-0.216-0.863-0.646-0.863h-0.217h-5.391c-0.432,0-0.861,0.217-0.861,0.646v0.217   c0,0.431,0.215,0.646,0.646,0.646h0.862c0.646,0.215,0.646,0.215,0.646,1.078v5.821H259.93v-5.821c0-0.863,0.215-1.078,0.646-1.078   h0.432c0.215,0,0.646-0.217,0.646-0.433c0,0,0,0,0-0.215c0-0.433-0.217-0.863-0.646-0.863h-0.216h-5.606   c-0.432,0-0.861,0.216-0.861,0.647v0.216c0,0.215,0.216,0.646,0.431,0.646c0,0,0,0,0.216,0h0.862c0.433,0,0.862,0.646,0.647,1.078   l0,0v10.35c0,1.941,0,3.666-0.217,5.606c0,0.433-0.216,0.862-0.432,1.078h-0.646c-0.432,0-0.646,0.216-0.646,0.647   c0,0.431,0.431,0.646,0.862,0.646l0,0h5.605c0.432,0,0.862-0.216,1.078-0.646c0-0.433-0.216-0.647-0.863-0.647h-1.078   c-0.215,0-0.431,0-0.646-1.078c-0.216-1.94-0.216-3.665-0.216-5.606v-2.37h10.351v2.37c0,1.941,0,3.666-0.216,5.606   c0,0.433,0,0.647-0.216,1.078h-0.646c-0.217,0-0.647,0.216-0.647,0.433c0,0,0,0,0,0.215c0,0.216,0,0.646,0.862,0.646h5.821   c0.433,0,0.862-0.216,1.078-0.646C276.104,274.275,275.889,273.844,275.456,273.844L275.456,273.844z M269.635,273.844   L269.635,273.844z M292.922,253.575c-3.234,0-6.253,1.294-8.408,3.881c-1.511,1.94-2.589,4.528-2.589,7.116   c0,2.587,0.862,5.391,2.589,7.33c1.939,2.373,4.959,3.882,8.192,3.666c3.019,0,6.038-1.293,7.979-3.449   c1.94-2.156,3.019-4.96,3.019-7.979c0-2.804-1.078-5.606-3.019-7.764C298.527,254.438,295.725,253.575,292.922,253.575z    M297.666,272.119c-1.078,0.861-2.588,1.509-4.098,1.509c-2.156,0-4.313-0.862-5.605-2.587c-1.727-1.941-2.588-4.527-2.372-7.116   c-0.216-2.155,0.646-4.528,1.94-6.253c1.294-1.294,3.234-1.939,5.175-1.939s3.882,0.861,5.175,2.371   c1.51,1.94,2.372,4.313,2.372,6.899C300.686,267.591,299.605,270.178,297.666,272.119z M329.362,254.006h-5.175   c-0.433,0-0.862,0.217-0.862,0.432c0,0.217,0,0.217,0,0.433c0,0.215,0.216,0.646,0.431,0.646c0,0,0,0,0.216,0h0.862   c0.432,0,0.863,0.646,0.647,1.078l0,0v8.842c0.216,2.155-0.217,4.313-1.511,6.252c-0.861,1.078-2.155,1.726-3.665,1.726   c-1.294,0-2.588-0.431-3.666-1.293c-0.861-0.863-1.725-2.156-1.725-6.254v-9.271c0-0.863,0.215-1.078,0.431-1.078h0.647   c0.215,0,0.646-0.217,0.646-0.433c0,0,0,0,0-0.215c0-0.433-0.216-0.863-0.646-0.863h-0.216h-5.606   c-0.432,0-0.862,0.216-0.862,0.647v0.216c0,0.215,0.217,0.646,0.432,0.646c0,0,0,0,0.216,0h0.862c0.432,0,0.862,0.646,0.646,1.078   l0,0v9.487c0,4.528,1.294,6.253,2.372,7.331c1.726,1.294,3.665,1.941,5.821,1.941s4.313-0.647,5.822-2.156   c2.371-1.941,2.587-5.391,2.587-8.41v-8.409c0-0.862,0.216-1.078,0.646-1.078h0.646c0.432,0,0.646-0.216,0.861-0.646   C330.225,254.223,329.794,254.006,329.362,254.006z M315.563,255.516L315.563,255.516z M344.24,262.848L344.24,262.848   c-0.215-0.217-0.432-0.432-0.646-0.646c-2.588-2.156-3.019-2.805-3.019-4.098s1.078-2.588,2.372-2.588h0.215   c1.078-0.216,2.156,0.217,2.804,1.078c0,0.217,0.216,0.862,0.216,1.078l0,0c0,0.432,0.215,0.646,0.646,0.646   c0.646,0,0.646-0.862,0.646-1.078v-2.588l0,0v-0.215c0-0.433-0.215-0.646-0.86-0.646c-0.218,0-0.647,0-0.863-0.216   c-0.862-0.216-1.725-0.216-2.588-0.216c-1.509,0-3.234,0.432-4.313,1.51s-1.725,2.371-1.725,3.881c0,1.939,0.646,3.666,3.666,6.253   l1.078,0.862c2.371,1.941,2.803,2.804,2.803,4.313c0,0.647-0.215,1.51-0.862,1.941c-0.646,0.646-1.509,0.861-2.372,0.861   c-1.51,0.217-3.019-0.861-3.448-2.371v-0.862c0-0.433-0.218-0.862-0.647-0.862l0,0c-0.431,0-0.646,0.432-0.646,0.862l0,0l0,0v2.803   c-0.216,0.647,0,1.294,0.646,1.511c1.078,0.431,2.372,0.861,3.665,0.861c1.51,0,3.021-0.432,4.313-1.294   c1.51-1.078,2.373-2.803,2.373-4.743C348.122,267.375,347.475,265.436,344.24,262.848z M367.959,270.609   c-0.431,0-0.862,0.432-0.862,0.861c0,0.647-0.216,1.295-0.861,1.51c-0.862,0.217-1.511,0.217-2.372,0.217   c-2.372,0-2.372-0.217-2.372-1.727v-6.253c1.078,0,2.156,0,3.233,0.216c0.863,0,0.863,0.432,0.863,0.646v0.646   c0,0.432,0.215,0.862,0.646,0.862l0,0c0.432,0,0.646-0.216,0.646-1.077v-1.727c0-0.432,0-0.862,0.216-1.078v-0.646   c0-0.432-0.216-0.646-0.646-0.646c-0.216,0-0.433,0.215-0.647,0.431v0.217c-0.215,0.215-0.646,0.215-0.861,0.215h-3.665v-6.899   h3.233c0.646,0,1.078,0.216,1.509,0.647c0,0.215,0.217,0.431,0.217,0.646c0,0.433,0.216,0.862,0.646,0.862l0,0   c0.433,0,0.647-0.217,0.647-0.862v-0.862l0,0v-0.861c0-0.217,0-0.647,0.216-0.863v-0.432c0-0.432-0.216-0.646-0.647-0.861   c-0.216,0-0.431,0-0.431,0.215h-9.919c-0.432,0-1.078,0.217-1.078,0.863l0,0c0,0.431,0.431,0.646,0.862,0.646l0,0h0.861   c0.433,0,0.862,0.646,0.647,1.077l0,0v10.351c0,1.94,0,3.666-0.216,5.605c0,0.432,0,0.646-0.216,1.078h-0.646   c-0.432,0-0.646,0.216-0.646,0.646c0,0.216,0,0.646,0.861,0.646h3.45c1.078,0,2.804,0.217,5.391,0.217c1.078,0,1.727,0,1.94-1.078   c0.216-0.863,0.432-1.94,0.432-2.805c0.217-0.215,0-0.646-0.216-0.861C368.175,270.609,367.959,270.609,367.959,270.609   L367.959,270.609z"/>
		<path display="inline" fill="#1A191D" d="M169.153,239.775c-1.294,0-2.372,0.861-2.588,1.939c-0.431-1.078-1.293-1.939-2.587-1.939   c-1.509,0-2.587,1.078-2.803,2.586c0,1.511,1.294,2.589,2.803,2.589l0,0c1.294,0,2.372-0.862,2.587-1.94   c0.432,1.078,1.294,1.94,2.588,1.94c1.509,0,2.803-1.078,2.803-2.589l0,0C171.741,240.854,170.663,239.775,169.153,239.775z    M172.603,237.619c-0.431-0.646-0.647-1.078-0.862-1.727c-0.216-0.646-0.216-1.509-0.216-2.156V227.7c0-0.647,0-1.511,0.216-2.156   c0.215-0.647,0.431-1.294,0.862-1.726l0.431-0.646h-6.684l0.431,0.646c0.431,0.432,0.647,1.078,0.862,1.726   c0.216,0.646,0.216,1.509,0.216,2.156v7.763H96.487v-15.311c0-0.646,0-1.51,0.216-2.155c0.216-0.647,0.431-1.294,0.862-1.726   l0.432-0.646h-6.685l0.431,0.646c0.431,0.432,0.647,1.078,0.863,1.726c0.215,0.646,0.215,1.509,0.215,2.155v16.604   c0,1.294-0.215,2.588-0.862,3.666c-0.431,0.862-1.509,1.294-2.372,1.294c-1.078,0-1.94-0.432-2.587-1.294   c-0.647-1.078-1.078-2.372-0.862-3.666v-1.509h-3.666v3.665c0,1.727,0.647,3.449,1.941,4.527c1.293,1.295,3.019,1.94,4.959,1.94   h0.431c1.94,0,3.666-0.646,4.959-1.94c1.293-1.078,1.94-2.803,1.94-4.527v-0.432h76.547L172.603,237.619z M290.766,217.997   c0.217-0.647,0.433-1.294,0.862-1.726l0.433-0.646h-6.686l0.432,0.646c0.432,0.432,0.646,1.078,0.862,1.726   c0.216,0.646,0.216,1.509,0.216,2.155v15.524H273.3v-7.762c0-0.647,0-1.51,0.216-2.156c0.217-0.647,0.433-1.294,0.862-1.726   l0.433-0.646h-6.686l0.432,0.646c0.432,0.646,0.646,1.078,0.862,1.726c0.216,0.646,0.216,1.509,0.216,2.156v7.762h-14.447v-4.959   c0-3.881-3.019-7.331-7.114-7.331c-0.216,0-0.216,0-0.433,0c-1.939,0-3.881,0.862-5.391,2.156c-1.294,1.294-1.939,3.02-1.939,4.959   v5.391h-45.498v-5.391c0-1.939-0.647-3.665-1.94-4.959c-1.294-1.51-3.234-2.156-5.175-2.156c-4.097-0.216-7.331,3.02-7.547,6.899   c0,0.216,0,0.432,0,0.647c-0.215,1.939,0.647,4.097,2.156,5.391c1.294,1.294,3.019,1.939,4.959,2.156h3.881   c0,1.939-1.725,3.233-3.666,3.233l0,0c-1.294,0-2.588-0.432-3.45-1.294h-4.313l0.216,0.646c1.293,3.02,4.528,4.959,7.762,4.744   c3.881,0,7.116-3.234,7.116-7.115h45.281v4.097h7.331c2.805,0,5.391-1.51,6.686-4.097h37.733l-0.432-0.647   c-0.431-0.646-0.646-1.077-0.862-1.725c-0.216-0.647-0.216-1.511-0.216-2.156V220.15   C290.55,219.291,290.55,218.645,290.766,217.997z M191.362,235.463h-3.45c-3.234,0-3.666-3.666-3.666-5.176s0.431-4.527,3.45-4.527   c3.45,0,3.666,4.313,3.666,5.176V235.463z M251.307,234.385c0,1.51-0.432,5.176-3.666,5.176h-3.449v-8.625   c0-0.862,0.216-5.176,3.666-5.176c2.586,0,3.449,2.156,3.449,4.313V234.385z M299.605,216.271l0.432-0.646h-6.684l0.431,0.646   c0.862,1.078,1.077,2.588,1.077,3.881v13.584c0,1.295-0.215,2.805-1.077,3.883l-0.431,0.646h6.684l-0.432-0.646   c-0.646-1.078-1.078-2.588-1.078-3.883v-13.367C298.313,218.859,298.744,217.564,299.605,216.271z M320.091,223.604   c0.432,0.646,0.646,1.078,0.862,1.726s0.216,1.51,0.216,2.155v8.842c0.216,1.294-0.216,2.587-0.862,3.665l0,0   c-0.862,1.294-2.155,1.94-3.666,1.726h-10.996l-2.804,2.156l-1.077,0.861h16.171c1.94,0.217,3.882-0.646,4.959-2.155   c1.078-1.294,1.727-2.804,1.94-4.528v-11.212c0-0.647,0-1.51,0.216-2.155c0.216-0.647,0.433-1.295,0.862-1.727l0.432-0.646h-6.685   L320.091,223.604z M334.106,216.271l0.431-0.646h-6.685l0.432,0.646c0.862,1.078,1.078,2.588,1.078,3.881v13.584   c0,1.295-0.216,2.805-1.078,3.883l-0.432,0.646h6.685l-0.431-0.646c-0.647-1.078-1.078-2.588-1.078-3.883v-13.367   C332.813,218.859,333.244,217.564,334.106,216.271L334.106,216.271z M267.693,220.8c1.293,0,2.371-0.862,2.588-1.94   c0.216,1.078,1.294,1.94,2.588,1.94c1.509,0,2.587-1.077,2.587-2.587s-1.078-2.588-2.587-2.588c-1.294,0-2.372,0.861-2.588,1.939   c-0.432-1.078-1.295-1.939-2.588-1.939c-1.51,0-2.588,1.078-2.803,2.588C264.891,219.723,266.186,220.8,267.693,220.8   L267.693,220.8L267.693,220.8z M361.275,224.896h-23.288l1.294,0.862l2.372,1.726h20.053c1.51,0,1.94,1.078,1.94,4.097   s-1.293,3.666-2.156,3.666h-19.621l-2.372,1.94l-1.078,0.861h23.071c3.45,0.217,6.254-2.372,6.469-5.82c0-0.217,0-0.647,0-0.863   c0-3.665-2.803-6.469-6.469-6.469H361.275L361.275,224.896z"/>
	</g>
	<g display="none">
		<path display="inline" fill="#231F20" d="M85.165,285.354c-0.429-0.146-0.516-0.278-0.516-0.881c0-1.523,0.13-3.268,0.13-3.688   c0.006-0.353,0.127-0.688,0.353-0.688c0.241,0,0.29,0.246,0.29,0.44c0,0.414,0.102,0.93,0.246,1.444   c0.591,2.063,2.212,2.834,3.986,2.834c2.471,0,3.734-1.767,3.734-3.19c0-1.431-0.445-2.707-2.752-4.53l-1.276-0.982   c-3.048-2.379-4.131-4.324-4.131-6.535c0-3.063,2.555-5.361,6.438-5.361c1.824,0,2.998,0.295,3.685,0.492   c0.256,0.049,0.398,0.196,0.398,0.344c0,0.432-0.097,1.203-0.097,3.342c0,0.689-0.046,0.891-0.303,0.891   c-0.191,0-0.258-0.189-0.258-0.494c0-0.242-0.13-1.184-0.768-1.866c-0.394-0.541-1.177-1.438-3.001-1.438   c-2.066,0-3.322,1.287-3.322,2.908c0,1.283,0.646,2.248,2.966,4.051l0.773,0.527c3.352,2.565,4.551,4.521,4.551,7.207   c0,1.547-0.591,3.51-2.619,4.838c-1.415,0.834-2.963,1.094-4.416,1.094C87.616,286.105,86.357,285.896,85.165,285.354"/>
		<path display="inline" fill="#231F20" d="M114.814,272.7c0-4.153,0-4.941-0.091-5.925c-0.038-0.89-0.293-1.295-1.199-1.555   c-0.222,0-0.668-0.021-1.059-0.021c-0.347,0-0.488-0.103-0.488-0.242c0-0.252,0.193-0.252,0.64-0.252c0.733,0,1.553,0,2.21,0   c0.761,0,1.406,0,1.792,0c0.903,0,6.445,0,6.961,0s0.975-0.097,1.177-0.195c0.149-0.048,0.34-0.061,0.485-0.061   c0.143,0,0.143,0.061,0.143,0.256c0,0.198-0.129,0.517-0.237,1.808c-0.021,0.256-0.05,1.532-0.144,1.803   c-0.006,0.179-0.05,0.277-0.264,0.277c-0.185,0-0.258-0.047-0.258-0.299c0-0.234,0-0.751-0.129-1.011   c-0.236-0.517-0.516-0.854-1.91-1.031c-0.44-0.024-3.375-0.119-3.933-0.119c-0.151,0-0.216,0.119-0.216,0.296v7.043   c0,0.229,0.024,0.26,0.216,0.26c0.592,0,3.789,0,4.424,0c0.688-0.03,1.127-0.174,1.38-0.467c0.167-0.199,0.296-0.31,0.425-0.31   c0.129,0,0.213,0,0.213,0.258c0,0.099-0.097,0.519-0.213,2.011c-0.027,0.569-0.129,1.602-0.129,1.856c0,0.26,0,0.517-0.258,0.517   c-0.188,0-0.258-0.107-0.258-0.257c0-0.26,0-0.64-0.122-1.03c-0.136-0.517-0.523-0.985-1.554-1.031   c-0.516-0.055-3.271-0.102-3.956-0.102c-0.145,0-0.169,0.102-0.169,0.301v2.119c0,1.03,0,3.608,0,4.385   c0.065,1.896,0.516,2.317,3.352,2.317c0.753,0,1.934,0,2.622-0.266c0.73-0.401,1.077-1.021,1.247-2.071   c0.084-0.343,0.128-0.497,0.319-0.497c0.199,0,0.199,0.257,0.199,0.517c0,0.674-0.199,2.578-0.337,3.094   c-0.181,0.771-0.439,0.771-1.477,0.771c-2.113,0-3.643-0.048-4.87-0.096c-1.183-0.095-2.065-0.147-2.858-0.147   c-0.34,0-0.93,0-1.622,0.053c-0.632,0-1.344,0.096-1.916,0.096c-0.335,0-0.586-0.146-0.586-0.294c0-0.126,0.127-0.2,0.49-0.2   c0.41,0,0.742-0.095,0.982-0.182c0.59-0.014,0.718-0.702,0.845-1.538c0.131-1.081,0.131-3.362,0.131-5.94V272.7z"/>
		<path display="inline" fill="#231F20" d="M90.063,241.503c0,2.578,0,4.642,0.13,5.866c0.127,0.818,0.258,1.354,1.084,1.501   c0.385,0.088,0.978,0.116,1.363,0.116c0.388,0,0.516,0.012,0.516,0.25c0,0.162-0.234,0.266-0.643,0.266   c-1.717,0-3.482-0.104-4.174-0.104c-0.724,0-2.457,0.104-3.521,0.104c-0.385,0-0.554-0.057-0.554-0.266   c0-0.238,0.119-0.25,0.385-0.25c0.404,0,0.773-0.028,1.031-0.116c0.516-0.147,0.646-0.683,0.773-1.501   c0.13-1.227,0.13-3.288,0.13-5.866v-4.892c0-4.162,0-4.946-0.021-5.911c-0.105-0.863-0.294-1.308-1.215-1.572   c-0.194,0-0.698,0-1.083,0c-0.258,0-0.458-0.069-0.458-0.251c0-0.266,0.2-0.266,0.626-0.266c0.732,0,1.505,0,2.263,0   c0.669,0,1.305,0.011,1.694,0.011c1.059,0,6.702,0,7.326-0.011c0.535,0,0.819,0,1.113-0.029c0.195-0.105,0.325-0.221,0.453-0.221   c0.13,0,0.163,0.115,0.163,0.25c0,0.259-0.133,0.517-0.195,1.297c-0.041,0.251-0.096,1.804-0.144,2.191   c-0.047,0.188-0.083,0.387-0.277,0.387c-0.19,0-0.259-0.139-0.294-0.481c0-0.196,0-0.579-0.154-1.065   c-0.184-0.285-0.773-0.779-1.805-0.779l-4.255-0.03c-0.157,0-0.258,0.03-0.258,0.295v6.954c0,0.178,0.006,0.266,0.204,0.266h3.536   c0.468,0,0.846,0,1.239-0.028c0.536-0.06,0.915-0.236,1.209-0.487c0.13-0.265,0.141-0.295,0.32-0.295   c0.109,0,0.196,0.03,0.196,0.247c0,0.099-0.136,0.813-0.258,1.634c-0.029,0.583-0.117,1.844-0.117,2.023   c0,0.251,0,0.516-0.269,0.516c-0.13,0-0.22-0.168-0.22-0.307c0-0.209-0.038-0.53-0.168-0.92c-0.127-0.32-0.516-0.836-1.415-0.977   c-0.648-0.125-3.611-0.125-4.053-0.125c-0.146,0-0.204,0.083-0.204,0.266L90.063,241.503L90.063,241.503z"/>
		<path display="inline" fill="#231F20" d="M106.097,236.611c0-4.158,0-4.954-0.049-5.913c-0.053-0.865-0.343-1.306-0.915-1.542   c-0.343-0.028-0.681-0.028-1.018-0.028c-0.258,0-0.428-0.069-0.428-0.26c0-0.257,0.188-0.257,0.674-0.257   c1.043,0,2.741,0.015,3.56,0.015c0.705,0,2.323-0.015,3.377-0.015c0.343,0,0.552,0,0.552,0.257c0,0.188-0.13,0.26-0.401,0.26   c-0.295,0-0.502,0-0.871,0c-0.718,0.218-0.92,0.658-1.006,1.57c-0.042,0.959-0.042,1.755-0.042,5.913v4.892   c0,2.58,0,4.841,0.127,5.952c0.052,0.751,0.258,1.268,1.07,1.4c0.381,0.111,0.993,0.131,1.404,0.131   c0.324,0,0.474,0.017,0.474,0.25c0,0.16-0.239,0.266-0.529,0.266c-1.831,0-3.577-0.105-4.339-0.105   c-0.634,0-2.332,0.105-3.469,0.105c-0.338,0-0.54-0.105-0.54-0.266c0-0.233,0.13-0.25,0.449-0.25c0.419,0,0.712-0.02,0.97-0.131   c0.558-0.135,0.756-0.619,0.812-1.416c0.139-1.097,0.139-3.356,0.139-5.938L106.097,236.611L106.097,236.611z"/>
		<path display="inline" fill="#231F20" d="M122.445,245.668c0.104,2.225,0.443,2.9,1.006,3.055c0.443,0.264,0.979,0.264,1.418,0.264   c0.279,0,0.476,0,0.476,0.252c0,0.209-0.248,0.265-0.627,0.265c-1.783,0-2.943-0.104-3.458-0.104c-0.254,0-1.547,0.104-2.965,0.104   c-0.373,0-0.626-0.009-0.626-0.265c0-0.252,0.203-0.252,0.497-0.252c0.333,0,0.821,0,1.195-0.176   c0.739-0.192,0.868-1.013,0.868-3.434l0.258-16.27c0-0.578,0.09-1.012,0.374-1.012c0.271,0,0.529,0.387,1.017,0.873   c0.286,0.424,4.528,4.825,8.537,8.924c1.88,1.813,5.591,5.799,6.056,6.188h0.132l-0.258-12.375   c-0.002-1.629-0.258-2.165-0.918-2.453c-0.433-0.125-1.106-0.125-1.492-0.125c-0.299,0-0.425-0.123-0.425-0.251   c0-0.266,0.27-0.266,0.708-0.266c1.451,0,2.77,0.017,3.33,0.017c0.345,0,1.376-0.017,2.693-0.017c0.356,0,0.632,0,0.632,0.266   c0,0.128-0.144,0.251-0.481,0.251c-0.29,0-0.484,0-0.826,0c-0.773,0.265-1.011,0.808-1.031,2.349l-0.266,17.51   c0,0.517-0.118,0.768-0.375,0.768c-0.298,0-0.647-0.251-0.929-0.516c-1.78-1.733-5.258-5.346-8.147-8.193   c-3.033-2.904-6.076-6.438-6.557-6.96h-0.094L122.445,245.668z"/>
		<path display="inline" fill="#231F20" d="M144.719,283.047c-2.753-2.355-3.478-5.449-3.478-8.208c0-1.883,0.574-5.213,3.23-7.575   c2.052-1.871,4.672-3.045,8.844-3.045c1.716,0,2.747,0.196,4.036,0.29c1.035,0.197,1.937,0.457,2.798,0.457   c0.295,0.029,0.427,0.257,0.427,0.384c0,0.192-0.131,0.59-0.132,1.519c-0.095,0.933-0.043,2.479-0.126,2.995   c0,0.501-0.067,0.693-0.314,0.693c-0.201,0-0.294-0.192-0.294-0.688c-0.039-0.777-0.391-1.809-1.07-2.555   c-0.899-0.936-3.094-1.672-5.672-1.672c-2.446,0-3.993,0.61-5.251,1.672c-2.019,1.92-2.56,4.61-2.56,7.226   c0,6.667,5.063,10.021,8.808,10.021c2.486,0,3.974-0.287,5.064-1.559c0.516-0.547,0.878-1.377,0.975-1.871   c0.057-0.439,0.145-0.595,0.345-0.595c0.227,0,0.247,0.155,0.247,0.415c0,0.32-0.298,2.826-0.592,3.714   c-0.149,0.448-0.241,0.667-0.717,0.843c-1.154,0.395-3.226,0.6-5.03,0.6C150.421,286.105,147.223,285.331,144.719,283.047"/>
		<path display="inline" fill="#231F20" d="M177.217,272.7c0-4.153,0-4.941-0.014-5.925c-0.088-0.89-0.283-1.295-1.22-1.555   c-0.195,0-0.711-0.021-1.101-0.021c-0.273,0-0.465-0.103-0.465-0.242c0-0.252,0.208-0.252,0.597-0.252c1.509,0,3.233,0,4.116,0   c0.65,0,2.415,0,3.392,0c0.444,0,0.61,0,0.61,0.252c0,0.14-0.126,0.242-0.407,0.242c-0.348,0-0.492,0.021-0.836,0.021   c-0.74,0.172-0.945,0.612-1.035,1.555c-0.042,0.982-0.042,1.771-0.042,5.925v3.899c0,4.09,0.782,5.803,2.194,6.928   c1.237,1.031,2.52,1.087,3.478,1.087c1.21,0,2.71-0.314,3.857-1.47c1.524-1.524,1.574-4.002,1.574-6.885v-3.56   c0-4.153,0-4.941-0.017-5.925c-0.081-0.89-0.28-1.295-1.212-1.555c-0.203,0-0.718-0.021-0.983-0.021   c-0.341,0-0.509-0.103-0.509-0.242c0-0.252,0.209-0.252,0.607-0.252c1.426,0,3.144,0,3.197,0c0.321,0,2.112,0,3.157,0   c0.384,0,0.629,0,0.629,0.252c0,0.14-0.198,0.242-0.503,0.242c-0.337,0-0.516,0.021-0.826,0.021   c-0.736,0.172-0.979,0.612-1.029,1.555c-0.075,0.982-0.075,1.771-0.075,5.925v3.071c0,3.096-0.276,6.338-2.635,8.308   c-2.006,1.769-3.98,2.026-5.799,2.026c-1.495,0-4.178-0.014-6.195-1.885c-1.428-1.271-2.505-3.337-2.505-7.396V272.7L177.217,272.7   z"/>
		<path display="inline" fill="#231F20" d="M214.07,272.7c0-4.153,0-4.942-0.084-5.925c-0.042-0.89-0.294-1.295-1.205-1.555   c-0.215,0-0.656-0.022-1.054-0.022c-0.342,0-0.493-0.101-0.493-0.24c0-0.252,0.198-0.252,0.637-0.252c1.43,0,3.23,0,3.79,0   c0.988,0,3.054,0,3.956,0c1.746,0,3.609,0.099,5.134,1.134c0.795,0.541,1.89,1.96,1.89,3.782c0,2.063-0.847,4.03-3.673,6.297   c2.446,3.142,4.449,5.547,5.996,7.351c1.548,1.553,2.771,1.807,3.124,1.84c0.342,0.094,0.588,0.147,0.787,0.147   c0.214,0,0.391,0.074,0.391,0.199c0,0.199-0.177,0.294-0.543,0.294h-2.705c-1.568,0-2.211-0.159-2.899-0.548   c-1.247-0.644-2.31-1.935-3.882-4.07c-1.083-1.528-2.361-3.489-2.719-3.835c-0.126-0.216-0.333-0.216-0.516-0.216l-2.446-0.032   c-0.132,0-0.219,0.032-0.219,0.2v0.349c0,2.577,0,4.858,0.144,5.932c0.075,0.845,0.247,1.533,1.106,1.547   c0.384,0.086,1.031,0.182,1.35,0.182c0.2,0,0.323,0.074,0.323,0.199c0,0.146-0.173,0.294-0.516,0.294   c-1.672,0-3.735-0.146-4.125-0.146c-0.516,0-2.316,0.146-3.402,0.146c-0.344,0-0.588-0.146-0.588-0.294   c0-0.125,0.123-0.199,0.498-0.199c0.398,0,0.736-0.096,0.982-0.182c0.579-0.014,0.705-0.702,0.83-1.547   c0.133-1.072,0.133-3.354,0.133-5.932L214.07,272.7L214.07,272.7z M217.334,274.982c0,0.295,0.087,0.348,0.241,0.496   c0.62,0.14,1.433,0.293,2.167,0.293c1.078,0,1.428-0.194,1.937-0.494c0.863-0.637,1.673-1.912,1.673-4.178   c0-4.031-2.627-5.104-4.251-5.104c-0.737,0-1.231,0-1.525,0.035c-0.154,0.102-0.241,0.221-0.241,0.48L217.334,274.982   L217.334,274.982z"/>
		<path display="inline" fill="#231F20" d="M247.012,272.7c0-4.153,0-4.941-0.08-5.925c-0.103-0.89-0.396-1.336-0.951-1.555   c-0.279,0-0.723-0.021-1.031-0.021c-0.262,0-0.479-0.103-0.479-0.296c0-0.198,0.219-0.198,0.733-0.198c1.03,0,2.839,0,3.608,0   c0.725,0,2.323,0,3.354,0c0.422,0,0.616,0,0.616,0.198c0,0.193-0.102,0.296-0.395,0.296c-0.302,0-0.494,0.021-0.889,0.021   c-0.74,0.172-0.936,0.612-1.031,1.555c-0.1,0.982-0.1,1.771-0.1,5.925v4.896c0,2.795,0,4.9,0.195,6.188   c0.055,0.774,0.293,1.276,1.086,1.291c0.39,0.087,1.031,0.182,1.418,0.182c0.354,0,0.401,0.074,0.401,0.2   c0,0.146-0.2,0.294-0.534,0.294c-1.802,0-3.604-0.147-4.336-0.147c-0.56,0-2.367,0.147-3.443,0.147   c-0.437,0-0.588-0.147-0.588-0.294c0-0.126,0.117-0.2,0.395-0.2c0.5,0,0.755-0.095,1.016-0.182   c0.556-0.015,0.771-0.517,0.803-1.298c0.229-1.28,0.229-3.387,0.229-6.182L247.012,272.7L247.012,272.7z"/>
		<path display="inline" fill="#231F20" d="M275.107,266.253l-4.125,0.026c-1.635,0.102-2.322,0.232-2.767,0.837   c-0.288,0.428-0.347,0.739-0.435,0.942c-0.107,0.256-0.153,0.387-0.354,0.387c-0.143,0-0.235-0.131-0.235-0.395   c0-0.508,0.529-3.086,0.629-3.296c0.068-0.306,0.107-0.541,0.324-0.541c0.26,0,0.516,0.294,1.203,0.396   c0.834,0.097,1.891,0.097,2.752,0.097h11.015c0.981,0,1.53,0,2.014-0.097c0.351-0.147,0.548-0.159,0.746-0.159   c0.142,0,0.194,0.206,0.194,0.547c0,0.649-0.133,2.547-0.133,3.317c0,0.261,0,0.427-0.261,0.427c-0.196,0-0.256-0.166-0.256-0.591   v-0.348c-0.047-0.688-0.78-1.471-3.354-1.551h-3.473v11.344c0,2.578,0,4.859,0.123,5.988c0.072,0.788,0.256,1.477,1.055,1.49   c0.492,0.086,1.008,0.181,1.523,0.181c0.256,0,0.396,0.075,0.396,0.201c0,0.149-0.195,0.293-0.549,0.293   c-1.867,0-3.59-0.144-4.371-0.144c-0.633,0-2.439,0.144-3.472,0.144c-0.411,0-0.56-0.144-0.56-0.293   c0-0.126,0.044-0.201,0.388-0.201c0.433,0,0.742-0.095,0.988-0.181c0.589-0.014,0.729-0.702,0.836-1.547   c0.153-1.072,0.153-3.354,0.153-5.933v-11.342H275.107z"/>
		<path display="inline" fill="#231F20" d="M303.027,272.7c0-4.153,0-4.941-0.076-5.925c0-0.89-0.26-1.336-0.913-1.555   c-0.335,0-0.634-0.021-0.974-0.021c-0.303,0-0.437-0.103-0.437-0.296c0-0.198,0.229-0.198,0.628-0.198c1.076,0,2.799,0,3.643,0   c0.637,0,2.354,0,3.438,0c0.287,0,0.543,0,0.543,0.198c0,0.193-0.197,0.296-0.492,0.296c-0.278,0-0.493,0.021-0.795,0.021   c-0.774,0.172-1.026,0.612-1.031,1.555c0,0.982,0,1.771,0,5.925v4.896c0,2.795,0,4.9,0.005,6.188   c0.147,0.774,0.292,1.276,1.178,1.291c0.365,0.087,0.984,0.182,1.396,0.182c0.283,0,0.517,0.074,0.517,0.2   c0,0.146-0.261,0.294-0.529,0.294c-1.872,0-3.597-0.147-4.371-0.147c-0.698,0-2.421,0.147-3.598,0.147   c-0.269,0-0.527-0.147-0.527-0.294c0-0.126,0.134-0.2,0.517-0.2c0.359,0,0.756-0.095,0.994-0.182   c0.553-0.015,0.688-0.517,0.813-1.298c0.076-1.28,0.076-3.387,0.076-6.182V272.7H303.027z"/>
		<path display="inline" fill="#231F20" d="M327.461,272.7c0-4.153,0-4.941-0.02-5.925c0-0.89-0.257-1.295-1.21-1.555   c-0.193,0-0.637-0.021-1.108-0.021c-0.26,0-0.463-0.103-0.463-0.242c0-0.252,0.203-0.252,0.689-0.252c0.734,0,1.569,0,2.21,0   c0.688,0,1.425,0,1.726,0c0.978,0,6.441,0,6.971,0c0.542,0,0.982-0.097,1.242-0.195c0.144-0.048,0.256-0.061,0.484-0.061   c0.051,0,0.098,0.061,0.098,0.256c0,0.198-0.066,0.517-0.192,1.808c-0.055,0.256-0.134,1.532-0.134,1.803   c0,0.179-0.064,0.277-0.256,0.277c-0.26,0-0.26-0.047-0.26-0.299c0-0.234,0-0.751-0.24-1.011c-0.146-0.517-0.442-0.854-1.822-1.031   c-0.516-0.024-3.35-0.119-3.932-0.119c-0.193,0-0.193,0.119-0.193,0.296v7.043c0,0.229,0,0.26,0.193,0.26c0.582,0,3.79,0,4.447,0   c0.666-0.03,1.03-0.174,1.291-0.467c0.256-0.199,0.315-0.31,0.516-0.31c0.04,0,0.189,0,0.189,0.258   c0,0.099-0.189,0.519-0.191,2.011c-0.055,0.569-0.197,1.602-0.197,1.856c0,0.26,0,0.517-0.248,0.517   c-0.15,0-0.253-0.107-0.253-0.257c-0.041-0.26-0.041-0.64-0.075-1.03c-0.167-0.517-0.516-0.985-1.547-1.031   c-0.516-0.055-3.35-0.102-3.978-0.102c-0.147,0-0.147,0.102-0.147,0.301v2.119c0,1.03,0,3.608,0,4.385   c0,1.896,0.517,2.317,3.354,2.317c0.729,0,1.811,0,2.578-0.266c0.771-0.401,1.03-1.021,1.286-2.071   c0-0.343,0.062-0.497,0.261-0.497c0.256,0,0.256,0.257,0.256,0.517c0,0.674-0.256,2.578-0.356,3.094   c-0.158,0.771-0.415,0.771-1.477,0.771c-2.111,0-3.645-0.048-4.87-0.096c-1.228-0.095-2.063-0.147-2.854-0.147   c-0.345,0-1.012,0-1.618,0.053c-0.685,0-1.432,0.096-1.972,0.096c-0.288,0-0.516-0.146-0.516-0.294c0-0.126,0.079-0.2,0.473-0.2   c0.348,0,0.741-0.095,0.978-0.182c0.595-0.014,0.642-0.702,0.837-1.538c0.052-1.081,0.052-3.362,0.052-5.94V272.7H327.461z"/>
		<path display="inline" fill="#231F20" d="M355.484,285.354c-0.455-0.146-0.542-0.278-0.542-0.881c0-1.523,0.087-3.268,0.087-3.688   c0.013-0.353,0.16-0.688,0.354-0.688c0.247,0,0.302,0.246,0.302,0.44c0,0.414,0.12,0.93,0.24,1.444   c0.651,2.063,2.212,2.834,4.005,2.834c2.538,0,3.723-1.767,3.723-3.19c0-1.431-0.372-2.707-2.69-4.53l-1.291-0.982   c-3.094-2.379-4.125-4.324-4.125-6.535c0-3.063,2.578-5.361,6.447-5.361c1.803,0,2.93,0.295,3.619,0.492   c0.25,0.049,0.494,0.196,0.494,0.344c0,0.432-0.201,1.203-0.201,3.342c0,0.689-0.047,0.891-0.304,0.891   c-0.187,0-0.26-0.189-0.26-0.494c0-0.242-0.119-1.184-0.761-1.866c-0.347-0.541-1.184-1.438-2.996-1.438   c-2.078,0-3.3,1.287-3.3,2.908c0,1.283,0.613,2.248,2.932,4.051l0.775,0.527c3.35,2.565,4.641,4.521,4.641,7.207   c0,1.547-0.67,3.51-2.646,4.838c-1.472,0.834-3.025,1.094-4.479,1.094C357.867,286.105,356.618,285.896,355.484,285.354"/>
		<path display="inline" fill="#231F20" d="M214.312,298.997c0,1.483,0,2.295,0.229,2.46c0.177,0.118,0.477,0.253,1.368,0.253   c0.614,0,1.077-0.019,1.387-0.377c0.126-0.065,0.258-0.437,0.258-0.617c0-0.172,0.035-0.172,0.126-0.172   c0.118,0,0.132,0,0.132,0.207c0,0.049-0.131,0.959-0.199,1.34c-0.059,0.257-0.127,0.257-0.707,0.257c-0.853,0-1.415,0-1.931,0   c-0.525,0-0.958-0.02-1.42-0.02c-0.126,0-0.384,0-0.642,0.02c-0.27,0-0.6,0-0.805,0c-0.168,0-0.227-0.02-0.227-0.156   c0-0.101,0-0.101,0.149-0.101c0.197,0,0.342,0,0.427,0c0.211-0.026,0.312-0.28,0.323-0.67c0.075-0.465,0.075-1.394,0.075-2.424   v-2.063c0-1.769,0-2.063-0.042-2.384c-0.033-0.454-0.109-0.626-0.482-0.71c-0.066,0-0.211,0-0.369,0c-0.126,0-0.213,0-0.213-0.104   c0-0.146,0.111-0.155,0.258-0.155c0.516,0,1.289,0.032,1.559,0.032c0.283,0,1.151-0.032,1.571-0.032c0.186,0,0.23,0.01,0.23,0.155   c0,0.104-0.026,0.104-0.17,0.104c-0.127,0-0.349,0-0.48,0c-0.268,0.043-0.39,0.256-0.39,0.71c-0.016,0.321-0.016,0.615-0.016,2.384   L214.312,298.997L214.312,298.997z"/>
		<path display="inline" fill="#231F20" d="M218.67,301.575c0-0.261,0.173-0.737,0.688-0.737c0.384,0,0.703,0.27,0.703,0.737   c0,0.362-0.288,0.753-0.703,0.753C218.843,302.328,218.67,301.855,218.67,301.575"/>
		<path display="inline" fill="#231F20" d="M224.125,298.997c0,1.483,0,2.295,0.258,2.46c0.166,0.118,0.496,0.253,1.395,0.253   c0.608,0,1.072-0.019,1.38-0.377c0.055-0.065,0.261-0.437,0.261-0.617c0-0.172,0-0.172,0.102-0.172c0.153,0,0.153,0,0.153,0.207   c0,0.049-0.132,0.959-0.255,1.34c0,0.257-0.068,0.257-0.723,0.257c-0.824,0-1.406,0-1.922,0s-0.905-0.02-1.421-0.02   c-0.126,0-0.38,0-0.642,0.02c-0.258,0-0.528,0-0.773,0c-0.132,0-0.258-0.02-0.258-0.156c0-0.101,0.071-0.101,0.213-0.101   c0.17,0,0.302,0,0.428,0c0.211-0.026,0.258-0.28,0.295-0.67c0.095-0.465,0.095-1.394,0.095-2.424v-2.063   c0-1.769,0-2.063-0.028-2.384c-0.047-0.454-0.104-0.626-0.487-0.71c-0.132,0-0.258,0-0.39,0c-0.126,0-0.225,0-0.225-0.104   c0-0.146,0.099-0.155,0.249-0.155c0.559,0,1.265,0.032,1.6,0.032c0.293,0,1.086-0.032,1.577-0.032c0.15,0,0.229,0.01,0.229,0.155   c0,0.104-0.079,0.104-0.205,0.104c-0.132,0-0.314,0-0.458,0c-0.315,0.043-0.421,0.256-0.447,0.71c0,0.321,0,0.615,0,2.384V298.997   L224.125,298.997z"/>
		<path display="inline" fill="#231F20" d="M228.448,301.575c0-0.261,0.255-0.737,0.771-0.737c0.352,0,0.705,0.27,0.705,0.737   c0,0.362-0.281,0.753-0.705,0.753C228.703,302.328,228.448,301.855,228.448,301.575"/>
		<path display="inline" fill="#231F20" d="M232.689,301.254c-1.147-0.97-1.408-2.257-1.408-3.425c0-0.794,0.261-2.187,1.292-3.199   c0.846-0.75,1.987-1.166,3.635-1.166c0.745,0,1.219,0.083,1.76,0.117c0.378,0,0.793,0.172,1.048,0.235   c0.213,0.021,0.262,0.023,0.262,0.047c0,0.164-0.021,0.232-0.066,0.725c-0.043,0.284-0.02,0.994-0.061,1.199   c-0.019,0.115-0.064,0.277-0.135,0.277c-0.072,0-0.111-0.162-0.111-0.254c-0.025-0.424-0.144-0.748-0.403-1.076   c-0.468-0.379-1.286-0.672-2.343-0.672c-1.006,0-1.744,0.254-2.239,0.672c-0.829,0.766-1.076,1.908-1.076,2.972   c0,2.776,2.095,4.125,3.632,4.125c1.022,0,1.723-0.144,2.137-0.685c0.15-0.188,0.406-0.574,0.406-0.74c0-0.129,0-0.211,0.15-0.211   c0.109,0,0.109,0.089,0.109,0.111c0,0.234-0.168,1.211-0.262,1.523c-0.013,0.26-0.095,0.26-0.255,0.376   c-0.516,0.14-1.352,0.271-2.063,0.271C235.104,302.477,233.748,302.091,232.689,301.254"/>
		<path display="inline" fill="#231F20" d="M156.128,240.895c0.144,0,0.192-0.147,0.144-0.158l-2.51-6.844   c-0.019-0.123-0.019-0.24-0.145-0.24c-0.037,0-0.132,0.117-0.132,0.24l-2.558,6.844c-0.02,0.011,0,0.158,0.112,0.158H156.128z    M150.522,242.283c-0.132,0-0.23,0-0.258,0.251l-1.52,3.874c-0.283,0.76-0.417,1.34-0.417,1.729c0,0.478,0.258,0.85,1.144,0.85   h0.403c0.32,0,0.39,0,0.39,0.252c0,0.205-0.132,0.265-0.459,0.265c-0.869,0-2.066-0.104-2.892-0.104   c-0.336,0-1.83,0.104-3.28,0.104c-0.338,0-0.524-0.06-0.524-0.265c0-0.252,0.097-0.252,0.321-0.252c0.258,0,0.647,0,0.883-0.012   c1.247-0.252,1.789-1.174,2.343-2.565l6.924-17.28c0.295-0.79,0.477-1.137,0.771-1.137c0.229,0,0.423,0.247,0.681,0.886   c0.647,1.547,5.046,12.793,6.835,17.017c1.031,2.438,1.836,2.828,2.446,2.961c0.39,0.133,0.781,0.133,1.163,0.133   c0.201,0,0.345,0,0.345,0.251c0,0.206-0.248,0.265-1.259,0.265c-1.023,0-3.04,0-5.249-0.059c-0.488-0.047-0.798-0.047-0.798-0.206   c0-0.251,0.125-0.251,0.384-0.251c0.167-0.072,0.39-0.319,0.258-0.703l-2.211-5.794c-0.101-0.206-0.145-0.206-0.289-0.206h-6.135   V242.283z"/>
		<path display="inline" fill="#231F20" d="M172.591,245.668c0.095,2.225,0.432,2.9,1.003,3.055c0.429,0.264,0.96,0.264,1.421,0.264   c0.262,0,0.46,0,0.46,0.252c0,0.209-0.243,0.265-0.627,0.265c-1.783,0-2.927-0.104-3.442-0.104c-0.258,0-1.547,0.104-2.968,0.104   c-0.38,0-0.628-0.009-0.628-0.265c0-0.252,0.186-0.252,0.475-0.252c0.35,0,0.819,0,1.211-0.176   c0.747-0.192,0.872-1.013,0.878-3.434l0.258-16.27c0-0.578,0.074-1.012,0.361-1.012c0.28,0,0.538,0.387,1.012,0.873   c0.299,0.424,4.527,4.825,8.549,8.924c1.862,1.813,5.583,5.799,6.062,6.188h0.126l-0.258-12.375   c-0.016-1.629-0.258-2.165-0.925-2.453c-0.439-0.125-1.106-0.125-1.504-0.125c-0.286,0-0.407-0.123-0.407-0.251   c0-0.266,0.268-0.266,0.708-0.266c1.438,0,2.775,0.017,3.312,0.017c0.354,0,1.395-0.017,2.709-0.017c0.364,0,0.627,0,0.627,0.266   c0,0.128-0.137,0.251-0.488,0.251c-0.283,0-0.477,0-0.806,0c-0.773,0.265-1.024,0.808-1.031,2.349l-0.271,17.51   c0,0.517-0.118,0.768-0.376,0.768c-0.31,0-0.642-0.251-0.931-0.516c-1.773-1.733-5.263-5.346-8.163-8.193   c-3.023-2.904-6.063-6.438-6.552-6.96h-0.081L172.591,245.668z"/>
		<path display="inline" fill="#231F20" d="M199.654,246.885c-2.698-2.412-3.373-5.502-3.373-8.211c0-1.813,0.531-5.156,3.226-7.49   c1.932-1.838,4.584-2.992,8.685-2.992c1.734,0,2.739,0.17,3.999,0.289c1.053,0.133,1.927,0.396,2.785,0.44   c0.258,0.047,0.384,0.207,0.384,0.384c0,0.188-0.081,0.577-0.126,1.493c-0.051,0.908,0,2.455-0.099,2.972   c-0.033,0.461-0.062,0.653-0.291,0.653c-0.258,0-0.281-0.192-0.281-0.653c-0.06-0.768-0.393-1.799-1.125-2.535   c-0.902-0.924-3.029-1.642-5.554-1.642c-2.436,0-3.993,0.566-5.183,1.642c-2.036,1.883-2.551,4.557-2.551,7.176   c0,6.581,5.002,9.797,8.665,9.797c2.461,0,3.968-0.251,5.068-1.547c0.446-0.516,0.836-1.282,0.962-1.799   c0.044-0.441,0.132-0.516,0.338-0.516c0.177,0,0.241,0.221,0.241,0.409c0,0.356-0.322,2.685-0.58,3.716   c-0.15,0.444-0.258,0.516-0.769,0.768c-1.066,0.455-3.185,0.589-4.92,0.589C205.344,249.826,202.21,248.986,199.654,246.885"/>
		<path display="inline" fill="#231F20" d="M223.682,236.611c0-4.158,0-4.954-0.073-5.913c-0.023-0.865-0.258-1.306-1.157-1.57   c-0.258,0-0.697,0-1.087,0c-0.333,0-0.459-0.069-0.459-0.251c0-0.266,0.176-0.266,0.604-0.266c0.729,0,1.547,0,2.232,0   c0.706,0,1.338,0.015,1.719,0.015c0.926,0,6.337,0,6.854-0.015c0.528,0,1.031-0.03,1.291-0.131   c0.063-0.047,0.256-0.119,0.387-0.119c0.13,0,0.13,0.119,0.13,0.25c0,0.257-0.069,0.517-0.218,1.813   c-0.043,0.251-0.043,1.54-0.043,1.799c-0.051,0.172-0.152,0.264-0.293,0.264c-0.223,0-0.239-0.032-0.239-0.286   c0-0.229-0.05-0.744-0.238-1.009c-0.192-0.517-0.487-0.821-1.808-1.031c-0.516,0-3.35-0.084-3.891-0.084   c-0.234,0-0.234,0.084-0.234,0.294v7.002c0,0.142,0,0.271,0.234,0.271c0.541,0,3.711,0,4.405-0.035   c0.612-0.094,1.031-0.229,1.292-0.479c0.238-0.246,0.256-0.291,0.479-0.291c0.037,0,0.141,0.026,0.141,0.192   c0,0.105-0.104,0.613-0.188,1.99c-0.047,0.57-0.176,1.717-0.176,1.875c0,0.188,0,0.52-0.256,0.52c-0.15,0-0.247-0.161-0.247-0.229   c-0.014-0.291-0.014-0.713-0.014-0.974c-0.228-0.569-0.517-1.022-1.547-1.099c-0.517-0.096-3.349-0.154-3.933-0.154   c-0.192,0-0.192,0.195-0.192,0.294v2.25c0,0.894,0,3.397,0,4.224c0,1.965,0.516,2.313,3.354,2.313c0.691,0,1.801,0,2.577-0.348   c0.72-0.252,1.031-0.858,1.257-2.06c0.029-0.255,0.029-0.341,0.291-0.341c0.227,0,0.227,0.188,0.227,0.482   c0,0.635-0.227,2.463-0.438,3.035c-0.127,0.692-0.374,0.692-1.429,0.692c-2.088,0-3.569,0-4.81,0   c-1.18-0.058-2.063-0.104-2.866-0.104c-0.291,0-0.916,0-1.58,0.047c-0.642,0-1.312,0.059-1.894,0.059   c-0.338,0-0.558-0.105-0.558-0.266c0-0.233,0.132-0.25,0.466-0.25c0.439,0,0.718-0.02,0.964-0.131   c0.584-0.135,0.716-0.67,0.813-1.482c0.15-1.229,0.15-3.348,0.15-5.87L223.682,236.611L223.682,236.611z"/>
		<path display="inline" fill="#231F20" d="M268.199,237.378c0.148,0,0.205-0.007,0.205-0.251v-0.516c0-4.164,0-4.952,0-5.913   c-0.105-0.863-0.293-1.306-1.291-1.57c-0.215,0-0.637,0-1.031,0c-0.256,0-0.516-0.069-0.516-0.251c0-0.266,0.26-0.266,0.604-0.266   c1.459,0,3.266,0.016,4.037,0.016c0.6,0,2.322-0.016,3.398-0.016c0.471,0,0.631,0,0.631,0.266c0,0.182-0.16,0.251-0.487,0.251   c-0.188,0-0.448,0-0.819,0c-0.717,0.22-0.916,0.654-1.012,1.57c-0.087,0.961-0.087,1.749-0.087,5.913v4.892   c0,2.522,0,4.642,0.183,5.907c0,0.777,0.256,1.313,1.031,1.445c0.415,0.103,1.031,0.131,1.434,0.131c0.34,0,0.375,0.017,0.375,0.25   c0,0.162-0.191,0.266-0.521,0.266c-1.803,0-3.526-0.104-4.285-0.104c-0.61,0-2.418,0.104-3.448,0.104   c-0.375,0-0.517-0.104-0.517-0.266c0-0.233,0.013-0.25,0.396-0.25c0.381,0,0.715-0.028,0.951-0.131   c0.59-0.135,0.717-0.668,0.829-1.48c0.146-1.23,0.146-3.35,0.146-5.872v-2.495c0-0.083-0.057-0.09-0.204-0.09h-10.505   c-0.118,0-0.118,0.007-0.118,0.09v2.495c0,2.522,0,4.642,0.071,5.907c0.144,0.777,0.242,1.313,1.113,1.445   c0.361,0.103,0.953,0.131,1.394,0.131c0.256,0,0.479,0.017,0.479,0.25c0,0.162-0.225,0.266-0.578,0.266   c-1.781,0-3.516-0.104-4.279-0.104c-0.682,0-2.375,0.104-3.521,0.104c-0.349,0-0.596-0.104-0.596-0.266   c0-0.233,0.201-0.25,0.508-0.25c0.418,0,0.771-0.028,1.031-0.131c0.516-0.135,0.638-0.668,0.771-1.48   c0.104-1.23,0.104-3.35,0.104-5.872v-4.892c0-4.164,0-4.952-0.094-5.913c-0.01-0.863-0.266-1.306-1.105-1.57   c-0.189,0-0.706,0-1.107,0c-0.334,0-0.437-0.069-0.437-0.251c0-0.266,0.147-0.266,0.577-0.266c1.494,0,3.189,0.016,3.914,0.016   c0.721,0,2.453-0.016,3.559-0.016c0.287,0,0.516,0,0.516,0.266c0,0.182-0.18,0.251-0.516,0.251c-0.234,0-0.48,0-0.771,0   c-0.77,0.22-1.006,0.654-1.03,1.57c0,0.961,0,1.749,0,5.913v0.516c0,0.244,0,0.251,0.119,0.251H268.199z"/>
		<path display="inline" fill="#231F20" d="M298.605,239.542c0-6.183-3.519-10.001-8.029-10.001c-3.148,0-6.779,1.746-6.779,8.617   c0,5.732,3.17,10.313,8.443,10.313C294.186,248.471,298.605,247.503,298.605,239.542 M280.004,239.008   c0-4.724,3.094-10.816,11.344-10.816c6.911,0,11.117,4.031,11.117,10.34c0,6.33-4.414,11.291-11.373,11.291   C283.12,249.82,280.004,243.891,280.004,239.008"/>
		<path display="inline" fill="#231F20" d="M309.662,236.611c0-4.158,0-4.954-0.008-5.913c0-0.865-0.261-1.306-1.193-1.57   c-0.199,0-0.63,0-1.117,0c-0.268,0-0.425-0.069-0.425-0.251c0-0.266,0.157-0.266,0.673-0.266c1.389,0,3.094,0.015,3.953,0.015   c0.688,0,2.454-0.015,3.418-0.015c0.363,0,0.619,0,0.619,0.266c0,0.182-0.23,0.251-0.516,0.251c-0.257,0-0.44,0-0.771,0   c-0.77,0.218-0.969,0.658-1.031,1.57c0,0.959,0,1.755,0,5.913v3.859c0,4.002,0.771,5.672,2.088,6.748   c1.263,1.018,2.554,1.207,3.523,1.207c1.16,0,2.639-0.472,3.754-1.503c1.499-1.547,1.647-4.052,1.647-6.894v-3.42   c0-4.157,0-4.953-0.095-5.912c-0.091-0.865-0.287-1.307-1.122-1.57c-0.26,0-0.774,0-1.03,0c-0.265,0-0.517-0.07-0.517-0.251   c0-0.265,0.257-0.265,0.601-0.265c1.463,0,3.171,0.014,3.212,0.014c0.313,0,2.084-0.014,3.146-0.014c0.336,0,0.517,0,0.517,0.265   c0,0.181-0.128,0.251-0.517,0.251c-0.256,0-0.425,0-0.771,0c-0.775,0.218-0.971,0.658-1.031,1.57c0,0.959,0,1.755,0,5.912v2.932   c0,3.042-0.273,6.352-2.592,8.35c-2.049,1.61-4.002,1.936-5.779,1.936c-1.426,0-4.094-0.073-6.073-1.871   c-1.5-1.296-2.563-3.357-2.563-7.301L309.662,236.611L309.662,236.611z"/>
		<path display="inline" fill="#231F20" d="M335.188,249.152c-0.382-0.166-0.526-0.385-0.526-0.946c0-1.547,0.191-3.154,0.232-3.608   c0.026-0.471,0.026-0.768,0.282-0.768c0.26,0,0.26,0.251,0.26,0.516c0,0.305,0.141,0.942,0.257,1.383   c0.612,2.018,2.297,2.742,3.931,2.742c2.517,0,3.762-1.582,3.762-3.094c0-1.296-0.474-2.578-2.792-4.391l-1.265-1.03   c-2.985-2.313-4.046-4.332-4.046-6.502c0-3.03,2.507-5.255,6.342-5.255c1.803,0,3.015,0.277,3.69,0.423   c0.24,0.103,0.435,0.244,0.435,0.385c0,0.386-0.146,1.152-0.146,3.282c0,0.689-0.113,0.878-0.344,0.878   c-0.146,0-0.286-0.165-0.286-0.481c0-0.234-0.049-1.16-0.671-1.838c-0.359-0.535-1.165-1.399-2.947-1.399   c-2.054,0-3.341,1.228-3.341,2.842c0,1.265,0.646,2.26,2.916,4.058l0.771,0.517c3.319,2.571,4.563,4.39,4.563,7.019   c0,1.659-0.608,3.559-2.577,4.842c-1.407,0.871-2.95,1.102-4.386,1.102C337.688,249.823,336.467,249.688,335.188,249.152"/>
		<path display="inline" fill="#231F20" d="M355.154,236.611c0-4.158,0-4.954-0.089-5.913c-0.036-0.865-0.292-1.306-1.109-1.57   c-0.214,0-0.729,0-1.113,0c-0.341,0-0.435-0.069-0.435-0.251c0-0.266,0.151-0.266,0.559-0.266c0.775,0,1.547,0,2.287,0   c0.686,0,1.322,0.015,1.69,0.015c0.923,0,6.335,0,6.851-0.015c0.521,0,1.031-0.03,1.291-0.131c0.055-0.047,0.256-0.119,0.396-0.119   c0.119,0,0.119,0.119,0.119,0.25c0,0.257-0.064,0.517-0.22,1.813c-0.04,0.251-0.04,1.54-0.04,1.799   c-0.06,0.172-0.154,0.264-0.295,0.264c-0.221,0-0.242-0.032-0.242-0.286c0-0.229-0.041-0.744-0.233-1.009   c-0.19-0.517-0.49-0.821-1.808-1.031c-0.516,0-3.35-0.084-3.89-0.084c-0.235,0-0.235,0.084-0.235,0.294v7.002   c0,0.142,0,0.271,0.235,0.271c0.54,0,3.707,0,4.405-0.035c0.612-0.094,1.03-0.229,1.291-0.479c0.233-0.246,0.256-0.291,0.477-0.291   c0.039,0,0.141,0.026,0.141,0.192c0,0.105-0.102,0.613-0.192,1.99c-0.043,0.57-0.168,1.717-0.168,1.875c0,0.188,0,0.52-0.256,0.52   c-0.153,0-0.255-0.161-0.255-0.229c-0.006-0.291-0.006-0.713-0.006-0.974c-0.229-0.569-0.516-1.022-1.547-1.099   c-0.516-0.096-3.35-0.154-3.941-0.154c-0.184,0-0.184,0.195-0.184,0.294v2.25c0,0.894,0,3.397,0,4.224   c0,1.965,0.517,2.313,3.354,2.313c0.693,0,1.803,0,2.578-0.348c0.712-0.252,1.03-0.858,1.233-2.06   c0.053-0.255,0.053-0.341,0.313-0.341c0.224,0,0.224,0.188,0.224,0.482c0,0.635-0.224,2.463-0.431,3.035   c-0.14,0.692-0.374,0.692-1.458,0.692c-2.066,0-3.56,0-4.782,0c-1.184-0.058-2.063-0.104-2.834-0.104c-0.273,0-0.94,0-1.547,0.047   c-0.705,0-1.382,0.059-1.959,0.059c-0.363,0-0.575-0.105-0.575-0.266c0-0.233,0.21-0.25,0.472-0.25c0.441,0,0.771-0.02,1.031-0.131   c0.516-0.135,0.663-0.67,0.771-1.482c0.125-1.229,0.125-3.348,0.125-5.87V236.611L355.154,236.611z"/>
		<path display="inline" fill="#D0D2D3" d="M207.236,111.247c0.049-11.943,7.092-22.504,17.824-27.238   c10.861,4.781,17.872,15.41,18.143,27.476l-0.063,62.467h-36.007L207.236,111.247z M254.105,109.564   c-1.168-17.515-13.022-32.092-29.045-37.123c-16.625,5.156-28.779,20.623-28.779,38.928l0.01,73.41h57.814V109.564z"/>
		<g display="inline">
			<g>
				<defs>
					<path id="SVGID_2_" d="M192.288,109.958c0-22.067,13.053-41.516,32.868-50.275c19.792,8.759,32.956,28.225,32.956,50.275v77.851      l-65.801,0.063L192.288,109.958z M172.465,110.08l0.007,1.289v96.29l105.213,0.075l0,0v-97.72      c0-33.573-22.074-62.006-52.529-71.538C194.724,48.008,172.465,76.459,172.465,110.08"/>
				</defs>
				<clipPath id="SVGID_3_">
					<use xlink:href="#SVGID_2_" overflow="visible"/>
				</clipPath>
				<linearGradient id="SVGID_4_" gradientUnits="userSpaceOnUse" x1="-1470.6055" y1="-2609.9282" x2="-1470.2852" y2="-2609.9282" gradientTransform="matrix(407.6805 -206.8282 206.8282 407.6805 1139493 760015.75)">
					<stop offset="0" style="stop-color:#005480"/>
					<stop offset="1" style="stop-color:#0092D0"/>
				</linearGradient>
				<polygon clip-path="url(#SVGID_3_)" fill="url(#SVGID_4_)" points="104.222,73.089 256.208,-4 346.004,173.059 194.024,250.18         "/>
			</g>
		</g>
		<g display="inline">
			<g>
				<defs>
					<path id="SVGID_5_" d="M216.265,115.38c-0.128-11.165,8.939-14.712,8.939-14.712c9.46,3.74,8.917,14.712,8.917,14.712v49.807      h-17.855L216.265,115.38L216.265,115.38z M210.851,115.38v55.282h28.762v-55.349c0,0,0.849-15.546-14.409-20.478      C225.204,94.835,210.851,98.953,210.851,115.38"/>
				</defs>
				<clipPath id="SVGID_6_">
					<use xlink:href="#SVGID_5_" overflow="visible"/>
				</clipPath>
				<linearGradient id="SVGID_7_" gradientUnits="userSpaceOnUse" x1="-1460.584" y1="-2589.374" x2="-1460.2633" y2="-2589.374" gradientTransform="matrix(87.5314 0 0 -87.5314 128057.7969 -226518.75)">
					<stop offset="0" style="stop-color:#231F20"/>
					<stop offset="0.5165" style="stop-color:#6D6E70"/>
					<stop offset="1" style="stop-color:#231F20"/>
				</linearGradient>
				<rect x="210.851" y="94.835" clip-path="url(#SVGID_6_)" fill="url(#SVGID_7_)" width="29.61" height="75.827"/>
			</g>
		</g>
		<g display="inline">
			<g>
				<defs>
					<path id="SVGID_8_" d="M216.265,115.38c-0.128-11.165,8.939-14.712,8.939-14.712c9.46,3.74,8.917,14.712,8.917,14.712v49.807      h-17.855L216.265,115.38L216.265,115.38z M210.851,115.38v55.282h28.762v-55.349c0,0,0.849-15.546-14.409-20.478      C225.204,94.835,210.851,98.953,210.851,115.38"/>
				</defs>
				<clipPath id="SVGID_9_">
					<use xlink:href="#SVGID_8_" overflow="visible"/>
				</clipPath>
				<linearGradient id="SVGID_10_" gradientUnits="userSpaceOnUse" x1="-1460.9814" y1="-2626.1172" x2="-1460.6611" y2="-2626.1172" gradientTransform="matrix(90.0275 0 0 90.0275 131739.3594 236555.5)">
					<stop offset="0" style="stop-color:#231F20"/>
					<stop offset="0.5165" style="stop-color:#6D6E70"/>
					<stop offset="1" style="stop-color:#231F20"/>
				</linearGradient>
				<rect x="210.851" y="94.835" clip-path="url(#SVGID_9_)" fill="url(#SVGID_10_)" width="29.61" height="75.827"/>
			</g>
		</g>
	</g>
	<g>
		<g>
			<g>
				<path fill="none" d="M219.643,304.383v2.31h1.682c1.406,0,1.787-1.493,1.787-2.651c0-1.13-0.38-2.291-1.684-2.291     C220.02,301.75,219.643,303.213,219.643,304.383z"/>
				<path d="M214.532,306.947c0,0.342,0.259,0.604,0.597,0.604c0.331,0,0.593-0.262,0.593-0.604c0-0.337-0.263-0.597-0.593-0.597     C214.791,306.351,214.532,306.61,214.532,306.947z"/>
				<path d="M219.207,301.832c-0.536,0.583-0.754,1.343-0.754,2.128v3.012c0,1.063-0.372,2.47-1.669,2.47v1.422     c1.61,0,2.859-1.222,2.859-2.867v-0.445h1.784c0.672,0,1.663-0.419,2.139-0.94c0.611-0.665,0.831-1.489,0.831-2.392     c0-1.826-1.187-3.332-3.073-3.332C220.496,300.887,219.761,301.206,219.207,301.832z M223.111,304.041     c0,1.158-0.38,2.651-1.787,2.651h-1.682v-2.31c0-1.17,0.377-2.633,1.784-2.633C222.731,301.75,223.111,302.911,223.111,304.041z"/>
				<path d="M208.399,301.832c-0.53,0.583-0.75,1.343-0.75,2.128v3.012c0,1.063-0.377,2.47-1.667,2.47v1.422     c1.605,0,2.853-1.222,2.853-2.867v-0.445h1.787c0.674,0,1.662-0.419,2.138-0.94c0.615-0.665,0.832-1.489,0.832-2.392     c0-1.826-1.191-3.332-3.074-3.332C209.689,300.887,208.96,301.206,208.399,301.832z M212.303,304.041     c0,1.158-0.375,2.651-1.784,2.651h-1.683v-2.31c0-1.17,0.376-2.633,1.787-2.633C211.928,301.75,212.303,302.911,212.303,304.041z     "/>
				<path d="M225.523,306.947c0,0.342,0.26,0.604,0.59,0.604c0.342,0,0.598-0.262,0.598-0.604c0-0.337-0.256-0.597-0.598-0.597     C225.783,306.351,225.523,306.61,225.523,306.947z"/>
				<path d="M234.139,301.753h-3.854c-0.444,0-0.8-0.038-1.084-0.12c-0.281-0.079-0.582-0.199-0.859-0.377v2.182     c0.277-0.16,0.578-0.295,0.859-0.377c0.259-0.079,0.64-0.121,1.084-0.121h4.156c0.764,0,1.363,0.156,1.809,0.456     c0.438,0.297,0.664,0.711,0.664,1.21c0,0.516-0.139,1.078-0.58,1.394c-0.439,0.302-1.129,0.593-1.893,0.593h-4.156     c-0.444,0-0.893,0-0.893,0l-1.566,0.959c0,0,2.015,0,2.459,0h5.18c0.785,0,1.449-0.39,1.99-0.866     c0.582-0.515,0.884-1.187,0.884-1.979v-0.178c0-0.793-0.302-1.468-0.884-1.979c-0.541-0.482-1.184-0.796-1.99-0.796h-0.461     H234.139z"/>
				<path d="M228.913,299.735c0,0.348,0.252,0.611,0.59,0.611c0.323,0,0.597-0.264,0.597-0.611c0-0.334-0.273-0.596-0.597-0.596     C229.165,299.14,228.913,299.401,228.913,299.735z"/>
			</g>
			<g>
				<g>
					<g>
						<g>
							<path fill="#1D1D1B" d="M100.329,293.12c1.581,0,2.8-1.076,2.8-2.48c0-1.321-1.219-2.479-2.8-2.479        c-1.5,0-2.803,1.158-2.803,2.479C97.525,292.044,98.829,293.12,100.329,293.12"/>
							<path fill="#1D1D1B" d="M106.767,293.12c1.584,0,2.799-1.076,2.799-2.48c0-1.321-1.215-2.479-2.799-2.479        c-1.495,0-2.799,1.158-2.799,2.479C103.968,292.044,105.271,293.12,106.767,293.12"/>
						</g>
						<path fill="#1D1D1B" d="M286.96,268.642c1.588,0,2.8-1.073,2.8-2.478c0-1.321-1.212-2.483-2.8-2.483       c-1.493,0-2.797,1.162-2.797,2.483C284.163,267.568,285.467,268.642,286.96,268.642"/>
						<path fill="#1D1D1B" d="M293.397,268.642c1.588,0,2.807-1.073,2.807-2.478c0-1.321-1.219-2.483-2.807-2.483       c-1.492,0-2.804,1.162-2.804,2.483C290.594,267.568,291.905,268.642,293.397,268.642"/>
						<path fill="#1D1D1B" d="M105.047,271.774c0.413,0.672,0.721,1.312,0.924,1.948c0.203,0.631,0.305,1.448,0.305,2.443v8.693       h-1.484h-1.126h-1.123h-1.225h-0.182h-0.849h-0.174h-1.225h-1.023h-1.226h-2.121h-1.227h-4.274v0.047h-0.003v1.904h0.003h3.61       h0.664h1.227h2.121h1.226h1.023h1.225h0.174h0.849h0.182h1.225h1.123h1.126h4.551v-1.951v-0.941v-7.752       c0-0.995,0.103-1.813,0.305-2.443c0.207-0.637,0.515-1.276,0.973-1.948H105.047z"/>
						<path fill="#1D1D1B" d="M155.23,286.938h6.086c-1.116-1.498-1.393-2.678-1.393-4.395v-13.994c0-1.721,0.277-2.895,1.393-4.395       h-6.086c1.06,1.631,1.336,2.309,1.336,4.209v14.361C156.567,284.625,156.29,285.305,155.23,286.938"/>
						<path fill="#1D1D1B" d="M219.523,285.014c0.11-0.946,0.11-1.852,0.11-2.808v-2.988c0-4.029-3.279-7.337-7.94-7.337       c-2.143,0-4.083,0.726-5.514,2.125c-1.381,1.318-1.901,3.041-1.901,4.803v6.161h0.546h1.234h-1.234h-0.546v0.044h-0.863l0,0       h-0.834h-1.023h-0.391h-0.835h-0.394h-27.194h-0.394h-0.832h-0.391h-0.629H170.1h-0.834h-0.392h-0.628h-0.395h-0.835h-0.398       h-0.625h-0.395h-0.832h-0.394h-0.629h-0.395h-0.834h-0.395h-0.628H161.1h-0.838h-0.388h-0.636l-1.225-0.044h-1.024h-0.045v1.95       h0.045h1.024h1.225h0.636h0.388h0.838h0.391h0.628h0.395h0.834h0.395h0.629h0.394h0.832h0.395h0.625h0.398h0.835h0.395h0.628       h0.392h0.834h0.397h0.629h0.391h0.832h0.394h27.194h0.394h0.835h0.391h0.22h0.803h0.834h0.398h0.465h0.546h1.234h-1.234h-0.546       v4.303h7.625c2.97,0,5.982-1.857,7.06-4.303h1.226v-1.906H219.523z M216.301,283.293c0,2.629-0.97,5.937-4.608,5.937h-4.338       v-9.465c0-2.589,1.023-5.979,4.601-5.979c3.168,0,4.345,2.582,4.345,4.98V283.293z"/>
						<path fill="#1D1D1B" d="M344.7,286.757h6.09c-1.116-1.492-1.396-2.668-1.396-4.388V268.37c0-1.719,0.28-2.891,1.396-4.387       h-6.09c1.063,1.624,1.336,2.306,1.336,4.209v14.354C346.036,284.45,345.763,285.134,344.7,286.757"/>
						<path fill="#1D1D1B" d="M301.079,286.757h6.082c-1.115-1.492-1.39-2.668-1.39-4.388V268.37c0-1.719,0.274-2.891,1.39-4.387       h-6.082c1.051,1.624,1.335,2.306,1.335,4.209v14.354C302.414,284.45,302.13,285.134,301.079,286.757"/>
						<path fill="#1D1D1B" d="M241.525,286.938h6.09c-1.119-1.498-1.4-2.678-1.4-4.395v-13.994c0-1.721,0.281-2.898,1.4-4.395h-6.09       c1.059,1.631,1.34,2.306,1.34,4.214v14.356C242.865,284.625,242.584,285.305,241.525,286.938"/>
						<path fill="#1D1D1B" d="M348.499,261.436c-0.402,0.271-1.021,0.37-1.532,0.37h-0.816c-1.069,0-1.326-1.136-1.326-1.862       c0-0.771,0.309-1.587,1.326-1.587c0.617,0,0.97,0.315,1.226,0.771l-0.044,0.178c-0.056,0.227-0.212,0.409-0.315,0.597h1.741       c-0.52-1.137-0.866-2.132-2.502-2.132c-1.592,0-2.455,0.945-2.455,2.313c0,0.678,0.15,1.218,0.719,1.723       c-0.622,0-1.127-0.1-1.635-0.37v0.956h5.614V261.436z"/>
						<path fill="#1D1D1B" d="M316.491,293.127c2.103,0,3.782-0.682,5.169-1.989c1.226-1.227,1.992-2.672,1.992-4.487V276.06       c0-0.995,0.104-1.812,0.314-2.438c0.191-0.64,0.504-1.322,0.966-1.954h-5.582c0.412,0.632,0.721,1.314,0.923,1.954       c0.21,0.626,0.311,1.442,0.311,2.438v9.376c0,1.724-0.416,3.084-1.173,4.075c-0.774,0.994-1.844,1.499-3.123,1.499h-11.386       l-4.666,2.117h16.052H316.491z"/>
						<path fill="#1D1D1B" d="M341.647,284.394v-5.747c0-1.685-0.663-3.582-1.938-4.804c-1.439-1.449-3.333-2.132-5.483-2.132       c-4.855,0-7.922,3.396-7.922,7.521c0,2.042,0.558,3.854,2.146,5.389c1.176,1.13,3.532,2.082,5.219,2.082       c1.639,0,3.272-0.047,4.911,0c-0.569,2.399-1.585,4.307-4.65,4.307c-1.489,0-3.134-0.639-4.25-1.499h-3.527       c1.526,3.087,4.341,3.573,8.132,3.573c4.551,0,7.364-2.664,7.364-6.381v-1.946V284.394z M338.579,284.757       c-1.435,0-2.913,0.042-4.354,0.042c-3.622,0-4.601-3.354-4.601-5.975c0-2.491,1.027-5.202,4.346-5.202       c3.592,0,4.608,3.394,4.608,5.969V284.757z"/>
						<path fill="#1D1D1B" d="M293.966,273.843c-1.436-1.449-3.326-2.132-5.479-2.132c-4.857,0-7.919,3.396-7.919,7.521       c0,2.042,0.554,3.854,2.146,5.389c1.177,1.13,3.524,2.082,5.22,2.082c1.592,0,3.187-0.043,4.777,0       c-0.148,1.133-0.521,2.075-1.079,2.808c-0.179,0.228-0.373,0.418-0.576,0.597c-0.035,0.028-0.067,0.058-0.103,0.081       c-0.106,0.093-0.238,0.153-0.362,0.234c-0.626,0.359-1.396,0.587-2.399,0.587h-6.813h-0.864h-3.4h-7.986       c-1.271,0-2.359-0.505-3.12-1.499c-0.767-0.991-1.179-2.352-1.179-4.075v-3.954c0-0.995,0.104-1.813,0.305-2.445       c0.211-0.639,0.52-1.313,0.925-1.946h-5.57c0.454,0.633,0.767,1.308,0.962,1.946c0.21,0.633,0.313,1.45,0.313,2.445v5.169       c0,1.815,0.764,3.261,1.994,4.487c1.377,1.308,3.068,1.989,5.169,1.989h0.202h3.329h12.723h3.325h0.202       c2.1,0,3.785-0.682,5.166-1.989c1.227-1.227,1.997-2.672,1.997-4.487v-0.303c0.028-0.248,0.036-0.489,0.036-0.738v-0.853       v-0.363v-5.747C295.906,276.962,295.241,275.064,293.966,273.843z M288.487,284.799c-3.632,0-4.597-3.354-4.597-5.975       c0-2.491,1.019-5.202,4.352-5.202c3.194,0,4.345,2.708,4.555,5.116v6.019C291.386,284.757,289.911,284.799,288.487,284.799z"/>
						<path fill="#1D1D1B" d="M82.121,268.642c1.585,0,2.796-1.073,2.796-2.478c0-1.321-1.211-2.483-2.796-2.483       c-1.496,0-2.804,1.162-2.804,2.483C79.317,267.568,80.625,268.642,82.121,268.642"/>
						<path fill="#1D1D1B" d="M88.559,268.642c1.584,0,2.799-1.073,2.799-2.478c0-1.321-1.215-2.483-2.799-2.483       c-1.497,0-2.804,1.162-2.804,2.483C85.755,267.568,87.062,268.642,88.559,268.642"/>
						<path fill="#1D1D1B" d="M90.932,273.948c-1.436-1.445-3.325-2.131-5.479-2.131c-4.856,0-7.922,3.396-7.922,7.524       c0,2.033,0.561,3.848,2.146,5.387c1.18,1.13,3.528,2.082,5.219,2.082c1.635,0,4.907,0,4.907,0h3.073v-1.951v-0.358v-5.753       C92.875,277.068,92.208,275.171,90.932,273.948z M89.802,284.859c-1.432,0-2.917,0.047-4.349,0.047       c-3.627,0-4.597-3.354-4.597-5.98c0-2.49,1.02-5.2,4.345-5.2c3.582,0,4.601,3.394,4.601,5.976V284.859z"/>
						<path fill="#FFFFFF" d="M211.881,273.672c-3.574,0-4.601,3.396-4.601,5.982v9.465h4.346c3.634,0,4.604-3.305,4.604-5.933       v-4.526C216.23,276.258,215.053,273.672,211.881,273.672z"/>
						<path fill="#1D1D1B" d="M237.4,282.521v-14.036c0-0.999,0.11-1.812,0.31-2.445c0.206-0.64,0.513-1.269,0.921-1.95h-6.094       c0.462,0.682,0.768,1.311,0.974,1.95c0.202,0.634,0.31,1.446,0.31,2.445v16.528h-1.041h-1.127h-1.123h-1.229h-0.174h-0.85       h-0.172h-1.238h-1.016h-1.223h-1.03h-1.227h-2.252l0,0h-0.661c0.096-0.946,0.096-1.852,0.096-2.808v-2.988       c0-4.029-3.276-7.337-7.93-7.337c-2.153,0-4.089,0.726-5.521,2.125c-1.382,1.318-1.894,3.041-1.894,4.803v6.161h0.55h1.226       h-1.226h-0.55v0.044h-0.867l0,0h-0.839h-1.019h-0.397h-0.829h-0.394h-4.011v1.906h4.011h0.394h0.829h0.397h0.217h0.802h0.839       h0.391h0.476h0.55h1.226h-1.226h-0.55v4.303h7.621c2.966,0,5.982-1.857,7.06-4.303h1.229h1.588h0.664h1.227h1.03h1.223h1.016       h1.238h0.172h0.85h0.174h1.229h1.123h1.127h5.852c-0.408-0.686-0.715-1.313-0.921-1.95       C237.511,284.341,237.4,283.521,237.4,282.521z M216.23,283.293c0,2.629-0.97,5.937-4.604,5.937h-4.346v-9.465       c0-2.589,1.027-5.979,4.601-5.979c3.172,0,4.349,2.582,4.349,4.98V283.293z"/>
						<path fill="#1D1D1B" d="M150.851,282.412V268.37c0-0.994,0.103-1.804,0.298-2.447c0.213-0.629,0.515-1.258,0.931-1.939h-6.097       c0.461,0.682,0.768,1.311,0.974,1.939c0.202,0.644,0.304,1.453,0.304,2.447v16.489h-1.037h-1.126h-1.126h-1.226h-0.182h-0.842       h-0.177h-1.229h-1.019h-28.53h-1.027h-0.924v1.951h0.924h1.027h28.53h1.019h1.229h0.177h0.842h0.182h1.226h1.126h1.126h5.855       c-0.416-0.683-0.718-1.315-0.931-1.951C150.953,284.231,150.851,283.414,150.851,282.412z"/>
						<path fill="#1D1D1B" d="M360.809,263.973c0.921,1.45,1.229,2.722,1.229,4.413v17.327c0,2.12-0.792,4.252-2.785,5.098       l-1.837,0.124l-2.529,0.004c1.311-1.35,2.16-3.076,2.16-4.781v-17.771c0-1.776,0.252-2.871,1.281-4.413h-5.989       c0.924,1.45,1.229,2.722,1.229,4.413v17.327c0,2.12-0.791,4.252-2.784,5.098l-2.079,0.143l-2.728,2.345h1.989h2.817h8.47       c3.429-0.731,6.257-3.997,6.257-7.141v-17.771c0-1.776,0.26-2.871,1.285-4.413H360.809z"/>
					</g>
				</g>
			</g>
			<g>
				<g>
					<path fill="#1D1D1B" d="M266.005,231.564c1.577,0,2.774-1.089,2.774-2.502c0-1.339-1.197-2.508-2.774-2.508      c-1.478,0-2.778,1.169-2.778,2.508C263.227,230.476,264.527,231.564,266.005,231.564"/>
					<path fill="#1D1D1B" d="M272.389,231.564c1.575,0,2.775-1.089,2.775-2.502c0-1.339-1.2-2.508-2.775-2.508      c-1.48,0-2.773,1.169-2.773,2.508C269.615,230.476,270.908,231.564,272.389,231.564"/>
					<path fill="#1D1D1B" d="M160.044,255.809c1.575,0,2.775-1.095,2.775-2.505c0-1.34-1.201-2.509-2.775-2.509      c-1.478,0-2.778,1.169-2.778,2.509C157.267,254.714,158.567,255.809,160.044,255.809"/>
					<path fill="#1D1D1B" d="M166.426,255.809c1.578,0,2.778-1.095,2.778-2.505c0-1.34-1.201-2.509-2.778-2.509      c-1.478,0-2.778,1.169-2.778,2.509C163.648,254.714,164.948,255.809,166.426,255.809"/>
					<path fill="#1D1D1B" d="M249.829,246.07c0,2.654-0.964,5.993-4.558,5.993h-4.314v-9.557c0-2.608,1.014-6.037,4.563-6.037      c3.144,0,4.31,2.604,4.31,5.028V246.07z M189.842,247.766c-1.417,0-2.888,0.038-4.31,0.038c-3.599,0-4.562-3.383-4.562-6.03      c0-2.518,1.012-5.264,4.309-5.264c3.553,0,4.562,3.432,4.562,6.039V247.766z M289.034,228.65      c0.203-0.64,0.508-1.279,0.917-1.969h-6.044c0.456,0.689,0.761,1.329,0.963,1.969c0.203,0.639,0.306,1.464,0.306,2.465v16.65      h-2.586h-1.219h-1.013h-1.219h-1.016h-1.212h-3.02h-1.269h-1.876v-8.78c0-1.006,0.099-1.833,0.302-2.476      c0.206-0.633,0.508-1.28,0.96-1.962h-5.521c0.401,0.682,0.711,1.329,0.909,1.962c0.202,0.643,0.309,1.47,0.309,2.476v8.78      h-1.474h-1.115h-1.116h-1.219h-1.013h0.839h-1.013h-1.215h-1.013h-1.219h-1.017h-1.215h-2.234v0.038h-0.657      c0.103-0.952,0.103-1.872,0.103-2.832v-3.013c0-4.071-3.25-7.411-7.857-7.411c-2.137,0-4.062,0.731-5.479,2.153      c-1.372,1.321-1.883,3.059-1.883,4.84v6.263h-0.856v-0.038h-2.23h-1.217h-1.015h-1.22h-1.012h-1.215h-1.017h-1.215h-1.017      h-1.215h-1.013h-1.222h-1.016h-1.211h-1.012h-1.218h-1.013h-1.219h-1.013h-1.218h-1.013h-1.215h-1.016h-1.219h-1.013h-1.218      h-1.013h-1.219h-1.016h-1.212h-1.016h-1.219h-1.013h-1.218h-1.013h-1.211h-0.619h-1.616h-0.562v-6.176      c0-1.691-0.661-3.61-1.929-4.851c-1.415-1.46-3.297-2.149-5.426-2.149c-4.818,0-7.855,3.433-7.855,7.59      c0,2.061,0.554,3.891,2.128,5.442c1.165,1.145,3.5,2.104,5.169,2.104c1.624,0,3.247-0.042,4.867,0      c-0.554,2.426-1.57,4.35-4.615,4.35c-1.467,0-3.091-0.641-4.206-1.515h-3.5c1.524,3.116,4.31,4.712,8.065,4.712      c4.512,0,7.301-3.795,7.301-7.547h0.562h1.616h0.619h1.211h1.013h1.218h1.013h1.219h1.016h1.212h1.016h1.219h1.013h1.218h1.013      h1.219h1.016h1.215h1.013h1.218h1.013h1.219h1.013h1.218h1.012h1.211h1.016h1.222h1.013h1.215h1.017h1.215h1.017h1.215h1.012      h1.22h1.015h1.217h0.607h1.623h0.856v4.35h7.563c2.938,0,5.93-1.877,6.992-4.35h1.219h1.57h0.664h1.215h1.017h1.219h1.013h1.215      h1.013h-0.839h1.013h1.219h1.116h1.115h6.392h1.269h3.02h1.212h1.016h1.219h1.013h1.219h7.361      c-0.409-0.682-0.714-1.321-0.917-1.96c-0.202-0.64-0.302-1.464-0.302-2.474v-14.177      C288.732,230.114,288.832,229.289,289.034,228.65"/>
					<path fill="#1D1D1B" d="M304.297,253.933h11.292c1.265,0,2.33-0.498,3.091-1.507c0.76-1.002,1.169-2.38,1.169-4.114v-9.466      c0-1.001-0.104-1.825-0.311-2.472c-0.201-0.632-0.503-1.322-0.911-1.969h5.531c-0.459,0.646-0.765,1.337-0.963,1.969      c-0.207,0.646-0.31,1.471-0.31,2.472v11.797c0,1.833-0.76,3.29-1.979,4.53c-1.368,1.321-3.037,2.014-5.115,2.014h-0.202h-15.914      L304.297,253.933z"/>
					<path fill="#1D1D1B" d="M332.741,226.725h-6.039c1.051,1.648,1.325,2.338,1.325,4.254v14.498c0,1.922-0.274,2.608-1.325,4.249      h6.039c-1.104-1.507-1.386-2.696-1.386-4.434v-14.126C331.355,229.426,331.637,228.238,332.741,226.725"/>
					<path fill="#1D1D1B" d="M298.063,226.725h-6.036c1.051,1.648,1.328,2.338,1.328,4.254v14.498c0,1.922-0.277,2.608-1.328,4.249      h6.036c-1.108-1.507-1.386-2.696-1.386-4.434v-14.126C296.677,229.426,296.954,228.238,298.063,226.725"/>
					<path fill="#1D1D1B" d="M336.571,235.877h22.44c0,0,7.709-0.568,7.709,6.835c0,0,0.388,6.637-7.418,6.73h-22.54l3.561-2.015      h19.074c0,0,3.209-0.131,3.084-4.911c0,0,0.284-4.14-2.408-4.423h-19.75L336.571,235.877z"/>
					<path fill="#1D1D1B" d="M168.902,245.292v-6.307c0-1.055,0.103-1.879,0.302-2.516c0.202-0.64,0.508-1.282,0.914-1.922h-5.525      c0.458,0.64,0.761,1.282,0.963,1.922c0.198,0.683,0.305,1.51,0.305,2.516v8.78h-2.586h-1.218h-1.013h-1.215h-1.016h-1.215      h-1.016h-1.219h-1.012h-1.219h-1.013h-1.215h-1.012h-1.219h-1.016h-1.215h-1.016h-1.219h-1.016h-1.211h-1.012h-1.219h-1.017      h-1.215H136.5h-1.215h-1.016h-1.211h-1.016h-1.219h-1.016h-1.215h-1.012h-1.222h-1.013h-1.212h-1.016h-1.219h-1.012h-1.219      h-1.013h-1.218h-1.017h-1.211h-1.017h-1.218h-1.013h-1.219h-1.013h-1.214h-1.017h-1.215h-1.016h-1.215h-1.014h-1.218h-0.5      h-1.218h-1.013h-1.215h-1.017h-1.219h-0.71h-1.521h-0.558v-16.6c0-1.009,0.102-1.834,0.305-2.473      c0.203-0.641,0.506-1.279,0.963-1.962h-6.09c0.452,0.683,0.761,1.321,0.963,1.962c0.203,0.639,0.301,1.464,0.301,2.473v17.284      c0,1.733-0.404,3.109-1.168,4.068c-0.757,1.009-1.822,1.507-3.091,1.507c-1.322,0-2.38-0.498-3.141-1.507      c-0.763-1.009-1.119-2.335-1.119-4.068v-1.283h-3.092v3.61c0,1.786,0.807,3.298,2.025,4.529      c1.318,1.329,3.045,2.015,5.074,2.015h0.455c2.028,0,3.755-0.686,5.069-2.015c1.219-1.231,2.545-2.743,2.545-4.529v-1.052h0.558      h1.521h0.71h1.219h1.017h1.215h1.013h1.218h0.5h1.218h1.014h1.215h1.016h1.215h1.017h1.214h1.013h1.219h1.013h1.218h1.017h1.211      h1.017h1.218h1.013h1.219h1.012h1.219h1.016h1.212h1.013h1.222h1.012h1.215h1.016h1.219h1.016h1.211h1.016h1.215h1.016h1.215      h1.017h1.219h1.012h1.211h1.016h1.219h1.016h1.215h1.016h1.219h1.012h1.215h1.013h1.219h1.012h1.219h1.016h1.215h1.016h1.215      h1.013h1.218h6.843c-0.405-0.682-0.711-1.321-0.914-1.96C169.005,247.126,168.902,246.302,168.902,245.292"/>
				</g>
			</g>
		</g>
		<g>
			<path fill="#D9D9D9" d="M203.944,108.406c0.081-12.247,7.287-23.062,18.29-27.922c11.07,4.891,18.311,15.801,18.581,28.115    l-0.089,63.99h-36.847L203.944,108.406z M251.939,106.667c-1.188-17.917-13.267-32.887-29.705-38.037    c-17.029,5.333-29.489,21.124-29.489,39.902l0.043,75.143h59.151V106.667z"/>
			<g>
				<defs>
					<path id="SVGID_11_" d="M188.67,107.052c0-22.601,13.377-42.515,33.656-51.466c20.255,8.951,33.77,28.907,33.77,51.466v79.675      l-67.386,0.038L188.67,107.052z M168.387,107.168l0.003,1.352v98.53l107.747,0.063l-0.003-99.993      c0-34.384-22.628-63.473-53.808-73.233C191.139,43.647,168.387,72.789,168.387,107.168"/>
				</defs>
				<clipPath id="SVGID_12_">
					<use xlink:href="#SVGID_11_" overflow="visible"/>
				</clipPath>
				<linearGradient id="SVGID_13_" gradientUnits="userSpaceOnUse" x1="13.3652" y1="285.541" x2="14.6341" y2="285.541" gradientTransform="matrix(105.1481 -53.3447 -53.3447 -105.1481 13971.1484 30896.9883)">
					<stop offset="0" style="stop-color:#00537E"/>
					<stop offset="1" style="stop-color:#008ACB"/>
				</linearGradient>
				<polygon clip-path="url(#SVGID_12_)" fill="url(#SVGID_13_)" points="98.492,69.346 254.081,-9.589 346.032,171.656      190.443,250.593    "/>
			</g>
			<g>
				<defs>
					<path id="SVGID_14_" d="M213.199,112.632c-0.092-11.45,9.169-15.109,9.169-15.109c9.725,3.843,9.179,15.109,9.179,15.109v51.015      h-18.348V112.632z M207.689,112.632v56.6h29.446V112.54c0,0,0.832-15.937-14.767-20.973      C222.368,91.567,207.689,95.783,207.689,112.632"/>
				</defs>
				<linearGradient id="SVGID_15_" gradientUnits="userSpaceOnUse" x1="207.689" y1="130.3999" x2="236.345" y2="130.3999">
					<stop offset="0" style="stop-color:#1D1D1B"/>
					<stop offset="0.5165" style="stop-color:#6F6F6E"/>
					<stop offset="1" style="stop-color:#1D1D1B"/>
				</linearGradient>
				<use xlink:href="#SVGID_14_" overflow="visible" fill="url(#SVGID_15_)"/>
				<clipPath id="SVGID_16_">
					<use xlink:href="#SVGID_14_" overflow="visible"/>
				</clipPath>
				<linearGradient id="SVGID_17_" gradientUnits="userSpaceOnUse" x1="84.1963" y1="286.0352" x2="85.4656" y2="286.0352" gradientTransform="matrix(23.2097 0 0 -23.2097 -1746.4955 6769.1953)">
					<stop offset="0" style="stop-color:#1D1D1B"/>
					<stop offset="0.5165" style="stop-color:#6F6F6E"/>
					<stop offset="1" style="stop-color:#1D1D1B"/>
				</linearGradient>
				<rect x="207.689" y="91.567" clip-path="url(#SVGID_16_)" fill="url(#SVGID_17_)" width="30.278" height="77.665"/>
			</g>
		</g>
	</g>
</svg>