<svg xmlns="http://www.w3.org/2000/svg" viewBox="0 0 250 250" version="1.1">
	<rect width="100%" height="100%" fill="lightgrey" />
	<path name="bar" d="M 7.922 2.274 C 6.066 3.524, 3.516 6.078, 2.256 7.948 L -0.036 11.349 0.232 114.946 L 0.500 218.543 3.935 225.522 C 8.341 234.470, 15.525 241.656, 24.474 246.065 L 31.447 249.500 48.724 249.833 L 66 250.165 66 130.730 L 66 11.296 63.726 7.922 C 62.476 6.066, 59.934 3.524, 58.078 2.274 C 54.826 0.082, 53.919 0, 33 0 C 12.081 0, 11.174 0.082, 7.922 2.274" stroke="none" fill="#fc3434" fill-rule="evenodd"/>
	<path name="top" d="M 85.389 1.905 C 83.677 2.948, 81.202 5.309, 79.889 7.151 C 77.540 10.444, 77.500 10.877, 77.500 33.078 L 77.500 55.656 80.382 59.434 C 85.549 66.208, 83.312 66, 150.999 66 C 209.789 66, 212.288 65.924, 218.110 63.963 C 232.851 58.997, 243.671 48.156, 248.105 33.909 C 249.582 29.164, 250 24.755, 250 13.911 L 250 0 169.250 0.004 C 91.721 0.007, 88.376 0.083, 85.389 1.905" stroke="none" fill="#fc3434" fill-rule="evenodd"/>
	<!-- <path name="triangle" d="M 78.513 77.339 C 77.180 79.374, 77.015 86.026, 77.240 128.481 L 77.500 177.285 80.271 179.354 L 83.043 181.422 131.990 156.995 C 173.166 136.445, 181.114 132.140, 182.052 129.874 C 182.876 127.886, 182.872 126.629, 182.037 125.069 C 180.660 122.496, 86.264 75, 82.527 75 C 81.030 75, 79.438 75.927, 78.513 77.339" stroke="none" fill="#2cace4" fill-rule="evenodd"/> -->
	<path fill="magenta" d="
		M 77.5,79.5
		L 77.5,175
		C 77.5,175 77.5,180 83,180.4
		C 84,180.4 85,180.3 86,179.8
		L 180,132.5
		L 180,122.8
		L 84,75
		" />
</svg>
