<?xml version="1.0" ?>
<!-- Generator: Adobe Illustrator 26.2.1, SVG Export Plug-In . SVG Version: 6.00 Build 0)  -->
<svg xmlns="http://www.w3.org/2000/svg" version="1.2" baseProfile="tiny-ps" xml:space="preserve">
	<g id="design">
		<g>
			<path fill="#131A1C" d="M57.34,45.76c-0.76,0.01-1.4,0.16-1.92,0.43c-0.52,0.28-0.78,0.8-0.78,1.58c0,0.59,0.22,1.02,0.66,1.27    c0.44,0.25,0.96,0.38,1.55,0.38l4.65-0.02c0.17,0.01,0.35,0.02,0.53,0.02c0.19,0,0.37,0.01,0.56,0.02    c0.54,0.03,1.08,0.11,1.6,0.24c0.53,0.13,0.99,0.38,1.39,0.73c0.37,0.31,0.65,0.69,0.84,1.12c0.18,0.44,0.3,0.89,0.35,1.36    c0.01,0.14,0.03,0.28,0.03,0.41c0.01,0.13,0.01,0.27,0.01,0.41c-0.03,1.77-0.57,2.97-1.6,3.59c-1.04,0.63-2.45,0.94-4.23,0.94    h-9.34v-2.71h8.78c0.77,0.01,1.44-0.1,2.01-0.34c0.57-0.24,0.79-0.78,0.69-1.63c-0.08-0.66-0.35-1.07-0.81-1.23    c-0.46-0.15-1.01-0.24-1.65-0.25l-4.14-0.02c-1.72,0.01-3.08-0.3-4.08-0.94c-1-0.64-1.49-1.8-1.48-3.49    c0.03-1.77,0.57-2.97,1.62-3.62c1.05-0.64,2.46-0.96,4.24-0.96L66,43.05v2.71L57.34,45.76L57.34,45.76L57.34,45.76z"/>
			<path fill="#131A1C" d="M72.58,47.18c-0.5,1-0.77,2.17-0.81,3.5v0.69c0,0.23,0.01,0.47,0.02,0.71c0.05,0.5,0.15,0.98,0.3,1.45    c0.16,0.47,0.41,0.89,0.77,1.26c0.37,0.38,0.8,0.62,1.29,0.71c0.49,0.09,0.99,0.14,1.5,0.14h0.1h0.1l5.76-0.02v2.65h-5.93    c-0.95,0-1.86-0.08-2.73-0.23c-0.88-0.16-1.7-0.52-2.47-1.08c-0.93-0.69-1.58-1.54-1.95-2.53c-0.37-1-0.57-2.02-0.6-3.06    c-0.02-0.23-0.02-0.45-0.01-0.66c0.01-0.21,0.02-0.42,0.03-0.64c0.17-2.4,0.89-4.17,2.15-5.3c1.26-1.13,3.16-1.7,5.68-1.7    l5.83-0.02v2.61h-5.76C74.17,45.67,73.08,46.18,72.58,47.18"/>
			<path fill="#131A1C" d="M87.34,47.18c-0.5,1-0.77,2.17-0.81,3.5v0.69c0,0.23,0.01,0.47,0.02,0.71c0.05,0.5,0.15,0.98,0.3,1.45    c0.15,0.47,0.41,0.89,0.77,1.26c0.37,0.38,0.8,0.62,1.29,0.71c0.49,0.09,0.99,0.14,1.5,0.14h0.1h0.1l5.76-0.02v2.65h-5.93    c-0.94,0-1.86-0.08-2.73-0.23c-0.88-0.16-1.7-0.52-2.47-1.08c-0.93-0.69-1.58-1.54-1.95-2.53c-0.37-1-0.57-2.02-0.6-3.06    c-0.02-0.23-0.02-0.45-0.01-0.66c0.01-0.21,0.02-0.42,0.03-0.64c0.17-2.4,0.89-4.17,2.15-5.3c1.26-1.13,3.16-1.7,5.68-1.7    l5.83-0.02v2.61h-5.76C88.92,45.67,87.83,46.18,87.34,47.18"/>
			<path fill="#189CD8" d="M40.81,65.12c0,0-0.56-4.29-9.86-4.29c-9.3,0-23.13,3.15-28.8,5.18c11-4.77,18.68-8.45,29.77-15.13    s21.19-16.82,22.33-18.6C52.14,37.46,40.81,65.12,40.81,65.12"/>
		</g>
	</g>
</svg>