<?xml version="1.0" ?>
<svg xmlns:xlink="http://www.w3.org/1999/xlink" xmlns="http://www.w3.org/2000/svg" viewBox="0 0 83.7 49.8">
	<style type="text/css">
		.st804{fill:#9D9A7D;}
		.st805{fill:#3D985E;}
	</style>
	<g name="i19_scopnet" transform="translate(-693.2 -312.1)">
		<g>
			<path class="st805" d="M 744.9,343.1 C 743.5,343.1 742.0,343.1 740.6,343.0 C 739.7,342.9 739.5,343.3 739.5,344.1 C 739.6,348.7 739.5,353.2 739.6,357.8 C 739.6,358.9 739.3,359.4 738.1,359.4 C 735.6,359.3 735.6,359.4 735.6,356.9 C 735.6,352.9 735.6,348.8 735.6,344.8 C 735.6,343.1 735.6,343.1 733.8,343.1 C 732.9,343.1 732.0,343.0 731.1,343.1 C 730.4,343.2 730.2,342.8 730.2,342.1 C 730.1,339.6 730.1,339.6 732.6,339.6 C 736.7,339.6 740.7,339.7 744.9,339.7 C 744.9,340.9 744.9,342.0 744.9,343.1"/>
			<path class="st805" d="M 705.3,352.2 C 705.3,348.4 705.4,344.8 705.3,341.2 C 705.3,340.1 705.5,339.6 706.8,339.7 C 709.3,339.8 709.3,339.8 709.3,342.1 C 709.3,347.0 709.3,351.8 709.3,356.7 C 709.3,357.9 709.3,359.2 707.8,359.6 C 706.7,359.9 705.4,359.3 704.6,358.0 C 702.5,354.8 700.3,351.4 698.2,348.2 C 697.9,347.8 697.7,347.5 697.2,346.9 C 697.2,350.7 697.2,354.2 697.2,357.7 C 697.2,359.5 697.2,359.5 695.4,359.5 C 695.1,359.5 694.9,359.5 694.6,359.5 C 693.5,359.7 693.3,359.2 693.3,358.2 C 693.4,352.5 693.4,346.8 693.3,341.1 C 693.3,340.1 693.5,339.8 694.6,339.7 C 696.4,339.6 697.6,340.1 698.5,341.8 C 700.4,345.1 702.5,348.2 704.5,351.5 C 704.7,351.7 704.8,351.9 705.3,352.2"/>
			<path class="st805" d="M 713.8,347.6 C 713.8,345.4 713.9,343.1 713.8,340.9 C 713.8,340.0 714.0,339.7 714.9,339.7 C 718.5,339.8 722.1,339.8 725.7,339.7 C 726.8,339.7 727.0,340.0 727.0,341.0 C 726.9,343.2 727.0,343.2 724.8,343.2 C 722.8,343.2 720.8,343.2 718.8,343.2 C 718.0,343.2 717.7,343.3 717.7,344.3 C 717.6,347.8 717.6,347.8 721.1,347.8 C 721.3,347.8 721.5,347.8 721.7,347.8 C 724.2,347.8 724.1,347.8 724.0,350.2 C 723.9,351.1 723.6,351.3 722.8,351.3 C 721.4,351.2 720.1,351.3 718.7,351.3 C 717.9,351.3 717.6,351.6 717.6,352.4 C 717.5,355.8 717.7,356.0 721.1,356.0 C 722.7,356.0 724.3,356.0 725.9,356.0 C 726.6,356.0 726.9,356.1 727.0,357.0 C 727.1,359.5 727.1,359.6 724.5,359.5 C 722.5,359.5 720.4,359.5 718.4,359.4 C 715.3,359.3 713.9,358.0 713.8,354.9 C 713.7,352.5 713.8,350.1 713.8,347.6 L 713.8,347.6"/>
		</g>
		<g>
			<path class="st806" d="M 760.2,341.4 C 760.1,341.0 760.1,340.7 760.1,340.3 C 760.1,332.3 760.1,324.4 760.1,316.4 C 760.1,315.4 760.3,315.0 761.4,315.1 C 764.3,315.2 767.3,315.1 770.3,315.2 C 773.7,315.3 775.5,316.9 776.2,320.0 C 776.9,323.5 776.9,326.9 775.8,330.4 C 774.8,333.7 772.3,335.5 768.9,335.6 C 768.4,335.6 768.1,335.4 767.7,335.2 C 766.9,334.6 766.0,334.1 764.9,333.4 C 764.9,336.2 764.9,338.7 764.9,341.3 C 763.2,341.4 761.7,341.4 760.2,341.4 M 771.8,325.5 C 771.6,320.3 770.5,319.3 765.9,319.3 C 765.1,319.3 764.7,319.5 764.8,320.4 C 764.9,322.4 765.0,324.3 764.8,326.3 C 764.6,328.1 765.3,329.2 766.9,330.2 C 768.7,331.4 771.0,330.2 771.4,328.6 C 771.7,327.4 771.8,326.3 771.8,325.5"/>
			<path class="st806" d="M 750.8,314.7 C 751.1,315.2 751.7,315.0 752.1,315.1 C 755.0,316.0 756.6,318.1 757.1,321.0 C 757.7,324.2 757.7,327.4 756.9,330.5 C 756.2,333.4 754.4,335.1 751.4,335.7 C 749.9,336.0 748.4,336.0 746.9,335.8 C 743.3,335.3 741.4,333.5 740.6,329.9 C 739.9,326.8 739.9,323.7 740.6,320.5 C 741.2,317.6 743.0,315.8 745.8,315.0 C 746.1,314.9 746.4,315.0 746.5,314.7 C 747.9,314.7 749.4,314.7 750.8,314.7 M 752.8,325.1 C 752.7,324.1 752.7,323.1 752.6,322.0 C 752.4,320.2 751.3,319.1 749.7,318.9 C 747.7,318.6 746.0,319.2 745.5,320.9 C 744.5,323.8 744.5,326.8 745.6,329.7 C 746.2,331.3 747.6,331.7 749.2,331.6 C 750.8,331.5 751.9,330.7 752.4,329.2 C 752.8,327.9 752.8,326.5 752.8,325.1"/>
			<path class="st806" d="M 715.0,314.7 C 715.3,315.1 715.9,315.0 716.3,315.1 C 718.8,316.0 720.2,318.0 720.2,320.6 C 720.2,321.2 720.0,321.4 719.4,321.4 C 718.9,321.4 718.3,321.4 717.8,321.4 C 716.8,321.5 716.0,321.5 715.8,320.1 C 715.7,319.0 714.7,318.6 713.6,318.6 C 712.3,318.5 711.1,318.5 710.2,319.6 C 709.4,320.7 710.1,322.3 711.5,322.7 C 712.7,323.0 713.9,323.2 715.2,323.4 C 719.0,324.0 720.7,326.0 720.6,329.8 C 720.5,332.9 718.5,335.0 715.0,335.5 C 713.0,335.8 711.0,335.7 709.0,335.2 C 706.5,334.5 705.0,332.5 704.9,329.9 C 704.9,329.3 705.1,329.1 705.7,329.1 C 706.3,329.1 706.8,329.2 707.4,329.1 C 708.4,329.0 709.3,329.0 709.4,330.4 C 709.5,331.0 710.0,331.4 710.7,331.6 C 711.8,331.9 713.0,332.0 714.1,331.7 C 715.1,331.5 715.8,330.9 715.8,329.8 C 715.9,328.7 715.5,327.6 714.3,327.3 C 713.0,327.0 711.8,326.8 710.5,326.5 C 707.1,325.9 705.4,324.3 705.2,321.2 C 705.0,317.9 706.7,315.7 710.0,314.8 C 710.3,314.7 710.6,314.9 710.8,314.5 C 712.3,314.7 713.6,314.7 715.0,314.7"/>
			<path class="st806" d="M 732.3,314.7 C 732.8,315.1 733.4,315.0 734.0,315.2 C 736.6,316.2 738.3,318.5 738.3,321.2 C 738.3,321.8 738.1,322.0 737.5,322.0 C 736.9,322.0 736.4,321.9 735.8,322.0 C 734.8,322.1 733.8,322.1 733.8,320.6 C 733.8,320.3 733.5,319.8 733.2,319.6 C 731.9,318.6 730.5,318.7 729.0,319.0 C 727.7,319.3 727.2,320.3 727.0,321.5 C 726.7,323.9 726.6,326.2 727.0,328.6 C 727.4,331.3 731.0,332.6 733.2,330.9 C 734.0,330.3 734.1,329.4 734.1,328.6 C 734.1,327.8 734.5,327.7 735.1,327.7 C 735.3,327.7 735.5,327.7 735.6,327.7 C 738.5,327.7 738.5,327.7 738.2,330.5 C 738.0,332.3 737.2,333.6 735.6,334.4 C 732.7,335.9 729.7,336.1 726.7,335.0 C 724.7,334.2 723.3,332.8 722.8,330.7 C 721.9,327.2 721.9,323.7 722.6,320.1 C 723.2,317.3 725.0,315.6 727.7,314.8 C 728.0,314.7 728.5,314.9 728.6,314.5 C 729.8,314.7 731.1,314.7 732.3,314.7"/>
			<path class="st805" d="M 693.2,317.1 C 693.7,316.8 693.9,317.4 694.1,317.5 C 696.0,319.2 697.9,320.8 699.8,322.5 C 700.3,322.9 700.8,323.5 701.1,324.0 C 702.1,325.4 702.1,326.3 700.5,327.9 C 698.3,330.1 695.9,332.0 693.5,334.0 C 693.4,334.1 693.2,334.0 693.2,333.9 C 693.2,332.2 693.2,330.5 693.2,328.8 C 694.3,327.9 695.5,327.0 696.6,326.1 C 697.0,325.8 697.2,325.5 696.7,325.1 C 695.5,324.3 694.5,323.1 693.2,322.5 C 693.2,320.7 693.2,318.9 693.2,317.1"/>
		</g>
	</g>
</svg>