<?xml version="1.0" encoding="UTF-8"?>
<svg xmlns="http://www.w3.org/2000/svg" >  
<g id="sgd_accredited">
	<g transform="translate(234.29 125.87)" id="sgd" xmlns="http://www.w3.org/2000/svg">
	<path d="M29.59 3.76c6.59 0 12.57 2.17 18.17 6.01 2.21 1.51 3.73 4.17 3.09 6.6-.63 2.38-2.77 3.95-5.07 3.94-1.15-.01-2.44-.54-3.43-1.2-4.36-2.89-8.61-4.58-13.89-4.46-2.38.05-4.58.85-6.35 2.56-3.33 3.21-2.12 9.11 2.05 11.09 2.72 1.29 5.12 1.48 8.07 2.26 3.16.84 6.42 1.36 9.53 2.37 8.93 2.92 12.23 9.38 11.83 18.28-.4 8.88-7.04 15.16-15.47 17.46-10.57 2.88-19.56 1.17-28.84-5.02-2.6-1.73-3.53-5.07-1.8-7.77 1.57-2.45 4.91-3.38 7.41-1.69 3.53 2.39 6.51 4.11 11.07 4.64 3.61.42 8.48.23 11.6-1.83 2.61-1.72 3.75-4.22 3.62-7.29-.13-3.11-1.77-5.34-4.63-6.25-3.35-1.07-6.86-1.66-10.29-2.48-2.72-.66-5.49-1.18-8.13-2.08-5.4-1.83-8.66-5.83-9.84-11.49-1.52-7.28.64-13.68 5.42-18.07 2.32-2.13 7.19-5.58 15.88-5.58zM171.32 36.64V10.51c0-4.21 2.22-6.49 6.44-6.5 5.97-.02 11.95-.15 17.91.06 9.36.34 17.07 3.6 23.45 10.6 5.57 6.11 8.53 13.62 8.57 21.8.04 8.63-2.95 16.34-8.96 22.68-6.24 6.57-13.74 9.83-22.69 10.22-6.23.27-12.48.15-18.71.08-3.79-.04-6.01-2.48-6.01-6.27V36.64m12.46 21.8c3.78 0 7.42.04 11.05-.01 3.44-.05 6.58-1.13 9.54-2.84 10.27-5.95 13.49-17.89 9.26-27.45-3.18-7.18-10.17-12.18-17.02-12.84-4.3-.42-8.23-.17-12.58-.22-.07 0-.14.09-.25.18v43.18zM109.59 42.17c-3.04 0-5.93.01-8.82 0-2.18-.01-3.87-.89-4.76-2.95-.88-2.06-.7-4.06.69-5.86.83-1.07 1.95-1.73 3.33-1.74 5.36-.02 10.72-.08 16.08.03 3.38.07 5.29 2.23 5.29 5.56 0 6.1-.04 11.33.02 17.43.02 2.19-.8 3.78-2.35 5.35-7.28 7.31-16.97 10.78-27 9.86-13.82-1.27-24.45-10.6-28.42-22.71-4.73-14.43 1.26-30.68 14.18-38.48 10.99-6.63 22.15-6.77 33.6-.68 1.89 1 4.03 2.52 5.58 3.92 1.26 1.14 2.08 3.29 1.89 4.96-.23 2.01-1.57 3.93-3.75 4.39-1.78.38-3.41.23-5.05-1.21-3.65-3.2-8.51-4.95-13.38-5.08-8.65-.23-16.44 4.65-20.13 11.36-6.13 11.15-.85 24.95 10.54 30.56 6.47 3.19 14.99 2.38 21.82-2.41.3-.21.59-.67.6-1.01.05-3.81.04-7.27.04-11.29M158.26 20.24c0 4.45-3.75 8.27-8.12 8.26-4.52-.01-8.23-3.73-8.31-8.3-.07-4.31 3.8-8.13 8.26-8.13 4.46.01 8.16 3.71 8.17 8.17"/>
	<path d="M158.26 53.09c0 4.45-3.75 8.27-8.12 8.26-4.52-.01-8.23-3.73-8.31-8.3-.07-4.31 3.8-8.13 8.26-8.13 4.46.01 8.16 3.71 8.17 8.17" fill="#E52E38"/>
	<g>
	<path d="M14.82 96.65c.67-1.81 2.21-3.26 4.24-3.26 2.09 0 3.56 1.37 4.23 3.26l7.75 21.39c.24.63.32 1.18.32 1.46 0 1.54-1.27 2.6-2.73 2.6-1.67 0-2.5-.87-2.89-2.05l-1.19-3.7h-11l-1.18 3.66c-.4 1.22-1.23 2.09-2.85 2.09-1.59 0-2.93-1.18-2.93-2.76 0-.63.2-1.1.28-1.3l7.95-21.39zm.44 14.27h7.52l-3.68-11.4h-.08l-3.76 11.4zM45.34 93.38c2.89 0 8.51.94 8.51 4.41 0 1.41-.98 2.63-2.45 2.63-1.63 0-2.73-1.38-6.05-1.38-4.91 0-7.44 4.13-7.44 8.93 0 4.68 2.57 8.7 7.44 8.7 3.32 0 4.67-1.65 6.3-1.65 1.77 0 2.61 1.77 2.61 2.67 0 3.78-5.97 4.64-8.9 4.64-8.03 0-13.61-6.33-13.61-14.48-.02-8.17 5.52-14.47 13.59-14.47zM69.91 93.38c2.89 0 8.51.94 8.51 4.41 0 1.41-.99 2.63-2.46 2.63-1.62 0-2.73-1.38-6.05-1.38-4.9 0-7.44 4.13-7.44 8.93 0 4.68 2.57 8.7 7.44 8.7 3.32 0 4.67-1.65 6.29-1.65 1.78 0 2.61 1.77 2.61 2.67 0 3.78-5.98 4.64-8.91 4.64-8.03 0-13.61-6.33-13.61-14.48.01-8.17 5.55-14.47 13.62-14.47zM82.78 96.92c0-1.89 1.07-3.07 3.04-3.07h6.96c6.09 0 9.86 2.71 9.86 8.89 0 4.33-3.28 6.8-7.32 7.44l6.73 7.16c.55.59.79 1.18.79 1.73 0 1.53-1.22 3.03-2.97 3.03-.71 0-1.66-.28-2.29-1.03l-8.79-10.58h-.07v8.54c0 1.97-1.27 3.07-2.97 3.07-1.7 0-2.97-1.1-2.97-3.07V96.92zm5.94 9.32h4.07c2.18 0 3.68-1.3 3.68-3.5 0-2.24-1.51-3.46-3.68-3.46h-4.07v6.96zM106.77 97.28c0-1.97.99-3.42 3.08-3.42h9.81c1.9 0 2.81 1.34 2.81 2.71 0 1.34-.95 2.71-2.81 2.71h-6.96v5.74h6.49c1.94 0 2.89 1.34 2.89 2.71 0 1.34-.99 2.72-2.89 2.72h-6.49v5.98h7.32c1.9 0 2.81 1.34 2.81 2.71 0 1.34-.95 2.71-2.81 2.71h-10.21c-1.74 0-3.05-1.18-3.05-2.95V97.28zM125.89 96.88c0-1.81 1.27-3.03 3.05-3.03h6.57c8.86 0 13.93 5.66 13.93 14.4 0 8.26-5.38 13.61-13.53 13.61h-6.89c-1.3 0-3.12-.71-3.12-2.95V96.88zm5.93 19.55h4c5.1 0 7.44-3.74 7.44-8.46 0-5.03-2.37-8.69-7.83-8.69h-3.6v17.15zM185.03 97.28c0-1.97.99-3.42 3.08-3.42h9.81c1.9 0 2.81 1.34 2.81 2.71 0 1.34-.95 2.71-2.81 2.71h-6.96v5.74h6.49c1.94 0 2.89 1.34 2.89 2.71 0 1.34-.99 2.72-2.89 2.72h-6.49v5.98h7.32c1.9 0 2.81 1.34 2.81 2.71 0 1.34-.95 2.71-2.81 2.71h-10.21c-1.74 0-3.05-1.18-3.05-2.95V97.28zM204.15 96.88c0-1.81 1.27-3.03 3.05-3.03h6.57c8.86 0 13.93 5.66 13.93 14.4 0 8.26-5.38 13.61-13.53 13.61h-6.89c-1.3 0-3.12-.71-3.12-2.95V96.88zm5.93 19.55h4c5.1 0 7.44-3.74 7.44-8.46 0-5.03-2.37-8.69-7.83-8.69h-3.6v17.15zM153.07 96.69c0-1.97 1.27-3.07 2.97-3.07 1.7 0 2.97 1.1 2.97 3.07v22.34c0 1.97-1.27 3.07-2.97 3.07-1.7 0-2.97-1.1-2.97-3.07V96.69zM169.3 99.28h-4.32c-1.9 0-2.69-1.38-2.69-2.71 0-1.38.99-2.71 2.69-2.71h14.56c1.7 0 2.69 1.34 2.69 2.71 0 1.34-.79 2.71-2.69 2.71h-4.32v19.75c0 1.97-1.27 3.07-2.97 3.07-1.7 0-2.96-1.1-2.96-3.07V99.28z"/>
	</g>
	</g>
	<g transform="translate(234.29 125.87)" id="sgdd" xmlns="http://www.w3.org/2000/svg">
	<path d="M29.59 3.76c6.59 0 12.57 2.17 18.17 6.01 2.21 1.51 3.73 4.17 3.09 6.6-.63 2.38-2.77 3.95-5.07 3.94-1.15-.01-2.44-.54-3.43-1.2-4.36-2.89-8.61-4.58-13.89-4.46-2.38.05-4.58.85-6.35 2.56-3.33 3.21-2.12 9.11 2.05 11.09 2.72 1.29 5.12 1.48 8.07 2.26 3.16.84 6.42 1.36 9.53 2.37 8.93 2.92 12.23 9.38 11.83 18.28-.4 8.88-7.04 15.16-15.47 17.46-10.57 2.88-19.56 1.17-28.84-5.02-2.6-1.73-3.53-5.07-1.8-7.77 1.57-2.45 4.91-3.38 7.41-1.69 3.53 2.39 6.51 4.11 11.07 4.64 3.61.42 8.48.23 11.6-1.83 2.61-1.72 3.75-4.22 3.62-7.29-.13-3.11-1.77-5.34-4.63-6.25-3.35-1.07-6.86-1.66-10.29-2.48-2.72-.66-5.49-1.18-8.13-2.08-5.4-1.83-8.66-5.83-9.84-11.49-1.52-7.28.64-13.68 5.42-18.07 2.32-2.13 7.19-5.58 15.88-5.58zM171.32 36.64V10.51c0-4.21 2.22-6.49 6.44-6.5 5.97-.02 11.95-.15 17.91.06 9.36.34 17.07 3.6 23.45 10.6 5.57 6.11 8.53 13.62 8.57 21.8.04 8.63-2.95 16.34-8.96 22.68-6.24 6.57-13.74 9.83-22.69 10.22-6.23.27-12.48.15-18.71.08-3.79-.04-6.01-2.48-6.01-6.27V36.64m12.46 21.8c3.78 0 7.42.04 11.05-.01 3.44-.05 6.58-1.13 9.54-2.84 10.27-5.95 13.49-17.89 9.26-27.45-3.18-7.18-10.17-12.18-17.02-12.84-4.3-.42-8.23-.17-12.58-.22-.07 0-.14.09-.25.18v43.18zM109.59 42.17c-3.04 0-5.93.01-8.82 0-2.18-.01-3.87-.89-4.76-2.95-.88-2.06-.7-4.06.69-5.86.83-1.07 1.95-1.73 3.33-1.74 5.36-.02 10.72-.08 16.08.03 3.38.07 5.29 2.23 5.29 5.56 0 6.1-.04 11.33.02 17.43.02 2.19-.8 3.78-2.35 5.35-7.28 7.31-16.97 10.78-27 9.86-13.82-1.27-24.45-10.6-28.42-22.71-4.73-14.43 1.26-30.68 14.18-38.48 10.99-6.63 22.15-6.77 33.6-.68 1.89 1 4.03 2.52 5.58 3.92 1.26 1.14 2.08 3.29 1.89 4.96-.23 2.01-1.57 3.93-3.75 4.39-1.78.38-3.41.23-5.05-1.21-3.65-3.2-8.51-4.95-13.38-5.08-8.65-.23-16.44 4.65-20.13 11.36-6.13 11.15-.85 24.95 10.54 30.56 6.47 3.19 14.99 2.38 21.82-2.41.3-.21.59-.67.6-1.01.05-3.81.04-7.27.04-11.29M158.26 20.24c0 4.45-3.75 8.27-8.12 8.26-4.52-.01-8.23-3.73-8.31-8.3-.07-4.31 3.8-8.13 8.26-8.13 4.46.01 8.16 3.71 8.17 8.17" fill="#7c358b"/>
	<path fill="#E52E38" d="M158.26 53.09c0 4.45-3.75 8.27-8.12 8.26-4.52-.01-8.23-3.73-8.31-8.3-.07-4.31 3.8-8.13 8.26-8.13 4.46.01 8.16 3.71 8.17 8.17"/>
	<g fill="#7c358b">
	<path d="M14.82 96.65c.67-1.81 2.21-3.26 4.24-3.26 2.09 0 3.56 1.37 4.23 3.26l7.75 21.39c.24.63.32 1.18.32 1.46 0 1.54-1.27 2.6-2.73 2.6-1.67 0-2.5-.87-2.89-2.05l-1.19-3.7h-11l-1.18 3.66c-.4 1.22-1.23 2.09-2.85 2.09-1.59 0-2.93-1.18-2.93-2.76 0-.63.2-1.1.28-1.3l7.95-21.39zm.44 14.27h7.52l-3.68-11.4h-.08l-3.76 11.4zM45.34 93.38c2.89 0 8.51.94 8.51 4.41 0 1.41-.98 2.63-2.45 2.63-1.63 0-2.73-1.38-6.05-1.38-4.91 0-7.44 4.13-7.44 8.93 0 4.68 2.57 8.7 7.44 8.7 3.32 0 4.67-1.65 6.3-1.65 1.77 0 2.61 1.77 2.61 2.67 0 3.78-5.97 4.64-8.9 4.64-8.03 0-13.61-6.33-13.61-14.48-.02-8.17 5.52-14.47 13.59-14.47zM69.91 93.38c2.89 0 8.51.94 8.51 4.41 0 1.41-.99 2.63-2.46 2.63-1.62 0-2.73-1.38-6.05-1.38-4.9 0-7.44 4.13-7.44 8.93 0 4.68 2.57 8.7 7.44 8.7 3.32 0 4.67-1.65 6.29-1.65 1.78 0 2.61 1.77 2.61 2.67 0 3.78-5.98 4.64-8.91 4.64-8.03 0-13.61-6.33-13.61-14.48.01-8.17 5.55-14.47 13.62-14.47zM82.78 96.92c0-1.89 1.07-3.07 3.04-3.07h6.96c6.09 0 9.86 2.71 9.86 8.89 0 4.33-3.28 6.8-7.32 7.44l6.73 7.16c.55.59.79 1.18.79 1.73 0 1.53-1.22 3.03-2.97 3.03-.71 0-1.66-.28-2.29-1.03l-8.79-10.58h-.07v8.54c0 1.97-1.27 3.07-2.97 3.07-1.7 0-2.97-1.1-2.97-3.07V96.92zm5.94 9.32h4.07c2.18 0 3.68-1.3 3.68-3.5 0-2.24-1.51-3.46-3.68-3.46h-4.07v6.96zM106.77 97.28c0-1.97.99-3.42 3.08-3.42h9.81c1.9 0 2.81 1.34 2.81 2.71 0 1.34-.95 2.71-2.81 2.71h-6.96v5.74h6.49c1.94 0 2.89 1.34 2.89 2.71 0 1.34-.99 2.72-2.89 2.72h-6.49v5.98h7.32c1.9 0 2.81 1.34 2.81 2.71 0 1.34-.95 2.71-2.81 2.71h-10.21c-1.74 0-3.05-1.18-3.05-2.95V97.28zM125.89 96.88c0-1.81 1.27-3.03 3.05-3.03h6.57c8.86 0 13.93 5.66 13.93 14.4 0 8.26-5.38 13.61-13.53 13.61h-6.89c-1.3 0-3.12-.71-3.12-2.95V96.88zm5.93 19.55h4c5.1 0 7.44-3.74 7.44-8.46 0-5.03-2.37-8.69-7.83-8.69h-3.6v17.15zM185.03 97.28c0-1.97.99-3.42 3.08-3.42h9.81c1.9 0 2.81 1.34 2.81 2.71 0 1.34-.95 2.71-2.81 2.71h-6.96v5.74h6.49c1.94 0 2.89 1.34 2.89 2.71 0 1.34-.99 2.72-2.89 2.72h-6.49v5.98h7.32c1.9 0 2.81 1.34 2.81 2.71 0 1.34-.95 2.71-2.81 2.71h-10.21c-1.74 0-3.05-1.18-3.05-2.95V97.28zM204.15 96.88c0-1.81 1.27-3.03 3.05-3.03h6.57c8.86 0 13.93 5.66 13.93 14.4 0 8.26-5.38 13.61-13.53 13.61h-6.89c-1.3 0-3.12-.71-3.12-2.95V96.88zm5.93 19.55h4c5.1 0 7.44-3.74 7.44-8.46 0-5.03-2.37-8.69-7.83-8.69h-3.6v17.15zM153.07 96.69c0-1.97 1.27-3.07 2.97-3.07 1.7 0 2.97 1.1 2.97 3.07v22.34c0 1.97-1.27 3.07-2.97 3.07-1.7 0-2.97-1.1-2.97-3.07V96.69zM169.3 99.28h-4.32c-1.9 0-2.69-1.38-2.69-2.71 0-1.38.99-2.71 2.69-2.71h14.56c1.7 0 2.69 1.34 2.69 2.71 0 1.34-.79 2.71-2.69 2.71h-4.32v19.75c0 1.97-1.27 3.07-2.97 3.07-1.7 0-2.96-1.1-2.96-3.07V99.28z"/>
	</g>
	</g>
</g>
</svg>
