<?xml version="1.0" ?>
<svg xmlns:cc="http://creativecommons.org/ns#" xmlns:dc="http://purl.org/dc/elements/1.1/" xmlns:inkscape="http://www.inkscape.org/namespaces/inkscape" xmlns:rdf="http://www.w3.org/1999/02/22-rdf-syntax-ns#" xmlns:sodipodi="http://sodipodi.sourceforge.net/DTD/sodipodi-0.dtd" xmlns:svg="http://www.w3.org/2000/svg" xmlns="http://www.w3.org/2000/svg" version="1.2" baseProfile="tiny-ps" id="svg22" viewBox="0 0 400 400" xml:space="preserve">
	<g id="svgg">
		<path id="path0" d="M112.414 87.650 C 59.388 91.385,11.434 148.881,3.416 218.338 C -2.351 268.296,25.120 305.600,67.677 305.600 C 101.091 305.600,132.685 286.920,182.060 237.970 C 188.046 232.035,193.363 227.074,193.875 226.945 C 195.745 226.476,196.623 227.687,201.181 237.032 C 225.053 285.977,248.676 305.634,283.575 305.593 C 331.052 305.537,377.410 260.549,392.796 199.600 C 399.651 172.448,400.178 155.418,394.762 136.129 C 382.053 90.869,337.849 74.827,290.800 98.399 C 270.087 108.777,249.361 125.163,219.400 154.849 C 204.583 169.530,206.207 169.457,199.447 155.739 C 176.867 109.916,154.264 89.669,123.600 87.801 C 121.510 87.673,119.170 87.515,118.400 87.448 C 117.630 87.381,114.936 87.472,112.414 87.650 M127.477 119.410 C 145.147 123.892,160.400 142.953,177.884 182.400 C 182.957 193.847,183.328 192.599,171.139 205.126 C 145.214 231.771,125.751 248.846,108.057 260.468 C 51.481 297.630,16.471 259.437,41.808 188.196 C 58.062 142.492,96.574 111.570,127.477 119.410 M341.087 119.040 C 368.083 126.071,375.103 161.921,358.350 207.200 C 339.273 258.763,292.041 288.826,261.822 268.641 C 248.639 259.835,234.998 238.987,221.070 206.357 C 218.108 199.419,217.409 200.515,237.763 180.169 C 286.449 131.504,317.778 112.968,341.087 119.040 " stroke="none" fill="#81bc27" fill-rule="evenodd"/>
		<path id="path1" d="M0.000 200.000 L 0.000 400.000 200.000 400.000 L 400.000 400.000 400.000 200.000 L 400.000 0.000 200.000 0.000 L 0.000 0.000 0.000 200.000 M123.600 87.801 C 154.264 89.669,176.867 109.916,199.447 155.739 C 206.207 169.457,204.583 169.530,219.400 154.849 C 244.708 129.773,263.053 114.546,281.000 103.718 C 316.021 82.590,351.527 82.166,374.416 102.603 C 401.556 126.836,405.717 170.469,385.725 221.200 C 358.684 289.818,293.802 324.459,246.493 295.537 C 230.001 285.454,215.948 267.310,201.181 237.032 C 196.623 227.687,195.745 226.476,193.875 226.945 C 193.363 227.074,188.046 232.035,182.060 237.970 C 132.685 286.920,101.091 305.600,67.677 305.600 C 25.120 305.600,-2.351 268.296,3.416 218.338 C 10.341 158.355,46.492 107.058,92.712 91.632 C 100.578 89.007,113.012 86.982,118.400 87.448 C 119.170 87.515,121.510 87.673,123.600 87.801 M113.000 118.409 C 83.943 122.099,55.345 150.132,41.808 188.196 C 16.471 259.437,51.481 297.630,108.057 260.468 C 125.751 248.846,145.214 231.771,171.139 205.126 C 183.328 192.599,182.957 193.847,177.884 182.400 C 156.330 133.770,137.589 115.287,113.000 118.409 M329.600 118.258 C 305.960 120.426,280.071 137.879,237.763 180.169 C 217.409 200.515,218.108 199.419,221.070 206.357 C 234.998 238.987,248.639 259.835,261.822 268.641 C 292.041 288.826,339.273 258.763,358.350 207.200 C 377.544 155.324,364.527 115.054,329.600 118.258 " stroke="none" fill="#ffffff" fill-rule="evenodd"/>
	</g>
</svg>