<svg id="svg" version="1.1" xmlns="http://www.w3.org/2000/svg" xmlns:xlink="http://www.w3.org/1999/xlink" width="400" height="400" viewBox="0, 0, 400,400"><g id="svgg"><path id="path0" d="M185.600 25.418 C 178.592 26.146,173.341 26.796,171.000 27.227 C 162.132 28.857,154.416 30.685,149.000 32.440 C 147.680 32.868,145.970 33.416,145.200 33.659 C 142.533 34.499,133.324 37.954,131.167 38.924 C 129.975 39.460,127.560 40.542,125.800 41.330 C 121.780 43.128,114.525 47.010,109.000 50.319 C 106.655 51.724,101.604 55.098,97.200 58.204 C 78.922 71.091,61.170 90.599,49.064 111.099 C 30.674 142.241,21.855 181.703,25.576 216.200 C 26.239 222.352,26.813 226.801,27.228 229.000 C 28.660 236.606,29.679 241.394,30.591 244.800 C 32.548 252.109,36.656 263.898,39.056 269.095 C 39.795 270.694,40.400 272.105,40.400 272.228 C 40.400 273.731,49.720 290.427,54.427 297.359 C 59.280 304.503,59.015 304.130,61.566 307.400 C 71.764 320.472,81.650 330.046,97.200 341.911 C 116.223 356.425,145.696 368.726,171.200 372.793 C 172.850 373.056,175.010 373.422,176.000 373.607 C 184.182 375.128,205.450 375.559,217.000 374.438 C 263.880 369.888,307.199 346.359,337.027 309.247 C 341.588 303.571,348.416 293.633,351.177 288.650 C 351.893 287.358,353.024 285.378,353.690 284.250 C 354.852 282.282,359.054 273.750,360.708 270.000 C 365.225 259.759,369.798 244.951,372.011 233.400 C 372.264 232.080,372.629 230.190,372.823 229.200 C 373.236 227.095,374.139 219.500,374.821 212.400 C 375.622 204.066,374.971 184.404,373.622 176.200 C 373.405 174.880,373.023 172.450,372.773 170.800 C 371.286 160.992,367.049 145.826,362.883 135.400 C 357.679 122.378,348.931 106.436,341.919 97.200 C 341.129 96.159,338.269 92.460,336.200 89.803 C 328.370 79.749,316.834 68.789,302.800 58.071 C 272.384 34.843,224.179 21.413,185.600 25.418 M206.000 66.845 C 214.583 70.910,216.551 82.018,209.844 88.536 C 206.798 91.497,205.102 92.068,198.200 92.454 C 176.157 93.689,159.710 98.628,143.443 108.900 C 120.337 123.489,105.381 143.493,96.863 171.200 C 94.915 177.536,93.381 187.860,93.029 197.000 C 92.797 203.038,92.239 205.222,90.230 207.959 C 84.204 216.168,72.460 215.095,67.345 205.867 L 66.200 203.800 66.287 196.158 C 66.911 141.205,104.364 90.520,157.600 72.586 C 174.947 66.742,199.607 63.817,206.000 66.845 M204.800 125.766 C 214.286 130.681,210.915 144.785,200.250 144.804 C 195.110 144.813,181.928 147.423,180.213 148.771 C 179.986 148.950,179.156 149.303,178.369 149.556 C 162.010 154.819,145.622 178.309,145.604 196.523 C 145.595 205.163,141.873 210.008,135.251 209.996 C 127.482 209.983,124.205 204.087,125.563 192.571 C 129.178 161.914,148.994 137.521,177.800 128.269 C 187.503 125.153,201.171 123.886,204.800 125.766 M326.054 187.481 C 334.138 190.046,336.292 198.280,333.837 217.237 C 331.726 233.543,324.117 256.410,317.624 265.966 C 317.237 266.535,315.869 268.780,314.582 270.956 C 298.165 298.724,266.830 321.933,234.800 330.047 C 219.615 333.894,201.159 335.597,195.982 333.630 C 186.980 330.209,184.335 319.148,190.784 311.894 C 193.591 308.737,195.816 307.963,203.200 307.575 C 215.306 306.939,222.443 305.750,232.200 302.744 C 275.608 289.368,306.107 249.784,307.819 204.600 C 308.135 196.245,308.819 193.933,311.936 190.666 C 315.321 187.119,320.927 185.854,326.054 187.481 M269.833 190.954 C 275.404 193.548,276.848 199.583,274.800 211.711 C 269.444 243.442,246.312 267.512,215.146 273.784 C 209.188 274.983,200.247 275.532,197.762 274.851 C 186.309 271.713,189.171 255.215,201.171 255.197 C 221.261 255.167,241.424 242.308,250.090 224.000 C 252.043 219.874,254.473 212.565,254.324 211.269 L 254.200 210.200 226.000 210.000 C 201.296 209.825,197.626 209.721,196.400 209.161 C 188.613 205.604,188.677 194.659,196.508 190.861 C 198.174 190.053,198.738 190.040,233.000 190.024 L 267.800 190.008 269.833 190.954 " stroke="none" fill="#1a1413" fill-rule="evenodd"/><path id="path1" d="M0.000 200.000 L 0.000 400.000 200.000 400.000 L 400.000 400.000 400.000 200.000 L 400.000 0.000 200.000 0.000 L 0.000 0.000 0.000 200.000 M214.025 25.397 C 237.067 27.489,255.488 32.445,275.361 41.900 C 284.395 46.198,296.916 53.577,302.800 58.071 C 316.834 68.789,328.370 79.749,336.200 89.803 C 338.269 92.460,341.129 96.159,341.919 97.200 C 356.313 116.161,369.120 146.713,372.773 170.800 C 373.023 172.450,373.405 174.880,373.622 176.200 C 374.971 184.404,375.622 204.066,374.821 212.400 C 374.139 219.500,373.236 227.095,372.823 229.200 C 372.629 230.190,372.264 232.080,372.011 233.400 C 369.798 244.951,365.225 259.759,360.708 270.000 C 359.054 273.750,354.852 282.282,353.690 284.250 C 353.024 285.378,351.893 287.358,351.177 288.650 C 342.281 304.704,325.797 323.748,309.621 336.661 C 287.153 354.596,263.006 365.837,233.800 371.957 C 217.467 375.380,189.786 376.170,176.000 373.607 C 175.010 373.422,172.850 373.056,171.200 372.793 C 145.696 368.726,116.223 356.425,97.200 341.911 C 81.650 330.046,71.764 320.472,61.566 307.400 C 59.015 304.130,59.280 304.503,54.427 297.359 C 49.720 290.427,40.400 273.731,40.400 272.228 C 40.400 272.105,39.795 270.694,39.056 269.095 C 36.656 263.898,32.548 252.109,30.591 244.800 C 29.679 241.394,28.660 236.606,27.228 229.000 C 21.843 200.409,25.180 167.917,36.718 136.600 C 45.408 113.015,62.733 87.854,82.400 70.258 C 94.343 59.571,104.083 52.755,118.600 44.920 C 120.800 43.732,124.040 42.117,125.800 41.330 C 127.560 40.542,129.975 39.460,131.167 38.924 C 133.324 37.954,142.533 34.499,145.200 33.659 C 145.970 33.416,147.680 32.868,149.000 32.440 C 154.416 30.685,162.132 28.857,171.000 27.227 C 173.341 26.796,178.592 26.146,185.600 25.418 C 192.572 24.694,206.174 24.684,214.025 25.397 M188.400 66.057 C 120.302 72.682,67.044 129.423,66.287 196.158 L 66.200 203.800 67.345 205.867 C 72.460 215.095,84.204 216.168,90.230 207.959 C 92.239 205.222,92.797 203.038,93.029 197.000 C 93.381 187.860,94.915 177.536,96.863 171.200 C 105.381 143.493,120.337 123.489,143.443 108.900 C 159.710 98.628,176.157 93.689,198.200 92.454 C 208.751 91.863,213.823 87.485,213.786 79.000 C 213.739 68.276,206.024 64.343,188.400 66.057 M192.200 125.219 C 160.022 128.783,133.316 153.051,126.851 184.604 C 123.793 199.524,124.927 206.233,130.984 209.053 C 138.894 212.737,145.593 206.996,145.604 196.523 C 145.622 178.309,162.010 154.819,178.369 149.556 C 179.156 149.303,179.986 148.950,180.213 148.771 C 181.928 147.423,195.110 144.813,200.250 144.804 C 210.915 144.785,214.286 130.681,204.800 125.766 C 203.149 124.911,197.283 124.656,192.200 125.219 M317.800 187.175 C 311.015 188.834,308.232 193.694,307.819 204.600 C 307.369 216.463,305.013 227.830,300.689 239.000 C 290.137 266.256,268.108 288.659,241.200 299.497 C 228.368 304.666,218.452 306.774,203.200 307.575 C 195.816 307.963,193.591 308.737,190.784 311.894 C 184.335 319.148,186.980 330.209,195.982 333.630 C 201.159 335.597,219.615 333.894,234.800 330.047 C 266.830 321.933,298.165 298.724,314.582 270.956 C 315.869 268.780,317.237 266.535,317.624 265.966 C 321.195 260.710,327.896 244.255,330.475 234.409 C 334.079 220.650,335.926 201.387,334.181 195.765 C 332.218 189.439,324.688 185.491,317.800 187.175 M196.508 190.861 C 188.677 194.659,188.613 205.604,196.400 209.161 C 197.626 209.721,201.296 209.825,226.000 210.000 L 254.200 210.200 254.324 211.269 C 254.473 212.565,252.043 219.874,250.090 224.000 C 241.424 242.308,221.261 255.167,201.171 255.197 C 189.171 255.215,186.309 271.713,197.762 274.851 C 200.247 275.532,209.188 274.983,215.146 273.784 C 246.312 267.512,269.444 243.442,274.800 211.711 C 276.848 199.583,275.404 193.548,269.833 190.954 L 267.800 190.008 233.000 190.024 C 198.738 190.040,198.174 190.053,196.508 190.861 " stroke="none" fill="#1ce38c" fill-rule="evenodd"/></g></svg>