<svg xmlns="http://www.w3.org/2000/svg" width="100%" viewBox="0 0 32 32" fill="none" class="logo_svg_symbol"><path fill-rule="evenodd" clip-rule="evenodd" d="M9.11909 13.7578L8.14542 14.2273C6.89611 14.8296 5.67589 15.4656 4.48377 16.1343H18.3124V18.2962H0.583209L-3.05176e-05 16.3052C2.29389 14.8351 4.69374 13.4915 7.2065 12.2799L8.18017 11.8105L9.11909 13.7578Z" fill="currentColor"></path><path fill-rule="evenodd" clip-rule="evenodd" d="M11.2809 2.99305L13.1861 2.2937L18.1059 8.09201C21.4032 7.1176 24.8644 6.34328 28.5006 5.78019L29.535 7.49126L23.9752 15.0067L31.3566 23.7052L30.2721 25.4538L19.9765 22.8997L13.322 31.8728L13.3185 31.8775L13.2266 32L11.2809 31.3514V20.4358H13.4428V28.0806L18.6692 21.0332L19.7977 20.6279L27.5397 22.5485L21.7723 15.7521L21.7275 14.4098L26.1971 8.36817C23.3685 8.90085 20.657 9.56859 18.0558 10.3646L16.9153 10.0303L13.4428 5.93774V13.9826H11.2809V2.99305Z" fill="currentColor"></path></svg>
<svg xmlns="http://www.w3.org/2000/svg" width="100%" viewBox="0 0 107 32" fill="none" class="logo_svg_starred"><path d="M3.85129 18.254C3.89633 18.7152 4.02424 19.1133 4.23142 19.4466C4.4386 19.7817 4.69802 20.0574 5.00969 20.2772C5.32136 20.4969 5.66727 20.6573 6.0474 20.7618C6.42753 20.8663 6.82567 20.9167 7.24003 20.9167C7.60755 20.9167 7.96066 20.8771 8.29394 20.796C8.62723 20.7149 8.92089 20.5996 9.17491 20.4501C9.42893 20.3006 9.63611 20.1096 9.79645 19.879C9.95679 19.6484 10.0379 19.3836 10.0379 19.0845C10.0379 18.7386 9.94598 18.4504 9.76042 18.2198C9.57486 17.9892 9.31183 17.8 8.96593 17.6487C8.62003 17.4991 8.21107 17.3712 7.73906 17.2685C7.26705 17.1641 6.74099 17.0668 6.1663 16.9749C5.54476 16.8362 4.89259 16.6866 4.2134 16.5263C3.53241 16.366 2.91628 16.1173 2.3632 15.7823C1.81012 15.449 1.35432 15.0094 0.997616 14.4689C0.640906 13.9284 0.462551 13.2294 0.462551 12.3773C0.462551 11.4783 0.651715 10.7073 1.03365 10.0605C1.41378 9.41553 1.91461 8.88587 2.53795 8.46971C3.16129 8.05355 3.8621 7.74909 4.64758 7.55452C5.43126 7.35815 6.22575 7.26086 7.03285 7.26086C7.83995 7.26086 8.66867 7.37616 9.45235 7.60676C10.236 7.83736 10.9278 8.17786 11.5259 8.62645C12.1259 9.07684 12.6195 9.64073 13.0122 10.3199C13.4032 10.9991 13.6122 11.8008 13.6338 12.7232H9.93517C9.88833 12.3557 9.77302 12.026 9.58927 11.7377C9.4037 11.4495 9.1677 11.2081 8.88125 11.0117C8.593 10.8153 8.27593 10.6658 7.93003 10.5613C7.58413 10.4568 7.21481 10.4064 6.82387 10.4064C6.50139 10.4064 6.18431 10.446 5.87264 10.5271C5.56097 10.6082 5.28533 10.7181 5.04212 10.855C4.80071 10.9937 4.59894 11.1667 4.4368 11.3738C4.27466 11.581 4.19539 11.8242 4.19539 12.0999C4.19539 12.3305 4.25844 12.5322 4.38455 12.7052C4.51066 12.8781 4.70163 13.0331 4.95565 13.1718C5.20967 13.3105 5.53755 13.4366 5.9411 13.5519C6.34465 13.6672 6.82207 13.7825 7.37515 13.8978C8.11199 14.0365 8.86684 14.1861 9.63971 14.3464C10.4108 14.5086 11.1152 14.7554 11.7493 15.0905C12.3835 15.4255 12.9077 15.8741 13.3221 16.438C13.7365 17.0037 13.9436 17.7694 13.9436 18.7368C13.9436 19.6358 13.7365 20.4249 13.3221 21.1041C12.9077 21.7851 12.3763 22.3544 11.7313 22.8156C11.0864 23.2768 10.3423 23.6173 9.50099 23.8352C8.65966 24.0532 7.80031 24.1631 6.92476 24.1631C6.0492 24.1631 5.20787 24.0424 4.40077 23.7992C3.59367 23.5578 2.87304 23.1885 2.24069 22.6931C1.60654 22.1976 1.1003 21.5815 0.720173 20.8428C0.340044 20.106 0.149078 19.2413 0.149078 18.2504H3.84769L3.85129 18.254Z" fill="currentColor"></path><path d="M14.6706 7.57132H17.609V3.07642H21.4805V7.57132H26.5285V10.8898H21.4805V17.77C21.4805 18.8527 21.7976 19.5967 22.4318 20.0003C23.0659 20.4038 23.8658 20.6056 24.835 20.6056C25.0422 20.6056 25.2548 20.5948 25.4746 20.5714C25.6926 20.548 25.8944 20.5137 26.0799 20.4669V23.9241C25.7809 23.9926 25.4404 24.0502 25.0602 24.0971C24.6801 24.1439 24.3288 24.1655 24.0063 24.1655C23.0389 24.1655 22.1561 24.0448 21.3616 23.8016C20.5671 23.5602 19.8916 23.1855 19.3385 22.6774C18.7854 22.1712 18.3476 21.5244 18.0251 20.7407C17.7027 19.9571 17.5405 19.0238 17.5405 17.9411V10.888H14.6706V7.56951V7.57132Z" fill="currentColor"></path><path d="M41.0467 21.745C40.4702 22.4602 39.7333 23.0367 38.8344 23.4745C37.9354 23.9123 36.8166 24.1321 35.4817 24.1321C34.3521 24.1321 33.2982 23.9195 32.3181 23.4925C31.3381 23.0655 30.4913 22.4782 29.7779 21.7288C29.0627 20.9793 28.5042 20.0821 28.1007 19.0318C27.6971 17.9833 27.4953 16.8357 27.4953 15.5927C27.4953 14.3496 27.6971 13.247 28.1007 12.2219C28.5042 11.1968 29.0627 10.3087 29.7779 9.55922C30.4913 8.80977 31.3399 8.23327 32.3181 7.83152C33.2982 7.42797 34.3521 7.2262 35.4817 7.2262C36.8184 7.2262 37.9354 7.43878 38.8344 7.86575C39.7333 8.29272 40.4702 8.87463 41.0467 9.61146L41.2881 7.5721H44.9182V23.7862H41.3566L41.0449 21.7468L41.0467 21.745ZM38.1083 20.2425C38.7083 19.9777 39.2199 19.6209 39.6469 19.1706C40.0738 18.722 40.4017 18.1905 40.6323 17.5798C40.8629 16.969 40.9782 16.3187 40.9782 15.6269C40.9782 14.9351 40.8629 14.2901 40.6323 13.6902C40.4017 13.0903 40.0738 12.5732 39.6469 12.1337C39.2199 11.6959 38.7083 11.35 38.1083 11.096C37.5084 10.8419 36.8526 10.7158 36.1374 10.7158C35.4222 10.7158 34.7772 10.8419 34.2007 11.096C33.6242 11.35 33.1288 11.6959 32.7145 12.1337C32.3001 12.5714 31.9758 13.0903 31.747 13.6902C31.5164 14.2901 31.4011 14.9351 31.4011 15.6269C31.4011 16.3187 31.5164 16.969 31.747 17.5798C31.9776 18.1905 32.3001 18.7202 32.7145 19.1706C33.1288 19.6209 33.6242 19.9777 34.2007 20.2425C34.7772 20.5073 35.4222 20.6406 36.1374 20.6406C36.8526 20.6406 37.5084 20.5091 38.1083 20.2425Z" fill="currentColor"></path><path d="M48.6541 23.7844V7.5721H52.1455L52.4914 10.4762C52.9058 9.46194 53.5507 8.66745 54.4281 8.09095C55.3037 7.51445 56.3756 7.2262 57.6439 7.2262C57.8745 7.2262 58.0871 7.23881 58.2835 7.26043C58.4798 7.28385 58.6348 7.31808 58.7501 7.36492V10.9608C58.6816 10.9374 58.5591 10.9158 58.3879 10.8924C58.215 10.869 58.0474 10.8581 57.8871 10.8581C57.1034 10.8581 56.3882 10.9843 55.7432 11.2383C55.0983 11.4923 54.5452 11.8544 54.084 12.3264C53.6228 12.7984 53.2661 13.3641 53.0121 14.0199C52.7581 14.6775 52.6319 15.4197 52.6319 16.2502V23.7862H48.6559L48.6541 23.7844Z" fill="currentColor"></path><path d="M60.9259 23.7844V7.5721H64.4174L64.7633 10.4762C65.1776 9.46194 65.8226 8.66745 66.6999 8.09095C67.5755 7.51445 68.6474 7.2262 69.9157 7.2262C70.1463 7.2262 70.3589 7.23881 70.5553 7.26043C70.7517 7.28385 70.9066 7.31808 71.0219 7.36492V10.9608C70.9534 10.9374 70.8309 10.9158 70.6598 10.8924C70.4868 10.869 70.3193 10.8581 70.1589 10.8581C69.3753 10.8581 68.66 10.9843 68.0151 11.2383C67.3701 11.4923 66.817 11.8544 66.3558 12.3264C65.8946 12.7984 65.5379 13.3641 65.2839 14.0199C65.0299 14.6775 64.9038 15.4197 64.9038 16.2502V23.7862H60.9277L60.9259 23.7844Z" fill="currentColor"></path><path d="M74.9263 14.0703H84.0872C84.0188 13.5173 83.8512 13.0218 83.5864 12.584C83.3216 12.1463 82.9865 11.7769 82.5847 11.4779C82.1812 11.1788 81.7326 10.9482 81.2372 10.7861C80.7417 10.6257 80.2391 10.5447 79.7328 10.5447C78.9942 10.5447 78.3438 10.678 77.78 10.9428C77.2143 11.2076 76.7477 11.5716 76.3801 12.031C76.0108 12.4922 75.7352 13.029 75.5496 13.638C75.3641 14.2487 75.2722 14.8991 75.2722 15.5909C75.2722 16.3295 75.3695 17.0087 75.5658 17.6302C75.7604 18.2518 76.0559 18.7886 76.4468 19.2372C76.8377 19.6876 77.3223 20.0389 77.8988 20.2911C78.4753 20.5451 79.1545 20.6713 79.9382 20.6713C80.8138 20.6713 81.5686 20.4983 82.2028 20.1524C82.8369 19.8065 83.3486 19.3003 83.7413 18.6319L87.7858 18.5977C87.2327 20.3254 86.2347 21.6801 84.7952 22.6602C83.354 23.6402 81.6425 24.1303 79.6608 24.1303C78.324 24.1303 77.1368 23.8943 76.1009 23.4222C75.0632 22.9502 74.2002 22.3215 73.5084 21.5378C72.8166 20.7541 72.2924 19.8552 71.9357 18.8409C71.579 17.8266 71.4006 16.7781 71.4006 15.6953C71.4006 14.6126 71.5844 13.5299 71.9537 12.5156C72.3212 11.5013 72.8581 10.6023 73.5607 9.81864C74.2633 9.03497 75.1335 8.40802 76.1712 7.93421C77.2089 7.4622 78.4069 7.2262 79.7671 7.2262C81.0119 7.2262 82.1397 7.42257 83.1558 7.81351C84.1701 8.20625 85.0403 8.76473 85.7663 9.49076C86.4923 10.2168 87.0508 11.0815 87.4435 12.0832C87.8345 13.0867 88.0308 14.1874 88.0308 15.3855C88.0308 15.6395 88.0254 15.8701 88.0128 16.0773C88.0002 16.2845 87.9732 16.4916 87.9264 16.6988H74.8578L74.9263 14.0721V14.0703Z" fill="currentColor"></path><path d="M102.963 21.7106C102.386 22.4258 101.642 23.0077 100.732 23.4563C99.8207 23.9067 98.7091 24.1301 97.3958 24.1301C96.2428 24.1301 95.1835 23.9175 94.216 23.4905C93.2486 23.0635 92.4073 22.4762 91.692 21.7268C90.9768 20.9773 90.4183 20.0802 90.0148 19.0298C89.6112 17.9813 89.4095 16.8464 89.4095 15.6249C89.4095 14.4034 89.6112 13.245 90.0148 12.2199C90.4183 11.1948 90.9768 10.3067 91.692 9.55723C92.4055 8.80778 93.2468 8.23128 94.216 7.82953C95.1835 7.42598 96.2446 7.2242 97.3958 7.2242C98.7326 7.2242 99.8387 7.4494 100.714 7.89799C101.59 8.34658 102.316 8.93028 102.892 9.6437V-6.10352e-05H106.868V23.7842H103.1L102.961 21.7106H102.963ZM100.006 20.2423C100.594 19.9775 101.102 19.6208 101.527 19.1704C101.954 18.7218 102.287 18.1903 102.53 17.5796C102.772 16.9689 102.892 16.3185 102.892 15.6267C102.892 14.9349 102.772 14.2899 102.53 13.69C102.289 13.0901 101.954 12.573 101.527 12.1335C101.1 11.6957 100.588 11.3498 99.9883 11.0958C99.3883 10.8417 98.7434 10.7156 98.0516 10.7156C97.3598 10.7156 96.686 10.8417 96.0987 11.0958C95.5114 11.3498 95.0105 11.6957 94.5944 12.1335C94.18 12.5712 93.8557 13.0901 93.6269 13.69C93.3963 14.2899 93.281 14.9349 93.281 15.6267C93.281 16.3185 93.3963 16.9689 93.6269 17.5796C93.8575 18.1903 94.18 18.72 94.5944 19.1704C95.0087 19.6208 95.5096 19.9775 96.0987 20.2423C96.686 20.5071 97.3382 20.6404 98.0516 20.6404C98.765 20.6404 99.4171 20.5089 100.004 20.2423H100.006Z" fill="currentColor"></path></svg>
<svg xmlns="http://www.w3.org/2000/svg" width="100%" viewBox="0 0 38 32" fill="none" class="logo_svg_com"><path d="M0.704741 23.7356C0.529989 23.5555 0.443512 23.3339 0.443512 23.069C0.443512 22.8042 0.529989 22.561 0.704741 22.3754C0.879492 22.1899 1.10469 22.0962 1.38033 22.0962C1.65597 22.0962 1.88836 22.1899 2.07392 22.3754C2.25948 22.5628 2.35316 22.7934 2.35316 23.069C2.35316 23.3447 2.25948 23.5555 2.07392 23.7356C1.88836 23.9158 1.65597 24.0058 1.38033 24.0058C1.10469 24.0058 0.879492 23.9158 0.704741 23.7356Z" fill="currentColor"></path><path d="M11.9383 20.9066C11.8175 21.375 11.6284 21.8019 11.3708 22.1857C11.1131 22.5694 10.8033 22.8973 10.443 23.1675C10.0826 23.4378 9.67369 23.6485 9.2179 23.7981C8.7621 23.9476 8.28108 24.0233 7.77665 24.0233C7.16411 24.0233 6.59121 23.9116 6.05614 23.69C5.52108 23.4684 5.05628 23.1585 4.65993 22.7622C4.26359 22.3658 3.95193 21.8974 3.72313 21.357C3.49433 20.8165 3.38083 20.2346 3.38083 19.6094C3.38083 18.9843 3.49433 18.406 3.72313 17.8709C3.95193 17.3377 4.26359 16.8711 4.65993 16.4747C5.05628 16.0784 5.52108 15.7703 6.05614 15.5469C6.59121 15.3253 7.16411 15.2136 7.77665 15.2136C8.24505 15.2136 8.70805 15.2857 9.16384 15.4298C9.61964 15.5739 10.034 15.7775 10.4069 16.0423C10.7798 16.3072 11.1005 16.6278 11.3708 17.0062C11.641 17.3845 11.8175 17.8079 11.9022 18.2763H10.443C10.2142 17.7358 9.86646 17.3088 9.39805 16.9972C8.92965 16.6855 8.38918 16.5288 7.77665 16.5288C7.36769 16.5288 6.98395 16.6062 6.62364 16.763C6.26333 16.9197 5.94806 17.1377 5.67782 17.4205C5.40759 17.7034 5.1968 18.0295 5.04727 18.4024C4.89774 18.7753 4.82208 19.1771 4.82208 19.6094C4.82208 20.0418 4.89774 20.4472 5.04727 20.8255C5.1968 21.2038 5.40759 21.5353 5.67782 21.8163C5.94806 22.0992 6.26333 22.319 6.62364 22.4739C6.98395 22.6307 7.36769 22.7081 7.77665 22.7081C8.38918 22.7081 8.92603 22.5496 9.38904 22.2307C9.85204 21.9118 10.2087 21.4704 10.461 20.9066H11.9383Z" fill="currentColor"></path><path d="M13.3104 17.8889C13.5392 17.3539 13.8509 16.8891 14.2472 16.4927C14.6435 16.0964 15.1156 15.7847 15.6614 15.5559C16.2073 15.3271 16.8054 15.2136 17.454 15.2136C18.1025 15.2136 18.7007 15.3271 19.2465 15.5559C19.7924 15.7847 20.2644 16.0964 20.6608 16.4927C21.0571 16.8891 21.3688 17.3539 21.5976 17.8889C21.8264 18.424 21.9399 19.0023 21.9399 19.6275C21.9399 20.2526 21.8264 20.8147 21.5976 21.3479C21.3688 21.883 21.0571 22.3478 20.6608 22.7442C20.2644 23.1405 19.7924 23.4522 19.2465 23.681C18.7007 23.9098 18.1025 24.0233 17.454 24.0233C16.8054 24.0233 16.2073 23.9098 15.6614 23.681C15.1156 23.4522 14.6435 23.1405 14.2472 22.7442C13.8509 22.3478 13.5392 21.883 13.3104 21.3479C13.0816 20.8147 12.9681 20.24 12.9681 19.6275C12.9681 19.0149 13.0816 18.424 13.3104 17.8889ZM18.679 22.4469C19.052 22.2848 19.369 22.0686 19.6339 21.7983C19.8987 21.5281 20.1077 21.2074 20.2644 20.8345C20.4212 20.4616 20.4986 20.0598 20.4986 19.6275C20.4986 19.1951 20.423 18.7753 20.2734 18.4024C20.1239 18.0295 19.9131 17.7088 19.6429 17.4386C19.3726 17.1683 19.0502 16.9521 18.679 16.79C18.3061 16.6278 17.899 16.5468 17.454 16.5468C17.009 16.5468 16.6018 16.6278 16.2289 16.79C15.856 16.9521 15.5353 17.1683 15.2651 17.4386C14.9949 17.7088 14.7841 18.0295 14.6345 18.4024C14.485 18.7753 14.4093 19.1825 14.4093 19.6275C14.4093 20.0724 14.4868 20.4616 14.6435 20.8345C14.8003 21.2074 15.0093 21.5281 15.2741 21.7983C15.5371 22.0686 15.856 22.2848 16.2289 22.4469C16.6018 22.609 17.009 22.6901 17.454 22.6901C17.899 22.6901 18.3061 22.609 18.679 22.4469Z" fill="currentColor"></path><path d="M23.6866 23.8431V15.3938H24.9838L25.1279 16.6549C25.236 16.4747 25.3765 16.2982 25.5512 16.1234C25.726 15.9505 25.9296 15.7955 26.1638 15.664C26.398 15.5325 26.6592 15.4244 26.9475 15.3397C27.2357 15.2551 27.5546 15.2136 27.9023 15.2136C28.6589 15.2136 29.2985 15.3668 29.8209 15.673C30.3434 15.9793 30.7307 16.4207 30.983 16.9972C31.1271 16.7341 31.3072 16.4909 31.5234 16.2675C31.7396 16.0459 31.9828 15.8586 32.2531 15.7091C32.5233 15.5595 32.817 15.4388 33.1358 15.3487C33.4547 15.2587 33.788 15.2136 34.1357 15.2136C34.6888 15.2136 35.177 15.2947 35.604 15.4568C36.0309 15.619 36.3912 15.8496 36.6849 16.1504C36.9786 16.4513 37.2037 16.817 37.3605 17.2494C37.5172 17.6818 37.5947 18.1628 37.5947 18.6906V23.8431H36.1534V19.051C36.1534 18.2348 35.9589 17.6169 35.5679 17.1953C35.177 16.7756 34.6221 16.5648 33.9015 16.5648C33.5646 16.5648 33.2439 16.626 32.9376 16.745C32.6314 16.8657 32.3611 17.0332 32.1269 17.2494C31.8927 17.4656 31.709 17.7214 31.5775 18.0151C31.446 18.3087 31.3739 18.642 31.3613 19.0149V23.8431H29.92V19.051C29.92 18.2348 29.7255 17.6169 29.3345 17.1953C28.9436 16.7756 28.3887 16.5648 27.6681 16.5648C27.3204 16.5648 26.9925 16.626 26.6862 16.745C26.38 16.8657 26.1097 17.0368 25.8755 17.2584C25.6413 17.48 25.4576 17.7484 25.326 18.0601C25.1945 18.3718 25.1279 18.7141 25.1279 19.087V23.8431H23.6866Z" fill="currentColor"></path></svg>
