<?xml version="1.0" ?>
<svg xmlns="http://www.w3.org/2000/svg" xmlns:xlink="http://www.w3.org/1999/xlink" id="svg" version="1.1" viewBox="0, 0, 400,140">
	<g id="svgg">
		<path id="path0" d="M79.667 36.141 C 79.667 36.219,78.864 36.332,77.883 36.392 C 76.902 36.452,76.024 36.576,75.933 36.667 C 75.841 36.759,75.519 36.833,75.217 36.833 C 74.914 36.833,74.667 36.899,74.667 36.978 C 74.667 37.058,74.217 37.175,73.667 37.237 C 73.117 37.299,72.667 37.421,72.667 37.508 C 72.667 37.595,72.479 37.667,72.250 37.667 C 72.021 37.667,71.833 37.735,71.833 37.818 C 71.833 37.901,71.458 38.020,71.000 38.083 C 70.542 38.146,70.167 38.266,70.167 38.349 C 70.167 38.432,70.054 38.500,69.917 38.500 C 69.779 38.500,69.667 38.575,69.667 38.667 C 69.667 38.758,69.541 38.833,69.388 38.833 C 69.030 38.833,66.333 40.152,66.333 40.327 C 66.333 40.399,66.127 40.500,65.875 40.551 C 65.623 40.602,65.261 40.790,65.071 40.968 C 64.880 41.147,64.549 41.348,64.335 41.416 C 64.120 41.484,63.766 41.718,63.548 41.937 C 63.330 42.155,63.097 42.333,63.030 42.333 C 62.962 42.333,62.677 42.540,62.396 42.792 C 61.631 43.476,60.943 44.000,60.808 44.000 C 60.743 44.000,60.642 44.150,60.583 44.333 C 60.525 44.517,60.361 44.667,60.219 44.667 C 59.907 44.667,57.400 47.194,57.253 47.656 C 57.196 47.836,57.007 48.028,56.833 48.083 C 56.659 48.139,56.471 48.330,56.414 48.509 C 56.357 48.687,56.241 48.833,56.155 48.833 C 56.070 48.833,56.000 48.918,56.000 49.023 C 56.000 49.127,55.813 49.386,55.583 49.598 C 55.354 49.810,55.167 50.092,55.167 50.224 C 55.167 50.356,55.054 50.508,54.917 50.560 C 54.779 50.613,54.667 50.804,54.667 50.984 C 54.667 51.164,54.518 51.358,54.333 51.417 C 54.149 51.475,54.000 51.669,54.000 51.850 C 54.000 52.030,53.887 52.220,53.750 52.273 C 53.612 52.326,53.500 52.511,53.500 52.684 C 53.500 52.858,53.431 53.000,53.347 53.000 C 53.262 53.000,53.144 53.225,53.083 53.500 C 53.023 53.775,52.904 54.000,52.820 54.000 C 52.736 54.000,52.667 54.150,52.667 54.333 C 52.667 54.517,52.598 54.667,52.513 54.667 C 52.429 54.667,52.310 54.892,52.250 55.167 C 52.190 55.442,52.071 55.667,51.987 55.667 C 51.902 55.667,51.833 55.817,51.833 56.000 C 51.833 56.183,51.768 56.333,51.688 56.333 C 51.608 56.333,51.495 56.633,51.436 57.000 C 51.377 57.367,51.255 57.667,51.165 57.667 C 51.074 57.667,51.000 57.854,51.000 58.083 C 51.000 58.313,50.932 58.500,50.849 58.500 C 50.766 58.500,50.646 58.875,50.583 59.333 C 50.520 59.792,50.401 60.167,50.318 60.167 C 50.235 60.167,50.167 60.354,50.167 60.583 C 50.167 60.813,50.100 61.000,50.020 61.000 C 49.939 61.000,49.820 61.562,49.755 62.249 C 49.691 62.936,49.570 63.540,49.486 63.592 C 49.402 63.644,49.333 64.094,49.333 64.593 C 49.333 65.092,49.258 65.500,49.167 65.500 C 49.060 65.500,49.000 67.111,49.000 70.000 C 49.000 72.889,49.060 74.500,49.167 74.500 C 49.258 74.500,49.333 74.908,49.333 75.407 C 49.333 75.906,49.402 76.356,49.486 76.408 C 49.570 76.460,49.691 77.064,49.755 77.751 C 49.820 78.438,49.939 79.000,50.020 79.000 C 50.100 79.000,50.167 79.188,50.167 79.417 C 50.167 79.646,50.235 79.833,50.318 79.833 C 50.401 79.833,50.520 80.208,50.583 80.667 C 50.646 81.125,50.766 81.500,50.849 81.500 C 50.932 81.500,51.000 81.688,51.000 81.917 C 51.000 82.146,51.074 82.333,51.165 82.333 C 51.255 82.333,51.377 82.633,51.436 83.000 C 51.495 83.367,51.608 83.667,51.688 83.667 C 51.768 83.667,51.833 83.817,51.833 84.000 C 51.833 84.183,51.902 84.333,51.987 84.333 C 52.071 84.333,52.190 84.558,52.250 84.833 C 52.310 85.108,52.429 85.333,52.513 85.333 C 52.598 85.333,52.667 85.483,52.667 85.667 C 52.667 85.850,52.736 86.000,52.820 86.000 C 52.904 86.000,53.023 86.225,53.083 86.500 C 53.144 86.775,53.262 87.000,53.347 87.000 C 53.431 87.000,53.500 87.112,53.500 87.250 C 53.500 87.387,53.631 87.639,53.792 87.808 C 54.393 88.444,54.667 88.845,54.667 89.090 C 54.667 89.230,54.779 89.387,54.917 89.440 C 55.054 89.492,55.167 89.644,55.167 89.776 C 55.167 89.908,55.354 90.190,55.583 90.402 C 55.813 90.614,56.000 90.873,56.000 90.977 C 56.000 91.082,56.070 91.167,56.155 91.167 C 56.241 91.167,56.357 91.313,56.414 91.491 C 56.471 91.670,56.659 91.861,56.833 91.917 C 57.007 91.972,57.196 92.164,57.253 92.344 C 57.400 92.806,59.907 95.333,60.219 95.333 C 60.361 95.333,60.525 95.483,60.583 95.667 C 60.642 95.850,60.743 96.000,60.808 96.000 C 60.943 96.000,61.631 96.524,62.396 97.208 C 62.677 97.460,62.962 97.667,63.030 97.667 C 63.097 97.667,63.330 97.845,63.548 98.063 C 63.766 98.282,64.120 98.516,64.335 98.584 C 64.549 98.652,64.880 98.853,65.071 99.032 C 65.261 99.210,65.623 99.398,65.875 99.449 C 66.127 99.500,66.333 99.601,66.333 99.673 C 66.333 99.848,69.030 101.167,69.388 101.167 C 69.541 101.167,69.667 101.242,69.667 101.333 C 69.667 101.425,69.779 101.500,69.917 101.500 C 70.054 101.500,70.167 101.568,70.167 101.651 C 70.167 101.734,70.542 101.854,71.000 101.917 C 71.458 101.980,71.833 102.099,71.833 102.182 C 71.833 102.265,72.021 102.333,72.250 102.333 C 72.479 102.333,72.667 102.405,72.667 102.492 C 72.667 102.579,73.117 102.701,73.667 102.763 C 74.217 102.825,74.667 102.942,74.667 103.022 C 74.667 103.101,74.914 103.167,75.217 103.167 C 75.519 103.167,75.841 103.241,75.933 103.333 C 76.024 103.424,76.902 103.548,77.883 103.608 C 78.864 103.668,79.667 103.781,79.667 103.859 C 79.667 103.936,81.129 104.000,82.917 104.000 C 84.704 104.000,86.167 103.936,86.167 103.859 C 86.167 103.781,86.969 103.668,87.950 103.608 C 88.932 103.548,89.809 103.424,89.900 103.333 C 89.992 103.241,90.314 103.167,90.617 103.167 C 90.919 103.167,91.167 103.101,91.167 103.022 C 91.167 102.942,91.617 102.825,92.167 102.763 C 92.717 102.701,93.167 102.579,93.167 102.492 C 93.167 102.405,93.354 102.333,93.583 102.333 C 93.813 102.333,94.000 102.265,94.000 102.182 C 94.000 102.099,94.375 101.980,94.833 101.917 C 95.292 101.854,95.667 101.734,95.667 101.651 C 95.667 101.568,95.779 101.500,95.917 101.500 C 96.054 101.500,96.167 101.425,96.167 101.333 C 96.167 101.242,96.292 101.167,96.446 101.167 C 96.803 101.167,99.500 99.848,99.500 99.673 C 99.500 99.601,99.706 99.500,99.958 99.449 C 100.210 99.398,100.572 99.210,100.763 99.032 C 100.953 98.853,101.284 98.652,101.499 98.584 C 101.713 98.516,102.067 98.282,102.285 98.063 C 102.503 97.845,102.737 97.667,102.804 97.667 C 102.871 97.667,103.156 97.460,103.438 97.208 C 104.203 96.524,104.891 96.000,105.025 96.000 C 105.091 96.000,105.192 95.850,105.250 95.667 C 105.308 95.483,105.466 95.333,105.602 95.333 C 105.856 95.333,108.500 92.760,108.500 92.512 C 108.500 92.435,108.800 92.073,109.167 91.706 C 109.533 91.339,109.833 90.983,109.833 90.914 C 109.833 90.845,110.021 90.614,110.250 90.402 C 110.479 90.190,110.667 89.908,110.667 89.776 C 110.667 89.644,110.779 89.492,110.917 89.440 C 111.054 89.387,111.167 89.191,111.167 89.005 C 111.167 88.819,111.230 88.667,111.307 88.667 C 111.384 88.667,111.591 88.385,111.765 88.042 C 111.940 87.698,112.210 87.300,112.364 87.157 C 112.518 87.014,112.695 86.695,112.757 86.448 C 112.819 86.202,112.936 86.000,113.018 86.000 C 113.100 86.000,113.167 85.850,113.167 85.667 C 113.167 85.483,113.236 85.333,113.320 85.333 C 113.404 85.333,113.523 85.108,113.583 84.833 C 113.644 84.558,113.762 84.333,113.847 84.333 C 113.931 84.333,114.000 84.183,114.000 84.000 C 114.000 83.817,114.065 83.667,114.145 83.667 C 114.225 83.667,114.339 83.367,114.397 83.000 C 114.456 82.633,114.578 82.333,114.669 82.333 C 114.759 82.333,114.833 82.146,114.833 81.917 C 114.833 81.688,114.901 81.500,114.984 81.500 C 115.067 81.500,115.187 81.125,115.250 80.667 C 115.313 80.208,115.433 79.833,115.516 79.833 C 115.599 79.833,115.667 79.577,115.667 79.264 C 115.667 78.951,115.740 78.669,115.829 78.639 C 115.918 78.608,116.041 78.040,116.103 77.375 C 116.164 76.710,116.279 76.167,116.357 76.167 C 116.436 76.167,116.500 75.792,116.500 75.333 C 116.500 74.875,116.575 74.500,116.667 74.500 C 116.774 74.500,116.833 72.889,116.833 70.000 C 116.833 67.111,116.774 65.500,116.667 65.500 C 116.575 65.500,116.500 65.125,116.500 64.667 C 116.500 64.208,116.436 63.833,116.357 63.833 C 116.279 63.833,116.164 63.290,116.103 62.625 C 116.041 61.960,115.918 61.392,115.829 61.361 C 115.740 61.331,115.667 61.049,115.667 60.736 C 115.667 60.423,115.599 60.167,115.516 60.167 C 115.433 60.167,115.313 59.792,115.250 59.333 C 115.187 58.875,115.067 58.500,114.984 58.500 C 114.901 58.500,114.833 58.313,114.833 58.083 C 114.833 57.854,114.759 57.667,114.669 57.667 C 114.578 57.667,114.456 57.367,114.397 57.000 C 114.339 56.633,114.225 56.333,114.145 56.333 C 114.065 56.333,114.000 56.183,114.000 56.000 C 114.000 55.817,113.931 55.667,113.847 55.667 C 113.762 55.667,113.644 55.442,113.583 55.167 C 113.523 54.892,113.404 54.667,113.320 54.667 C 113.236 54.667,113.167 54.517,113.167 54.333 C 113.167 54.150,113.100 54.000,113.018 54.000 C 112.936 54.000,112.819 53.798,112.757 53.552 C 112.695 53.305,112.518 52.986,112.364 52.843 C 112.210 52.700,111.940 52.302,111.765 51.958 C 111.591 51.615,111.384 51.333,111.307 51.333 C 111.230 51.333,111.167 51.181,111.167 50.995 C 111.167 50.809,111.054 50.613,110.917 50.560 C 110.779 50.508,110.667 50.356,110.667 50.224 C 110.667 50.092,110.479 49.810,110.250 49.598 C 110.021 49.386,109.833 49.155,109.833 49.086 C 109.833 49.017,109.533 48.661,109.167 48.294 C 108.800 47.927,108.500 47.565,108.500 47.488 C 108.500 47.240,105.856 44.667,105.602 44.667 C 105.466 44.667,105.308 44.517,105.250 44.333 C 105.192 44.150,105.091 44.000,105.025 44.000 C 104.891 44.000,104.203 43.476,103.438 42.792 C 103.156 42.540,102.871 42.333,102.804 42.333 C 102.737 42.333,102.503 42.155,102.285 41.937 C 102.067 41.718,101.713 41.484,101.499 41.416 C 101.284 41.348,100.953 41.147,100.763 40.968 C 100.572 40.790,100.210 40.602,99.958 40.551 C 99.706 40.500,99.500 40.399,99.500 40.327 C 99.500 40.152,96.803 38.833,96.446 38.833 C 96.292 38.833,96.167 38.758,96.167 38.667 C 96.167 38.575,96.054 38.500,95.917 38.500 C 95.779 38.500,95.667 38.432,95.667 38.349 C 95.667 38.266,95.292 38.146,94.833 38.083 C 94.375 38.020,94.000 37.901,94.000 37.818 C 94.000 37.735,93.813 37.667,93.583 37.667 C 93.354 37.667,93.167 37.595,93.167 37.508 C 93.167 37.421,92.717 37.299,92.167 37.237 C 91.617 37.175,91.167 37.058,91.167 36.978 C 91.167 36.899,90.919 36.833,90.617 36.833 C 90.314 36.833,89.992 36.759,89.900 36.667 C 89.809 36.576,88.932 36.452,87.950 36.392 C 86.969 36.332,86.167 36.219,86.167 36.141 C 86.167 36.064,84.704 36.000,82.917 36.000 C 81.129 36.000,79.667 36.064,79.667 36.141 M86.472 45.520 C 86.503 45.601,86.892 45.667,87.337 45.667 C 87.783 45.667,88.188 45.733,88.238 45.814 C 88.288 45.895,88.742 46.013,89.248 46.076 C 89.753 46.139,90.167 46.260,90.167 46.345 C 90.167 46.430,90.350 46.500,90.573 46.500 C 90.797 46.500,91.027 46.575,91.083 46.667 C 91.140 46.758,91.302 46.833,91.443 46.833 C 91.718 46.833,92.861 47.328,93.000 47.507 C 93.046 47.566,93.337 47.664,93.647 47.724 C 93.958 47.785,94.333 47.973,94.481 48.143 C 94.629 48.313,94.938 48.511,95.167 48.583 C 95.396 48.655,95.696 48.843,95.833 49.000 C 95.971 49.157,96.233 49.333,96.417 49.392 C 96.600 49.450,96.968 49.686,97.234 49.916 C 97.501 50.145,97.786 50.333,97.869 50.333 C 98.218 50.333,103.167 55.525,103.167 55.892 C 103.167 55.976,103.306 56.166,103.476 56.314 C 103.646 56.462,103.839 56.752,103.904 56.958 C 103.969 57.165,104.092 57.333,104.178 57.333 C 104.263 57.333,104.333 57.446,104.333 57.583 C 104.333 57.721,104.408 57.833,104.500 57.833 C 104.592 57.833,104.667 57.953,104.667 58.099 C 104.667 58.393,105.178 59.385,105.375 59.472 C 105.444 59.503,105.500 59.653,105.501 59.806 C 105.502 59.958,105.614 60.298,105.751 60.561 C 105.888 60.823,106.000 61.142,106.000 61.269 C 106.000 61.396,106.068 61.500,106.151 61.500 C 106.234 61.500,106.354 61.875,106.417 62.333 C 106.480 62.792,106.599 63.167,106.682 63.167 C 106.765 63.167,106.833 63.377,106.833 63.633 C 106.833 63.890,106.910 64.176,107.003 64.270 C 107.096 64.363,107.220 65.055,107.278 65.809 C 107.336 66.562,107.447 67.217,107.525 67.266 C 107.603 67.314,107.667 68.544,107.667 70.000 C 107.667 71.456,107.603 72.686,107.525 72.734 C 107.447 72.783,107.336 73.438,107.278 74.191 C 107.220 74.945,107.096 75.637,107.003 75.730 C 106.910 75.824,106.833 76.110,106.833 76.367 C 106.833 76.623,106.765 76.833,106.682 76.833 C 106.599 76.833,106.480 77.208,106.417 77.667 C 106.354 78.125,106.234 78.500,106.151 78.500 C 106.068 78.500,106.000 78.604,106.000 78.731 C 106.000 78.858,105.888 79.177,105.751 79.439 C 105.614 79.702,105.502 80.042,105.501 80.194 C 105.500 80.347,105.444 80.497,105.375 80.528 C 105.178 80.615,104.667 81.607,104.667 81.901 C 104.667 82.047,104.592 82.167,104.500 82.167 C 104.408 82.167,104.333 82.279,104.333 82.417 C 104.333 82.554,104.263 82.667,104.178 82.667 C 104.092 82.667,103.969 82.835,103.904 83.042 C 103.839 83.248,103.646 83.538,103.476 83.686 C 103.306 83.834,103.167 84.024,103.167 84.108 C 103.167 84.475,98.218 89.667,97.869 89.667 C 97.786 89.667,97.501 89.855,97.234 90.084 C 96.968 90.314,96.600 90.550,96.417 90.608 C 96.233 90.667,95.971 90.843,95.833 91.000 C 95.696 91.157,95.396 91.345,95.167 91.417 C 94.938 91.489,94.629 91.687,94.481 91.857 C 94.333 92.027,93.958 92.215,93.647 92.276 C 93.337 92.336,93.046 92.434,93.000 92.493 C 92.861 92.672,91.718 93.167,91.443 93.167 C 91.302 93.167,91.140 93.242,91.083 93.333 C 91.027 93.425,90.797 93.500,90.573 93.500 C 90.350 93.500,90.167 93.570,90.167 93.655 C 90.167 93.740,89.753 93.861,89.248 93.924 C 88.742 93.987,88.288 94.105,88.238 94.186 C 88.188 94.267,87.783 94.333,87.337 94.333 C 86.872 94.333,86.500 94.415,86.463 94.527 C 86.372 94.801,79.461 94.801,79.370 94.527 C 79.333 94.415,78.962 94.333,78.496 94.333 C 78.051 94.333,77.645 94.267,77.595 94.186 C 77.545 94.105,77.091 93.987,76.586 93.924 C 76.080 93.861,75.667 93.740,75.667 93.655 C 75.667 93.570,75.484 93.500,75.260 93.500 C 75.036 93.500,74.807 93.425,74.750 93.333 C 74.693 93.242,74.532 93.167,74.390 93.167 C 74.116 93.167,72.972 92.672,72.833 92.493 C 72.787 92.434,72.496 92.336,72.186 92.276 C 71.876 92.215,71.501 92.027,71.353 91.857 C 71.205 91.687,70.896 91.489,70.667 91.417 C 70.438 91.345,70.137 91.157,70.000 91.000 C 69.862 90.843,69.600 90.667,69.417 90.608 C 69.233 90.550,68.865 90.314,68.599 90.084 C 68.333 89.855,68.047 89.667,67.965 89.667 C 67.615 89.667,62.667 84.475,62.667 84.108 C 62.667 84.024,62.527 83.834,62.357 83.686 C 62.187 83.538,61.994 83.248,61.929 83.042 C 61.864 82.835,61.741 82.667,61.655 82.667 C 61.570 82.667,61.500 82.554,61.500 82.417 C 61.500 82.279,61.425 82.167,61.333 82.167 C 61.242 82.167,61.167 82.047,61.167 81.901 C 61.167 81.642,60.688 80.667,60.479 80.500 C 60.422 80.454,60.322 80.173,60.258 79.875 C 60.193 79.577,60.071 79.333,59.987 79.333 C 59.902 79.333,59.833 79.146,59.833 78.917 C 59.833 78.688,59.765 78.500,59.682 78.500 C 59.599 78.500,59.480 78.125,59.417 77.667 C 59.354 77.208,59.234 76.833,59.151 76.833 C 59.068 76.833,59.000 76.577,59.000 76.264 C 59.000 75.951,58.923 75.669,58.828 75.637 C 58.733 75.606,58.610 74.924,58.553 74.123 C 58.497 73.322,58.387 72.667,58.309 72.667 C 58.231 72.667,58.167 71.467,58.167 70.000 C 58.167 68.533,58.231 67.333,58.309 67.333 C 58.387 67.333,58.497 66.678,58.553 65.877 C 58.610 65.076,58.733 64.394,58.828 64.363 C 58.923 64.331,59.000 64.049,59.000 63.736 C 59.000 63.423,59.068 63.167,59.151 63.167 C 59.234 63.167,59.354 62.792,59.417 62.333 C 59.480 61.875,59.599 61.500,59.682 61.500 C 59.765 61.500,59.833 61.313,59.833 61.083 C 59.833 60.854,59.902 60.667,59.987 60.667 C 60.071 60.667,60.193 60.423,60.258 60.125 C 60.322 59.827,60.422 59.546,60.479 59.500 C 60.688 59.333,61.167 58.358,61.167 58.099 C 61.167 57.953,61.242 57.833,61.333 57.833 C 61.425 57.833,61.500 57.721,61.500 57.583 C 61.500 57.446,61.570 57.333,61.655 57.333 C 61.741 57.333,61.864 57.165,61.929 56.958 C 61.994 56.752,62.187 56.462,62.357 56.314 C 62.527 56.166,62.667 55.976,62.667 55.892 C 62.667 55.458,67.528 50.453,68.136 50.260 C 68.336 50.196,68.500 50.086,68.500 50.015 C 68.500 49.944,68.781 49.743,69.125 49.568 C 69.469 49.393,69.862 49.129,70.000 48.982 C 70.137 48.835,70.438 48.655,70.667 48.583 C 70.896 48.511,71.205 48.313,71.353 48.143 C 71.501 47.973,71.876 47.785,72.186 47.724 C 72.496 47.664,72.787 47.566,72.833 47.507 C 72.972 47.328,74.116 46.833,74.390 46.833 C 74.532 46.833,74.693 46.758,74.750 46.667 C 74.807 46.575,75.036 46.500,75.260 46.500 C 75.484 46.500,75.667 46.430,75.667 46.345 C 75.667 46.260,76.080 46.139,76.586 46.076 C 77.091 46.013,77.545 45.895,77.595 45.814 C 77.645 45.733,78.057 45.667,78.510 45.667 C 78.963 45.667,79.333 45.595,79.333 45.507 C 79.333 45.177,86.347 45.190,86.472 45.520 M83.625 59.776 C 83.373 59.820,83.167 59.925,83.167 60.011 C 83.167 60.097,83.086 60.167,82.987 60.167 C 82.722 60.167,81.557 61.390,81.425 61.807 C 81.362 62.005,81.241 62.167,81.155 62.167 C 81.070 62.167,81.000 62.279,81.000 62.417 C 81.000 62.554,80.933 62.667,80.851 62.667 C 80.770 62.667,80.656 62.854,80.598 63.083 C 80.541 63.313,80.420 63.500,80.330 63.500 C 80.240 63.500,80.167 63.612,80.167 63.750 C 80.167 63.887,80.093 64.000,80.003 64.000 C 79.913 64.000,79.793 64.188,79.735 64.417 C 79.678 64.646,79.564 64.833,79.482 64.833 C 79.400 64.833,79.333 64.975,79.333 65.149 C 79.333 65.322,79.221 65.508,79.083 65.560 C 78.946 65.613,78.833 65.809,78.833 65.995 C 78.833 66.181,78.758 66.333,78.667 66.333 C 78.575 66.333,78.500 66.446,78.500 66.583 C 78.500 66.721,78.426 66.833,78.337 66.833 C 78.247 66.833,78.126 67.021,78.068 67.250 C 78.011 67.479,77.897 67.667,77.815 67.667 C 77.734 67.667,77.667 67.779,77.667 67.917 C 77.667 68.054,77.597 68.167,77.511 68.167 C 77.426 68.167,77.303 68.335,77.237 68.542 C 77.172 68.748,76.980 69.038,76.810 69.186 C 76.640 69.334,76.454 69.688,76.397 69.973 C 76.340 70.257,76.162 70.532,76.000 70.583 C 75.838 70.635,75.660 70.909,75.603 71.194 C 75.546 71.479,75.360 71.833,75.190 71.981 C 75.020 72.129,74.828 72.419,74.763 72.625 C 74.697 72.831,74.574 73.000,74.489 73.000 C 74.403 73.000,74.333 73.112,74.333 73.250 C 74.333 73.387,74.266 73.500,74.185 73.500 C 74.103 73.500,73.989 73.688,73.932 73.917 C 73.874 74.146,73.753 74.333,73.663 74.333 C 73.574 74.333,73.500 74.446,73.500 74.583 C 73.500 74.721,73.425 74.833,73.333 74.833 C 73.242 74.833,73.167 74.986,73.167 75.172 C 73.167 75.358,73.054 75.554,72.917 75.606 C 72.779 75.659,72.667 75.844,72.667 76.018 C 72.667 76.191,72.600 76.333,72.518 76.333 C 72.436 76.333,72.322 76.521,72.265 76.750 C 72.207 76.979,72.087 77.167,71.997 77.167 C 71.907 77.167,71.833 77.279,71.833 77.417 C 71.833 77.554,71.760 77.667,71.670 77.667 C 71.580 77.667,71.459 77.854,71.402 78.083 C 71.344 78.313,71.230 78.500,71.149 78.500 C 71.067 78.500,71.000 79.250,71.000 80.167 C 71.000 81.167,71.067 81.833,71.167 81.833 C 71.258 81.833,71.333 81.992,71.333 82.185 C 71.333 82.532,72.664 84.000,72.978 84.000 C 73.067 84.000,73.170 84.094,73.208 84.208 C 73.259 84.361,73.854 84.417,75.417 84.417 C 76.980 84.417,77.574 84.361,77.625 84.208 C 77.663 84.094,77.769 84.000,77.860 84.000 C 78.083 84.000,79.000 83.072,79.000 82.846 C 79.000 82.747,79.075 82.667,79.167 82.667 C 79.258 82.667,79.333 82.514,79.333 82.328 C 79.333 82.142,79.446 81.946,79.583 81.894 C 79.721 81.841,79.833 81.656,79.833 81.482 C 79.833 81.309,79.900 81.167,79.982 81.167 C 80.064 81.167,80.178 80.979,80.235 80.750 C 80.293 80.521,80.413 80.333,80.503 80.333 C 80.593 80.333,80.667 80.221,80.667 80.083 C 80.667 79.946,80.740 79.833,80.830 79.833 C 80.920 79.833,81.041 79.646,81.098 79.417 C 81.156 79.188,81.270 79.000,81.351 79.000 C 81.433 79.000,81.500 78.887,81.500 78.750 C 81.500 78.612,81.574 78.500,81.663 78.500 C 81.753 78.500,81.874 78.313,81.932 78.083 C 81.989 77.854,82.103 77.667,82.185 77.667 C 82.266 77.667,82.333 77.525,82.333 77.351 C 82.333 77.178,82.446 76.992,82.583 76.940 C 82.721 76.887,82.833 76.696,82.833 76.516 C 82.833 76.336,82.974 76.144,83.147 76.090 C 83.328 76.032,83.504 75.771,83.564 75.473 C 83.621 75.188,83.806 74.834,83.976 74.686 C 84.147 74.538,84.345 74.229,84.417 74.000 C 84.489 73.771,84.687 73.462,84.857 73.314 C 85.027 73.166,85.213 72.812,85.270 72.527 C 85.329 72.229,85.506 71.968,85.687 71.910 C 85.859 71.856,86.000 71.664,86.000 71.484 C 86.000 71.304,86.112 71.113,86.250 71.060 C 86.388 71.008,86.500 70.822,86.500 70.649 C 86.500 70.475,86.567 70.333,86.649 70.333 C 86.730 70.333,86.844 70.146,86.902 69.917 C 86.959 69.688,87.080 69.500,87.170 69.500 C 87.260 69.500,87.333 69.387,87.333 69.250 C 87.333 69.112,87.400 69.000,87.482 69.000 C 87.564 69.000,87.678 68.813,87.735 68.583 C 87.793 68.354,87.913 68.167,88.003 68.167 C 88.093 68.167,88.167 68.054,88.167 67.917 C 88.167 67.779,88.240 67.667,88.330 67.667 C 88.420 67.667,88.541 67.479,88.598 67.250 C 88.656 67.021,88.770 66.833,88.851 66.833 C 88.933 66.833,89.000 66.690,89.000 66.514 C 89.000 66.338,89.094 66.163,89.208 66.125 C 89.616 65.989,89.489 62.091,89.066 61.722 C 88.872 61.554,88.661 61.248,88.596 61.042 C 88.526 60.820,88.343 60.667,88.150 60.667 C 87.970 60.667,87.780 60.554,87.727 60.417 C 87.674 60.279,87.495 60.167,87.329 60.167 C 87.164 60.167,87.000 60.084,86.967 59.984 C 86.902 59.790,84.427 59.636,83.625 59.776 " stroke="none" fill="#f29624" fill-rule="evenodd"/>
		<path id="path1" d="M98.500 60.000 C 98.500 60.092,98.388 60.167,98.250 60.167 C 98.112 60.167,98.000 60.237,98.000 60.322 C 98.000 60.408,97.838 60.529,97.639 60.592 C 97.176 60.739,96.572 61.343,96.425 61.806 C 96.362 62.004,96.241 62.167,96.155 62.167 C 96.070 62.167,96.000 62.279,96.000 62.417 C 96.000 62.554,95.928 62.667,95.841 62.667 C 95.753 62.667,95.633 62.927,95.573 63.244 C 95.509 63.585,95.344 63.860,95.169 63.916 C 95.006 63.968,94.826 64.243,94.770 64.527 C 94.713 64.812,94.527 65.166,94.357 65.314 C 94.187 65.462,93.989 65.771,93.917 66.000 C 93.845 66.229,93.651 66.534,93.487 66.677 C 93.323 66.819,93.134 67.157,93.068 67.427 C 93.001 67.696,92.814 68.011,92.653 68.125 C 92.492 68.240,92.310 68.559,92.250 68.834 C 92.190 69.108,92.071 69.333,91.987 69.333 C 91.902 69.333,91.833 69.446,91.833 69.583 C 91.833 69.721,91.760 69.833,91.670 69.833 C 91.580 69.833,91.459 70.021,91.402 70.250 C 91.344 70.479,91.230 70.667,91.149 70.667 C 91.067 70.667,91.000 70.809,91.000 70.982 C 91.000 71.156,90.888 71.341,90.750 71.394 C 90.612 71.446,90.500 71.642,90.500 71.828 C 90.500 72.014,90.425 72.167,90.333 72.167 C 90.242 72.167,90.167 72.279,90.167 72.417 C 90.167 72.554,90.093 72.667,90.003 72.667 C 89.913 72.667,89.793 72.854,89.735 73.083 C 89.678 73.313,89.564 73.500,89.482 73.500 C 89.400 73.500,89.333 73.612,89.333 73.750 C 89.333 73.887,89.260 74.000,89.170 74.000 C 89.080 74.000,88.959 74.188,88.902 74.417 C 88.844 74.646,88.730 74.833,88.649 74.833 C 88.567 74.833,88.500 74.983,88.500 75.167 C 88.500 75.350,88.433 75.500,88.351 75.500 C 88.270 75.500,88.156 75.688,88.098 75.917 C 88.041 76.146,87.920 76.333,87.830 76.333 C 87.740 76.333,87.667 76.446,87.667 76.583 C 87.667 76.721,87.600 76.833,87.518 76.833 C 87.436 76.833,87.322 77.021,87.265 77.250 C 87.207 77.479,87.087 77.667,86.997 77.667 C 86.907 77.667,86.833 77.779,86.833 77.917 C 86.833 78.054,86.758 78.167,86.667 78.167 C 86.575 78.167,86.500 78.319,86.500 78.505 C 86.500 78.691,86.388 78.887,86.250 78.940 C 86.112 78.992,86.000 79.178,86.000 79.351 C 86.000 79.525,85.933 79.667,85.851 79.667 C 85.770 79.667,85.656 79.854,85.598 80.083 C 85.541 80.313,85.420 80.500,85.330 80.500 C 85.240 80.500,85.167 80.612,85.167 80.750 C 85.167 80.887,85.098 81.000,85.013 81.000 C 84.929 81.000,84.806 81.244,84.741 81.542 C 84.675 81.840,84.491 82.175,84.330 82.288 C 84.169 82.400,83.987 82.696,83.925 82.945 C 83.862 83.193,83.657 83.531,83.468 83.694 C 82.805 84.269,82.831 88.371,83.498 88.583 C 83.671 88.638,83.836 88.848,83.864 89.050 C 83.897 89.280,84.053 89.436,84.284 89.469 C 84.486 89.498,84.696 89.662,84.751 89.835 C 84.960 90.496,89.045 90.549,89.611 89.899 C 89.779 89.706,90.085 89.494,90.292 89.429 C 90.500 89.363,90.667 89.176,90.667 89.007 C 90.667 88.839,90.779 88.659,90.917 88.606 C 91.054 88.554,91.167 88.376,91.167 88.212 C 91.167 88.048,91.310 87.824,91.485 87.715 C 91.660 87.605,91.854 87.287,91.915 87.008 C 91.976 86.729,92.096 86.500,92.180 86.500 C 92.264 86.500,92.333 86.388,92.333 86.250 C 92.333 86.112,92.407 86.000,92.497 86.000 C 92.587 86.000,92.707 85.813,92.765 85.583 C 92.822 85.354,92.936 85.167,93.018 85.167 C 93.100 85.167,93.167 85.025,93.167 84.851 C 93.167 84.678,93.279 84.492,93.417 84.440 C 93.554 84.387,93.667 84.191,93.667 84.005 C 93.667 83.819,93.742 83.667,93.833 83.667 C 93.925 83.667,94.000 83.554,94.000 83.417 C 94.000 83.279,94.074 83.167,94.163 83.167 C 94.253 83.167,94.374 82.979,94.432 82.750 C 94.489 82.521,94.603 82.333,94.685 82.333 C 94.766 82.333,94.833 82.221,94.833 82.083 C 94.833 81.946,94.908 81.833,95.000 81.833 C 95.092 81.833,95.167 81.681,95.167 81.495 C 95.167 81.309,95.279 81.113,95.417 81.060 C 95.554 81.008,95.667 80.822,95.667 80.649 C 95.667 80.475,95.734 80.333,95.815 80.333 C 95.897 80.333,96.011 80.146,96.068 79.917 C 96.126 79.688,96.247 79.500,96.337 79.500 C 96.426 79.500,96.500 79.387,96.500 79.250 C 96.500 79.112,96.567 79.000,96.649 79.000 C 96.730 79.000,96.844 78.813,96.902 78.583 C 96.959 78.354,97.080 78.167,97.170 78.167 C 97.260 78.167,97.333 78.054,97.333 77.917 C 97.333 77.779,97.408 77.667,97.500 77.667 C 97.592 77.667,97.667 77.514,97.667 77.328 C 97.667 77.142,97.779 76.946,97.917 76.894 C 98.054 76.841,98.167 76.656,98.167 76.482 C 98.167 76.309,98.234 76.167,98.315 76.167 C 98.397 76.167,98.515 75.965,98.576 75.718 C 98.638 75.472,98.829 75.148,99.000 75.000 C 99.171 74.852,99.366 74.510,99.432 74.240 C 99.499 73.971,99.683 73.658,99.841 73.546 C 99.999 73.433,100.180 73.138,100.242 72.889 C 100.305 72.640,100.490 72.319,100.654 72.177 C 100.818 72.034,101.011 71.729,101.083 71.500 C 101.155 71.271,101.353 70.962,101.524 70.814 C 101.694 70.666,101.880 70.310,101.937 70.022 C 101.995 69.735,102.107 69.500,102.188 69.500 C 102.268 69.500,102.333 69.387,102.333 69.250 C 102.333 69.112,102.407 69.000,102.497 69.000 C 102.587 69.000,102.707 68.813,102.765 68.583 C 102.822 68.354,102.936 68.167,103.018 68.167 C 103.100 68.167,103.167 68.054,103.167 67.917 C 103.167 67.779,103.240 67.667,103.330 67.667 C 103.420 67.667,103.541 67.479,103.598 67.250 C 103.656 67.021,103.770 66.833,103.851 66.833 C 103.933 66.833,104.000 66.690,104.000 66.514 C 104.000 66.338,104.094 66.163,104.208 66.125 C 104.359 66.074,104.417 65.529,104.417 64.166 C 104.417 62.804,104.359 62.258,104.208 62.208 C 104.094 62.170,104.000 62.031,104.000 61.900 C 104.000 61.595,102.881 60.500,102.569 60.500 C 102.439 60.500,102.333 60.425,102.333 60.333 C 102.333 60.242,102.221 60.167,102.083 60.167 C 101.946 60.167,101.833 60.092,101.833 60.000 C 101.833 59.900,101.167 59.833,100.167 59.833 C 99.167 59.833,98.500 59.900,98.500 60.000 " stroke="none" fill="#34ac4c" fill-rule="evenodd"/>
		<path id="path2" d="M70.667 57.500 C 70.667 57.592,70.442 57.667,70.167 57.667 C 69.892 57.667,69.667 57.742,69.667 57.833 C 69.667 57.925,69.546 58.000,69.398 58.000 C 69.105 58.000,67.667 59.377,67.667 59.659 C 67.667 59.755,67.592 59.833,67.500 59.833 C 67.408 59.833,67.333 59.986,67.333 60.172 C 67.333 60.358,67.221 60.554,67.083 60.606 C 66.946 60.659,66.833 60.844,66.833 61.018 C 66.833 61.191,66.766 61.333,66.685 61.333 C 66.603 61.333,66.489 61.521,66.432 61.750 C 66.374 61.979,66.253 62.167,66.163 62.167 C 66.074 62.167,66.000 62.279,66.000 62.417 C 66.000 62.554,65.933 62.667,65.851 62.667 C 65.770 62.667,65.656 62.854,65.598 63.083 C 65.541 63.313,65.420 63.500,65.330 63.500 C 65.240 63.500,65.167 63.612,65.167 63.750 C 65.167 63.887,65.093 64.000,65.003 64.000 C 64.913 64.000,64.793 64.188,64.735 64.417 C 64.678 64.646,64.564 64.833,64.482 64.833 C 64.400 64.833,64.333 64.975,64.333 65.149 C 64.333 65.322,64.221 65.508,64.083 65.560 C 63.946 65.613,63.833 65.809,63.833 65.995 C 63.833 66.181,63.758 66.333,63.667 66.333 C 63.575 66.333,63.500 66.446,63.500 66.583 C 63.500 66.721,63.430 66.833,63.345 66.833 C 63.259 66.833,63.136 67.002,63.071 67.208 C 63.006 67.415,62.824 67.696,62.667 67.833 C 62.510 67.971,62.322 68.271,62.250 68.500 C 62.178 68.729,61.980 69.038,61.810 69.186 C 61.640 69.334,61.454 69.688,61.397 69.973 C 61.339 70.264,61.161 70.532,60.989 70.587 C 60.452 70.757,60.282 74.955,60.805 75.129 C 60.912 75.165,61.000 75.269,61.000 75.360 C 61.000 75.542,61.909 76.500,62.082 76.500 C 62.142 76.500,62.303 76.612,62.440 76.750 C 62.578 76.887,62.873 77.000,63.095 77.000 C 63.318 77.000,63.500 77.075,63.500 77.167 C 63.500 77.265,64.111 77.333,65.000 77.333 C 65.841 77.333,66.500 77.263,66.500 77.174 C 66.500 77.087,66.760 76.966,67.078 76.907 C 67.436 76.840,67.693 76.678,67.756 76.483 C 67.811 76.309,67.926 76.167,68.011 76.167 C 68.097 76.167,68.167 76.054,68.167 75.917 C 68.167 75.779,68.237 75.667,68.322 75.667 C 68.408 75.667,68.531 75.498,68.596 75.292 C 68.661 75.085,68.843 74.804,69.000 74.667 C 69.157 74.529,69.345 74.229,69.417 74.000 C 69.489 73.771,69.687 73.462,69.857 73.314 C 70.027 73.166,70.213 72.812,70.270 72.527 C 70.329 72.229,70.506 71.968,70.687 71.910 C 70.859 71.856,71.000 71.664,71.000 71.484 C 71.000 71.304,71.112 71.113,71.250 71.060 C 71.387 71.008,71.500 70.822,71.500 70.649 C 71.500 70.475,71.567 70.333,71.649 70.333 C 71.730 70.333,71.844 70.146,71.902 69.917 C 71.959 69.688,72.080 69.500,72.170 69.500 C 72.260 69.500,72.333 69.387,72.333 69.250 C 72.333 69.112,72.400 69.000,72.482 69.000 C 72.564 69.000,72.678 68.813,72.735 68.583 C 72.793 68.354,72.913 68.167,73.003 68.167 C 73.093 68.167,73.167 68.054,73.167 67.917 C 73.167 67.779,73.242 67.667,73.333 67.667 C 73.425 67.667,73.500 67.514,73.500 67.328 C 73.500 67.142,73.612 66.946,73.750 66.894 C 73.887 66.841,74.000 66.664,74.000 66.500 C 74.000 66.336,74.112 66.159,74.250 66.106 C 74.387 66.054,74.500 65.858,74.500 65.672 C 74.500 65.486,74.575 65.333,74.667 65.333 C 74.758 65.333,74.833 65.221,74.833 65.083 C 74.833 64.946,74.907 64.833,74.997 64.833 C 75.087 64.833,75.207 64.646,75.265 64.417 C 75.322 64.188,75.436 64.000,75.518 64.000 C 75.600 64.000,75.667 63.887,75.667 63.750 C 75.667 63.612,75.742 63.500,75.833 63.500 C 75.932 63.500,76.000 62.889,76.000 62.000 C 76.000 61.111,75.932 60.500,75.833 60.500 C 75.742 60.500,75.667 60.350,75.667 60.167 C 75.667 59.983,75.600 59.833,75.518 59.833 C 75.436 59.833,75.324 59.651,75.268 59.428 C 75.212 59.205,75.020 58.976,74.841 58.919 C 74.663 58.863,74.473 58.678,74.420 58.509 C 74.360 58.322,74.095 58.159,73.744 58.093 C 73.427 58.034,73.167 57.913,73.167 57.826 C 73.167 57.738,72.979 57.667,72.750 57.667 C 72.521 57.667,72.333 57.592,72.333 57.500 C 72.333 57.408,71.958 57.333,71.500 57.333 C 71.042 57.333,70.667 57.408,70.667 57.500 " stroke="none" fill="#ec3c24" fill-rule="evenodd"/>
		<path id="path3" d="M137.042 49.778 C 136.652 49.819,136.333 49.923,136.333 50.010 C 136.333 50.096,136.071 50.167,135.750 50.167 C 135.429 50.167,135.167 50.232,135.167 50.312 C 135.167 50.392,134.867 50.505,134.500 50.564 C 134.133 50.623,133.833 50.745,133.833 50.835 C 133.833 50.926,133.683 51.000,133.500 51.000 C 133.317 51.000,133.167 51.069,133.167 51.153 C 133.167 51.238,132.956 51.353,132.699 51.410 C 132.442 51.466,132.125 51.660,131.996 51.839 C 131.866 52.019,131.667 52.167,131.554 52.167 C 131.441 52.167,131.170 52.345,130.952 52.563 C 130.734 52.782,130.397 53.010,130.203 53.072 C 130.009 53.133,129.799 53.346,129.736 53.544 C 129.673 53.743,129.369 54.150,129.061 54.450 C 128.752 54.749,128.500 55.108,128.500 55.247 C 128.500 55.386,128.431 55.500,128.347 55.500 C 128.262 55.500,128.144 55.725,128.083 56.000 C 128.023 56.275,127.904 56.500,127.820 56.500 C 127.736 56.500,127.667 56.644,127.667 56.819 C 127.667 56.995,127.594 57.164,127.505 57.194 C 127.415 57.225,127.292 57.794,127.231 58.458 C 127.169 59.123,127.055 59.667,126.976 59.667 C 126.898 59.667,126.833 60.267,126.833 61.000 C 126.833 61.733,126.897 62.333,126.976 62.333 C 127.054 62.333,127.164 62.876,127.219 63.540 C 127.275 64.203,127.398 64.772,127.494 64.803 C 127.589 64.835,127.667 64.967,127.667 65.097 C 127.667 65.227,127.732 65.333,127.813 65.333 C 127.893 65.333,128.005 65.568,128.063 65.856 C 128.120 66.143,128.306 66.499,128.476 66.647 C 128.647 66.795,128.838 67.082,128.901 67.283 C 128.965 67.485,129.159 67.695,129.333 67.750 C 129.507 67.805,129.695 67.993,129.750 68.167 C 129.805 68.341,129.993 68.528,130.167 68.583 C 130.341 68.639,130.528 68.826,130.583 69.000 C 130.639 69.174,130.849 69.368,131.050 69.432 C 131.252 69.496,131.529 69.676,131.667 69.833 C 131.804 69.990,132.085 70.172,132.292 70.237 C 132.498 70.303,132.667 70.426,132.667 70.511 C 132.667 70.597,132.779 70.667,132.917 70.667 C 133.054 70.667,133.167 70.733,133.167 70.815 C 133.167 70.896,133.429 71.012,133.750 71.072 C 134.071 71.133,134.333 71.253,134.333 71.341 C 134.333 71.428,134.446 71.500,134.583 71.500 C 134.721 71.500,134.833 71.567,134.833 71.648 C 134.833 71.730,135.096 71.845,135.417 71.906 C 135.737 71.966,136.000 72.087,136.000 72.174 C 136.000 72.262,136.188 72.333,136.417 72.333 C 136.646 72.333,136.833 72.399,136.833 72.479 C 136.833 72.559,137.133 72.672,137.500 72.731 C 137.867 72.789,138.167 72.911,138.167 73.002 C 138.167 73.093,138.354 73.167,138.583 73.167 C 138.813 73.167,139.000 73.233,139.000 73.315 C 139.000 73.396,139.262 73.512,139.583 73.572 C 139.904 73.633,140.167 73.753,140.167 73.841 C 140.167 73.928,140.279 74.000,140.417 74.000 C 140.554 74.000,140.667 74.067,140.667 74.148 C 140.667 74.230,140.911 74.342,141.211 74.398 C 141.510 74.454,141.895 74.688,142.067 74.917 C 142.239 75.146,142.514 75.333,142.679 75.333 C 142.843 75.333,143.031 75.502,143.096 75.708 C 143.161 75.915,143.353 76.205,143.524 76.353 C 143.694 76.501,143.880 76.857,143.937 77.144 C 143.995 77.432,144.107 77.667,144.188 77.667 C 144.268 77.667,144.333 78.229,144.333 78.917 C 144.333 79.604,144.268 80.167,144.188 80.167 C 144.109 80.167,144.001 80.428,143.949 80.747 C 143.839 81.428,142.448 82.923,141.765 83.095 C 141.528 83.154,141.333 83.270,141.333 83.351 C 141.333 83.433,141.152 83.500,140.931 83.500 C 140.709 83.500,140.497 83.594,140.458 83.708 C 140.406 83.865,139.613 83.917,137.250 83.917 C 134.887 83.917,134.094 83.865,134.042 83.708 C 134.002 83.589,133.694 83.500,133.319 83.500 C 132.960 83.500,132.667 83.432,132.667 83.349 C 132.667 83.266,132.292 83.146,131.833 83.083 C 131.375 83.020,131.000 82.901,131.000 82.818 C 131.000 82.735,130.850 82.667,130.667 82.667 C 130.483 82.667,130.333 82.601,130.333 82.521 C 130.333 82.441,130.033 82.328,129.667 82.269 C 129.300 82.211,129.000 82.089,129.000 81.998 C 129.000 81.907,128.887 81.833,128.750 81.833 C 128.612 81.833,128.500 81.758,128.500 81.667 C 128.500 81.575,128.420 81.500,128.321 81.500 C 128.027 81.500,127.667 81.952,127.667 82.321 C 127.667 82.511,127.600 82.667,127.519 82.667 C 127.438 82.667,127.320 83.154,127.256 83.750 C 127.192 84.346,127.071 84.833,126.987 84.833 C 126.902 84.833,126.833 85.090,126.833 85.403 C 126.833 85.716,126.759 85.997,126.668 86.028 C 126.350 86.135,126.247 88.167,126.560 88.167 C 126.710 88.167,126.833 88.241,126.833 88.331 C 126.833 88.422,127.133 88.544,127.500 88.603 C 127.867 88.661,128.167 88.775,128.167 88.855 C 128.167 88.935,128.317 89.000,128.500 89.000 C 128.683 89.000,128.833 89.066,128.833 89.147 C 128.833 89.229,129.246 89.346,129.750 89.409 C 130.254 89.472,130.667 89.594,130.667 89.679 C 130.667 89.764,130.998 89.833,131.403 89.833 C 131.844 89.833,132.167 89.917,132.208 90.042 C 132.262 90.202,133.387 90.250,137.083 90.250 C 140.780 90.250,141.905 90.202,141.958 90.042 C 141.997 89.927,142.284 89.833,142.597 89.833 C 142.910 89.833,143.167 89.765,143.167 89.682 C 143.167 89.599,143.542 89.480,144.000 89.417 C 144.458 89.354,144.833 89.234,144.833 89.151 C 144.833 89.068,144.946 89.000,145.083 89.000 C 145.221 89.000,145.333 88.933,145.333 88.852 C 145.333 88.770,145.596 88.655,145.917 88.594 C 146.237 88.534,146.500 88.413,146.500 88.326 C 146.500 88.238,146.612 88.167,146.750 88.167 C 146.887 88.167,147.000 88.097,147.000 88.011 C 147.000 87.926,147.161 87.805,147.357 87.743 C 147.842 87.589,150.333 85.097,150.333 84.765 C 150.333 84.619,150.408 84.500,150.500 84.500 C 150.592 84.500,150.667 84.387,150.667 84.250 C 150.667 84.112,150.738 84.000,150.826 84.000 C 150.913 84.000,151.034 83.737,151.094 83.417 C 151.155 83.096,151.270 82.833,151.352 82.833 C 151.433 82.833,151.500 82.652,151.500 82.431 C 151.500 82.209,151.594 81.996,151.708 81.958 C 151.866 81.906,151.917 81.029,151.917 78.333 C 151.917 75.637,151.866 74.761,151.708 74.708 C 151.594 74.670,151.500 74.458,151.500 74.236 C 151.500 74.015,151.434 73.833,151.354 73.833 C 151.274 73.833,151.161 73.598,151.104 73.311 C 151.046 73.024,150.860 72.667,150.690 72.519 C 150.520 72.371,150.329 72.085,150.265 71.884 C 150.202 71.682,150.007 71.472,149.833 71.417 C 149.659 71.361,149.472 71.174,149.417 71.000 C 149.361 70.826,149.174 70.639,149.000 70.583 C 148.826 70.528,148.639 70.341,148.583 70.167 C 148.528 69.993,148.318 69.798,148.116 69.735 C 147.915 69.671,147.637 69.490,147.500 69.333 C 147.362 69.176,147.081 68.994,146.875 68.929 C 146.669 68.864,146.500 68.741,146.500 68.655 C 146.500 68.570,146.387 68.500,146.250 68.500 C 146.112 68.500,146.000 68.433,146.000 68.352 C 146.000 68.270,145.737 68.155,145.417 68.094 C 145.096 68.034,144.833 67.913,144.833 67.826 C 144.833 67.738,144.721 67.667,144.583 67.667 C 144.446 67.667,144.333 67.600,144.333 67.519 C 144.333 67.437,144.071 67.321,143.750 67.261 C 143.429 67.201,143.167 67.080,143.167 66.992 C 143.167 66.905,142.979 66.833,142.750 66.833 C 142.521 66.833,142.333 66.759,142.333 66.669 C 142.333 66.578,142.033 66.456,141.667 66.397 C 141.300 66.339,141.000 66.225,141.000 66.145 C 141.000 66.065,140.850 66.000,140.667 66.000 C 140.483 66.000,140.333 65.935,140.333 65.855 C 140.333 65.775,140.033 65.661,139.667 65.603 C 139.300 65.544,139.000 65.422,139.000 65.331 C 139.000 65.241,138.887 65.167,138.750 65.167 C 138.612 65.167,138.500 65.092,138.500 65.000 C 138.500 64.908,138.348 64.833,138.161 64.833 C 137.975 64.833,137.780 64.721,137.727 64.583 C 137.674 64.446,137.497 64.333,137.333 64.333 C 137.170 64.333,136.992 64.221,136.940 64.083 C 136.887 63.946,136.696 63.833,136.516 63.833 C 136.336 63.833,136.143 63.687,136.086 63.509 C 136.029 63.330,135.837 63.137,135.658 63.081 C 135.479 63.024,135.333 62.830,135.333 62.650 C 135.333 62.470,135.221 62.280,135.083 62.227 C 134.929 62.168,134.833 61.914,134.833 61.566 C 134.833 61.254,134.758 61.000,134.667 61.000 C 134.575 61.000,134.500 60.737,134.500 60.417 C 134.500 60.096,134.575 59.833,134.667 59.833 C 134.758 59.833,134.833 59.646,134.833 59.417 C 134.833 59.188,134.900 59.000,134.982 59.000 C 135.064 59.000,135.178 58.813,135.235 58.583 C 135.293 58.354,135.413 58.167,135.503 58.167 C 135.593 58.167,135.667 58.086,135.667 57.988 C 135.667 57.757,136.091 57.333,136.321 57.333 C 136.420 57.333,136.500 57.260,136.500 57.170 C 136.500 57.080,136.688 56.959,136.917 56.902 C 137.146 56.844,137.333 56.730,137.333 56.649 C 137.333 56.567,137.515 56.500,137.736 56.500 C 137.958 56.500,138.170 56.406,138.209 56.292 C 138.308 55.994,144.527 55.998,144.626 56.295 C 144.664 56.408,144.913 56.500,145.181 56.500 C 145.448 56.500,145.667 56.566,145.667 56.648 C 145.667 56.729,146.004 56.846,146.417 56.908 C 146.829 56.970,147.167 57.091,147.167 57.177 C 147.167 57.263,147.273 57.333,147.403 57.333 C 147.533 57.333,147.664 57.410,147.696 57.504 C 147.866 58.014,149.000 57.884,149.000 57.355 C 149.000 57.068,149.068 56.833,149.151 56.833 C 149.234 56.833,149.354 56.458,149.417 56.000 C 149.480 55.542,149.599 55.167,149.682 55.167 C 149.765 55.167,149.833 54.904,149.833 54.583 C 149.833 54.262,149.901 54.000,149.984 54.000 C 150.067 54.000,150.187 53.625,150.250 53.167 C 150.313 52.708,150.433 52.333,150.516 52.333 C 150.892 52.333,150.656 51.504,150.250 51.402 C 150.021 51.344,149.833 51.230,149.833 51.149 C 149.833 51.067,149.652 51.000,149.431 51.000 C 149.209 51.000,149.000 50.918,148.967 50.817 C 148.933 50.716,148.552 50.594,148.120 50.545 C 147.687 50.497,147.333 50.391,147.333 50.312 C 147.333 50.232,147.077 50.167,146.764 50.167 C 146.451 50.167,146.165 50.078,146.129 49.970 C 146.062 49.770,138.615 49.613,137.042 49.778 M203.000 50.000 C 203.000 50.100,202.333 50.167,201.333 50.167 C 200.333 50.167,199.667 50.233,199.667 50.333 C 199.667 50.426,199.207 50.501,198.625 50.502 C 198.052 50.504,197.415 50.550,197.208 50.605 L 196.833 50.706 196.833 70.269 L 196.833 89.833 200.583 89.833 L 204.333 89.833 204.333 81.750 L 204.333 73.667 206.167 73.667 C 207.278 73.667,208.000 73.732,208.000 73.833 C 208.000 73.925,208.225 74.000,208.500 74.000 C 208.775 74.000,209.000 74.067,209.000 74.148 C 209.000 74.230,209.262 74.345,209.583 74.406 C 209.904 74.466,210.167 74.587,210.167 74.674 C 210.167 74.762,210.247 74.833,210.345 74.833 C 210.443 74.833,210.628 74.927,210.756 75.042 C 211.261 75.494,211.490 75.667,211.588 75.667 C 211.772 75.667,212.120 76.091,212.237 76.458 C 212.299 76.655,212.488 76.860,212.655 76.913 C 212.827 76.968,213.005 77.235,213.064 77.527 C 213.121 77.812,213.306 78.166,213.476 78.314 C 213.647 78.462,213.839 78.752,213.904 78.958 C 213.969 79.165,214.092 79.333,214.178 79.333 C 214.263 79.333,214.333 79.446,214.333 79.583 C 214.333 79.721,214.400 79.833,214.482 79.833 C 214.564 79.833,214.678 80.021,214.735 80.250 C 214.793 80.479,214.913 80.667,215.003 80.667 C 215.093 80.667,215.167 80.779,215.167 80.917 C 215.167 81.054,215.240 81.167,215.330 81.167 C 215.420 81.167,215.541 81.354,215.598 81.583 C 215.656 81.813,215.770 82.000,215.851 82.000 C 215.933 82.000,216.000 82.142,216.000 82.316 C 216.000 82.489,216.112 82.674,216.250 82.727 C 216.387 82.780,216.500 82.970,216.500 83.150 C 216.500 83.330,216.641 83.522,216.813 83.577 C 216.994 83.634,217.171 83.895,217.230 84.194 C 217.287 84.479,217.473 84.833,217.643 84.981 C 217.813 85.129,218.011 85.438,218.083 85.667 C 218.155 85.896,218.353 86.205,218.524 86.353 C 218.694 86.501,218.880 86.857,218.937 87.144 C 218.995 87.432,219.107 87.667,219.188 87.667 C 219.268 87.667,219.333 87.779,219.333 87.917 C 219.333 88.054,219.407 88.167,219.497 88.167 C 219.587 88.167,219.707 88.354,219.765 88.583 C 219.822 88.813,219.936 89.000,220.018 89.000 C 220.100 89.000,220.167 89.080,220.167 89.179 C 220.167 89.773,220.573 89.833,224.571 89.833 C 227.952 89.833,228.500 89.798,228.500 89.583 C 228.500 89.446,228.425 89.333,228.333 89.333 C 228.242 89.333,228.167 89.221,228.167 89.083 C 228.167 88.946,228.093 88.833,228.003 88.833 C 227.913 88.833,227.793 88.646,227.735 88.417 C 227.678 88.188,227.564 88.000,227.482 88.000 C 227.400 88.000,227.333 87.858,227.333 87.684 C 227.333 87.511,227.221 87.326,227.083 87.273 C 226.946 87.220,226.833 87.030,226.833 86.850 C 226.833 86.670,226.692 86.478,226.520 86.423 C 226.339 86.366,226.163 86.105,226.103 85.806 C 226.046 85.521,225.860 85.167,225.690 85.019 C 225.520 84.871,225.328 84.581,225.263 84.375 C 225.197 84.169,225.074 84.000,224.989 84.000 C 224.903 84.000,224.833 83.887,224.833 83.750 C 224.833 83.612,224.763 83.500,224.678 83.500 C 224.592 83.500,224.469 83.331,224.404 83.125 C 224.339 82.919,224.157 82.637,224.000 82.500 C 223.843 82.362,223.661 82.081,223.596 81.875 C 223.531 81.669,223.408 81.500,223.322 81.500 C 223.237 81.500,223.167 81.387,223.167 81.250 C 223.167 81.112,223.097 81.000,223.011 81.000 C 222.926 81.000,222.803 80.831,222.737 80.625 C 222.672 80.419,222.490 80.137,222.333 80.000 C 222.176 79.862,221.994 79.581,221.929 79.375 C 221.864 79.169,221.741 79.000,221.655 79.000 C 221.570 79.000,221.500 78.887,221.500 78.750 C 221.500 78.612,221.430 78.500,221.345 78.500 C 221.259 78.500,221.136 78.331,221.071 78.125 C 221.006 77.919,220.824 77.637,220.667 77.500 C 220.510 77.362,220.329 77.085,220.265 76.884 C 220.202 76.682,220.003 76.471,219.825 76.414 C 219.646 76.357,219.500 76.176,219.500 76.012 C 219.500 75.848,219.313 75.573,219.083 75.400 C 218.854 75.228,218.667 74.996,218.667 74.885 C 218.667 74.773,218.488 74.503,218.270 74.285 C 218.052 74.067,217.823 73.730,217.761 73.536 C 217.700 73.342,217.507 73.139,217.333 73.083 C 217.159 73.028,216.972 72.841,216.917 72.667 C 216.861 72.493,216.670 72.304,216.491 72.247 C 216.156 72.141,216.038 71.833,216.333 71.833 C 216.425 71.833,216.500 71.721,216.500 71.583 C 216.500 71.269,217.090 70.667,217.399 70.667 C 217.527 70.667,217.674 70.554,217.727 70.417 C 217.780 70.279,217.970 70.167,218.150 70.167 C 218.331 70.167,218.525 70.018,218.583 69.833 C 218.642 69.650,218.804 69.500,218.943 69.500 C 219.309 69.500,221.801 66.935,221.929 66.427 C 221.988 66.192,222.103 66.000,222.185 66.000 C 222.266 66.000,222.333 65.850,222.333 65.667 C 222.333 65.483,222.407 65.333,222.498 65.333 C 222.589 65.333,222.711 65.033,222.769 64.667 C 222.828 64.300,222.941 64.000,223.021 64.000 C 223.101 64.000,223.167 63.700,223.167 63.333 C 223.167 62.967,223.242 62.667,223.333 62.667 C 223.433 62.667,223.500 62.000,223.500 61.000 C 223.500 60.000,223.433 59.333,223.333 59.333 C 223.242 59.333,223.167 59.033,223.167 58.667 C 223.167 58.300,223.101 58.000,223.022 58.000 C 222.942 58.000,222.837 57.646,222.788 57.214 C 222.739 56.781,222.617 56.400,222.516 56.367 C 222.416 56.333,222.333 56.162,222.333 55.986 C 222.333 55.810,222.266 55.667,222.185 55.667 C 222.103 55.667,221.989 55.479,221.932 55.250 C 221.874 55.021,221.753 54.833,221.663 54.833 C 221.574 54.833,221.500 54.753,221.500 54.656 C 221.500 54.424,219.742 52.667,219.511 52.667 C 219.413 52.667,219.333 52.593,219.333 52.503 C 219.333 52.413,219.146 52.293,218.917 52.235 C 218.688 52.178,218.500 52.064,218.500 51.982 C 218.500 51.900,218.350 51.833,218.167 51.833 C 217.983 51.833,217.833 51.764,217.833 51.680 C 217.833 51.596,217.608 51.477,217.333 51.417 C 217.058 51.356,216.833 51.238,216.833 51.153 C 216.833 51.069,216.646 51.000,216.417 51.000 C 216.188 51.000,216.000 50.933,216.000 50.850 C 216.000 50.768,215.475 50.648,214.833 50.583 C 214.192 50.519,213.667 50.399,213.667 50.316 C 213.667 50.234,213.179 50.167,212.583 50.167 C 211.972 50.167,211.500 50.094,211.500 50.000 C 211.500 49.893,209.972 49.833,207.250 49.833 C 204.528 49.833,203.000 49.893,203.000 50.000 M158.027 63.944 C 158.071 74.778,158.128 77.737,158.292 77.792 C 158.416 77.833,158.500 78.156,158.500 78.597 C 158.500 79.002,158.566 79.333,158.647 79.333 C 158.729 79.333,158.846 79.746,158.909 80.250 C 158.972 80.754,159.094 81.167,159.179 81.167 C 159.264 81.167,159.333 81.354,159.333 81.583 C 159.333 81.813,159.400 82.000,159.481 82.000 C 159.562 82.000,159.679 82.337,159.741 82.750 C 159.803 83.162,159.924 83.500,160.010 83.500 C 160.096 83.500,160.167 83.612,160.167 83.750 C 160.167 83.887,160.237 84.000,160.322 84.000 C 160.408 84.000,160.531 84.169,160.596 84.375 C 160.661 84.581,160.843 84.862,161.000 85.000 C 161.157 85.137,161.338 85.415,161.401 85.616 C 161.465 85.818,161.659 86.028,161.833 86.083 C 162.007 86.139,162.195 86.326,162.250 86.500 C 162.305 86.674,162.493 86.861,162.667 86.917 C 162.841 86.972,163.028 87.159,163.083 87.333 C 163.139 87.507,163.349 87.702,163.550 87.765 C 163.752 87.829,164.038 88.020,164.186 88.190 C 164.334 88.360,164.690 88.546,164.978 88.604 C 165.265 88.661,165.500 88.774,165.500 88.854 C 165.500 88.934,165.612 89.000,165.750 89.000 C 165.887 89.000,166.000 89.074,166.000 89.165 C 166.000 89.255,166.300 89.377,166.667 89.436 C 167.033 89.495,167.333 89.608,167.333 89.688 C 167.333 89.768,167.515 89.833,167.736 89.833 C 167.958 89.833,168.170 89.927,168.208 90.042 C 168.262 90.202,169.404 90.250,173.167 90.250 C 176.930 90.250,178.071 90.202,178.125 90.042 C 178.163 89.927,178.451 89.833,178.764 89.833 C 179.077 89.833,179.333 89.768,179.333 89.688 C 179.333 89.608,179.633 89.495,180.000 89.436 C 180.367 89.377,180.667 89.255,180.667 89.165 C 180.667 89.074,180.779 89.000,180.917 89.000 C 181.054 89.000,181.167 88.934,181.167 88.854 C 181.167 88.774,181.402 88.661,181.689 88.604 C 181.976 88.546,182.333 88.360,182.481 88.190 C 182.629 88.020,182.915 87.829,183.116 87.765 C 183.318 87.702,183.528 87.507,183.583 87.333 C 183.639 87.159,183.845 86.966,184.042 86.903 C 184.464 86.769,184.833 86.431,184.833 86.179 C 184.833 86.080,184.903 86.000,184.989 86.000 C 185.074 86.000,185.191 85.854,185.247 85.675 C 185.304 85.497,185.497 85.304,185.675 85.247 C 185.854 85.191,186.000 84.997,186.000 84.817 C 186.000 84.637,186.112 84.446,186.250 84.394 C 186.387 84.341,186.500 84.156,186.500 83.982 C 186.500 83.809,186.569 83.667,186.653 83.667 C 186.738 83.667,186.856 83.442,186.917 83.167 C 186.977 82.892,187.096 82.667,187.180 82.667 C 187.264 82.667,187.333 82.517,187.333 82.333 C 187.333 82.150,187.401 82.000,187.484 82.000 C 187.567 82.000,187.687 81.625,187.750 81.167 C 187.813 80.708,187.933 80.333,188.016 80.333 C 188.099 80.333,188.167 80.152,188.167 79.931 C 188.167 79.709,188.239 79.503,188.328 79.472 C 188.416 79.442,188.540 78.685,188.602 77.792 C 188.665 76.898,188.780 76.167,188.858 76.167 C 188.936 76.167,189.000 70.317,189.000 63.167 L 189.000 50.167 185.167 50.167 L 181.333 50.167 181.333 63.333 C 181.333 72.000,181.276 76.500,181.167 76.500 C 181.075 76.500,181.000 76.837,181.000 77.250 C 181.000 77.662,180.932 78.000,180.849 78.000 C 180.766 78.000,180.646 78.375,180.583 78.833 C 180.520 79.292,180.401 79.667,180.318 79.667 C 180.235 79.667,180.167 79.779,180.167 79.917 C 180.167 80.054,180.095 80.167,180.008 80.167 C 179.920 80.167,179.800 80.427,179.740 80.744 C 179.674 81.095,179.511 81.360,179.324 81.420 C 179.155 81.473,178.972 81.659,178.917 81.833 C 178.861 82.007,178.674 82.195,178.500 82.250 C 178.326 82.305,178.137 82.497,178.081 82.675 C 178.024 82.854,177.830 83.000,177.650 83.000 C 177.470 83.000,177.280 83.112,177.227 83.250 C 177.174 83.387,176.995 83.500,176.829 83.500 C 176.664 83.500,176.502 83.578,176.470 83.673 C 176.438 83.768,175.870 83.892,175.206 83.947 C 174.543 84.003,174.000 84.112,174.000 84.191 C 174.000 84.269,173.700 84.333,173.333 84.333 C 172.967 84.333,172.667 84.268,172.667 84.187 C 172.667 84.107,172.239 84.006,171.717 83.963 C 171.194 83.919,170.738 83.797,170.703 83.692 C 170.668 83.586,170.533 83.500,170.403 83.500 C 170.273 83.500,170.167 83.434,170.167 83.354 C 170.167 83.274,169.944 83.164,169.672 83.109 C 169.127 83.000,167.930 81.901,167.755 81.350 C 167.694 81.157,167.574 81.000,167.489 81.000 C 167.403 81.000,167.333 80.887,167.333 80.750 C 167.333 80.612,167.267 80.500,167.185 80.500 C 167.104 80.500,166.988 80.237,166.928 79.917 C 166.867 79.596,166.747 79.333,166.659 79.333 C 166.572 79.333,166.500 79.152,166.500 78.931 C 166.500 78.709,166.428 78.503,166.340 78.472 C 166.252 78.442,166.129 77.798,166.066 77.042 C 166.003 76.285,165.888 75.667,165.809 75.667 C 165.731 75.667,165.667 69.929,165.667 62.917 L 165.667 50.167 161.819 50.167 L 157.970 50.167 158.027 63.944 M228.167 50.667 C 228.167 50.942,228.242 51.167,228.333 51.167 C 228.425 51.167,228.500 51.354,228.500 51.583 C 228.500 51.813,228.565 52.000,228.645 52.000 C 228.725 52.000,228.841 52.450,228.903 53.000 C 228.966 53.550,229.088 54.000,229.175 54.000 C 229.262 54.000,229.333 54.188,229.333 54.417 C 229.333 54.646,229.401 54.833,229.484 54.833 C 229.567 54.833,229.687 55.208,229.750 55.667 C 229.813 56.125,229.933 56.500,230.016 56.500 C 230.099 56.500,230.167 56.688,230.167 56.917 C 230.167 57.146,230.235 57.333,230.318 57.333 C 230.401 57.333,230.520 57.708,230.583 58.167 C 230.646 58.625,230.766 59.000,230.849 59.000 C 230.932 59.000,231.000 59.188,231.000 59.417 C 231.000 59.646,231.071 59.833,231.158 59.833 C 231.246 59.833,231.368 60.283,231.430 60.833 C 231.492 61.383,231.608 61.833,231.688 61.833 C 231.768 61.833,231.833 62.021,231.833 62.250 C 231.833 62.479,231.901 62.667,231.984 62.667 C 232.067 62.667,232.187 63.042,232.250 63.500 C 232.313 63.958,232.433 64.333,232.516 64.333 C 232.599 64.333,232.667 64.521,232.667 64.750 C 232.667 64.979,232.735 65.167,232.818 65.167 C 232.901 65.167,233.020 65.542,233.083 66.000 C 233.146 66.458,233.266 66.833,233.349 66.833 C 233.432 66.833,233.500 67.021,233.500 67.250 C 233.500 67.479,233.568 67.667,233.651 67.667 C 233.734 67.667,233.854 68.042,233.917 68.500 C 233.980 68.958,234.099 69.333,234.182 69.333 C 234.265 69.333,234.333 69.558,234.333 69.833 C 234.333 70.108,234.401 70.333,234.484 70.333 C 234.567 70.333,234.687 70.708,234.750 71.167 C 234.813 71.625,234.933 72.000,235.016 72.000 C 235.099 72.000,235.167 72.188,235.167 72.417 C 235.167 72.646,235.235 72.833,235.318 72.833 C 235.401 72.833,235.520 73.208,235.583 73.667 C 235.646 74.125,235.766 74.500,235.849 74.500 C 235.932 74.500,236.000 74.688,236.000 74.917 C 236.000 75.146,236.068 75.333,236.151 75.333 C 236.234 75.333,236.354 75.708,236.417 76.167 C 236.480 76.625,236.599 77.000,236.682 77.000 C 236.765 77.000,236.833 77.188,236.833 77.417 C 236.833 77.646,236.899 77.833,236.978 77.833 C 237.058 77.833,237.175 78.283,237.237 78.833 C 237.299 79.383,237.421 79.833,237.508 79.833 C 237.595 79.833,237.667 80.021,237.667 80.250 C 237.667 80.479,237.735 80.667,237.818 80.667 C 237.901 80.667,238.020 81.042,238.083 81.500 C 238.146 81.958,238.266 82.333,238.349 82.333 C 238.432 82.333,238.500 82.521,238.500 82.750 C 238.500 82.979,238.568 83.167,238.651 83.167 C 238.734 83.167,238.854 83.542,238.917 84.000 C 238.980 84.458,239.099 84.833,239.182 84.833 C 239.265 84.833,239.333 85.021,239.333 85.250 C 239.333 85.479,239.405 85.667,239.492 85.667 C 239.579 85.667,239.701 86.117,239.763 86.667 C 239.825 87.217,239.942 87.667,240.022 87.667 C 240.101 87.667,240.167 87.854,240.167 88.083 C 240.167 88.313,240.232 88.500,240.312 88.500 C 240.392 88.500,240.505 88.800,240.564 89.167 L 240.671 89.833 245.085 89.833 C 248.898 89.833,249.500 89.799,249.500 89.583 C 249.500 89.446,249.575 89.333,249.667 89.333 C 249.758 89.333,249.833 89.146,249.833 88.917 C 249.833 88.688,249.901 88.500,249.984 88.500 C 250.067 88.500,250.187 88.125,250.250 87.667 C 250.313 87.208,250.433 86.833,250.516 86.833 C 250.599 86.833,250.667 86.646,250.667 86.417 C 250.667 86.188,250.735 86.000,250.818 86.000 C 250.901 86.000,251.020 85.625,251.083 85.167 C 251.146 84.708,251.266 84.333,251.349 84.333 C 251.432 84.333,251.500 84.146,251.500 83.917 C 251.500 83.688,251.566 83.500,251.648 83.500 C 251.729 83.500,251.846 83.162,251.908 82.750 C 251.970 82.337,252.091 82.000,252.177 82.000 C 252.263 82.000,252.333 81.813,252.333 81.583 C 252.333 81.354,252.401 81.167,252.484 81.167 C 252.567 81.167,252.687 80.792,252.750 80.333 C 252.813 79.875,252.933 79.500,253.016 79.500 C 253.099 79.500,253.167 79.313,253.167 79.083 C 253.167 78.854,253.235 78.667,253.318 78.667 C 253.401 78.667,253.520 78.292,253.583 77.833 C 253.646 77.375,253.766 77.000,253.849 77.000 C 253.932 77.000,254.000 76.813,254.000 76.583 C 254.000 76.354,254.068 76.167,254.151 76.167 C 254.234 76.167,254.354 75.792,254.417 75.333 C 254.480 74.875,254.599 74.500,254.682 74.500 C 254.765 74.500,254.833 74.387,254.833 74.250 C 254.833 74.112,254.901 74.000,254.984 74.000 C 255.067 74.000,255.187 73.625,255.250 73.167 C 255.313 72.708,255.433 72.333,255.516 72.333 C 255.599 72.333,255.667 72.146,255.667 71.917 C 255.667 71.688,255.735 71.500,255.818 71.500 C 255.901 71.500,256.020 71.125,256.083 70.667 C 256.146 70.208,256.266 69.833,256.349 69.833 C 256.432 69.833,256.500 69.646,256.500 69.417 C 256.500 69.188,256.568 69.000,256.651 69.000 C 256.734 69.000,256.854 68.625,256.917 68.167 C 256.980 67.708,257.099 67.333,257.182 67.333 C 257.265 67.333,257.333 67.146,257.333 66.917 C 257.333 66.688,257.407 66.500,257.498 66.500 C 257.589 66.500,257.711 66.200,257.769 65.833 C 257.828 65.467,257.941 65.167,258.021 65.167 C 258.101 65.167,258.167 64.979,258.167 64.750 C 258.167 64.521,258.235 64.333,258.318 64.333 C 258.401 64.333,258.520 63.958,258.583 63.500 C 258.646 63.042,258.766 62.667,258.849 62.667 C 258.932 62.667,259.000 62.479,259.000 62.250 C 259.000 62.021,259.068 61.833,259.151 61.833 C 259.234 61.833,259.354 61.458,259.417 61.000 C 259.480 60.542,259.599 60.167,259.682 60.167 C 259.765 60.167,259.833 59.979,259.833 59.750 C 259.833 59.521,259.900 59.333,259.981 59.333 C 260.062 59.333,260.179 58.996,260.241 58.583 C 260.303 58.171,260.424 57.833,260.510 57.833 C 260.596 57.833,260.667 57.646,260.667 57.417 C 260.667 57.188,260.735 57.000,260.818 57.000 C 260.901 57.000,261.020 56.625,261.083 56.167 C 261.146 55.708,261.266 55.333,261.349 55.333 C 261.432 55.333,261.500 55.146,261.500 54.917 C 261.500 54.688,261.568 54.500,261.651 54.500 C 261.734 54.500,261.854 54.125,261.917 53.667 C 261.980 53.208,262.099 52.833,262.182 52.833 C 262.265 52.833,262.333 52.652,262.333 52.431 C 262.333 52.209,262.404 52.003,262.490 51.972 C 262.576 51.942,262.698 51.523,262.761 51.042 L 262.876 50.167 258.873 50.167 C 254.528 50.167,254.667 50.136,254.667 51.097 C 254.667 51.319,254.592 51.500,254.500 51.500 C 254.408 51.500,254.333 51.688,254.333 51.917 C 254.333 52.146,254.265 52.333,254.182 52.333 C 254.099 52.333,253.980 52.708,253.917 53.167 C 253.854 53.625,253.734 54.000,253.651 54.000 C 253.568 54.000,253.500 54.188,253.500 54.417 C 253.500 54.646,253.429 54.833,253.342 54.833 C 253.254 54.833,253.132 55.283,253.070 55.833 C 253.008 56.383,252.892 56.833,252.812 56.833 C 252.732 56.833,252.667 57.021,252.667 57.250 C 252.667 57.479,252.599 57.667,252.516 57.667 C 252.433 57.667,252.313 58.042,252.250 58.500 C 252.187 58.958,252.067 59.333,251.984 59.333 C 251.901 59.333,251.833 59.521,251.833 59.750 C 251.833 59.979,251.765 60.167,251.682 60.167 C 251.599 60.167,251.480 60.542,251.417 61.000 C 251.354 61.458,251.234 61.833,251.151 61.833 C 251.068 61.833,251.000 62.096,251.000 62.417 C 251.000 62.737,250.932 63.000,250.849 63.000 C 250.766 63.000,250.646 63.375,250.583 63.833 C 250.520 64.292,250.401 64.667,250.318 64.667 C 250.235 64.667,250.167 64.854,250.167 65.083 C 250.167 65.313,250.099 65.500,250.016 65.500 C 249.933 65.500,249.813 65.875,249.750 66.333 C 249.687 66.792,249.567 67.167,249.484 67.167 C 249.401 67.167,249.333 67.392,249.333 67.667 C 249.333 67.942,249.265 68.167,249.182 68.167 C 249.099 68.167,248.980 68.542,248.917 69.000 C 248.854 69.458,248.734 69.833,248.651 69.833 C 248.568 69.833,248.500 70.021,248.500 70.250 C 248.500 70.479,248.432 70.667,248.349 70.667 C 248.266 70.667,248.146 71.042,248.083 71.500 C 248.020 71.958,247.901 72.333,247.818 72.333 C 247.735 72.333,247.667 72.596,247.667 72.917 C 247.667 73.237,247.595 73.500,247.508 73.500 C 247.421 73.500,247.299 73.950,247.237 74.500 C 247.175 75.050,247.058 75.500,246.978 75.500 C 246.899 75.500,246.833 75.688,246.833 75.917 C 246.833 76.146,246.764 76.333,246.680 76.333 C 246.596 76.333,246.474 76.821,246.411 77.417 C 246.347 78.012,246.228 78.500,246.147 78.500 C 246.066 78.500,246.000 78.688,246.000 78.917 C 246.000 79.146,245.934 79.333,245.853 79.333 C 245.772 79.333,245.645 79.915,245.571 80.625 L 245.436 81.917 245.282 80.792 C 245.197 80.173,245.061 79.667,244.981 79.667 C 244.900 79.667,244.833 79.404,244.833 79.083 C 244.833 78.762,244.767 78.500,244.686 78.500 C 244.605 78.500,244.487 78.012,244.423 77.417 C 244.359 76.821,244.238 76.333,244.153 76.333 C 244.069 76.333,244.000 76.071,244.000 75.750 C 244.000 75.429,243.929 75.167,243.842 75.167 C 243.754 75.167,243.632 74.717,243.570 74.167 C 243.508 73.617,243.392 73.167,243.312 73.167 C 243.232 73.167,243.167 72.979,243.167 72.750 C 243.167 72.521,243.100 72.333,243.019 72.333 C 242.938 72.333,242.820 71.921,242.757 71.417 C 242.694 70.912,242.573 70.500,242.488 70.500 C 242.403 70.500,242.333 70.237,242.333 69.917 C 242.333 69.596,242.265 69.333,242.182 69.333 C 242.099 69.333,241.980 68.958,241.917 68.500 C 241.854 68.042,241.734 67.667,241.651 67.667 C 241.568 67.667,241.500 67.404,241.500 67.083 C 241.500 66.762,241.432 66.500,241.349 66.500 C 241.266 66.500,241.146 66.125,241.083 65.667 C 241.020 65.208,240.901 64.833,240.818 64.833 C 240.735 64.833,240.667 64.608,240.667 64.333 C 240.667 64.058,240.599 63.833,240.516 63.833 C 240.433 63.833,240.313 63.458,240.250 63.000 C 240.187 62.542,240.067 62.167,239.984 62.167 C 239.901 62.167,239.833 61.904,239.833 61.583 C 239.833 61.262,239.765 61.000,239.682 61.000 C 239.599 61.000,239.480 60.625,239.417 60.167 C 239.354 59.708,239.234 59.333,239.151 59.333 C 239.068 59.333,239.000 59.071,239.000 58.750 C 239.000 58.429,238.932 58.167,238.849 58.167 C 238.766 58.167,238.646 57.792,238.583 57.333 C 238.520 56.875,238.401 56.500,238.318 56.500 C 238.235 56.500,238.167 56.275,238.167 56.000 C 238.167 55.725,238.099 55.500,238.016 55.500 C 237.933 55.500,237.813 55.125,237.750 54.667 C 237.687 54.208,237.567 53.833,237.484 53.833 C 237.401 53.833,237.333 53.571,237.333 53.250 C 237.333 52.929,237.265 52.667,237.182 52.667 C 237.099 52.667,236.980 52.292,236.917 51.833 C 236.854 51.375,236.734 51.000,236.651 51.000 C 236.568 51.000,236.500 50.813,236.500 50.583 L 236.500 50.167 232.333 50.167 L 228.167 50.167 228.167 50.667 M274.333 50.583 C 274.333 50.813,274.265 51.000,274.182 51.000 C 274.099 51.000,273.980 51.375,273.917 51.833 C 273.854 52.292,273.734 52.667,273.651 52.667 C 273.568 52.667,273.500 52.854,273.500 53.083 C 273.500 53.313,273.432 53.500,273.349 53.500 C 273.266 53.500,273.146 53.875,273.083 54.333 C 273.020 54.792,272.901 55.167,272.818 55.167 C 272.735 55.167,272.667 55.429,272.667 55.750 C 272.667 56.071,272.599 56.333,272.516 56.333 C 272.433 56.333,272.313 56.708,272.250 57.167 C 272.187 57.625,272.067 58.000,271.984 58.000 C 271.901 58.000,271.833 58.188,271.833 58.417 C 271.833 58.646,271.765 58.833,271.682 58.833 C 271.599 58.833,271.480 59.208,271.417 59.667 C 271.354 60.125,271.234 60.500,271.151 60.500 C 271.068 60.500,271.000 60.688,271.000 60.917 C 271.000 61.146,270.934 61.333,270.853 61.333 C 270.771 61.333,270.654 61.746,270.591 62.250 C 270.528 62.754,270.406 63.167,270.321 63.167 C 270.236 63.167,270.167 63.354,270.167 63.583 C 270.167 63.813,270.099 64.000,270.016 64.000 C 269.933 64.000,269.813 64.375,269.750 64.833 C 269.687 65.292,269.567 65.667,269.484 65.667 C 269.401 65.667,269.333 65.854,269.333 66.083 C 269.333 66.313,269.265 66.500,269.182 66.500 C 269.099 66.500,268.980 66.875,268.917 67.333 C 268.854 67.792,268.734 68.167,268.651 68.167 C 268.568 68.167,268.500 68.429,268.500 68.750 C 268.500 69.071,268.432 69.333,268.349 69.333 C 268.266 69.333,268.146 69.708,268.083 70.167 C 268.020 70.625,267.901 71.000,267.818 71.000 C 267.735 71.000,267.667 71.188,267.667 71.417 C 267.667 71.646,267.599 71.833,267.516 71.833 C 267.433 71.833,267.313 72.208,267.250 72.667 C 267.187 73.125,267.067 73.500,266.984 73.500 C 266.901 73.500,266.833 73.688,266.833 73.917 C 266.833 74.146,266.762 74.333,266.675 74.333 C 266.588 74.333,266.466 74.783,266.403 75.333 C 266.341 75.883,266.225 76.333,266.145 76.333 C 266.065 76.333,266.000 76.521,266.000 76.750 C 266.000 76.979,265.932 77.167,265.849 77.167 C 265.766 77.167,265.646 77.542,265.583 78.000 C 265.520 78.458,265.401 78.833,265.318 78.833 C 265.235 78.833,265.167 79.021,265.167 79.250 C 265.167 79.479,265.099 79.667,265.016 79.667 C 264.933 79.667,264.813 80.042,264.750 80.500 C 264.687 80.958,264.567 81.333,264.484 81.333 C 264.401 81.333,264.333 81.521,264.333 81.750 C 264.333 81.979,264.267 82.167,264.186 82.167 C 264.105 82.167,263.987 82.579,263.924 83.083 C 263.861 83.587,263.740 84.000,263.655 84.000 C 263.570 84.000,263.500 84.188,263.500 84.417 C 263.500 84.646,263.432 84.833,263.349 84.833 C 263.266 84.833,263.146 85.208,263.083 85.667 C 263.020 86.125,262.901 86.500,262.818 86.500 C 262.735 86.500,262.667 86.688,262.667 86.917 C 262.667 87.146,262.595 87.333,262.508 87.333 C 262.421 87.333,262.299 87.783,262.237 88.333 C 262.175 88.883,262.058 89.333,261.978 89.333 C 261.899 89.333,261.833 89.446,261.833 89.583 C 261.833 89.799,262.389 89.833,265.833 89.833 C 269.278 89.833,269.833 89.799,269.833 89.583 C 269.833 89.446,269.905 89.333,269.992 89.333 C 270.079 89.333,270.201 88.883,270.263 88.333 C 270.325 87.783,270.442 87.333,270.522 87.333 C 270.601 87.333,270.667 87.146,270.667 86.917 C 270.667 86.688,270.738 86.500,270.825 86.500 C 270.912 86.500,271.034 86.050,271.097 85.500 C 271.159 84.950,271.275 84.500,271.355 84.500 C 271.435 84.500,271.500 84.313,271.500 84.083 C 271.500 83.854,271.570 83.667,271.655 83.667 C 271.740 83.667,271.861 83.254,271.924 82.750 C 271.987 82.246,272.105 81.833,272.186 81.833 C 272.267 81.833,272.333 81.646,272.333 81.417 C 272.333 81.188,272.401 81.000,272.484 81.000 C 272.567 81.000,272.687 80.625,272.750 80.167 C 272.813 79.708,272.933 79.333,273.016 79.333 C 273.099 79.333,273.167 79.183,273.167 79.000 C 273.167 78.673,273.278 78.667,279.167 78.667 L 285.167 78.667 285.167 79.083 C 285.167 79.313,285.235 79.500,285.318 79.500 C 285.401 79.500,285.520 79.875,285.583 80.333 C 285.646 80.792,285.766 81.167,285.849 81.167 C 285.932 81.167,286.000 81.354,286.000 81.583 C 286.000 81.813,286.065 82.000,286.145 82.000 C 286.225 82.000,286.341 82.450,286.403 83.000 C 286.466 83.550,286.588 84.000,286.675 84.000 C 286.762 84.000,286.833 84.188,286.833 84.417 C 286.833 84.646,286.901 84.833,286.984 84.833 C 287.067 84.833,287.187 85.208,287.250 85.667 C 287.313 86.125,287.433 86.500,287.516 86.500 C 287.599 86.500,287.667 86.688,287.667 86.917 C 287.667 87.146,287.738 87.333,287.825 87.333 C 287.912 87.333,288.034 87.783,288.097 88.333 C 288.159 88.883,288.275 89.333,288.355 89.333 C 288.435 89.333,288.500 89.446,288.500 89.583 C 288.500 89.799,289.074 89.833,292.667 89.833 L 296.833 89.833 296.833 89.417 C 296.833 89.188,296.758 89.000,296.667 89.000 C 296.575 89.000,296.500 88.813,296.500 88.583 C 296.500 88.354,296.432 88.167,296.349 88.167 C 296.266 88.167,296.146 87.792,296.083 87.333 C 296.020 86.875,295.901 86.500,295.818 86.500 C 295.735 86.500,295.667 86.313,295.667 86.083 C 295.667 85.854,295.599 85.667,295.516 85.667 C 295.433 85.667,295.313 85.292,295.250 84.833 C 295.187 84.375,295.067 84.000,294.984 84.000 C 294.901 84.000,294.833 83.775,294.833 83.500 C 294.833 83.225,294.765 83.000,294.682 83.000 C 294.599 83.000,294.480 82.625,294.417 82.167 C 294.354 81.708,294.234 81.333,294.151 81.333 C 294.068 81.333,294.000 81.146,294.000 80.917 C 294.000 80.688,293.932 80.500,293.849 80.500 C 293.766 80.500,293.646 80.125,293.583 79.667 C 293.520 79.208,293.401 78.833,293.318 78.833 C 293.235 78.833,293.167 78.646,293.167 78.417 C 293.167 78.188,293.099 78.000,293.016 78.000 C 292.933 78.000,292.813 77.625,292.750 77.167 C 292.687 76.708,292.567 76.333,292.484 76.333 C 292.401 76.333,292.333 76.146,292.333 75.917 C 292.333 75.688,292.262 75.500,292.175 75.500 C 292.088 75.500,291.966 75.050,291.903 74.500 C 291.841 73.950,291.725 73.500,291.645 73.500 C 291.565 73.500,291.500 73.313,291.500 73.083 C 291.500 72.854,291.432 72.667,291.349 72.667 C 291.266 72.667,291.146 72.292,291.083 71.833 C 291.020 71.375,290.901 71.000,290.818 71.000 C 290.735 71.000,290.667 70.813,290.667 70.583 C 290.667 70.354,290.599 70.167,290.516 70.167 C 290.433 70.167,290.313 69.792,290.250 69.333 C 290.187 68.875,290.067 68.500,289.984 68.500 C 289.901 68.500,289.833 68.313,289.833 68.083 C 289.833 67.854,289.765 67.667,289.682 67.667 C 289.599 67.667,289.480 67.292,289.417 66.833 C 289.354 66.375,289.234 66.000,289.151 66.000 C 289.068 66.000,289.000 65.813,289.000 65.583 C 289.000 65.354,288.929 65.167,288.842 65.167 C 288.754 65.167,288.632 64.717,288.570 64.167 C 288.508 63.617,288.392 63.167,288.312 63.167 C 288.232 63.167,288.167 62.979,288.167 62.750 C 288.167 62.521,288.099 62.333,288.016 62.333 C 287.933 62.333,287.813 61.958,287.750 61.500 C 287.687 61.042,287.567 60.667,287.484 60.667 C 287.401 60.667,287.333 60.479,287.333 60.250 C 287.333 60.021,287.265 59.833,287.182 59.833 C 287.099 59.833,286.980 59.458,286.917 59.000 C 286.854 58.542,286.734 58.167,286.651 58.167 C 286.568 58.167,286.500 57.979,286.500 57.750 C 286.500 57.521,286.432 57.333,286.349 57.333 C 286.266 57.333,286.146 56.958,286.083 56.500 C 286.020 56.042,285.901 55.667,285.818 55.667 C 285.735 55.667,285.667 55.479,285.667 55.250 C 285.667 55.021,285.600 54.833,285.519 54.833 C 285.438 54.833,285.320 54.421,285.257 53.917 C 285.194 53.413,285.073 53.000,284.988 53.000 C 284.903 53.000,284.833 52.813,284.833 52.583 C 284.833 52.354,284.767 52.167,284.686 52.167 C 284.604 52.167,284.485 51.817,284.421 51.391 C 284.231 50.120,284.433 50.167,279.095 50.167 L 274.333 50.167 274.333 50.583 M301.000 70.000 L 301.000 89.833 312.667 89.833 L 324.333 89.833 324.333 86.667 L 324.333 83.500 316.417 83.500 L 308.500 83.500 308.500 66.833 L 308.500 50.167 304.750 50.167 L 301.000 50.167 301.000 70.000 M328.500 70.000 L 328.500 89.833 339.750 89.833 L 351.000 89.833 351.000 86.667 L 351.000 83.500 343.333 83.500 L 335.667 83.500 335.667 78.083 L 335.667 72.667 342.583 72.667 L 349.500 72.667 349.500 69.500 L 349.500 66.333 342.583 66.333 L 335.667 66.333 335.667 61.417 L 335.667 56.500 343.000 56.500 L 350.333 56.500 350.333 53.333 L 350.333 50.167 339.417 50.167 L 328.500 50.167 328.500 70.000 M208.833 55.810 C 208.833 55.889,209.487 55.994,210.286 56.044 C 211.114 56.095,211.765 56.213,211.800 56.317 C 211.834 56.418,212.042 56.500,212.264 56.500 C 212.485 56.500,212.667 56.567,212.667 56.649 C 212.667 56.730,212.854 56.844,213.083 56.902 C 213.313 56.959,213.500 57.080,213.500 57.170 C 213.500 57.260,213.612 57.333,213.750 57.333 C 213.887 57.333,214.000 57.403,214.000 57.489 C 214.000 57.574,214.150 57.692,214.333 57.750 C 214.518 57.808,214.667 58.002,214.667 58.183 C 214.667 58.363,214.779 58.554,214.917 58.606 C 215.054 58.659,215.167 58.838,215.167 59.004 C 215.167 59.170,215.260 59.337,215.375 59.375 C 215.528 59.426,215.583 60.037,215.583 61.666 C 215.583 63.295,215.528 63.907,215.375 63.958 C 215.260 63.996,215.167 64.172,215.167 64.347 C 215.167 64.523,215.100 64.667,215.018 64.667 C 214.936 64.667,214.824 64.849,214.768 65.072 C 214.712 65.295,214.520 65.524,214.341 65.581 C 214.163 65.637,213.972 65.826,213.917 66.000 C 213.861 66.174,213.670 66.363,213.491 66.419 C 213.313 66.476,213.167 66.592,213.167 66.678 C 213.167 66.763,213.054 66.833,212.917 66.833 C 212.779 66.833,212.667 66.907,212.667 66.998 C 212.667 67.089,212.367 67.211,212.000 67.269 C 211.633 67.328,211.333 67.441,211.333 67.521 C 211.333 67.601,211.071 67.667,210.750 67.667 C 210.429 67.667,210.167 67.742,210.167 67.833 C 210.167 67.938,209.083 68.000,207.248 68.000 L 204.329 68.000 204.373 62.042 L 204.417 56.083 206.042 56.036 C 206.940 56.009,207.667 55.916,207.667 55.827 C 207.667 55.739,207.929 55.667,208.250 55.667 C 208.571 55.667,208.833 55.731,208.833 55.810 M279.070 57.768 C 279.238 57.833,279.333 58.073,279.333 58.434 C 279.333 58.746,279.400 59.000,279.481 59.000 C 279.562 59.000,279.680 59.487,279.744 60.083 C 279.808 60.679,279.929 61.167,280.013 61.167 C 280.098 61.167,280.167 61.354,280.167 61.583 C 280.167 61.813,280.232 62.000,280.312 62.000 C 280.392 62.000,280.508 62.450,280.570 63.000 C 280.632 63.550,280.754 64.000,280.842 64.000 C 280.929 64.000,281.000 64.188,281.000 64.417 C 281.000 64.646,281.068 64.833,281.151 64.833 C 281.234 64.833,281.354 65.208,281.417 65.667 C 281.480 66.125,281.599 66.500,281.682 66.500 C 281.765 66.500,281.833 66.762,281.833 67.083 C 281.833 67.404,281.901 67.667,281.984 67.667 C 282.067 67.667,282.187 68.042,282.250 68.500 C 282.313 68.958,282.433 69.333,282.516 69.333 C 282.599 69.333,282.667 69.521,282.667 69.750 C 282.667 69.979,282.735 70.167,282.818 70.167 C 282.901 70.167,283.020 70.542,283.083 71.000 C 283.146 71.458,283.266 71.833,283.349 71.833 C 283.432 71.833,283.500 72.021,283.500 72.250 C 283.500 72.479,283.575 72.667,283.667 72.667 C 283.758 72.667,283.833 72.742,283.833 72.833 C 283.833 72.941,282.149 73.000,279.112 73.000 L 274.391 73.000 274.464 72.500 C 274.505 72.225,274.604 72.000,274.686 72.000 C 274.767 72.000,274.833 71.813,274.833 71.583 C 274.833 71.354,274.901 71.167,274.984 71.167 C 275.067 71.167,275.187 70.792,275.250 70.333 C 275.313 69.875,275.433 69.500,275.516 69.500 C 275.599 69.500,275.667 69.275,275.667 69.000 C 275.667 68.725,275.735 68.500,275.818 68.500 C 275.901 68.500,276.020 68.125,276.083 67.667 C 276.146 67.208,276.266 66.833,276.349 66.833 C 276.432 66.833,276.500 66.646,276.500 66.417 C 276.500 66.188,276.571 66.000,276.658 66.000 C 276.746 66.000,276.868 65.550,276.930 65.000 C 276.992 64.450,277.108 64.000,277.188 64.000 C 277.268 64.000,277.333 63.813,277.333 63.583 C 277.333 63.354,277.400 63.167,277.481 63.167 C 277.562 63.167,277.680 62.679,277.744 62.083 C 277.808 61.487,277.929 61.000,278.013 61.000 C 278.098 61.000,278.167 60.737,278.167 60.417 C 278.167 60.096,278.233 59.833,278.314 59.833 C 278.395 59.833,278.513 59.346,278.577 58.750 C 278.641 58.154,278.719 57.667,278.750 57.667 C 278.781 57.667,278.925 57.712,279.070 57.768 " stroke="none" fill="#0c0c0c" fill-rule="evenodd"/>
		<path id="path4" d="" stroke="none" fill="#48402c" fill-rule="evenodd"/>
	</g>
</svg>
