<?xml version="1.0" encoding="UTF-8"?>
<svg width="498px" height="83px" viewBox="0 0 498 83" version="1.1" xmlns="http://www.w3.org/2000/svg" xmlns:xlink="http://www.w3.org/1999/xlink">
    <title>163_f2e_www_index20170701_images_sprite_img_20210520</title>
    <defs>
        <linearGradient x1="18.2366705%" y1="0%" x2="60.7273502%" y2="100%" id="linearGradient-1">
            <stop stop-color="#FFD291" offset="0%"/>
            <stop stop-color="#AF6437" offset="100%"/>
        </linearGradient>
        <rect id="path-2" x="0" y="0" width="40" height="40" rx="6"/>
        <linearGradient x1="50.005%" y1="0.54%" x2="50.005%" y2="100.54%" id="linearGradient-4">
            <stop stop-color="#FF3F44" offset="0%"/>
            <stop stop-color="#F90008" offset="100%"/>
        </linearGradient>
        <polygon id="path-5" points="-2.63677968e-16 -5.55111512e-16 27.6590784 -5.55111512e-16 27.6590784 31.5222911 -2.63677968e-16 31.5222911"/>
        <polygon id="path-7" points="-1.11022302e-16 5.55111512e-17 10.0783158 5.55111512e-17 10.0783158 12.2223637 -1.11022302e-16 12.2223637"/>
    </defs>
    <g id="页面-1" stroke="none" stroke-width="1" fill="none" fill-rule="evenodd">
        <g id="163_f2e_www_index20170701_images_sprite_img_20210520">
            <g id="sprite_img_20181029" transform="translate(160.000000, 0.000000)">
                <path d="M40,34 C40,37.3 37.3,40 34,40 L6,40 C2.7,40 0,37.3 0,34 L0,6 C0,2.7 2.7,0 6,0 L34,0 C37.3,0 40,2.7 40,6 L40,34 Z" id="路径" fill="#FF3333" fill-rule="nonzero"/>
                <g id="编组" transform="translate(97.200000, 0.000000)">
                    <mask id="mask-3" fill="white">
                        <use xlink:href="#path-2"/>
                    </mask>
                    <use id="矩形" fill="url(#linearGradient-1)" xlink:href="#path-2"/>
                </g>
                <path d="M180.3,34 C180.3,37.3 177.6,40 174.3,40 L146.3,40 C143,40 140.3,37.3 140.3,34 L140.3,6 C140.3,2.7 143,0 146.3,0 L174.3,0 C177.6,0 180.3,2.7 180.3,6 L180.3,34 Z" id="路径" fill="#63ACE6" fill-rule="nonzero"/>
                <path d="M31.1,10 L9,10 C8.9,10 7.2,10.1 7.2,11.8 L7.2,30 L32.9,30 L32.9,11.5 C32.8,10.1 31.2,10 31.1,10 Z M30.4,11.4 L20,22 L9.6,11.4 L30.4,11.4 Z M8.7,12.5 L16,20 L8.7,27.5 L8.7,12.5 Z M9.7,28.5 L17,21 L19.2,23.2 C19.2,23.2 19.6,23.6 20.1,23.6 C20.4,23.6 20.7,23.5 21,23.2 L23.2,21 L30.5,28.5 L9.7,28.5 Z M31.4,27.4 L24.1,19.9 L31.4,12.4 L31.4,27.4 Z" id="形状" fill="#FFFFFF" fill-rule="nonzero"/>
                <path d="M169.7,32.9 L150.9,32.9 C149.1,32.9 147.7,31.6 147.7,29.7 C147.7,28.5 148.8,26.8 149.7,25.3 C149.9,25 150.1,24.7 150.3,24.4 C151.2,23 153.1,20.6 155,19.9 C155.3,19.8 155.7,19.9 155.9,20.3 C156,20.6 155.9,21 155.5,21.2 C154.2,21.8 152.4,23.7 151.5,25.2 C151.3,25.5 151.1,25.8 150.9,26.1 C150.1,27.3 149.1,28.9 149.1,29.7 C149.1,31 150,31.5 150.9,31.5 L169.7,31.5 C170.8,31.5 171.5,30.7 171.5,29.7 C171.5,28.8 170.6,26.9 168.7,24.2 C168.6,24.1 168.6,24 168.5,23.9 C167.8,22.7 166.2,20.2 160.2,20.2 L160.1,20.2 C155.6,19.8 152.3,16.5 152.3,12.3 C152.3,8 155.8,4.4 160.2,4.4 C164.5,4.4 168.1,7.9 168.1,12.3 C168.1,13.3 167.9,14.2 167.6,15.1 C167.6,15.1 167.1,16.6 166,17.7 C165.7,18 165.3,18 165.1,17.7 C164.8,17.4 164.8,17 165.1,16.8 C166,15.9 166.4,14.7 166.4,14.7 C166.7,13.9 166.8,13.2 166.8,12.4 C166.8,8.8 163.9,5.9 160.3,5.9 C156.7,5.9 153.8,8.8 153.8,12.4 C153.8,15.9 156.6,18.6 160.4,18.9 C167.1,18.9 168.9,21.9 169.7,23.2 C169.8,23.3 169.8,23.4 169.9,23.5 C171.3,25.6 172.9,28.2 172.9,29.8 C172.9,31.5 171.5,32.9 169.7,32.9 Z" id="路径" fill="#FFFFFF" fill-rule="nonzero"/>
                <g id="编组" transform="translate(226.000000, 0.000000)" fill-rule="nonzero">
                    <g transform="translate(50.100000, 25.100000)" fill="#3E3A39">
                        <path d="M6.6,2 L5.8,5.9 C5.7,6.4 5.6,6.6 5,6.6 L4.8,6.6 C4.3,6.6 4.1,6.4 4,5.9 L3.3,3.3 C3.3,3.3 3.3,3.3 3.3,3.3 C3.3,3.3 3.3,3.3 3.3,3.3 L2.6,5.9 C2.5,6.3 2.2,6.6 1.8,6.6 L1.6,6.6 C1.1,6.6 0.9,6.4 0.8,5.9 L-1.41553436e-15,2 C-1.41553436e-15,2 -1.41553436e-15,2 -1.41553436e-15,2 C-1.41553436e-15,1.9 0.1,1.8 0.2,1.8 L1,1.8 C1.1,1.8 1.1,1.9 1.2,2 L1.7,5.6 C1.7,5.7 1.7,5.7 1.7,5.7 C1.7,5.7 1.7,5.7 1.8,5.6 L2.5,2.7 C2.6,2.4 2.7,2.3 3,2.3 L3.6,2.3 C3.9,2.3 4,2.3 4.1,2.7 L4.8,5.6 C4.8,5.7 4.8,5.7 4.9,5.7 C4.9,5.7 4.9,5.7 4.9,5.6 L5.4,2 C5.4,1.9 5.5,1.8 5.6,1.8 L6.4,1.8 C6.5,1.8 6.6,1.8 6.6,2 C6.6,1.9 6.6,1.9 6.6,2 Z" id="路径"/>
                        <path d="M14.1,2 L13.3,5.9 C13.2,6.4 13.1,6.6 12.5,6.6 L12.3,6.6 C11.8,6.6 11.6,6.4 11.5,5.9 L10.8,3.3 C10.8,3.3 10.8,3.3 10.8,3.3 C10.8,3.3 10.8,3.3 10.8,3.3 L10.1,5.9 C10,6.3 9.8,6.6 9.3,6.6 L9.1,6.6 C8.6,6.6 8.4,6.4 8.3,5.9 L7.5,2 C7.5,2 7.5,2 7.5,2 C7.5,1.9 7.6,1.8 7.7,1.8 L8.5,1.8 C8.6,1.8 8.6,1.9 8.7,2 L9.2,5.6 C9.2,5.7 9.2,5.7 9.2,5.7 C9.2,5.7 9.2,5.7 9.3,5.6 L10,2.7 C10.1,2.4 10.2,2.3 10.5,2.3 L11.1,2.3 C11.4,2.3 11.5,2.3 11.6,2.7 L12.3,5.6 C12.3,5.7 12.3,5.7 12.4,5.7 C12.4,5.7 12.4,5.7 12.4,5.6 L12.9,2 C12.9,1.9 13,1.8 13.1,1.8 L13.9,1.8 C14,1.8 14.1,1.8 14.1,2 C14.1,1.9 14.1,1.9 14.1,2 Z" id="路径"/>
                        <path d="M21.6,2 L20.8,5.9 C20.7,6.4 20.6,6.6 20,6.6 L19.8,6.6 C19.3,6.6 19.1,6.4 19,5.9 L18.3,3.3 C18.3,3.3 18.3,3.3 18.3,3.3 C18.3,3.3 18.3,3.3 18.3,3.3 L17.6,5.9 C17.5,6.3 17.3,6.6 16.8,6.6 L16.6,6.6 C16.1,6.6 15.9,6.4 15.8,5.9 L15,2 C15,2 15,2 15,2 C15,1.9 15.1,1.8 15.2,1.8 L16,1.8 C16.1,1.8 16.1,1.9 16.2,2 L16.7,5.6 C16.7,5.7 16.7,5.7 16.7,5.7 C16.7,5.7 16.7,5.7 16.8,5.6 L17.5,2.7 C17.6,2.4 17.7,2.3 18,2.3 L18.6,2.3 C18.9,2.3 19,2.3 19.1,2.7 L19.8,5.6 C19.8,5.7 19.8,5.7 19.9,5.7 C19.9,5.7 19.9,5.7 19.9,5.6 L20.4,2 C20.4,1.9 20.5,1.8 20.6,1.8 L21.4,1.8 C21.5,1.8 21.6,1.8 21.6,2 C21.6,1.9 21.6,1.9 21.6,2 Z" id="路径"/>
                        <path d="M23.8,6.6 L23,6.6 C22.9,6.6 22.8,6.5 22.8,6.4 L22.8,5.4 C22.8,5.3 22.9,5.2 23,5.2 L23.8,5.2 C23.9,5.2 24,5.3 24,5.4 L24,6.4 C23.9,6.5 23.9,6.6 23.8,6.6 Z" id="路径"/>
                        <path d="M28.3,6.6 L27.5,6.6 C27.4,6.6 27.3,6.5 27.3,6.4 L27.3,1.4 L26.3,1.7 C26.3,1.7 26.2,1.7 26.2,1.7 C26.1,1.7 26.1,1.7 26.1,1.6 L26.1,0.8 C26.1,0.7 26.1,0.7 26.2,0.7 L27.6,0.2 C27.6,0.2 27.7,0.2 27.8,0.2 L28.4,0.2 C28.5,0.2 28.6,0.3 28.6,0.4 L28.6,6.4 C28.4,6.5 28.3,6.6 28.3,6.6 Z" id="路径"/>
                        <path d="M33.6,6.6 C32.3,6.6 31.4,5.8 31.4,4 L31.4,3 C31.4,0.9 32.2,0.1 33.8,0.1 C34.5,0.1 35.1,0.2 35.4,0.3 C35.5,0.3 35.6,0.4 35.6,0.5 L35.6,1 C35.6,1.1 35.5,1.2 35.4,1.2 C35.4,1.2 35.4,1.2 35.4,1.2 C35.1,1.2 34.3,1.1 33.8,1.1 C32.9,1.1 32.6,1.5 32.6,2.6 C32.9,2.5 33.3,2.5 33.8,2.5 C34.9,2.5 35.9,3 35.9,4.4 L35.9,4.5 C35.8,5.8 35,6.6 33.6,6.6 Z M34.7,4.4 C34.7,3.6 34.2,3.4 33.5,3.4 C33.3,3.4 32.8,3.4 32.6,3.5 L32.6,4 C32.6,5.4 33.1,5.7 33.7,5.7 C34.2,5.7 34.7,5.5 34.7,4.4 L34.7,4.4 L34.7,4.4 Z" id="形状"/>
                        <path d="M39.3,6.6 C38.7,6.6 38.2,6.5 37.7,6.4 C37.6,6.4 37.5,6.3 37.5,6.2 L37.5,5.7 C37.5,5.6 37.6,5.5 37.7,5.5 C37.7,5.5 37.7,5.5 37.7,5.5 C38.4,5.6 38.9,5.6 39.3,5.6 C40,5.6 40.3,5.3 40.3,4.7 L40.3,4.5 C40.3,4 40.2,3.6 39.5,3.6 L37.9,3.6 C37.8,3.6 37.7,3.5 37.7,3.4 L37.7,2.9 C37.7,2.8 37.8,2.7 37.9,2.7 L39.4,2.7 C40,2.7 40.2,2.3 40.2,1.9 L40.2,1.8 C40.2,1.4 40,1 39.2,1 C38.6,1 38.3,1 37.6,1.1 C37.6,1.1 37.6,1.1 37.6,1.1 C37.5,1.1 37.4,1 37.4,0.9 L37.4,0.4 C37.4,0.3 37.5,0.3 37.6,0.2 C38.1,0.1 38.6,1.66533454e-16 39.2,1.66533454e-16 C40.4,1.66533454e-16 41.3,0.5 41.3,1.8 L41.3,1.9 C41.3,2.5 41,2.9 40.6,3.2 C41.1,3.5 41.3,3.9 41.3,4.5 L41.3,4.7 C41.4,6.1 40.5,6.6 39.3,6.6 Z" id="路径"/>
                        <path d="M44.1,6.6 L43.3,6.6 C43.2,6.6 43.1,6.5 43.1,6.4 L43.1,5.4 C43.1,5.3 43.2,5.2 43.3,5.2 L44.1,5.2 C44.2,5.2 44.3,5.3 44.3,5.4 L44.3,6.4 C44.3,6.5 44.2,6.6 44.1,6.6 Z" id="路径"/>
                        <path d="M48.8,6.5 C48.6,6.6 48.2,6.6 47.7,6.6 C46.6,6.6 45.8,5.9 45.8,4.5 L45.8,3.7 C45.8,2.3 46.6,1.6 47.7,1.6 C48.2,1.6 48.6,1.7 48.8,1.7 C48.9,1.7 49,1.8 49,1.9 L49,2.5 C49,2.6 48.9,2.6 48.8,2.6 C48.8,2.6 48.8,2.6 48.8,2.6 C48.5,2.6 48.3,2.5 47.7,2.5 C47.3,2.5 46.9,2.7 46.9,3.6 L46.9,4.4 C46.9,5.3 47.3,5.5 47.7,5.5 C48.3,5.5 48.5,5.5 48.8,5.4 C48.8,5.4 48.8,5.4 48.8,5.4 C48.9,5.4 49,5.4 49,5.5 L49,6.1 C48.9,6.4 48.9,6.5 48.8,6.5 Z" id="路径"/>
                        <path d="M52.3,6.6 C51,6.6 50.3,5.7 50.3,4.5 L50.3,3.8 C50.3,2.6 51,1.7 52.3,1.7 C53.6,1.7 54.3,2.6 54.3,3.8 L54.3,4.5 C54.3,5.7 53.6,6.6 52.3,6.6 Z M53.2,3.8 C53.2,3.1 52.9,2.7 52.3,2.7 C51.7,2.7 51.4,3.2 51.4,3.8 L51.4,4.5 C51.4,5.2 51.7,5.6 52.3,5.6 C52.9,5.6 53.2,5.1 53.2,4.5 L53.2,3.8 Z" id="形状"/>
                        <path d="M61.7,6.6 L60.9,6.6 C60.8,6.6 60.7,6.5 60.7,6.4 L60.7,3.5 C60.7,2.8 60.6,2.7 60.1,2.7 C59.9,2.7 59.6,2.7 59.3,2.9 C59.3,3.1 59.3,3.3 59.3,3.5 L59.3,6.4 C59.3,6.5 59.2,6.6 59.1,6.6 L58.3,6.6 C58.2,6.6 58.1,6.5 58.1,6.4 L58.1,3.5 C58.1,2.8 58,2.7 57.5,2.7 C57.3,2.7 57.1,2.8 56.7,3 L56.7,6.4 C56.7,6.5 56.6,6.6 56.5,6.6 L55.7,6.6 C55.6,6.6 55.5,6.5 55.5,6.4 L55.5,1.9 C55.5,1.8 55.6,1.7 55.7,1.7 L56.4,1.7 C56.5,1.7 56.6,1.8 56.6,1.9 L56.6,2.1 C57,1.9 57.3,1.7 57.8,1.7 C58.3,1.7 58.6,1.8 58.8,2.1 C59.2,1.9 59.6,1.7 60.2,1.7 C61.4,1.7 61.6,2.5 61.6,3.5 L61.6,6.4 C61.9,6.5 61.8,6.6 61.7,6.6 Z" id="路径"/>
                    </g>
                    <g id="形状" transform="translate(50.200000, 7.800000)" fill="#3E3A39">
                        <path d="M4.9,11.7 C5.1,11.5 5.2,11.2 5.4,11 C5.6,10.8 5.7,10.5 5.9,10.3 L5.1,10.7 L4.2,8.9 C3.6,10.1 2.9,11.2 2.2,12.2 L1.5,11.7 L1.5,14.1 L7.21644966e-16,14.1 L7.21644966e-16,1 L12.4,1 L12.4,12 C12.4,12.4 12.4,12.7 12.3,13 C12.2,13.3 12.1,13.5 12,13.6 C11.8,13.7 11.6,13.9 11.3,13.9 C11,14 10.6,14 10.2,14 L8.4,14 L8.1,12.6 L9.8,12.6 C10,12.6 10.2,12.6 10.4,12.6 C10.6,12.6 10.7,12.5 10.8,12.4 C10.9,12.3 10.9,12.2 11,12.1 C11,12 11,11.8 11,11.6 L11,2.5 L1.6,2.5 L1.6,10.9 C2,10.4 2.3,9.9 2.6,9.3 C2.9,8.7 3.3,8.2 3.6,7.6 C3.3,6.9 2.9,6.3 2.6,5.7 C2.3,5.1 2,4.6 1.8,4.1 L2.9,3.6 L4.3,6.2 C4.5,5.7 4.7,5.2 4.9,4.7 C5.1,4.2 5.3,3.7 5.4,3.2 L6.6,3.6 C6.5,3.8 6.5,3.9 6.4,4.1 C6.3,4.3 6.3,4.4 6.2,4.6 L7,4.2 C7.2,4.5 7.3,4.8 7.5,5.1 C7.7,5.5 7.9,5.8 8.1,6.2 C8.3,5.7 8.5,5.3 8.7,4.8 C8.9,4.3 9,3.9 9.2,3.4 L10.4,3.8 C10,5.1 9.5,6.4 8.9,7.6 C9.2,8.2 9.6,8.8 9.9,9.4 C10.2,10 10.5,10.5 10.7,11 L9.5,11.6 C9.3,11.2 9.1,10.8 8.9,10.4 C8.7,9.9 8.4,9.5 8.2,9 C7.9,9.6 7.5,10.2 7.2,10.8 C6.8,11.4 6.4,12 6,12.6 L4.9,11.7 Z M4.9,7.5 C5.1,7.9 5.4,8.4 5.6,8.8 C5.8,9.2 6,9.6 6.2,9.9 C6.7,9.1 7.1,8.3 7.5,7.6 C7.2,7.1 7,6.6 6.7,6.2 C6.5,5.7 6.2,5.4 6,5 C5.8,5.4 5.6,5.9 5.5,6.3 C5.3,6.7 5.1,7.1 4.9,7.5 Z"/>
                        <path d="M15.6,9.2 C16.3,8.8 16.9,8.3 17.5,7.8 C18,7.3 18.5,6.7 18.9,6.2 L17.7,6.2 L17.7,0.9 L27.8,0.9 L27.8,6.2 L19.6,6.2 L20.4,6.6 C20.3,6.7 20.2,6.9 20.1,7 C20,7.1 19.9,7.3 19.8,7.4 L28.7,7.4 C28.6,8.1 28.6,8.7 28.5,9.3 C28.5,9.5 28.5,9.8 28.4,10.1 C28.4,10.4 28.4,10.6 28.3,10.8 C28.3,11 28.3,11.2 28.2,11.4 C28.2,11.6 28.2,11.7 28.2,11.8 C28.1,12.2 28.1,12.5 28,12.7 C27.9,12.9 27.8,13.1 27.6,13.3 C27.4,13.4 27.2,13.6 26.9,13.6 C26.6,13.7 26.2,13.7 25.8,13.7 L23.7,13.7 L23.4,12.4 L25.2,12.4 C25.5,12.4 25.8,12.4 26,12.4 C26.2,12.4 26.4,12.3 26.5,12.2 C26.6,12.1 26.7,12 26.8,11.9 C26.9,11.8 26.9,11.6 26.9,11.3 L27.2,8.7 L25.5,8.7 C25.3,9.3 25,9.9 24.8,10.4 C24.6,10.9 24.2,11.4 23.7,11.9 C23.3,12.4 22.8,12.8 22.2,13.3 C21.6,13.8 21,14.1 20.2,14.5 L19.3,13.4 C20,13 20.6,12.7 21.1,12.3 C21.6,12 22,11.6 22.4,11.2 C22.8,10.8 23.1,10.4 23.3,10 C23.6,9.6 23.8,9.1 24,8.6 L22.2,8.6 C21.9,9.1 21.6,9.6 21.2,10 C20.8,10.4 20.4,10.8 19.9,11.2 C19.4,11.6 18.9,12 18.3,12.3 C17.7,12.6 17,13 16.2,13.3 L15.4,12.1 C16.1,11.8 16.7,11.6 17.2,11.3 C17.7,11 18.2,10.7 18.6,10.4 C19,10.1 19.4,9.8 19.7,9.5 C20,9.2 20.3,8.9 20.5,8.5 L18.5,8.5 C18.2,8.8 17.9,9.1 17.5,9.4 C17.2,9.7 16.8,9.9 16.4,10.2 L15.6,9.2 Z M19.1,3 L26.3,3 L26.3,2 L19.1,2 L19.1,3 Z M26.3,5 L26.3,4.1 L19.1,4.1 L19.1,5 L26.3,5 Z"/>
                        <path d="M31.8,12.7 C32.1,12.2 32.4,11.7 32.7,11.1 C33,10.5 33.2,9.9 33.5,9.4 L34.7,9.8 C34.6,10.1 34.5,10.4 34.3,10.7 C34.1,11 34,11.3 33.9,11.6 C33.7,11.9 33.6,12.2 33.4,12.5 C33.2,12.8 33.1,13.1 32.9,13.3 L31.8,12.7 Z M33.8,3 L32.4,3 L32.4,1.7 L35.3,1.7 L34.8,0.4 L36.1,0 L36.8,1.7 L39.4,1.7 L39.4,3 L38,3 L38.5,3.2 C38.4,3.5 38.3,3.8 38.1,4.2 C37.9,4.6 37.8,4.9 37.6,5.3 L39.7,5.3 L39.7,6.6 L36.7,6.6 L36.7,8.1 L39.5,8.1 L39.5,9.4 L36.7,9.4 L36.7,12.8 C36.7,13.1 36.7,13.3 36.6,13.5 C36.5,13.7 36.5,13.8 36.3,14 C36.2,14.1 36,14.2 35.8,14.2 C35.6,14.2 35.3,14.3 34.9,14.3 L34,14.3 L33.7,12.9 L34.3,12.9 C34.5,12.9 34.7,12.9 34.8,12.9 C34.9,12.9 35,12.8 35.1,12.8 C35.2,12.7 35.2,12.7 35.2,12.5 C35.2,12.3 35.2,12.3 35.2,12.1 L35.2,9.4 L32.2,9.4 L32.2,8.1 L35.2,8.1 L35.2,6.6 L32,6.6 L32,5.3 L34.1,5.3 C34,5 33.8,4.7 33.7,4.3 C33.5,3.9 33.4,3.6 33.2,3.4 L33.8,3 Z M36.2,5.2 C36.4,4.9 36.5,4.6 36.7,4.1 C36.9,3.7 37,3.3 37.2,3 L34.5,3 C34.7,3.3 34.8,3.6 35,4 C35.2,4.4 35.3,4.7 35.4,5 L34.8,5.2 L36.2,5.2 L36.2,5.2 Z M37.8,9.5 C37.9,9.7 38.1,9.8 38.2,10 C38.3,10.2 38.5,10.4 38.6,10.6 C38.7,10.8 38.9,11 39,11.2 C39.1,11.4 39.3,11.6 39.3,11.7 L38.3,12.4 C38.2,12.2 38.1,12.1 38,11.9 C37.9,11.7 37.7,11.5 37.6,11.3 C37.5,11.1 37.3,10.9 37.2,10.7 C37.1,10.5 36.9,10.3 36.8,10.2 L37.8,9.5 Z M38.3,13.7 C38.7,13.2 39,12.7 39.2,12.2 C39.4,11.7 39.6,11.2 39.8,10.7 C39.9,10.2 40,9.6 40.1,8.9 C40.1,8.2 40.2,7.4 40.2,6.5 L40.2,1.6 C40.7,1.6 41.1,1.5 41.6,1.4 C42.1,1.3 42.5,1.3 43,1.2 C43.5,1.1 43.9,1 44.3,0.9 C44.7,0.8 45.1,0.7 45.4,0.6 L45.8,2 C45.5,2.1 45.2,2.2 44.9,2.3 C44.6,2.4 44.2,2.5 43.8,2.6 C43.4,2.7 43,2.8 42.6,2.8 C42.2,2.8 41.8,2.9 41.5,2.9 L41.5,5.2 L46.2,5.2 L46.2,6.6 L44.6,6.6 L44.6,14.1 L43.2,14.1 L43.2,6.6 L41.5,6.6 L41.5,6.8 C41.5,7.7 41.5,8.5 41.4,9.2 C41.3,9.9 41.3,10.5 41.1,11.1 C41,11.7 40.8,12.2 40.5,12.7 C40.3,13.2 40,13.8 39.6,14.3 L38.3,13.7 Z"/>
                        <path d="M50.7,3.1 L50.7,14.1 L49.3,14.1 L49.3,3.1 L50.7,3.1 Z M50.3,0.2 C50.5,0.3 50.7,0.5 50.9,0.7 C51.1,0.9 51.3,1.1 51.6,1.3 C51.8,1.5 52.1,1.7 52.3,1.9 C52.5,2.1 52.7,2.3 52.9,2.4 L51.8,3.5 C51.6,3.3 51.5,3.2 51.3,3 C51.1,2.8 50.9,2.6 50.6,2.4 C50.3,2.2 50.2,2 49.9,1.8 C49.6,1.6 49.5,1.4 49.3,1.3 L50.3,0.2 Z M51.1,10.9 C51.2,10.9 51.4,10.9 51.6,10.9 C51.8,10.9 52.1,10.9 52.4,10.9 L52.4,5 L51.4,5 L51.4,3.8 L59.4,3.8 L59.4,5 L58.3,5 L58.3,10.6 L59.7,10.5 L59.7,11.7 L58.3,11.8 L58.3,13.4 L57,13.4 L57,11.9 C56.4,11.9 55.8,12 55.2,12 C54.6,12 54,12.1 53.4,12.1 C52.9,12.1 52.4,12.2 52,12.2 C51.6,12.2 51.3,12.2 51.1,12.3 L51.1,10.9 Z M61.8,1.1 L61.8,12.3 C61.8,12.7 61.8,13 61.7,13.2 C61.6,13.4 61.5,13.6 61.4,13.8 C61.2,13.9 61,14 60.8,14.1 C60.5,14.2 60.2,14.2 59.8,14.2 L58.8,14.2 L58.6,12.9 L59.2,12.9 C59.6,12.9 59.9,12.8 60.1,12.7 C60.2,12.6 60.3,12.3 60.3,12 L60.3,2.5 L53.1,2.5 L53.1,1.1 L61.8,1.1 Z M53.8,6.1 L57.1,6.1 L57.1,5 L53.8,5 L53.8,6.1 Z M53.8,8.4 L57.1,8.4 L57.1,7.3 L53.8,7.3 L53.8,8.4 Z M57.1,10.6 L57.1,9.5 L53.8,9.5 L53.8,10.8 L57.1,10.6 Z"/>
                    </g>
                    <g>
                        <path d="M12.3,7.21644966e-16 C8,7.21644966e-16 5.2,7.21644966e-16 2.6,2.6 C0,5.2 0,8 0,12.3 L0,27.6 C0,31.9 0,34.7 2.6,37.3 C5.2,39.9 8,39.9 12.3,39.9 L27.6,39.9 C31.9,39.9 34.7,39.9 37.3,37.3 C39.9,34.7 39.9,31.9 39.9,27.6 L39.9,12.3 C39.9,8 39.9,5.2 37.3,2.6 C34.7,7.21644966e-16 31.9,7.21644966e-16 27.6,7.21644966e-16 L12.3,7.21644966e-16 L12.3,7.21644966e-16 Z" id="路径" fill="#E10000"/>
                        <path d="M10,23.1 C10,22.9 10.1,22.8 10.1,22.7 C10.1,22.6 10.1,22.5 10,22.3 C10,22.2 10,22.1 10,22.1 C10,22 9.9,21.9 9.9,21.8 C9.9,21.6 9.8,21.4 9.6,21.2 C9.5,21 9.3,21 9.1,21 C9.1,21 9.1,21 9,21 C8.8,21 8.7,21 8.7,21.1 C8.7,21.2 8.6,21.2 8.6,21.3 C8.6,21.3 8.5,21.4 8.5,21.6 C8.5,21.8 8.6,21.9 8.6,22 C8.6,22.1 8.7,22.3 8.8,22.6 C8.8,22.8 9,23 9.2,23.2 C9.4,23.4 9.6,23.5 9.7,23.4 C9.8,23.5 9.9,23.3 10,23.1 Z M17.4,22 C17.2,21.9 17.1,21.9 16.9,21.9 C16.8,21.9 16.7,21.9 16.6,21.9 C16.5,22 16.4,22 16.2,22 C16,22 15.8,22 15.7,22.1 C15.6,22.1 15.5,22.2 15.4,22.2 C15.2,22.2 15,22.3 14.9,22.5 C14.8,22.7 14.8,22.8 14.8,22.9 C14.8,23.1 14.9,23.2 15.1,23.3 C15.4,23.4 15.7,23.4 15.9,23.3 C16,23.3 16.1,23.2 16.2,23.2 C16.3,23.2 16.4,23.2 16.4,23.2 C16.4,23.2 16.5,23.2 16.6,23.2 C17,23.3 17.3,23.2 17.5,23 C17.7,22.9 17.8,22.7 17.8,22.4 C17.8,22.3 17.7,22.1 17.4,22 Z M7.7,22.1 C7.6,21.9 7.5,21.8 7.3,21.8 C7.2,21.8 7.1,21.7 7,21.7 C6.9,21.7 6.9,21.7 6.9,21.8 C6.8,21.8 6.8,21.9 6.7,21.9 C6.7,21.9 6.6,22 6.5,22.2 C6.5,22.6 6.4,22.9 6.4,23.1 C6.4,23.3 6.4,23.8 6.5,24.4 C6.5,24.6 6.6,24.8 6.7,25 C6.8,25.2 6.9,25.3 7.1,25.3 C7.2,25.3 7.4,25.2 7.5,25 C7.6,24.9 7.6,24.8 7.7,24.7 C7.7,24.6 7.7,24.5 7.7,24.3 C7.8,24 7.9,23.8 7.8,23.5 C7.7,23.2 7.7,22.9 7.7,22.6 C7.8,22.5 7.8,22.3 7.7,22.1 Z M7.1,20.9 C7.3,20.9 7.4,20.8 7.6,20.8 C8,20.8 8.4,20.6 8.6,20.3 C8.8,20.1 8.9,19.9 9.2,19.8 C9.3,19.7 9.4,19.6 9.5,19.6 C9.6,19.6 9.7,19.5 9.8,19.4 C9.9,19.2 10,19 10,18.7 C10,18.6 10,18.4 9.9,18.3 C9.9,18.2 9.8,18 9.8,17.7 C9.8,17.5 9.7,17.3 9.6,17 C9.6,16.8 9.5,16.7 9.4,16.7 C9.3,16.6 9.3,16.5 9.2,16.4 C9.2,16.3 9.1,16.2 8.9,16.1 C8.8,16.1 8.8,16 8.8,16 C8.8,16 8.8,16 8.8,16 C8.8,15.8 8.8,15.7 8.7,15.5 C8.7,15.5 8.7,15.5 8.7,15.4 C8.7,15.3 8.7,15.3 8.8,15.2 C8.8,15.1 8.9,15 9,14.9 C9.2,14.7 9.4,14.6 9.7,14.5 C9.8,14.5 9.9,14.4 10,14.2 C10.1,14.1 10.1,13.9 10,13.8 C9.9,13.6 9.9,13.5 10,13.4 C10,13.3 10,13.2 9.9,13 C9.7,12.7 9.4,12.6 9.1,12.5 C9,12.5 8.9,12.5 8.8,12.4 C8.7,12.4 8.6,12.4 8.5,12.4 C8.4,12.4 8.3,12.5 8.3,12.5 C8.1,12.5 8,12.6 8,12.7 C7.9,12.9 7.9,13 8,13.1 C8.2,13.2 8.3,13.3 8.4,13.4 C8.4,13.5 8.4,13.6 8.3,13.7 C8.3,13.8 8.2,13.8 8.2,14 C8.2,14.2 8.1,14.3 8,14.4 C8,14.4 7.9,14.5 7.9,14.6 C7.9,14.8 7.8,14.8 7.6,14.9 C7.5,14.9 7.4,15 7.3,15.1 C7.2,15.2 7.1,15.2 6.9,15.2 C6.9,15.2 6.8,15.1 6.6,15.1 C6.5,15.1 6.4,15 6.3,14.9 C6.3,14.9 6.2,14.8 6.2,14.8 C6.1,14.8 6,14.6 5.9,14.4 C5.8,14.2 5.9,14 6,13.7 C6,13.4 6.1,13.2 6.2,13.2 C6.3,13.2 6.3,13.1 6.4,13 C6.4,12.9 6.5,12.7 6.6,12.7 C6.7,12.7 6.7,12.6 6.7,12.4 C6.7,12.3 6.8,12.2 6.9,12.1 C7,12 7,12 7.1,12 C7.2,12 7.2,12 7.3,11.9 C7.4,11.8 7.5,11.8 7.6,11.8 C7.7,11.8 7.8,11.8 7.9,11.7 C8,11.7 8,11.6 8.2,11.6 C8.3,11.6 8.5,11.5 8.7,11.4 C8.8,11.4 8.8,11.2 8.8,11 C8.8,10.8 8.6,10.5 8.4,10.3 C8.2,10.2 7.9,10.1 7.7,10.2 C7.6,10.2 7.5,10.2 7.4,10.1 C7.3,10.1 7.3,10.1 7.2,10.1 C7.1,10.1 7,10.1 6.9,10.2 C6.8,10.3 6.7,10.3 6.6,10.3 C6.5,10.3 6.3,10.5 6.2,10.8 C6.1,10.9 6.1,11 6,11.1 C5.9,11.1 5.8,11.2 5.8,11.3 C5.8,11.4 5.7,11.5 5.7,11.5 C5.6,11.6 5.6,11.7 5.5,11.8 C5.5,11.9 5.4,12 5.4,12 C5.3,12.1 5.2,12.3 5,12.8 C4.8,13.2 4.7,13.4 4.7,13.5 C4.7,13.6 4.7,13.7 4.6,13.7 C4.5,13.7 4.5,14 4.5,14.3 C4.5,14.4 4.6,14.5 4.6,14.6 C4.7,14.7 4.7,14.8 4.7,14.8 C4.7,14.9 4.7,15 4.8,15 C4.9,15 4.9,15.1 5,15.1 C5.1,15.2 5.2,15.3 5.4,15.4 C5.5,15.4 5.6,15.5 5.6,15.6 C5.7,15.7 5.7,15.8 5.7,15.9 C5.8,16.1 5.8,16.3 5.7,16.5 C5.5,16.7 5.5,16.9 5.4,17.1 C5.4,17.3 5.3,17.4 5.2,17.5 C5,17.6 4.8,17.8 4.7,18.3 C4.6,18.5 4.5,18.7 4.6,18.9 C4.6,19.1 4.7,19.2 4.6,19.4 C4.6,19.6 4.7,19.9 5,20.4 C5.3,20.7 5.7,20.8 6,20.8 C6.2,20.8 6.4,20.8 6.7,21 C6.7,20.9 6.9,21 7.1,20.9 Z M6,19.2 C5.8,19 5.7,18.8 5.7,18.6 C5.7,18.5 5.8,18.3 5.9,18.2 C6,18.1 6.1,17.9 6.1,17.7 C6.1,17.6 6.2,17.4 6.4,17.3 C6.6,17.2 6.8,17 6.9,16.7 C6.9,16.5 7.1,16.4 7.2,16.4 C7.4,16.4 7.5,16.3 7.6,16.3 C7.6,16.3 7.6,16.3 7.6,16.3 C7.8,16.3 7.9,16.4 8.1,16.5 C8.1,16.5 8.2,16.6 8.2,16.6 C8.2,16.6 8.2,16.7 8.3,16.7 C8.4,16.8 8.4,16.9 8.5,17 C8.5,17.1 8.6,17.2 8.6,17.2 C8.7,17.3 8.7,17.4 8.8,17.7 C8.8,17.9 8.8,18.1 8.7,18.3 C8.7,18.4 8.6,18.6 8.6,18.8 L8.6,18.8 C8.5,19 8.3,19.1 8.1,19.2 C7.9,19.3 7.7,19.3 7.6,19.3 C7.5,19.3 7.4,19.3 7.2,19.3 C7.2,19.3 7.1,19.3 7.1,19.3 C7,19.3 7,19.3 6.9,19.2 C6.8,19.2 6.7,19.1 6.5,19.1 C6.3,19.4 6.1,19.3 6,19.2 Z M5.5,21.6 C5.4,21.5 5.3,21.4 5.1,21.4 C5.1,21.4 5,21.4 5,21.4 C4.8,21.5 4.6,21.7 4.6,22 C4.5,22.1 4.5,22.3 4.3,22.4 C4,22.7 3.9,23.1 3.9,23.4 C3.9,23.7 3.8,23.9 3.7,24.1 C3.6,24.4 3.6,24.6 3.7,24.9 C3.7,25.1 3.9,25.3 4.1,25.3 C4.3,25.3 4.5,25.3 4.6,25.2 C4.7,25.1 4.8,25 4.9,24.7 C5,24.5 5,24.3 5.1,24.1 C5.2,23.9 5.4,23.8 5.4,23.6 C5.5,23.4 5.5,23.2 5.4,23 C5.4,22.8 5.4,22.5 5.4,22.3 C5.6,22 5.6,21.8 5.5,21.6 Z M20,22.9 C20,22.5 19.9,21.9 19.6,21.2 C19.5,20.9 19.5,20.5 19.5,20 C19.6,19.7 19.5,19.3 19.4,18.8 C19.4,18.6 19.4,18.4 19.4,18.2 C19.5,18 19.5,17.8 19.4,17.6 C19.4,17.4 19.3,17.3 19.4,17.1 C19.5,16.9 19.5,16.7 19.5,16.3 C19.5,15.9 19.5,15.4 19.6,15 C19.6,14.8 19.6,14.7 19.6,14.6 C19.6,14.5 19.6,14.4 19.6,14.2 C19.6,14.2 19.7,14.1 19.7,13.9 C19.7,13.8 19.8,13.7 19.8,13.6 C19.9,13.5 19.9,13.4 20,13.3 C20,13.1 20,12.8 20,12.6 C19.9,12.2 19.7,12 19.4,11.8 C19.2,11.7 19.1,11.6 19,11.5 C19,11.4 18.9,11.3 18.7,11.2 C18.6,11.2 18.4,11.1 18.2,11.1 C18.1,11.1 17.9,11.1 17.8,11 C17.7,10.9 17.6,10.9 17.5,10.9 C17.4,10.9 17.3,10.9 17.1,10.9 C16.8,10.9 16.5,10.9 16.2,10.9 C16,10.9 15.7,10.9 15.5,10.9 C15.4,10.9 15.3,10.9 15.2,10.9 C15,10.9 14.9,10.9 14.7,11 C14.6,11.1 14.5,11.1 14.4,11.1 C14.3,11.1 14.1,11.1 13.8,11.2 C13.7,11.2 13.5,11.2 13.3,11.2 C13,11.2 12.8,11.2 12.5,11.3 C12.4,11.3 12.3,11.3 12.2,11.3 C12.1,11.3 12,11.3 11.9,11.3 C11.9,11.3 11.9,11.3 11.9,11.3 C11.7,11.1 11.4,11.1 11.2,11.3 C11,11.4 10.8,11.7 10.6,12.2 C10.4,12.6 10.3,13.1 10.4,13.6 C10.4,14.1 10.5,14.5 10.7,14.8 C10.9,15 11,15.3 11,15.7 C11,16.4 11.1,16.8 11,17 C11,17.3 11,17.5 11,17.8 C11,18 11,18.2 10.9,18.3 C10.9,18.4 10.9,18.5 10.9,18.7 C11,19 11,19.2 10.9,19.5 C10.7,19.9 10.6,20.4 10.6,20.9 C10.6,21 10.6,21.2 10.5,21.3 C10.5,21.5 10.4,21.8 10.3,22.1 C10.3,22.1 10.2,22.2 10.2,22.4 C10.2,22.6 10.1,22.8 9.9,23 C9.8,23.2 9.7,23.3 9.6,23.4 C9.6,23.5 9.5,23.7 9.5,23.8 C9.5,24 9.5,24.1 9.5,24.3 C9.5,24.5 9.6,24.6 9.8,24.7 C10,24.8 10.2,24.8 10.3,24.8 C10.5,24.8 10.7,24.7 10.9,24.5 C11,24.3 11.1,24.2 11.2,24 C11.3,23.7 11.4,23.4 11.5,22.9 C11.6,22.7 11.6,22.6 11.6,22.5 C11.6,22.4 11.6,22.2 11.7,22.1 C11.7,22 11.8,21.9 11.8,21.8 C11.8,21.7 11.8,21.6 11.8,21.5 C11.8,21.4 11.8,21.3 11.8,21.2 C11.8,21.1 11.8,20.9 11.9,20.7 C11.9,20.5 12,20.3 12,20.1 C12,20.1 12,20 12,20 C12.1,20 12.2,20.1 12.3,20.2 C12.4,20.2 12.5,20.2 12.6,20.2 C12.6,20.2 12.7,20.3 12.7,20.4 C12.7,20.4 12.8,20.5 12.8,20.6 L12.8,20.7 C12.8,20.8 12.8,20.9 12.7,21.1 C12.7,21.4 12.7,21.8 12.8,22.3 C12.9,22.7 13.1,22.9 13.4,23 C13.5,23 13.6,23.1 13.7,23.1 C13.8,23.1 13.9,23.1 14,23.1 C14.2,23 14.3,22.9 14.3,22.7 C14.4,22.5 14.3,22.4 14.2,22.3 C14.2,22.3 14.1,22.2 14.1,22.1 C14.1,22 14,21.9 14,21.7 L14,21.3 C14,21.2 14,21.1 14,21 C14.1,20.7 14.1,20.5 14.1,20.3 L14.1,20.3 C14.3,20.2 14.6,20 15.1,19.9 L15.1,19.9 C15.3,19.9 15.5,19.9 15.7,19.9 C16,19.9 16.3,19.9 16.5,19.9 C16.9,20 17.2,20 17.5,19.9 C17.7,19.8 17.9,19.6 17.9,19.4 C17.9,19.1 17.8,18.9 17.6,18.8 C17.4,18.7 17.2,18.6 17,18.6 C16.8,18.6 16.6,18.6 16.4,18.6 C16.2,18.6 16,18.6 15.8,18.6 C15.8,18.6 15.8,18.6 15.8,18.6 C15.7,18.5 15.6,18.4 15.5,18.3 C15.5,18.3 15.5,18.2 15.5,18.2 C15.5,18.1 15.5,18 15.5,17.9 C15.5,17.7 15.5,17.6 15.5,17.5 C15.5,17.5 15.5,17.5 15.5,17.4 C15.5,17.4 15.6,17.3 15.7,17.3 C15.8,17.3 15.8,17.2 16,17.2 C16.1,17.2 16.3,17.2 16.4,17.1 C16.8,17 17.1,17 17.5,17.2 C17.5,17.2 17.6,17.2 17.6,17.2 C17.7,17.2 17.8,17.3 17.9,17.5 C18,17.6 18.1,17.6 18.2,17.8 C18.2,18 18.2,18.2 18.3,18.3 C18.3,18.6 18.3,18.8 18.3,19.1 C18.2,19.3 18.2,19.5 18.3,19.8 C18.3,20.1 18.3,20.3 18.3,20.4 C18.3,20.5 18.3,20.7 18.3,20.8 C18.4,21.3 18.4,21.9 18.3,22.4 C18.3,22.6 18.3,22.9 18.4,23.2 C18.4,23.3 18.4,23.5 18.4,23.6 C18.4,23.7 18.4,23.8 18.4,23.9 C18.4,24 18.5,24.1 18.5,24.3 C18.5,24.5 18.6,24.7 18.7,24.9 C18.8,25.1 19,25.2 19.2,25.2 C19.4,25.2 19.6,25.1 19.8,25 C19.8,24.9 19.9,24.9 19.9,24.7 C19.9,24.6 19.9,24.5 20,24.4 C20,24.2 20,24 20,23.7 C20,23.6 20,23.3 20,22.9 Z M14.5,18.6 C14.4,18.7 14.3,18.8 14.1,18.9 L14.1,18.9 C14,18.9 13.9,18.9 13.7,18.9 C13.6,18.9 13.4,18.9 13.3,18.9 C13.2,18.9 13,18.9 12.8,19 C12.6,19 12.4,19.2 12.3,19.3 C12.3,19.1 12.3,18.9 12.4,18.8 C12.4,18.7 12.5,18.5 12.5,18.2 C12.5,18.1 12.6,18 12.6,18 C12.7,17.9 12.7,17.8 12.9,17.7 C12.9,17.7 13,17.7 13,17.6 C13.1,17.6 13.3,17.6 13.4,17.6 C13.5,17.6 13.7,17.5 13.9,17.4 L13.9,17.4 C14.1,17.4 14.2,17.5 14.4,17.6 C14.4,17.6 14.5,17.6 14.5,17.7 L14.5,17.9 L14.5,18.1 C14.5,18.2 14.5,18.3 14.5,18.5 C14.5,18.5 14.5,18.6 14.5,18.6 Z M18.5,14.9 C18.5,15.1 18.4,15.3 18.4,15.6 L18.4,15.8 C18.4,15.9 18.3,15.9 18.2,16 C18.2,16 18.1,16 18.1,16.1 C18.1,16.1 18.1,16.1 18,16.1 C17.8,16.1 17.6,16.1 17.4,16.1 C17.2,16.1 17,16 16.8,16.1 C16.8,16.1 16.8,16 16.8,16 C16.8,16 16.7,15.9 16.7,15.9 C16.7,15.8 16.7,15.8 16.7,15.7 C16.7,15.4 16.8,15.2 16.9,15 C17,14.9 17.1,14.7 17.2,14.5 C17.2,14.3 17.3,14.2 17.3,14 C17.3,13.7 17.3,13.5 17.2,13.3 C17.1,13.1 17,13 16.9,13 C16.8,13 16.6,13 16.3,13.2 C16.1,13.4 16,13.6 16,13.9 C16,14 15.9,14.2 15.8,14.4 C15.8,14.5 15.8,14.6 15.8,14.8 C15.8,15 15.9,15.1 15.9,15.3 C15.9,15.5 15.8,15.6 15.8,15.7 C15.8,15.7 15.7,15.8 15.7,15.9 C15.7,15.9 15.6,16 15.6,16 C15.6,16 15.5,16.1 15.3,16.2 L15.3,16.2 C15,16.2 14.8,16.2 14.7,16.3 C14.6,16.4 14.4,16.4 14.2,16.4 C14,16.4 13.9,16.4 13.7,16.4 C13.5,16.4 13.3,16.4 13.2,16.4 C13.1,16.4 12.9,16.4 12.8,16.5 C12.8,16.5 12.8,16.5 12.7,16.4 C12.5,16.3 12.4,16.1 12.1,16 L12.1,16 L12.1,16 C12,15.8 11.9,15.5 11.9,15.1 C11.9,14.9 11.9,14.7 11.8,14.3 C11.8,14.1 11.9,13.9 12.1,13.4 C12.1,13.4 12.1,13.3 12.1,13.3 C12.3,13.2 12.5,13 12.9,12.9 C12.9,12.9 12.9,12.9 13,12.9 C13.1,12.9 13.2,12.9 13.3,12.9 C13.3,12.9 13.3,12.9 13.3,12.9 C13.4,12.9 13.6,12.9 13.8,12.8 C14.3,12.6 14.8,12.5 15.3,12.6 C15.7,12.7 16,12.7 16.2,12.6 C16.6,12.4 17.2,12.6 17.8,13.2 C18.1,13.5 18.2,13.8 18.2,14.2 C18.5,14.3 18.5,14.7 18.5,14.9 Z M14.7,14.4 C14.7,14.3 14.6,14.2 14.6,14.2 C14.6,14 14.5,13.8 14.4,13.7 C14.3,13.6 14.1,13.5 14,13.5 C14,13.5 13.9,13.5 13.9,13.5 C13.7,13.5 13.6,13.5 13.6,13.6 C13.6,13.7 13.5,13.7 13.5,13.8 C13.5,13.8 13.4,13.9 13.4,14.1 C13.4,14.3 13.5,14.4 13.5,14.5 C13.5,14.6 13.6,14.8 13.7,15.1 C13.7,15.3 13.9,15.5 14.1,15.6 C14.3,15.8 14.4,15.9 14.5,15.8 C14.6,15.8 14.7,15.6 14.8,15.4 C14.8,15.2 14.9,15.1 14.9,15 C14.9,14.9 14.9,14.8 14.8,14.6 C14.7,14.5 14.7,14.5 14.7,14.4 Z M27.9,14 C28.4,13.9 28.8,13.9 29,13.9 C29.3,14 29.6,14 29.9,13.9 C30.2,13.8 30.5,13.8 30.8,13.9 C31,14 31.2,14 31.4,13.9 C31.5,13.8 31.6,13.7 31.7,13.4 C31.7,13.2 31.6,13 31.4,12.8 C31.2,12.7 30.9,12.7 30.6,12.8 C30.4,12.9 30.1,12.9 29.7,12.8 C29.5,12.8 29.3,12.7 29.1,12.7 C28.9,12.7 28.6,12.7 28.4,12.8 C28,12.9 27.7,12.9 27.5,12.8 C27.3,12.7 27.1,12.8 26.9,12.9 C26.8,13 26.7,13.2 26.6,13.4 C26.6,13.6 26.7,13.8 26.9,13.9 C27.3,14.1 27.6,14.1 27.9,14 Z M22.7,19.6 C22.7,19.7 22.8,19.7 23.1,19.8 C23.4,19.9 23.7,19.9 23.9,19.8 C24,19.8 24.1,19.8 24.2,19.8 C24.3,19.8 24.5,19.8 24.7,19.7 C24.9,19.6 25.1,19.5 25.4,19.5 C25.7,19.5 26,19.4 26.1,19.3 C26.3,19.2 26.5,19.1 26.7,19 C27,18.9 27.2,18.8 27.4,18.6 C27.5,18.5 27.6,18.4 27.8,18.3 C27.9,18.3 28,18.1 28.1,18 C28.2,17.9 28.3,17.8 28.4,17.7 C28.6,17.5 28.8,17.4 28.9,17.2 C29,17 29.1,16.8 29.1,16.6 C29.3,16.6 29.4,16.6 29.6,16.6 C29.8,16.7 30,16.7 30.3,16.6 C30.5,16.5 30.7,16.5 30.9,16.6 C31.1,16.7 31.3,16.7 31.6,16.6 C31.8,16.6 32.1,16.5 32.4,16.6 C32.8,16.6 33.2,16.6 33.5,16.4 C33.9,16.3 34.2,16.1 34.3,15.8 C34.5,15.6 34.6,15.2 34.6,14.8 L34.6,13.8 C34.6,13.5 34.6,13.3 34.5,13.1 C34.4,13 34.4,12.8 34.4,12.6 C34.4,12.2 34.3,11.9 34.2,11.7 C34.1,11.6 34,11.5 34,11.3 C34,11.2 33.8,11 33.6,10.8 C33.3,10.6 33.1,10.5 32.9,10.5 C32.7,10.5 32.5,10.5 32.4,10.4 C32,10.2 31.4,10.1 30.8,10.2 C30.4,10.2 30,10.2 29.7,10.1 C29.5,10.1 29.2,10 28.9,10 C28.8,10 28.7,10 28.6,10 C28.2,10 27.9,10.1 27.6,10.2 C27.4,10.2 27.2,10.3 27,10.3 C26.7,10.3 26.4,10.4 26.2,10.6 C26,10.7 25.9,10.9 25.9,11.2 C25.9,11.4 26.1,11.6 26.4,11.7 C26.8,11.8 27.2,11.7 27.6,11.5 C28.1,11.3 28.6,11.2 29.2,11.3 C29.6,11.3 30.1,11.4 30.8,11.4 C31.7,11.4 32.2,11.5 32.3,11.7 C32.4,11.8 32.5,11.8 32.6,11.9 C32.7,11.9 32.7,12 32.8,12.2 C32.8,12.3 32.9,12.4 33,12.6 C33,12.7 33.1,12.9 33.1,13 C33.1,13.2 33.1,13.4 33.2,13.6 C33.3,13.8 33.1,15 32.9,15.1 C32.7,15.3 32.5,15.4 32.1,15.4 C31.7,15.4 31.4,15.4 31.1,15.5 C30.8,15.6 30.4,15.6 30.1,15.5 C29.5,15.4 28.8,15.4 28.2,15.6 C27.7,15.7 27.2,15.8 26.8,15.6 C26.5,15.5 26.3,15.4 26.2,15.1 C26.1,14.9 26,14.7 25.9,14.3 C25.9,14 25.9,13.6 26,13.1 C26,12.6 26,12.3 25.9,12.1 C25.9,11.9 25.8,11.8 25.7,11.7 C25.6,11.7 25.5,11.6 25.3,11.6 C25.2,11.6 25.1,11.7 25,11.7 C24.9,11.8 24.8,11.9 24.7,12.1 C24.6,12.3 24.5,12.6 24.6,12.9 C24.6,13 24.6,13.2 24.6,13.3 C24.6,13.5 24.6,13.7 24.6,13.9 C24.6,14.2 24.7,14.7 24.7,15.2 C24.7,15.5 24.7,15.8 24.9,15.9 C25.1,16.1 25.2,16.2 25.3,16.4 C25.4,16.6 25.6,16.7 26,16.8 C26.4,16.9 26.6,16.9 26.8,16.9 C27.1,16.8 27.3,16.8 27.6,16.9 C27.5,17 27.5,17.1 27.4,17.2 C27.2,17.4 27,17.6 26.8,17.7 C26.6,17.7 26.5,17.8 26.3,17.9 C26.1,18 25.9,18.1 25.7,18.2 C25.5,18.2 25.3,18.3 25.1,18.4 C24.9,18.5 24.7,18.6 24.5,18.6 C24.3,18.6 24.1,18.6 24,18.6 C23.8,18.6 23.6,18.6 23.4,18.6 C23.2,18.7 23,18.8 22.9,18.9 C22.8,19 22.7,19.2 22.8,19.4 C22.8,19.5 22.8,19.6 22.9,19.6 C22.7,19.4 22.7,19.5 22.7,19.6 Z M36.1,20.3 C36,20.2 36,20.1 36,19.9 C36,19.7 35.9,19.6 35.8,19.4 C35.7,19.2 35.6,19 35.5,18.9 C35.5,18.7 35.4,18.6 35.3,18.5 C35,18.3 34.8,18.1 34.6,17.9 C34.5,17.8 33.6,17.3 33.4,17.1 C33.3,17 33.1,17 33,17 C32.8,17 32.7,17 32.5,16.9 C32.3,16.9 32.2,16.9 32.1,16.9 C32,16.9 31.8,16.9 31.5,16.8 C31.3,16.8 31,16.7 30.8,16.7 C30.8,16.7 30.8,16.7 30.7,16.7 C30.5,16.7 30.3,16.7 30.1,16.8 C29.9,16.9 29.7,17.1 29.7,17.3 C29.7,17.6 29.8,17.7 29.9,17.8 L29.9,17.8 C29.7,18 29.5,18.1 29.2,18.3 C29.1,18.4 29,18.5 28.9,18.6 C28.8,18.7 28.6,18.8 28.3,19 C28,19.2 27.7,19.4 27.4,19.5 C27.2,19.6 27.1,19.7 26.9,19.8 C26.8,19.9 26.7,20 26.5,20.1 C26.3,20.2 26.2,20.3 26.1,20.4 C25.9,20.5 25.6,20.7 25,20.9 C24.8,20.9 24.6,21 24.5,21.1 C24.3,21.2 24,21.3 23.5,21.3 C23.2,21.3 23,21.4 22.8,21.6 C22.6,21.8 22.5,22 22.5,22.1 C22.5,22.4 22.7,22.5 22.9,22.7 C23,22.8 23.3,22.8 23.6,22.8 C23.8,22.8 24.1,22.7 24.3,22.5 C24.5,22.4 24.7,22.3 24.8,22.3 C25,22.3 25.3,22.2 25.7,22 C26,21.9 26.2,21.8 26.4,21.7 C26.6,21.5 26.7,21.4 26.9,21.4 C27.1,21.3 27.3,21.2 27.4,21.1 C27.5,21 27.6,20.9 27.8,20.8 C28,20.7 28.2,20.6 28.3,20.4 C28.4,20.3 28.5,20.2 28.6,20.1 C28.8,20 29,19.8 29.2,19.6 C29.3,19.5 29.5,19.3 29.6,19.2 C29.8,19.1 30,18.9 30.3,18.7 C30.4,18.6 30.5,18.5 30.6,18.4 C30.8,18.3 30.9,18.1 31,17.9 L31,17.9 C31.1,17.9 31.3,17.9 31.5,17.9 C31.6,17.9 31.8,17.9 32.1,17.9 C32.2,17.9 32.2,17.9 32.3,17.9 C32.3,17.9 32.3,18 32.4,18 C32.5,18.2 32.6,18.4 32.6,18.6 C32.6,18.8 32.7,18.9 32.8,18.9 C32.9,18.9 33,18.9 33.1,18.9 C33.2,18.9 33.3,18.9 33.5,18.8 C33.6,18.8 33.7,18.8 33.9,18.8 C33.9,18.8 34,18.8 34.1,18.9 C34.4,19.2 34.6,19.5 34.8,19.9 C34.9,20.1 34.9,20.4 34.8,20.9 C34.7,21.4 34.5,21.7 34.3,21.9 C34.2,22 34.1,22.1 34,22.2 C33.7,22.6 33.5,22.8 33.2,22.9 C33.1,22.9 33,23 33,23 C32.9,23.1 32.5,23.3 32,23.4 C31.6,23.5 31.3,23.5 31.1,23.5 C31,23.5 30.9,23.5 30.9,23.4 C30.8,23.3 30.6,23.2 30.5,23.1 C30.3,23 30.1,23 29.9,23.1 C29.8,23.2 29.8,23.3 29.8,23.5 C29.8,23.7 29.9,23.8 30,24 C30.1,24.1 30.1,24.2 30.1,24.3 C30.1,24.4 30.2,24.5 30.3,24.6 C30.4,24.7 30.5,24.8 30.5,25 C30.6,25.1 30.7,25.2 31,25.2 C31.1,25.2 31.3,25.2 31.5,25.3 C31.6,25.3 31.9,25.3 32.1,25.2 C32.4,25.1 32.6,25 32.8,25 C33,25 33.5,24.7 34.2,24.2 C34.5,24 34.8,23.8 35,23.5 C35.1,23.3 35.1,23.2 35.2,23.2 C35.3,23.2 35.5,23 35.8,22.7 C36,22.4 36.1,22.1 36.1,21.9 C36.1,21.8 36.1,21.6 36.1,21.5 C36.2,21.1 36.3,20.9 36.2,20.7 C36.2,20.5 36.2,20.4 36.2,20.2 C36.1,20.5 36.1,20.4 36.1,20.3 Z M29.8,22.8 C29.8,22.7 29.8,22.5 29.9,22.4 C30.1,22.3 30.4,22.1 30.6,21.9 C30.7,21.7 30.9,21.6 31,21.5 C31.2,21.3 31.5,21.1 31.7,20.9 C31.8,20.8 31.9,20.6 32,20.6 C32.3,20.5 32.4,20.3 32.4,20 C32.4,19.8 32.3,19.6 32,19.5 C32,19.5 31.9,19.5 31.9,19.5 C31.8,19.5 31.6,19.6 31.4,19.7 C31.1,19.9 30.8,20.2 30.5,20.4 C30.4,20.5 30.3,20.6 30.2,20.7 C30.1,20.8 29.8,20.9 29.5,21.2 C29.1,21.5 28.8,21.7 28.5,21.8 C28.4,21.9 28.2,22 27.9,22.2 C27.8,22.3 27.6,22.4 27.4,22.5 C27.2,22.6 27.1,22.7 27,22.8 C26.8,22.9 26.4,23.1 25.8,23.4 C25.5,23.4 25.3,23.5 25.2,23.6 C25,23.7 24.6,23.8 24.1,23.9 C23.8,23.9 23.5,24 23.3,24.2 C23.1,24.4 23,24.6 23,24.8 C23.1,25.1 23.2,25.3 23.4,25.4 C23.6,25.5 23.8,25.5 24.1,25.5 C24.4,25.5 24.6,25.4 24.9,25.2 C25.1,25 25.3,24.9 25.4,25 C25.6,25 25.9,24.9 26.4,24.6 C26.8,24.5 27,24.3 27.1,24.2 C27.3,24 27.4,23.9 27.6,23.8 C27.9,23.7 28.1,23.6 28.2,23.5 C28.3,23.4 28.5,23.2 28.6,23.1 C28.6,23.1 28.6,23.1 28.6,23.1 C28.6,23.1 28.6,23.1 28.7,23.1 C28.8,23.1 29,23.1 29,23.1 C29.1,23.1 29.2,23.1 29.3,23.1 C29.7,23.1 29.8,23 29.8,22.8 Z" id="形状" fill="#FFFFFF"/>
                        <polygon id="路径" fill="#FFEBEB" opacity="0.8" points="12.6 28.1 13.1 28.1 13.1 31.2 12.7 31.2 10.6 28.8 10.6 31.2 10.2 31.2 10.2 28.1 10.5 28.1 12.6 30.5"/>
                        <polygon id="路径" fill="#FFE9E9" opacity="0.8" points="16.5 28.1 18.3 28.1 18.3 28.5 16.9 28.5 16.9 29.4 18.2 29.4 18.2 29.8 16.9 29.8 16.9 30.8 18.3 30.8 18.3 31.2 16.5 31.2"/>
                        <polygon id="路径" fill="#FFEBEB" opacity="0.8" points="25.1 28.1 25.6 28.1 24.3 31.2 24.2 31.2 23.2 28.7 22.1 31.2 22.1 31.2 20.8 28.1 21.2 28.1 22.1 30.2 23 28.1 23.4 28.1 24.3 30.2"/>
                        <path d="M29,29.9 L28.7,29.7 C28.5,29.6 28.3,29.4 28.2,29.3 C28.1,29.2 28.1,29 28.1,28.9 C28.1,28.7 28.2,28.5 28.4,28.3 C28.6,28.1 28.8,28.1 29.1,28.1 C29.4,28.1 29.6,28.2 29.8,28.3 L29.8,28.8 C29.6,28.6 29.3,28.5 29.1,28.5 C29,28.5 28.8,28.5 28.7,28.6 C28.6,28.7 28.6,28.8 28.6,28.9 C28.6,29 28.6,29.1 28.7,29.2 C28.8,29.3 28.9,29.4 29,29.5 L29.3,29.7 C29.7,29.9 29.9,30.2 29.9,30.6 C29.9,30.8 29.8,31.1 29.6,31.2 C29.4,31.4 29.2,31.4 29,31.4 C28.7,31.4 28.4,31.3 28.2,31.1 L28.2,30.5 C28.4,30.8 28.7,31 29,31 C29.1,31 29.3,31 29.3,30.9 C29.4,30.8 29.4,30.7 29.4,30.6 C29.4,30.3 29.3,30.1 29,29.9" id="路径" fill="#FFEBEB" opacity="0.8"/>
                    </g>
                </g>
                <g id="编组" transform="translate(48.900000, 0.000000)">
                    <rect id="矩形" fill="url(#linearGradient-4)" x="0" y="0" width="40" height="40" rx="6"/>
                    <path d="M33,8.375 L30,15.375 L32.25,17 L29.875,21.875 L32.125,23.5 L29,30.5 L24.375,30.5 L27.25,24.375 L25,22.875 L27.5,17.75 L25,16 L26.5,13.5 L24.75,13.25 L33,8.375 Z M18.125,18.5 L18,19.5 L24.125,19.5 L23.875,21.25 L23,21.25 L21.875,30.375 L18.5,30.375 L19.625,21.25 L17.875,21.25 L16.75,30.375 L13,30.375 L14.25,21.25 L12.5,21.25 L11.25,30.375 L8,30.375 L9.25,21.25 L8.125,21.25 L8.5,19.375 L14.375,19.375 L14.625,18.375 L18.125,18.375 L18.125,18.5 Z M13.5,13.75 L12.875,17.25 L9,17.25 L9.625,13.75 L13.5,13.75 Z M24.375,13.75 L23.75,17.25 L19.875,17.25 L20.5,13.75 L24.375,13.75 Z M19,13.75 L18.375,17.25 L14.5,17.25 L15,13.75 L19,13.75 Z M25.375,9.625 L24.875,12 L9,12 L9.5,9.625 L25.375,9.625 L25.375,9.625 Z" id="形状结合" fill="#FFFFFF"/>
                </g>
            </g>
            <g id="编组" transform="translate(0.000000, 51.277709)">
                <path d="M1.7816696,24.1026701 C1.94038664,23.45976 2.22967092,23.076384 2.64353311,22.933581 C3.0388284,22.8221827 3.37123581,22.947802 3.65393183,23.3145867 C3.86056346,23.6582622 3.86056346,24.114521 3.65393183,24.6869185 C3.60481939,25.0999216 3.59403861,25.5194427 3.6179959,25.9585177 C3.73119409,26.3904823 3.71322613,26.791042 3.5437283,27.1584192 C3.38381339,27.5477206 3.16640098,27.891396 2.88729854,28.1912233 C2.72618577,28.5313435 2.57465591,28.9206449 2.43750042,29.3579423 C2.32130756,29.8159787 2.12605564,30.1140283 1.84395855,30.2485358 C1.57264224,30.4280766 1.22346473,30.4778503 0.80361322,30.3842284 C0.408916862,30.2722376 0.167547162,30.0097406 0.0777073233,29.5943673 C-0.0372876702,29.138701 -0.0241111605,28.6664435 0.113643259,28.1912233 C0.29691653,27.8214759 0.4244891,27.3895113 0.495762039,26.8840714 C0.495762039,26.1510945 0.737730671,25.4992962 1.22346473,24.9251211 C1.5013693,24.6525509 1.68763723,24.3787956 1.7816696,24.1026701 M5.97479433,23.8620973 C6.11913701,23.8164714 6.2359288,23.750699 6.32576863,23.6582622 C6.39644264,23.4970902 6.66955575,23.4970902 7.1588834,23.6582622 C7.48051003,23.7696604 7.71050001,23.9776434 7.85124909,24.2721377 C7.96564516,24.6869185 8.01056508,25.0667391 7.99259711,25.4050817 C7.96564516,26.0029585 8.02613731,26.5534318 8.16628746,27.0559091 C8.20761379,27.5151306 8.11777395,27.9986465 7.88898183,28.4975685 C7.8644256,28.8199124 7.83687472,29.0593001 7.81890675,29.219287 C7.77219004,29.4254923 7.67097049,29.6435484 7.50446732,29.8681226 C7.20320439,30.1940218 6.9378774,30.3546012 6.70668955,30.3546012 C6.47490277,30.3777104 6.24551171,30.1750604 6.0113292,29.7336151 C5.69030151,29.2767638 5.53877165,28.875019 5.56332787,28.5313435 C5.37705994,27.2970745 5.31656778,26.4704757 5.39083538,26.0592502 C5.45851473,25.739869 5.53877165,25.1941361 5.63160615,24.4119781 C5.7699595,24.0451934 5.88735022,23.8620973 5.97479433,23.8620973 M9.69116899,22.8322559 C9.80736185,22.7439669 9.90139421,22.6266432 9.97386502,22.4915432 C10.0121967,22.307262 10.292497,22.2272686 10.8015894,22.2509704 C11.1681359,22.2509704 11.4717946,22.3967362 11.706576,22.6953783 C11.9581276,23.0639406 12.1216361,23.4153192 12.1887165,23.7649201 C12.2132727,23.9426833 12.263583,24.1026701 12.3312624,24.2401403 C12.3528239,24.3787956 12.3528239,24.5269316 12.3312624,24.6869185 C12.4001396,24.9831904 12.4456584,25.2403545 12.4678189,25.442412 C12.4947709,25.65158 12.4552414,25.8980783 12.3654015,26.198498 C12.158171,26.6085384 11.9359671,26.8497038 11.706576,26.9148836 C11.4717946,27.0096907 11.1681359,26.8739981 10.8015894,26.507806 C10.3122617,26.143984 10.0391486,25.7712739 9.97386502,25.4050817 C9.71452735,24.8575711 9.59054837,24.4795281 9.59054837,24.2721377 C9.59054837,24.114521 9.55461244,23.850839 9.48034484,23.4834617 C9.53005621,23.076384 9.60252702,22.8571428 9.69116899,22.8322559 M1.57264224,18.9534634 C1.59480273,18.7016322 1.55766893,18.401805 1.46663123,18.0622773 C1.39535829,17.7156391 1.47920881,17.3257452 1.70919879,16.8908179 C2.05777737,16.0908836 2.40575701,15.6245516 2.75373665,15.4835261 C2.97833625,15.3703502 3.10770561,15.1404432 3.1370533,14.7949901 C3.15801592,14.4762014 3.31852977,14.099936 3.6179959,13.6626386 C3.80306597,13.277485 3.80965422,12.8982569 3.65393183,12.5285095 C3.62937561,12.3495612 3.5437283,12.1765384 3.41076534,12.0189217 C3.26941732,11.8109388 3.12148106,11.6995406 2.95917041,11.6722835 C2.56686979,11.5306655 2.32130756,11.3529023 2.22967092,11.1212177 C2.13803429,11.0074492 2.0230393,10.91679 1.87929555,10.8474624 C1.69602228,10.754433 1.61876002,10.6092597 1.63792585,10.4012768 C1.66248208,10.262029 1.59480273,10.1144855 1.4288985,9.95627629 C1.27317611,9.79332669 1.17734695,9.61319339 1.15099393,9.40461789 C1.13063023,8.74215377 1.18692986,8.36588838 1.32648108,8.27285898 C1.48939065,8.13657388 1.55766893,7.98488263 1.53730524,7.82785849 C1.53730524,7.59795144 1.72177637,7.12924919 2.08892184,6.42115919 C2.53213171,5.59456041 2.82081706,5.11104456 2.95917041,4.97475945 C3.05260385,4.91017217 3.1370533,4.75966601 3.20173798,4.53212914 C3.29397355,4.34725543 3.42094719,4.18786111 3.58625249,4.04920583 C3.72280904,3.9597317 3.80306597,3.83351984 3.82882005,3.67175535 C3.89230687,3.46732769 4.01209332,3.31741408 4.1732061,3.22556977 C4.31455411,3.18053643 4.45410533,3.01995702 4.59185975,2.74679427 C4.96259882,2.07781217 5.25068523,1.76198625 5.45851473,1.78035512 C5.66454742,1.78035512 5.83883671,1.73709941 5.97479433,1.6452551 C6.20897684,1.50719236 6.49646433,1.48586078 6.84324611,1.57889018 C7.12654106,1.66895686 7.3313759,1.70747221 7.46913031,1.68080773 C7.83687472,1.58955597 8.26930381,1.68080773 8.75503787,1.95574812 C9.31024807,2.34386439 9.60252702,2.75686752 9.62049498,3.18883204 C9.64505121,3.60479788 9.57557506,3.85840669 9.41805588,3.94728828 C9.04132749,4.24237515 8.74485602,4.37984535 8.51067351,4.35910631 C8.23396681,4.33540455 8.0500946,4.37095719 7.9590569,4.4628015 C7.77219004,4.60204932 7.56196481,4.65715591 7.3313759,4.6328616 C7.12654106,4.58842081 6.9378774,4.6328616 6.77736356,4.77210943 C6.63841127,4.88587786 6.52161948,4.94276208 6.42878498,4.94276208 C6.29043163,4.92024541 6.15387508,4.98720288 6.0113292,5.14659719 C5.82685806,5.37709678 5.72264385,5.56137795 5.70168122,5.69647796 C5.65376664,5.9518644 5.56332787,6.11125872 5.42257879,6.17880872 C5.26086708,6.317464 5.13329451,6.52366929 5.03806428,6.79564696 C4.92546502,7.09488164 4.82184974,7.2548685 4.72781737,7.27738517 C4.56730353,7.39411633 4.43973096,7.72475584 4.34929218,8.27285898 C4.04383673,8.89443757 3.96537661,9.34832622 4.10432889,9.64519069 C4.3606719,10.0374548 4.56730353,10.2780277 4.72781737,10.3722421 C4.89012801,10.4131277 4.98056678,10.4842329 5.00931553,10.5719294 C5.07519808,10.754433 5.25068523,10.8610909 5.5285898,10.8812374 C5.77714669,10.9079019 5.94305092,10.9511576 6.0113292,11.0198927 C6.33535155,11.1810646 6.60487107,11.1472896 6.81090376,10.91679 C6.99417703,10.7336939 7.17205991,10.6282211 7.3313759,10.6092597 C7.5877189,10.5849654 7.75781566,10.4261636 7.85124909,10.1298917 C7.92431883,9.96753459 7.99918536,9.85672889 8.09501452,9.78503109 C8.32919704,9.64519069 8.48551836,9.40461789 8.58194645,9.0621275 C8.67178629,8.81207396 8.76521972,8.64142131 8.86104888,8.54483665 C9.02096379,8.36588838 9.06947731,8.19523573 8.99401184,8.03110106 C8.9784396,7.85037516 8.74485602,7.64772513 8.30344295,7.41426282 C8.11777395,7.30108693 8.1057953,7.05873646 8.26930381,6.69195177 C8.38669453,6.46382236 8.59152937,6.3524241 8.89399016,6.3524241 C9.05390507,6.32516708 9.20603386,6.27302321 9.34378828,6.17880872 C9.50789572,6.06326266 9.69116899,6.05378195 9.90139421,6.14147846 C10.0391486,6.21317627 10.2266144,6.25050654 10.4560055,6.25050654 C11.1040502,6.29672497 11.6376988,6.59240439 12.0539567,7.14050753 C12.3067062,7.48299792 12.3869631,7.72475584 12.2947275,7.86281858 C12.1773368,8.04472957 12.1887165,8.28470986 12.3312624,8.58275946 C12.4187065,8.8571073 12.4187065,9.13145514 12.3312624,9.40461789 C12.1455934,9.81762099 11.9359671,10.0374548 11.706576,10.0558237 C11.1274085,10.2436601 10.6853965,10.4842329 10.3859304,10.7822825 C10.1751063,10.963601 10.062507,11.159733 10.0391486,11.3623831 C9.97386502,11.4779291 9.92475257,11.6053261 9.90139421,11.7398335 C9.90139421,11.8109388 9.91277393,11.8553796 9.93733015,11.8802664 C9.98404686,12.1083959 10.0121967,12.394002 10.0391486,12.7364924 C10.062507,12.7637495 10.0846675,12.7827109 10.1098226,12.8070052 C10.1751063,12.9450679 10.2595557,13.0220986 10.3505934,13.0481705 C10.5823802,13.135867 10.7422951,13.3231109 10.8387232,13.5950886 C10.9273652,13.8249956 11.0597292,14.018165 11.2196441,14.1787444 C11.380158,14.2717738 11.5119231,14.4667207 11.6017629,14.7653629 C11.7880308,15.2476936 11.892245,15.6678073 11.9114109,16.0310367 C11.9581276,16.5151451 12.0294005,16.8683013 12.1216361,17.0976158 C12.2384279,17.4211448 12.2851446,17.6931224 12.263583,17.9230295 C12.2384279,18.4249142 12.0839034,18.8497682 11.8053999,19.1928511 C11.6221266,19.3759472 11.4244789,19.5157876 11.2196441,19.6076319 C11.1040502,19.7445095 10.9273652,19.8896828 10.6955784,20.0520398 C10.2595557,20.3252026 9.88881664,20.6475465 9.59054837,21.0125535 C9.14434384,21.53814 8.51067351,21.8355971 7.68175127,21.9049247 C7.35293746,21.9049247 7.04748201,21.9535133 6.74262549,22.0406173 C6.34493447,22.1360168 5.97479433,22.0779475 5.63160615,21.8717422 C5.16863151,21.6193185 4.72781737,21.5049575 4.31455411,21.5298444 C3.64135426,21.5742852 2.99091382,21.3455632 2.3722168,20.8413083 C1.81041834,19.9471595 1.54509135,19.3161003 1.57264224,18.9534634 M7.64222174,13.5275386 C7.62066018,13.5275386 7.61047833,13.539982 7.61047833,13.5648688 C7.42540826,13.7201154 7.14510796,13.8113671 6.77736356,13.8368465 C6.45034654,13.8830649 6.24551171,14.0543101 6.15387508,14.3517672 C5.96341462,14.787287 5.65376664,15.1404432 5.2147493,15.414791 C4.91168957,15.5990722 4.75357146,15.826609 4.72781737,16.102142 C4.68110066,16.4920359 4.54154944,16.7894929 4.31455411,16.9968833 C4.01209332,17.2718237 3.87134424,17.5224698 3.89230687,17.7541544 C3.98873497,18.1624172 4.20554844,18.549941 4.55592381,18.9161331 C4.81106896,19.0547884 5.07519808,19.124116 5.35609731,19.124116 C5.70168122,19.1484103 5.94305092,19.2023318 6.08619573,19.2971388 C6.31319106,19.4340433 6.5108387,19.468384 6.66955575,19.3996489 C6.99417703,19.2823253 7.23973926,19.2604011 7.39665951,19.3285437 C7.65240359,19.3759472 7.99259711,19.3161003 8.40586037,19.1590761 C8.82271722,18.9718322 9.17369152,18.7016322 9.44680463,18.3330699 L9.44680463,18.2655199 C9.44680463,17.856072 9.49352135,17.5343207 9.59054837,17.3008583 C9.70554336,17.0069566 9.74926542,16.6401719 9.72770386,16.2052446 C9.67859141,15.7940191 9.57557506,15.509598 9.41805588,15.3466485 C9.3683445,15.2761357 9.31024807,15.1404432 9.23957407,14.935423 C9.14434384,14.6835918 9.02096379,14.4762014 8.86104888,14.3191773 C8.76521972,14.227333 8.71131582,14.1455619 8.68675959,14.0774194 C8.66160444,14.0057215 8.61548666,13.9358014 8.54720838,13.8712141 C8.2914643,13.7331513 7.99259711,13.6181978 7.64222174,13.5275386 M18.8919663,8.51283927 C19.0069613,8.44291909 19.0968012,8.34100153 19.1674752,8.20530897 C19.1908335,8.02043527 19.4453797,7.94221947 19.9275202,7.96651377 C20.273703,7.98488263 20.5695756,8.11168703 20.7965709,8.34100153 C21.0301545,8.68763973 21.1792886,9.02835249 21.2511605,9.37143543 C21.2936847,9.53142229 21.3517811,9.68311349 21.4242519,9.81762099 C21.4458135,9.93138949 21.4458135,10.0688596 21.4242519,10.2312167 C21.4931291,10.5511904 21.5350544,10.7935409 21.5608085,10.9511576 C21.5853647,11.1366238 21.5500277,11.375419 21.4565943,11.6722835 C21.2936847,12.0633625 21.0990317,12.2914919 20.8690417,12.3608196 C20.6570197,12.4556266 20.380313,12.3246744 20.0359269,11.9809989 C19.5471982,11.6628028 19.2722883,11.3280155 19.2010154,10.9861177 C18.9704265,10.4593461 18.8440518,10.0937465 18.8188966,9.88694869 C18.8188966,9.75184859 18.7865543,9.49705474 18.7140835,9.13145514 C18.7404365,8.74215377 18.7967361,8.53594849 18.8919663,8.51283927 M23.5726219,24.2721377 C23.757692,24.2306596 24.0601528,24.1968846 24.4788064,24.1731829 C24.8705081,24.1488886 25.1472148,24.0914118 25.3101244,23.998975 C25.7760937,23.8425434 26.2456566,23.8970574 26.7325885,24.1731829 C27.126087,24.3787956 27.356077,24.7224711 27.4243553,25.2012466 C27.4507083,25.7286107 27.293788,26.0959879 26.940418,26.3045634 C26.5037964,26.575356 25.888094,26.6660152 25.101696,26.575356 C24.8705081,26.5309152 24.7411388,26.5172867 24.7201761,26.5403959 C24.5776303,26.56232 24.4302929,26.575356 24.2679823,26.575356 C24.0829122,26.575356 23.9241952,26.6085384 23.784045,26.6808288 C23.368985,26.8171139 22.8461171,26.8046705 22.2226286,26.6434985 C21.8980073,26.4372932 21.7219212,26.1510945 21.7003597,25.7884576 C21.7219212,25.5330712 21.8153547,25.2575383 21.9770664,24.9612663 C22.2340083,24.6424777 22.5436563,24.4700474 22.9143954,24.4463456 C23.1905031,24.4024974 23.4121081,24.3426504 23.5726219,24.2721377 M31.9055664,27.5708298 C32.0205614,28.1432272 32.0295454,28.6000786 31.9379088,28.9467168 C31.8223148,29.1967703 31.7540366,29.3994203 31.7300793,29.5659252 C31.634849,29.8159787 31.5456081,29.9860388 31.4539715,30.0772906 C31.1095855,30.3777104 30.7088998,30.5222911 30.2752728,30.5222911 C29.8799775,30.5015521 29.5457733,30.3071977 29.2684677,29.9392279 C28.9684026,29.4592673 28.8264557,29.071151 28.8510119,28.774879 C28.8719745,28.4975685 28.8390333,28.261736 28.7461988,28.0537531 C28.6761237,27.8682868 28.6761237,27.6768951 28.7461988,27.4677271 C28.8156749,27.2188587 28.8156749,26.953399 28.7461988,26.6808288 C28.558134,25.9911077 28.5018344,25.4767795 28.5725084,25.1325115 C28.6898991,24.1026701 28.6599525,23.0953455 28.5018344,22.1117225 C28.4778771,21.8355971 28.4778771,21.584951 28.5018344,21.3556365 C28.5263906,21.1020277 28.5263906,20.7251697 28.5018344,20.2238776 C28.4557166,19.6260007 28.4778771,19.1590761 28.5725084,18.8148081 C28.6898991,18.3597343 28.7072682,17.8815514 28.6419846,17.3737412 C28.5725084,17.0976158 28.5263906,16.7533477 28.5018344,16.3409372 C28.292807,16.1169556 28.107138,15.9534134 27.9490199,15.8651244 C27.6687196,15.5866287 27.4608901,15.4029401 27.3243336,15.3122809 C27.2794137,15.2868015 27.2183226,15.2636923 27.1506432,15.2476936 C26.4301277,15.0379331 25.7138047,15.0017879 24.9968828,15.1404432 C24.6938231,15.212141 24.4302929,15.2476936 24.2026987,15.2476936 C23.9439599,15.2868015 23.7708685,15.3466485 23.6792319,15.414791 C23.5426753,15.4621945 23.4234878,15.529152 23.3318512,15.6245516 C23.3576052,15.6678073 23.368985,15.7015823 23.368985,15.725284 C23.368985,15.9788928 23.3755732,16.2490929 23.4049209,16.5512903 C23.4234878,16.7326087 23.4049209,16.9014837 23.3318512,17.0656184 C23.306696,17.0875425 23.2971131,17.134946 23.2971131,17.2036811 C23.4827821,17.431218 23.6894137,17.6243873 23.9241952,17.7849667 C23.9439599,17.809261 23.9715108,17.8335553 23.9918745,17.856072 C24.2895438,17.8335553 24.6524968,17.856072 25.0675568,17.9230295 C25.507772,17.9455461 25.9012705,17.9455461 26.2456566,17.9230295 C26.6163957,17.9455461 26.9763539,18.0705729 27.3243336,18.2998874 C27.7172331,18.549941 27.9100893,18.9161331 27.9100893,19.3996489 C27.9406349,19.8090968 27.7076502,20.1296631 27.2183226,20.3607552 C26.6619145,20.5639978 26.0264474,20.5539245 25.3101244,20.3252026 C24.8022298,20.1901026 24.2679823,20.1693635 23.7127721,20.2594302 C23.2971131,20.371421 22.9060103,20.3856421 22.5346723,20.2914276 L22.4975385,20.2914276 C21.5500277,20.6096237 20.9037798,20.8893044 20.5546023,21.1162487 L20.5881425,21.1482461 C20.6570197,21.497847 20.5881425,21.9535133 20.380313,22.522948 C20.3377888,22.778927 20.3252112,22.9821696 20.3497674,23.142749 L20.3497674,23.8620973 C20.3497674,24.1400004 20.3940884,24.3787956 20.4833293,24.5820382 C20.5324418,24.7224711 20.5881425,24.835647 20.6570197,24.9251211 C20.9612773,25.1135501 21.0301545,25.3730843 20.8690417,25.7167598 C20.7276937,26.0592502 20.5054898,26.3045634 20.2060237,26.4372932 C20.0221515,26.4592174 19.8598409,26.4592174 19.7202896,26.4372932 C19.5813374,26.3904823 19.4094438,26.333598 19.2010154,26.2642704 C18.7140835,26.1279853 18.3583177,25.7072791 18.1271298,24.9985966 C17.940263,24.0594144 17.8833644,23.3009582 17.9522416,22.7291533 C18.0001562,22.455398 18.0336964,22.2136401 18.055258,22.0092124 L18.055258,21.7336795 C18.0133327,21.5742852 17.9522416,21.4457031 17.8833644,21.3556365 C17.8126904,21.2175737 17.7420164,21.1162487 17.6743371,21.0451434 C17.4653097,21.0451434 17.2814375,21.0362553 17.1167311,21.0125535 C16.9118963,20.8993776 16.737607,20.7986452 16.5974569,20.7062083 C16.5974569,20.7500566 16.6106334,20.8069408 16.6321949,20.8750833 C16.6321949,21.1707628 16.5854782,21.53814 16.4926437,21.9736598 C16.3327288,22.3404445 16.2638516,22.6610108 16.2848142,22.933581 C16.2638516,23.142749 16.2410922,23.3471766 16.2165359,23.5521968 C16.1488566,23.7151464 16.1243004,23.8970574 16.1488566,24.1026701 C16.1488566,24.3059127 16.1033377,24.5269316 16.0051128,24.7580237 C15.8901179,25.0057071 15.835615,25.2699817 15.835615,25.5466997 C15.835615,25.7072791 15.7900962,25.9371862 15.6930691,26.2316805 C15.3468863,27.0802034 15.1306718,27.7527408 15.0360405,28.261736 C14.925238,28.6000786 14.7227989,28.9206449 14.4454933,29.219287 C14.03223,29.5659252 13.6477155,29.7667976 13.3027305,29.8408656 C13.0020665,29.859827 12.6744506,29.7946472 12.3312624,29.6293274 C12.0294005,29.3994203 11.8287582,29.138701 11.7383194,28.8388738 C11.6700412,28.5431944 11.644886,28.2463299 11.6700412,27.9494653 C11.7658703,27.6502307 11.8527155,27.3895113 11.9473468,27.1584192 C12.1084596,26.9753231 12.3067062,26.7033455 12.537894,26.333598 C12.9301946,25.8773392 13.1308369,25.4992962 13.1308369,25.2012466 C13.1733611,24.951193 13.2470298,24.7811329 13.333276,24.6869185 C13.5429023,24.1595544 13.6956301,23.6878894 13.7896624,23.2802192 C13.9286147,22.9821696 13.9986898,22.7161173 13.9986898,22.4915432 C13.9986898,21.5742852 14.1843588,20.6919873 14.5485096,19.8470196 C14.7563391,19.3161003 14.7784996,18.8029572 14.6233761,18.2998874 C14.6694939,17.9099935 14.7024352,17.6380158 14.7227989,17.4750663 C14.8425853,17.134946 14.8863074,16.7894929 14.8617512,16.4446324 C14.7707135,15.87342 14.7563391,15.3466485 14.8312056,14.8649102 C14.8743287,14.4305755 14.8497725,13.5850153 14.7563391,12.3246744 C14.6910555,11.591105 14.5029907,11.0198927 14.2083161,10.6092597 C13.7896624,10.0137531 13.5686564,9.25885208 13.5429023,8.34100153 C13.4267095,7.40418958 13.5788383,6.54677851 13.9986898,5.7658056 C14.3879958,4.84914014 14.7563391,4.31466551 15.1067145,4.15171593 C15.6391652,3.87855318 16.1123217,3.88744134 16.5315743,4.18786111 C16.5058202,4.1647519 16.5058202,4.15171593 16.5315743,4.15171593 C16.622612,4.12623654 16.7849226,4.12623654 17.0149126,4.15171593 C17.1592553,4.15171593 17.3634912,4.14282777 17.6372033,4.11557075 C18.1732476,3.93306722 18.691923,3.88744134 19.2010154,3.98106328 C19.5717544,4.07112996 19.8598409,4.0865361 20.0718629,4.01661592 C20.5546023,3.78789396 20.9121648,3.70493781 21.1463473,3.77545054 C21.281706,3.79737466 21.4565943,3.76182202 21.6674184,3.67175535 C22.2226286,3.44362593 22.705368,3.39681496 23.1246206,3.53784042 C23.5582476,3.64983122 24.0062489,3.65990447 24.438079,3.56568998 C25.1597924,3.45310664 25.7760937,3.44362593 26.2815925,3.53784042 C26.6098074,3.58109613 26.8715408,3.59116937 27.081766,3.56568998 C27.3369112,3.56568998 27.5393503,3.63679525 27.7076502,3.77545054 C27.9609986,3.93306722 28.222732,4.00239486 28.5018344,3.98106328 C28.8719745,3.9597317 29.1702428,3.9935067 29.40742,4.0865361 C29.707485,4.24237515 29.902138,4.40473219 29.9943736,4.56294142 C30.1111654,4.81536514 30.3405564,5.02216297 30.6885361,5.18866781 C31.2671046,5.50567882 31.6606031,6.02000695 31.865438,6.73046712 C31.9666575,7.11502814 31.9666575,7.52921635 31.865438,7.96651377 C31.803149,8.26337828 31.6845604,8.47965681 31.5234476,8.61416429 C31.3587413,8.80200071 31.2671046,9.00583582 31.2425484,9.23692796 C31.2221847,9.48816659 31.1748691,9.66118939 31.1095855,9.75184859 C30.9909969,10.0214561 30.9676385,10.262029 31.0377136,10.4706044 C31.1095855,10.6762172 31.1095855,10.9268633 31.0377136,11.2284681 C30.8951677,12.0052932 30.8616275,12.8182635 30.9323015,13.6626386 C30.9323015,14.235036 30.8496489,14.7043308 30.6885361,15.0717081 C30.6202578,15.2761357 30.6328354,15.5635195 30.7280656,15.9279341 C30.7963439,16.2289464 30.7849642,16.5826951 30.6885361,16.9968833 C30.592108,17.3399662 30.592108,17.6931224 30.6885361,18.0622773 C30.8496489,18.9291691 30.8855848,19.6739968 30.7963439,20.2914276 C30.6531991,21.3455632 30.7011137,22.1212032 30.9323015,22.6266432 C31.3719178,23.9533491 31.6055014,25.0264461 31.6276619,25.8530449 C31.6773732,26.5172867 31.7666141,27.0896841 31.9055664,27.5708298 M21.0762723,17.7156391 C21.0762723,17.6498667 21.0846573,17.579354 21.1098125,17.511804 C21.1325719,17.2564175 21.1098125,17.0288807 21.0415342,16.8256381 L21.0415342,16.3776749 L21.0415342,15.9628941 C20.9714591,15.87342 20.8876086,15.8171283 20.7965709,15.7940191 C20.5444204,15.6328472 20.2395639,15.5149309 19.8927821,15.4497511 L19.8598409,15.4497511 C19.4675402,15.6565489 19.1578923,15.7709099 18.9261055,15.7940191 C18.6464041,15.8366823 18.3942536,15.8651244 18.1630658,15.8651244 C18.0456751,15.9113428 17.9756,15.9397849 17.9522416,15.9628941 C17.6947007,16.1246586 17.5264008,16.2864231 17.4287748,16.4446324 C17.311983,16.560771 17.22394,16.6970561 17.1592553,16.8558578 C17.1299076,17.3138943 17.0754048,17.6812715 16.9795756,17.9579896 C16.8418212,18.2560392 16.7849226,18.5884563 16.8052863,18.9534634 C17.0610304,18.6565989 17.4084111,18.4610594 17.8474285,18.3662523 C18.2205633,18.2323374 18.5206283,18.1760457 18.7500194,18.1985624 C19.0069613,18.2655199 19.2722883,18.2655199 19.5471982,18.1985624 C19.8047391,18.1286422 20.0473067,18.1286422 20.273703,18.1985624 L20.3497674,18.1985624 C20.6695973,18.0148738 20.9121648,17.856072 21.0762723,17.7156391 M28.292807,12.8751477 C28.4365508,12.7364924 28.5509468,12.5984297 28.6419846,12.461552 L28.6419846,11.9809989 C28.6216209,11.4779291 28.6539632,11.0418168 28.7461988,10.6762172 C28.8156749,10.2869158 28.8390333,9.70207499 28.8156749,8.92762003 C28.7461988,8.28470986 28.4557166,7.67735233 27.9490199,7.10791761 C26.6768878,6.0099337 25.6113873,5.6052262 24.7537163,5.90268325 C24.2895438,6.04015344 23.6792319,6.03067274 22.9143954,5.86950079 C21.9219646,5.64018629 20.9612773,5.74388148 20.0359269,6.17880872 C19.5909203,6.36249734 19.2722883,6.44426841 19.063261,6.42115919 C18.8554315,6.3956798 18.6703614,6.3956798 18.5074518,6.42115919 C18.4158152,6.44426841 18.3583177,6.46382236 18.3325636,6.4887092 C17.5437698,6.80986801 17.0041319,7.0848084 16.7034679,7.31293781 C16.6801095,7.35856369 16.6555533,7.42848388 16.6321949,7.52032819 C16.2410922,8.29596819 16.0536264,8.83340554 16.0811772,9.13145514 C16.1901829,9.86502449 16.2638516,10.3752049 16.2848142,10.6762172 C16.2410922,11.3860848 16.3584829,11.9608524 16.6321949,12.394002 L16.6321949,12.461552 L16.7034679,12.5000674 C17.1167311,12.8407802 17.4766894,13.1157205 17.7797491,13.3231109 C17.8216744,13.3657741 17.8600061,13.4019193 17.8833644,13.4232508 C18.1816327,13.3331842 18.4499543,13.2958539 18.6787464,13.3231109 C19.0069613,13.3906609 19.3525452,13.3906609 19.7202896,13.3231109 C20.0221515,13.2277114 20.3252112,13.2211934 20.6246774,13.2869657 C20.9978121,13.3331842 21.2936847,13.277485 21.5242736,13.1157205 C21.7788198,13.0220986 22.1950777,12.9924714 22.7778388,13.0132104 L22.8095822,13.0132104 C23.0407701,12.8751477 23.2066743,12.7637495 23.2971131,12.6683499 C23.368985,12.5782832 23.4432526,12.4852538 23.5426753,12.394002 C23.5582476,12.2346077 23.6199376,12.1083959 23.7127721,12.0189217 C23.8074034,11.8553796 23.8864624,11.6272502 23.9553396,11.3280155 C23.9553396,11.1212177 23.9241952,10.8373891 23.8529222,10.4706044 C23.8289649,10.1974417 23.8289649,9.97760789 23.8529222,9.81762099 C24.0391902,9.40461789 24.1410086,9.0621275 24.1679606,8.79074238 C24.1679606,8.26337828 24.3727954,7.85037516 24.7914491,7.54936284 C25.2532258,7.18613341 25.6197724,7.03977506 25.9012705,7.10791761 C26.1564157,7.17191235 26.3618494,7.35856369 26.524759,7.65424312 C26.711027,8.04472957 26.7906849,8.47965681 26.7685245,8.96020994 C26.7032408,9.32580955 26.6163957,9.66118939 26.524759,9.95627629 C26.3864057,10.2780277 26.2043303,10.5719294 25.9695488,10.8474624 C25.7138047,11.1472896 25.5766493,11.5804392 25.5550877,12.1540217 C25.5269379,12.2683827 25.507772,12.394002 25.4832158,12.5285095 C25.5550877,12.5984297 25.6197724,12.6819784 25.6922432,12.7756003 C25.7138047,12.7756003 25.738361,12.8070052 25.7629172,12.8751477 C26.064779,12.852631 26.4301277,12.8751477 26.8715408,12.9450679 C27.293788,12.9924714 27.6687196,13.0031372 28.0196939,12.9752876 C28.0628171,12.9752876 28.0939615,12.9924714 28.1239081,13.0132104 C28.1664323,12.9450679 28.1909886,12.9118854 28.1909886,12.9118854 C28.1909886,12.9118854 28.222732,12.8982569 28.292807,12.8751477" id="Fill-1" fill="#C1292E" fill-rule="nonzero"/>
                <g transform="translate(39.018024, 0.000000)" id="Fill-3-Clipped">
                    <mask id="mask-6" fill="white">
                        <use xlink:href="#path-5"/>
                    </mask>
                    <g id="path-2"/>
                    <path d="M12.2757036,5.5376985 C13.1437036,5.3534022 14.0057461,5.34036516 14.860044,5.49917998 C15.5266823,5.68584665 16.1122993,5.70895776 16.6186823,5.5691059 C17.2406397,5.40792072 17.7583419,5.44525405 18.1765546,5.67399479 C18.5882142,5.96851331 18.8068525,6.37206887 18.828895,6.87577257 C18.7341716,7.35399479 18.5423419,7.6734022 18.2402993,7.83932813 C17.8292355,8.02066146 17.4342568,8.03132813 17.0660865,7.87251331 C16.3559589,7.68643924 15.7238738,7.6734022 15.1710227,7.83932813 C14.5043844,8.08821702 13.8812355,8.10066146 13.3045546,7.87251331 C12.7314482,7.73503183 11.9575759,7.77829109 10.996044,8.00703183 C10.2781716,8.23755035 9.6693206,8.23755035 9.16472486,8.00703183 C8.7959589,7.70955035 8.6225972,7.34392072 8.64642698,6.91132813 C8.69408656,6.49355035 8.86149081,6.14273553 9.16472486,5.84643924 C9.4625972,5.54362442 9.86472486,5.47666146 10.3722993,5.63725405 C10.8542568,5.79725405 11.4845546,5.76288368 12.2757036,5.5376985 M7.71408656,3.30303183 C7.04446954,3.12051331 6.70846954,2.77858739 6.70846954,2.27429109 C6.6905972,1.76999479 6.86157592,1.38066146 7.22438443,1.1056985 C7.66821422,0.740068869 8.20617166,0.545105899 8.8465972,0.522587389 C9.2439589,0.500068867 9.65680996,0.441994793 10.0899163,0.351920719 C10.6922142,0.122587385 11.3713631,0.005254052 12.1321291,0.005254052 C13.0817461,-0.014301504 13.8234482,0.020661459 14.3786823,0.111328126 C15.0876185,0.294439237 15.8412355,0.340068867 16.6186823,0.247624422 C17.8161291,0.085846645 18.8759589,0.225105904 19.7934057,0.657698499 C20.0269376,0.820661459 20.3605546,0.886439239 20.7948525,0.866291089 C21.2833631,0.886439239 21.7772355,1.1056985 22.282427,1.51636516 C22.8567248,1.86184665 23.1557887,2.1694022 23.1825972,2.44555035 C23.206427,2.71932813 23.3273631,2.96051331 23.5591078,3.16673553 C23.8599589,3.48555035 23.9987674,4.07162442 23.9725546,4.91903183 C24.0446397,5.32851331 24.1447248,5.68584665 24.2859163,5.9851059 C24.4717887,6.28080961 24.5641291,6.74836516 24.5641291,7.38777257 L24.5641291,9.44999479 C24.5391078,10.41118 24.3115333,11.1086615 23.8671078,11.5430318 C23.5227674,12.072217 22.9633631,12.4858467 22.1781716,12.7839207 C21.6259163,13.1033281 20.9014908,13.2171059 19.9995333,13.1240689 C19.3829376,13.0808096 18.8503419,13.1033281 18.4130653,13.1916244 C17.907278,13.3759207 17.4342568,13.3960689 16.9945972,13.2639207 C16.5853206,13.0808096 16.1593631,13.0547355 15.7238738,13.1916244 C15.2157036,13.4476244 14.7474482,13.4695504 14.3083844,13.2639207 C13.984895,13.1240689 13.6381716,13.1033281 13.2694057,13.1916244 C13.1538312,13.6046615 12.9941716,13.9928096 12.788044,14.3596244 C12.5807248,14.6819948 12.2757036,14.9913281 11.8598738,15.2858467 C11.6489802,15.4505874 11.4654908,15.6425874 11.3022568,15.8736985 C11.1461716,16.2174022 10.9215759,16.4325133 10.6493206,16.5243652 C10.3288099,16.638143 10.0500014,16.8094022 9.81885252,17.0375504 C9.42804401,17.4505874 8.98004401,17.7374022 8.47127805,17.89918 C8.08046954,18.0811059 7.70217166,18.2855504 7.33221422,18.5154763 C7.00872486,18.7691059 6.52915039,18.9083652 5.88336315,18.9279207 C5.33110783,18.952217 4.84498018,19.1003652 4.43272486,19.374143 C3.99187379,19.5768096 3.65885252,19.6716244 3.43187379,19.6526615 C3.15723549,19.6277726 2.93800145,19.6526615 2.77476741,19.7172541 C2.22846954,19.9240689 1.66072486,19.9448096 1.08225677,19.78718 C0.623533364,19.6526615 0.384639747,19.4997726 0.360214215,19.3439207 C0.337575917,19.1584392 0.280384428,19.0559207 0.186852513,19.0292541 C0.0980865548,18.9628837 0.0361291083,18.8147355 0.0093205977,18.5836244 C-0.0311900406,18.2168096 0.0599588955,17.89918 0.290512087,17.6224392 C0.497235491,17.416217 0.80761847,17.2455504 1.22404401,17.1068837 C1.66072486,16.9913281 2.09740571,16.9818467 2.53408656,17.0754763 C2.8319589,17.1430318 3.20429932,17.1774022 3.64098018,17.1774022 C4.07587379,17.1317726 4.47978869,17.0079207 4.84498018,16.8011059 C5.19527805,16.5243652 5.57953337,16.3768096 6.01978869,16.3536985 C6.46063975,16.286143 6.84846954,16.1000689 7.19400145,15.8008096 C7.51749081,15.5542911 7.86063975,15.3889578 8.22821422,15.3214022 C8.75902273,15.0707355 9.19570358,14.7394763 9.54421422,14.3252541 C9.68123549,14.0526615 9.81885252,13.8357726 9.96123549,13.6692541 C9.38038443,13.4908837 8.83944826,13.5163652 8.33187379,13.7397726 C7.9893206,13.8808096 7.43766103,13.8357726 6.67629932,13.6046615 C5.87085252,13.3960689 5.39187379,13.1092541 5.22744826,12.7454022 C5.1559589,12.3797726 4.90157592,12.0449578 4.46787379,11.752217 C4.12472486,11.5430318 3.98472486,11.086143 4.05263975,10.3774022 C4.03119294,9.30066146 3.97340571,8.41947628 3.87987379,7.73503183 C3.76608656,7.32258739 3.75655464,6.91132813 3.84829932,6.49355035 C3.88940571,6.22155035 3.90251209,5.93888368 3.87987379,5.63725405 C3.85663975,5.02095776 3.96029932,4.46984665 4.19323549,3.99221702 C4.35051209,3.64792072 4.5506823,3.39429109 4.77527805,3.23429109 C4.98915039,3.07073553 5.20421422,2.98421702 5.43715039,2.96051331 C5.70880996,3.00555035 5.95485252,3.07073553 6.15978869,3.16673553 C6.36472486,3.34925405 6.51723549,3.61177257 6.61136315,3.96080961 C6.76863975,4.37029109 6.80438443,5.02984665 6.70846954,5.95014294 C6.54702273,7.04643924 6.51723549,7.88080961 6.61136315,8.4574022 C6.74719294,9.18806887 6.92889507,9.69888369 7.16004401,10.0011059 C7.43766103,10.4757726 7.86063975,10.7987355 8.44208656,10.9640689 C9.28744826,11.214143 10.2334908,11.1886615 11.2682993,10.8947355 C12.6027674,10.504217 13.9092355,10.462143 15.1710227,10.7554763 C15.9740865,10.9403652 16.6895759,10.9142911 17.3115333,10.6843652 C17.9340865,10.504217 18.6287248,10.4224392 19.4162993,10.4467355 C20.0787674,10.5368096 20.5988525,10.3649578 20.9682142,9.92999479 C21.269661,9.69888369 21.5228525,9.27577257 21.7295759,8.66125405 C21.8201291,7.97325405 21.7641291,7.3776985 21.5591929,6.87577257 C21.3935759,6.41473553 21.3143419,6.00288368 21.3143419,5.63725405 C21.2940865,5.38955035 21.2362993,5.12288368 21.1463419,4.84673553 C20.8675333,4.50599479 20.7168099,4.26421702 20.6905972,4.13206887 C20.5988525,3.85414294 20.4743419,3.66925405 20.315278,3.57621702 C20.0650653,3.48555035 19.8565546,3.37058739 19.6921291,3.23429109 C19.4615759,2.93799479 18.4130653,2.74243924 16.5501716,2.64821702 C15.2603844,2.67429109 14.1892355,2.63814294 13.3402993,2.54984665 C12.1887248,2.3211059 11.1193631,2.44555035 10.1292355,2.92436516 C9.29936315,3.31429109 8.49570358,3.43992072 7.71408656,3.30303183 M18.968895,31.2574022 C18.3957887,31.4849578 17.9585121,31.5673281 17.6522993,31.4950318 C17.2668525,31.3587355 16.955278,31.2787355 16.7205546,31.2574022 C16.2409802,31.1892541 15.9305972,31.0416985 15.7947674,30.808217 C15.700044,30.5563652 15.5505121,30.3205133 15.338427,30.0888096 C15.1317036,29.9056985 15.0220865,29.7030318 14.9988525,29.4683652 C14.9482142,29.2858467 14.860044,29.1205133 14.7206397,28.9563652 C14.4650653,28.6156244 14.3292355,28.2576985 14.3083844,27.8938467 C14.2815759,27.5033281 14.3786823,27.2360689 14.582427,27.0997726 C14.9053206,26.872217 15.3217461,26.8953281 15.8287248,27.1720689 C16.0551078,27.3036244 16.3202142,27.4891059 16.6186823,27.7208096 C16.7819163,27.8096985 16.9397887,27.8594763 17.1018312,27.8594763 C17.5414908,27.9928096 18.184895,27.9465874 19.0356185,27.7208096 C20.1389376,27.5116244 20.8431078,27.262143 21.1463419,26.9646615 C21.2565546,26.7815504 21.4150227,26.6772541 21.6259163,26.6553281 C22.107278,26.4473281 22.6345121,25.9910318 23.2147674,25.2793281 C23.4226823,24.9818467 23.6073631,24.7513281 23.7688099,24.5966615 C24.1810653,24.18718 24.5254057,23.5187355 24.8054057,22.6037726 C24.9882993,21.6419948 24.9757887,20.9557726 24.7619163,20.5445133 C24.5134908,19.8085133 24.0631078,19.1584392 23.4226823,18.5836244 C23.3071078,18.5154763 23.206427,18.4692541 23.1069376,18.4508837 C22.7882142,18.4692541 22.5463419,18.494143 22.3860865,18.5154763 C22.0393631,18.5836244 21.7641291,18.6298467 21.5591929,18.654143 C21.3286397,18.69918 21.1463419,18.734143 21.0015759,18.7548837 C20.8675333,18.734143 20.7519589,18.5059948 20.6625972,18.0698467 C20.5220014,17.61118 20.371278,17.2105874 20.2116185,16.8692541 C20.1162993,16.7305874 20.0650653,16.6274763 20.0370653,16.5575504 C19.920895,16.5113281 19.785661,16.4899948 19.6236185,16.4899948 C19.024895,16.3768096 18.609661,16.3667355 18.3773206,16.4574022 C17.9430227,16.5688096 17.606427,16.5954763 17.3830227,16.5243652 L17.3115333,16.5243652 C17.1983419,16.8692541 16.9225121,17.1774022 16.481661,17.4505874 C16.2266823,17.61118 16.0217461,17.8067355 15.8620865,18.0336985 C15.3997887,18.424217 14.9482142,18.7691059 14.516895,19.0654022 C14.1892355,19.2502911 13.9122142,19.4885133 13.6900014,19.78718 C13.1746823,20.2215504 12.7409802,20.5445133 12.3728099,20.74718 C12.1398738,20.8633281 11.9111078,21.0375504 11.6805546,21.2633281 C11.3362142,21.6070318 10.9805546,21.8790318 10.6171504,22.0894022 C10.3127248,22.2251059 10.0500014,22.42718 9.81885252,22.7104392 C9.58889507,22.9611059 9.21893762,23.1696985 8.71374613,23.3249578 C8.44208656,23.4369578 8.12812911,23.6686615 7.78378869,24.0123652 C7.48472486,24.1931059 7.00872486,24.4224392 6.36472486,24.7003652 C5.51519294,25.0896985 4.91646954,25.2793281 4.57212911,25.2793281 C4.38327805,25.2520689 4.07587379,25.3936985 3.64098018,25.6923652 C3.15723549,26.0135504 2.6693206,26.184217 2.18676741,26.2108837 C1.58863975,26.2553281 1.14004401,26.1753281 0.842767406,25.9685133 C0.428724853,25.7172541 0.174341874,25.3374022 0.0802142147,24.8372541 C0.0093205977,24.5142911 0.186852513,24.1474763 0.599107832,23.73918 C0.993490807,23.3694022 1.46174613,23.1768096 2.01638443,23.1519207 C3.00710783,23.0600689 3.68804401,22.8994763 4.05263975,22.6695504 C4.2825972,22.5332541 4.64898018,22.4212541 5.1559589,22.3276244 C6.3319589,21.9365133 7.09093762,21.5939948 7.43766103,21.2947355 C7.64676741,21.0683652 7.93272486,20.8840689 8.29910783,20.74718 C8.6225972,20.5877726 8.90080996,20.3916244 9.13076741,20.1628837 C9.56446954,19.8665874 9.93561847,19.6526615 10.2334908,19.5092541 C10.7410653,19.2135504 11.3517036,18.8479207 12.0636185,18.4135504 C12.6391078,18.0236244 13.037661,17.7492541 13.2694057,17.5904392 C13.4540865,17.3824392 13.6608099,17.2005133 13.8937461,17.0375504 C14.4001291,16.7637726 14.8701716,16.4574022 15.3068525,16.1148837 L15.2734908,16.0799207 C14.9482142,15.896217 14.7909376,15.5542911 14.7909376,15.048217 C14.8147674,14.5699948 15.0780865,14.2215504 15.5850653,14.0171059 C16.0878738,13.8588837 16.5638738,13.7907355 16.9945972,13.8102911 C17.4342568,13.8357726 17.907278,13.8944392 18.4130653,13.982143 C18.9438738,14.1628837 19.3477887,14.2091059 19.6236185,14.1196244 C19.8100865,14.0526615 20.0513631,14.0265874 20.348044,14.0526615 C20.6262568,14.1925133 20.9420014,14.2476244 21.3143419,14.2215504 C21.547278,14.1771059 21.8088099,14.2576985 22.107278,14.4597726 C22.6148525,14.8307355 23.1426823,15.1157726 23.6943419,15.3214022 C24.1810653,15.5270318 24.5057461,15.7800689 24.662427,16.0799207 C24.9882993,16.4443652 25.436895,16.8455504 26.0117887,17.2787355 C26.2631929,17.464217 26.4025972,17.7249578 26.424044,18.0698467 C26.5598738,18.3211059 26.734427,18.6654022 26.9447248,19.1003652 C27.172895,19.374143 27.2771504,19.6953281 27.2521291,20.0627355 C27.2968099,20.3371059 27.4058312,20.5788837 27.5660865,20.7815504 C27.6786823,20.9646615 27.6888099,21.1596244 27.597661,21.368217 C27.462427,21.6171059 27.4374057,21.9276244 27.5273631,22.2926615 C27.6888099,22.5445133 27.625661,23.0600689 27.320044,23.8428837 C27.2771504,24.0218467 27.2521291,24.2618467 27.2521291,24.5587355 C27.2521291,24.9492541 27.0299163,25.4873281 26.5962142,26.1753281 C26.0207248,26.862143 25.6281291,27.2153281 25.4214057,27.2360689 C25.2599589,27.3510318 25.1116185,27.5596244 24.9757887,27.8594763 C24.6290653,28.3134022 24.1030227,28.7619948 23.3851504,29.19518 C21.9613206,30.1563652 20.9914482,30.6867355 20.4838738,30.7744392 C20.0513631,30.8686615 19.5431929,31.0268837 18.968895,31.2574022 M9.64191635,25.9685133 C9.87902273,25.6923652 10.1727248,25.4760689 10.545661,25.3184392 C10.8858312,25.1572541 11.1997887,24.9379948 11.4762142,24.6618467 C11.9575759,24.318143 12.3507674,24.0686615 12.6492355,23.9074763 C13.1746823,23.5874763 13.8329802,23.1768096 14.6157887,22.6695504 C15.2419163,22.2144392 15.6887248,21.9051059 15.9663419,21.7439207 C16.1236185,21.4695504 16.339278,21.2532541 16.6186823,21.0902911 C17.2668525,20.7003652 17.8751078,20.2559207 18.4482142,19.7528096 C18.9105121,19.4304392 19.3132355,19.3172541 19.6551929,19.4067355 C20.1871929,19.5483652 20.4391929,19.8559207 20.4189376,20.3371059 C20.3265972,20.7898467 20.0269376,21.1732541 19.5193631,21.4695504 C19.2655759,21.630143 19.0356185,21.8588837 18.828895,22.15518 C18.3004695,22.5936985 17.8161291,22.9812541 17.3830227,23.3249578 C17.0118738,23.5056985 16.7151929,23.7818467 16.481661,24.1474763 C15.9514482,24.6517726 15.4718738,25.006143 15.0310227,25.2099948 C14.9202142,25.4393281 14.8469376,25.6923652 14.8266823,25.9685133 C14.7349376,26.3578467 14.6759589,26.5652541 14.6509376,26.58718 C14.4650653,26.5652541 14.2750227,26.5652541 14.0647248,26.58718 C13.9092355,26.6091059 13.6709376,26.6339948 13.3766397,26.6553281 C13.2854908,26.6553281 13.2241291,26.6654022 13.1997036,26.6896985 C13.1746823,26.6896985 13.1538312,26.6985874 13.1335759,26.7246615 C12.813661,26.9279207 12.5348525,27.1815504 12.3042993,27.4772541 C12.0761291,27.7065874 11.6698312,27.9365133 11.0967248,28.1646615 C10.7702568,28.3045133 10.4282993,28.5545874 10.0619163,28.9225874 C9.76046954,29.1507355 9.2546823,29.4126615 8.54217166,29.710143 C7.6026823,30.1688096 6.93842698,30.4105874 6.57502273,30.4295504 C6.36472486,30.4105874 6.01978869,30.568217 5.53604401,30.9136985 C4.98915039,31.2787355 4.45536315,31.4736985 3.95315039,31.4950318 C3.30676741,31.5673281 2.81289507,31.4950318 2.46617166,31.288217 C2.03008656,31.0179948 1.73578869,30.6049578 1.60353337,30.0585874 C1.53561847,29.6651059 1.71553337,29.2532541 2.15519294,28.814143 C2.56923549,28.4064392 3.08991635,28.1883652 3.71008656,28.1646615 C4.76634188,28.02718 5.50327805,27.8215504 5.92089507,27.5465874 C6.19493762,27.3664392 6.61136315,27.2259948 7.16004401,27.1376985 C8.44983124,26.6553281 9.27612911,26.2654022 9.64191635,25.9685133" id="Fill-3" fill="#C1292E" fill-rule="nonzero" mask="url(#mask-6)"/>
                </g>
                <polygon id="Fill-5" fill="#231916" fill-rule="nonzero" points="94 18.5222911 103.822054 18.5222911 103.822054 21.0883325 97.6892256 21.0883325 97.6892256 22.9935733 103.373744 22.9935733 103.373744 25.4331401 97.6892256 25.4331401 97.6892256 27.7984466 104 27.7984466 104 30.5222911 94 30.5222911"/>
                <polygon id="Fill-7" fill="#231916" fill-rule="nonzero" points="106 18.5222911 117 18.5222911 117 21.4758784 113.30333 21.4758784 113.30333 30.5222911 109.694972 30.5222911 109.694972 21.4758784 106 21.4758784"/>
                <path d="M138.153419,25.9483209 L139.457811,21.6336815 L140.758736,25.9483209 L138.153419,25.9483209 Z M142.134214,30.5222911 L146,30.5222911 L141.52045,18.5222911 L137.484751,18.5222911 L133,30.5222911 L136.777363,30.5222911 L137.370899,28.5456908 L141.536632,28.5456908 L142.134214,30.5222911 Z" id="Fill-9" fill="#231916" fill-rule="nonzero"/>
                <path d="M148,26.1482606 L151.555893,25.9198708 C151.632673,26.5139274 151.793265,26.9707071 152.023018,27.2823135 C152.409847,27.7882943 152.959612,28.0452329 153.67759,28.0452329 C154.215047,28.0452329 154.623561,27.9122079 154.918958,27.6552693 C155.212596,27.3946862 155.351503,27.0921911 155.351503,26.7459618 C155.351503,26.4252441 155.216699,26.1355048 154.94416,25.8761365 C154.666933,25.6167683 154.029252,25.3768374 153.032875,25.1478401 C151.387095,24.7663804 150.217818,24.2561477 149.52094,23.6244311 C148.811754,22.9890699 148.459506,22.1812015 148.459506,21.1965739 C148.459506,20.5508866 148.636509,19.9458964 148.999307,19.3682401 C149.36152,18.7930135 149.907182,18.3435228 150.626332,18.0143012 C151.353687,17.685687 152.352994,17.5222911 153.61136,17.5222911 C155.15926,17.5222911 156.339674,17.8193194 157.153772,18.4164131 C157.967871,19.0135069 158.450821,19.9659412 158.605552,21.2633901 L155.077792,21.4790241 C154.989876,20.9135162 154.793532,20.502293 154.48993,20.2496063 C154.188086,19.9890232 153.769022,19.8632873 153.240356,19.8632873 C152.807811,19.8632873 152.478421,19.959867 152.251012,20.1499894 C152.032396,20.3407193 151.922208,20.5745759 151.922208,20.8479149 C151.922208,21.047756 152.011296,21.2281597 152.204124,21.389126 C152.37468,21.5525219 152.790814,21.7061991 153.456628,21.8489428 C155.091858,22.2146096 156.26055,22.5845283 156.971494,22.9593063 C157.677749,23.3352992 158.191763,23.799368 158.520567,24.3533349 C158.836477,24.9073018 159,25.5256553 159,26.2132546 C159,27.0199081 158.786658,27.7633901 158.357044,28.4430929 C157.929188,29.1227957 157.327259,29.6409249 156.553602,29.992621 C155.781117,30.3418874 154.807598,30.5222911 153.631873,30.5222911 C151.576407,30.5222911 150.145727,30.1080308 149.352728,29.2886213 C148.553282,28.4631377 148.104913,27.4183756 148,26.1482606" id="Fill-11" fill="#231916" fill-rule="nonzero"/>
                <g transform="translate(160.558684, 17.800255)" id="Fill-13-Clipped">
                    <mask id="mask-8" fill="white">
                        <use xlink:href="#path-7"/>
                    </mask>
                    <g id="path-4"/>
                    <polygon id="Fill-13" fill="#231916" fill-rule="nonzero" mask="url(#mask-8)" points="-1.11022302e-16 5.55111512e-17 9.90231579 5.55111512e-17 9.90231579 2.61359091 3.71857895 2.61359091 3.71857895 4.55413636 9.45189469 4.55413636 9.45189469 7.03890909 3.71857895 7.03890909 3.71857895 9.44804545 10.0783158 9.44804545 10.0783158 12.2223637 -1.11022302e-16 12.2223637"/>
                </g>
                <polygon id="Fill-15" fill="#231916" fill-rule="nonzero" points="78 14.5222911 81.6252661 14.5222911 86.3525905 23.3937481 86.3525905 14.5222911 90 14.5222911 90 30.5222911 86.3525905 30.5222911 81.6451384 21.6925071 81.6451384 30.5222911 78 30.5222911"/>
                <polygon id="Fill-17" fill="#231916" fill-rule="nonzero" points="120 14.5222911 130.800677 14.5222911 130.800677 17.9474481 124.058017 17.9474481 124.058017 20.4839887 130.31213 20.4839887 130.31213 23.7375508 124.058017 23.7375508 124.058017 26.891833 131 26.891833 131 30.5222911 120 30.5222911"/>
            </g>
        </g>
    </g>
</svg>