<svg xmlns="http://www.w3.org/2000/svg" xml:space="preserve" id="Layer_1" x="0" y="0" style="enable-background:new 0 0 612 545" version="1.1" viewBox="0 0 612 545"><style>.st0{fill:#32325d}</style><path d="M425.28 284.25h-78.07l-43.34-61.48c-1.87-2.65-5.05-3.62-7.88-2.2-1.86.93-3.2 2.88-3.79 5.12l-17.79 68.21-26.63-262.04c-.42-4.12-3.31-7.01-6.9-6.85-3.58.15-6.29 3.27-6.44 7.42l-18.07 476.18-16.39-236.74c-.24-3.4-2.24-6.12-5.1-6.92-2.86-.8-5.72.55-7.27 3.46l-15.97 29.89-17.67-34.9c-1.21-2.38-3.37-3.83-5.8-3.83-1.82 0-3.56.94-4.85 2.44l-19.2 22.26H6.28v8.6h118.15c1.79 0 3.47-.81 4.74-2.27l18.89-21.9 17.8 35.16c1.2 2.37 3.33 3.8 5.7 3.83 2.36.03 4.53-1.34 5.77-3.67l15.44-28.9 17.14 247.68c.29 4.21 3.16 7.25 6.8 7.14 3.65-.08 6.41-3.2 6.57-7.42l18.19-479.31 26 255.73c.37 3.69 2.87 6.5 6.06 6.82 3.19.32 6.07-1.93 7-5.49L299 229.45l42.7 60.57c1.28 1.81 3.17 2.85 5.18 2.85h258.85v-8.6H425.28z" class="st0"/><text class="st0" style="font-size:255.6716px;font-family:'Quasimoda-SemiBold'" transform="matrix(1.1 0 0 1.05 334.222 276.04)">9</text></svg>