<?xml version="1.0" encoding="UTF-8"?>
<svg id="uuid-6a82bfd6-aae9-4ed8-97d1-586cc0047013" xmlns="http://www.w3.org/2000/svg" viewBox="0 0 429.54 82.83"><defs><style>.uuid-b39bc498-4659-4d9e-b74d-dafadb164f92{fill:#bd1e35;}.uuid-b39bc498-4659-4d9e-b74d-dafadb164f92,.uuid-474a257e-e4ca-4056-8904-dada4d3df391{stroke-width:0px;}.uuid-474a257e-e4ca-4056-8904-dada4d3df391{fill:#fff;}</style></defs><g id="uuid-c2b04cd0-25c8-4f10-a67d-24d7772f290c"><rect class="uuid-474a257e-e4ca-4056-8904-dada4d3df391" width="82.56" height="82.56"/><path class="uuid-b39bc498-4659-4d9e-b74d-dafadb164f92" d="m0,5.6h82.56V0H0v5.6Zm0,7h82.56v-5.6H0v5.6Zm0,7h82.56v-5.6H0v5.6Zm39.68,8.6l-1.64,4.16h3.28l-1.64-4.16Zm-17.19,10.53l-6.25-15.85h4.89l3.64,9.75,3.64-9.75h4.9l-6.25,15.85h-4.55Zm8.48,0l6.61-15.85h0s0,0,0,0h4.2,0s6.61,15.85,6.61,15.85h-4.55l-1.14-2.89h-6.03l-1.14,2.89h-4.55Zm18.34-15.85h4.21l6.47,8.28v-8.28h4.38v15.85h-3.91l-6.76-8.57v8.57h-4.38v-15.85ZM0,40.58h82.56v-5.59h-16.89v-1.4h16.89v-5.6h-16.89v-1.4h16.89v-5.6H0v5.6h16.29l.55,1.4H0v5.6h19.05l.55,1.4H0v5.59Zm30.04,11.17c0,2.43,1.83,4.41,4.08,4.41s4.08-1.97,4.08-4.41-1.83-4.41-4.08-4.41-4.08,1.97-4.08,4.41m-12.37-4.13h-3.57v3.87h3.57s1.71-.03,1.71-1.92-1.71-1.95-1.71-1.95m-7.95-3.71h7.99c3.34.01,6.17,2.03,6.17,5.66,0,2.92-1.88,4.1-3.06,4.87l3.5,5.32h-4.98l-3.09-4.79h-2.13v4.79h-4.39v-15.85Zm15.83,7.84c0-4.57,3.84-8.27,8.57-8.27s8.57,3.7,8.57,8.27-3.84,8.28-8.57,8.28-8.57-3.71-8.57-8.28m19.43-7.84h12.76v3.64h-8.3v2.32h7.54v3.64h-7.54v2.56h8.3v3.64h-12.76v-15.8Zm13.88.05h4.91l3.17,5.89,3.55-5.92h4.53l-5.85,9.72v6.03h-4.36v-5.99l-5.96-9.72ZM0,61.57h82.56v-5.6h-12.08v-1.4h12.08v-5.59h-9.04l.84-1.4h8.2v-5.59H0v5.59h8.4v1.4H0v5.59h8.4v1.4H0v5.6Zm0,7h82.56v-5.6H0v5.6Zm0,7h82.56v-5.6H0v5.6Zm82.56,1.4H0v5.6h82.56v-5.6Z"/><path class="uuid-474a257e-e4ca-4056-8904-dada4d3df391" d="m103.23,72.87h3.34c1.67,0,2.92.78,2.92,2.43,0,1.11-.68,1.81-1.66,2.14v.03c1.15.08,2.08,1.11,2.08,2.41,0,1.74-1.51,2.7-3.38,2.7h-3.3v-9.71Zm1.3,4.03h1.78c.99,0,1.79-.4,1.79-1.45,0-.77-.48-1.43-1.52-1.43h-2.05v2.88Zm0,4.53h1.91c.79,0,2.08-.28,2.08-1.65,0-1.15-.8-1.73-2.06-1.73h-1.93v3.37Z"/><path class="uuid-474a257e-e4ca-4056-8904-dada4d3df391" d="m111.52,77.73c0-2.88,2.08-5.1,5.01-5.1s5.01,2.22,5.01,5.1-2.08,5.1-5.01,5.1-5.01-2.22-5.01-5.1m8.64,0c0-2.13-1.43-3.87-3.62-3.87s-3.63,1.74-3.63,3.87,1.43,3.87,3.63,3.87,3.62-1.74,3.62-3.87"/><path class="uuid-474a257e-e4ca-4056-8904-dada4d3df391" d="m124.88,72.87v5.95c0,1.21.6,2.77,2.42,2.77s2.42-1.57,2.42-2.77v-5.95h1.3v6.16c0,2.25-1.62,3.8-3.72,3.8s-3.72-1.55-3.72-3.8v-6.16h1.3Z"/><polygon class="uuid-474a257e-e4ca-4056-8904-dada4d3df391" points="132.43 72.87 133.79 72.87 135.91 80.63 135.93 80.63 138.2 72.87 139.7 72.87 141.96 80.63 141.99 80.63 144.11 72.87 145.47 72.87 142.67 82.58 141.3 82.58 138.96 74.65 138.94 74.65 136.61 82.58 135.24 82.58 132.43 72.87"/><polygon class="uuid-474a257e-e4ca-4056-8904-dada4d3df391" points="147.05 72.87 153.26 72.87 153.26 74.11 148.36 74.11 148.36 77 152.92 77 152.92 78.23 148.36 78.23 148.36 81.35 153.5 81.35 153.5 82.58 147.05 82.58 147.05 72.87"/><polygon class="uuid-474a257e-e4ca-4056-8904-dada4d3df391" points="155.69 72.87 157.4 72.87 162.7 80.85 162.72 80.85 162.72 72.87 164.03 72.87 164.03 82.58 162.37 82.58 157.02 74.6 156.99 74.6 156.99 82.58 155.69 82.58 155.69 72.87"/><polygon class="uuid-474a257e-e4ca-4056-8904-dada4d3df391" points="170.86 72.87 172.8 72.87 175.85 80.22 175.91 80.22 178.93 72.87 180.88 72.87 180.88 82.58 179.57 82.58 179.57 74.6 179.55 74.6 176.3 82.58 175.43 82.58 172.19 74.6 172.16 74.6 172.16 82.58 170.86 82.58 170.86 72.87"/><polygon class="uuid-474a257e-e4ca-4056-8904-dada4d3df391" points="183.59 72.87 189.8 72.87 189.8 74.11 184.9 74.11 184.9 77 189.46 77 189.46 78.23 184.9 78.23 184.9 81.35 190.04 81.35 190.04 82.58 183.59 82.58 183.59 72.87"/><polygon class="uuid-474a257e-e4ca-4056-8904-dada4d3df391" points="194.24 74.11 191.14 74.11 191.14 72.87 198.64 72.87 198.64 74.11 195.54 74.11 195.54 82.58 194.24 82.58 194.24 74.11"/><polygon class="uuid-474a257e-e4ca-4056-8904-dada4d3df391" points="204.38 72.87 206.32 72.87 209.38 80.22 209.43 80.22 212.46 72.87 214.4 72.87 214.4 82.58 213.1 82.58 213.1 74.6 213.07 74.6 209.83 82.58 208.96 82.58 205.71 74.6 205.68 74.6 205.68 82.58 204.38 82.58 204.38 72.87"/><polygon class="uuid-474a257e-e4ca-4056-8904-dada4d3df391" points="217.12 72.87 223.32 72.87 223.32 74.11 218.42 74.11 218.42 77 222.98 77 222.98 78.23 218.42 78.23 218.42 81.35 223.57 81.35 223.57 82.58 217.12 82.58 217.12 72.87"/><polygon class="uuid-474a257e-e4ca-4056-8904-dada4d3df391" points="225.75 72.87 227.46 72.87 232.76 80.85 232.79 80.85 232.79 72.87 234.09 72.87 234.09 82.58 232.43 82.58 227.08 74.6 227.05 74.6 227.05 82.58 225.75 82.58 225.75 72.87"/><path class="uuid-474a257e-e4ca-4056-8904-dada4d3df391" d="m237.18,80.55c.46.71,1.26,1.04,2.04,1.04.86,0,1.92-.55,1.92-1.62,0-2.24-4.74-.85-4.74-4.64,0-1.14.95-2.72,3.26-2.72,1.05,0,2.05.22,2.77,1.11l-1.06.97c-.33-.51-.97-.85-1.71-.85-1.44,0-1.87.88-1.87,1.48,0,2.46,4.74.99,4.74,4.48,0,1.88-1.49,3-3.34,3-1.24,0-2.42-.42-3.07-1.34l1.07-.93Z"/><polygon class="uuid-474a257e-e4ca-4056-8904-dada4d3df391" points="244.79 72.87 250.99 72.87 250.99 74.11 246.09 74.11 246.09 77 250.65 77 250.65 78.23 246.09 78.23 246.09 81.35 251.24 81.35 251.24 82.58 244.79 82.58 244.79 72.87"/><polygon class="uuid-474a257e-e4ca-4056-8904-dada4d3df391" points="253.42 72.87 255.13 72.87 260.43 80.85 260.46 80.85 260.46 72.87 261.76 72.87 261.76 82.58 260.1 82.58 254.75 74.6 254.73 74.6 254.73 82.58 253.42 82.58 253.42 72.87"/><path class="uuid-474a257e-e4ca-4056-8904-dada4d3df391" d="m343.36,31.96c0-7.01,5.67-12.74,13.02-12.74s12.34,5.73,12.34,12.74-4.72,12.75-12.34,12.75-13.02-5.73-13.02-12.75m-3.64,28.26h4.05v-18.15h.13c2.5,4.32,7.82,6.27,12.48,6.27,9.57,0,16.39-6.88,16.39-16.39s-6.81-16.39-16.39-16.39c-4.65,0-9.98,1.95-12.48,6.27h-.13v-5.46h-4.05v43.84Zm-14.83-15.52c0,1.82,1.42,3.23,3.23,3.23s3.24-1.41,3.24-3.23-1.42-3.23-3.24-3.23-3.23,1.41-3.23,3.23"/><path class="uuid-474a257e-e4ca-4056-8904-dada4d3df391" d="m400.81,31.96c0-7.02,4.72-12.75,12.34-12.75s12.34,5.73,12.34,12.75-4.72,12.74-12.34,12.74-12.34-5.73-12.34-12.74m-4.05,0c0,9.51,6.81,16.38,16.39,16.38s16.39-6.88,16.39-16.38-6.81-16.39-16.39-16.39-16.39,6.88-16.39,16.39m-17.8,15.57h4.05v-16.99c0-6.07,3.17-10.92,10.18-10.92.41,0,.94.07,1.55.27l.47-3.98c-.81-.2-1.55-.33-2.36-.33-4.65,0-7.89,2.63-9.91,6.27-.13-.6-.2-3.17-.27-5.46h-4.05c0,1.62.34,6.47.34,8.77v22.38Z"/><path class="uuid-474a257e-e4ca-4056-8904-dada4d3df391" d="m316.71,16.37h-8.49V3.9h-5.92v12.47h-8.89v5.13h8.89v16.25c0,5,.13,10.59,9.28,10.59,1.18,0,3.95-.26,5.33-1.05v-5.4c-1.18.73-2.83.92-4.21.92-4.47,0-4.47-3.69-4.47-7.17v-14.15h8.49v-5.13Zm-22.37,0h-5.92v16.05c0,7.24-3.75,10.4-8.68,10.4-3.75,0-7.11-2.17-7.11-8.03v-18.42h-5.92v20.07c0,8.29,5.26,11.9,11.32,11.9,4.8,0,8.75-2.3,10.26-5.59h.13v4.8h5.92v-31.18Zm-64.93,15.59c0,9.08,7.3,16.38,16.58,16.38s16.58-7.3,16.58-16.38-7.3-16.38-16.58-16.38-16.58,7.3-16.58,16.38m6.32,0c0-6.32,3.95-10.85,10.26-10.85s10.26,4.54,10.26,10.85-3.95,10.86-10.26,10.86-10.26-4.54-10.26-10.86m-38.09,15.59h5.92v-16.05c0-7.24,3.75-10.4,8.68-10.4,3.75,0,7.11,2.17,7.11,8.02v18.42h5.92v-20.07c0-8.29-5.26-11.91-11.32-11.91-4.8,0-8.75,2.3-10.27,5.59h-.13V3.9h-5.92v43.65Zm-33.29,0h5.92v-16.05c0-7.24,3.75-10.4,8.68-10.4,3.75,0,7.11,2.17,7.11,8.02v18.42h5.92v-20.07c0-8.29-5.26-11.91-11.32-11.91-4.8,0-8.75,2.3-10.26,5.59h-.13v-4.8h-5.92v31.18Zm-10.86-15v1.98c0,4.21-2.3,9.08-8.88,9.08-4.08,0-6.71-1.51-6.71-5.07,0-5,6.84-5.99,12.43-5.99h3.16Zm-16.32-8.68c2.17-1.64,4.34-3.55,8.88-3.55,5.07,0,7.43,3.36,7.43,6.58v1.32h-4.34c-9.48,0-17.17,2.76-17.17,10.79,0,6.06,5,9.34,10.79,9.34,4.74,0,8.29-1.51,10.92-5.52h.13c0,1.58.07,3.16.2,4.73h5.26c-.2-1.64-.26-3.48-.26-5.66v-15.92c0-5.39-3.82-10.39-13.03-10.39-4.34,0-9.08,1.51-12.37,4.6l3.56,3.69Zm-24.34,23.68h6.51l12.24-31.18h-6.32l-8.95,23.88-9.34-23.88h-6.84l12.7,31.18Z"/></g></svg>