<?xml version="1.0" encoding="utf-8"?>
<!-- Generator: Adobe Illustrator 25.2.3, SVG Export Plug-In . SVG Version: 6.00 Build 0)  -->
<svg version="1.2" baseProfile="tiny-ps" xmlns="http://www.w3.org/2000/svg" viewBox="0 0 180 180">
  <title>Tastemade, Inc.</title>
<metadata>
	<sfw xmlns="http://ns.adobe.com/SaveForWeb/1.0/">
		<slices></slices>
		<sliceSourceBounds bottomLeftOrigin="true" height="180" width="180" x="0" y="0"></sliceSourceBounds>
	</sfw>
</metadata>
<rect width="180" height="180" />
<g>
	<path fill="#FFFFFF" d="M44.6,68.4V48.8c0-0.2,0.1-0.3,0.3-0.3h90c0.2,0,0.3,0.1,0.3,0.3v19.5c0,0.1-0.1,0.3-0.3,0.3h-90   C44.7,68.6,44.6,68.5,44.6,68.4z" />
	<path fill="#FFFFFF" d="M99.2,86.3c0,8.2-9.3,18.6-9.3,18.6s-9.3-10.4-9.3-18.6c0-5.3,4.1-10,9.3-10C95.1,76.2,99.2,81,99.2,86.3z" />
	<path fill="#FFFFFF" d="M102.8,130.6c0-11.3-12.9-25.8-12.9-25.8s-12.9,14.6-12.9,25.8c0,7.4,5.7,13.9,12.9,13.9   C97.1,144.5,102.8,138,102.8,130.6z" />
</g>
</svg>