<?xml version="1.0" ?>
<svg xmlns="http://www.w3.org/2000/svg" viewBox="0 0 18 18" fill="currentColor" aria-hidden="true" focusable="false" class="">
	<path d="M11.1196 17.6666H10.9965C10.9462 17.6395 10.8938 17.6164 10.8398 17.5978C8.28057 16.9127 5.72194 16.2301 3.16394 15.55C2.98993 15.5181 2.82861 15.4374 2.6988 15.3175C2.569 15.1975 2.47607 15.0431 2.43086 14.8724C1.74691 12.3133 1.06295 9.75367 0.378989 7.19337C0.323806 7.02546 0.318575 6.84519 0.36393 6.67437C0.409286 6.50356 0.503281 6.34953 0.634539 6.23093C2.50983 4.36934 4.38139 2.50155 6.24922 0.627555C6.36364 0.500087 6.51266 0.408492 6.67821 0.363882C6.84376 0.319273 7.01873 0.323566 7.18189 0.37624C9.71502 1.05386 12.2444 1.73706 14.7794 2.40165C14.9819 2.44137 15.1678 2.54057 15.3134 2.68652C15.459 2.83247 15.5576 3.0185 15.5964 3.22074C16.2605 5.73016 16.9345 8.2371 17.6185 10.7415C17.677 10.9193 17.6824 11.1103 17.634 11.2911C17.5857 11.4719 17.4856 11.6348 17.3461 11.7598C15.5815 13.5134 13.82 15.2708 12.0616 17.0318C11.7781 17.3018 11.5244 17.594 11.1196 17.6666ZM9.49118 9.56503C9.53035 9.90756 9.55087 10.2538 9.61242 10.5926C9.85678 11.9181 10.7111 12.7874 11.987 12.9568C13.5035 13.1579 14.6432 12.4728 15.1413 11.1269C15.4374 10.3036 15.5019 9.41516 15.3278 8.55791C15.0984 7.30506 14.328 6.26257 12.832 6.10248C11.5598 5.96844 10.4257 6.55298 9.90528 7.66248C9.63286 8.25993 9.49167 8.90863 9.49118 9.56503ZM7.57361 12.8284V6.26257H6.4544V12.8284H7.57361ZM3.72354 12.9866C3.84031 12.9931 3.95719 12.976 4.06713 12.9362C4.17707 12.8964 4.27779 12.8347 4.3632 12.755C4.44861 12.6753 4.51694 12.5791 4.56407 12.4723C4.6112 12.3655 4.63615 12.2502 4.63741 12.1335C4.63867 12.0168 4.61622 11.901 4.57141 11.7932C4.5266 11.6854 4.46036 11.5878 4.37669 11.5063C4.29303 11.4247 4.19367 11.3609 4.08462 11.3188C3.97556 11.2766 3.85908 11.2569 3.7422 11.2609C3.51954 11.2686 3.30842 11.3616 3.15275 11.5207C2.99709 11.6797 2.90887 11.8926 2.90647 12.1149C2.90407 12.3372 2.98766 12.5519 3.13985 12.7143C3.29204 12.8766 3.50111 12.9742 3.72354 12.9866ZM7.01027 3.07554C6.90477 3.068 6.79886 3.08294 6.69958 3.11936C6.6003 3.15579 6.50991 3.21286 6.43442 3.28679C6.35892 3.36073 6.30004 3.44984 6.26168 3.54822C6.22332 3.6466 6.20635 3.75199 6.21191 3.85741C6.20858 3.9611 6.22701 4.06434 6.266 4.16051C6.30499 4.25668 6.36368 4.34366 6.43832 4.41587C6.51296 4.48808 6.6019 4.54393 6.69943 4.57984C6.79696 4.61575 6.90093 4.63091 7.00468 4.62438C7.11001 4.63219 7.21581 4.61794 7.31528 4.58252C7.41476 4.54711 7.50572 4.49132 7.58231 4.41874C7.6589 4.34616 7.71943 4.25839 7.76001 4.16108C7.8006 4.06377 7.82034 3.95906 7.81797 3.85368C7.81991 3.74857 7.80013 3.64419 7.75986 3.54705C7.71959 3.44991 7.6597 3.36209 7.58391 3.28908C7.50813 3.21607 7.41807 3.15942 7.31938 3.12268C7.22068 3.08594 7.11546 3.06989 7.01027 3.07554Z" fill="#0172C0"/>
	<path d="M9.49121 9.56505C9.49069 8.91233 9.6293 8.26697 9.89786 7.67181C10.4183 6.55486 11.5524 5.97777 12.8246 6.11181C14.3168 6.2719 15.091 7.31439 15.3204 8.56724C15.4945 9.42449 15.43 10.313 15.1339 11.1362C14.6358 12.4821 13.4961 13.1672 11.9796 12.9662C10.7037 12.7968 9.84936 11.9274 9.605 10.6019C9.5509 10.2538 9.52479 9.90571 9.49121 9.56505ZM10.7447 9.5334L10.6869 9.54457C10.7506 10.0322 10.8421 10.5157 10.9611 10.9929C11.1831 11.7245 11.7072 12.0745 12.4534 12.0763C13.1995 12.0782 13.7255 11.7245 13.9587 11.0003C14.272 10.0448 14.272 9.01453 13.9587 8.05902C13.733 7.36279 13.2312 7.02398 12.5019 7.00909C12.1765 6.98432 11.852 7.06791 11.5793 7.24677C11.3066 7.42563 11.101 7.68968 10.9947 7.99759C10.8142 8.489 10.7294 9.01026 10.7447 9.5334Z" fill="#FCFDFE"/>
	<path d="M7.57355 12.8284H6.45435V6.26257H7.57355V12.8284Z" fill="#FEFEFE"/>
	<path d="M3.72366 12.9866C3.55258 12.9844 3.38599 12.9316 3.24495 12.835C3.1039 12.7383 2.99473 12.6021 2.93122 12.4436C2.86771 12.285 2.85271 12.1112 2.88813 11.9442C2.92354 11.7771 3.00777 11.6243 3.13018 11.505C3.25259 11.3857 3.40768 11.3052 3.57587 11.2739C3.74405 11.2425 3.91779 11.2616 4.07511 11.3287C4.23244 11.3958 4.3663 11.5079 4.45979 11.651C4.55328 11.794 4.6022 11.9614 4.60037 12.1322C4.60041 12.2461 4.5776 12.3589 4.53329 12.464C4.48899 12.569 4.42408 12.6641 4.34239 12.7437C4.2607 12.8233 4.16388 12.8858 4.05762 12.9276C3.95136 12.9693 3.83781 12.9894 3.72366 12.9866Z" fill="#FCFDFD"/>
	<path d="M7.01021 3.07557C7.1154 3.06992 7.22062 3.08597 7.31932 3.12271C7.41801 3.15945 7.50806 3.2161 7.58385 3.28911C7.65964 3.36212 7.71953 3.44994 7.7598 3.54708C7.80007 3.64422 7.81985 3.7486 7.81791 3.85371C7.82028 3.95909 7.80053 4.0638 7.75995 4.16111C7.71936 4.25842 7.65883 4.34619 7.58224 4.41877C7.50565 4.49135 7.4147 4.54714 7.31522 4.58255C7.21574 4.61797 7.10994 4.63222 7.00462 4.62441C6.90087 4.63095 6.79689 4.61578 6.69936 4.57987C6.60183 4.54396 6.5129 4.48811 6.43826 4.4159C6.36362 4.34369 6.30492 4.25671 6.26593 4.16054C6.22694 4.06437 6.20852 3.96113 6.21185 3.85744C6.20629 3.75202 6.22325 3.64663 6.26161 3.54825C6.29998 3.44987 6.35886 3.36076 6.43435 3.28683C6.50985 3.21289 6.60024 3.15582 6.69952 3.11939C6.7988 3.08297 6.90471 3.06803 7.01021 3.07557Z" fill="#FBFCFD"/>
	<path d="M10.7446 9.5334C10.7275 9.01061 10.8104 8.48937 10.9889 7.99759C11.0953 7.68968 11.3009 7.42563 11.5736 7.24677C11.8463 7.06791 12.1707 6.98432 12.4961 7.00909C13.2255 7.02398 13.7273 7.36279 13.953 8.05902C14.2663 9.01452 14.2663 10.0448 13.953 11.0003C13.7198 11.7245 13.1919 12.0782 12.4476 12.0763C11.7034 12.0745 11.1755 11.7245 10.9554 10.9929C10.8364 10.5157 10.7448 10.0322 10.6812 9.54457L10.7446 9.5334Z" fill="#0272C0"/>
</svg>
