<svg width="210" height="113" viewBox="0 0 210 113" fill="none" xmlns="http://www.w3.org/2000/svg">
<path d="M66.7459 52.002C65.0615 52.002 63.6638 50.6043 63.6638 48.9557C63.6638 47.2713 65.0615 45.8736 66.7459 45.8736C68.4662 45.8736 69.8281 47.2713 69.8281 48.9557C69.8281 50.6043 68.4662 52.002 66.7459 52.002ZM64.2372 72V54.4032H69.2905V72H64.2372ZM80.0138 72.3584C75.4265 72.3584 72.2368 70.0289 71.8784 66.0508H76.7167C76.8242 67.2335 78.0785 68.0219 79.763 68.0219C81.2682 68.0219 82.1283 67.5202 82.1283 66.6959C82.1283 63.7929 72.2368 66.3733 72.2368 59.8148C72.2368 56.5535 74.8889 54.0448 79.2254 54.0448C83.0243 54.0448 86.429 56.0159 86.859 59.9224H81.7699C81.6982 59.0264 80.7306 58.2379 79.1179 58.2379C77.971 58.2379 77.1109 58.6322 77.1109 59.4565C77.1109 62.1802 87.0382 59.3131 87.0382 66.66C87.0382 69.8855 83.9919 72.3584 80.0138 72.3584ZM106.816 54.0448C111.332 54.0448 114.055 57.0553 114.055 62.0368V72H109.002V62.6819C109.002 60.3883 107.604 58.883 105.526 58.883C103.411 58.883 102.049 60.3883 102.049 62.6819V72H96.9961V54.4032H102.049V56.6969C103.16 55.0124 104.809 54.0448 106.816 54.0448ZM125.997 54.0448C131.157 54.0448 135.135 57.9871 135.135 63.2195C135.135 68.452 131.157 72.3584 125.997 72.3584C120.8 72.3584 116.858 68.452 116.858 63.2195C116.858 57.9871 120.8 54.0448 125.997 54.0448ZM125.997 58.883C123.595 58.883 121.803 60.7108 121.803 63.2195C121.803 65.6565 123.595 67.5202 125.997 67.5202C128.362 67.5202 130.19 65.6565 130.19 63.2195C130.19 60.7108 128.362 58.883 125.997 58.883ZM145.814 72H141.908L135.564 54.4032H140.976L143.915 64.0438L147.427 54.4032H151.369L154.917 64.0438L157.82 54.4032H163.268L156.924 72H152.946L149.398 62.3594L145.814 72Z" fill="black"/>
<g clip-path="url(#clip0_18660_441)">
<path d="M57.8916 26.7815V26.5039C57.8916 19.3471 62.7441 14.0995 69.6029 14.0995C73.0679 14.0995 75.4417 15.0373 77.703 16.8452L75.1867 20.041C73.728 18.7882 72.1229 17.8505 69.5317 17.8505C65.3729 17.8505 62.2716 21.4289 62.2716 26.4664V26.6764C62.2716 32.1678 65.4104 35.4311 69.7492 35.4311C71.5379 35.4311 73.1429 34.9097 74.2717 34.1446V28.7957H68.9092V25.2511H78.2842V36.1626C76.1317 37.7942 73.1767 39.1145 69.5654 39.1145C62.6354 39.1145 57.8916 34.2496 57.8916 26.7815Z" fill="black"/>
<path d="M81.168 29.7672V29.4559C81.168 24.0358 84.963 20.0035 90.1043 20.0035C95.2118 20.0035 98.9694 23.9645 98.9694 29.4184V29.7297C98.9694 35.1498 95.1743 39.1446 90.0331 39.1446C84.9255 39.1521 81.168 35.2248 81.168 29.7672ZM94.8481 29.6997V29.4896C94.8481 26.05 92.8418 23.4769 90.0331 23.4769C87.153 23.4769 85.2893 26.0125 85.2893 29.4521V29.6622C85.2893 33.1018 87.2955 35.7087 90.1043 35.7087C92.9881 35.7124 94.8481 33.1393 94.8481 29.6997Z" fill="black"/>
<path d="M101.928 13.6794H106.049V38.7695H101.928V13.6794Z" fill="black"/>
<path d="M109.012 29.8047V29.3546C109.012 23.1356 112.623 20.0073 116.527 20.0073C119.336 20.0073 121.012 21.5377 122.182 23.1356V13.6832H126.303V38.7732H122.182V35.8212C120.978 37.5917 119.302 39.1221 116.527 39.1221C112.661 39.1145 109.012 36.0238 109.012 29.8047ZM122.253 29.7335V29.3846C122.253 25.7725 120.138 23.4769 117.656 23.4769C115.139 23.4769 113.171 25.7012 113.171 29.4184V29.6959C113.171 33.3794 115.177 35.6374 117.656 35.6374C120.138 35.6412 122.253 33.3494 122.253 29.7335Z" fill="black"/>
<path d="M128.437 36.5452L130.372 33.7319C132.123 35.086 133.983 35.885 135.697 35.885C137.411 35.885 138.397 35.0148 138.397 33.8707V33.8332C138.397 32.5129 136.901 31.9202 134.602 30.9825C131.722 29.801 129.315 28.5519 129.315 25.5287V25.4574C129.315 22.1566 132.086 20.071 135.697 20.071C137.85 20.071 140.148 20.8025 141.971 22.0515L140.22 24.936C138.761 23.9983 137.156 23.3043 135.622 23.3043C134.088 23.3043 133.177 24.1033 133.177 25.1123V25.1836C133.177 26.3989 134.711 27.0253 136.972 27.9968C139.965 29.2833 142.226 30.6037 142.226 33.4881V33.5219C142.226 37.1341 139.346 39.1145 135.622 39.1145C133.327 39.1145 130.665 38.3156 128.437 36.5452Z" fill="black"/>
<path d="M177.682 20.3524H181.804V23.9645C182.824 21.5677 184.684 19.9323 187.605 20.0748V24.3471H187.421C184.065 24.3471 181.804 26.4326 181.804 30.6374V38.7695H177.682V20.3524Z" fill="black"/>
<path d="M156.495 29.8047V29.3546C156.495 23.1356 160.106 20.0073 164.01 20.0073C166.819 20.0073 168.495 21.5377 169.665 23.1356V20.3561H173.786V38.7732H169.665V35.8212C168.461 37.5917 166.785 39.1221 164.01 39.1221C160.14 39.1145 156.495 36.0238 156.495 29.8047ZM169.736 29.7335V29.3846C169.736 25.7725 167.621 23.4769 165.139 23.4769C162.622 23.4769 160.653 25.7012 160.653 29.4184V29.6959C160.653 33.3794 162.66 35.6374 165.139 35.6374C167.621 35.6412 169.736 33.3494 169.736 29.7335Z" fill="black"/>
<path d="M154.518 35.2098C154.016 35.4349 153.502 35.5362 152.992 35.5362C151.68 35.5362 150.915 34.9435 150.915 33.5219V23.7207H155.257V20.3486H150.915V15.3824H146.793V20.3524H143.876V23.7245H146.793V34.3209C146.793 37.8992 148.946 39.047 151.792 39.047C153.063 39.047 154.406 38.7019 155.497 38.0493L154.518 35.2098Z" fill="black"/>
<path d="M189.683 16.133V15.3828H193.001V16.133H191.786V19.4376H190.894V16.133H189.683Z" fill="black"/>
<path d="M194.813 15.3828L195.761 18.1698H195.773L196.669 15.3828H197.921V19.4338H197.089V16.5606H197.078L196.084 19.4338H195.398L194.404 16.5906H194.393V19.4338H193.56V15.3828H194.813Z" fill="black"/>
<path d="M25.7574 5.15414C27.3774 8.15489 27.8687 15.3004 27.4449 20.4617L30.8125 20.6643C31.465 12.5022 30.1225 6.12938 28.7275 3.54874C27.2162 0.75054 25.3224 0.0791225 24.0024 0.00785473C22.1124 -0.0971715 20.1699 1.0056 18.8236 2.9711C17.3649 5.10163 16.0974 8.61626 16.0974 8.61626L19.4986 9.2089C19.4986 9.2089 20.4812 6.52323 21.6062 4.88407C22.2587 3.93134 23.1287 3.33494 23.8224 3.3762C24.6549 3.42121 25.3337 4.36644 25.7574 5.15414Z" fill="#FEC200"/>
<path d="M6.04357 16.752C9.39609 16.1406 16.3449 17.8773 21.1224 19.8803L22.3562 16.7408C14.7999 13.5975 8.32358 12.9073 5.43606 13.4362C2.30854 14.0026 1.08228 15.5968 0.609781 16.8308C-0.072723 18.5975 0.37353 20.7843 1.82854 22.6748C3.40355 24.7228 6.35482 27.0146 6.35482 27.0146L7.96733 23.9613C7.96733 23.9613 5.71731 22.1946 4.50606 20.6193C3.80105 19.704 3.5048 18.695 3.75605 18.0424C4.05605 17.2659 5.16606 16.9133 6.04357 16.752Z" fill="#FEC200"/>
<path d="M10.9786 39.0889C11.4323 35.713 15.2311 29.6403 18.6099 25.713L16.0036 23.5675C10.6823 29.7865 8.02733 35.7318 7.63358 38.6388C7.20982 41.7933 8.34608 43.4475 9.37359 44.2839C10.8398 45.4805 13.0599 45.728 15.3061 44.9291C17.7399 44.0626 20.8299 41.9658 20.8299 41.9658L18.4261 39.4865C18.4261 39.4865 16.0524 41.0806 14.1811 41.7445C13.0936 42.1309 12.0399 42.1046 11.4998 41.662C10.8548 41.1369 10.8623 39.9741 10.9786 39.0889Z" fill="#FEC200"/>
<path d="M33.745 41.2944C30.6737 39.8203 26.0724 34.3289 23.3837 29.8991L20.5374 31.7145C24.8049 38.6988 29.6387 43.0649 32.2825 44.3364C35.1512 45.713 37.075 45.1429 38.185 44.4265C39.775 43.4025 40.6975 41.3657 40.6338 38.9838C40.5625 36.4032 39.5238 32.8136 39.5238 32.8136L36.4263 34.3327C36.4263 34.3327 37.21 37.0859 37.2625 39.0701C37.2925 40.2254 36.94 41.2157 36.355 41.5945C35.6538 42.0484 34.5475 41.6845 33.745 41.2944Z" fill="#FEC200"/>
<path d="M42.8763 20.3229C40.525 22.7873 33.88 25.4692 28.84 26.6583L29.6875 29.9253C37.6488 28.0236 43.2925 24.7753 45.3176 22.6523C47.5113 20.3492 47.5676 18.3424 47.2263 17.0634C46.7426 15.2329 45.0926 13.725 42.805 13.0536C40.3263 12.3222 36.595 12.2022 36.595 12.2022L37.0825 15.6193C37.0825 15.6193 39.94 15.7243 41.845 16.2869C42.9513 16.6133 43.7876 17.2547 43.9638 17.9298C44.1813 18.74 43.4913 19.6778 42.8763 20.3229Z" fill="#FEC200"/>
</g>
<g clip-path="url(#clip1_18660_441)">
<path fill-rule="evenodd" clip-rule="evenodd" d="M91.0937 81V105.571H85.4838V102.796C84.1304 104.817 82.0225 105.967 79.2774 105.967C74.2256 105.967 70.2062 101.41 70.2062 95.8218C70.2062 90.2338 74.2256 85.7171 79.2774 85.7171C82.0225 85.7171 84.1304 86.8671 85.4838 88.888V81H91.0937ZM85.4838 95.8218C85.4838 93.128 83.3352 91.026 80.5901 91.026C77.8857 91.026 75.6964 93.1662 75.6964 95.8218C75.6964 98.5157 77.8857 100.618 80.5901 100.618C83.3352 100.618 85.4838 98.5562 85.4838 95.8218ZM68.8166 95.8623C68.8166 101.648 64.3996 105.967 58.6722 105.967C52.9042 105.967 48.5279 101.648 48.5279 95.8623C48.5279 90.0763 52.9042 85.717 58.6722 85.717C64.3996 85.717 68.8166 90.0763 68.8166 95.8623ZM54.0158 95.8623C54.0158 98.5562 56.004 100.618 58.67 100.618C61.2953 100.618 63.3242 98.5562 63.3242 95.8623C63.3242 93.0874 61.2953 91.0665 58.67 91.0665C56.0062 91.0665 54.0158 93.0874 54.0158 95.8623ZM113.529 105.571V86.1131H107.919V88.888C106.566 86.867 104.458 85.717 101.712 85.717C96.6606 85.717 92.6413 90.2338 92.6413 95.8218C92.6413 101.41 96.6606 105.967 101.712 105.967C104.458 105.967 106.566 104.817 107.919 102.796V105.571H113.529ZM103.025 91.026C105.77 91.026 107.919 93.128 107.919 95.8218C107.919 98.5562 105.77 100.618 103.025 100.618C100.321 100.618 98.1314 98.5157 98.1314 95.8218C98.1314 93.1662 100.321 91.026 103.025 91.026ZM129.832 86.1132L125.496 97.4872L121.159 86.1132H115.113L122.632 103.987L119.01 112.03H125.017L135.88 86.1132H129.832ZM157.981 105.571V86.1132H152.371V105.571H157.981ZM172.818 95.5045L179.901 105.571H173.136L169.436 100.3L165.735 105.571H159.052L166.094 95.545L159.49 86.1132H166.255L169.476 90.7109L172.818 95.5045ZM150.64 86.1109V91.4221H145.823V97.566C145.823 99.6657 147.256 100.577 149.206 100.577C149.682 100.577 150.2 100.539 150.638 100.42V105.573C149.883 105.771 148.729 105.891 147.934 105.891C143.32 105.891 140.216 102.877 140.216 97.647V91.4243H135.568L137.794 86.1131H140.216V81.0495H145.826V86.1109H150.64ZM47.0729 91.4379V86.1267H42.2583V81.063H36.6484V86.1267H34.2264L32.001 91.4379H36.6484V97.6605C36.6484 102.891 39.7527 105.904 44.3663 105.904C45.1616 105.904 46.3161 105.785 47.0707 105.587V100.435C46.6324 100.555 46.115 100.593 45.6383 100.593C43.6885 100.593 42.2561 99.6815 42.2561 97.5817V91.4379H47.0729ZM174.393 91.8114C176.261 91.8114 177.813 90.2676 177.813 88.4042C177.813 86.5812 176.261 85.0351 174.393 85.0351C172.524 85.0351 170.972 86.5812 170.972 88.4042C170.972 90.2653 172.522 91.8114 174.393 91.8114Z" fill="black"/>
</g>
<path d="M184.914 98.223L184.735 80.9129H190.11L189.967 98.223H184.914ZM187.423 106.358C185.595 106.358 184.161 104.925 184.161 103.133C184.161 101.341 185.595 99.9433 187.423 99.9433C189.286 99.9433 190.72 101.341 190.72 103.133C190.72 104.925 189.286 106.358 187.423 106.358Z" fill="black"/>
<defs>
<clipPath id="clip0_18660_441">
<rect width="197.626" height="45.3938" fill="white" transform="translate(0.294922)"/>
</clipPath>
<clipPath id="clip1_18660_441">
<rect width="147.9" height="31.03" fill="white" transform="translate(32.001 81)"/>
</clipPath>
</defs>
</svg>