<?xml version="1.0" ?>
<svg xmlns="http://www.w3.org/2000/svg" xmlns:xlink="http://www.w3.org/1999/xlink" id="svg" version="1.1" viewBox="0, 0, 400,337.96296296296293">
	<g id="svgg">
		<path id="path0" d="M55.208 109.364 C 36.493 131.557,21.181 149.869,21.181 150.057 C 21.181 150.245,37.065 177.184,56.480 209.922 L 91.780 269.444 120.543 269.444 C 136.362 269.444,149.306 269.379,149.306 269.299 C 149.306 269.220,133.457 242.382,114.087 209.659 C 81.067 153.877,78.889 150.133,79.191 149.658 C 79.369 149.380,94.045 131.946,111.806 110.917 C 144.055 72.731,144.790 71.819,144.417 70.495 C 143.956 68.857,146.260 68.980,116.236 68.998 L 89.236 69.014 55.208 109.364 M170.039 109.489 L 135.860 149.997 171.229 209.709 L 206.597 269.421 235.359 269.433 C 252.709 269.440,264.120 269.360,264.120 269.232 C 264.120 269.115,248.284 242.275,228.928 209.589 C 209.572 176.903,193.765 150.077,193.801 149.977 C 193.836 149.877,208.397 132.584,226.157 111.549 C 243.918 90.513,258.683 72.987,258.970 72.602 C 259.715 71.599,259.657 70.501,258.814 69.658 L 258.137 68.981 231.177 68.981 L 204.218 68.981 170.039 109.489 M285.091 109.281 C 266.397 131.446,251.063 149.754,251.014 149.964 C 250.966 150.175,266.782 177.087,286.202 209.838 L 321.477 269.329 350.322 269.387 C 366.187 269.420,379.167 269.404,379.167 269.353 C 379.167 269.290,313.335 158.041,308.652 150.191 C 308.601 150.105,323.352 132.515,341.432 111.102 C 378.226 67.526,375.341 71.238,373.695 69.592 L 373.085 68.981 346.082 68.981 L 319.079 68.981 285.091 109.281 " stroke="none" fill="#1c3444" fill-rule="evenodd"/>
		<path id="path1" d="" stroke="none" fill="#203444" fill-rule="evenodd"/>
		<path id="path2" d="" stroke="none" fill="#203444" fill-rule="evenodd"/>
		<path id="path3" d="" stroke="none" fill="#203444" fill-rule="evenodd"/>
		<path id="path4" d="" stroke="none" fill="#203444" fill-rule="evenodd"/>
	</g>
</svg>
