<?xml version="1.0" encoding="UTF-8"?>
<!-- Generator: Adobe Illustrator 14.0.0, SVG Export Plug-In . SVG Version: 6.00 Build 43363)  -->
<!DOCTYPE svg PUBLIC "-//W3C//DTD SVG 1.1//EN" "http://www.w3.org/Graphics/SVG/1.1/DTD/svg11.dtd">
<svg version="1.1" xmlns="http://www.w3.org/2000/svg" xmlns:xlink="http://www.w3.org/1999/xlink" x="0px" y="0px" viewBox="-94.837 -25.25 408.67 75.75" enable-background="new -94.837 -25.25 408.67 75.75" xml:space="preserve">
<g id="Layer_2">
	<rect x="-198.218" y="-241.357" fill="#97A088" stroke="#000000" stroke-miterlimit="5" width="539.337" height="161.917"/>
	<g>
		<g>
			<path display="none" fill="#333333" stroke="#8C8C8C" stroke-miterlimit="5" d="M-56.561,4.241l3.724-7.198L-37.7,25.556     c2.75-4.436,4.341-9.664,4.341-15.264c0-16.022-12.987-29.013-29.012-29.013c-16.022,0-29.012,12.991-29.012,29.013     c0,6.944,2.442,13.321,6.516,18.315l20.351-39.352L-56.561,4.241z"/>
			<path fill="#333333" stroke="#8C8C8C" stroke-miterlimit="5" d="M-56.561,4.241l3.724-7.198L-37.7,25.556     c2.75-4.436,4.341-9.664,4.341-15.264c0-16.022-12.987-29.013-29.012-29.013c-16.022,0-29.012,12.991-29.012,29.013     c0,6.944,2.442,13.321,6.516,18.315l20.351-39.352L-56.561,4.241z"/>
			<g>
				<g>
					<g display="none" opacity="0.75">
						<defs>
							<rect id="SVGID_4_" x="-91.382" y="-18.722" opacity="0.75" width="58.023" height="47.33"/>
						</defs>
						<use xlink:href="#SVGID_4_" display="inline" overflow="visible" fill="#333333"/>
						<clipPath id="SVGID_7_" display="inline">
							<use xlink:href="#SVGID_4_" overflow="visible"/>
						</clipPath>
						<g display="inline" clip-path="url(#SVGID_7_)">
							<g>
								<defs>
									<path id="SVGID_6_" d="M-56.561,4.242l3.724-7.199L-37.7,25.555c2.75-4.435,4.341-9.662,4.341-15.263           c0-16.022-12.987-29.014-29.01-29.014c-16.024,0-29.013,12.992-29.013,29.014c0,6.943,2.441,13.318,6.514,18.316           l20.352-39.352L-56.561,4.242z"/>
								</defs>
								<use xlink:href="#SVGID_6_" overflow="visible" fill="#333333"/>
								<clipPath id="SVGID_8_">
									<use xlink:href="#SVGID_6_" overflow="visible"/>
								</clipPath>
								
									<rect x="-91.382" y="-18.722" clip-path="url(#SVGID_8_)" fill="#333333" stroke="#8C8C8C" stroke-miterlimit="5" width="58.023" height="47.33"/>
								<use xlink:href="#SVGID_6_" overflow="visible" fill="none" stroke="#8C8C8C" stroke-miterlimit="5"/>
							</g>
						</g>
						<use xlink:href="#SVGID_4_" display="inline" overflow="visible" fill="none" stroke="#8C8C8C" stroke-miterlimit="5"/>
					</g>
					<g>
						<path id="SVGID_3_" fill="#333333" stroke="#8C8C8C" stroke-miterlimit="5" d="M-66.391-3.812        c-0.11,1.418,1.222,0.798,1.809,1.917c0.874,1.677-2.378,1.816-4.52,3.956c-2.138,2.14,5.492,3.863,4.463,6.21        c-0.809,1.846-5.424,2.884-9.431,4.969c-4.142,2.158-1.409,5.495,0.702,7.203c2.44,1.976,8.441,5.025,6.634,7.838        c-2.056,3.195-16.894,1.688-16.894,1.688c5.823,6.598,14.184,8.505,14.184,8.505s20.143-3.698,13.447-12.36        c-3.84-4.967-17.417-8.813-13.024-11.266c4.962-2.769,9.923-3.808,9.576-6.922c-0.306-2.777-6.247-3.609-6.344-5.08        C-65.902,1.153-61.202,0-61.645-1.668c-0.453-1.693-3.246-0.93-3.503-2.709c-0.303-2.112,0.626-5.355,0.626-5.355        C-65.095-9.132-66.26-5.474-66.391-3.812"/>
					</g>
					<g>
						<defs>
							<path id="SVGID_2_" d="M-66.391-3.812c-0.11,1.418,1.222,0.798,1.809,1.917c0.874,1.677-2.378,1.816-4.52,3.956         c-2.138,2.14,5.492,3.863,4.463,6.21c-0.809,1.846-5.424,2.884-9.431,4.969c-4.142,2.158-1.409,5.495,0.702,7.203         c2.44,1.976,8.441,5.025,6.634,7.838c-2.056,3.195-16.894,1.688-16.894,1.688c5.823,6.598,14.184,8.505,14.184,8.505         s20.143-3.698,13.447-12.36c-3.84-4.967-17.417-8.813-13.024-11.266c4.962-2.769,9.923-3.808,9.576-6.922         c-0.306-2.777-6.247-3.609-6.344-5.08C-65.902,1.153-61.202,0-61.645-1.668c-0.453-1.693-3.246-0.93-3.503-2.709         c-0.303-2.112,0.626-5.355,0.626-5.355C-65.095-9.132-66.26-5.474-66.391-3.812"/>
						</defs>
						<use xlink:href="#SVGID_2_" overflow="visible" fill="#333333"/>
						<clipPath id="SVGID_9_">
							<use xlink:href="#SVGID_2_" overflow="visible"/>
						</clipPath>
						
							<rect x="-130.701" y="-22.25" clip-path="url(#SVGID_9_)" fill="#333333" stroke="#8C8C8C" stroke-miterlimit="5" width="34.325" height="48.208"/>
						<use xlink:href="#SVGID_2_" overflow="visible" fill="none" stroke="#8C8C8C" stroke-miterlimit="5"/>
					</g>
					<g display="none" opacity="0.5">
						<g display="inline">
							<g>
								<defs>
									<rect id="SVGID_1_" x="-89.444" y="-17.241" width="54.185" height="27.093"/>
								</defs>
								<use xlink:href="#SVGID_1_" overflow="visible" fill="#333333"/>
								<clipPath id="SVGID_10_">
									<use xlink:href="#SVGID_1_" overflow="visible"/>
								</clipPath>
								<path clip-path="url(#SVGID_10_)" fill="#333333" stroke="#8C8C8C" stroke-miterlimit="5" d="M-89.444,9.853          c0-14.401,12.154-25.09,27.093-25.09c14.938,0,27.092,10.688,27.092,25.09c0-14.942-12.155-27.094-27.092-27.094          C-77.29-17.241-89.444-5.089-89.444,9.853"/>
								<use xlink:href="#SVGID_1_" overflow="visible" fill="none" stroke="#8C8C8C" stroke-miterlimit="5"/>
							</g>
						</g>
					</g>
				</g>
			</g>
		</g>
		<g>
			<path fill="#333333" stroke="#8C8C8C" stroke-miterlimit="5" d="M-16.366-4.213v31.82h-3.954v-31.82h-8.567v-3.671h21.182v3.671     H-16.366z"/>
			<path fill="#333333" stroke="#8C8C8C" stroke-miterlimit="5" d="M2.085,12.027v15.581h-3.954V-7.884h5.13     c8.661,0,12.992,3.264,12.992,9.791c0,2.73-0.8,4.989-2.4,6.778c-1.601,1.789-3.766,2.793-6.496,3.013l11.297,15.91h-4.849     L3.074,12.027H2.085z M2.085-4.213V8.543h1.224c2.73,0,4.785-0.376,6.166-1.129C11.358,6.41,12.3,4.668,12.3,2.189     c0-2.636-0.911-4.44-2.73-5.413C8.282-3.883,6.18-4.213,3.262-4.213H2.085z"/>
			<path fill="#333333" stroke="#8C8C8C" stroke-miterlimit="5" d="M45.908,17.534H30.751l-4.284,10.073h-4.331L38.518-9.579     l15.958,37.186h-4.378L45.908,17.534z M44.354,13.863L38.423-0.353l-6.072,14.216H44.354z"/>
			<path fill="#333333" stroke="#8C8C8C" stroke-miterlimit="5" d="M62.853-7.884v35.492h-3.954V-7.884H62.853z"/>
			<path fill="#333333" stroke="#8C8C8C" stroke-miterlimit="5" d="M73.82-7.884v31.82h9.791v3.671H69.867V-7.884H73.82z"/>
			<path fill="#333333" stroke="#8C8C8C" stroke-miterlimit="5" d="M87.519,27.607V-7.884h5.836c7.909,0,11.862,3.201,11.862,9.603     c0,3.076-1.161,5.382-3.482,6.919c2.07,0.502,3.71,1.601,4.918,3.295c1.208,1.695,1.813,3.625,1.813,5.79     c0,3.358-1.24,5.884-3.719,7.578c-2.229,1.538-5.225,2.307-8.99,2.307H87.519z M91.472-4.213V7.743h1.506     c2.699,0,4.644-0.313,5.837-0.941c1.631-0.878,2.448-2.573,2.448-5.083c0-2.448-0.77-4.111-2.307-4.99     c-1.129-0.627-3.106-0.941-5.931-0.941H91.472z M91.472,11.132v12.804h3.954c6.056,0,9.084-2.166,9.084-6.496     c0-4.205-3.2-6.308-9.602-6.308H91.472z"/>
			<path fill="#333333" stroke="#8C8C8C" stroke-miterlimit="5" d="M118.208-7.884v31.82h9.791v3.671h-13.745V-7.884H118.208z"/>
			<path fill="#333333" stroke="#8C8C8C" stroke-miterlimit="5" d="M155.348,17.534H140.19l-4.283,10.073h-4.331l16.381-37.186     l15.957,37.186h-4.377L155.348,17.534z M153.794,13.863l-5.931-14.216l-6.072,14.216H153.794z"/>
			<path fill="#333333" stroke="#8C8C8C" stroke-miterlimit="5" d="M173.47,23.936h18.876v3.671h-25.419l19.347-31.82h-16.899     v-3.671h23.489L173.47,23.936z"/>
			<path fill="#333333" stroke="#8C8C8C" stroke-miterlimit="5" d="M199.405,27.607V-7.884h18.405v3.671h-14.451V6.331h14.027v3.672     h-14.027v13.933h14.451v3.671H199.405z"/>
			<path fill="#333333" stroke="#8C8C8C" stroke-miterlimit="5" d="M228.966,12.027v15.581h-3.954V-7.884h5.131     c8.661,0,12.992,3.264,12.992,9.791c0,2.73-0.801,4.989-2.401,6.778c-1.6,1.789-3.766,2.793-6.495,3.013l11.297,15.91h-4.849     l-10.732-15.581H228.966z M228.966-4.213V8.543h1.224c2.73,0,4.785-0.376,6.167-1.129c1.883-1.004,2.824-2.746,2.824-5.225     c0-2.636-0.911-4.44-2.73-5.413c-1.287-0.659-3.389-0.989-6.308-0.989H228.966z"/>
			<path fill="#333333" stroke="#8C8C8C" stroke-miterlimit="5" d="M269.636-7.884v35.492h-3.954V-7.884H269.636z"/>
			<path fill="#333333" stroke="#8C8C8C" stroke-miterlimit="5" d="M306.963,27.937l-2.966-3.201     c-3.075,2.323-6.637,3.483-10.685,3.483c-5.084,0-9.438-1.78-13.063-5.342c-3.625-3.562-5.437-7.885-5.437-12.968     c0-5.084,1.812-9.422,5.437-13.015c3.624-3.593,7.979-5.39,13.063-5.39c5.114,0,9.477,1.812,13.085,5.437     s5.414,7.979,5.414,13.063c0,4.676-1.711,8.849-5.131,12.521l5.318,5.413H306.963z M297.831,13.298l6.119,6.401     c2.604-2.73,3.907-6.009,3.907-9.838c0-4.048-1.412-7.508-4.236-10.379c-2.824-2.872-6.261-4.307-10.309-4.307     c-4.049,0-7.484,1.436-10.309,4.307c-2.824,2.871-4.236,6.331-4.236,10.379c0,4.018,1.419,7.469,4.26,10.356     c2.84,2.888,6.268,4.331,10.285,4.331c2.949,0,5.585-0.875,7.907-2.625l-8.566-8.578L297.831,13.298z"/>
		</g>
		<g>
			<path fill="#666666" d="M246.091-15.835v1.042h-2.434v6.273h-1.042v-6.273h-2.45v-1.042H246.091z M255.267-15.835v7.316h-1.043     v-6.273L251.69-8.52h-0.687l-2.463-6.273v6.273h-1.043v-7.316h1.756l2.103,5.266l2.172-5.266H255.267z"/>
		</g>
	</g>
</g>
<g id="Layer_1" display="none">
	<g display="inline">
		<g>
			<path display="none" fill="#666666" d="M-56.812,4.04l3.724-7.198l15.137,28.514c2.75-4.436,4.341-9.664,4.341-15.264     c0-16.022-12.987-29.013-29.012-29.013c-16.022,0-29.012,12.991-29.012,29.013c0,6.944,2.442,13.321,6.516,18.315l20.351-39.352     L-56.812,4.04z"/>
			<path fill="#666666" d="M-56.812,4.04l3.724-7.198l15.137,28.514c2.75-4.436,4.341-9.664,4.341-15.264     c0-16.022-12.987-29.013-29.012-29.013c-16.022,0-29.012,12.991-29.012,29.013c0,6.944,2.442,13.321,6.516,18.315l20.351-39.352     L-56.812,4.04z"/>
			<g>
				<g>
					<g display="none" opacity="0.75">
						<defs>
							<rect id="SVGID_11_" x="-91.633" y="-18.923" opacity="0.75" width="58.023" height="47.33"/>
						</defs>
						<use xlink:href="#SVGID_11_" display="inline" overflow="visible" fill="#666666"/>
						<clipPath id="SVGID_12_" display="inline">
							<use xlink:href="#SVGID_11_" overflow="visible"/>
						</clipPath>
						<g display="inline" clip-path="url(#SVGID_12_)">
							<g>
								<defs>
									<path id="SVGID_13_" d="M-56.812,4.041l3.724-7.199l15.137,28.513c2.75-4.435,4.341-9.662,4.341-15.263           c0-16.022-12.987-29.014-29.01-29.014c-16.024,0-29.013,12.992-29.013,29.014c0,6.943,2.441,13.318,6.514,18.316           l20.352-39.352L-56.812,4.041z"/>
								</defs>
								<use xlink:href="#SVGID_13_" overflow="visible" fill="#666666"/>
								<clipPath id="SVGID_14_">
									<use xlink:href="#SVGID_13_" overflow="visible"/>
								</clipPath>
								<rect x="-91.633" y="-18.923" clip-path="url(#SVGID_14_)" fill="#666666" width="58.023" height="47.33"/>
							</g>
						</g>
					</g>
					<g>
						<path id="SVGID_5_" fill="#666666" d="M-66.643-4.012c-0.11,1.418,1.222,0.798,1.809,1.917        c0.874,1.677-2.378,1.816-4.52,3.956c-2.138,2.14,5.492,3.863,4.463,6.21c-0.809,1.846-5.424,2.884-9.431,4.969        c-4.142,2.158-1.409,5.495,0.702,7.203c2.44,1.976,8.441,5.025,6.634,7.838c-2.056,3.195-16.894,1.688-16.894,1.688        c5.823,6.598,14.184,8.505,14.184,8.505s20.143-3.698,13.447-12.36c-3.84-4.967-17.417-8.813-13.024-11.266        c4.962-2.769,9.923-3.808,9.576-6.922c-0.306-2.777-6.247-3.609-6.344-5.08c-0.112-1.692,4.588-2.846,4.146-4.514        c-0.453-1.693-3.246-0.93-3.503-2.709c-0.303-2.112,0.626-5.355,0.626-5.355C-65.347-9.333-66.511-5.674-66.643-4.012"/>
					</g>
					<g>
						<defs>
							<path id="SVGID_15_" d="M-66.643-4.012c-0.11,1.418,1.222,0.798,1.809,1.917c0.874,1.677-2.378,1.816-4.52,3.956         c-2.138,2.14,5.492,3.863,4.463,6.21c-0.809,1.846-5.424,2.884-9.431,4.969c-4.142,2.158-1.409,5.495,0.702,7.203         c2.44,1.976,8.441,5.025,6.634,7.838c-2.056,3.195-16.894,1.688-16.894,1.688c5.823,6.598,14.184,8.505,14.184,8.505         s20.143-3.698,13.447-12.36c-3.84-4.967-17.417-8.813-13.024-11.266c4.962-2.769,9.923-3.808,9.576-6.922         c-0.306-2.777-6.247-3.609-6.344-5.08c-0.112-1.692,4.588-2.846,4.146-4.514c-0.453-1.693-3.246-0.93-3.503-2.709         c-0.303-2.112,0.626-5.355,0.626-5.355C-65.347-9.333-66.511-5.674-66.643-4.012"/>
						</defs>
						<use xlink:href="#SVGID_15_" overflow="visible" fill="#666666"/>
						<clipPath id="SVGID_16_">
							<use xlink:href="#SVGID_15_" overflow="visible"/>
						</clipPath>
						<rect x="-130.952" y="-22.451" clip-path="url(#SVGID_16_)" fill="#666666" width="34.325" height="48.208"/>
					</g>
					<g display="none" opacity="0.5">
						<g display="inline">
							<g>
								<defs>
									<rect id="SVGID_17_" x="-89.695" y="-17.442" width="54.185" height="27.093"/>
								</defs>
								<use xlink:href="#SVGID_17_" overflow="visible" fill="#666666"/>
								<clipPath id="SVGID_18_">
									<use xlink:href="#SVGID_17_" overflow="visible"/>
								</clipPath>
								<path clip-path="url(#SVGID_18_)" fill="#666666" d="M-89.695,9.652c0-14.401,12.154-25.09,27.093-25.09          c14.938,0,27.092,10.688,27.092,25.09c0-14.942-12.155-27.094-27.092-27.094C-77.542-17.442-89.695-5.29-89.695,9.652"/>
							</g>
						</g>
					</g>
				</g>
			</g>
		</g>
		<text transform="matrix(1 0 0 1 -32.416 25.751)"><tspan x="0" y="0" fill="#666666" stroke="#FFFFFF" stroke-miterlimit="5" font-family="'FuturaBook'" font-size="46.3775" letter-spacing="1">TR</tspan><tspan x="50.458" y="0" fill="#666666" stroke="#FFFFFF" stroke-miterlimit="5" font-family="'FuturaBook'" font-size="46.3775">A</tspan><tspan x="83.339" y="0" fill="#666666" stroke="#FFFFFF" stroke-miterlimit="5" font-family="'FuturaBook'" font-size="46.3775">IL</tspan><tspan x="111.443" y="0" fill="#666666" stroke="#FFFFFF" stroke-miterlimit="5" font-family="'FuturaBook'" font-size="46.3775">B</tspan><tspan x="137.879" y="0" fill="#666666" stroke="#FFFFFF" stroke-miterlimit="5" font-family="'FuturaBook'" font-size="46.3775" letter-spacing="1">LA</tspan><tspan x="190.934" y="0" fill="#666666" stroke="#FFFFFF" stroke-miterlimit="5" font-family="'FuturaBook'" font-size="46.3775">Z</tspan><tspan x="217.833" y="0" fill="#666666" stroke="#FFFFFF" stroke-miterlimit="5" font-family="'FuturaBook'" font-size="46.3775">ER</tspan><tspan x="268.662" y="0" fill="#666666" stroke="#FFFFFF" stroke-miterlimit="5" font-family="'FuturaBook'" font-size="46.3775" letter-spacing="1"> </tspan><tspan x="284.431" y="0" fill="#666666" stroke="#FFFFFF" stroke-miterlimit="5" font-family="'FuturaBook'" font-size="46.3775">IQ</tspan><tspan x="335.028" y="0" fill="#666666" stroke="#FFFFFF" stroke-miterlimit="5" font-family="'FuturaBook'" font-size="46.3775" letter-spacing="4"> </tspan></text>
		<text transform="matrix(1 0 0 1 231.2881 -3.0254)" fill="#666666" font-family="'FuturaBook'" font-size="17.3782">™</text>
	</g>
	<rect x="-480.167" y="-301.5" display="inline" fill="#6BB708" stroke="#FFFFFF" stroke-miterlimit="5" width="0" height="0"/>
</g>
</svg>