<svg width="364" height="46" viewBox="0 0 364 46" fill="none" xmlns="http://www.w3.org/2000/svg"><g clip-path="url(#clip0_8940_75041)"><path fill-rule="evenodd" clip-rule="evenodd" d="M192.666 13.7884h-.515v.6406h.515c.24 0 .394-.11.394-.3138 0-.2168-.144-.3268-.394-.3268Zm-1.149-.5921h1.162c.634 0 1.053.3494 1.053.8962 0 .3398-.166.5921-.419.7507l.455.6665v.1327h-.66l-.442-.6407h-.515v.6407h-.634v-2.4461Zm3.246 1.2716c0-1.3072-.861-2.3005-2.18-2.3005-1.319 0-2.154.9448-2.154 2.3005 0 1.3557.861 2.3004 2.154 2.3004 1.294 0 2.18-.9933 2.18-2.3004Zm.538 0c0 1.5368-1.018 2.8214-2.718 2.8214s-2.695-1.2943-2.695-2.8214c0-1.5272 1.005-2.8214 2.695-2.8214s2.718 1.2845 2.718 2.8214Zm-152.3655 5.468-5.2471 3.0673 5.2471 3.0576c1.3254.7733 1.7768 2.4817 1.0117 3.8212-.7652 1.3331-2.4555 1.7893-3.7745 1.0192l-9.3962-5.4842c-.6275-.3689-1.0629-.9448-1.255-1.5952-.0928-.2976-.1344-.605-.1248-.9092.0064-.22.0384-.44.096-.66.1889-.6827.6275-1.2942 1.2806-1.6793l9.3962-5.4777c1.319-.7701 3.0125-.3139 3.7745 1.0256.7651 1.3363.3137 3.0414-1.0117 3.8147h.0032ZM37.9701 34.8l-9.393-5.4745c-.5058-.2977-1.0629-.4109-1.6007-.3656-1.4342.1035-2.5579 1.3136-2.5579 2.7858v10.962c0 1.5466 1.2325 2.7955 2.7628 2.7955s2.766-1.2521 2.766-2.7955v-6.1313l5.26 3.0673c1.3222.7765 3.0125.317 3.7745-1.0192.7619-1.3363.3105-3.0512-1.0117-3.8245Zm-10.84-10.7258-3.9058 3.9409c-.112.1165-.3265.2103-.4898.2103h-1.1493c-.1569 0-.3778-.0938-.4898-.2103l-3.9026-3.9409c-.112-.11-.2017-.3333-.2017-.4918v-1.1616c0-.1617.0897-.385.2017-.4982l3.9026-3.9409c.112-.1165.3329-.2071.4898-.2071h1.1493c.1601 0 .3778.0906.4898.2071l3.9058 3.9409c.112.1132.2017.3365.2017.4982v1.1616c0 .1585-.0897.3818-.2017.4918Zm-3.1214-1.0936c0-.1586-.0961-.3818-.2081-.4983l-1.1301-1.1389c-.1121-.1132-.3298-.2071-.4898-.2071h-.0449c-.1568 0-.3777.0939-.4866.2071l-1.1301 1.1389c-.112.1165-.1985.3397-.1985.4983v.0453c0 .1585.0865.3785.1985.4918l1.1301 1.1421c.1121.1133.3298.2071.4866.2071h.0449c.1568 0 .3777-.0938.4898-.2071l1.1301-1.1421c.112-.1133.2081-.3333.2081-.4918v-.0453ZM6.3496 11.1967l9.3962 5.481c.5058.2945 1.0661.411 1.6039.3657 1.431-.1068 2.558-1.3169 2.558-2.7891V3.29228C19.9077 1.75216 18.6687.5 17.1448.5s-2.766 1.25216-2.766 2.79228v6.1346L9.11563 6.35311c-1.31899-.7733-3.00934-.31385-3.77448 1.02243-.76194 1.33952-.31054 3.04786 1.01165 3.82116h-.0032Zm20.6236 5.8467c.5378.0453 1.0981-.0712 1.6007-.3657l9.393-5.481c1.3222-.7733 1.7736-2.48164 1.0117-3.82116-.762-1.33628-2.4523-1.79249-3.7745-1.02243l-5.26 3.07377v-6.1346C29.9441 1.75216 28.7084.5 27.1781.5s-2.7628 1.25216-2.7628 2.79228V14.2543c0 1.469 1.1269 2.6823 2.5579 2.7891Zm-9.6235 11.9132c-.541-.0453-1.1013.068-1.6039.3657l-9.3962 5.4745c-1.32219.7733-1.77359 2.4881-1.01165 3.8244.76514 1.3331 2.45549 1.7925 3.77448 1.0192l5.26317-3.0673v6.1314c0 1.5466 1.2357 2.7955 2.766 2.7955s2.7628-1.2522 2.7628-2.7955V31.7424c0-1.4721-1.1301-2.6822-2.5579-2.7858h.0032Zm-2.5483-5.1348c.0928-.2976.1312-.605.1248-.9092-.0096-.22-.0384-.44-.0992-.66-.1857-.6827-.6275-1.2942-1.287-1.6793l-9.38978-5.4777c-1.32539-.7701-3.01575-.3139-3.774488 1.0256-.768343 1.3363-.31374 3.0414 1.011648 3.8147l5.24715 3.0673-5.24715 3.0576C.061992 26.8341-.38941 28.5425.375732 29.882c.761938 1.3331 2.449098 1.7893 3.774488 1.0192L13.54 25.417c.6339-.3689 1.0629-.9448 1.2614-1.5952ZM131.343 7.44025h-.259c-.032 0-.068.00323-.103.00647-.032 0-.064-.00647-.099-.00647-.666 0-1.316.07765-1.921.28149-.595.20061-1.146.53063-1.572 1.03538-.442.49827-.73 1.09038-.909 1.76018-.176.6762-.25 1.4365-.256 2.3037v1.676h-1.828c-.634.0032-1.14.5177-1.14 1.1389-.003.3333.125.6406.333.8639.211.2168.5.3624.82.3785h1.815v13.667c0 .3203.131.6147.346.8251.211.207.509.33.832.33.615-.0033 1.121-.5112 1.124-1.1583v-13.667h1.965c.317-.0162.609-.1521.817-.3688.214-.2168.346-.521.346-.851V15.61c-.007-.6147-.516-1.1163-1.15-1.1163h-1.978v-1.6695c.013-.7377.089-1.291.198-1.6922.106-.4044.253-.6568.381-.8153.128-.1392.295-.2557.564-.34949.272-.09059.65-.1456 1.159-.1456h.06c.029 0 .061-.00647.09-.00647.035 0 .07.00647.106.00647h.259c.653 0 1.178-.53386 1.178-1.19068s-.525-1.19068-1.178-1.19068Zm40.53 8.84595c.231-.2297.355-.5371.355-.8412 0-.3041-.124-.5986-.358-.8154l-.006-.0064c0-.0065-.007-.0065-.007-.0065h-.003c-.224-.2233-.509-.343-.807-.343-.298 0-.592.1262-.813.3495l-9.047 8.9107V8.55651c0-.64387-.535-1.17126-1.191-1.17126-.317 0-.605.13265-.813.3462-.205.21031-.343.50474-.343.82506V30.4806c0 .3203.138.6147.343.8218.208.2071.496.3462.813.3462.656 0 1.191-.5209 1.191-1.1648v-3.6173l2.945-2.9735 6.006 7.3221c.112.1682.266.2847.419.3462.173.0647.343.0906.493.0906.208 0 .5-.0453.756-.2492l.013-.0097.016-.0162c.24-.2394.377-.5597.377-.8833 0-.275-.099-.5533-.284-.7765l-6.115-7.5162 6.051-5.9146H171.873Zm-16.337-1.5077c.215.2103.346.5112.346.838v14.8673c0 .3203-.135.6148-.339.8218-.208.2071-.497.3463-.817.3463-.32 0-.611-.1392-.816-.3463-.208-.207-.343-.5015-.343-.8218v-1.4495c-1.456 1.5886-3.502 2.6176-5.765 2.6176-2.264 0-4.281-.9772-5.734-2.5464-1.457-1.5596-2.35-3.708-2.35-6.0537 0-2.3458.893-4.4974 2.35-6.057 1.453-1.566 3.48-2.5399 5.734-2.5399 2.253 0 4.309.9966 5.765 2.5787v-1.4139c0-.3268.132-.6277.346-.838.215-.2071.503-.3268.813-.3268.311 0 .599.1197.81.3268v-.0032Zm-1.969 8.2733c0-1.7569-.656-3.3326-1.706-4.4716-1.047-1.1324-2.488-1.8216-4.059-1.8248-1.56 0-2.994.6924-4.053 1.8248-1.051 1.139-1.716 2.7114-1.716 4.4716 0 1.7601.665 3.3196 1.716 4.4488 1.053 1.1292 2.49 1.8087 4.053 1.8087 1.562 0 3.015-.6794 4.062-1.8054 1.047-1.1325 1.703-2.6952 1.703-4.4521Zm-93.1228-.4174c-.9349-.4465-1.9945-.7733-3.051-1.1292-.9732-.3333-1.9593-.6148-2.6636-.9869-.3554-.1909-.6307-.3947-.81-.6212-.1824-.2265-.2721-.4594-.2753-.7733 0-.4303.1249-.7765.333-1.0871.3169-.4595.8483-.8186 1.4278-1.0484.5731-.2329 1.1941-.3429 1.6391-.3429 1.3126 0 2.1418.4433 2.7789.9027.3137.2297.5794.4659.8323.6568.1281.1003.2498.1909.3906.2589.1313.0647.2881.1197.4578.1197.1089 0 .2145-.0194.3138-.0615.1056-.0421.1953-.1035.2817-.178.0832-.0808.1569-.1779.2081-.2847.0448-.11.0672-.2265.0672-.3365 0-.2071-.064-.4012-.1601-.5856-.176-.3203-.445-.6277-.7875-.9383-.509-.4595-1.1813-.893-1.9049-1.2231-.7267-.33-1.5046-.5532-2.2442-.5532-1.7191 0-3.1534.3947-4.1938 1.1195-.5443.3785-1.0213.7927-1.3574 1.3654-.3426.5727-.5347 1.2812-.5603 2.2034v.1229c-.0032.893.2817 1.6307.7299 2.2099.6787.8704 1.6872 1.3881 2.6764 1.7569.9861.3689 1.9753.5889 2.5964.7992.8772.2944 1.8088.6147 2.4907 1.0386.3394.2168.6115.4497.7972.7053.1792.2621.2817.5339.2881.8769v.0259c0 .4982-.1473.8865-.3874 1.2198-.3618.4982-.9604.8606-1.5975 1.0936-.6339.2265-1.2966.3203-1.7192.3203-1.4982 0-2.5003-.3656-3.2302-.7312-.365-.1845-.6595-.3657-.9284-.521-.1313-.0744-.2561-.1423-.3874-.1941-.1281-.0518-.2625-.0874-.4162-.0874-.0928 0-.1953.0162-.2913.055-.0961.0421-.1825.0971-.2561.1683-.0993.0971-.1889.2103-.2497.3365-.0609.1262-.0897.2621-.0897.4012 0 .2297.0833.4368.2049.6277.1889.275.4674.5177.8132.7636.3585.2427.7843.4789 1.2741.715 1.0917.521 2.4876.7928 3.5504.8089h.0032c1.652 0 3.0766-.385 4.2771-1.278 1.175-.893 1.9049-2.2228 1.9049-3.7241 0-.8251-.1921-1.524-.525-2.0967-.5059-.8671-1.3222-1.4398-2.2539-1.8895h.0033ZM136.116 7.39172c-.317 0-.608.13265-.816.3462-.208.21031-.343.50475-.343.82506V30.4871c0 .3203.132.6147.343.8218.208.2071.499.3462.816.3462.657 0 1.188-.5209 1.191-1.1648V8.55651c-.003-.64387-.534-1.17126-1.191-1.17126v.00647Zm53.266 15.10678v.1165c0 .3235-.144.6147-.362.8056-.215.1941-.496.2945-.8.2977h-12.985c.329 3.2032 2.862 5.5684 5.881 5.591h.765c.999.0033 1.972-.3462 2.83-.9221.858-.5727 1.601-1.3719 2.122-2.252.109-.1876.263-.33.429-.4173.173-.0939.356-.1392.541-.1392.205 0 .41.055.589.1618l.013.0065.013.0097c.327.2426.528.6083.528 1.0127 0 .2071-.054.4142-.163.6051v.0064l-.006.0033c-.727 1.1648-1.716 2.2293-2.891 2.9993-1.178.7733-2.542 1.2619-4.005 1.2619h-.778c-2.28-.0162-4.338-.9901-5.824-2.5464-1.482-1.5498-2.394-3.6788-2.394-6.0213 0-2.3426.919-4.5395 2.414-6.1023 1.495-1.5595 3.569-2.527 5.868-2.527 2.298 0 4.165.8833 5.625 2.3264s2.414 3.4491 2.583 5.7043l.007.0162v.0032Zm-2.536-1.1066c-.659-2.6984-3.003-4.6203-5.679-4.6171-2.744 0-5.055 1.8799-5.772 4.6171h11.451ZM72.7825 14.484c-1.812 0-3.4672.7151-4.6997 1.854v-.6795c0-.3138-.1153-.605-.3202-.8186-.1953-.2103-.4866-.3526-.8035-.3526-.317 0-.6275.1326-.8324.3494-.2049.2136-.3266.508-.3266.8218v15.178l.0481.0485v.0065c.0128.0485.0448.1068.08.1585.1569.2815.4162.4951.7363.5889l.0448.013h.2498c.1664 0 .3329-.0356.493-.1101.1312-.0647.2561-.1682.3553-.3009h.0032s.016-.0258.0288-.0388c.0065 0 .0097-.0065.0129-.0129.0608-.0809.112-.1618.144-.2395.032-.0906.0545-.1779.0705-.2426l.0096-.0421v-9.1145c.032-1.304.5634-2.4817 1.415-3.3391.8452-.8574 2.0041-1.3848 3.2847-1.3848 1.2805 0 2.4651.5306 3.307 1.3848.8452.8542 1.3574 2.0287 1.3574 3.3261v8.9496c0 .3267.1377.6309.3458.838.2145.207.5058.33.81.33.3041 0 .5986-.123.8131-.33.2145-.2071.3458-.5113.3458-.838v-8.9496c0-3.8632-3.1214-7.047-6.9823-7.0502l.0096-.0033Zm23.0118 2.5205c1.4631 1.566 2.3499 3.7144 2.3531 6.0473-.0032 2.3296-.8932 4.478-2.3531 6.044-1.4502 1.566-3.4767 2.5528-5.7305 2.5528s-4.2643-.9901-5.721-2.5528c-1.4566-1.566-2.3594-3.7144-2.3594-6.044 0-2.3296.9028-4.4813 2.3594-6.0473 1.4567-1.5627 3.4864-2.5528 5.721-2.5528s4.2771.9901 5.7305 2.5528Zm.0288 6.0473c0-1.7408-.6627-3.3197-1.7159-4.4586-1.0597-1.1422-2.4907-1.8378-4.0498-1.8378-1.5591 0-2.9934.6989-4.0498 1.8378-1.0533 1.1389-1.716 2.7178-1.716 4.4586 0 1.7407.6627 3.3035 1.716 4.4359 1.0564 1.1357 2.4939 1.8216 4.0498 1.8216 1.5559 0 2.9965-.6859 4.0498-1.8216 1.0532-1.1324 1.7159-2.6952 1.7159-4.4359Zm24.9839-8.4675h-.006s-.004-.0064-.007-.0064c-.131-.0583-.278-.0906-.416-.0906-.227 0-.445.0712-.634.1909-.192.1229-.355.3041-.451.5306v.0065l-4.421 12.2239-3.407-8.1924h-.006c-.096-.233-.266-.411-.461-.5339-.195-.123-.423-.1909-.663-.1909-.24 0-.448.0744-.637.1941-.189.123-.358.2977-.454.5274l-3.413 8.2021-4.444-12.2206h-.003c-.077-.2362-.237-.4206-.423-.5436-.192-.1229-.413-.1909-.643-.1941-.147 0-.295.0291-.4354.0906h-.0064l-.0064.0064c-.413.1942-.666.6148-.6692 1.071 0 .1424.0289.2847.0833.4271l5.4651 14.8317v.0065c.041.11.102.22.192.3268.064.0777.157.1424.256.1941.019.0162.045.0421.09.068.044.0291.105.0485.163.0582.096.0324.227.0809.4.0809.221 0 .426-.0809.611-.2006.173-.1165.327-.2912.41-.5144l.013-.0097 3.458-8.351 3.46 8.3154h.004c.08.2232.22.3947.381.5176.172.1295.365.2104.566.2427h.144c.138 0 .272-.0259.384-.0712.119-.0453.215-.1067.295-.1682.186-.1424.33-.3397.419-.5598v-.0064l5.43-14.7671c.054-.1423.08-.2815.08-.4271 0-.4529-.266-.8833-.701-1.0709l.003.0064Z" fill="#fff"/></g><path d="M270.949 16.5528v-5.2493c-.298-.0458-.642-.0917-1.078-.1375-.435-.023-.825-.0459-1.169-.0459-1.513 0-2.865.4126-4.057 1.2149-1.192.8252-2.017 1.9714-2.499 3.4613h-.275v-4.5157h-6.074v25.1919h6.258V22.1688c0-1.1003.252-2.063.779-2.9112.527-.8481 1.238-1.5128 2.132-1.9713.894-.4814 1.925-.7106 3.072-.7106.091-.0229 2.911-.0229 2.911-.0229ZM320.85 13.6646c-1.1-1.0544-2.384-1.8338-3.828-2.3381-1.444-.5043-2.98-.7564-4.584-.7564-2.499 0-4.699.5501-6.556 1.6733-1.857 1.1232-3.301 2.659-4.333 4.6533-1.031 1.9943-1.535 4.3095-1.535 6.9226 0 2.682.504 4.9972 1.535 6.9685 1.032 1.9714 2.499 3.4843 4.402 4.5616 1.902 1.0774 4.172 1.6046 6.808 1.6046 2.04 0 3.851-.298 5.432-.9169 1.582-.596 2.889-1.4671 3.897-2.5673 1.009-1.1003 1.719-2.4069 2.086-3.8969l-5.776-.6418c-.275.7106-.688 1.3295-1.215 1.8109-.528.4813-1.169.8481-1.903 1.1003-.733.2521-1.536.3667-2.453.3667-1.352 0-2.521-.2751-3.53-.8481-1.008-.5502-1.788-1.3754-2.338-2.4298-.55-1.0315-.825-2.2464-.825-3.6676h18.292v-1.8568c0-2.2464-.321-4.1719-.962-5.7994-.642-1.5358-1.513-2.8882-2.614-3.9427Zm-14.693 7.6103c.069-1.0086.321-1.9255.802-2.7965.527-.9628 1.284-1.7421 2.224-2.3381.962-.596 2.063-.894 3.323-.894 1.192 0 2.224.2521 3.118.7794.894.5272 1.582 1.2378 2.086 2.1318.504.8939.756 1.9255.779 3.0945h-12.332v.0229ZM290.663 11.4182v14.1891c0 1.3066-.275 2.4069-.848 3.2779-.55.8711-1.261 1.5359-2.132 1.9714-.871.4355-1.765.6647-2.682.6647-1.49 0-2.705-.4813-3.622-1.4441-.917-.9627-1.375-2.2693-1.375-3.8968V11.4182h-6.258v15.6562c0 2.063.367 3.828 1.123 5.2722.757 1.4441 1.788 2.5673 3.118 3.3237 1.329.7565 2.865 1.1462 4.607 1.1462 1.994 0 3.668-.4585 5.043-1.3754 1.376-.9169 2.338-2.1089 2.957-3.553h.275v4.6075h6.052V11.4182h-6.258ZM362.937 14.8567c-.642-1.1461-1.49-2.063-2.544-2.7278-1.055-.6647-2.201-1.1461-3.484-1.4441-1.261-.298-2.545-.4355-3.828-.4355-7.404 0-9.811 4.6762-10.201 5.5472h-.275v-4.4928c-.275-.0458-.642-.0917-1.077-.1375-.436-.023-.826-.0459-1.169-.0459-1.513 0-2.866.4126-4.058 1.2149-1.192.8023-2.017 1.9714-2.498 3.4613h-.275v-4.5157h-6.075v25.1919h6.258V22.169c0-1.1003.252-2.063.779-2.9111.528-.8482 1.238-1.5129 2.132-1.9714.894-.4584 1.926-.7106 3.072-.7106H348.725c.23-.2292.482-.4584.78-.6647.894-.6419 2.109-.9857 3.644-.9857 1.444 0 2.568.3438 3.347 1.0544.779.6877 1.169 1.6734 1.169 2.957v.0917c0 .5731-.229 1.0086-.665 1.2837-.435.2751-1.146.4814-2.109.596-.962.1375-2.223.2751-3.782.4355-1.283.1375-2.544.3439-3.736.6418-1.215.298-2.292.7336-3.232 1.3066-.963.5731-1.719 1.3295-2.27 2.2923-.55.9627-.825 2.1547-.825 3.6218 0 1.6962.39 3.1174 1.169 4.2865.78 1.1461 1.834 2.0401 3.187 2.6132 1.352.596 2.865.894 4.538.894 1.376 0 2.59-.1834 3.622-.5731 1.032-.3668 1.88-.8711 2.567-1.49.688-.6189 1.215-1.2836 1.605-2.0172h.206v3.553h6.029V19.1432c-.069-1.7192-.39-3.1404-1.032-4.2865Zm-5.295 12.3324c0 .9627-.252 1.8338-.756 2.6361-.505.8023-1.215 1.467-2.132 1.9484-.917.4814-2.017.7335-3.278.7335-1.307 0-2.384-.275-3.209-.8481-.848-.5731-1.261-1.4212-1.261-2.5444 0-.7794.206-1.4212.642-1.9255.435-.5043 1.009-.894 1.742-1.1691.734-.275 1.582-.4813 2.499-.596.412-.0458.894-.1146 1.467-.2063.573-.0687 1.123-.1604 1.719-.275.573-.0917 1.1-.2293 1.559-.3439.458-.1375.802-.275.985-.4355v3.0258h.023ZM246.582 11.2807v5.1576-5.1576h-6.281V9.97412v1.30658h6.281ZM252.199 31.2236v5.1347h-3.943c-1.421 0-2.728-.2292-3.897-.7106-1.261-.5043-2.246-1.3066-2.98-2.384-.733-1.0773-1.1-2.4298-1.077-4.0343V17.5388h6.281v10.682c0 .8252.137 1.4441.389 1.8796s.596.7335 1.032.894c.435.1605.894.2292 1.398.2292h2.797Z" fill="#fff"/><path d="M252.865 11.2808h-6.281v6.2808h6.281v-6.2808ZM246.584 5h-6.281v6.2808h6.281V5Z" fill="#fff"/><defs><clipPath id="clip0_8940_75041"><path fill="#fff" d="M0 .5h195.3v45H0z"/></clipPath></defs></svg>