<?xml version="1.0" encoding="utf-8"?>
<!-- Generator: Adobe Illustrator 25.2.3, SVG Export Plug-In . SVG Version: 6.00 Build 0)  -->
<svg version="1.2" baseProfile="tiny-ps" xmlns="http://www.w3.org/2000/svg" xmlns:xlink="http://www.w3.org/1999/xlink" viewBox="0 0 216 216" overflow="visible" xml:space="preserve">
<title>TSI Incorporated</title>
<g id="New_logo_-_not_used" display="none">
	<path display="inline" fill="#010101" d="M89.31,102.38l0.76-4.52l-1.35,0.77c-3.21,1.83-4.34,5.97-2.51,9.18l5.59,9.79l2.56-15.23
		H89.31z M123.01,97.81l-4.73-8.29c-1.84-3.22-5.97-4.35-9.18-2.51l-18.92,10.8h15.65l-0.53,3.15c1.38-2.14,3.84-3.62,7.77-3.62
		c5.66,0,7.19,2.86,6.57,6.56l-0.1,0.57h-5.45c0.19-1.14,0.2-1.99-0.04-2.52c-0.24-0.57-0.74-0.84-1.58-0.84
		c-1.42,0-2.4,0.84-2.69,2.59c-0.84,5.01,9.91,2.49,8.49,10.97c-0.92,5.45-4.31,7.64-9.49,7.64c-4.11,0-7.7-1.24-6.86-6.26
		l0.26-1.55h5.45l-0.14,0.84c-0.3,1.82-0.03,3.19,1.92,3.19c1.99,0,2.81-1.48,3.04-2.86c0.87-5.18-9.94-2.29-8.44-11.27
		c0.12-0.7,0.3-1.37,0.55-2.02h-4.55l-3.27,19.45H94.2l3.64,6.37c1.83,3.22,5.97,4.35,9.18,2.51l15.57-8.88h-4.72l4.04-24.02H123.01
		z M129.91,109.9l-3.38-5.94l-2.91,17.27l3.78-2.16C130.62,117.25,131.75,113.12,129.91,109.9z"/>
</g>
<g id="Tag_Line" display="none">
</g>
<g id="Current_logo_TM" display="none">
	<g display="inline">
		<text transform="matrix(1 0 0 1 112.8359 130.8288)" font-family="'Helvetica-Bold'" font-size="4.2701px">TM</text>
		<path d="M90.15,101.23l0.65-3.47l-2.71,1.54c0,0-1.3,0.74-2.12,2.13c-0.03,0.05-0.06,0.11-0.09,0.17
			c-0.64,1.19-0.91,2.83,0.24,4.85l0.48,0.84l0.09,0.15l3.47,6.11l0.36,0.63l1.31,2.3l2.72-14.75h-4.48L90.15,101.23z M122.15,97.03
			l-0.77-1.35l-0.83-1.47l-2.23-3.93l-0.9-1.58c0,0-2.59-4.56-7.15-1.97l-6.36,3.61l-3.5,1.98l-6.89,3.91L93,96.52h12.44l-0.09,0.49
			l-0.82,4.38l-0.06,0.34h-4.57l-3.62,19.64l-0.06,0.34h-1.43l1.77,3.13l0.73,1.29l1.42,2.51c0,0,2.59,4.56,7.15,1.97l5.56-3.15
			l4.73-2.68l4.04-2.29l1.17-0.66h-3.81l0.09-0.49L122.15,97.03z M108.34,122.08c-2.21,0-4.21-0.88-5.5-2.41
			c-1.22-1.46-1.69-3.37-1.31-5.39l0.06-0.33h5.49l-0.09,0.48c-0.13,0.71-0.01,1.31,0.36,1.75c0.42,0.5,1.13,0.78,2,0.78
			c1.57,0,3.02-1.18,3.3-2.68c0.4-2.16-1.06-2.85-3.18-3.59c-1.5-0.52-2.91-1.01-3.96-2.34c-1.03-1.31-1.44-3.16-1.09-4.95
			c0.73-4,4.58-7.14,8.76-7.14c1.97,0,3.77,0.81,4.95,2.22c1.16,1.39,1.6,3.19,1.24,5.06l-0.06,0.33h-5.43l0.06-0.46
			c0.08-0.57-0.06-1.07-0.39-1.44c-0.34-0.38-0.85-0.59-1.45-0.59c-1.21,0-2.22,0.9-2.46,2.2c-0.26,1.3,0.62,1.89,2.24,2.48
			l0.5,0.19c1.39,0.51,2.83,1.03,3.89,2.1c1.58,1.44,2.14,3.34,1.69,5.81C117.19,118.53,112.86,122.08,108.34,122.08z
			 M130.69,112.64c-0.1-0.47-0.27-0.96-0.54-1.48c-0.05-0.09-0.09-0.19-0.15-0.28l-2.26-3.99l-0.99-1.75l-0.54-0.96l-3.09,16.63
			l2.67-1.51l2.25-1.27c0,0,0.54-0.31,1.15-0.9C130.09,116.23,131.13,114.71,130.69,112.64z"/>
	</g>
</g>
<g id="Current_logo__xAE_">
	<g>
		<g>
			<path d="M35.51,77.81l2.64-14.04L27.2,69.99c0,0-5.27,3-8.58,8.61c-0.13,0.22-0.25,0.45-0.38,0.67
				c-2.61,4.83-3.67,11.44,0.98,19.64l1.93,3.41l0.35,0.61l14.02,24.73l1.44,2.54l5.29,9.33l11.01-59.71H35.14L35.51,77.81z
				 M165.02,60.81l-3.11-5.48l-3.37-5.95l-9.02-15.91l-3.64-6.4c0,0-10.47-18.45-28.92-7.99L91.25,33.67l-14.15,8.02L49.2,57.51
				l-2.15,1.22h50.33l-0.38,1.99l-3.33,17.71l-0.26,1.38h-18.5l-14.66,79.48l-0.25,1.37h-5.78l7.18,12.65l2.96,5.21l5.77,10.16
				c0,0,10.46,18.46,28.91,7.99l22.48-12.76l19.15-10.87l16.36-9.28l4.73-2.69h-15.4l0.36-1.99L165.02,60.81z M109.15,162.19
				c-8.94,0-17.06-3.56-22.26-9.76c-4.95-5.9-6.84-13.64-5.31-21.81l0.25-1.34h22.21l-0.37,1.94c-0.53,2.85-0.02,5.3,1.47,7.09
				c1.71,2.03,4.58,3.15,8.08,3.15c6.36,0,12.23-4.76,13.36-10.84c1.63-8.73-4.31-11.52-12.86-14.52
				c-6.05-2.09-11.77-4.07-16.03-9.45c-4.17-5.29-5.81-12.79-4.41-20.05c2.96-16.19,18.53-28.88,35.46-28.88
				c7.96,0,15.26,3.27,20.03,8.99c4.69,5.6,6.48,12.9,5.03,20.49l-0.26,1.35H131.6l0.24-1.87c0.3-2.32-0.24-4.33-1.57-5.82
				c-1.37-1.55-3.45-2.39-5.86-2.39c-4.9,0-8.99,3.64-9.95,8.89c-1.06,5.26,2.53,7.67,9.08,10.05l2.04,0.75
				c5.62,2.06,11.43,4.19,15.74,8.49c6.41,5.83,8.65,13.52,6.83,23.53C144.94,147.83,127.44,162.19,109.15,162.19z M199.58,123.96
				c-0.4-1.89-1.1-3.89-2.19-6c-0.19-0.37-0.38-0.75-0.6-1.13l-9.15-16.14l-4.01-7.07l-2.2-3.88l-12.51,67.29l10.8-6.12l9.09-5.16
				c0,0,2.2-1.26,4.66-3.65C197.13,138.52,201.34,132.35,199.58,123.96z"/>
		</g>
		<g>
			<path d="M154.31,178.71c6.06,0,10.85,4.73,10.85,10.69c0,6.01-4.76,10.74-10.83,10.74c-6.09,0-10.88-4.7-10.88-10.74
				C143.45,183.41,148.24,178.71,154.31,178.71z M154.31,198.35c4.93,0,8.7-3.85,8.7-8.93c0-5.04-3.77-8.93-8.67-8.93
				c-4.93,0-8.73,3.86-8.73,8.9C145.6,194.5,149.35,198.35,154.31,198.35z M150.2,183.24h4.7c2.95,0,4.36,1.13,4.36,3.51
				c0,1.98-0.99,3-3.2,3.4l3.51,5.44h-2.1l-3.26-5.36h-2.15v5.36h-1.87V183.24z M154.31,188.66c2.27,0,3-0.48,3-2.02
				c0-1.22-0.88-1.81-2.69-1.81h-2.55v3.83H154.31z"/>
		</g>
	</g>
</g>
</svg>
