<?xml version="1.0" encoding="UTF-8" standalone="yes"?>
<svg version="1.2" viewBox="0 0 216 216" xml:space="preserve" baseProfile="tiny-ps" xmlns="http://www.w3.org/2000/svg">
  <title>bimi-svg-tiny-12-ps</title>
  <g id="svg22"/>
  <g id="Слой_2_00000183945178158646945540000013140996508017929604_">
    <polygon points="104.93,149.821 83.75,178 60.365,178 92.555,133.176 &#x9;" fill="#0E6CF1"/>
    <polygon points="174.725,158.567 160.525,177.455 60.565,38 84.151,38 122.854,89.689 123.284,90.234 &#xA;&#x9;&#x9;123.675,89.689 160.325,38.545 174.525,57.433 136.69,107.595 136.471,107.9 136.69,108.205 &#x9;" fill="#0E6CF1"/>
    <polygon points="155.235,38 123.265,82.423 110.669,65.778 131.667,38 &#x9;" fill="#2437BF"/>
    <polygon points="155.435,178 131.868,178 92.745,125.909 92.335,125.355 91.924,125.928 55.093,177.427 &#xA;&#x9;&#x9;41.275,158.157 78.908,108.205 79.128,107.9 78.908,107.595 41.275,57.433 55.303,38.545 &#x9;" fill="#2437BF"/>
  </g>
</svg>