<?xml version="1.0" encoding="utf-8"?>
<!-- Generator: Adobe Illustrator 19.2.1, SVG Export Plug-In . SVG Version: 6.00 Build 0)  -->
<svg version="1.1" id="Layer_1" xmlns="http://www.w3.org/2000/svg" xmlns:xlink="http://www.w3.org/1999/xlink" x="0px" y="0px"
	 viewBox="0 0 192.5 73.5" style="enable-background:new 0 0 192.5 73.5;" xml:space="preserve">
<style type="text/css">
	.st0{display:none;}
	.st1{display:inline;fill:#00AEEF;}
	.st2{display:inline;}
	.st3{fill:#00AEEF;}
	.st4{fill:#FFFFFF;}
</style>
<text transform="matrix(1 0 0 1 106.4988 -168.2353)" style="display:none;fill:#00AEEF; font-family:'REZ'; font-size:32.2973px;">clearlyIP</text>
<g class="st0">
	<g class="st2">
		<polygon class="st3" points="182.6,-191.2 182.6,-188.2 184.9,-188.2 184.9,-191.2 184.6,-191.2 		"/>
		<polygon class="st3" points="182.6,-186.6 182.6,-171.2 184.9,-171.2 184.9,-186.6 184.6,-186.6 		"/>
		<path class="st3" d="M202.4-182.1c-0.4-1-1-1.9-1.8-2.7c-0.8-0.8-1.7-1.4-2.7-1.8c-1-0.4-2-0.6-3.2-0.6c-1.1,0-2.2,0.2-3.2,0.6
			c-0.8,0.3-1.5,0.8-2.2,1.4v-1.4H187v20.8h2.4v-0.3v-6.4c0.7,0.6,1.4,1,2.2,1.4c1,0.4,2.1,0.6,3.2,0.6c1.1,0,2.2-0.2,3.2-0.6
			c1-0.4,1.9-1,2.7-1.8c0.8-0.8,1.4-1.7,1.8-2.7c0.4-1,0.6-2,0.6-3.2C203-180,202.8-181.1,202.4-182.1z M197-173.4
			c-0.7,0.3-1.5,0.4-2.3,0.4c-0.8,0-1.6-0.1-2.3-0.4c-0.7-0.3-1.3-0.7-1.9-1.3l0,0c-0.5-0.5-0.9-1-1.2-1.6v-5.2
			c0.3-0.6,0.7-1.1,1.2-1.6l0,0l0,0c0.6-0.6,1.2-1,1.9-1.3c0.7-0.3,1.5-0.4,2.3-0.4c0.8,0,1.6,0.1,2.3,0.4c0.7,0.3,1.3,0.7,1.9,1.3
			l0,0c0.6,0.6,1,1.2,1.3,1.9c0.3,0.7,0.4,1.5,0.4,2.3c0,0.8-0.1,1.6-0.4,2.3c-0.3,0.7-0.7,1.3-1.3,1.9
			C198.3-174.1,197.7-173.7,197-173.4z"/>
	</g>
	<g class="st2">
		<path class="st3" d="M103.8-184.6c0.7-0.7,1.5-1.3,2.4-1.6c0.9-0.4,1.8-0.5,2.7-0.5c0.9,0,1.8,0.2,2.7,0.5
			c0.9,0.4,1.7,0.9,2.4,1.6l1,1l-2,2l-1-1c-0.4-0.4-0.9-0.8-1.5-1c-0.5-0.2-1.1-0.3-1.7-0.3c-0.6,0-1.1,0.1-1.7,0.3
			c-0.5,0.2-1,0.5-1.5,1c-0.4,0.4-0.8,0.9-1,1.4c-0.2,0.5-0.3,1.1-0.3,1.7c0,0.6,0.1,1.1,0.3,1.7c0.2,0.5,0.5,1,1,1.5
			c0.9,0.9,1.9,1.3,3.1,1.3c0.6,0,1.1-0.1,1.7-0.3c0.5-0.2,1-0.5,1.4-1l1-1l2,2l-1,1c-0.7,0.7-1.5,1.3-2.4,1.6
			c-0.9,0.4-1.8,0.5-2.7,0.5c-0.9,0-1.8-0.2-2.7-0.5c-0.9-0.4-1.7-0.9-2.4-1.6c-0.7-0.7-1.2-1.5-1.6-2.4c-0.3-0.9-0.5-1.8-0.5-2.7
			c0-0.9,0.2-1.9,0.5-2.7C102.5-183.1,103.1-183.9,103.8-184.6z"/>
		<path class="st3" d="M119.2-192.6v20.5h-2.9v-20.5H119.2z"/>
		<path class="st3" d="M160.3-186.8v2.9h-1.5c-0.6,0-1.2,0.1-1.7,0.3c-0.5,0.2-1,0.5-1.4,0.9c-0.4,0.4-0.7,0.9-0.9,1.4
			c-0.2,0.5-0.3,1.1-0.3,1.7v7.3h-2.9v-7.3c0-1,0.2-2,0.6-2.8c0.4-0.9,0.9-1.6,1.6-2.3c0.7-0.7,1.5-1.2,2.3-1.6
			c0.9-0.4,1.8-0.6,2.8-0.6H160.3z"/>
		<path class="st3" d="M164-192.6v20.5h-2.9v-20.5H164z"/>
		<path class="st3" d="M131.7-177.3l2,2l-1,1c-0.7,0.7-1.5,1.2-2.4,1.6c-0.9,0.4-1.8,0.6-2.8,0.6s-1.9-0.2-2.8-0.6
			c-0.9-0.4-1.7-0.9-2.4-1.6c-0.7-0.7-1.2-1.5-1.6-2.4c-0.3-0.9-0.5-1.8-0.5-2.7c0-0.9,0.2-1.8,0.5-2.7c0.3-0.9,0.9-1.7,1.6-2.4
			c0.7-0.7,1.5-1.3,2.4-1.6c0.9-0.4,1.8-0.5,2.7-0.5c0.9,0,1.8,0.2,2.7,0.5c0.9,0.4,1.7,0.9,2.4,1.6l1,1l-8.1,8.1
			c0.8,0.4,1.7,0.5,2.6,0.4c0.9-0.1,1.7-0.6,2.4-1.3L131.7-177.3z M124.5-182.5c-0.9,0.9-1.3,1.9-1.3,3.1c0,0.7,0.2,1.3,0.5,1.9
			c0.3-0.3,0.7-0.7,1.2-1.2c0.5-0.5,1.1-1.1,1.7-1.7c0.6-0.6,1.2-1.2,1.7-1.7c0.6-0.5,1-1,1.3-1.3c-0.8-0.4-1.7-0.6-2.6-0.4
			C126-183.6,125.2-183.2,124.5-182.5z"/>
		<g>
			<path class="st3" d="M142.2-186.7c1,0,2,0.2,2.8,0.6c0.9,0.4,1.6,0.9,2.3,1.6c0.7,0.7,1.2,1.4,1.6,2.3c0.4,0.9,0.6,1.8,0.6,2.8
				v7.3h-7.3c-1,0-1.9-0.2-2.8-0.6c-0.9-0.4-1.7-0.9-2.3-1.6c-0.7-0.7-1.2-1.5-1.6-2.3c-0.4-0.9-0.6-1.8-0.6-2.8c0-1,0.2-2,0.6-2.8
				c0.4-0.9,0.9-1.6,1.6-2.3c0.7-0.7,1.5-1.2,2.3-1.6C140.3-186.5,141.2-186.7,142.2-186.7z M146.6-175v-4.4c0-0.6-0.1-1.2-0.3-1.7
				c-0.2-0.5-0.5-1-0.9-1.4c-0.4-0.4-0.9-0.7-1.4-0.9c-0.5-0.2-1.1-0.3-1.7-0.3c-0.6,0-1.2,0.1-1.7,0.3c-0.5,0.2-1,0.5-1.4,0.9
				c-0.4,0.4-0.7,0.9-0.9,1.4c-0.2,0.5-0.3,1.1-0.3,1.7c0,0.6,0.1,1.2,0.3,1.7c0.2,0.5,0.5,1,0.9,1.4c0.4,0.4,0.9,0.7,1.4,0.9
				c0.5,0.2,1.1,0.3,1.7,0.3H146.6z"/>
			<g>
				<circle class="st3" cx="139.9" cy="-180.7" r="0.6"/>
				<circle class="st3" cx="142.5" cy="-180.7" r="0.6"/>
				<path class="st3" d="M140.1-179.4c0.1,0.4,0.5,0.8,1.1,0.8s1-0.3,1.1-0.8H140.1z"/>
			</g>
		</g>
		<path class="st3" d="M180.3-185.9h-2.8v7.1c0,0.6-0.1,1.2-0.3,1.7c-0.2,0.5-0.5,1-0.9,1.4c-0.4,0.4-0.8,0.7-1.4,0.9
			c-0.5,0.2-1.1,0.3-1.7,0.3c-0.6,0-1.2-0.1-1.7-0.3c-0.5-0.2-1-0.5-1.4-0.9c-0.4-0.4-0.7-0.8-0.9-1.4c-0.2-0.5-0.3-1.1-0.3-1.7
			v-7.1h-2.8v7.1c0,1,0.2,1.9,0.6,2.8c0.4,0.9,0.9,1.6,1.5,2.3c0.7,0.7,1.4,1.2,2.3,1.5c0.9,0.4,1.8,0.6,2.8,0.6
			c0.8,0,1.6-0.1,2.3-0.4c0.7-0.3,1.4-0.6,2-1.1c0,0.3-0.1,0.5-0.1,0.8c-0.1,0.6-0.4,1-0.7,1.5c-0.3,0.4-0.7,0.8-1.2,1.1
			c-0.5,0.3-1,0.5-1.6,0.6l-1,0.1l-0.4,0c-1.1,0.1-2.4,0.1-3.9-0.1c-1.6-0.2-3.3-0.5-5.3-1.1c-2.4-0.7-4.8-1.1-7.2-1.2
			c-2.4-0.1-4.7,0-6.9,0.3c-3.9,0.5-7.5,1.6-10.8,2.9c0,0,0,0,0,0c-0.2-0.3-0.4-0.4-0.7-0.5c-0.2-0.1-0.4-0.1-0.7-0.1
			c-0.9,0-1.7-0.1-2.6-0.1c-0.4,0-0.8,0-1.2,0c0,0-0.1,0-0.1,0c-0.1,0.3-0.2,0.7-0.4,1c0,0,0,0,0,0c1.3,0,2.6,0,4,0.1c0,0,0,0-0.1,0
			c-0.3,0.2-0.6,0.4-0.8,0.5l-3.2,0l0,0.5l2.4,0c-0.9,0.6-1.8,1.2-2.8,1.8c-0.2,0.1-0.4,0.3-0.5,0.6c-0.1,0.2-0.2,0.4-0.2,0.6
			c-1.7-0.2-3.5-0.5-5.2-0.7c0,0,0,0,0,0c0.7-0.4,1.5-0.8,2.2-1.2c0,0,0,0,0,0c-0.1,0.2-0.2,0.4-0.2,0.6c0.7,0.1,1.5,0.2,2.2,0.3
			c0.8-2.1,1.5-4.3,2.3-6.4c-0.1,0-0.2,0-0.2,0c-0.5,0-0.9,0-1.4,0c-0.2,0-0.4,0-0.6,0c0,0,0,0,0,0c-0.2,0.5-0.4,1-0.6,1.5
			c-0.3,0.7-0.6,1.5-0.8,2.2c0,0,0,0-0.1,0.1c-1.2,0.7-2.4,1.3-3.6,2c-0.4,0.2-0.9,0.8-0.8,1.5c0,0.1,0,0.1,0,0.2c0.2,1,0.4,2,0.5,3
			c0,0.3,0.2,0.5,0.4,0.7c0.2,0.2,0.6,0.4,0.9,0.4c1.2,0.2,2.5,0.4,3.7,0.5c0.3,0,0.7,0.1,1,0.1c0.3,0,0.7,0,1-0.1
			c0.4-0.1,0.7-0.2,1-0.4c0.2-0.1,0.5-0.3,0.7-0.5c1.5-1.1,3-2.2,4.6-3.4c0.4-0.3,0.6-0.7,0.6-1.1c0,0,0,0,0-0.1
			c3.1-1.4,6.6-2.6,10.4-3.2c2.1-0.4,4.2-0.5,6.4-0.5c2.2,0,4.4,0.3,6.6,0.9c2.1,0.5,4,0.9,5.8,1c1.7,0.1,3.1,0,4.7-0.1l1.5-0.2
			c0.8-0.2,1.7-0.5,2.5-0.9c0.8-0.5,1.4-0.9,2-1.7c0.6-0.7,1-1.4,1.2-2.4c0.1-0.5,0.2-0.8,0.2-1.6c0,0,0,0,0,0l0-0.2
			c0-0.1,0-0.1,0-0.2l0,0L180.3-185.9z M131.4-159.8c-0.2,0-0.4,0-0.5-0.1c0,0-0.1,0-0.1-0.1c-0.1-0.7-0.2-1.3-0.4-2c0,0,0,0,0,0
			c0,0,0,0,0,0c-0.2,0-0.4,0-0.6-0.1c0.1,0.7,0.2,1.4,0.4,2.1c0,0,0,0-0.1,0c-0.2,0-0.3-0.1-0.5-0.1c0,0-0.1,0-0.1-0.1
			c-0.1-0.7-0.2-1.4-0.4-2.1c0,0,0,0,0-0.1c-0.2,0-0.4,0-0.6-0.1c0.1,0.7,0.3,1.4,0.4,2.2c-0.2,0-0.4,0-0.6-0.1c0,0,0,0,0-0.1
			c-0.1-0.7-0.2-1.4-0.4-2.1c0,0,0,0-0.1-0.1c-0.2,0-0.3,0-0.5-0.1c0,0,0,0-0.1,0c0.1,0.7,0.3,1.4,0.4,2.2c0,0,0,0,0,0
			c-0.2,0-0.3-0.1-0.5-0.1c0,0-0.1,0-0.1-0.1c-0.1-0.7-0.2-1.4-0.4-2c0,0,0,0,0,0c0,0,0,0,0,0c-0.1,0-0.1,0-0.2,0
			c-0.1,0-0.2,0-0.3,0c0.1,0.7,0.3,1.4,0.4,2.1c-0.2,0-0.3,0-0.5-0.1c0,0-0.1,0-0.1-0.1c0,0,0,0,0-0.1c-0.2-1-0.4-2.1-0.5-3.1
			c0,0,0-0.1,0-0.2c0,0,0,0,0.1,0c1.9,0.2,3.7,0.5,5.6,0.7c0,0,0.1,0,0.1,0.1c0.2,1.1,0.4,2.1,0.6,3.2c0,0,0,0,0,0
			C131.8-159.8,131.6-159.8,131.4-159.8z"/>
	</g>
</g>
<g class="st0">
	<g class="st2">
		<polygon class="st3" points="182.4,-189.6 182.4,-186.7 184.8,-186.7 184.8,-189.6 184.5,-189.6 		"/>
		<polygon class="st3" points="182.4,-185.1 182.4,-169.6 184.8,-169.6 184.8,-185.1 184.5,-185.1 		"/>
		<path class="st3" d="M202.2-180.5c-0.4-1-1-1.9-1.8-2.7c-0.8-0.8-1.7-1.4-2.7-1.8c-1-0.4-2-0.6-3.2-0.6c-1.1,0-2.2,0.2-3.2,0.6
			c-0.8,0.3-1.5,0.8-2.2,1.4v-1.4h-2.4v20.8h2.4v-0.3v-6.4c0.7,0.6,1.4,1,2.2,1.4c1,0.4,2.1,0.6,3.2,0.6c1.1,0,2.2-0.2,3.2-0.6
			c1-0.4,1.9-1,2.7-1.8c0.8-0.8,1.4-1.7,1.8-2.7c0.4-1,0.6-2,0.6-3.2C202.8-178.5,202.6-179.5,202.2-180.5z M196.8-171.8
			c-0.7,0.3-1.5,0.4-2.3,0.4c-0.8,0-1.6-0.1-2.3-0.4c-0.7-0.3-1.3-0.7-1.9-1.3l0,0c-0.5-0.5-0.9-1-1.2-1.6v-5.2
			c0.3-0.6,0.7-1.1,1.2-1.6l0,0l0,0c0.6-0.6,1.2-1,1.9-1.3c0.7-0.3,1.5-0.4,2.3-0.4c0.8,0,1.6,0.1,2.3,0.4c0.7,0.3,1.3,0.7,1.9,1.3
			l0,0c0.6,0.6,1,1.2,1.3,1.9c0.3,0.7,0.4,1.5,0.4,2.3c0,0.8-0.1,1.6-0.4,2.3c-0.3,0.7-0.7,1.3-1.3,1.9
			C198.2-172.6,197.5-172.1,196.8-171.8z"/>
	</g>
	<path class="st1" d="M103.6-183.1c0.7-0.7,1.5-1.3,2.4-1.6c0.9-0.4,1.8-0.5,2.7-0.5c0.9,0,1.8,0.2,2.7,0.5c0.9,0.4,1.7,0.9,2.4,1.6
		l1,1l-2,2l-1-1c-0.4-0.4-0.9-0.8-1.5-1c-0.5-0.2-1.1-0.3-1.7-0.3c-0.6,0-1.1,0.1-1.7,0.3c-0.5,0.2-1,0.5-1.5,1
		c-0.4,0.4-0.8,0.9-1,1.4c-0.2,0.5-0.3,1.1-0.3,1.7c0,0.6,0.1,1.1,0.3,1.7c0.2,0.5,0.5,1,1,1.5c0.9,0.9,1.9,1.3,3.1,1.3
		c0.6,0,1.1-0.1,1.7-0.3c0.5-0.2,1-0.5,1.4-1l1-1l2,2l-1,1c-0.7,0.7-1.5,1.3-2.4,1.6c-0.9,0.4-1.8,0.5-2.7,0.5
		c-0.9,0-1.8-0.2-2.7-0.5c-0.9-0.4-1.7-0.9-2.4-1.6c-0.7-0.7-1.2-1.5-1.6-2.4c-0.3-0.9-0.5-1.8-0.5-2.7s0.2-1.9,0.5-2.7
		C102.4-181.5,102.9-182.4,103.6-183.1z"/>
	<path class="st1" d="M119-191.1v20.5h-2.9v-20.5H119z"/>
	<path class="st1" d="M160.1-185.2v2.9h-1.5c-0.6,0-1.2,0.1-1.7,0.3c-0.5,0.2-1,0.5-1.4,0.9c-0.4,0.4-0.7,0.9-0.9,1.4
		c-0.2,0.5-0.3,1.1-0.3,1.7v7.3h-2.9v-7.3c0-1,0.2-2,0.6-2.8c0.4-0.9,0.9-1.6,1.6-2.3c0.7-0.7,1.5-1.2,2.3-1.6
		c0.9-0.4,1.8-0.6,2.8-0.6H160.1z"/>
	<path class="st1" d="M163.9-191.1v20.5H161v-20.5H163.9z"/>
	<path class="st1" d="M131.6-175.7l2,2l-1,1c-0.7,0.7-1.5,1.2-2.4,1.6c-0.9,0.4-1.8,0.6-2.8,0.6c-1,0-1.9-0.2-2.8-0.6
		c-0.9-0.4-1.7-0.9-2.4-1.6c-0.7-0.7-1.2-1.5-1.6-2.4c-0.3-0.9-0.5-1.8-0.5-2.7c0-0.9,0.2-1.8,0.5-2.7c0.3-0.9,0.9-1.7,1.6-2.4
		c0.7-0.7,1.5-1.3,2.4-1.6c0.9-0.4,1.8-0.5,2.7-0.5c0.9,0,1.8,0.2,2.7,0.5c0.9,0.4,1.7,0.9,2.4,1.6l1,1l-8.1,8.1
		c0.8,0.4,1.7,0.5,2.6,0.4c0.9-0.1,1.7-0.6,2.4-1.3L131.6-175.7z M124.3-181c-0.9,0.9-1.3,1.9-1.3,3.1c0,0.7,0.2,1.3,0.5,1.9
		c0.3-0.3,0.7-0.7,1.2-1.2c0.5-0.5,1.1-1.1,1.7-1.7c0.6-0.6,1.2-1.2,1.7-1.7c0.6-0.5,1-1,1.3-1.3c-0.8-0.4-1.7-0.6-2.6-0.4
		C125.8-182.1,125-181.7,124.3-181z"/>
	<g class="st2">
		<path class="st3" d="M142.1-185.2c1,0,2,0.2,2.8,0.6c0.9,0.4,1.6,0.9,2.3,1.6c0.7,0.7,1.2,1.4,1.6,2.3c0.4,0.9,0.6,1.8,0.6,2.8
			v7.3h-7.3c-1,0-1.9-0.2-2.8-0.6c-0.9-0.4-1.7-0.9-2.3-1.6c-0.7-0.7-1.2-1.5-1.6-2.3c-0.4-0.9-0.6-1.8-0.6-2.8c0-1,0.2-2,0.6-2.8
			c0.4-0.9,0.9-1.6,1.6-2.3c0.7-0.7,1.5-1.2,2.3-1.6C140.1-185,141.1-185.2,142.1-185.2z M146.5-173.5v-4.4c0-0.6-0.1-1.2-0.3-1.7
			c-0.2-0.5-0.5-1-0.9-1.4c-0.4-0.4-0.9-0.7-1.4-0.9c-0.5-0.2-1.1-0.3-1.7-0.3c-0.6,0-1.2,0.1-1.7,0.3c-0.5,0.2-1,0.5-1.4,0.9
			c-0.4,0.4-0.7,0.9-0.9,1.4c-0.2,0.5-0.3,1.1-0.3,1.7c0,0.6,0.1,1.2,0.3,1.7c0.2,0.5,0.5,1,0.9,1.4c0.4,0.4,0.9,0.7,1.4,0.9
			c0.5,0.2,1.1,0.3,1.7,0.3H146.5z"/>
		<g>
			<circle class="st3" cx="139.7" cy="-179.1" r="0.6"/>
			<circle class="st3" cx="142.3" cy="-179.1" r="0.6"/>
			<path class="st3" d="M140-177.9c0.1,0.4,0.5,0.8,1.1,0.8s1-0.3,1.1-0.8H140z"/>
		</g>
	</g>
	<path class="st1" d="M180.1-184.4h-2.8v7.1c0,0.6-0.1,1.2-0.3,1.7c-0.2,0.5-0.5,1-0.9,1.4c-0.4,0.4-0.8,0.7-1.4,0.9
		c-0.5,0.2-1.1,0.3-1.7,0.3c-0.6,0-1.2-0.1-1.7-0.3c-0.5-0.2-1-0.5-1.4-0.9c-0.4-0.4-0.7-0.8-0.9-1.4c-0.2-0.5-0.3-1.1-0.3-1.7v-7.1
		h-2.8v7.1c0,1,0.2,1.9,0.6,2.8c0.4,0.9,0.9,1.6,1.5,2.3c0.7,0.7,1.4,1.2,2.3,1.5c0.9,0.4,1.8,0.6,2.8,0.6c0.8,0,1.6-0.1,2.3-0.4
		c0.7-0.3,1.4-0.6,2-1.1c0,0.3-0.1,0.5-0.1,0.8c-0.1,0.6-0.4,1-0.7,1.5c-0.3,0.4-0.7,0.8-1.2,1.1c-0.5,0.3-1,0.5-1.6,0.6l-1,0.1
		l-0.4,0c-1.1,0.1-2.4,0.1-3.9-0.1c-1.6-0.2-3.3-0.5-5.3-1.1c-2.4-0.7-4.8-1.1-7.2-1.2c-2.4-0.1-4.7,0-6.9,0.3
		c-3.9,0.5-7.5,1.6-10.8,2.9c0,0,0,0,0,0c-0.2-0.3-0.4-0.4-0.7-0.5c-0.2-0.1-0.4-0.1-0.7-0.1c-0.9,0-1.7-0.1-2.6-0.1
		c-0.4,0-0.8,0-1.2,0c0,0-0.1,0-0.1,0c-0.1,0.3-0.2,0.7-0.4,1c0,0,0,0,0,0c1.3,0,2.6,0,4,0.1c0,0,0,0-0.1,0
		c-0.3,0.2-0.6,0.4-0.8,0.5l-3.2,0l0,0.5l2.4,0c-0.9,0.6-1.8,1.2-2.8,1.8c-0.2,0.1-0.4,0.3-0.5,0.6c-0.1,0.2-0.2,0.4-0.2,0.6
		c-1.7-0.2-3.5-0.5-5.2-0.7c0,0,0,0,0,0c0.7-0.4,1.5-0.8,2.2-1.2c0,0,0,0,0,0c-0.1,0.2-0.2,0.4-0.2,0.6c0.7,0.1,1.5,0.2,2.2,0.3
		c0.8-2.1,1.5-4.3,2.3-6.4c-0.1,0-0.2,0-0.2,0c-0.5,0-0.9,0-1.4,0c-0.2,0-0.4,0-0.6,0c0,0,0,0,0,0c-0.2,0.5-0.4,1-0.6,1.5
		c-0.3,0.7-0.6,1.5-0.8,2.2c0,0,0,0-0.1,0.1c-1.2,0.7-2.4,1.3-3.6,2c-0.4,0.2-0.9,0.8-0.8,1.5c0,0.1,0,0.1,0,0.2c0.2,1,0.4,2,0.5,3
		c0,0.3,0.2,0.5,0.4,0.7c0.2,0.2,0.6,0.4,0.9,0.4c1.2,0.2,2.5,0.4,3.7,0.5c0.3,0,0.7,0.1,1,0.1c0.3,0,0.7,0,1-0.1
		c0.4-0.1,0.7-0.2,1-0.4c0.2-0.1,0.5-0.3,0.7-0.5c1.5-1.1,3-2.2,4.6-3.4c0.4-0.3,0.6-0.7,0.6-1.1c0,0,0,0,0-0.1
		c3.1-1.4,6.6-2.6,10.4-3.2c2.1-0.4,4.2-0.5,6.4-0.5c2.2,0,4.4,0.3,6.6,0.9c2.1,0.5,4,0.9,5.8,1c1.7,0.1,3.1,0,4.7-0.1l1.5-0.2
		c0.8-0.2,1.7-0.5,2.5-0.9c0.8-0.5,1.4-0.9,2-1.7c0.6-0.7,1-1.4,1.2-2.4c0.1-0.5,0.2-0.8,0.2-1.6c0,0,0,0,0,0l0-0.2
		c0-0.1,0-0.1,0-0.2l0,0L180.1-184.4z M131.3-158.2c-0.2,0-0.4,0-0.5-0.1c0,0-0.1,0-0.1-0.1c-0.1-0.7-0.2-1.3-0.4-2c0,0,0,0,0,0
		c0,0,0,0,0,0c-0.2,0-0.4,0-0.6-0.1c0.1,0.7,0.2,1.4,0.4,2.1c0,0,0,0-0.1,0c-0.2,0-0.3-0.1-0.5-0.1c0,0-0.1,0-0.1-0.1
		c-0.1-0.7-0.2-1.4-0.4-2.1c0,0,0,0,0-0.1c-0.2,0-0.4,0-0.6-0.1c0.1,0.7,0.3,1.4,0.4,2.2c-0.2,0-0.4,0-0.6-0.1c0,0,0,0,0-0.1
		c-0.1-0.7-0.2-1.4-0.4-2.1c0,0,0,0-0.1-0.1c-0.2,0-0.3,0-0.5-0.1c0,0,0,0-0.1,0c0.1,0.7,0.3,1.4,0.4,2.2c0,0,0,0,0,0
		c-0.2,0-0.3-0.1-0.5-0.1c0,0-0.1,0-0.1-0.1c-0.1-0.7-0.2-1.4-0.4-2c0,0,0,0,0,0c0,0,0,0,0,0c-0.1,0-0.1,0-0.2,0c-0.1,0-0.2,0-0.3,0
		c0.1,0.7,0.3,1.4,0.4,2.1c-0.2,0-0.3,0-0.5-0.1c0,0-0.1,0-0.1-0.1c0,0,0,0,0-0.1c-0.2-1-0.4-2.1-0.5-3.1c0,0,0-0.1,0-0.2
		c0,0,0,0,0.1,0c1.9,0.2,3.7,0.5,5.6,0.7c0,0,0.1,0,0.1,0.1c0.2,1.1,0.4,2.1,0.6,3.2c0,0,0,0,0,0
		C131.6-158.3,131.5-158.2,131.3-158.2z"/>
</g>
<g class="st0">
	<path class="st1" d="M-37.1-60.6c-0.1,1.5,1,2.7,2.4,3l6.7,1.1c1.4,0.2,2.8-0.6,3.2-2l1.2-4c2.1-0.2,4.3-0.6,6.3-1.3l2.8,3.1
		c1,1.1,2.6,1.3,3.8,0.4l5.5-3.9c1.2-0.8,1.5-2.4,0.8-3.7l-1.9-3.5c1.5-1.8,2.8-3.7,3.7-5.9l3.9,0.2c1.5,0.1,2.7-1,3-2.4l1.1-6.7
		c0.2-1.4-0.6-2.8-2-3.2l-3.8-1.1C-0.7-92.8-1.2-95-2-97.1l2.8-2.6c1.1-1,1.3-2.6,0.4-3.8l-3.9-5.5c-0.8-1.2-2.4-1.5-3.7-0.8
		l-3.5,1.9c-1.7-1.3-3.5-2.5-5.4-3.3l0.2-4c0.1-1.5-1-2.7-2.4-3l-6.7-1.1c-1.4-0.2-2.8,0.6-3.2,2l-1.1,3.9c-2.2,0.2-4.3,0.7-6.3,1.5
		l-2.8-3.1c-1-1.1-2.6-1.3-3.8-0.4l-5.5,3.9c-1.2,0.8-1.5,2.4-0.8,3.7l2.1,3.8c-1.4,1.7-2.5,3.6-3.4,5.6l-4.3-0.2
		c-1.5-0.1-2.7,1-3,2.4l-1.1,6.7c-0.2,1.4,0.6,2.8,2,3.2l4.3,1.3c0.2,2.1,0.7,4.1,1.4,6l-3.3,3c-1.1,1-1.3,2.6-0.4,3.8l3.9,5.5
		c0.8,1.2,2.4,1.5,3.7,0.8l3.9-2.2c1.5,1.2,3.2,2.3,5,3.2L-37.1-60.6z"/>
	<path class="st1" d="M-23.5-155.5c-0.7-1.2-2.3-1.7-3.6-1.1l-2.6,1.1c-1.3-1.2-2.7-2.3-4.2-3.1l0.4-2.8c0.2-1.4-0.7-2.8-2.1-3.1
		l-4.5-1.2c-1.4-0.3-2.8,0.4-3.3,1.7l-1,2.7c-1.8,0-3.5,0.3-5.3,0.8l-1.8-2.4c-0.9-1.1-2.5-1.5-3.7-0.7l-4,2.4
		c-1.2,0.7-1.7,2.3-1.1,3.6l1.3,2.8c-1.2,1.3-2.3,2.8-3.2,4.3l-3.1-0.4c-1.4-0.2-2.8,0.7-3.1,2.1l-1.2,4.5c-0.3,1.4,0.4,2.8,1.7,3.3
		l3,1.2c0,1.7,0.3,3.4,0.8,5l-2.5,1.9c-1.1,0.9-1.5,2.5-0.7,3.7l2.4,4c0.7,1.2,2.3,1.7,3.6,1.1l2.9-1.3c1.2,1.1,2.5,2.1,3.9,2.9
		l-0.4,3.2c-0.2,1.4,0.7,2.8,2.1,3.1l4.5,1.2c1.4,0.3,2.8-0.4,3.3-1.7l1.1-2.8c1.8,0,3.5-0.2,5.2-0.7l1.8,2.4
		c0.9,1.1,2.5,1.5,3.7,0.7l4-2.4c1.2-0.7,1.7-2.3,1.1-3.6l-1.2-2.6c1.4-1.3,2.5-2.9,3.4-4.5l2.7,0.4c1.4,0.2,2.8-0.7,3.1-2.1
		l1.2-4.5c0.3-1.4-0.4-2.8-1.7-3.3l-2.6-1c0-1.9-0.3-3.7-0.8-5.5l2.1-1.6c1.1-0.9,1.5-2.5,0.7-3.7L-23.5-155.5L-23.5-155.5z
		 M-53-142.6c1.2-4.9,6.2-7.9,11.1-6.6c4.9,1.2,7.9,6.2,6.6,11.1c-1.2,4.9-6.2,7.9-11.1,6.6C-51.3-132.7-54.2-137.7-53-142.6
		L-53-142.6z M-53-142.6"/>
	<path class="st1" d="M-74.3-89.8c1.4-0.1,2.8-0.5,4.2-0.9l1.3,1.5c1,1.1,2.6,1.2,3.8,0.4l2.3-1.7c1.2-0.9,1.5-2.4,0.8-3.7l-0.9-1.6
		c1-1.2,1.8-2.5,2.4-3.9l1.8,0.1c1.4,0.1,2.7-1,2.9-2.4l0.4-2.8c0.2-1.4-0.7-2.8-2-3.2l-1.7-0.5c-0.2-1.5-0.5-3-1.1-4.4l1.3-1.2
		c1.1-1,1.2-2.6,0.4-3.8l-1.7-2.3c-0.9-1.2-2.4-1.5-3.7-0.8l-1.6,0.9c-1.1-0.9-2.4-1.6-3.7-2.2l0.1-1.9c0.1-1.4-1-2.7-2.4-2.9
		l-2.8-0.4c-1.4-0.2-2.8,0.7-3.2,2l-0.5,1.8c-1.4,0.2-2.8,0.5-4.2,1l-1.4-1.5c-1-1.1-2.6-1.2-3.8-0.4l-2.3,1.7
		c-1.2,0.9-1.5,2.4-0.8,3.7l1,1.8c-0.9,1.2-1.7,2.4-2.2,3.8l-2.1-0.1c-1.4-0.1-2.7,1-2.9,2.4l-0.4,2.8c-0.2,1.4,0.7,2.8,2,3.2
		l2.1,0.6c0.2,1.4,0.5,2.7,1,4l-1.6,1.5c-1.1,1-1.2,2.6-0.4,3.8l1.7,2.3c0.9,1.2,2.4,1.5,3.7,0.8l1.9-1.1c1,0.8,2.2,1.5,3.4,2.1
		l-0.1,2.1c-0.1,1.4,1,2.7,2.4,2.9l2.8,0.4c1.4,0.2,2.8-0.7,3.2-2L-74.3-89.8z M-68.6-105.6c-0.6,4.1-4.4,6.9-8.5,6.2
		c-4.1-0.6-6.9-4.4-6.2-8.5c0.6-4.1,4.4-6.9,8.5-6.2C-70.8-113.5-68-109.7-68.6-105.6L-68.6-105.6z M-68.6-105.6"/>
	<g class="st2">
		<path class="st4" d="M-14.2-75.6V-88c0-1.7-0.3-3.3-1-4.8c-0.6-1.5-1.5-2.8-2.6-3.9c-1.1-1.1-2.4-2-3.9-2.6c-1.5-0.6-3.1-1-4.8-1
			c-1.7,0-3.3,0.3-4.8,1c-1.5,0.6-2.8,1.5-4,2.6c-1.1,1.1-2,2.4-2.6,3.9c-0.6,1.5-1,3.1-1,4.8c0,1.7,0.3,3.3,1,4.8
			c0.6,1.5,1.5,2.8,2.6,4c1.1,1.1,2.4,2,4,2.6c1.5,0.6,3.1,1,4.8,1H-14.2z"/>
		<g>
			<circle class="st3" cx="-33" cy="-91.4" r="1.6"/>
			<circle class="st3" cx="-25.7" cy="-91.4" r="1.6"/>
			<path class="st3" d="M-32.3-87.9c0.2,1.2,1.5,2.2,3,2.2s2.8-0.9,3-2.2H-32.3z"/>
		</g>
	</g>
</g>
<path class="st3" d="M-17.4,71.8"/>
<path class="st4" d="M34.3,10.3v24.8c0,2.2-0.4,4.3-1.3,6.3c-0.8,2-2,3.7-3.5,5.2c-1.5,1.5-3.2,2.7-5.2,3.5c-2,0.8-4.1,1.3-6.3,1.3
	c-2.2,0-4.3-0.4-6.3-1.3c-2-0.8-3.7-2-5.2-3.5c-1.5-1.5-2.6-3.2-3.5-5.2c-0.8-2-1.3-4.1-1.3-6.3V24h6.4v11.1c0,1.3,0.3,2.6,0.8,3.8
	c0.5,1.2,1.2,2.3,2.1,3.1c0.9,0.9,1.9,1.6,3.1,2.1c1.2,0.5,2.4,0.8,3.8,0.8c1.3,0,2.6-0.3,3.8-0.8c1.2-0.5,2.2-1.2,3.1-2.1
	c0.9-0.9,1.6-1.9,2.1-3.1c0.5-1.2,0.8-2.5,0.8-3.8V10.3H34.3z"/>
<path class="st4" d="M52.4,19.1c2.3,0,4.4,0.4,6.3,1.3c1.9,0.8,3.7,2,5.2,3.5c1.5,1.5,2.7,3.2,3.5,5.1c0.8,1.9,1.3,4.1,1.3,6.3
	c0,2.2-0.4,4.3-1.3,6.3c-0.8,2-2,3.7-3.5,5.2c-1.5,1.5-3.2,2.7-5.2,3.5c-2,0.8-4.1,1.3-6.3,1.3h-9.7v19.7h-6.4v-36
	c0-2.3,0.4-4.4,1.3-6.3c0.8-1.9,2-3.7,3.5-5.1c1.5-1.5,3.2-2.6,5.2-3.5C48.1,19.5,50.2,19.1,52.4,19.1z M56.3,44.3
	c1.2-0.5,2.2-1.2,3.1-2.1c0.9-0.9,1.6-1.9,2.1-3.1c0.5-1.2,0.8-2.5,0.8-3.8c0-1.3-0.3-2.6-0.8-3.8c-0.5-1.2-1.2-2.2-2.1-3.1
	c-0.9-0.9-1.9-1.6-3.1-2.1c-1.2-0.5-2.5-0.8-3.8-0.8c-1.3,0-2.6,0.3-3.8,0.8c-1.2,0.5-2.2,1.2-3.1,2.1c-0.9,0.9-1.6,1.9-2.1,3.1
	c-0.5,1.2-0.8,2.4-0.8,3.8v9.8h9.7C53.8,45.1,55.1,44.8,56.3,44.3z"/>
<path class="st3" d="M103.3,3v32.1c0,2.2-0.4,4.3-1.3,6.3c-0.8,2-2,3.7-3.5,5.2c-1.5,1.5-3.2,2.7-5.2,3.5c-2,0.8-4.1,1.3-6.3,1.3
	s-4.3-0.4-6.3-1.3c-2-0.8-3.7-2-5.2-3.5c-1.5-1.5-2.7-3.2-3.5-5.2c-0.8-2-1.3-4.1-1.3-6.3c0-2.3,0.4-4.4,1.3-6.3
	c0.8-1.9,2-3.7,3.5-5.1c1.5-1.5,3.2-2.6,5.2-3.5c2-0.8,4.1-1.3,6.3-1.3h9.8V3H103.3z M87.1,44.9c1.3,0,2.6-0.3,3.8-0.8
	s2.2-1.2,3.1-2.1c0.9-0.9,1.6-1.9,2.1-3.1c0.5-1.2,0.8-2.5,0.8-3.8v-9.7h-9.8c-1.3,0-2.6,0.3-3.8,0.8c-1.2,0.5-2.3,1.2-3.1,2.1
	c-0.9,0.9-1.6,1.9-2.1,3.1c-0.5,1.2-0.8,2.4-0.8,3.8c0,1.3,0.3,2.6,0.8,3.8c0.5,1.2,1.2,2.3,2.1,3.1c0.9,0.9,1.9,1.6,3.1,2.1
	C84.5,44.7,85.8,44.9,87.1,44.9z"/>
<g>
	<g>
		<circle class="st3" cx="117.2" cy="32.5" r="1.3"/>
		<circle class="st3" cx="123.2" cy="32.5" r="1.3"/>
		<path class="st3" d="M117.8,35.4c0.2,1,1.2,1.8,2.4,1.8s2.3-0.8,2.4-1.8H117.8z"/>
	</g>
	<path class="st3" d="M121.7,18.9c2.3,0,4.4,0.4,6.3,1.3c2,0.8,3.7,2,5.1,3.5c1.5,1.5,2.6,3.2,3.5,5.1c0.8,2,1.3,4.1,1.3,6.3v16.2
		h-16.2c-2.2,0-4.3-0.4-6.3-1.3c-2-0.8-3.7-2-5.2-3.5c-1.5-1.5-2.7-3.2-3.5-5.2c-0.8-2-1.3-4.1-1.3-6.3c0-2.3,0.4-4.4,1.3-6.3
		c0.8-1.9,2-3.7,3.5-5.1c1.5-1.5,3.2-2.6,5.2-3.5C117.4,19.3,119.5,18.9,121.7,18.9z M131.4,44.9v-9.8c0-1.3-0.3-2.6-0.8-3.8
		c-0.5-1.2-1.2-2.2-2.1-3.1c-0.9-0.9-1.9-1.6-3.1-2.1s-2.4-0.8-3.8-0.8c-1.3,0-2.6,0.3-3.8,0.8s-2.3,1.2-3.1,2.1
		c-0.9,0.9-1.6,1.9-2.1,3.1c-0.5,1.2-0.8,2.4-0.8,3.8c0,1.3,0.3,2.6,0.8,3.8c0.5,1.2,1.2,2.3,2.1,3.1c0.9,0.9,1.9,1.6,3.1,2.1
		s2.5,0.8,3.8,0.8H131.4z"/>
</g>
<path class="st3" d="M159.2,44.9v6.4H156c-2.2,0-4.3-0.4-6.3-1.3c-2-0.8-3.7-2-5.2-3.5c-1.5-1.5-2.7-3.2-3.5-5.2
	c-0.8-2-1.3-4.1-1.3-6.3v-17h6.4v5.1h10.5v6.4h-10.5v5.5c0,1.3,0.3,2.6,0.8,3.8c0.5,1.2,1.2,2.3,2.1,3.1c0.9,0.9,1.9,1.6,3.1,2.1
	s2.5,0.8,3.8,0.8H159.2z"/>
<path class="st3" d="M186.9,39.9l4.5,4.5l-2.2,2.2c-1.5,1.5-3.3,2.7-5.3,3.5c-2,0.8-4,1.2-6.2,1.2c-2.2,0-4.2-0.4-6.2-1.2
	c-2-0.8-3.7-2-5.3-3.5c-1.6-1.6-2.8-3.4-3.5-5.4c-0.8-2-1.2-4-1.2-6.1c0-2.1,0.4-4.1,1.2-6.1c0.8-2,2-3.8,3.5-5.3s3.4-2.8,5.4-3.6
	c2-0.8,4-1.2,6.1-1.2c2.1,0,4.1,0.4,6.1,1.2c2,0.8,3.8,2,5.4,3.6l2.2,2.2l-18,18c1.8,0.9,3.8,1.2,5.8,0.9c2-0.3,3.8-1.2,5.4-2.8
	L186.9,39.9z M170.8,28.3c-1.9,1.9-2.9,4.2-2.9,6.9c0,1.5,0.3,2.9,1,4.3c0.6-0.6,1.5-1.5,2.6-2.6c1.2-1.2,2.4-2.4,3.8-3.8
	c1.3-1.3,2.6-2.6,3.8-3.8c1.2-1.2,2.2-2.1,2.9-2.8c-1.8-0.9-3.8-1.2-5.8-0.9C174.1,25.9,172.3,26.8,170.8,28.3z"/>
<g>
	<path class="st4" d="M57.4,60.8c-0.2-0.3-0.5-0.6-0.8-0.8c-0.3-0.2-0.6-0.4-1-0.5c-0.4-0.1-0.8-0.2-1.2-0.2c-0.7,0-1.4,0.1-1.9,0.4
		c-0.5,0.3-1,0.6-1.3,1c-0.3,0.4-0.6,0.9-0.8,1.5c-0.2,0.5-0.2,1.1-0.2,1.7c0,0.6,0.1,1.1,0.2,1.7c0.2,0.6,0.4,1,0.8,1.5
		c0.3,0.4,0.8,0.8,1.3,1c0.5,0.3,1.2,0.4,1.9,0.4c0.5,0,1-0.1,1.4-0.3c0.4-0.2,0.8-0.4,1.1-0.7c0.3-0.3,0.5-0.7,0.7-1.1
		s0.3-0.8,0.4-1.3h1.1c-0.1,0.6-0.2,1.2-0.5,1.7c-0.3,0.5-0.6,1-1,1.3c-0.4,0.4-0.9,0.6-1.4,0.8c-0.5,0.2-1.1,0.3-1.8,0.3
		c-0.9,0-1.6-0.1-2.3-0.4c-0.7-0.3-1.2-0.7-1.7-1.2s-0.8-1.1-1-1.7c-0.2-0.7-0.3-1.3-0.3-2.1c0-0.7,0.1-1.4,0.3-2.1
		c0.2-0.7,0.5-1.2,1-1.7s1-0.9,1.7-1.2c0.7-0.3,1.4-0.4,2.3-0.4c0.5,0,1.1,0.1,1.6,0.2c0.5,0.1,1,0.4,1.4,0.7c0.4,0.3,0.8,0.6,1,1.1
		s0.5,0.9,0.5,1.5h-1.1C57.8,61.5,57.7,61.1,57.4,60.8z"/>
	<path class="st4" d="M65.6,61.7c0.5,0.2,0.9,0.5,1.2,0.9c0.3,0.4,0.6,0.8,0.7,1.3s0.3,1,0.3,1.5c0,0.5-0.1,1.1-0.3,1.5
		s-0.4,0.9-0.7,1.3s-0.7,0.6-1.2,0.9c-0.5,0.2-1,0.3-1.6,0.3c-0.6,0-1.2-0.1-1.6-0.3c-0.5-0.2-0.9-0.5-1.2-0.9s-0.6-0.8-0.7-1.3
		s-0.3-1-0.3-1.5c0-0.5,0.1-1.1,0.3-1.5s0.4-0.9,0.7-1.3c0.3-0.4,0.7-0.7,1.2-0.9s1-0.3,1.6-0.3C64.6,61.4,65.1,61.5,65.6,61.7z
		 M62.7,62.5c-0.4,0.2-0.6,0.4-0.9,0.7c-0.2,0.3-0.4,0.6-0.5,1c-0.1,0.4-0.2,0.8-0.2,1.2c0,0.4,0.1,0.8,0.2,1.2
		c0.1,0.4,0.3,0.7,0.5,1c0.2,0.3,0.5,0.5,0.9,0.7c0.4,0.2,0.8,0.3,1.2,0.3c0.5,0,0.9-0.1,1.2-0.3c0.4-0.2,0.6-0.4,0.9-0.7
		c0.2-0.3,0.4-0.6,0.5-1c0.1-0.4,0.2-0.8,0.2-1.2c0-0.4-0.1-0.8-0.2-1.2c-0.1-0.4-0.3-0.7-0.5-1c-0.2-0.3-0.5-0.5-0.9-0.7
		c-0.4-0.2-0.8-0.3-1.2-0.3C63.5,62.2,63.1,62.3,62.7,62.5z"/>
	<path class="st4" d="M70.3,61.6v1.3h0c0.2-0.5,0.5-0.8,1-1.1c0.5-0.3,1-0.4,1.6-0.4c0.6,0,1,0.1,1.4,0.2c0.4,0.1,0.7,0.3,0.9,0.6
		c0.2,0.2,0.4,0.6,0.5,0.9c0.1,0.4,0.1,0.8,0.1,1.2v4.9h-1v-4.7c0-0.3,0-0.6-0.1-0.9c-0.1-0.3-0.2-0.5-0.3-0.7
		c-0.2-0.2-0.4-0.4-0.6-0.5c-0.3-0.1-0.6-0.2-1-0.2s-0.7,0.1-1.1,0.2c-0.3,0.1-0.6,0.3-0.8,0.5c-0.2,0.2-0.4,0.5-0.5,0.8
		c-0.1,0.3-0.2,0.7-0.2,1v4.4h-1v-7.6H70.3z"/>
	<path class="st4" d="M80.9,61.6v0.8h-1.6v5.1c0,0.3,0,0.5,0.1,0.7c0.1,0.2,0.3,0.3,0.7,0.3c0.3,0,0.6,0,0.8,0v0.8
		c-0.1,0-0.3,0-0.4,0c-0.1,0-0.3,0-0.4,0c-0.7,0-1.1-0.1-1.4-0.4c-0.3-0.2-0.4-0.7-0.4-1.3v-5.2h-1.4v-0.8h1.4v-2.3h1v2.3H80.9z"/>
	<path class="st4" d="M83.2,61.6v1.8h0c0.3-0.6,0.6-1.1,1.2-1.4c0.5-0.3,1.2-0.5,1.9-0.5v0.9c-0.4,0-0.9,0-1.2,0.2s-0.7,0.3-0.9,0.6
		c-0.3,0.2-0.5,0.5-0.6,0.9c-0.1,0.3-0.2,0.7-0.2,1.1v4h-1v-7.6H83.2z"/>
	<path class="st4" d="M92,61.7c0.5,0.2,0.9,0.5,1.2,0.9c0.3,0.4,0.6,0.8,0.7,1.3s0.2,1,0.2,1.5c0,0.5-0.1,1.1-0.2,1.5
		s-0.4,0.9-0.7,1.3c-0.3,0.4-0.7,0.6-1.2,0.9c-0.5,0.2-1,0.3-1.6,0.3c-0.6,0-1.2-0.1-1.6-0.3c-0.5-0.2-0.9-0.5-1.2-0.9
		S87,67.4,86.8,67s-0.3-1-0.3-1.5c0-0.5,0.1-1.1,0.3-1.5s0.4-0.9,0.7-1.3c0.3-0.4,0.7-0.7,1.2-0.9s1-0.3,1.6-0.3
		C91,61.4,91.6,61.5,92,61.7z M89.2,62.5c-0.4,0.2-0.6,0.4-0.9,0.7c-0.2,0.3-0.4,0.6-0.5,1c-0.1,0.4-0.2,0.8-0.2,1.2
		c0,0.4,0.1,0.8,0.2,1.2c0.1,0.4,0.3,0.7,0.5,1c0.2,0.3,0.5,0.5,0.9,0.7c0.4,0.2,0.8,0.3,1.2,0.3c0.5,0,0.9-0.1,1.2-0.3
		c0.4-0.2,0.6-0.4,0.9-0.7c0.2-0.3,0.4-0.6,0.5-1c0.1-0.4,0.2-0.8,0.2-1.2c0-0.4-0.1-0.8-0.2-1.2c-0.1-0.4-0.3-0.7-0.5-1
		c-0.2-0.3-0.5-0.5-0.9-0.7c-0.4-0.2-0.8-0.3-1.2-0.3C89.9,62.2,89.5,62.3,89.2,62.5z"/>
	<path class="st4" d="M96.7,58.7v10.5h-1V58.7H96.7z"/>
	<path class="st4" d="M104.7,58.7l3.7,9.2l3.9-9.2h1.6v10.5h-1.1v-9.1h0l-3.8,9.1h-1l-3.7-9.1h0v9.1h-1.1V58.7H104.7z"/>
	<path class="st4" d="M116,62.8c0.2-0.3,0.4-0.6,0.7-0.8c0.3-0.2,0.6-0.4,1-0.5c0.4-0.1,0.8-0.1,1.3-0.1c0.4,0,0.7,0,1.1,0.1
		c0.4,0.1,0.7,0.2,1,0.4c0.3,0.2,0.5,0.4,0.7,0.7c0.2,0.3,0.3,0.7,0.3,1.2v4c0,0.4,0.2,0.6,0.6,0.6c0.1,0,0.2,0,0.3-0.1v0.8
		c-0.1,0-0.2,0-0.3,0s-0.2,0-0.3,0c-0.3,0-0.5,0-0.6-0.1c-0.2-0.1-0.3-0.2-0.4-0.3c-0.1-0.1-0.1-0.3-0.2-0.4s0-0.3,0-0.5h0
		c-0.2,0.2-0.4,0.5-0.5,0.7c-0.2,0.2-0.4,0.4-0.6,0.5s-0.5,0.2-0.8,0.3s-0.6,0.1-1,0.1c-0.4,0-0.7,0-1.1-0.1
		c-0.3-0.1-0.6-0.2-0.9-0.4s-0.4-0.4-0.6-0.7c-0.1-0.3-0.2-0.6-0.2-1c0-0.5,0.1-0.9,0.4-1.2c0.3-0.3,0.6-0.5,1-0.7
		c0.4-0.2,0.9-0.3,1.4-0.3c0.5-0.1,1-0.1,1.6-0.2c0.2,0,0.4,0,0.5-0.1s0.3-0.1,0.4-0.2s0.2-0.2,0.2-0.3c0.1-0.1,0.1-0.3,0.1-0.5
		c0-0.3-0.1-0.6-0.2-0.8c-0.1-0.2-0.3-0.4-0.5-0.5c-0.2-0.1-0.4-0.2-0.7-0.2c-0.3,0-0.5-0.1-0.8-0.1c-0.6,0-1.1,0.1-1.5,0.4
		c-0.4,0.3-0.6,0.7-0.6,1.3h-1C115.7,63.5,115.8,63.1,116,62.8z M120.9,65.1c-0.1,0.1-0.2,0.2-0.4,0.2s-0.3,0.1-0.5,0.1
		c-0.4,0.1-0.8,0.1-1.3,0.2c-0.4,0.1-0.8,0.1-1.2,0.2c-0.4,0.1-0.7,0.3-0.9,0.5c-0.2,0.2-0.4,0.5-0.4,0.9c0,0.2,0,0.4,0.1,0.6
		c0.1,0.2,0.2,0.3,0.4,0.5c0.2,0.1,0.4,0.2,0.6,0.3c0.2,0.1,0.4,0.1,0.7,0.1c0.4,0,0.7-0.1,1.1-0.2c0.3-0.1,0.6-0.3,0.9-0.5
		c0.3-0.2,0.5-0.5,0.6-0.7s0.2-0.6,0.2-1L120.9,65.1L120.9,65.1z"/>
	<path class="st4" d="M124.9,61.6v1.3h0c0.2-0.5,0.5-0.8,1-1.1c0.5-0.3,1-0.4,1.6-0.4c0.6,0,1,0.1,1.4,0.2c0.4,0.1,0.7,0.3,0.9,0.6
		c0.2,0.2,0.4,0.6,0.5,0.9c0.1,0.4,0.1,0.8,0.1,1.2v4.9h-1v-4.7c0-0.3,0-0.6-0.1-0.9c-0.1-0.3-0.2-0.5-0.3-0.7
		c-0.2-0.2-0.4-0.4-0.6-0.5s-0.6-0.2-1-0.2c-0.4,0-0.8,0.1-1.1,0.2c-0.3,0.1-0.6,0.3-0.8,0.5c-0.2,0.2-0.4,0.5-0.5,0.8
		c-0.1,0.3-0.2,0.7-0.2,1v4.4h-1v-7.6H124.9z"/>
	<path class="st4" d="M132.5,62.8c0.2-0.3,0.4-0.6,0.7-0.8c0.3-0.2,0.6-0.4,1-0.5c0.4-0.1,0.8-0.1,1.3-0.1c0.4,0,0.7,0,1.1,0.1
		c0.4,0.1,0.7,0.2,1,0.4c0.3,0.2,0.5,0.4,0.7,0.7c0.2,0.3,0.3,0.7,0.3,1.2v4c0,0.4,0.2,0.6,0.6,0.6c0.1,0,0.2,0,0.3-0.1v0.8
		c-0.1,0-0.2,0-0.3,0s-0.2,0-0.3,0c-0.3,0-0.5,0-0.6-0.1c-0.2-0.1-0.3-0.2-0.4-0.3c-0.1-0.1-0.1-0.3-0.2-0.4s0-0.3,0-0.5h0
		c-0.2,0.2-0.4,0.5-0.5,0.7c-0.2,0.2-0.4,0.4-0.6,0.5s-0.5,0.2-0.8,0.3s-0.6,0.1-1,0.1c-0.4,0-0.7,0-1.1-0.1
		c-0.3-0.1-0.6-0.2-0.9-0.4s-0.4-0.4-0.6-0.7c-0.1-0.3-0.2-0.6-0.2-1c0-0.5,0.1-0.9,0.4-1.2c0.3-0.3,0.6-0.5,1-0.7
		c0.4-0.2,0.9-0.3,1.4-0.3c0.5-0.1,1-0.1,1.6-0.2c0.2,0,0.4,0,0.5-0.1s0.3-0.1,0.4-0.2s0.2-0.2,0.2-0.3c0.1-0.1,0.1-0.3,0.1-0.5
		c0-0.3-0.1-0.6-0.2-0.8c-0.1-0.2-0.3-0.4-0.5-0.5c-0.2-0.1-0.4-0.2-0.7-0.2c-0.3,0-0.5-0.1-0.8-0.1c-0.6,0-1.1,0.1-1.5,0.4
		c-0.4,0.3-0.6,0.7-0.6,1.3h-1C132.3,63.5,132.4,63.1,132.5,62.8z M137.5,65.1c-0.1,0.1-0.2,0.2-0.4,0.2s-0.3,0.1-0.5,0.1
		c-0.4,0.1-0.8,0.1-1.3,0.2c-0.4,0.1-0.8,0.1-1.2,0.2c-0.4,0.1-0.7,0.3-0.9,0.5c-0.2,0.2-0.4,0.5-0.4,0.9c0,0.2,0,0.4,0.1,0.6
		c0.1,0.2,0.2,0.3,0.4,0.5c0.2,0.1,0.4,0.2,0.6,0.3c0.2,0.1,0.4,0.1,0.7,0.1c0.4,0,0.7-0.1,1.1-0.2c0.3-0.1,0.6-0.3,0.9-0.5
		c0.3-0.2,0.5-0.5,0.6-0.7s0.2-0.6,0.2-1L137.5,65.1L137.5,65.1z"/>
	<path class="st4" d="M147.1,70.1c-0.1,0.5-0.3,0.8-0.6,1.1s-0.7,0.6-1.1,0.7c-0.5,0.2-1,0.2-1.7,0.2c-0.4,0-0.8,0-1.2-0.1
		c-0.4-0.1-0.7-0.2-1-0.4s-0.6-0.4-0.8-0.7c-0.2-0.3-0.3-0.6-0.4-1h1c0.1,0.3,0.2,0.5,0.3,0.7c0.2,0.2,0.3,0.3,0.5,0.5
		s0.5,0.2,0.7,0.3c0.3,0.1,0.5,0.1,0.8,0.1c0.9,0,1.6-0.2,2-0.7s0.6-1.2,0.6-2.1v-1h0c-0.2,0.5-0.6,0.8-1,1.1
		c-0.4,0.3-1,0.4-1.6,0.4c-0.6,0-1.2-0.1-1.7-0.3c-0.5-0.2-0.8-0.5-1.1-0.8c-0.3-0.4-0.5-0.8-0.7-1.2s-0.2-1-0.2-1.5
		c0-0.5,0.1-1,0.2-1.5c0.2-0.5,0.4-0.9,0.7-1.2c0.3-0.3,0.7-0.6,1.1-0.8c0.5-0.2,1-0.3,1.6-0.3c0.3,0,0.6,0,0.9,0.1
		c0.3,0.1,0.5,0.2,0.7,0.3s0.4,0.3,0.6,0.5c0.2,0.2,0.3,0.4,0.4,0.6h0v-1.3h1v7C147.3,69.1,147.2,69.6,147.1,70.1z M144.8,68.1
		c0.3-0.2,0.6-0.4,0.8-0.7c0.2-0.3,0.4-0.6,0.5-1c0.1-0.4,0.2-0.7,0.2-1.1c0-0.4,0-0.7-0.1-1.1c-0.1-0.4-0.2-0.7-0.5-1
		s-0.5-0.5-0.8-0.7c-0.3-0.2-0.7-0.3-1.2-0.3s-0.9,0.1-1.2,0.3c-0.3,0.2-0.6,0.4-0.8,0.7c-0.2,0.3-0.4,0.6-0.5,1
		c-0.1,0.4-0.1,0.8-0.1,1.2c0,0.4,0.1,0.8,0.2,1.1c0.1,0.4,0.3,0.7,0.5,1c0.2,0.3,0.5,0.5,0.8,0.7c0.3,0.2,0.7,0.3,1.2,0.3
		C144.1,68.3,144.5,68.2,144.8,68.1z"/>
	<path class="st4" d="M149.9,66.7c0.1,0.4,0.3,0.7,0.5,1c0.2,0.3,0.5,0.5,0.8,0.7c0.3,0.2,0.7,0.3,1.2,0.3c0.7,0,1.3-0.2,1.7-0.5
		s0.7-0.8,0.8-1.4h1c-0.2,0.9-0.6,1.5-1.2,2s-1.3,0.7-2.4,0.7c-0.6,0-1.2-0.1-1.7-0.3c-0.5-0.2-0.8-0.5-1.1-0.9
		c-0.3-0.4-0.5-0.8-0.7-1.3s-0.2-1-0.2-1.5c0-0.5,0.1-1,0.2-1.5c0.1-0.5,0.4-0.9,0.7-1.3c0.3-0.4,0.7-0.7,1.1-0.9
		c0.5-0.2,1-0.3,1.7-0.3c0.6,0,1.2,0.1,1.7,0.4c0.5,0.2,0.8,0.6,1.1,1c0.3,0.4,0.5,0.9,0.6,1.4c0.1,0.5,0.2,1,0.2,1.6h-6.2
		C149.8,66,149.8,66.3,149.9,66.7z M154.8,63.9c-0.1-0.3-0.3-0.6-0.5-0.9c-0.2-0.2-0.5-0.5-0.8-0.6c-0.3-0.2-0.7-0.2-1.1-0.2
		c-0.4,0-0.8,0.1-1.1,0.2s-0.6,0.4-0.8,0.6c-0.2,0.2-0.4,0.5-0.5,0.9c-0.1,0.3-0.2,0.7-0.3,1h5.2C155,64.5,154.9,64.2,154.8,63.9z"
		/>
	<path class="st4" d="M158.2,61.6v1.3h0c0.3-0.5,0.6-0.8,1-1.1c0.4-0.3,1-0.4,1.6-0.4c0.5,0,1,0.1,1.4,0.4c0.4,0.2,0.7,0.6,0.9,1.1
		c0.2-0.5,0.6-0.9,1.1-1.1c0.5-0.2,1-0.4,1.5-0.4c1.8,0,2.7,0.9,2.7,2.7v5.1h-1v-5.1c0-0.6-0.1-1.1-0.4-1.4
		c-0.3-0.3-0.8-0.5-1.5-0.5c-0.4,0-0.8,0.1-1.1,0.2s-0.5,0.4-0.7,0.6c-0.2,0.3-0.3,0.5-0.4,0.9c-0.1,0.3-0.1,0.7-0.1,1v4.3h-1v-5.1
		c0-0.3,0-0.5-0.1-0.7c-0.1-0.2-0.2-0.4-0.3-0.6c-0.1-0.2-0.3-0.3-0.5-0.4c-0.2-0.1-0.5-0.1-0.8-0.1c-0.4,0-0.8,0.1-1.1,0.2
		c-0.3,0.1-0.6,0.3-0.8,0.6c-0.2,0.2-0.3,0.5-0.4,0.9c-0.1,0.3-0.1,0.7-0.1,1.1v4.2h-1v-7.6H158.2z"/>
	<path class="st4" d="M171.1,66.7c0.1,0.4,0.3,0.7,0.5,1c0.2,0.3,0.5,0.5,0.8,0.7c0.3,0.2,0.7,0.3,1.2,0.3c0.7,0,1.3-0.2,1.7-0.5
		s0.7-0.8,0.8-1.4h1c-0.2,0.9-0.6,1.5-1.2,2s-1.3,0.7-2.4,0.7c-0.6,0-1.2-0.1-1.7-0.3c-0.5-0.2-0.8-0.5-1.1-0.9
		c-0.3-0.4-0.5-0.8-0.7-1.3s-0.2-1-0.2-1.5c0-0.5,0.1-1,0.2-1.5c0.1-0.5,0.4-0.9,0.7-1.3c0.3-0.4,0.7-0.7,1.1-0.9
		c0.5-0.2,1-0.3,1.7-0.3c0.6,0,1.2,0.1,1.7,0.4c0.5,0.2,0.8,0.6,1.1,1c0.3,0.4,0.5,0.9,0.6,1.4c0.1,0.5,0.2,1,0.2,1.6h-6.2
		C170.9,66,171,66.3,171.1,66.7z M176,63.9c-0.1-0.3-0.3-0.6-0.5-0.9c-0.2-0.2-0.5-0.5-0.8-0.6c-0.3-0.2-0.7-0.2-1.1-0.2
		c-0.4,0-0.8,0.1-1.1,0.2s-0.6,0.4-0.8,0.6c-0.2,0.2-0.4,0.5-0.5,0.9c-0.1,0.3-0.2,0.7-0.3,1h5.2C176.2,64.5,176.1,64.2,176,63.9z"
		/>
	<path class="st4" d="M179.5,61.6v1.3h0c0.2-0.5,0.5-0.8,1-1.1c0.5-0.3,1-0.4,1.6-0.4c0.6,0,1,0.1,1.4,0.2c0.4,0.1,0.7,0.3,0.9,0.6
		c0.2,0.2,0.4,0.6,0.5,0.9c0.1,0.4,0.1,0.8,0.1,1.2v4.9h-1v-4.7c0-0.3,0-0.6-0.1-0.9c-0.1-0.3-0.2-0.5-0.3-0.7
		c-0.2-0.2-0.4-0.4-0.6-0.5s-0.6-0.2-1-0.2c-0.4,0-0.8,0.1-1.1,0.2c-0.3,0.1-0.6,0.3-0.8,0.5c-0.2,0.2-0.4,0.5-0.5,0.8
		c-0.1,0.3-0.2,0.7-0.2,1v4.4h-1v-7.6H179.5z"/>
	<path class="st4" d="M190.1,61.6v0.8h-1.6v5.1c0,0.3,0,0.5,0.1,0.7c0.1,0.2,0.3,0.3,0.7,0.3c0.3,0,0.6,0,0.8,0v0.8
		c-0.1,0-0.3,0-0.4,0c-0.1,0-0.3,0-0.4,0c-0.7,0-1.1-0.1-1.4-0.4c-0.3-0.2-0.4-0.7-0.4-1.3v-5.2h-1.4v-0.8h1.4v-2.3h1v2.3H190.1z"/>
</g>
<polygon class="st4" points="31.3,4 38.9,12.3 23.6,12.3 "/>
<path class="st3" d="M15.5,28.8c-0.4,0.2-0.9,0.5-1.2,0.8l-1-0.5c-0.3-0.2-0.7-0.1-0.9,0.2l-1,1.4c-0.2,0.3-0.2,0.7,0.1,0.9l0.8,0.7
	c-0.2,0.5-0.3,1-0.4,1.5L10.9,34c-0.3,0.1-0.6,0.4-0.5,0.8l0.3,1.6c0.1,0.4,0.4,0.6,0.7,0.6l1.1-0.1c0.2,0.5,0.5,1,0.8,1.4l-0.5,0.9
	c-0.2,0.3-0.1,0.7,0.2,0.9l1.4,1c0.3,0.2,0.7,0.2,0.9-0.1l0.7-0.8c0.5,0.2,1,0.3,1.6,0.4l0.3,1c0.1,0.3,0.4,0.6,0.8,0.5l1.6-0.3
	c0.4-0.1,0.6-0.4,0.6-0.7l0-1c0.5-0.2,0.9-0.5,1.3-0.8l0.8,0.5c0.3,0.2,0.7,0.1,0.9-0.2l1-1.3c0.2-0.3,0.2-0.7-0.1-0.9l-0.7-0.6
	c0.2-0.5,0.3-1.1,0.4-1.6l0.9-0.3c0.3-0.1,0.6-0.4,0.5-0.8l-0.3-1.6c-0.1-0.4-0.4-0.6-0.7-0.6l-1,0c-0.2-0.5-0.5-1-0.9-1.4l0.5-0.9
	c0.2-0.3,0.1-0.7-0.2-0.9l-1.4-1c-0.3-0.2-0.7-0.2-0.9,0.1l-0.7,0.8c-0.5-0.2-1-0.3-1.5-0.3l-0.3-1c-0.1-0.3-0.4-0.6-0.8-0.5
	L16,26.9c-0.4,0.1-0.6,0.4-0.6,0.7L15.5,28.8z M20.9,34c0.2,1.5-0.8,2.9-2.3,3.2c-1.5,0.2-2.9-0.8-3.2-2.3c-0.2-1.5,0.8-2.9,2.3-3.2
	C19.3,31.5,20.7,32.5,20.9,34L20.9,34z M20.9,34"/>
</svg>
