<?xml version="1.0" encoding="UTF-8" standalone="no"?>
<svg xmlns="http://www.w3.org/2000/svg" width="143.51" height="21.511" viewBox="0 0 143.51 21.511">
    <defs id="defs108">
        <style id="style91">
            .cls-1 {
                isolation: isolate;
            }

            .cls-2 {
                fill: #fff;
            }

            .cls-3 {
                fill: url(#linear-gradient);
            }

            .cls-4 {
                mix-blend-mode: multiply;
                opacity: 0.85;
            }

            .cls-5 {
                fill: url(#linear-gradient-2);
            }

            .cls-6 {
                fill: url(#linear-gradient-3);
            }

            .cls-7 {
                fill: #19c7c1;
            }
        </style>
        <linearGradient id="linear-gradient" x1="6642.87" y1="-4191.81" x2="6853.32" y2="-3844.33"
            gradientTransform="matrix(-0.41,0.91,0.91,0.41,6764.93,-4365.72)" gradientUnits="userSpaceOnUse">
            <stop offset="0.43" stop-color="#19c7c1" id="stop93" />
            <stop offset="1" stop-color="#037780" id="stop95" />
        </linearGradient>
        <linearGradient id="linear-gradient-2" x1="6804.68" y1="-4151.66" x2="6817.34" y2="-3937.96"
            gradientTransform="matrix(-0.41,0.91,0.91,0.41,6764.93,-4365.72)" gradientUnits="userSpaceOnUse">
            <stop offset="0" stop-color="#a6a8ab" id="stop98" />
            <stop offset="0.8" stop-color="#e6e7e8" id="stop100" />
        </linearGradient>
        <linearGradient id="linear-gradient-3" x1="6749.66" y1="-4221.69" x2="6956.57" y2="-3880.05"
            gradientTransform="matrix(-0.41,0.91,0.91,0.41,6764.93,-4365.72)" gradientUnits="userSpaceOnUse">
            <stop offset="0.41" stop-color="#19c7c1" id="stop103" />
            <stop offset="1" stop-color="#037780" id="stop105" />
        </linearGradient>
    </defs>
    <g class="cls-1" id="g135" transform="matrix(0.06230533,0,0,0.06267142,-2.6574066,-7.1188457)">
        <g id="Layer_3" data-name="Layer 3">
            <path class="cls-2"
                d="M 723.58,297.87 V 399.8 H 681.42 V 158 h 42.16 V 258.5 H 839.65 V 158 h 42.16 V 399.8 H 839.65 V 297.87 Z"
                id="path110" />
            <path class="cls-2"
                d="m 1134.89,378.89 a 127.93,127.93 0 0 1 -21.89,13.48 111.22,111.22 0 0 1 -25.8,8.63 151.42,151.42 0 0 1 -30.92,2.93 122.61,122.61 0 0 1 -49,-9.68 120,120 0 0 1 -38.87,-26.43 121.79,121.79 0 0 1 -25.74,-39.56 133.9,133.9 0 0 1 -0.17,-97.78 120.48,120.48 0 0 1 65.13,-66.84 q 22.8,-9.85 50.43,-9.85 a 152.17,152.17 0 0 1 30.24,2.77 123.76,123.76 0 0 1 25,7.76 117.89,117.89 0 0 1 21.08,11.93 165.39,165.39 0 0 1 18.32,15.2 l -27.3,31.44 a 136,136 0 0 0 -30.75,-21.77 q -16.25,-8.29 -37,-8.3 a 75.81,75.81 0 0 0 -32,6.74 79.68,79.68 0 0 0 -25.39,18.31 82.3,82.3 0 0 0 -16.53,27.13 94,94 0 0 0 -5.87,33.51 95.38,95.38 0 0 0 5.87,33.69 83.76,83.76 0 0 0 16.58,27.47 78.22,78.22 0 0 0 25.39,18.48 75.81,75.81 0 0 0 32,6.74 q 22.1,0 38,-8.47 a 149.46,149.46 0 0 0 31.44,-23 l 27.29,27.64 a 155.84,155.84 0 0 1 -19.54,17.83 z"
                id="path112" />
            <path class="cls-2" d="m 1199,158 h 42.15 v 203.5 h 127.14 v 38.3 H 1199 Z" id="path114" />
            <path class="cls-2"
                d="m 1554.48,233.61 q 2.41,5.2 8.83,9.69 6.42,4.49 17.66,8.28 11.27,3.81 28.57,7.95 a 274.85,274.85 0 0 1 33.79,10.7 q 14.72,5.89 24.42,14.35 a 56.77,56.77 0 0 1 14.72,19.69 c 3.34,7.5 5,16.29 5,26.43 q 0,17.28 -6.34,30.75 a 65,65 0 0 1 -17.64,22.8 77.67,77.67 0 0 1 -27.17,14.17 119.37,119.37 0 0 1 -34.86,4.83 152.46,152.46 0 0 1 -53.57,-9.5 146.09,146.09 0 0 1 -47.32,-29.19 l 25.56,-30.4 q 17.63,15.21 35.59,23.32 17.96,8.11 40.77,8.11 19.68,0 31.26,-8.28 11.58,-8.28 11.58,-22.47 a 29.31,29.31 0 0 0 -2.25,-11.75 c -1.5,-3.45 -4.28,-6.61 -8.31,-9.5 -4.03,-2.89 -9.59,-5.57 -16.64,-8.11 a 282.8,282.8 0 0 0 -27.53,-8 290,290 0 0 1 -34.47,-10 87.7,87.7 0 0 1 -25.28,-13.83 54.87,54.87 0 0 1 -15.6,-20 q -5.35,-11.74 -5.36,-28.68 a 66.39,66.39 0 0 1 6.16,-28.86 67.83,67.83 0 0 1 17,-22.28 74.82,74.82 0 0 1 26,-14.32 104.78,104.78 0 0 1 33.14,-5 q 26.58,0 47.84,7.77 a 142.18,142.18 0 0 1 39.91,22.64 L 1657.09,217 a 148.26,148.26 0 0 0 -32.83,-18.48 89.14,89.14 0 0 0 -32.82,-6.39 q -18.66,0 -29,8.46 -10.34,8.46 -10.36,20.55 a 29.06,29.06 0 0 0 2.4,12.47 z"
                id="path116" />
            <path class="cls-2"
                d="m 1910.6,345.56 a 94.84,94.84 0 0 1 -51.31,50.78 103.78,103.78 0 0 1 -77.57,0.18 94.87,94.87 0 0 1 -30.72,-20.38 95.59,95.59 0 0 1 -20,-104 95.27,95.27 0 0 1 20.38,-30.41 96.91,96.91 0 0 1 30.75,-20.56 98,98 0 0 1 38.87,-7.59 100.06,100.06 0 0 1 38.8,7.42 94.68,94.68 0 0 1 30.75,20.39 93.63,93.63 0 0 1 20.22,30.23 94.66,94.66 0 0 1 7.25,37 92.59,92.59 0 0 1 -7.42,36.94 z m -38.84,-59.08 a 59.28,59.28 0 0 0 -11.5,-18.82 53.8,53.8 0 0 0 -17.52,-12.8 54.08,54.08 0 0 0 -62.33,12.61 55,55 0 0 0 -11,18.48 66.61,66.61 0 0 0 -3.77,22.64 64.62,64.62 0 0 0 4.11,23 56.89,56.89 0 0 0 11.5,18.83 54.94,54.94 0 0 0 17.54,12.58 52.31,52.31 0 0 0 22.15,4.67 53.94,53.94 0 0 0 22.83,-4.67 53.16,53.16 0 0 0 17.35,-12.61 54.85,54.85 0 0 0 11,-18.48 66.51,66.51 0 0 0 3.78,-22.63 63.31,63.31 0 0 0 -4.14,-22.8 z"
                id="path118" />
            <path class="cls-2"
                d="m 2137.33,196.3 h -137.5 V 263 h 122 v 38.35 h -122 v 98.45 h -42.16 V 158 h 179.66 z"
                id="path120" />
            <path class="cls-2"
                d="m 2271.72,405 a 155.45,155.45 0 0 1 -11.41,23.85 62.39,62.39 0 0 1 -13.12,15.72 47.77,47.77 0 0 1 -15.9,8.81 64.94,64.94 0 0 1 -19.68,2.75 84.27,84.27 0 0 1 -23.33,-2.95 101.31,101.31 0 0 1 -19.86,-8.21 l 14.16,-31.33 a 70.68,70.68 0 0 0 11.92,5 41.69,41.69 0 0 0 12.61,1.91 q 9,0 14.86,-4.48 5.86,-4.48 11,-16.55 l -76,-182.13 h 44.57 l 51.82,135.44 47.33,-135.44 h 43.53 z"
                id="path122" />
            <polygon class="cls-3" points="151.14,214.17 198.29,113.59 546.5,113.81 499.35,214.41 " id="polygon124"
                style="fill:url(#linear-gradient)" />
            <g class="cls-4" id="g128">
                <polyline class="cls-5" points="198.29 113.59 403.04 212.64 246.13 214.81 198.29 113.59"
                    id="polyline126" style="fill:url(#linear-gradient-2)" />
            </g>
            <polygon class="cls-6" points="151.15,214.16 198.29,113.59 441.54,337.73 394.39,438.32 " id="polygon130"
                style="fill:url(#linear-gradient-3)" />
            <polygon class="cls-7" points="237.5,438.32 128.69,337.59 104,314.74 93.29,337.59 46.07,438.32 "
                id="polygon132" />
        </g>
    </g>
</svg>