<svg xmlns="http://www.w3.org/2000/svg" width="1737.459" height="642.635" xmlns:v="https://vecta.io/nano"><style><![CDATA[.B{color-interpolation-filters:sRGB}]]></style><g stroke="#000" fill="#444" stroke-width="21.176" class="B"><path fill-opacity="0" d="M792.847 222.353V81.176h863.435v550.871H792.847V490.871"/><path fill-opacity="0" d="M863.435 81.176V10.588h863.435v550.871h-70.588"/></g><path d="M0 421.482V252.635h31.835v69.035H86.4v-69.035h31.835v168.847H86.4v-69.459H31.835v69.459zm153.882 0v-28.941H194.4v-61.765h-37.624v-28.941h68.047v90.706h34.729v28.941zM232.306 266.4h0q0 4.871-1.835 9.035-1.835 4.235-4.941 7.271-3.176 3.035-7.341 4.8-4.235 1.835-8.824 1.835h0q-4.8 0-8.894-1.835-4.165-1.765-7.271-4.8-3.106-3.035-4.941-7.271-1.835-4.165-1.835-9.035h0q0-4.8 1.835-9.035 1.835-4.235 4.941-7.2 3.106-3.035 7.271-4.871 4.094-1.765 8.894-1.765h0q4.588 0 8.824 1.765 4.165 1.835 7.341 4.871 3.106 2.965 4.941 7.2 1.835 4.235 1.835 9.035zm152.4 167.153v-29.435h-4.376q-1.906 4.094-4.659 7.835-2.824 3.741-7.271 6.635-4.447 2.894-10.588 4.588-6.141 1.694-14.824 1.694h0q-11.082 0-20.612-4.024-9.529-3.953-16.659-11.788-7.129-7.835-11.082-19.2-4.024-11.294-4.024-26.047h0v-4.306q0-14.471 4.235-25.835 4.235-11.294 11.576-19.129 7.341-7.835 17.153-11.929 9.741-4.094 20.612-4.094h0q14.471 0 22.871 5.365 8.471 5.435 13.271 15.318h0 4.376v-17.365h30.353v149.082q0 8.188-5.153 13.482-5.224 5.294-13.412 5.294h0-80.541v-28.941h62.259q6.494 0 6.494-7.2zm-31.835-37.624h0q14.188 0 23.012-9.035 8.824-9.035 8.824-23.788h0v-2.894q0-14.682-8.824-23.718-8.824-9.035-23.012-9.035h0q-14.259 0-23.082 8.753-8.753 8.824-8.753 24h0v2.894q0 15.176 8.753 24 8.824 8.824 23.082 8.824zm124.941-36.635v62.188h-30.424V252.635h30.424v68.541h4.306q4.588-10.871 13.482-16.8 8.965-5.859 21.953-5.859h0q8.965 0 16.447 2.894 7.412 2.894 12.988 8.682 5.576 5.788 8.682 14.824 3.106 9.035 3.106 21.318h0v75.247h-30.353v-67.976q0-12.847-6.141-20.188-6.141-7.341-17.718-7.341h0q-13.553 0-20.188 9.035-6.565 9.035-6.565 24.282zm172.165 36.635h0q9.176 0 15.035-2.753 5.929-2.824 9.176-7.482 3.247-4.729 4.447-10.871 1.271-6.141 1.271-12.635h0v-4.376h31.835v4.376q0 30.141-15.812 46.376-15.812 16.306-45.953 16.306h0q-28.941 0-45.812-17.647-16.871-17.576-16.871-51.318h0v-37.624q0-16.165 4.306-29.082 4.376-12.918 12.565-21.671 8.188-8.824 19.765-13.553 11.576-4.659 26.047-4.659h0q14.965 0 26.541 4.306 11.576 4.376 19.412 12.565 7.835 8.188 11.788 19.765 4.024 11.576 4.024 26.047h0v4.306h-31.835V312q0-6.071-1.482-12.071-1.412-6-4.8-10.871-3.388-4.8-9.176-7.835-5.788-2.965-14.471-2.965h0q-7.976 0-13.765 2.965-5.788 3.035-9.6 8.188-3.882 5.224-5.718 12.071-1.765 6.918-1.765 14.4h0v42.424q0 8.188 1.694 15.035 1.624 6.918 5.294 12 3.6 5.012 9.529 7.835 5.859 2.753 14.329 2.753zm209.294-35.718v2.894q0 14.965-5.012 26.4-5.082 11.506-13.765 19.341-8.682 7.835-19.906 11.929-11.224 4.094-23.506 4.094h0q-12.282 0-23.506-4.094-11.224-4.094-19.906-11.929-8.682-7.835-13.765-19.341-5.012-11.435-5.012-26.4h0v-2.894q0-14.682 5.012-26.118 5.082-11.506 13.765-19.482 8.682-7.906 19.906-12 11.224-4.094 23.506-4.094h0q12.282 0 23.506 4.094 11.224 4.094 19.906 12 8.682 7.976 13.765 19.482 5.012 11.435 5.012 26.118zm-62.188 35.718h0q6.494 0 12.282-2.188 5.788-2.188 10.165-6.282 4.306-4.094 6.847-10.024 2.541-5.859 2.541-13.341h0v-4.8q0-7.482-2.541-13.412-2.541-5.929-6.847-10.024-4.376-4.094-10.165-6.282-5.788-2.118-12.282-2.118h0q-6.494 0-12.282 2.118-5.788 2.188-10.165 6.282-4.306 4.094-6.847 10.024-2.541 5.929-2.541 13.412h0v4.8q0 7.482 2.541 13.341 2.541 5.929 6.847 10.024 4.376 4.094 10.165 6.282 5.788 2.188 12.282 2.188zm122.965-36.635v62.188h-30.353V301.835h30.353v17.859h4.376q4.094-10.094 13.271-15.671 9.176-5.506 21.459-5.506h0q8.682 0 16.306 2.753 7.553 2.753 13.341 8.541 5.788 5.788 9.035 14.753 3.247 8.894 3.247 21.176h0v75.741h-30.353v-67.976q0-12.847-6.141-20.188-6.141-7.341-17.718-7.341h0q-13.553 0-20.188 9.035-6.635 9.035-6.635 24.282zm113.859-28.518v-28.941h35.435v-49.2h30.424v49.2h43.129v28.941h-43.129v54.565q0 7.2 6.494 7.2h0 32.329v28.941h-50.682q-8.188 0-13.341-5.294-5.224-5.294-5.224-13.482h0v-71.929zm265.553 40.8h-87.812q.212 5.294 2.541 9.741 2.259 4.447 6.282 7.694 3.953 3.318 9.176 5.082 5.153 1.835 10.941 1.835h0q11.365 0 17.365-4.024 6-3.953 8.682-9.459h0l26.047 14.471q-2.188 4.518-6 9.459-3.882 5.012-10.024 9.106-6.141 4.094-14.965 6.706-8.824 2.682-20.612 2.682h0q-13.553 0-24.635-4.376-11.082-4.306-19.129-12.494-8.118-8.188-12.565-20.047-4.447-11.788-4.447-26.753h0v-1.482q0-13.694 4.659-25.059 4.729-11.365 12.918-19.271 8.188-7.976 19.2-12.424 10.941-4.447 23.506-4.447h0q15.459 0 26.541 5.365 11.082 5.435 18.282 13.765 7.271 8.329 10.659 18.353 3.388 10.024 3.388 19.412h0zm-59.082-45.6h0q-11.576 0-18.847 5.929-7.2 5.859-9.388 13.624h0 56.4q-1.412-8.471-9.035-13.976-7.553-5.576-19.129-5.576zm149.224 19.765l22.235-43.906h33.529l-28.941 56.188v4.376l30.635 59.082h-35.012l-22.447-46.8h-4.306l-22.447 46.8h-34.941l30.635-59.082v-4.376l-29.224-56.188h33.812l22.165 43.906zm87.106-14.965v-28.941h35.435v-49.2h30.353v49.2h43.2v28.941h-43.2v54.565q0 7.2 6.565 7.2h0 32.329v28.941h-50.682q-8.188 0-13.412-5.294-5.153-5.294-5.153-13.482h0v-71.929z" class="B"/></svg>