<?xml version="1.0" encoding="UTF-8"?>
<svg width="1089px" height="113px" viewBox="0 0 1089 113" version="1.1" xmlns="http://www.w3.org/2000/svg" xmlns:xlink="http://www.w3.org/1999/xlink">
    <!-- Generator: Sketch 56 (81588) - https://sketch.com -->
    <title>Group 23</title>
    <desc>Created with Sketch.</desc>
    <defs>
        <polygon id="path-1" points="0.28427429 0.0560218627 76.6716973 0.0560218627 76.6716973 112.043725 0.28427429 112.043725"></polygon>
    </defs>
    <g id="Page-1" stroke="none" stroke-width="1" fill="none" fill-rule="evenodd">
        <g id="B02-Copy-cc" transform="translate(-423.000000, -537.000000)">
            <g id="Group-23" transform="translate(423.000001, 536.950000)">
                <path d="M263.717669,2.16678046 L263.717669,110.395153 L239.403594,110.395153 L239.403594,67.4172918 L195.952919,67.4172918 L195.952919,110.395153 L171.643537,110.395153 L171.643537,2.16678046 L195.952919,2.16678046 L195.952919,44.5169622 L239.403594,44.5169622 L239.403594,2.16678046 L263.717669,2.16678046 Z M296.964562,110.393335 L296.964562,2.16496195 L321.273944,2.16496195 L321.273944,110.393335 L296.964562,110.393335 Z M392.794739,52.2038657 C400.326306,52.2038657 405.976595,46.3992968 405.976595,38.7128626 C405.976595,30.8721483 400.326306,25.0628864 392.794739,25.0628864 L378.835616,25.0628864 L378.835616,52.2038657 L392.794739,52.2038657 Z M408.171713,70.8676519 L433.894841,110.395622 L403.617811,110.395622 L380.721587,73.3771967 L378.835616,73.3771967 L378.835616,110.395622 L354.526234,110.395622 L354.526234,2.16724975 L393.267551,2.16724975 C414.758242,2.16724975 430.91307,17.6943983 430.91307,38.3996094 C430.91307,53.7677849 421.813477,65.8497356 408.171713,70.8676519 Z M522.201253,87.4971113 L522.201253,110.396854 L458.986887,110.396854 L458.986887,2.16848165 L521.415187,2.16848165 L521.415187,25.0641183 L483.296269,25.0641183 L483.296269,44.5186634 L516.237711,44.5186634 L516.237711,67.418993 L483.296269,67.418993 L483.296269,87.4971113 L522.201253,87.4971113 Z M545.250876,77.9285185 L570.192044,77.9285185 C570.192044,84.9878598 576.15148,90.6334557 583.837914,90.6334557 C591.205815,90.6334557 596.697131,86.0830725 596.697131,80.2785036 C596.697131,72.9053225 587.760617,68.9878985 577.560532,66.3193806 C561.878517,62.396677 546.818902,52.9873505 546.818902,32.4370061 C546.818902,14.0870596 562.50561,0.28690966 583.210234,0.28690966 C604.387672,0.28690966 620.069687,14.4003128 620.069687,33.2236586 L595.129106,33.2236586 C595.129106,26.7914102 590.110603,21.9277739 583.210234,21.9277739 C576.623706,21.9277739 571.76007,26.0094506 571.76007,31.4966601 C571.76007,38.400548 578.974278,42.1642786 589.48351,44.9876632 C605.951591,49.3784867 621.638299,57.3828669 621.638299,78.7104781 C621.638299,97.8470771 605.328604,112.274907 583.524074,112.274907 C561.72365,112.274907 545.250876,97.5332373 545.250876,77.9285185 Z M808.91569,2.16678046 L770.488212,110.395153 L746.178244,110.395153 L723.273808,39.1852061 L700.219198,110.395153 L675.74615,110.395153 L637.477058,2.16678046 L664.300091,2.16678046 L688.29622,77.2994311 L712.450736,2.16678046 L734.414826,2.16678046 L758.724208,77.2994311 L782.56547,2.16678046 L808.91569,2.16678046 Z M896.437209,87.4971113 L896.437209,110.396854 L833.222843,110.396854 L833.222843,2.16848165 L895.651143,2.16848165 L895.651143,25.0641183 L857.532812,25.0641183 L857.532812,44.5186634 L890.473667,44.5186634 L890.473667,67.418993 L857.532812,67.418993 L857.532812,87.4971113 L896.437209,87.4971113 Z M987.880376,87.4971113 L987.880376,110.396854 L924.66601,110.396854 L924.66601,2.16848165 L987.09431,2.16848165 L987.09431,25.0641183 L948.975392,25.0641183 L948.975392,44.5186634 L981.916834,44.5186634 L981.916834,67.418993 L948.975392,67.418993 L948.975392,87.4971113 L987.880376,87.4971113 Z M1088.26193,25.0654675 L1061.4389,25.0654675 L1061.4389,110.393511 L1037.12483,110.393511 L1037.12483,25.0654675 L1010.30648,25.0654675 L1010.30648,2.16513793 L1088.26193,2.16513793 L1088.26193,25.0654675 Z M0.000117323273,2.16678046 L52.6941054,2.16678046 L52.6941054,25.0764959 L22.911006,25.0764959 L22.9068997,87.4860242 L85.522917,87.4860242 L85.522917,57.701165 L108.429113,57.701165 L108.429113,110.395153 L0.00246378873,110.395153 L0.000117323273,2.16678046 Z" id="Combined-Shape" fill="#FFFFFF"></path>
                <g id="Group-22" transform="translate(63.000000, 0.230888)">
                    <g id="Group-9" transform="translate(481.966602, 0.000000)">
                        <mask id="mask-2" fill="white">
                            <use xlink:href="#path-1"></use>
                        </mask>
                        <g id="Clip-8"></g>
                    </g>
                    <polygon id="Fill-20" fill="#F9C8CA" points="0.628223801 1.93589266 0.628223801 24.8450215 22.5178134 24.8450215 22.5178134 46.5240158 45.4292887 46.5240158 45.4292887 1.93589266"></polygon>
                </g>
            </g>
        </g>
    </g>
</svg>