<svg viewBox="0 0 130 25" fill="none" xmlns="http://www.w3.org/2000/svg"><g clip-path="url(#logo_svg__a)"><path d="M61.666 0H0v24.407h61.666V0Z" fill="var(--Logo-background-color, var(--theme-secondary-400))"></path><path d="M9.564 17.049c-1.11 0-1.997-.32-2.662-.959-.665-.639-.994-1.58-.985-2.822v-2.13c0-1.234.328-2.17.985-2.808.656-.638 1.544-.962 2.662-.972 1.117 0 2.005.324 2.663.972.66.648.992 1.584.998 2.809v2.13c0 1.233-.332 2.174-.998 2.821-.665.648-1.553.968-2.663.959Zm0-.998c.808 0 1.434-.24 1.878-.718.444-.48.663-1.154.657-2.024v-2.211c0-.86-.222-1.53-.665-2.01-.442-.48-1.066-.725-1.87-.732-.798 0-1.419.244-1.862.732-.443.487-.665 1.157-.666 2.01v2.211c0 .86.222 1.535.666 2.024.445.489 1.065.728 1.862.718ZM16.42 16.863V7.544h2.17l3.249 8.613h.173V7.544h1.104v9.319h-2.169l-3.235-8.626h-.186v8.626H16.42ZM26.593 16.863V7.544h1.117v8.308h4.713v1.01h-5.83ZM35.19 16.863V7.544h1.117v9.319H35.19ZM39.772 16.863V7.544h2.17l3.248 8.613h.173V7.544h1.106v9.319h-2.167l-3.239-8.626h-.186v8.626h-1.105ZM49.944 16.863V7.544h5.737v1.019h-4.62v3.108h4.248v1.011h-4.248v3.165h4.687v1.01l-5.804.006Z" fill="var(--Logo-color-on-background, white)"></path><path d="M68.044 16.902v-9.32h1.76v9.32h-1.76ZM72.225 16.902v-9.32h3.35l1.85 8.121h.239V7.582h1.73v9.32h-3.353L74.19 8.78h-.24v8.122h-1.726ZM85.345 17.088c-1.154 0-2.068-.32-2.742-.959-.673-.639-1.01-1.562-1.012-2.77v-2.233c0-1.199.337-2.118 1.013-2.757.674-.639 1.588-.963 2.741-.972 1.145 0 2.028.316 2.65.946.62.63.936 1.487.945 2.569v.07h-1.731v-.131a1.988 1.988 0 0 0-.466-1.358c-.301-.353-.768-.532-1.398-.532a1.904 1.904 0 0 0-1.465.573c-.356.381-.533.9-.532 1.557v2.297a2.219 2.219 0 0 0 .532 1.556 1.906 1.906 0 0 0 1.465.573c.63 0 1.097-.186 1.398-.532.317-.381.482-.864.466-1.36v-.237h1.73v.186c0 1.09-.314 1.951-.945 2.582-.63.63-1.513.94-2.649.932ZM90.293 16.902l2.45-9.32h3.062l2.45 9.32h-1.812l-.504-2.048H92.61l-.507 2.048h-1.811Zm2.729-3.675h2.503l-1.131-4.54h-.24l-1.132 4.54ZM103.271 17.088a4.432 4.432 0 0 1-1.904-.387 3.026 3.026 0 0 1-1.292-1.104 3.116 3.116 0 0 1-.465-1.731v-.372h1.731v.372c0 .558.173.98.519 1.266.41.294.908.439 1.411.411.603 0 1.051-.12 1.344-.36a1.114 1.114 0 0 0 .452-.918.868.868 0 0 0-.225-.624 1.487 1.487 0 0 0-.64-.387 6.98 6.98 0 0 0-1.011-.293l-.307-.067a8.203 8.203 0 0 1-1.649-.532 2.67 2.67 0 0 1-1.052-.866 2.42 2.42 0 0 1-.361-1.385 2.553 2.553 0 0 1 .4-1.45 2.608 2.608 0 0 1 1.145-.93 4.714 4.714 0 0 1 3.514.013c.5.202.927.553 1.221 1.005.318.5.475 1.084.453 1.675v.399h-1.73v-.399c.014-.296-.06-.59-.212-.845a1.117 1.117 0 0 0-.586-.478 2.395 2.395 0 0 0-.918-.16c-.532 0-.927.101-1.186.305a.983.983 0 0 0-.372.813.967.967 0 0 0 .173.585c.146.176.334.313.546.4.296.123.604.217.919.28l.306.066a8.44 8.44 0 0 1 1.731.546c.454.189.853.491 1.158.878.288.408.434.9.413 1.398a2.628 2.628 0 0 1-.44 1.504 2.91 2.91 0 0 1-1.224 1.013 4.472 4.472 0 0 1-1.862.36ZM112.01 17.088a4.426 4.426 0 0 1-1.904-.387 3.032 3.032 0 0 1-1.292-1.104 3.117 3.117 0 0 1-.465-1.731v-.372h1.731v.372c0 .558.173.98.519 1.266.41.294.908.44 1.411.411.604 0 1.052-.12 1.344-.36a1.123 1.123 0 0 0 .453-.917.868.868 0 0 0-.225-.625 1.49 1.49 0 0 0-.641-.387 7.057 7.057 0 0 0-1.011-.293l-.307-.067a8.248 8.248 0 0 1-1.651-.532 2.7 2.7 0 0 1-1.052-.866 2.446 2.446 0 0 1-.359-1.385 2.555 2.555 0 0 1 .4-1.45 2.608 2.608 0 0 1 1.145-.93 4.716 4.716 0 0 1 3.515.013c.503.201.932.552 1.23 1.005.317.5.475 1.084.452 1.675v.399h-1.731v-.399a1.519 1.519 0 0 0-.21-.845 1.117 1.117 0 0 0-.586-.478 2.399 2.399 0 0 0-.918-.16c-.533 0-.928.101-1.186.305a.973.973 0 0 0-.372.813.967.967 0 0 0 .173.585c.146.176.333.313.545.4.297.124.605.217.92.28l.305.066a8.42 8.42 0 0 1 1.731.546c.455.19.853.492 1.158.878.289.408.434.9.413 1.398a2.627 2.627 0 0 1-.439 1.504 2.919 2.919 0 0 1-1.225 1.013 4.464 4.464 0 0 1-1.871.36ZM121.136 17.088c-1.173 0-2.104-.32-2.793-.959-.688-.639-1.035-1.562-1.038-2.77v-2.233c0-1.199.346-2.118 1.038-2.757.693-.639 1.624-.963 2.793-.972 1.17 0 2.101.324 2.792.972.691.648 1.037 1.567 1.038 2.757v2.234c0 1.199-.346 2.122-1.038 2.77-.693.647-1.623.967-2.792.958Zm0-1.57c.656 0 1.166-.192 1.53-.574a2.129 2.129 0 0 0 .547-1.53V11.07a2.121 2.121 0 0 0-.544-1.53c-.363-.381-.873-.572-1.53-.573a2.043 2.043 0 0 0-1.532.573 2.126 2.126 0 0 0-.545 1.53v2.344a2.127 2.127 0 0 0 .545 1.53 2.05 2.05 0 0 0 1.529.573Z" fill="var(--Logo-color, var(--theme-secondary-400))"></path><path d="M128.595 17.088a1.419 1.419 0 0 1-1.005-.385 1.383 1.383 0 0 1-.4-1.02 1.32 1.32 0 0 1 .4-1.005 1.387 1.387 0 0 1 1.005-.4 1.365 1.365 0 0 1 1.005.4 1.323 1.323 0 0 1 .4 1.005 1.347 1.347 0 0 1-.857 1.315 1.349 1.349 0 0 1-.548.09Z" fill="var(--theme-primary)"></path></g><defs><clipPath id="logo_svg__a"><path fill="var(--Logo-color, var(--theme-secondary-400))" d="M0 0h130v24.407H0z"></path></clipPath></defs></svg>