<?xml version="1.0" encoding="UTF-8" standalone="yes"?>
<svg version="1.2" viewBox="0 0 137 137" xml:space="preserve" baseProfile="tiny-ps" xmlns="http://www.w3.org/2000/svg">
  <title>bimi-svg-tiny-12-ps</title>
  <rect x="0" y="0" class="st0" width="137" height="137" fill="#231F20"/>
  <rect x="31.1" y="59.4" class="st1" width="5.1" height="18.1" fill="#FFFFFF"/>
  <rect x="31.1" y="49.2" class="st2" width="5.1" height="4.8" fill="#FF8300"/>
  <rect x="99" y="59.4" class="st1" width="5.1" height="18.1" fill="#FFFFFF"/>
  <rect x="99" y="49.2" class="st3" width="5.1" height="4.8" fill="#00837B"/>
  <polygon class="st1" points="6,47.9 6,77.6 11.1,77.6 11.1,70.7 20.4,77.6 23.4,73.5 15.4,67.5 22,61.3 18.5,57.7 11.1,64.6 &#xD;&#xA;&#x9;11.1,47.9 " fill="#FFFFFF"/>
  <polygon class="st1" points="113.6,47.9 113.6,77.6 118.7,77.6 118.7,70.7 128,77.6 131,73.5 123,67.5 129.5,61.3 126,57.7 &#xD;&#xA;&#x9;118.7,64.6 118.7,47.9 " fill="#FFFFFF"/>
  <path class="st1" d="M81.5,73.1c-2.4,0-4.4-1.9-4.6-4.3v-0.1l0,0c0,0,0-0.1,0-0.1c0-2.5,2-4.6,4.6-4.6s4.6,2,4.6,4.6&#xD;&#xA;&#x9;C86.1,71,84,73.1,81.5,73.1 M81.5,58.8c-2.2,0-4.3,0.7-5.9,2.1l-0.5-1.5h-3.2v29.6h5.1V77c4.7,2.5,10.5,0.8,13.1-3.9&#xD;&#xA;&#x9;c2.5-4.7,0.8-10.5-3.9-13.1C84.7,59.2,83.1,58.8,81.5,58.8" fill="#FFFFFF"/>
  <path class="st1" d="M53.5,73.1c-2.5,0-4.6-2-4.6-4.6c0-2.5,2-4.6,4.6-4.6c2.4,0,4.4,1.9,4.5,4.3v0.1l0,0v0.1&#xD;&#xA;&#x9;C58.1,71,56,73.1,53.5,73.1 M58.1,47.9V60c-4.7-2.5-10.5-0.8-13.1,3.9c-0.8,1.4-1.1,3-1.1,4.6c0,5.3,4.3,9.6,9.6,9.7&#xD;&#xA;&#x9;c2.2,0,4.3-0.7,6-2.1l0.5,1.5h3.2V47.9H58.1z" fill="#FFFFFF"/>
</svg>