<?xml version="1.0" ?>
<!-- Generator: Adobe Illustrator 28.2.0, SVG Export Plug-In . SVG Version: 6.00 Build 0)  -->
<!DOCTYPE svg [
	<!ENTITY ns_extend "http://ns.adobe.com/Extensibility/1.0/">
	<!ENTITY ns_ai "http://ns.adobe.com/AdobeIllustrator/10.0/">
	<!ENTITY ns_graphs "http://ns.adobe.com/Graphs/1.0/">
	<!ENTITY ns_vars "http://ns.adobe.com/Variables/1.0/">
	<!ENTITY ns_imrep "http://ns.adobe.com/ImageReplacement/1.0/">
	<!ENTITY ns_sfw "http://ns.adobe.com/SaveForWeb/1.0/">
	<!ENTITY ns_custom "http://ns.adobe.com/GenericCustomNamespace/1.0/">
	<!ENTITY ns_adobe_xpath "http://ns.adobe.com/XPath/1.0/">
]>
<svg xmlns:x="http://ns.adobe.com/Extensibility/1.0/" xmlns:i="http://ns.adobe.com/AdobeIllustrator/10.0/" xmlns:graph="http://ns.adobe.com/Graphs/1.0/" xmlns="http://www.w3.org/2000/svg" xmlns:xlink="http://www.w3.org/1999/xlink" version="1.2" baseProfile="tiny-ps" id="diagram" viewBox="0 0 600 600" overflow="visible" xml:space="preserve">
	<title>Diagram Informatique</title>
	<g i:extraneous="self">
		<g id="Diagram_00000183953151691851506140000015285419286019108752_">
			<path fill="#212121" d="M268.8,47v77.6c-43.4,6.4-85.3,26.2-118.7,59.5v0h0C108.8,225.4,88,279.9,88.1,334     c0,54.1,20.7,108.6,62.1,149.9c41.3,41.3,95.7,62.1,149.9,62.1c10.4,0,20.8-1,31.2-2.5v-29.3V480V188v-63.4V47H268.8z      M194.3,228.2c21.3-21.3,47.2-34.6,74.5-40.4v292.3c-27.3-5.8-53.3-19.2-74.5-40.4c-29.3-29.3-43.8-67.4-43.8-105.7     C150.5,295.6,165,257.5,194.3,228.2"/>
			<path fill="#06AAB5" d="M449.9,184.1c-16.9-16.9-36-30.1-56.3-40.1v74.3c4.1,3.3,8.4,6.1,12.1,9.9     c29.3,29.3,43.8,67.4,43.8,105.7c0,38.4-14.5,76.5-43.8,105.7c-3.8,3.8-8.1,6.6-12.1,9.9V524c20.3-10,39.4-23.3,56.3-40.1     c41.3-41.3,62.1-95.7,62.1-149.9C512,279.9,491.2,225.4,449.9,184.1z"/>
		</g>
		<path display="none" fill="#A2C617" d="M549,438.1c0.5-14.4-11.8-64.7-25.1-101.5c-30.1-83-67.3-135.9-120.6-171.6    c-39.1-26.2-84.2-39.9-114.9-35c-2.8,0.4-4.7,2.9-4.6,5.7c0.1,2.8,2.3,5,5.1,5.2c0.6,0,54.9,4.2,88.2,57.3    c-24.3-14-62.3-31.8-68.4-34.2c-39.1-16-91-19.6-132.2-9.1c-2.7,0.7-4.4,3.3-4.1,6c0.3,2.7,2.7,4.8,5.5,4.8    c43.5,0,83.6,25.3,114.8,51.5c-4.6-1.6-9.4-3.1-14.2-4.5c-16.6-4.8-33.4-8.4-49.9-10.6c-17-2.3-33.8-3.1-50-2.4    c-8,0.3-40.6,3.8-53.9,8.2c0,0,0,0,0,0h0c-2.9,0.9-4.5,4-3.5,6.9c0.9,2.9,4,4.4,6.9,3.5h0h0c13.5-4.4,43.2,3.3,65,12.3    c17.2,7.1,30.3,19.4,43,33.3c-34-9.8-97.2-19.3-155.9,18.7c-2.1,1.4-3,3.9-2.2,6.3c0.8,2.4,3.1,4,5.5,3.8l9.2-0.6    c33.6-2.3,63.1-4.3,103.1,28.5c-6.5-0.1-13.2,0.2-20,1c-14.1,1.5-28.5,4.9-42.8,10c-13.4,4.8-26.8,11.2-39.7,18.9l-2,1.2    c-12.2,7.3-26.1,15.6-35.7,26.6c-2,2.3-1.8,5.7,0.5,7.7c2,1.8,4.9,1.8,7,0.2c3.3-1.5,20.3-5.1,26.2-5.7c24.9-2.6,58.6,4,76.3,16.7    c-37.8,2.8-72.8,19.4-109.2,51.4c-1.7,1.5-2.3,3.9-1.5,6.1c0.8,2.1,2.9,3.5,5.1,3.5h0c9.1,0,24-0.3,40.9-0.5    c33.6-0.5,88.4-1.4,100.3-0.3c0.1,0.7,0.3,1.5,0.4,2.1c0.5,3.4,1.3,8.1,4.9,11.3c3.1,2.8,7.9,4.4,12.6,4.4c2.9,0,5.8-0.6,8.2-1.8    c4.8-2.4,7-6.4,8.4-9.6c0.5-1.2,0.8-2.7,1.2-5.3c0-0.3,0.1-0.6,0.1-0.9c0.9,0.1,1.7,0.1,2.3,0.2c1.2,0.1,2.3,0.2,2.9,0.2    l146.2-0.1c0.9,0,2.5-0.1,4.3-0.3c1.6-0.2,4.8-0.5,6.9-0.5c0.1,0.4,0.1,0.7,0.2,1.1c0.5,2.8,0.9,4.6,1.6,5.9    c1.6,3.1,3.4,5.3,5.6,7c6.4,4.8,16.7,5.4,22.9,1.2c4.5-3,6.5-7.8,7.7-11.7c0.3-1.1,0.5-1.9,0.7-2.7l0.7-0.1c0.7-0.2,2.7,0,4,0    c1,0.1,2,0.1,2.8,0.1c4.2,0.1,8.4,0.1,12.7,0.1c8.4,0.1,17.1,0.2,25.8-0.1c52.6-2.2,62.1-8.6,64.4-14.5    C549.6,441.5,549.5,439.6,549,438.1z M483,408.7c0-0.1,0-0.1,0-0.2c0-6.3-5.3-11.4-11.8-11.4c-0.3,0-0.6,0-0.9,0    c0.1-6.2,5.3-11.2,11.8-11.2c6.5,0,11.8,5.1,11.8,11.4C494,403.4,489.2,408.3,483,408.7z"/>
	</g>
</svg>