<svg xmlns="http://www.w3.org/2000/svg" viewBox="0 0 25.15 29.85">
    <defs>
        <style>
        .cls-1 {
            fill: #000;
        }

        .cls0 {
            fill: #4ac3e7;
        }

        .cls1 {
            fill: #0081be;
        }
        </style>
    </defs>
    <rect fill="lightgrey" width="100%" height="100%" />
    <g transform="translate(-20 -14.82)">
        <path class="cls1" d="M40.51,44.67a56.59,56.59,0,0,1-6-1.74c-2.25-.66-2.24-.7-2.24-3,0-7.14,0-14.28,0-21.42,0-.79.17-1.17,1-1.41,2.38-.69,4.72-1.5,7.07-2.26h.22Q40.52,29.74,40.51,44.67Zm-6.29-19c.7-.11,1.4-.23,2.11-.3.54-.06.45-.45.45-.79s0-.51-.41-.44c-.77.13-1.55.24-2.31.4-.45.09-.33.48-.34.78S33.94,25.69,34.22,25.64Zm.1,12.11c-.28,0-.59-.15-.6.32s-.07.74.44.82l1.89.29c.28,0,.67.3.72-.26s.12-.87-.55-.91S35,37.84,34.32,37.75Zm2.46-17.7c0-.29,0-.63-.43-.53-.78.19-1.57.39-2.34.61-.45.13-.28.52-.28.81s.32.3.55.26l2.06-.44C36.77,20.68,36.79,20.38,36.78,20.05ZM35,30c.45,0,.77,0,1.09,0,.51,0,.66-.21.68-.7s-.36-.58-.77-.55a2.46,2.46,0,0,0-1,.1c-.45.22-1.43-.37-1.34.7S34.72,29.71,35,30Zm.16,3.43v0h-.75c-.35,0-.71-.11-.73.47s.26.63.71.65,1.2.12,1.8.18c.32,0,.59,0,.56-.41s.13-.77-.42-.82C36,33.4,35.58,33.4,35.19,33.38Zm2.74-8.16c.34-.11.85,0,.77-.64,0-.24.18-.68-.28-.65s-.92,0-.85.69C37.59,24.87,37.44,25.24,37.93,25.22Zm.77,4c.07-.46-.14-.61-.6-.58s-.54.15-.55.56.13.63.58.66S38.75,29.68,38.7,29.26Zm-.53,4.22c-.42,0-.62.13-.62.6s.18.6.62.61.55-.16.54-.55S38.72,33.4,38.17,33.48Zm.08,6c.51.06.43-.31.46-.62s-.14-.61-.6-.61-.54.26-.56.66S37.89,39.49,38.25,39.52Zm.46-19.87c0-.34,0-.65-.45-.54s-.74.19-.71.73c0,.37.07.59.53.53S38.76,20.07,38.71,19.65Z" />
        <path class="cls0" d="M40.51,44.67q0-14.93,0-29.85h.21a61,61,0,0,0,3.94,4.86,1.7,1.7,0,0,1,.41,1.52A48.76,48.76,0,0,0,45,37.28a3.66,3.66,0,0,1-1,3.63,39.12,39.12,0,0,0-2.84,3.3C41,44.42,40.86,44.72,40.51,44.67Z" />
        <path class="cls0" d="M20,21.86l3.3-3.92c.13-.16.23-.36.47-.39,0,.24.07.49.07.73V40.93a7.83,7.83,0,0,1-.1.83c-1.41-1.3-2.38-3-3.74-4.32Z" />
        <path class="cls1" d="M23.76,41.76a7.83,7.83,0,0,0,.1-.83V18.28c0-.24-.05-.49-.07-.73a55.1,55.1,0,0,1,6.4,1.87c.37.1.3.43.3.71q0,9.59,0,19.19c0,.3.07.6-.38.74-2,.6-4,1.25-6,1.88C24,42,23.84,41.9,23.76,41.76Zm3.6-11.91h0l1.38.06c.31,0,.56,0,.58-.42s-.18-.55-.57-.57c-.95,0-1.91-.08-2.86-.16-.4,0-.58.06-.6.5s.22.52.59.52S26.87,29.83,27.36,29.85Zm0,2.8h0c-.53,0-1.06.06-1.59.06-.36,0-.51.14-.49.5s.05.55.47.52c1-.07,2-.12,3.07-.17.37,0,.48-.21.48-.54s-.24-.46-.56-.44Zm-2-11.82c-.1,1-.11,1,.62,1.17s1.73.38,2.59.55c.24.05.57.34.69-.13a.57.57,0,0,0-.51-.77C27.66,21.4,26.54,21.11,25.4,20.83ZM26,37.6l2.93-.42c.38-.06.41-.34.39-.64s-.2-.34-.44-.31l-3.17.4c-.4,0-.39.34-.4.63S25.45,37.7,26,37.6ZM28.7,26.23c.28.06.59.15.61-.3s-.06-.55-.43-.61c-1-.15-1.95-.31-2.93-.45-.25,0-.6-.15-.63.32s.05.67.54.71C26.81,26,27.76,26.12,28.7,26.23Z" />
    </g>
</svg>