<?xml version="1.0" ?>
<svg xmlns="http://www.w3.org/2000/svg" role="img" viewBox="-7.99 32.51 415.74 179.74">
	<defs>
		<clipPath id="a">
			<path d="M 297.0,782.84 L 2871.0,782.797 L 2871.01,1180.956 L 297.01,1181.0 L 297.0,782.84"/>
		</clipPath>
	</defs>
	<path fill="none" d="M 0.0,0.0 L 400.0,0.0 L 400.0,245.0 L 0.0,245.0 L 0.0,0.0" pointer-events="none"/>
	<g clip-path="url(#a)" transform="matrix(.71324 0 0 -.71324 113.917 245)">
		<path fill="#0b8bb3" d="M 117.019,326.912 C 117.019,326.912 129.082,262.384 114.895,137.649 C 150.565,139.767 188.142,139.306 198.891,129.401 C 198.891,129.401 185.221,261.578 114.641,343.503 C 114.641,343.503 116.13,337.526 117.019,326.909 L 117.019,326.912"/>
		<path fill="#0b8bb3" d="M 197.031,124.963 C 197.031,124.963 173.427,145.479 41.466,125.051 C 41.466,125.051 110.524,130.929 147.143,129.104 C 177.751,127.577 194.254,121.806 196.691,113.74 C 196.691,113.74 203.921,119.93 197.031,124.963"/>
		<path fill="#9acce8" d="M 116.602,285.643 L 116.607,286.533 L 116.171,285.681 C 111.526,245.567 93.601,187.996 41.381,129.356 C 41.381,129.356 73.389,134.835 108.255,137.223 C 110.165,150.391 118.605,213.495 116.602,285.643"/>
		<path fill="#0b8bb3" d="M 30.2,56.928 L 22.135,78.745 L 14.8,56.928 L 30.2,56.928 M 1.692,35.294 L 21.862,93.411 L 22.593,93.411 L 44.593,35.294 L 37.993,35.294 L 31.67,51.98 L 13.52,51.98 L 8.017,35.294 L 1.692,35.294 M 49.864,92.401 L 54.906,92.401 L 69.024,64.445 L 83.414,92.495 L 88.269,92.495 L 88.269,35.295 L 82.22,35.295 L 82.22,78.377 L 69.847,55.371 L 67.372,55.371 L 55.822,78.102 L 55.822,35.294 L 49.864,35.294 L 49.864,92.401 M 98.906,35.294 L 98.906,92.4 L 106.33,92.4 C 106.33,91.974 106.194,91.486 105.918,90.936 A 3.66,3.66 0.0 0,1 105.506,89.286 L 105.506,35.294 L 98.906,35.294 M 116.139,92.401 L 123.199,92.401 C 123.259,92.339 123.289,92.251 123.289,92.127 C 123.289,91.943 123.214,91.699 123.059,91.397 C 122.909,91.087 122.802,90.692 122.741,90.201 L 122.741,67.926 L 145.107,67.926 L 145.107,92.401 L 152.161,92.401 C 152.225,92.339 152.253,92.251 152.253,92.127 C 152.253,91.882 152.161,91.623 151.983,91.349 A 2.368,2.368 0.0 0,1 151.616,90.387 L 151.616,35.205 L 145.013,35.205 L 145.013,62.612 L 122.74,62.612 L 122.74,35.294 L 116.138,35.294 L 116.139,92.401 M 185.118,56.928 L 177.05,78.745 L 169.72,56.928 L 185.118,56.928 M 156.61,35.294 L 176.777,93.411 L 177.513,93.411 L 199.509,35.294 L 192.909,35.294 L 186.586,51.98 L 168.433,51.98 L 162.936,35.294 L 156.61,35.294 M 203.772,35.294 L 203.772,92.4 L 210.007,92.4 L 234.02,50.053 L 234.02,92.493 L 240.806,92.493 C 240.806,92.126 240.696,91.729 240.484,91.301 A 2.797,2.797 0.0 0,1 240.164,90.019 L 240.164,35.294 L 235.124,35.294 L 209.914,80.209 L 209.914,35.294 L 203.772,35.294"/>
	</g>
	<g clip-path="url(#a)" transform="matrix(.71324 0 0 -.71324 113.917 245)">
		<path fill="#0b8bb3" d="M 117.019,326.912 C 117.019,326.912 129.082,262.384 114.895,137.649 C 150.565,139.767 188.142,139.306 198.891,129.401 C 198.891,129.401 185.221,261.578 114.641,343.503 C 114.641,343.503 116.13,337.526 117.019,326.909 L 117.019,326.912"/>
		<path fill="#0b8bb3" d="M 197.031,124.963 C 197.031,124.963 173.427,145.479 41.466,125.051 C 41.466,125.051 110.524,130.929 147.143,129.104 C 177.751,127.577 194.254,121.806 196.691,113.74 C 196.691,113.74 203.921,119.93 197.031,124.963"/>
		<path fill="#9acce8" d="M 116.602,285.643 L 116.607,286.533 L 116.171,285.681 C 111.526,245.567 93.601,187.996 41.381,129.356 C 41.381,129.356 73.389,134.835 108.255,137.223 C 110.165,150.391 118.605,213.495 116.602,285.643"/>
		<path fill="#0b8bb3" d="M 30.2,56.928 L 22.135,78.745 L 14.8,56.928 L 30.2,56.928 M 1.692,35.294 L 21.862,93.411 L 22.593,93.411 L 44.593,35.294 L 37.993,35.294 L 31.67,51.98 L 13.52,51.98 L 8.017,35.294 L 1.692,35.294 M 49.864,92.401 L 54.906,92.401 L 69.024,64.445 L 83.414,92.495 L 88.269,92.495 L 88.269,35.295 L 82.22,35.295 L 82.22,78.377 L 69.847,55.371 L 67.372,55.371 L 55.822,78.102 L 55.822,35.294 L 49.864,35.294 L 49.864,92.401 M 98.906,35.294 L 98.906,92.4 L 106.33,92.4 C 106.33,91.974 106.194,91.486 105.918,90.936 A 3.66,3.66 0.0 0,1 105.506,89.286 L 105.506,35.294 L 98.906,35.294 M 116.139,92.401 L 123.199,92.401 C 123.259,92.339 123.289,92.251 123.289,92.127 C 123.289,91.943 123.214,91.699 123.059,91.397 C 122.909,91.087 122.802,90.692 122.741,90.201 L 122.741,67.926 L 145.107,67.926 L 145.107,92.401 L 152.161,92.401 C 152.225,92.339 152.253,92.251 152.253,92.127 C 152.253,91.882 152.161,91.623 151.983,91.349 A 2.368,2.368 0.0 0,1 151.616,90.387 L 151.616,35.205 L 145.013,35.205 L 145.013,62.612 L 122.74,62.612 L 122.74,35.294 L 116.138,35.294 L 116.139,92.401 M 185.118,56.928 L 177.05,78.745 L 169.72,56.928 L 185.118,56.928 M 156.61,35.294 L 176.777,93.411 L 177.513,93.411 L 199.509,35.294 L 192.909,35.294 L 186.586,51.98 L 168.433,51.98 L 162.936,35.294 L 156.61,35.294 M 203.772,35.294 L 203.772,92.4 L 210.007,92.4 L 234.02,50.053 L 234.02,92.493 L 240.806,92.493 C 240.806,92.126 240.696,91.729 240.484,91.301 A 2.797,2.797 0.0 0,1 240.164,90.019 L 240.164,35.294 L 235.124,35.294 L 209.914,80.209 L 209.914,35.294 L 203.772,35.294"/>
	</g>
	<g clip-path="url(#a)" transform="matrix(.41157 0 0 -.41157 26.751 245)">
		<path fill="#808184" fill-rule="evenodd" d="M 300.764,305.537 C 300.764,318.239 293.826,326.846 281.854,326.846 L 269.45,326.846 L 269.45,284.436 L 282.823,284.436 C 294.258,284.436 300.763,292.942 300.763,305.536 M 320.931,305.746 C 320.931,283.809 306.011,268.902 281.53,268.902 L 249.71,268.902 L 249.71,342.488 L 282.283,342.488 C 306.229,342.488 320.931,327.581 320.931,305.746 M 382.337,342.487 L 382.229,327.161 L 345.557,327.161 L 345.557,310.787 L 379.423,310.787 L 379.423,295.461 L 345.557,295.461 L 345.557,268.903 L 325.819,268.903 L 325.819,342.487 L 382.337,342.487 M 404.95,305.642 C 404.95,293.675 414.548,284.438 425.765,284.438 C 437.092,284.438 446.151,293.675 446.151,305.642 C 446.151,317.609 437.092,326.636 425.765,326.636 C 414.442,326.636 404.95,317.609 404.95,305.642 M 466.427,305.746 C 466.427,284.228 448.957,268.063 425.551,268.063 C 402.146,268.063 384.674,284.228 384.674,305.746 C 384.674,327.162 402.146,343.012 425.551,343.012 C 448.957,343.012 466.427,327.056 466.427,305.746 M 491.049,342.487 L 491.049,285.278 L 523.083,285.278 L 523.083,268.903 L 471.312,268.903 L 471.312,342.487 L 491.049,342.487 M 577.767,268.903 L 558.136,297.35 L 548.429,286.853 L 548.429,268.903 L 528.689,268.903 L 528.689,342.486 L 548.429,342.486 L 548.429,311.626 L 576.795,342.486 L 599.661,342.486 L 571.619,312.046 L 601.387,268.903 L 577.767,268.903"/>
		<path fill="#808184" fill-rule="evenodd" d="M 633.85,327.686 C 629.104,327.686 625.976,326.008 625.976,322.648 C 625.976,310.471 665.775,317.4 665.775,290.948 C 665.775,275.936 652.185,268.273 635.358,268.273 C 626.257,268.273 616.226,270.956 608.304,274.981 C 605.243,276.539 603.047,278.011 600.52,280.03 L 608.179,295.04 C 615.945,288.532 627.701,283.914 635.576,283.914 C 641.4,283.914 645.066,286.013 645.066,289.897 C 645.066,302.387 605.268,294.831 605.268,320.863 C 605.268,334.615 617.238,343.328 635.466,343.328 C 646.575,343.328 657.792,339.968 665.665,335.034 L 658.223,319.813 C 650.243,324.223 640.103,327.686 633.85,327.686 M 687.559,277.196 C 687.559,271.842 683.678,268.063 678.285,268.063 C 672.892,268.063 669.118,271.842 669.118,277.196 C 669.118,282.55 672.892,286.223 678.285,286.223 C 683.678,286.223 687.559,282.55 687.559,277.196"/>
		<path fill="#119981" fill-rule="evenodd" d="M 222.448,288.783 L 222.448,300.319 L 204.522,300.319 C 197.557,300.319 194.077,297.879 194.077,292.729 C 194.077,287.716 197.836,284.459 204.243,284.459 C 212.986,284.459 216.745,283.232 222.448,288.783 M 180.775,338.155 C 190.349,341.743 200.395,343.415 210.647,343.415 C 231.395,343.415 243.512,333.657 243.65,316.851 L 243.65,269.146 L 222.448,269.146 C 222.448,269.146 205.777,268.903 195.611,268.903 C 185.918,268.903 172.406,277.551 172.406,290.967 C 172.406,304.927 180.989,312.921 199.648,313.194 L 222.448,313.194 L 222.448,314.004 C 222.448,323.628 214.408,324.984 204.938,324.984 C 198.674,324.984 188.873,322.95 180.798,319.156 L 180.775,338.155"/>
		<path fill="#808184" d="M 155.316,339.323 L 161.637,339.323 L 161.637,338.142 L 159.155,338.142 L 159.155,331.514 L 157.788,331.514 L 157.788,338.142 L 155.316,338.142 L 155.316,339.323 M 163.617,339.323 L 165.542,339.323 L 167.697,333.21 L 167.719,333.21 L 169.819,339.323 L 171.721,339.323 L 171.721,331.514 L 170.421,331.514 L 170.421,337.54 L 170.398,337.54 L 168.232,331.514 L 167.106,331.514 L 164.941,337.54 L 164.919,337.54 L 164.919,331.514 L 163.617,331.514 L 163.617,339.323"/>
	</g>
	<path fill="#6994c3" fill-rule="evenodd" d="M 371.364,116.727 L 355.66,116.727 L 355.66,54.835 L 370.44,54.835 L 370.44,61.765 A 14.865,14.865 0.0 0,1 382.91,53.452 C 393.073,52.99 400.0,58.996 400.0,71.926 L 400.0,116.726 L 383.834,116.726 L 383.834,70.08 C 383.834,64.538 383.834,59.92 380.14,58.997 A 6.713,6.713 0.0 0,0 374.596,60.38 A 12.356,12.356 0.0 0,0 371.363,70.08 L 371.363,116.728 L 371.364,116.727 M 104.406,58.996 A 20.799,20.799 0.0 0,0 90.548,53.452 A 21.762,21.762 0.0 0,0 76.693,58.996 C 70.227,64.54 66.072,74.696 66.072,85.784 C 66.072,97.328 70.227,107.027 76.693,112.571 A 21.765,21.765 0.0 0,0 90.548,118.113 A 20.804,20.804 0.0 0,0 104.406,112.569 C 111.334,107.024 115.028,97.328 115.028,85.781 C 115.028,74.698 111.334,64.537 104.406,58.993 L 104.406,58.996 M 98.401,85.784 C 98.401,97.328 98.401,106.566 96.554,111.185 A 6.186,6.186 0.0 0,1 90.548,114.88 A 5.572,5.572 0.0 0,1 85.007,111.185 C 82.699,106.566 82.699,97.328 82.699,85.784 C 82.699,74.695 82.699,64.998 85.007,60.379 A 5.572,5.572 0.0 0,1 90.551,56.685 A 6.186,6.186 0.0 0,1 96.554,60.379 C 98.864,65.0 98.4,74.698 98.4,85.784 L 98.401,85.784 M 265.599,140.281 L 265.599,156.908 L 262.366,156.908 C 260.518,149.983 257.746,143.981 250.356,143.514 A 8.017,8.017 0.0 0,0 241.119,149.984 C 240.659,154.139 242.042,157.834 250.355,162.452 C 260.977,168.458 269.293,171.227 269.293,183.696 C 269.293,197.092 257.746,203.559 248.05,203.559 L 229.573,203.559 L 229.573,180.469 L 232.806,180.469 C 235.114,192.476 238.808,199.867 247.586,200.329 A 8.851,8.851 0.0 0,0 257.283,191.09 C 257.283,185.087 253.588,181.393 244.813,176.31 C 235.114,170.308 229.112,166.61 229.112,158.297 C 229.112,147.211 236.962,140.284 249.43,140.284 L 265.599,140.281 M 285.92,116.727 L 285.92,71.926 C 285.92,58.996 278.993,52.988 268.83,53.452 A 15.6,15.6 0.0 0,0 255.897,62.226 C 253.588,55.76 248.507,52.991 241.119,53.452 A 14.868,14.868 0.0 0,0 228.648,61.765 L 228.648,54.838 L 214.332,54.838 L 214.332,116.729 L 230.034,116.729 L 230.034,70.08 C 230.034,65.46 230.494,62.691 233.267,60.38 A 5.794,5.794 0.0 0,1 238.345,58.997 C 242.042,59.919 242.042,64.541 242.042,70.08 L 242.042,116.728 L 257.746,116.728 L 257.746,69.618 A 11.912,11.912 0.0 0,1 260.98,60.38 A 5.791,5.791 0.0 0,1 266.057,58.997 C 269.754,59.919 270.215,64.541 270.215,70.08 L 270.215,116.728 L 285.92,116.727 M 125.652,41.905 L 141.818,41.905 L 141.818,116.727 L 125.652,116.727 L 125.652,41.905 L 125.652,41.905 M 199.091,116.727 L 199.091,41.907 L 182.925,41.907 L 182.925,59.457 A 9.507,9.507 0.0 0,0 173.686,53.913 C 162.14,53.913 152.901,65.921 152.44,84.398 C 151.979,96.866 156.134,117.652 172.3,117.652 A 12.022,12.022 0.0 0,0 183.847,110.724 L 183.847,116.727 L 199.091,116.727 M 180.153,59.918 C 183.386,64.538 183.386,75.62 183.386,84.398 C 183.386,93.633 183.847,105.641 180.153,110.724 A 5.794,5.794 0.0 0,1 175.073,113.496 C 171.839,113.496 169.992,109.799 169.067,103.794 C 168.606,98.253 168.606,91.325 168.606,83.936 C 168.606,71.465 169.528,57.607 175.533,57.607 A 5.684,5.684 0.0 0,1 180.153,59.918 L 180.153,59.918 M 333.954,56.685 C 338.112,58.995 340.882,62.69 340.882,71.004 L 340.882,116.729 L 325.64,116.729 L 325.64,109.799 C 323.792,114.879 318.712,118.113 311.782,118.113 C 306.238,118.113 296.541,115.341 296.541,101.025 C 296.541,87.631 305.318,84.859 315.018,80.701 C 323.792,77.009 324.715,76.545 324.715,72.851 L 324.715,62.69 C 324.715,58.531 322.409,56.684 317.787,56.684 C 315.943,57.145 312.71,58.07 312.71,60.378 C 312.243,63.15 315.476,63.15 315.943,67.306 C 316.401,73.775 311.321,76.083 306.704,75.622 A 7.109,7.109 0.0 0,1 299.313,68.692 C 298.852,60.375 308.088,53.451 321.02,53.451 A 24.117,24.117 0.0 0,1 333.953,56.684 L 333.954,56.685 M 324.716,79.778 L 319.638,83.012 A 13.987,13.987 0.0 0,0 313.168,95.022 A 55.75,55.75 0.0 0,0 313.168,107.491 C 313.63,112.569 316.866,113.493 319.635,112.569 C 322.871,111.185 324.715,105.183 324.715,98.714 L 324.715,79.778 L 324.716,79.778 M 105.328,143.056 C 109.486,145.828 111.798,149.059 111.798,157.372 L 111.798,203.559 L 97.018,203.559 L 97.018,196.634 C 95.168,201.254 90.09,204.484 83.158,204.484 C 77.155,204.484 67.916,202.176 67.916,187.86 C 67.916,174.466 76.693,171.694 85.932,167.535 C 95.168,163.377 96.092,162.916 96.092,159.685 L 96.092,149.522 C 96.092,144.906 93.782,143.059 89.165,143.517 C 87.315,143.517 84.085,144.442 84.085,146.75 C 83.621,149.986 86.857,149.986 87.315,154.142 C 87.782,160.147 82.699,162.455 78.08,162.455 A 7.902,7.902 0.0 0,1 70.688,155.064 C 70.228,147.214 79.466,140.284 92.398,140.284 A 24.463,24.463 0.0 0,1 105.328,143.056 M 96.093,166.146 L 91.015,169.38 C 85.932,172.613 85.007,176.771 84.545,181.388 A 55.963,55.963 0.0 0,0 84.545,193.859 C 84.545,199.403 87.779,200.326 90.548,198.939 C 94.245,197.554 96.093,192.012 96.093,185.085 L 96.093,166.147 L 96.093,166.146 M 217.101,158.758 C 217.101,145.825 210.174,139.359 200.013,140.281 A 15.754,15.754 0.0 0,0 188.466,146.286 L 188.466,128.276 L 172.761,128.276 L 172.761,170.766 C 172.761,186.471 161.679,201.251 150.593,200.786 C 142.743,200.786 140.893,194.784 139.971,188.318 A 140.402,140.402 0.0 0,1 139.507,156.908 C 140.432,149.52 142.279,143.514 147.824,143.514 C 151.979,143.514 152.44,146.286 150.596,148.134 C 148.743,150.444 145.974,152.753 147.36,157.834 C 148.743,163.377 157.52,164.3 161.679,160.144 A 11.849,11.849 0.0 0,0 162.139,146.75 C 159.368,142.131 154.751,140.281 147.821,140.281 C 139.046,140.281 122.419,148.134 122.419,173.077 C 122.419,199.865 139.507,204.481 149.207,204.481 C 160.292,204.481 169.992,194.784 172.761,186.929 L 172.761,203.562 L 188.466,203.562 L 188.466,156.905 A 12.36,12.36 0.0 0,1 191.696,147.205 A 6.713,6.713 0.0 0,1 197.241,145.823 C 200.938,146.745 200.938,151.367 200.938,156.905 L 200.938,203.556 L 217.104,203.556 L 217.104,158.758 L 217.101,158.758 M 55.447,40.52 L 55.447,66.847 L 52.214,66.847 C 49.442,53.914 43.439,44.214 35.126,43.753 C 29.582,43.293 26.351,46.525 23.579,51.145 C 20.807,56.689 19.421,68.233 19.421,82.088 A 162.977,162.977 0.0 0,0 21.268,111.648 C 22.193,114.881 24.504,119.964 30.507,119.964 A 8.105,8.105 0.0 0,0 37.434,117.192 C 39.745,114.419 40.206,108.875 40.206,105.184 L 40.206,92.71 C 40.206,88.09 38.823,85.319 36.512,83.935 A 36.366,36.366 0.0 0,0 30.507,82.547 L 30.507,79.313 L 56.372,79.313 L 56.372,145.363 L 53.136,145.363 A 53.32,53.32 0.0 0,0 48.52,132.431 A 15.288,15.288 0.0 0,0 35.126,123.656 C 27.735,123.192 22.193,127.811 22.193,134.739 C 22.193,143.977 27.737,146.285 37.895,151.827 C 47.598,157.371 60.066,161.99 60.066,178.153 C 60.066,193.858 46.673,203.558 31.432,203.558 L 6.952,203.558 L 6.952,171.69 L 10.185,171.69 C 14.341,195.705 24.505,199.864 31.432,199.864 C 40.206,199.864 44.362,194.319 44.362,186.47 C 43.901,176.306 36.973,172.612 27.273,167.532 C 13.419,159.682 6.953,155.985 6.953,143.055 C 7.413,131.967 16.191,125.039 25.89,122.27 C 5.566,119.963 -0.436,101.488 0.025,81.623 C 0.025,61.768 11.571,40.519 34.198,40.519 L 55.447,40.52" class="cls-1"/>
</svg>