<?xml version="1.0" ?>
<svg  xmlns="http://www.w3.org/2000/svg" version="1.2" viewBox="0, 0, 400,400" baseProfile="tiny-ps">
	
  
	<title>zencontrol logo</title>
	
  
	<g id="svgg">
		
    
		<path id="path0" d="M115.969 129.708 C 115.939 138.898,115.938 146.473,115.967 146.542 C 115.996 146.610,142.828 146.667,175.593 146.667 C 208.359 146.667,235.167 146.708,235.167 146.758 C 235.167 147.170,231.715 151.712,229.410 154.333 C 221.818 162.964,213.017 169.740,190.809 184.055 C 189.126 185.139,187.033 186.489,186.157 187.055 C 185.280 187.621,183.930 188.492,183.157 188.991 C 182.383 189.490,180.887 190.456,179.833 191.138 C 178.779 191.821,177.092 192.911,176.083 193.562 C 166.969 199.446,162.225 202.847,152.833 210.234 C 136.052 223.433,123.920 239.017,119.090 253.583 C 116.548 261.247,116.041 265.250,115.958 278.292 L 115.903 287.000 199.952 287.000 L 284.000 287.000 284.001 271.792 C 284.002 263.427,284.049 255.975,284.107 255.231 L 284.213 253.878 224.565 253.755 C 191.758 253.687,164.890 253.607,164.858 253.577 C 164.472 253.214,170.030 246.467,173.998 242.483 C 181.719 234.730,189.501 228.905,207.786 217.193 C 229.682 203.167,236.534 198.512,243.976 192.607 C 244.585 192.124,246.358 190.727,247.917 189.504 C 264.014 176.866,276.251 160.958,280.998 146.500 C 283.489 138.914,283.982 134.872,284.044 121.542 L 284.083 113.000 200.053 113.000 L 116.023 113.000 115.969 129.708 " stroke="none" fill="#fbfbfb" fill-rule="evenodd"/>
		
    
		<path id="path1" d="M0.000 200.000 L 0.000 400.000 200.000 400.000 L 400.000 400.000 400.000 200.000 L 400.000 0.000 200.000 0.000 L 0.000 0.000 0.000 200.000 M284.123 123.208 L 284.050 133.583 283.530 136.684 C 282.966 140.041,282.519 142.044,281.897 144.001 C 281.679 144.688,281.500 145.351,281.500 145.472 C 281.500 145.594,281.322 146.156,281.105 146.722 C 280.888 147.287,280.445 148.462,280.120 149.333 C 279.513 150.963,278.003 154.341,277.288 155.667 C 275.622 158.758,275.406 159.134,274.137 161.138 C 266.591 173.052,257.926 182.124,243.693 193.010 C 237.608 197.664,237.239 197.940,234.605 199.808 C 233.091 200.882,223.143 207.466,219.667 209.695 C 218.384 210.518,217.264 211.240,212.702 214.189 C 211.903 214.705,210.237 215.785,209.000 216.589 C 207.762 217.393,206.225 218.390,205.583 218.803 C 203.615 220.071,191.834 227.955,190.398 228.965 C 189.654 229.488,188.427 230.367,187.672 230.917 C 186.917 231.467,186.089 232.067,185.832 232.250 C 179.105 237.052,170.368 245.776,165.956 252.097 L 165.016 253.445 208.036 253.556 C 231.697 253.617,258.505 253.667,267.611 253.667 L 284.167 253.667 284.167 270.417 L 284.167 287.167 200.000 287.167 L 115.833 287.167 115.836 278.292 C 115.840 264.213,116.516 259.761,120.054 250.500 C 124.191 239.670,134.233 226.155,145.750 215.916 C 149.309 212.752,154.791 208.398,161.580 203.343 C 165.747 200.240,164.611 201.033,171.184 196.651 C 176.319 193.228,177.357 192.548,180.959 190.239 C 181.808 189.695,183.424 188.650,184.552 187.917 C 185.679 187.183,187.122 186.252,187.759 185.846 C 191.927 183.192,206.800 173.368,208.774 171.965 C 209.245 171.630,210.295 170.884,211.107 170.308 C 220.721 163.482,228.960 155.554,234.071 148.209 L 235.027 146.834 175.472 146.792 L 115.917 146.750 115.874 129.792 L 115.832 112.833 200.013 112.833 L 284.195 112.833 284.123 123.208 " stroke="none" fill="#44c4b4" fill-rule="evenodd"/>
		
    
		<path id="path2" d="M158.055 112.958 C 181.232 112.982,219.107 112.982,242.222 112.958 C 265.337 112.935,246.375 112.916,200.083 112.916 C 153.792 112.916,134.879 112.935,158.055 112.958 M284.076 122.167 C 284.076 126.154,284.098 127.785,284.125 125.792 C 284.151 123.798,284.151 120.535,284.125 118.542 C 284.098 116.548,284.076 118.179,284.076 122.167 M115.913 129.583 C 115.913 137.467,115.933 140.667,115.958 136.696 C 115.983 132.724,115.983 126.274,115.958 122.362 C 115.933 118.451,115.913 121.700,115.913 129.583 M283.872 132.167 C 283.872 132.487,283.906 132.619,283.948 132.458 C 283.990 132.298,283.990 132.035,283.948 131.875 C 283.906 131.715,283.872 131.846,283.872 132.167 M228.075 155.708 L 227.417 156.417 228.125 155.758 C 228.515 155.395,228.833 155.077,228.833 155.050 C 228.833 154.923,228.688 155.050,228.075 155.708 M223.075 160.708 L 222.417 161.417 223.125 160.758 C 223.784 160.145,223.910 160.000,223.784 160.000 C 223.757 160.000,223.438 160.319,223.075 160.708 M262.324 176.292 L 261.750 176.917 262.375 176.342 C 262.957 175.808,263.077 175.667,262.949 175.667 C 262.922 175.667,262.640 175.948,262.324 176.292 M258.913 179.875 L 257.417 181.417 258.958 179.920 C 259.806 179.097,260.500 178.403,260.500 178.378 C 260.500 178.257,260.303 178.443,258.913 179.875 M255.409 183.208 L 254.750 183.917 255.458 183.258 C 256.117 182.645,256.243 182.500,256.117 182.500 C 256.090 182.500,255.771 182.819,255.409 183.208 M144.406 217.208 L 143.917 217.750 144.458 217.260 C 144.963 216.804,145.077 216.667,144.948 216.667 C 144.919 216.667,144.675 216.910,144.406 217.208 M140.909 220.542 L 140.250 221.250 140.958 220.591 C 141.617 219.978,141.743 219.833,141.617 219.833 C 141.590 219.833,141.271 220.152,140.909 220.542 M137.573 224.042 L 137.083 224.583 137.625 224.094 C 137.923 223.825,138.167 223.581,138.167 223.552 C 138.167 223.423,138.029 223.537,137.573 224.042 M176.740 239.708 L 176.250 240.250 176.792 239.760 C 177.297 239.304,177.410 239.167,177.281 239.167 C 177.252 239.167,177.009 239.410,176.740 239.708 M171.740 244.708 L 171.250 245.250 171.792 244.760 C 172.297 244.304,172.410 244.167,172.281 244.167 C 172.252 244.167,172.009 244.410,171.740 244.708 M235.888 253.792 C 243.389 253.816,255.614 253.816,263.055 253.792 C 270.495 253.768,264.358 253.748,249.417 253.748 C 234.475 253.748,228.387 253.768,235.888 253.792 M284.079 268.917 C 284.079 276.250,284.100 279.226,284.125 275.529 C 284.150 271.833,284.150 265.833,284.125 262.196 C 284.100 258.559,284.079 261.583,284.079 268.917 M116.039 268.167 C 116.039 268.487,116.073 268.619,116.115 268.458 C 116.157 268.298,116.157 268.035,116.115 267.875 C 116.073 267.715,116.039 267.846,116.039 268.167 M115.909 277.583 C 115.909 281.250,115.931 282.726,115.958 280.864 C 115.985 279.002,115.985 276.002,115.958 274.197 C 115.931 272.393,115.909 273.917,115.909 277.583 M284.058 285.500 C 284.058 286.279,284.087 286.598,284.122 286.208 C 284.157 285.819,284.157 285.181,284.122 284.792 C 284.087 284.402,284.058 284.721,284.058 285.500 M157.889 287.125 C 181.065 287.148,218.940 287.148,242.055 287.125 C 265.171 287.102,246.208 287.083,199.917 287.083 C 153.625 287.083,134.712 287.102,157.889 287.125 " stroke="none" fill="#adddd4" fill-rule="evenodd"/>
		
    
		<path id="path3" d="M115.889 114.167 C 115.889 114.854,115.919 115.135,115.955 114.792 C 115.991 114.448,115.991 113.885,115.955 113.542 C 115.919 113.198,115.889 113.479,115.889 114.167 M284.039 129.833 C 284.039 130.154,284.073 130.285,284.115 130.125 C 284.157 129.965,284.157 129.702,284.115 129.542 C 284.073 129.381,284.039 129.512,284.039 129.833 M224.240 159.542 L 223.750 160.083 224.292 159.594 C 224.797 159.138,224.910 159.000,224.781 159.000 C 224.752 159.000,224.509 159.244,224.240 159.542 M260.906 177.875 L 260.417 178.417 260.958 177.927 C 261.463 177.471,261.577 177.333,261.448 177.333 C 261.419 177.333,261.175 177.577,260.906 177.875 M142.906 218.542 L 142.417 219.083 142.958 218.594 C 143.256 218.325,143.500 218.081,143.500 218.052 C 143.500 217.923,143.362 218.037,142.906 218.542 M138.906 222.542 L 138.417 223.083 138.958 222.594 C 139.463 222.138,139.577 222.000,139.448 222.000 C 139.419 222.000,139.175 222.244,138.906 222.542 M172.446 253.625 C 176.587 253.650,183.412 253.650,187.612 253.625 C 191.813 253.600,188.425 253.580,180.083 253.580 C 171.742 253.580,168.305 253.600,172.446 253.625 M278.375 253.791 C 279.452 253.820,281.215 253.820,282.292 253.791 C 283.369 253.762,282.487 253.738,280.333 253.738 C 278.179 253.738,277.298 253.762,278.375 253.791 M115.872 270.500 C 115.872 270.821,115.906 270.952,115.948 270.792 C 115.990 270.631,115.990 270.369,115.948 270.208 C 115.906 270.048,115.872 270.179,115.872 270.500 M284.053 283.167 C 284.053 283.762,284.084 284.006,284.121 283.708 C 284.158 283.410,284.158 282.923,284.121 282.625 C 284.084 282.327,284.053 282.571,284.053 283.167 " stroke="none" fill="#80cec3" fill-rule="evenodd"/>
		
    
		<path id="path4" d="M284.045 131.000 C 284.045 131.412,284.078 131.581,284.118 131.375 C 284.157 131.169,284.157 130.831,284.118 130.625 C 284.078 130.419,284.045 130.587,284.045 131.000 M145.708 146.792 C 162.094 146.815,188.906 146.815,205.292 146.792 C 221.677 146.768,208.271 146.749,175.500 146.749 C 142.729 146.749,129.323 146.768,145.708 146.792 M137.906 223.542 L 137.417 224.083 137.958 223.594 C 138.256 223.325,138.500 223.081,138.500 223.052 C 138.500 222.923,138.362 223.037,137.906 223.542 M201.863 253.625 C 205.591 253.650,211.741 253.650,215.529 253.625 C 219.317 253.600,216.267 253.580,208.750 253.580 C 201.233 253.579,198.134 253.600,201.863 253.625 M115.879 269.333 C 115.879 269.746,115.911 269.915,115.951 269.708 C 115.991 269.502,115.991 269.165,115.951 268.958 C 115.911 268.752,115.879 268.921,115.879 269.333 " stroke="none" fill="#64c4bc" fill-rule="evenodd"/>
		
  
	</g>
	

</svg>
