<svg xmlns="http://www.w3.org/2000/svg" xmlns:xlink="http://www.w3.org/1999/xlink" aria-labelledby="mainLogo" class="logo__svg no-tagline" viewBox="0 0 220 56">
  <defs>
    <path id="a" d="M0 0h89.584v30.847H0z"/>
  </defs>
  <g fill="none" fill-rule="evenodd">
    <path fill="#FFFFFE" d="M35.281 18.237c0-5.128-4.134-9.3-9.215-9.3V4.363c5.185 0 9.71 2.911 12.052 7.2a13.886 13.886 0 0 1 1.698 6.675h-4.535zm-12.18 3.202h20.422V.83H23.101v20.608zM3.383 4.351l13.765.01v4.577h-9.23v9.29H3.383V4.35zM0 21.462h20.422V.854H0v20.608zm3.383 20.042h4.535V27.628H3.383v13.876zM0 44.8h20.422V24.192H0V44.8zm30.605-17.172c0 5.125 4.132 9.295 9.211 9.295v4.58c-7.582 0-13.75-6.224-13.75-13.875h4.54zM23.101 44.8h20.422V24.192H23.101V44.8zm156.705-3.7a6.236 6.236 0 0 1-4.46-1.865 6.353 6.353 0 0 1-1.848-4.501v-.622c0-1.7.656-3.299 1.847-4.501a6.24 6.24 0 0 1 4.462-1.865c1.685 0 3.268.663 4.459 1.865l2.939-2.965a10.348 10.348 0 0 0-7.398-3.093 10.349 10.349 0 0 0-7.4 3.093 10.54 10.54 0 0 0-3.064 7.466h.002-.001v.622h-.001c0 2.82 1.088 5.471 3.065 7.465a10.347 10.347 0 0 0 7.398 3.093c2.795 0 5.423-1.098 7.399-3.093l-2.939-2.964a6.237 6.237 0 0 1-4.46 1.864m-67.421-6.387c0 3.51-2.83 6.365-6.309 6.365-3.478 0-6.307-2.856-6.307-6.365 0-3.51 2.83-6.366 6.308-6.366h2.386v-4.193h-2.386c-5.77 0-10.463 4.737-10.463 10.559 0 5.821 4.693 10.558 10.462 10.558 2.368 0 4.554-.8 6.309-2.142v1.702h4.155V16.573h-4.155v18.139M81.427 24.153c-5.769 0-10.463 4.737-10.463 10.559 0 5.821 4.694 10.558 10.463 10.558h1.001v-4.194h-1c-3.48 0-6.309-2.855-6.309-6.364 0-3.51 2.83-6.366 6.308-6.366h6.01v16.471h4.155V24.161l-10.165-.008m74.425-.6c-5.77 0-10.463 4.737-10.463 10.558v10.705h4.155V34.111h-.001c0-3.51 2.83-6.364 6.309-6.364 3.478 0 6.308 2.855 6.308 6.364V44.8h4.155V34.111c0-5.821-4.694-10.558-10.463-10.558M56.599 44.8h4.155V28.363h8.51V24.17H56.599v20.628"/>
    <g transform="translate(120.635 24.153)">
      <mask id="b" fill="#fff">
        <use xlink:href="#a"/>
      </mask>
      <path fill="#FFFFFE" d="M10.463 0C4.693 0 0 4.737 0 10.558c0 5.822 4.694 10.558 10.463 10.558h1.001v-4.193h-1c-3.479 0-6.309-2.855-6.31-6.364h.001c0-3.51 2.83-6.366 6.308-6.366h6.01v16.471h4.155V.007L10.463 0m74.961.018v20.04c0 3.673-2.961 6.662-6.6 6.662v4.142c5.903 0 10.76-4.846 10.76-10.804V.018h-4.16" mask="url(#b)"/>
    </g>
    <path fill="#FFFFFE" d="M201.451 45.27v-4.194h-1.34c-3.478 0-6.307-2.855-6.307-6.364V24.17h-4.155v10.54c0 5.822 4.694 10.56 10.463 10.56l1.34-.001m14.144-18.989h.495c.239 0 .41-.137.41-.36 0-.216-.171-.362-.41-.362h-.495v.723zm.725.25.546.672h-.375l-.52-.646h-.376v.646h-.29v-1.92h.793c.401 0 .708.259.708.646 0 .31-.196.525-.486.602zm1.305-.25c0-.92-.76-1.634-1.638-1.634-.878 0-1.637.714-1.637 1.635 0 .92.759 1.635 1.637 1.635.879 0 1.638-.714 1.638-1.635zm.392 0c0 1.145-.921 1.997-2.03 1.997-1.1 0-2.03-.852-2.03-1.996 0-1.136.93-1.997 2.03-1.997 1.109 0 2.03.861 2.03 1.997z"/>
  </g>
</svg>
