<?xml version="1.0" ?>
<!-- Generator: Adobe Illustrator 28.2.0, SVG Export Plug-In . SVG Version: 6.00 Build 0)  -->
<svg xmlns="http://www.w3.org/2000/svg" version="1.2" baseProfile="tiny-ps" id="svg" viewBox="0 0 400 400" xml:space="preserve">
	<g id="svgg">
		<path id="path0" fill-rule="evenodd" fill="#FBFBFB" d="M247.7,91c-42.2,3.7-104.9,35.8-141.5,72.5c-15.7,15.8-21.8,27.3-20.5,38.6   c1.1,9.7,6.8,8.3,20.5-5c23.3-22.7,40.5-36,59.5-46.3c8.6-4.6,22.1-10.1,23-9.3c2.2,2.2-26.8,52.4-50.5,87.5   c-5.1,7.5-5.1,7.5-7.2,8.2c-8.4,2.8-11.7,9.5-6.9,13.7l1.1,1l-1.4,2.6c-0.8,1.4-2.8,5.1-4.4,8c-7.9,14.6-12.5,21.7-17.6,26.9   c-7.8,7.9-7.1,15.4,1.6,18.5c12.8,4.6,27.1-4.9,43.6-29.3l1.9-2.9l2.5,2.4c18.1,17.3,38.2,26.4,51,23c7-1.9,14.4-7.3,18.5-13.5   c3.6-5.5,0-8-9.1-6.3c-3.3,0.6-22.6-12-35.1-23c-6.7-5.9-13-13.6-11-13.6c1.6,0,28-8.6,38.8-12.6c62.6-23.5,102.2-55.9,109-89   C320,110.7,290.6,87.3,247.7,91 M267.1,123.6c24.8,1.7,29.2,14.7,11.3,33.4c-15.9,16.5-45.6,35.4-89.3,56.7   c-9.9,4.8-10.9,5.2-10.9,4.9c0-1.8,7-15.2,17.4-33c10.4-18,14.6-26,17.3-33.4c3.5-9.7,2.6-15.5-2.6-17.3c-0.7-0.2-1.3-0.5-1.2-0.5   c0,0,2.2-0.8,4.9-1.7c14.1-4.7,28-7.8,39.7-8.8C259.9,123.3,262.4,123.3,267.1,123.6"/>
		<path id="path1" fill-rule="evenodd" fill="#C3142C" d="M192.8,0.2C69.1,4.8-20.5,118.7,4.1,240.1   c21.3,105.3,123.1,174.8,229.5,156.8c109.8-18.6,183.4-124.2,162.8-233.8C378.2,65.9,291.5-3.5,192.8,0.2 M267.5,91.1   c13.3,1.6,24.5,6.1,32.9,13.2c14.1,11.9,19.7,23.5,18.5,37.8c-3.6,40.6-57.1,80.4-141.5,105.3c-3.8,1.1-7.1,2.1-7.2,2.1   c-0.7,0.2,2.3,4.5,5.3,7.5c6.2,6.2,23.9,18.9,32.6,23.2l2.5,1.2l2-0.3c6.7-1,10.5,0.2,10,3.2c-0.1,1-0.1,1,0.8,1   c10.9,0-3.6,17.4-17.1,20.6c-12.3,2.8-31-5.7-49.2-22.3l-3.4-3.1l-2,2.9c-10.1,14.9-21.2,25.8-29.5,29c-7,2.7-16.8,0.8-19.6-3.8   c-0.3-0.5-1.2-1.3-1.9-1.8c-6.1-3.9-5.7-10.4,0.9-17.2c5.9-6,9.7-12,19.6-30.2l4.1-7.5l-0.8-0.5c-5.6-3.8-1.8-11.5,6.9-14.3   c1.7-0.6,2.1-1,7.5-9c17.4-26,48.9-78.7,47.7-79.9c-0.2-0.2-7.1,2.7-11.7,5c-19.8,9.8-38.6,24-62.7,47.5   c-13.1,12.7-18.3,15.1-20.9,9.5c-0.7-1.4-0.8-1.6-1.9-1.8c-2.7-0.7-3.6-2.9-3.6-8.7c0-5.6,1.4-11.6,3.4-14.8   c26.4-42.1,105.9-89.3,158-93.8c1.8-0.2,3.7-0.3,4.3-0.4C253.6,90.4,264.2,90.7,267.5,91.1 M262.9,128c-14.1,0.9-26.9,3.5-42.9,8.8   c-5.9,1.9-5.9,1.9-4.2,2.7c7.8,3.8,4.5,15.8-12.3,45.1c-10.3,17.8-12.4,21.6-14.5,25.7c-1.2,2.4-2.2,4.3-2.1,4.3   c0.4,0,20.7-10.3,26.5-13.4c43.5-23.3,69.1-43.4,74.8-58.8c1-2.7,1.1-7.1,0.2-9.1C286.8,130,274,127.3,262.9,128"/>
		<path id="path2" fill-rule="evenodd" fill="#050505" d="M307,111.3c8.1,10.7,9.6,25.8,4.1,40.5c-14,36.9-66.7,70.9-144.3,92.9   l-1.5,0.4l0.5,1c0.8,1.7,3.5,5.1,5.6,7c1.5,1.5,1.7,1.6,1,0.7c-1.1-1.4-2.6-3.8-2.6-4.2c0-0.1,1.8-0.8,3.9-1.4   c60.6-17.6,104.8-41.6,128.3-69.8c19.6-23.4,22.3-48.4,7.1-65.6C306.6,110.1,305.3,109.2,307,111.3 M256.1,123.8   c-0.6,0.1-2.4,0.2-4,0.4c-11.4,1.1-25.6,4.4-38.9,8.9l-3.6,1.2l1.6,0.8c1.1,0.6,1.9,1.2,2.5,2l0.9,1.2l4.7-1.6   c28.2-9.4,55-11.7,67-5.6l1.3,0.7l-0.5-0.8C283.2,125.8,269.4,122.5,256.1,123.8 M215,142.5c0,7.8-4.2,17.2-19.8,44.1   c-9.8,16.8-17,30.6-16.6,31.7c0,0.1,1.9-0.7,4.1-1.7l4-1.9l1-2.1c1.6-3.3,5.7-10.6,11.4-20.5c10.5-18.2,15.1-26.9,17.8-33.7   c4-10.2,3.6-16.9-1.2-18.7l-0.7-0.3L215,142.5 M185.1,142.5c-24,8.2-47.9,24.7-78,53.9c-8.5,8.3-11.7,10.7-15.1,11.7   c-1.6,0.5-1.7,0.9-0.4,2.9c2.8,4.1,7.8,1.5,20.1-10.5c27.1-26.3,50-42.8,71.5-51.4c3.6-1.5,3.6-1.4,4.7-4.6   c0.6-1.8,0.8-3.2,0.4-3.1C188.3,141.4,186.8,141.9,185.1,142.5 M146.9,279c-10.8,15.9-21.9,26.6-31,29.7c-2.3,0.8-9,0.7-11.6-0.1   c-2.4-0.8-2.5-0.7-1,1c3.5,3.7,12,5.2,17.9,3.1c7.3-2.6,16.3-10.7,25.9-23.2c2.1-2.8,6.2-8.8,6.2-9c0-0.1-1-1.1-2.2-2.2l-2.2-2   L146.9,279 M159.3,285.6c14.9,14.1,34.7,22.7,46.3,20.3c11.7-2.4,26-16.7,19.9-19.8c-1.7-0.9-3.3-0.8-3.6,0.2   c-0.8,2.1-5.5,7.4-9.2,10.1c-13.3,10-30.3,6.7-51.9-9.9C158.9,285,158.4,284.7,159.3,285.6"/>
		<path id="path3" fill-rule="evenodd" fill="#735651" d="M305,108.9c0,0.2,0.4,0.6,0.8,0.9c0.4,0.3,0.7,0.7,0.7,0.8   c-0.1,0.1,0,0.3,0.1,0.4c0.6,0.4,0.1-0.7-0.7-1.5C305.4,109,305,108.8,305,108.9 M308.8,112.6c0.5,0.5,1,0.9,1,0.9   s-0.3-0.4-0.8-0.9c-0.5-0.5-1-0.9-1-0.9S308.3,112.1,308.8,112.6 M261.3,123.5c0.7,0.1,1.8,0.1,2.4,0c0.6-0.1,0-0.1-1.3-0.1   C261.2,123.4,260.6,123.5,261.3,123.5 M255.6,123.8c0.3,0.1,0.8,0.1,1.1,0c0.3-0.1,0-0.1-0.6-0.1   C255.5,123.7,255.3,123.7,255.6,123.8 M267.7,123.8c0.3,0.1,0.7,0.1,0.9,0c0.3-0.1,0-0.1-0.5-0.1   C267.7,123.7,267.5,123.7,267.7,123.8 M262,128c0.5,0.1,1.2,0.1,1.6,0c0.4-0.1,0-0.1-0.9-0.1C261.9,127.9,261.5,128,262,128    M270.4,128c0.4,0.1,1.1,0.1,1.5,0c0.4-0.1,0.1-0.1-0.7-0.1C270.3,127.9,270,128,270.4,128 M258.2,128.3c0.3,0.1,0.7,0.1,0.9,0   c0.3-0.1,0-0.1-0.5-0.1C258.1,128.2,257.9,128.2,258.2,128.3 M318.9,138.7c0,1.2,0,1.7,0.1,1.1c0.1-0.6,0.1-1.6,0-2.3   S318.9,137.5,318.9,138.7 M298,183.1l-1.3,1.4L298,183.1c0.8-0.6,1.5-1.3,1.5-1.3C299.5,181.6,299.2,181.8,298,183.1 M128,185.5   l-0.8,0.9L128,185.5c0.9-0.6,1.1-0.9,0.9-0.9C128.8,184.6,128.4,185,128,185.5 M117.6,186.3l-0.8,0.9L117.6,186.3   c0.9-0.6,1.1-0.9,0.9-0.9C118.4,185.4,118.1,185.8,117.6,186.3 M125.7,187.5l-0.9,1L125.7,187.5c1-0.8,1.2-1,1-1   C126.7,186.5,126.2,186.9,125.7,187.5 M291.4,189.7l-1.3,1.4L291.4,189.7c0.8-0.6,1.5-1.3,1.5-1.3   C292.8,188.2,292.6,188.4,291.4,189.7 M113.7,190l-1.3,1.4L113.7,190c0.8-0.6,1.5-1.3,1.5-1.3C115.1,188.5,114.9,188.7,113.7,190    M122.8,190.1c-0.6,0.7-1.1,1.2-1,1.2c0.1,0,0.7-0.5,1.3-1.2c0.6-0.7,1.1-1.2,1-1.2C124,188.9,123.5,189.4,122.8,190.1    M288.4,192.4l-0.8,0.9L288.4,192.4c0.9-0.6,1.1-0.9,0.9-0.9C289.3,191.5,288.9,191.9,288.4,192.4 M119.1,193.6l-1.7,1.8   L119.1,193.6c1.7-1.5,2-1.8,1.8-1.8C120.8,191.8,120,192.6,119.1,193.6 M105.8,197.5l-2.5,2.6L105.8,197.5c1.5-1.3,2.7-2.5,2.7-2.5   C108.5,194.8,108.2,195.1,105.8,197.5 M111.9,200.5l-3.8,3.9L111.9,200.5c3.7-3.5,4.1-3.9,3.9-3.9   C115.8,196.6,114,198.3,111.9,200.5 M105.6,206.6l-0.9,1L105.6,206.6c1-0.8,1.2-1,1-1C106.5,205.6,106.1,206,105.6,206.6    M172.3,254.3c1.5,1.5,2.7,2.7,2.7,2.7c0.2,0-1.1-1.7-1.7-2c-0.4-0.2-0.6-0.5-0.5-0.6c0.1-0.1-0.1-0.4-0.3-0.5   c-0.2-0.2-0.4-0.2-0.4-0.1c0,0.1-0.6-0.3-1.3-1C170.2,252.1,170.8,252.8,172.3,254.3 M148.6,276.2c-0.1,0.2-0.1,0.2,0,0.1   c0.1-0.1,1,0.5,2,1.5l1.7,1.7l-1.7-1.8C148.7,275.6,148.9,275.8,148.6,276.2 M155,281.9c0.7,0.8,1.4,1.4,1.4,1.4   c0.3,0-0.1-0.6-1.3-1.6l-1.4-1.2L155,281.9 M157.6,284c0,0.5,1.5,1.8,1.7,1.5c0.2-0.3,0.1-0.3-0.4-0.4c-0.2,0-0.5-0.3-0.8-0.7   C157.8,284,157.6,283.8,157.6,284 M160.1,286.2c-0.1,0.1,0.2,0.5,0.6,0.9c0.5,0.4,0.6,0.5,0.3,0.1c-0.2-0.3-0.4-0.6-0.4-0.8   C160.5,286,160.3,285.9,160.1,286.2 M226.9,288.3c0,0.7,0.1,0.9,0.1,0.6c0.1-0.3,0.1-0.9,0-1.2   C226.9,287.4,226.9,287.7,226.9,288.3 M222.8,295.4l-0.9,1L222.8,295.4c1-0.8,1.2-1,1-1C223.7,294.4,223.3,294.9,222.8,295.4    M131.7,297.7l-1.6,1.7L131.7,297.7c1.6-1.4,1.9-1.7,1.7-1.7C133.3,296,132.6,296.8,131.7,297.7 M139.4,298.7l-1,1.1L139.4,298.7   c0.7-0.5,1.2-1,1.2-1C140.6,297.5,140.4,297.7,139.4,298.7 M136.3,302.1l-0.9,1L136.3,302.1c1-0.8,1.2-1,1-1   C137.3,301.1,136.8,301.5,136.3,302.1 M193.8,302c0.3,0.1,0.8,0.1,1.1,0s0-0.1-0.6-0.1C193.7,301.9,193.5,302,193.8,302 M198.2,302   c0.3,0.1,0.7,0.1,0.9,0c0.3-0.1,0-0.1-0.5-0.1C198.2,301.9,198,302,198.2,302 M133,305.1l-0.8,0.9L133,305.1   c0.9-0.6,1.1-0.9,0.9-0.9C133.8,304.2,133.4,304.6,133,305.1 M102.7,309.1c0,0,0.4,0.4,0.9,0.9l0.9,0.8l-0.8-0.9   C102.9,309.1,102.7,308.9,102.7,309.1 M114.4,313.7c0.5,0.1,1.4,0.1,2,0c0.5-0.1,0.1-0.1-1-0.1   C114.3,313.6,113.8,313.7,114.4,313.7"/>
		<path id="path4" fill-rule="evenodd" fill="#D76959" d="M254.5,90.6c1.3,0,3.3,0,4.5,0c1.2,0,0.1-0.1-2.3-0.1   C254.2,90.6,253.2,90.6,254.5,90.6 M248.7,90.9c0.3,0.1,0.8,0.1,1.1,0c0.3-0.1,0-0.1-0.6-0.1C248.6,90.8,248.4,90.8,248.7,90.9    M263.7,90.9c0.3,0.1,0.7,0.1,0.9,0s0-0.1-0.5-0.1C263.7,90.8,263.5,90.8,263.7,90.9 M302.8,106.6c0.7,0.7,1.4,1.3,1.4,1.3   s-0.5-0.6-1.2-1.3c-0.7-0.7-1.4-1.3-1.4-1.3C301.5,105.3,302.1,105.9,302.8,106.6 M289.2,137.4c0,0.7,0.1,0.9,0.1,0.6   c0.1-0.3,0.1-0.9,0-1.2C289.2,136.5,289.2,136.7,289.2,137.4 M278.8,156.4l-1.4,1.5L278.8,156.4c1.5-1.3,1.7-1.5,1.5-1.5   C280.3,154.9,279.6,155.6,278.8,156.4 M113.6,156.3l-0.8,0.9L113.6,156.3c0.9-0.6,1.1-0.9,0.9-0.9   C114.5,155.4,114.1,155.8,113.6,156.3 M110.2,159.5l-1.6,1.7L110.2,159.5c1.6-1.4,1.9-1.7,1.7-1.7   C111.8,157.8,111.1,158.6,110.2,159.5 M274.4,160.8l-1.6,1.7L274.4,160.8c1.6-1.4,1.9-1.7,1.7-1.7   C276,159.2,275.3,159.9,274.4,160.8 M271.2,163.7l-0.8,0.9L271.2,163.7c0.9-0.6,1.1-0.9,0.9-0.9C272,162.9,271.6,163.3,271.2,163.7    M102.4,167.3l-1.4,1.5L102.4,167.3c1.5-1.3,1.7-1.5,1.5-1.5C103.9,165.8,103.2,166.5,102.4,167.3 M109.5,193.8   c-0.6,0.7-1.1,1.2-1,1.2c0.1,0,0.7-0.5,1.3-1.2c0.6-0.7,1.1-1.2,1-1.2C110.8,192.6,110.2,193.1,109.5,193.8 M85.5,198.4   c0,0.7,0.1,0.9,0.1,0.6c0.1-0.3,0.1-0.9,0-1.2C85.5,197.5,85.5,197.8,85.5,198.4 M85.5,201.7c0,0.6,0.1,0.8,0.1,0.5   c0.1-0.3,0.1-0.8,0-1.1C85.5,200.9,85.5,201.1,85.5,201.7 M132.8,236.2c-0.4,0.4-0.6,0.7-0.5,0.7c0.1,0,0.5-0.3,0.9-0.7   C133.9,235.4,133.8,235.4,132.8,236.2 M124,241.2l-0.8,0.9L124,241.2c0.9-0.6,1.1-0.9,0.9-0.9C124.8,240.3,124.4,240.7,124,241.2    M121.8,246.3c0,0.7,0.1,1,0.1,0.6c0.1-0.4,0.1-1,0-1.3C121.9,245.2,121.8,245.6,121.8,246.3 M122.8,249.9c0,0,0.4,0.4,0.9,0.9   l0.9,0.8l-0.8-0.9C123,249.9,122.8,249.7,122.8,249.9 M102.2,288.9l-1.6,1.7L102.2,288.9c1-0.8,1.7-1.5,1.7-1.6   C104,287.1,103.7,287.4,102.2,288.9 M98.7,305.4c0.5,0.5,1,0.9,1,0.9s-0.3-0.4-0.8-0.9c-0.5-0.5-1-0.9-1-0.9   C97.8,304.5,98.2,304.9,98.7,305.4"/>
	</g>
</svg>