<?xml version="1.0" ?>
<svg xmlns:xlink="http://www.w3.org/1999/xlink" xmlns="http://www.w3.org/2000/svg" viewBox="0 0 162.40155 162.40155">
	<defs id="defs952">
		<symbol id="material_x5F_product_x5F_icon_x5F_border" viewBox="0 -192 192 192" transform="translate(-14.799221,-14.799221)">
			<polygon fill="none" points="192,-192 192,0 0,0 0,-192 " id="polygon559"/>
		</symbol>
		<symbol id="material_x5F_product_x5F_icon_x5F_grid" viewBox="0 -192 192 192" transform="translate(-14.799221,-14.799221)">
			<g id="g766">
				<defs id="defs563">
					<polygon id="SVGID_1_" points="0,0 192,0 192,-192 0,-192 "/>
				</defs>
				<clipPath id="SVGID_2_">
					<use xlink:href="#SVGID_1_" overflow="visible" id="use565"/>
				</clipPath>
				<g clip-path="url(#SVGID_2_)" id="g764">
					<g id="g662">
						<line fill="none" stroke="#000000" stroke-width="0.25" stroke-miterlimit="10" x1="4" y1="-192" x2="4" y2="0" id="line568"/>
						<line fill="none" stroke="#000000" stroke-width="0.25" stroke-miterlimit="10" x1="8" y1="-192" x2="8" y2="0" id="line570"/>
						<line fill="none" stroke="#000000" stroke-width="0.25" stroke-miterlimit="10" x1="12" y1="-192" x2="12" y2="0" id="line572"/>
						<line fill="none" stroke="#000000" stroke-width="0.25" stroke-miterlimit="10" x1="16" y1="-192" x2="16" y2="0" id="line574"/>
						<line fill="none" stroke="#000000" stroke-width="0.25" stroke-miterlimit="10" x1="20" y1="-192" x2="20" y2="0" id="line576"/>
						<line fill="none" stroke="#000000" stroke-width="0.25" stroke-miterlimit="10" x1="24" y1="-192" x2="24" y2="0" id="line578"/>
						<line fill="none" stroke="#000000" stroke-width="0.25" stroke-miterlimit="10" x1="28" y1="-192" x2="28" y2="0" id="line580"/>
						<line fill="none" stroke="#000000" stroke-width="0.25" stroke-miterlimit="10" x1="32" y1="-192" x2="32" y2="0" id="line582"/>
						<line fill="none" stroke="#000000" stroke-width="0.25" stroke-miterlimit="10" x1="36" y1="-192" x2="36" y2="0" id="line584"/>
						<line fill="none" stroke="#000000" stroke-width="0.25" stroke-miterlimit="10" x1="40" y1="-192" x2="40" y2="0" id="line586"/>
						<line fill="none" stroke="#000000" stroke-width="0.25" stroke-miterlimit="10" x1="44" y1="-192" x2="44" y2="0" id="line588"/>
						<line fill="none" stroke="#000000" stroke-width="0.25" stroke-miterlimit="10" x1="48" y1="-192" x2="48" y2="0" id="line590"/>
						<line fill="none" stroke="#000000" stroke-width="0.25" stroke-miterlimit="10" x1="52" y1="-192" x2="52" y2="0" id="line592"/>
						<line fill="none" stroke="#000000" stroke-width="0.25" stroke-miterlimit="10" x1="56" y1="-192" x2="56" y2="0" id="line594"/>
						<line fill="none" stroke="#000000" stroke-width="0.25" stroke-miterlimit="10" x1="60" y1="-192" x2="60" y2="0" id="line596"/>
						<line fill="none" stroke="#000000" stroke-width="0.25" stroke-miterlimit="10" x1="64" y1="-192" x2="64" y2="0" id="line598"/>
						<line fill="none" stroke="#000000" stroke-width="0.25" stroke-miterlimit="10" x1="68" y1="-192" x2="68" y2="0" id="line600"/>
						<line fill="none" stroke="#000000" stroke-width="0.25" stroke-miterlimit="10" x1="72" y1="-192" x2="72" y2="0" id="line602"/>
						<line fill="none" stroke="#000000" stroke-width="0.25" stroke-miterlimit="10" x1="76" y1="-192" x2="76" y2="0" id="line604"/>
						<line fill="none" stroke="#000000" stroke-width="0.25" stroke-miterlimit="10" x1="80" y1="-192" x2="80" y2="0" id="line606"/>
						<line fill="none" stroke="#000000" stroke-width="0.25" stroke-miterlimit="10" x1="84" y1="-192" x2="84" y2="0" id="line608"/>
						<line fill="none" stroke="#000000" stroke-width="0.25" stroke-miterlimit="10" x1="88" y1="-192" x2="88" y2="0" id="line610"/>
						<line fill="none" stroke="#000000" stroke-width="0.25" stroke-miterlimit="10" x1="92" y1="-192" x2="92" y2="0" id="line612"/>
						<line fill="none" stroke="#000000" stroke-width="0.25" stroke-miterlimit="10" x1="96" y1="-192" x2="96" y2="0" id="line614"/>
						<line fill="none" stroke="#000000" stroke-width="0.25" stroke-miterlimit="10" x1="100" y1="-192" x2="100" y2="0" id="line616"/>
						<line fill="none" stroke="#000000" stroke-width="0.25" stroke-miterlimit="10" x1="104" y1="-192" x2="104" y2="0" id="line618"/>
						<line fill="none" stroke="#000000" stroke-width="0.25" stroke-miterlimit="10" x1="108" y1="-192" x2="108" y2="0" id="line620"/>
						<line fill="none" stroke="#000000" stroke-width="0.25" stroke-miterlimit="10" x1="112" y1="-192" x2="112" y2="0" id="line622"/>
						<line fill="none" stroke="#000000" stroke-width="0.25" stroke-miterlimit="10" x1="116" y1="-192" x2="116" y2="0" id="line624"/>
						<line fill="none" stroke="#000000" stroke-width="0.25" stroke-miterlimit="10" x1="120" y1="-192" x2="120" y2="0" id="line626"/>
						<line fill="none" stroke="#000000" stroke-width="0.25" stroke-miterlimit="10" x1="124" y1="-192" x2="124" y2="0" id="line628"/>
						<line fill="none" stroke="#000000" stroke-width="0.25" stroke-miterlimit="10" x1="128" y1="-192" x2="128" y2="0" id="line630"/>
						<line fill="none" stroke="#000000" stroke-width="0.25" stroke-miterlimit="10" x1="132" y1="-192" x2="132" y2="0" id="line632"/>
						<line fill="none" stroke="#000000" stroke-width="0.25" stroke-miterlimit="10" x1="136" y1="-192" x2="136" y2="0" id="line634"/>
						<line fill="none" stroke="#000000" stroke-width="0.25" stroke-miterlimit="10" x1="140" y1="-192" x2="140" y2="0" id="line636"/>
						<line fill="none" stroke="#000000" stroke-width="0.25" stroke-miterlimit="10" x1="144" y1="-192" x2="144" y2="0" id="line638"/>
						<line fill="none" stroke="#000000" stroke-width="0.25" stroke-miterlimit="10" x1="148" y1="-192" x2="148" y2="0" id="line640"/>
						<line fill="none" stroke="#000000" stroke-width="0.25" stroke-miterlimit="10" x1="152" y1="-192" x2="152" y2="0" id="line642"/>
						<line fill="none" stroke="#000000" stroke-width="0.25" stroke-miterlimit="10" x1="156" y1="-192" x2="156" y2="0" id="line644"/>
						<line fill="none" stroke="#000000" stroke-width="0.25" stroke-miterlimit="10" x1="160" y1="-192" x2="160" y2="0" id="line646"/>
						<line fill="none" stroke="#000000" stroke-width="0.25" stroke-miterlimit="10" x1="164" y1="-192" x2="164" y2="0" id="line648"/>
						<line fill="none" stroke="#000000" stroke-width="0.25" stroke-miterlimit="10" x1="168" y1="-192" x2="168" y2="0" id="line650"/>
						<line fill="none" stroke="#000000" stroke-width="0.25" stroke-miterlimit="10" x1="172" y1="-192" x2="172" y2="0" id="line652"/>
						<line fill="none" stroke="#000000" stroke-width="0.25" stroke-miterlimit="10" x1="176" y1="-192" x2="176" y2="0" id="line654"/>
						<line fill="none" stroke="#000000" stroke-width="0.25" stroke-miterlimit="10" x1="180" y1="-192" x2="180" y2="0" id="line656"/>
						<line fill="none" stroke="#000000" stroke-width="0.25" stroke-miterlimit="10" x1="184" y1="-192" x2="184" y2="0" id="line658"/>
						<line fill="none" stroke="#000000" stroke-width="0.25" stroke-miterlimit="10" x1="188" y1="-192" x2="188" y2="0" id="line660"/>
					</g>
					<g id="g758">
						<line fill="none" stroke="#000000" stroke-width="0.25" stroke-miterlimit="10" x1="0" y1="-4" x2="192" y2="-4" id="line664"/>
						<line fill="none" stroke="#000000" stroke-width="0.25" stroke-miterlimit="10" x1="0" y1="-8" x2="192" y2="-8" id="line666"/>
						<line fill="none" stroke="#000000" stroke-width="0.25" stroke-miterlimit="10" x1="0" y1="-12" x2="192" y2="-12" id="line668"/>
						<line fill="none" stroke="#000000" stroke-width="0.25" stroke-miterlimit="10" x1="0" y1="-16" x2="192" y2="-16" id="line670"/>
						<line fill="none" stroke="#000000" stroke-width="0.25" stroke-miterlimit="10" x1="0" y1="-20" x2="192" y2="-20" id="line672"/>
						<line fill="none" stroke="#000000" stroke-width="0.25" stroke-miterlimit="10" x1="0" y1="-24" x2="192" y2="-24" id="line674"/>
						<line fill="none" stroke="#000000" stroke-width="0.25" stroke-miterlimit="10" x1="0" y1="-28" x2="192" y2="-28" id="line676"/>
						<line fill="none" stroke="#000000" stroke-width="0.25" stroke-miterlimit="10" x1="0" y1="-32" x2="192" y2="-32" id="line678"/>
						<line fill="none" stroke="#000000" stroke-width="0.25" stroke-miterlimit="10" x1="0" y1="-36" x2="192" y2="-36" id="line680"/>
						<line fill="none" stroke="#000000" stroke-width="0.25" stroke-miterlimit="10" x1="0" y1="-40" x2="192" y2="-40" id="line682"/>
						<line fill="none" stroke="#000000" stroke-width="0.25" stroke-miterlimit="10" x1="0" y1="-44" x2="192" y2="-44" id="line684"/>
						<line fill="none" stroke="#000000" stroke-width="0.25" stroke-miterlimit="10" x1="0" y1="-48" x2="192" y2="-48" id="line686"/>
						<line fill="none" stroke="#000000" stroke-width="0.25" stroke-miterlimit="10" x1="0" y1="-52" x2="192" y2="-52" id="line688"/>
						<line fill="none" stroke="#000000" stroke-width="0.25" stroke-miterlimit="10" x1="0" y1="-56" x2="192" y2="-56" id="line690"/>
						<line fill="none" stroke="#000000" stroke-width="0.25" stroke-miterlimit="10" x1="0" y1="-60" x2="192" y2="-60" id="line692"/>
						<line fill="none" stroke="#000000" stroke-width="0.25" stroke-miterlimit="10" x1="0" y1="-64" x2="192" y2="-64" id="line694"/>
						<line fill="none" stroke="#000000" stroke-width="0.25" stroke-miterlimit="10" x1="0" y1="-68" x2="192" y2="-68" id="line696"/>
						<line fill="none" stroke="#000000" stroke-width="0.25" stroke-miterlimit="10" x1="0" y1="-72" x2="192" y2="-72" id="line698"/>
						<line fill="none" stroke="#000000" stroke-width="0.25" stroke-miterlimit="10" x1="0" y1="-76" x2="192" y2="-76" id="line700"/>
						<line fill="none" stroke="#000000" stroke-width="0.25" stroke-miterlimit="10" x1="0" y1="-80" x2="192" y2="-80" id="line702"/>
						<line fill="none" stroke="#000000" stroke-width="0.25" stroke-miterlimit="10" x1="0" y1="-84" x2="192" y2="-84" id="line704"/>
						<line fill="none" stroke="#000000" stroke-width="0.25" stroke-miterlimit="10" x1="0" y1="-88" x2="192" y2="-88" id="line706"/>
						<line fill="none" stroke="#000000" stroke-width="0.25" stroke-miterlimit="10" x1="0" y1="-92" x2="192" y2="-92" id="line708"/>
						<line fill="none" stroke="#000000" stroke-width="0.25" stroke-miterlimit="10" x1="0" y1="-96" x2="192" y2="-96" id="line710"/>
						<line fill="none" stroke="#000000" stroke-width="0.25" stroke-miterlimit="10" x1="0" y1="-100" x2="192" y2="-100" id="line712"/>
						<line fill="none" stroke="#000000" stroke-width="0.25" stroke-miterlimit="10" x1="0" y1="-104" x2="192" y2="-104" id="line714"/>
						<line fill="none" stroke="#000000" stroke-width="0.25" stroke-miterlimit="10" x1="0" y1="-108" x2="192" y2="-108" id="line716"/>
						<line fill="none" stroke="#000000" stroke-width="0.25" stroke-miterlimit="10" x1="0" y1="-112" x2="192" y2="-112" id="line718"/>
						<line fill="none" stroke="#000000" stroke-width="0.25" stroke-miterlimit="10" x1="0" y1="-116" x2="192" y2="-116" id="line720"/>
						<line fill="none" stroke="#000000" stroke-width="0.25" stroke-miterlimit="10" x1="0" y1="-120" x2="192" y2="-120" id="line722"/>
						<line fill="none" stroke="#000000" stroke-width="0.25" stroke-miterlimit="10" x1="0" y1="-124" x2="192" y2="-124" id="line724"/>
						<line fill="none" stroke="#000000" stroke-width="0.25" stroke-miterlimit="10" x1="0" y1="-128" x2="192" y2="-128" id="line726"/>
						<line fill="none" stroke="#000000" stroke-width="0.25" stroke-miterlimit="10" x1="0" y1="-132" x2="192" y2="-132" id="line728"/>
						<line fill="none" stroke="#000000" stroke-width="0.25" stroke-miterlimit="10" x1="0" y1="-136" x2="192" y2="-136" id="line730"/>
						<line fill="none" stroke="#000000" stroke-width="0.25" stroke-miterlimit="10" x1="0" y1="-140" x2="192" y2="-140" id="line732"/>
						<line fill="none" stroke="#000000" stroke-width="0.25" stroke-miterlimit="10" x1="0" y1="-144" x2="192" y2="-144" id="line734"/>
						<line fill="none" stroke="#000000" stroke-width="0.25" stroke-miterlimit="10" x1="0" y1="-148" x2="192" y2="-148" id="line736"/>
						<line fill="none" stroke="#000000" stroke-width="0.25" stroke-miterlimit="10" x1="0" y1="-152" x2="192" y2="-152" id="line738"/>
						<line fill="none" stroke="#000000" stroke-width="0.25" stroke-miterlimit="10" x1="0" y1="-156" x2="192" y2="-156" id="line740"/>
						<line fill="none" stroke="#000000" stroke-width="0.25" stroke-miterlimit="10" x1="0" y1="-160" x2="192" y2="-160" id="line742"/>
						<line fill="none" stroke="#000000" stroke-width="0.25" stroke-miterlimit="10" x1="0" y1="-164" x2="192" y2="-164" id="line744"/>
						<line fill="none" stroke="#000000" stroke-width="0.25" stroke-miterlimit="10" x1="0" y1="-168" x2="192" y2="-168" id="line746"/>
						<line fill="none" stroke="#000000" stroke-width="0.25" stroke-miterlimit="10" x1="0" y1="-172" x2="192" y2="-172" id="line748"/>
						<line fill="none" stroke="#000000" stroke-width="0.25" stroke-miterlimit="10" x1="0" y1="-176" x2="192" y2="-176" id="line750"/>
						<line fill="none" stroke="#000000" stroke-width="0.25" stroke-miterlimit="10" x1="0" y1="-180" x2="192" y2="-180" id="line752"/>
						<line fill="none" stroke="#000000" stroke-width="0.25" stroke-miterlimit="10" x1="0" y1="-184" x2="192" y2="-184" id="line754"/>
						<line fill="none" stroke="#000000" stroke-width="0.25" stroke-miterlimit="10" x1="0" y1="-188" x2="192" y2="-188" id="line756"/>
					</g>
					<g id="g762">
						<path d="m 191.75,-0.25 v -191.5 H 0.25 v 191.5 h 191.5 M 192,0 H 0 v -192 h 192 z" id="path760"/>
					</g>
				</g>
			</g>
		</symbol>
		<symbol id="material_x5F_product_x5F_icon_x5F_keylines" viewBox="0 -192 192 192" transform="translate(-14.799221,-14.799221)">
			<g opacity="0.4" id="g823">
				<defs id="defs770">
					<path id="SVGID_3_" opacity="0.4" d="M 0,0 V -192 H 192 V 0 Z"/>
				</defs>
				<clipPath id="SVGID_4_">
					<use xlink:href="#SVGID_3_" overflow="visible" id="use772"/>
				</clipPath>
				<g clip-path="url(#SVGID_4_)" id="g797">
					<line fill="none" stroke="#000000" stroke-width="0.25" stroke-miterlimit="10" x1="0.25" y1="-0.25" x2="191.75" y2="-191.75" id="line775"/>
					<g id="g779">
						<path d="m 191.75,-0.25 v -191.5 H 0.25 v 191.5 h 191.5 M 192,0 H 0 v -192 h 192 z" id="path777"/>
					</g>
					<line fill="none" stroke="#000000" stroke-width="0.25" stroke-miterlimit="10" x1="191.75" y1="-0.25" x2="0.25" y2="-191.75" id="line781"/>
					<line fill="none" stroke="#000000" stroke-width="0.25" stroke-miterlimit="10" x1="124" y1="0" x2="124" y2="-192" id="line783"/>
					<line fill="none" stroke="#000000" stroke-width="0.25" stroke-miterlimit="10" x1="68" y1="0" x2="68" y2="-192" id="line785"/>
					<line fill="none" stroke="#000000" stroke-width="0.25" stroke-miterlimit="10" x1="192" y1="-124" x2="0" y2="-124" id="line787"/>
					<line fill="none" stroke="#000000" stroke-width="0.25" stroke-miterlimit="10" x1="192" y1="-68" x2="0" y2="-68" id="line789"/>
					<path fill="none" stroke="#000000" stroke-width="0.25" stroke-miterlimit="10" d="m 136,-96 c 0,-22.09 -17.91,-40 -40,-40 -22.09,0 -40,17.91 -40,40 0,22.09 17.91,40 40,40 22.09,0 40,-17.91 40,-40 z" id="path791"/>
					<line fill="none" stroke="#000000" stroke-width="0.25" stroke-miterlimit="10" x1="0" y1="-96" x2="192" y2="-96" id="line793"/>
					<line fill="none" stroke="#000000" stroke-width="0.25" stroke-miterlimit="10" x1="96" y1="0" x2="96" y2="-192" id="line795"/>
				</g>
				<g clip-path="url(#SVGID_4_)" id="g803">
					<g id="g801">
						<path d="m 96,-8.25 c 48.39,0 87.75,-39.36 87.75,-87.75 0,-48.39 -39.36,-87.75 -87.75,-87.75 -48.39,0 -87.75,39.36 -87.75,87.75 0,48.39 39.36,87.75 87.75,87.75 M 96,-8 C 47.4,-8 8,-47.4 8,-96 c 0,-48.6 39.4,-88 88,-88 48.6,0 88,39.4 88,88 0,48.6 -39.4,88 -88,88 z" id="path799"/>
					</g>
				</g>
				<g clip-path="url(#SVGID_4_)" id="g809">
					<g id="g807">
						<path d="m 160,-20.25 c 6.48,0 11.75,-5.27 11.75,-11.75 v -128 c 0,-6.48 -5.27,-11.75 -11.75,-11.75 H 32 c -6.48,0 -11.75,5.27 -11.75,11.75 v 128 c 0,6.48 5.27,11.75 11.75,11.75 h 128 m 0,0.25 H 32 c -6.6,0 -12,-5.4 -12,-12 v -128 c 0,-6.6 5.4,-12 12,-12 h 128 c 6.6,0 12,5.4 12,12 v 128 c 0,6.6 -5.4,12 -12,12 z" id="path805"/>
					</g>
				</g>
				<g clip-path="url(#SVGID_4_)" id="g815">
					<g id="g813">
						<path d="m 148,-8.25 c 6.48,0 11.75,-5.27 11.75,-11.75 v -152 c 0,-6.48 -5.27,-11.75 -11.75,-11.75 H 44 c -6.48,0 -11.75,5.27 -11.75,11.75 v 152 c 0,6.48 5.27,11.75 11.75,11.75 H 148 M 148,-8 H 44 c -6.6,0 -12,-5.4 -12,-12 v -152 c 0,-6.6 5.4,-12 12,-12 h 104 c 6.6,0 12,5.4 12,12 v 152 c 0,6.6 -5.4,12 -12,12 z" id="path811"/>
					</g>
				</g>
				<g clip-path="url(#SVGID_4_)" id="g821">
					<g id="g819">
						<path d="m 172,-32.25 c 6.48,0 11.75,-5.27 11.75,-11.75 v -104 c 0,-6.48 -5.27,-11.75 -11.75,-11.75 H 20 c -6.48,0 -11.75,5.27 -11.75,11.75 v 104 c 0,6.48 5.27,11.75 11.75,11.75 h 152 m 0,0.25 H 20 C 13.4,-32 8,-37.4 8,-44 v -104 c 0,-6.6 5.4,-12 12,-12 h 152 c 6.6,0 12,5.4 12,12 v 104 c 0,6.6 -5.4,12 -12,12 z" id="path817"/>
					</g>
				</g>
			</g>
		</symbol>
		<symbol id="material_x5F_product_x5F_icon_x5F_trim" viewBox="0 -192 192 192" transform="translate(-14.799221,-14.799221)">
			<path fill="#db4437" fill-opacity="0.4" d="M 0,0 V -192 H 192 V 0 Z M 188,-184 H 4 V -4 h 184 z" id="path826"/>
		</symbol>
	</defs>
	<g id="back" transform="translate(-14.799221,-14.799221)">
		<path fill="#f5a623" d="M 84.25,22.36 C 78.88,20.44 73.38,19.57 68.57,19.57 52.35,19.57 28.16,29.41 28,56.6 v 39.93 c 0.16,27.11 24.35,36.95 40.57,36.95 V 108.6 h 0.1 c -0.05,0 -5.05,-0.11 -9.57,-2.24 -4.39,-2.07 -6.19,-4.96 -6.22,-9.91 V 56.67 c 0.03,-5.03 1.83,-7.92 6.22,-9.99 4.25,-2 8.94,-2.21 9.51,-2.23 0.46,0.02 4.84,0.21 8.98,2.03 4.42,1.94 6.39,4.66 6.65,9.2 l 0.01,-0.08 z" id="path834"/>
	</g>
	<g id="front" transform="translate(-14.799221,-14.799221)">
		<path fill="#4789f1" d="M 165.39,96.29 C 165.23,69.18 141.04,59.34 124.82,59.34 v 24.88 c 0.04,0 4.66,0.12 9.02,2.03 4.71,2.06 6.64,5.02 6.67,10.12 v 39.78 c -0.03,5.03 -1.83,7.92 -6.22,9.99 -4.17,1.96 -8.75,2.21 -9.47,2.23 -0.72,-0.03 -5.31,-0.27 -9.47,-2.23 -4.39,-2.07 -6.19,-4.96 -6.22,-9.91 V 56.53 C 109.01,37.45 97,26.93 84.23,22.37 V 55.6 l -0.01,0.08 c 0.02,0.3 0.03,0.6 0.03,0.92 v 79.7 c 0.16,27.11 24.35,36.95 40.57,36.95 16.22,0 40.41,-9.84 40.57,-37.03 z" id="path841"/>
		<path fill="#4789f1" d="m 199.37,69.59 -0.01,0.08 c 0.01,0.14 0.01,0.29 0.01,0.43 z" id="path847"/>
	</g>
	<g id="back_x2C__edge" transform="translate(-14.799221,-14.799221)">
		<path opacity="0.12" d="m 28,96.53 c 0.16,27.11 24.35,36.95 40.57,36.95 v -1 C 52.35,132.48 28.16,122.64 28,95.53" id="path850"/>
		<path opacity="0.12" d="m 77.56,45.55 c -4.14,-1.81 -8.52,-2.01 -8.98,-2.03 -0.57,0.02 -5.26,0.23 -9.51,2.23 -4.39,2.07 -6.19,4.96 -6.22,9.99 v 1 c 0.03,-5.03 1.83,-7.92 6.22,-9.99 4.25,-2 8.94,-2.21 9.51,-2.23 0.46,0.02 4.84,0.21 8.98,2.03 4.42,1.94 6.39,4.66 6.65,9.2 l 0.01,-0.08 v -1 l -0.01,0.08 c -0.26,-4.55 -2.23,-7.27 -6.65,-9.2 z" id="path852"/>
		<g opacity="0.12" id="g856">
			<path d="m 84.15,136.3 c 0.16,27.11 24.35,36.95 40.57,36.95 16.22,0 40.41,-9.84 40.57,-37.03 v -1.03 c -0.16,27.19 -24.35,37.03 -40.57,37.03 -16.22,0 -40.41,-9.84 -40.57,-36.95" id="path854"/>
		</g>
		<radialGradient id="SVGID_5_" cx="77.796501" cy="38.670898" r="26.4217" fx="60.072201" fy="38.9146" gradientUnits="userSpaceOnUse">
			<stop offset="0.33" style="stop-color:#1A237E;stop-opacity:0.15" id="stop858"/>
			<stop offset="0.6206" style="stop-color:#1A237E;stop-opacity:0.02" id="stop860"/>
			<stop offset="1" style="stop-color:#1A237E;stop-opacity:0" id="stop862"/>
		</radialGradient>
		<path fill="url(#SVGID_5_)" d="m 68.5,44.56 c 0.46,0.02 4.67,0.13 8.83,1.95 4.44,1.95 6.62,4.49 6.87,9.06 L 84.21,55.49 84.24,22.36 66.6,44.72 c 0.85,-0.1 1.72,-0.15 1.9,-0.16 z" id="path865" style="fill:url(#SVGID_5_)"/>
		<g opacity="0.12" id="g869">
			<path d="m 140.49,95.11 c -0.03,-5.1 -1.96,-8.05 -6.67,-10.12 -4.36,-1.91 -8.97,-2.03 -9.02,-2.03 v 1.3 c 0.04,0 4.66,0.12 9.02,2.03 4.71,2.06 6.64,5.02 6.67,10.12" id="path867"/>
		</g>
		<radialGradient id="SVGID_6_" cx="322.79639" cy="36.170898" r="26.4217" fx="305.0722" fy="36.4146" gradientUnits="userSpaceOnUse">
			<stop offset="0.33" style="stop-color:#1A237E;stop-opacity:0.15" id="stop879"/>
			<stop offset="0.6206" style="stop-color:#1A237E;stop-opacity:0.02" id="stop881"/>
			<stop offset="1" style="stop-color:#1A237E;stop-opacity:0" id="stop883"/>
		</radialGradient>
		<radialGradient id="SVGID_7_" cx="559.29639" cy="36.170898" r="26.4217" fx="541.5722" fy="36.4146" gradientUnits="userSpaceOnUse">
			<stop offset="0.33" style="stop-color:#1A237E;stop-opacity:0.15" id="stop900"/>
			<stop offset="0.6206" style="stop-color:#1A237E;stop-opacity:0.02" id="stop902"/>
			<stop offset="1" style="stop-color:#1A237E;stop-opacity:0" id="stop904"/>
		</radialGradient>
	</g>
	<g id="front_x2C__edge" transform="translate(-14.799221,-14.799221)">
		<path opacity="0.12" fill="#ffffff" d="m 52.85,97.42 c 0.03,4.95 1.83,7.84 6.22,9.91 4.18,1.97 8.78,2.21 9.47,2.23 v -1.01 h 0.1 c -0.05,0 -5.05,-0.11 -9.57,-2.24 -4.39,-2.07 -6.19,-4.96 -6.22,-9.91" id="path914"/>
		<path opacity="0.12" fill="#ffffff" d="M 68.57,19.43 C 52.35,19.43 28.16,29.27 28,56.46 v 1.01 c 0.16,-27.19 24.35,-37.03 40.57,-37.03 4.8,0 10.31,0.87 15.68,2.79 V 22.22 C 78.88,20.3 73.38,19.43 68.57,19.43 Z" id="path916"/>
		<g opacity="0.12" id="g922">
			<path fill="#ffffff" d="M 109.16,56.52 C 109.04,37.44 97.03,26.92 84.26,22.36 l -0.01,0.88 c 12.76,4.56 24.8,15.72 24.91,34.81" id="path918"/>
			<path fill="#ffffff" d="m 84.26,55.6 -0.01,0.08 c 0.01,0.14 0.01,0.29 0.01,0.43 z" id="path920"/>
		</g>
		<path opacity="0.12" fill="#ffffff" d="M 165.26,96.33 C 165.1,69.22 140.91,59.38 124.69,59.38 v 0.76 c 16.22,0 40.41,9.84 40.57,36.95" id="path924"/>
		<path opacity="0.12" fill="#ffffff" d="m 109.03,136.94 c 0.03,4.95 1.83,7.84 6.22,9.91 4.17,1.96 8.75,2.21 9.47,2.23 0.72,-0.03 5.31,-0.27 9.47,-2.23 4.39,-2.07 6.19,-4.96 6.22,-9.99 v -0.76 c -0.03,5.03 -1.83,7.92 -6.22,9.99 -4.17,1.96 -8.75,2.21 -9.47,2.23 -0.72,-0.03 -5.31,-0.27 -9.47,-2.23 -4.39,-2.07 -6.19,-4.96 -6.22,-9.91" id="path926"/>
	</g>
	<g id="finish" transform="matrix(1.0684313,0,0,1.0684313,-21.368626,-21.368626)" style="stroke-width:0.935952">
		<radialGradient id="SVGID_8_" cx="23.767599" cy="23.933201" r="204.62489" gradientUnits="userSpaceOnUse">
			<stop offset="0" style="stop-color:#FFFFFF;stop-opacity:0.1" id="stop929"/>
			<stop offset="1" style="stop-color:#FFFFFF;stop-opacity:0" id="stop931"/>
		</radialGradient>
		<path fill="url(#SVGID_8_)" d="M 160,172 H 32 c -6.6,0 -12,-5.4 -12,-12 V 32 c 0,-6.6 5.4,-12 12,-12 h 128 c 6.6,0 12,5.4 12,12 v 128 c 0,6.6 -5.4,12 -12,12 z" id="path934" style="fill:url(#SVGID_8_);stroke-width:0.876005"/>
	</g>
	<g id="border" transform="translate(-14.799221,-14.799221)">
		<use xlink:href="#material_x5F_product_x5F_icon_x5F_border" width="192" height="192" y="-192" transform="matrix(1,0,0,-1,14.799221,-14.799221)" overflow="visible" id="use937"/>
	</g>
	<g id="grid" display="none" transform="translate(-14.799221,-14.799221)">
		<use xlink:href="#material_x5F_product_x5F_icon_x5F_grid" width="192" height="192" id="XMLID_1_" x="0" y="-192" transform="matrix(1,0,0,-1,14.799221,-14.799221)" display="inline" overflow="visible" opacity="0.15"/>
	</g>
	<g id="keylines" display="none" transform="translate(-14.799221,-14.799221)">
		<use xlink:href="#material_x5F_product_x5F_icon_x5F_keylines" width="192" height="192" x="0" y="-192" transform="matrix(1,0,0,-1,14.799221,-14.799221)" display="inline" overflow="visible" id="use942"/>
	</g>
	<g id="trim_area" display="none" transform="translate(-14.799221,-14.799221)">
		<use xlink:href="#material_x5F_product_x5F_icon_x5F_trim" width="192" height="192" y="-192" transform="matrix(1,0,0,-1,14.799221,-14.799221)" display="inline" overflow="visible" id="use945"/>
	</g>
</svg>
