<?xml version="1.0" ?>
<!-- Generator: Adobe Illustrator 16.0.3, SVG Export Plug-In . SVG Version: 6.00 Build 0)  -->
<svg xmlns="http://www.w3.org/2000/svg" xmlns:xlink="http://www.w3.org/1999/xlink" version="1.2" baseProfile="tiny-ps" id="Layer_1" viewBox="0 0 90 90" xml:space="preserve">
	

	<title>novaPDF</title>
	

	<g display="none">
		
	
		<g display="inline">
			
		
			<path fill="#4D4E51" d="M86.02,34.981c0-5.42-0.124-9.485-0.493-14.166h5.544l0.369,10.594h0.246    c3.203-6.652,10.717-11.948,20.326-11.948c5.666,0,20.695,2.832,20.695,25.007v35.477h-5.914V44.959    c0-10.84-4.188-20.572-16.383-20.572c-8.254,0-15.398,5.914-17.739,13.676c-0.369,1.354-0.739,3.324-0.739,5.173v36.709H86.02    V34.981z"/>
			
		
			<path fill="#4D4E51" d="M174.221,81.299c-15.275,0-27.102-11.948-27.102-30.426c0-20.202,13.305-31.412,27.963-31.412    c16.385,0,27.471,12.317,27.471,30.426c0,21.927-15.151,31.412-28.209,31.412H174.221z M174.59,76.371    c12.318,0,22.051-11.086,22.051-26.238c0-10.84-6.037-25.746-21.682-25.746c-15.152,0-21.927,13.428-21.927,26.116    c0,14.782,9.362,25.868,21.435,25.868H174.59z"/>
			
		
			<path fill="#4D4E51" d="M215.119,20.815l13.797,36.709c2.341,5.789,4.189,10.717,5.79,15.769h0.247    c1.602-4.928,3.818-10.103,6.035-15.769l14.043-36.709h6.16L237.17,79.944h-5.174l-23.159-59.129H215.119z"/>
			
		
			<path fill="#4D4E51" d="M309.48,65.9c0,4.682,0.123,9.486,0.861,14.044h-5.42l-0.862-8.501h-0.246    c-2.956,4.56-9.485,9.855-18.971,9.855c-11.948,0-17.369-8.376-17.369-16.261c0-13.674,11.949-21.927,36.094-21.68v-1.602    c0-5.79-1.109-17.493-15.151-17.37c-5.175,0-10.595,1.356-14.906,4.435l-1.848-4.311c5.42-3.572,12.072-5.05,17.369-5.05    c17.123,0,20.449,12.811,20.449,23.281V65.9z M303.567,48.286c-12.935-0.37-29.935,1.601-29.935,15.768    c0,8.499,5.667,12.317,11.826,12.317c9.855,0,15.521-6.035,17.492-11.824c0.493-1.233,0.616-2.587,0.616-3.573V48.286z"/>
			
	
		</g>
		
	
		<g display="inline">
			
		
			<path fill="#D41F26" d="M324.732-1.855c4.07-0.842,9.4-1.563,16.186-1.563c8.332,0,14.438,2.405,18.314,6.737    c3.586,3.849,5.717,9.744,5.717,16.962c0,7.34-1.744,13.115-5.039,17.324c-4.457,5.896-11.727,8.903-19.963,8.903    c-2.52,0-4.846-0.12-6.783-0.721V78.27h-8.432V-1.855z M333.164,37.244c1.84,0.602,4.166,0.843,6.977,0.843    c10.178,0,16.379-6.137,16.379-17.324c0-10.707-6.105-15.881-15.408-15.881c-3.684,0-6.494,0.361-7.947,0.842V37.244z"/>
			
		
			<path fill="#D41F26" d="M376.285-1.735c5.137-0.962,11.242-1.684,17.926-1.684c12.113,0,20.738,3.487,26.457,10.105    c5.813,6.617,9.205,16.001,9.205,29.114c0,13.234-3.295,24.062-9.4,31.521c-6.105,7.58-16.184,11.67-28.879,11.67    c-6.006,0-11.047-0.361-15.309-0.963V-1.735z M384.715,69.969c2.131,0.48,5.232,0.601,8.527,0.601    c18.023,0,27.813-12.512,27.813-34.407c0.098-19.13-8.623-31.28-26.455-31.28c-4.361,0-7.656,0.481-9.885,1.083V69.969z"/>
			
		
			<path fill="#D41F26" d="M440.82-2.818h35.176v8.783H449.25v26.948h24.711v8.663H449.25V78.27h-8.43V-2.818z"/>
			
	
		</g>
		

	</g>
	

	<g display="none">
		
	
		<circle display="inline" fill-rule="evenodd" fill="#10703A" stroke="#FFFFFF" cx="282.504" cy="158.441" r="30.246"/>
		
	
		<g display="inline">
			
		
			<path fill="#FFFFFF" d="M295.19,164.389c-0.805-6.923-6.504-12.426-13.716-16.527c2.307-3.563,5.007-6.821,6.888-8.95    c1.396-1.579,0.06-3.301-1.675-2.101c-2.283,1.58-5.525,4.822-8.748,9.204c-8.006-3.849-17.094-6.151-23.327-6.927    c-4.366-0.543-5.776,2.711-2.401,3.283c5.936,1.007,15.532,3.128,23.307,7.174c-0.532,0.831-1.058,1.691-1.57,2.579    c-2.983,5.168-4.899,12.298-1.207,19.188C278.938,182.877,296.683,177.244,295.19,164.389z M283.357,169.693    c-3.331-0.465-7.15-5.05-6.378-11.396c0.251-2.066,1.093-4.32,2.241-6.57c4.293,2.879,7.563,6.53,8.555,11.136    C288.902,168.091,285.561,170.001,283.357,169.693z"/>
			
		
			<path fill="none" stroke="#10703A" stroke-width="0.3428" d="M295.19,164.389c-0.805-6.923-6.504-12.426-13.716-16.527    c2.307-3.563,5.007-6.821,6.888-8.95c1.396-1.579,0.06-3.301-1.675-2.101c-2.283,1.58-5.525,4.822-8.748,9.204    c-8.006-3.849-17.094-6.151-23.327-6.927c-4.366-0.543-5.776,2.711-2.401,3.283c5.936,1.007,15.532,3.128,23.307,7.174    c-0.532,0.831-1.058,1.691-1.57,2.579c-2.983,5.168-4.899,12.298-1.207,19.188C278.938,182.877,296.683,177.244,295.19,164.389z     M283.357,169.693c-3.331-0.465-7.15-5.05-6.378-11.396c0.251-2.066,1.093-4.32,2.241-6.57c4.293,2.879,7.563,6.53,8.555,11.136    C288.902,168.091,285.561,170.001,283.357,169.693z"/>
			
	
		</g>
		

	</g>
	

	<g>
		
	
		<circle fill-rule="evenodd" fill="#991B1E" cx="46.324" cy="45" r="41.676"/>
		
	
		<g>
			
		
			<path fill="#FFFFFF" d="M63.806,53.194c-1.109-9.539-8.963-17.122-18.901-22.774c3.179-4.907,6.901-9.398,9.492-12.332    c1.924-2.174,0.082-4.548-2.308-2.894c-3.146,2.176-7.614,6.645-12.054,12.682c-11.033-5.303-23.555-8.476-32.143-9.544    c-6.016-0.749-7.96,3.735-3.309,4.524c8.18,1.387,21.401,4.31,32.113,9.883c-0.732,1.146-1.457,2.332-2.163,3.556    c-4.111,7.121-6.751,16.944-1.664,26.439C41.411,78.67,65.861,70.909,63.806,53.194z M47.499,60.505    c-4.589-0.642-9.852-6.959-8.788-15.705c0.347-2.847,1.506-5.952,3.088-9.052c5.916,3.967,10.42,8.998,11.787,15.344    C55.14,58.297,50.536,60.929,47.499,60.505z"/>
			
		
			<path fill="none" stroke="#991B1E" stroke-width="0.4533" d="M63.806,53.194c-1.109-9.539-8.963-17.122-18.901-22.774    c3.179-4.907,6.901-9.398,9.492-12.332c1.924-2.174,0.082-4.548-2.308-2.894c-3.146,2.176-7.614,6.645-12.054,12.682    c-11.033-5.303-23.555-8.476-32.143-9.544c-6.016-0.749-7.96,3.735-3.309,4.524c8.18,1.387,21.401,4.31,32.113,9.883    c-0.732,1.146-1.457,2.332-2.163,3.556c-4.111,7.121-6.751,16.944-1.664,26.439C41.411,78.67,65.861,70.909,63.806,53.194z     M47.499,60.505c-4.589-0.642-9.852-6.959-8.788-15.705c0.347-2.847,1.506-5.952,3.088-9.052    c5.916,3.967,10.42,8.998,11.787,15.344C55.14,58.297,50.536,60.929,47.499,60.505z"/>
			
	
		</g>
		

	</g>
	

</svg>
